 0
SECTION
 2
ENTITIES
  0
LINE
  8
MY3DLAYER
10
1.1250000000005
20
1.35073571722206
30
0.0969444537859472
11
1.1250000000005
21
1.37500000270042
31
0.0937500000005474
  0
LINE
  8
MY3DLAYER
10
1.1250000000005
20
1.32812500270042
30
0.106310118395756
11
1.1250000000005
21
1.35073571722206
31
0.0969444537859472
  0
LINE
  8
MY3DLAYER
10
1.1250000000005
20
1.30870874196418
30
0.121208739264309
11
1.1250000000005
21
1.32812500270042
31
0.106310118395756
  0
LINE
  8
MY3DLAYER
10
1.1250000000005
20
1.29381012109563
30
0.140625000000547
11
1.1250000000005
21
1.30870874196418
31
0.121208739264309
  0
LINE
  8
MY3DLAYER
10
1.1250000000005
20
1.28444445648582
30
0.163235714522186
11
1.1250000000005
21
1.29381012109563
31
0.140625000000547
  0
LINE
  8
MY3DLAYER
10
1.1250000000005
20
1.28125000270042
30
0.187500000000547
11
1.1250000000005
21
1.28444445648582
31
0.163235714522186
  0
LINE
  8
MY3DLAYER
10
1.1250000000005
20
1.44129126343666
30
0.121208739264309
11
1.1250000000005
21
1.45618988430521
31
0.140625000000547
  0
LINE
  8
MY3DLAYER
10
1.00000000000047
20
1.00000000270045
30
0.500000000000254
11
1.00000000000049
21
1.00000000270045
31
-0.374999999999454
  0
LINE
  8
MY3DLAYER
10
1.0000000000005
20
1.6250000027005
30
0.375000000000546
11
1.0000000000005
21
1.62287036684357
31
0.358823809681638
  0
LINE
  8
MY3DLAYER
10
1.00000000000051
20
1.68750000270045
30
0.500000000000546
11
1.00000000000047
21
1.00000000270045
31
0.500000000000254
  0
LINE
  8
MY3DLAYER
10
1.00000000000051
20
1.68750000270045
30
0.500000000000546
11
1.00000000000051
21
1.68750000270045
31
-0.374999999999454
  0
LINE
  8
MY3DLAYER
10
1.00000000000051
20
1.68750000270045
30
-0.374999999999454
11
1.00000000000049
21
1.00000000270045
31
-0.374999999999454
  0
LINE
  8
MY3DLAYER
10
1.0000000000005
20
1.62287036684357
30
0.391176190319453
11
1.0000000000005
21
1.6250000027005
31
0.375000000000546
  0
LINE
  8
MY3DLAYER
10
1.0000000000005
20
1.60669417652466
30
0.419194173824705
11
1.0000000000005
21
1.61662659043703
31
0.406250000000546
  0
LINE
  8
MY3DLAYER
10
1.0000000000005
20
1.5937500027005
30
0.429126587737073
11
1.0000000000005
21
1.60669417652466
31
0.419194173824705
  0
LINE
  8
MY3DLAYER
10
1.0000000000005
20
1.57867619301941
30
0.435370364143613
11
1.0000000000005
21
1.5937500027005
31
0.429126587737073
  0
LINE
  8
MY3DLAYER
10
1.0000000000005
20
1.39926428817878
30
0.278055546215148
11
1.0000000000005
21
1.37500000270042
31
0.281250000000547
  0
LINE
  8
MY3DLAYER
10
1.00000000000049
20
1.5625000027005
30
0.437500000000546
11
1.0000000000005
21
1.57867619301941
31
0.435370364143613
  0
LINE
  8
MY3DLAYER
10
1.0000000000005
20
1.42187500270042
30
0.268689881605339
11
1.0000000000005
21
1.39926428817878
31
0.278055546215148
  0
LINE
  8
MY3DLAYER
10
1.0000000000005
20
1.44129126343666
30
0.253791260736786
11
1.0000000000005
21
1.42187500270042
31
0.268689881605339
  0
LINE
  8
MY3DLAYER
10
1.0000000000005
20
1.37500000270042
30
0.281250000000547
11
1.0000000000005
21
1.35073571722206
31
0.278055546215148
  0
LINE
  8
MY3DLAYER
10
1.00000000000049
20
1.5463238123816
30
0.435370364143613
11
1.00000000000049
21
1.5625000027005
31
0.437500000000546
  0
LINE
  8
MY3DLAYER
10
1.00000000000049
20
1.5312500027005
30
0.429126587737073
11
1.00000000000049
21
1.5463238123816
31
0.435370364143613
  0
LINE
  8
MY3DLAYER
10
1.00000000000049
20
1.51830582887634
30
0.419194173824705
11
1.00000000000049
21
1.5312500027005
31
0.429126587737073
  0
LINE
  8
MY3DLAYER
10
1.00000000000049
20
1.50837341496398
30
0.406250000000546
11
1.00000000000049
21
1.51830582887634
31
0.419194173824705
  0
LINE
  8
MY3DLAYER
10
1.00000000000049
20
1.50212963855744
30
0.358823809681638
11
1.00000000000049
21
1.5000000027005
31
0.375000000000546
  0
LINE
  8
MY3DLAYER
10
1.00000000000049
20
1.51830582887634
30
0.330805826176387
11
1.00000000000049
21
1.50837341496398
31
0.343750000000546
  0
LINE
  8
MY3DLAYER
10
1.00000000000049
20
1.50837341496398
30
0.343750000000546
11
1.00000000000049
21
1.50212963855744
31
0.358823809681638
  0
LINE
  8
MY3DLAYER
10
1.0000000000005
20
1.5463238123816
30
0.314629635857479
11
1.00000000000049
21
1.5312500027005
31
0.320873412264018
  0
LINE
  8
MY3DLAYER
10
1.00000000000049
20
1.50212963855744
30
0.391176190319453
11
1.00000000000049
21
1.50837341496398
31
0.406250000000546
  0
LINE
  8
MY3DLAYER
10
1.00000000000049
20
1.5312500027005
30
0.320873412264018
11
1.00000000000049
21
1.51830582887634
31
0.330805826176387
  0
LINE
  8
MY3DLAYER
10
1.00000000000049
20
1.5000000027005
30
0.375000000000546
11
1.00000000000049
21
1.50212963855744
31
0.391176190319453
  0
LINE
  8
MY3DLAYER
10
1.0000000000005
20
1.5625000027005
30
0.312500000000546
11
1.0000000000005
21
1.5463238123816
31
0.314629635857479
  0
LINE
  8
MY3DLAYER
10
1.0000000000005
20
1.57867619301941
30
0.314629635857479
11
1.0000000000005
21
1.5625000027005
31
0.312500000000546
  0
LINE
  8
MY3DLAYER
10
1.0000000000005
20
1.60669417652466
30
0.330805826176387
11
1.0000000000005
21
1.5937500027005
31
0.320873412264018
  0
LINE
  8
MY3DLAYER
10
1.0000000000005
20
1.61662659043703
30
0.406250000000546
11
1.0000000000005
21
1.62287036684357
31
0.391176190319453
  0
LINE
  8
MY3DLAYER
10
1.0000000000005
20
1.46875000270042
30
0.187500000000547
11
1.0000000000005
21
1.46555554891502
31
0.211764285478909
  0
LINE
  8
MY3DLAYER
10
1.0000000000005
20
1.46555554891502
30
0.211764285478909
11
1.0000000000005
21
1.45618988430521
31
0.234375000000547
  0
LINE
  8
MY3DLAYER
10
1.0000000000005
20
1.61662659043703
30
0.343750000000546
11
1.0000000000005
21
1.60669417652466
31
0.330805826176387
  0
LINE
  8
MY3DLAYER
10
1.0000000000005
20
1.35073571722206
30
0.278055546215148
11
1.0000000000005
21
1.32812500270042
31
0.268689881605339
  0
LINE
  8
MY3DLAYER
10
1.0000000000005
20
1.32812500270042
30
0.268689881605339
11
1.0000000000005
21
1.30870874196418
31
0.253791260736786
  0
LINE
  8
MY3DLAYER
10
1.0000000000005
20
1.30870874196418
30
0.253791260736786
11
1.0000000000005
21
1.29381012109563
31
0.234375000000547
  0
LINE
  8
MY3DLAYER
10
1.0000000000005
20
1.45618988430521
30
0.234375000000547
11
1.0000000000005
21
1.44129126343666
31
0.253791260736786
  0
LINE
  8
MY3DLAYER
10
1.0000000000005
20
1.29381012109563
30
0.234375000000547
11
1.0000000000005
21
1.28444445648582
31
0.211764285478909
  0
LINE
  8
MY3DLAYER
10
1.0000000000005
20
1.28444445648582
30
0.211764285478909
11
1.0000000000005
21
1.28125000270042
31
0.187500000000547
  0
LINE
  8
MY3DLAYER
10
1.0000000000005
20
1.28125000270042
30
0.187500000000547
11
1.0000000000005
21
1.28444445648582
31
0.163235714522186
  0
LINE
  8
MY3DLAYER
10
1.0000000000005
20
1.28444445648582
30
0.163235714522186
11
1.0000000000005
21
1.29381012109563
31
0.140625000000547
  0
LINE
  8
MY3DLAYER
10
1.0000000000005
20
1.30870874196418
30
0.121208739264309
11
1.0000000000005
21
1.32812500270042
31
0.106310118395756
  0
LINE
  8
MY3DLAYER
10
1.0000000000005
20
1.29381012109563
30
0.140625000000547
11
1.0000000000005
21
1.30870874196418
31
0.121208739264309
  0
LINE
  8
MY3DLAYER
10
1.0000000000005
20
1.32812500270042
30
0.106310118395756
11
1.0000000000005
21
1.35073571722206
31
0.0969444537859472
  0
LINE
  8
MY3DLAYER
10
1.0000000000005
20
1.35073571722206
30
0.0969444537859472
11
1.0000000000005
21
1.37500000270042
31
0.0937500000005474
  0
LINE
  8
MY3DLAYER
10
1.0000000000005
20
1.42187500270042
30
0.106310118395756
11
1.0000000000005
21
1.44129126343666
31
0.121208739264309
  0
LINE
  8
MY3DLAYER
10
1.0000000000005
20
1.39926428817878
30
0.0969444537859472
11
1.0000000000005
21
1.42187500270042
31
0.106310118395756
  0
LINE
  8
MY3DLAYER
10
1.0000000000005
20
1.37500000270042
30
0.0937500000005474
11
1.0000000000005
21
1.39926428817878
31
0.0969444537859472
  0
LINE
  8
MY3DLAYER
10
1.0000000000005
20
1.44129126343666
30
0.121208739264309
11
1.0000000000005
21
1.45618988430521
31
0.140625000000547
  0
LINE
  8
MY3DLAYER
10
1.0000000000005
20
1.45618988430521
30
0.140625000000547
11
1.0000000000005
21
1.46555554891502
31
0.163235714522186
  0
LINE
  8
MY3DLAYER
10
1.0000000000005
20
1.46555554891502
30
0.163235714522186
11
1.0000000000005
21
1.46875000270042
31
0.187500000000547
  0
LINE
  8
MY3DLAYER
10
1.12500000000049
20
1.68750000270041
30
0.625000000000547
11
1.12500000000051
21
1.68750000270045
31
-0.374999999999453
  0
LINE
  8
MY3DLAYER
10
1.12500000000051
20
1.68750000270045
30
-0.374999999999453
11
1.12500000000049
21
1.00000000270044
31
-0.374999999999453
  0
LINE
  8
MY3DLAYER
10
1.1250000000005
20
1.6250000027005
30
0.375000000000547
11
1.1250000000005
21
1.62287036684356
31
0.35882380968164
  0
LINE
  8
MY3DLAYER
10
1.12500000000049
20
1.68750000270041
30
0.625000000000547
11
1.12500000000044
21
1.0000000027004
31
0.625000000000256
  0
LINE
  8
MY3DLAYER
10
1.1250000000005
20
1.54632381238159
30
0.314629635857481
11
1.12500000000049
21
1.5312500027005
31
0.32087341226402
  0
LINE
  8
MY3DLAYER
10
1.1250000000005
20
1.60669417652466
30
0.330805826176388
11
1.1250000000005
21
1.5937500027005
31
0.32087341226402
  0
LINE
  8
MY3DLAYER
10
1.1250000000005
20
1.61662659043703
30
0.343750000000547
11
1.1250000000005
21
1.60669417652466
31
0.330805826176388
  0
LINE
  8
MY3DLAYER
10
1.1250000000005
20
1.57867619301941
30
0.314629635857481
11
1.1250000000005
21
1.5625000027005
31
0.312500000000547
  0
LINE
  8
MY3DLAYER
10
1.12500000000049
20
1.5312500027005
30
0.32087341226402
11
1.12500000000049
21
1.51830582887634
31
0.330805826176388
  0
LINE
  8
MY3DLAYER
10
1.1250000000005
20
1.62287036684356
30
0.35882380968164
11
1.1250000000005
21
1.61662659043703
31
0.343750000000547
  0
LINE
  8
MY3DLAYER
10
1.1250000000005
20
1.5937500027005
30
0.32087341226402
11
1.1250000000005
21
1.57867619301941
31
0.314629635857481
  0
LINE
  8
MY3DLAYER
10
1.1250000000005
20
1.5625000027005
30
0.312500000000547
11
1.1250000000005
21
1.54632381238159
31
0.314629635857481
  0
LINE
  8
MY3DLAYER
10
1.0000000000005
20
1.5937500027005
30
0.320873412264018
11
1.0000000000005
21
1.57867619301941
31
0.314629635857479
  0
LINE
  8
MY3DLAYER
10
1.12500000000049
20
1.50212963855743
30
0.35882380968164
11
1.12500000000049
21
1.5000000027005
31
0.375000000000547
  0
LINE
  8
MY3DLAYER
10
1.12500000000049
20
1.5000000027005
30
0.375000000000547
11
1.12500000000049
21
1.50212963855743
31
0.391176190319455
  0
LINE
  8
MY3DLAYER
10
1.12500000000049
20
1.50212963855743
30
0.391176190319455
11
1.12500000000049
21
1.50837341496397
31
0.406250000000547
  0
LINE
  8
MY3DLAYER
10
1.12500000000049
20
1.50837341496397
30
0.406250000000547
11
1.12500000000049
21
1.51830582887634
31
0.419194173824707
  0
LINE
  8
MY3DLAYER
10
1.12500000000049
20
1.51830582887634
30
0.419194173824707
11
1.12500000000049
21
1.5312500027005
31
0.429126587737075
  0
LINE
  8
MY3DLAYER
10
1.12500000000049
20
1.5312500027005
30
0.429126587737075
11
1.12500000000049
21
1.54632381238159
31
0.435370364143614
  0
LINE
  8
MY3DLAYER
10
1.12500000000049
20
1.51830582887634
30
0.330805826176388
11
1.12500000000049
21
1.50837341496397
31
0.343750000000547
  0
LINE
  8
MY3DLAYER
10
1.12500000000049
20
1.54632381238159
30
0.435370364143614
11
1.12500000000049
21
1.5625000027005
31
0.437500000000548
  0
LINE
  8
MY3DLAYER
10
1.0000000000005
20
1.62287036684357
30
0.358823809681638
11
1.0000000000005
21
1.61662659043703
31
0.343750000000546
  0
LINE
  8
MY3DLAYER
10
1.12500000000049
20
1.5625000027005
30
0.437500000000548
11
1.1250000000005
21
1.57867619301941
31
0.435370364143614
  0
LINE
  8
MY3DLAYER
10
1.12500000000049
20
1.50837341496397
30
0.343750000000547
11
1.12500000000049
21
1.50212963855743
31
0.35882380968164
  0
LINE
  8
MY3DLAYER
10
1.1250000000005
20
1.57867619301941
30
0.435370364143614
11
1.1250000000005
21
1.5937500027005
31
0.429126587737075
  0
LINE
  8
MY3DLAYER
10
1.1250000000005
20
1.5937500027005
30
0.429126587737075
11
1.1250000000005
21
1.60669417652466
31
0.419194173824707
  0
LINE
  8
MY3DLAYER
10
1.1250000000005
20
1.60669417652466
30
0.419194173824707
11
1.1250000000005
21
1.61662659043702
31
0.406250000000547
  0
LINE
  8
MY3DLAYER
10
1.1250000000005
20
1.61662659043702
30
0.406250000000547
11
1.1250000000005
21
1.62287036684356
31
0.391176190319455
  0
LINE
  8
MY3DLAYER
10
1.1250000000005
20
1.46875000270042
30
0.187500000000547
11
1.1250000000005
21
1.46555554891502
31
0.211764285478909
  0
LINE
  8
MY3DLAYER
10
1.1250000000005
20
1.62287036684356
30
0.391176190319455
11
1.1250000000005
21
1.6250000027005
31
0.375000000000547
  0
LINE
  8
MY3DLAYER
10
1.1250000000005
20
1.45618988430521
30
0.140625000000547
11
1.1250000000005
21
1.46555554891502
31
0.163235714522186
  0
LINE
  8
MY3DLAYER
10
1.1250000000005
20
1.46555554891502
30
0.163235714522186
11
1.1250000000005
21
1.46875000270042
31
0.187500000000547
  0
LINE
  8
MY3DLAYER
10
1.12500000000044
20
1.0000000027004
30
0.625000000000256
11
1.12500000000049
21
1.00000000270044
31
-0.374999999999453
  0
LINE
  8
MY3DLAYER
10
1.1250000000005
20
1.42187500270042
30
0.106310118395756
11
1.1250000000005
21
1.44129126343666
31
0.121208739264309
  0
LINE
  8
MY3DLAYER
10
1.1250000000005
20
1.39926428817878
30
0.0969444537859472
11
1.1250000000005
21
1.42187500270042
31
0.106310118395756
  0
LINE
  8
MY3DLAYER
10
1.1250000000005
20
1.37500000270042
30
0.0937500000005474
11
1.1250000000005
21
1.39926428817878
31
0.0969444537859472
  0
LINE
  8
MY3DLAYER
10
1.1250000000005
20
1.28444445648582
30
0.211764285478909
11
1.1250000000005
21
1.28125000270042
31
0.187500000000547
  0
LINE
  8
MY3DLAYER
10
1.1250000000005
20
1.29381012109563
30
0.234375000000547
11
1.1250000000005
21
1.28444445648582
31
0.211764285478909
  0
LINE
  8
MY3DLAYER
10
1.1250000000005
20
1.30870874196418
30
0.253791260736786
11
1.1250000000005
21
1.29381012109563
31
0.234375000000547
  0
LINE
  8
MY3DLAYER
10
1.1250000000005
20
1.32812500270042
30
0.268689881605339
11
1.1250000000005
21
1.30870874196418
31
0.253791260736786
  0
LINE
  8
MY3DLAYER
10
1.1250000000005
20
1.35073571722206
30
0.278055546215148
11
1.1250000000005
21
1.32812500270042
31
0.268689881605339
  0
LINE
  8
MY3DLAYER
10
1.1250000000005
20
1.37500000270042
30
0.281250000000547
11
1.1250000000005
21
1.35073571722206
31
0.278055546215148
  0
LINE
  8
MY3DLAYER
10
1.1250000000005
20
1.39926428817878
30
0.278055546215148
11
1.1250000000005
21
1.37500000270042
31
0.281250000000547
  0
LINE
  8
MY3DLAYER
10
1.1250000000005
20
1.42187500270042
30
0.268689881605339
11
1.1250000000005
21
1.39926428817878
31
0.278055546215148
  0
LINE
  8
MY3DLAYER
10
1.1250000000005
20
1.44129126343666
30
0.253791260736786
11
1.1250000000005
21
1.42187500270042
31
0.268689881605339
  0
LINE
  8
MY3DLAYER
10
1.1250000000005
20
1.45618988430521
30
0.234375000000547
11
1.1250000000005
21
1.44129126343666
31
0.253791260736786
  0
LINE
  8
MY3DLAYER
10
1.1250000000005
20
1.46555554891502
30
0.211764285478909
11
1.1250000000005
21
1.45618988430521
31
0.234375000000547
  0
LINE
  8
MY3DLAYER
10
0.125000000000513
20
1.687500002699
30
0.500000000000296
11
0.125000000000513
21
1.00000000269898
31
0.500000000000148
  0
LINE
  8
MY3DLAYER
10
0.125000000000513
20
1.00000000269898
30
0.500000000000148
11
0.125000000000487
21
1.00000000269894
31
0.625000000000148
  0
LINE
  8
MY3DLAYER
10
0.125000000000487
20
1.68750000269896
30
0.625000000000296
11
0.125000000000487
21
1.00000000269894
31
0.625000000000148
  0
LINE
  8
MY3DLAYER
10
0.125000000000513
20
1.687500002699
30
0.500000000000296
11
0.125000000000487
21
1.68750000269896
31
0.625000000000296
  0
LINE
  8
MY3DLAYER
10
0.717685182072006
20
1.179126590437
30
0.500000000000317
11
0.732758991753098
21
1.18537036684354
31
0.500000000000322
  0
LINE
  8
MY3DLAYER
10
0.748935182072006
20
1.18750000270047
30
0.500000000000326
11
0.765111372390914
21
1.18537036684354
31
0.500000000000329
  0
LINE
  8
MY3DLAYER
10
0.686435182072006
20
1.12500000270047
30
0.500000000000294
11
0.688564817928939
21
1.14117619301938
31
0.500000000000299
  0
LINE
  8
MY3DLAYER
10
0.688564817928939
20
1.14117619301938
30
0.500000000000299
11
0.694808594335478
21
1.15625000270047
31
0.500000000000306
  0
LINE
  8
MY3DLAYER
10
1.00000000000049
20
1.00000000270045
30
-0.374999999999454
11
1.12500000000049
21
1.00000000270044
31
-0.374999999999453
  0
LINE
  8
MY3DLAYER
10
1.00000000000051
20
1.68750000270045
30
-0.374999999999454
11
1.12500000000051
21
1.68750000270045
31
-0.374999999999453
  0
LINE
  8
MY3DLAYER
10
0.765111372390914
20
1.18537036684354
30
0.500000000000329
11
0.780185182072006
21
1.179126590437
31
0.50000000000033
  0
LINE
  8
MY3DLAYER
10
0.125000000000487
20
1.00000000269894
30
0.625000000000148
11
1.12500000000044
21
1.0000000027004
31
0.625000000000256
  0
LINE
  8
MY3DLAYER
10
1.12500000000049
20
1.68750000270041
30
0.625000000000547
11
0.125000000000487
21
1.68750000269896
31
0.625000000000296
  0
LINE
  8
MY3DLAYER
10
0.686435182071981
20
1.12500000270043
30
0.625000000000294
11
0.688564817928914
21
1.14117619301934
31
0.625000000000299
  0
LINE
  8
MY3DLAYER
10
0.688564817928914
20
1.14117619301934
30
0.625000000000299
11
0.694808594335453
21
1.15625000270043
31
0.625000000000306
  0
LINE
  8
MY3DLAYER
10
0.694808594335453
20
1.15625000270043
30
0.625000000000306
11
0.704741008247821
21
1.16919417652459
31
0.625000000000312
  0
LINE
  8
MY3DLAYER
10
0.704741008247821
20
1.16919417652459
30
0.625000000000312
11
0.717685182071981
21
1.17912659043696
31
0.625000000000317
  0
LINE
  8
MY3DLAYER
10
0.717685182071981
20
1.17912659043696
30
0.625000000000317
11
0.732758991753073
21
1.1853703668435
31
0.625000000000322
  0
LINE
  8
MY3DLAYER
10
0.732758991753073
20
1.1853703668435
30
0.625000000000322
11
0.748935182071981
21
1.18750000270043
31
0.625000000000326
  0
LINE
  8
MY3DLAYER
10
0.748935182071981
20
1.18750000270043
30
0.625000000000326
11
0.765111372390888
21
1.1853703668435
31
0.625000000000329
  0
LINE
  8
MY3DLAYER
10
0.765111372390888
20
1.1853703668435
30
0.625000000000329
11
0.78018518207198
21
1.17912659043696
31
0.62500000000033
  0
LINE
  8
MY3DLAYER
10
0.78018518207198
20
1.17912659043696
30
0.62500000000033
11
0.79312935589614
21
1.16919417652459
31
0.62500000000033
  0
LINE
  8
MY3DLAYER
10
0.79312935589614
20
1.16919417652459
30
0.62500000000033
11
0.803061769808508
21
1.15625000270043
31
0.625000000000327
  0
LINE
  8
MY3DLAYER
10
0.803061769808508
20
1.15625000270043
30
0.625000000000327
11
0.809305546215047
21
1.14117619301934
31
0.625000000000324
  0
LINE
  8
MY3DLAYER
10
0.809305546215047
20
1.14117619301934
30
0.625000000000324
11
0.81143518207198
21
1.12500000270043
31
0.625000000000319
  0
LINE
  8
MY3DLAYER
10
0.81143518207198
20
1.12500000270043
30
0.625000000000319
11
0.809305546215047
21
1.10882381238153
31
0.625000000000314
  0
LINE
  8
MY3DLAYER
10
0.809305546215047
20
1.10882381238153
30
0.625000000000314
11
0.803061769808508
21
1.09375000270043
31
0.625000000000307
  0
LINE
  8
MY3DLAYER
10
0.803061769808508
20
1.09375000270043
30
0.625000000000307
11
0.79312935589614
21
1.08080582887627
31
0.625000000000301
  0
LINE
  8
MY3DLAYER
10
0.79312935589614
20
1.08080582887627
30
0.625000000000301
11
0.780185182071981
21
1.07087341496391
31
0.625000000000296
  0
LINE
  8
MY3DLAYER
10
0.780185182071981
20
1.07087341496391
30
0.625000000000296
11
0.765111372390888
21
1.06462963855737
31
0.62500000000029
  0
LINE
  8
MY3DLAYER
10
0.765111372390888
20
1.06462963855737
30
0.62500000000029
11
0.748935182071981
21
1.06250000270043
31
0.625000000000286
  0
LINE
  8
MY3DLAYER
10
0.748935182071981
20
1.06250000270043
30
0.625000000000286
11
0.732758991753073
21
1.06462963855737
31
0.625000000000284
  0
LINE
  8
MY3DLAYER
10
0.732758991753073
20
1.06462963855737
30
0.625000000000284
11
0.717685182071981
21
1.07087341496391
31
0.625000000000283
  0
LINE
  8
MY3DLAYER
10
0.717685182071981
20
1.07087341496391
30
0.625000000000283
11
0.704741008247821
21
1.08080582887627
31
0.625000000000283
  0
LINE
  8
MY3DLAYER
10
0.704741008247821
20
1.08080582887627
30
0.625000000000283
11
0.694808594335453
21
1.09375000270043
31
0.625000000000286
  0
LINE
  8
MY3DLAYER
10
0.694808594335453
20
1.09375000270043
30
0.625000000000286
11
0.688564817928914
21
1.10882381238153
31
0.625000000000289
  0
LINE
  8
MY3DLAYER
10
0.688564817928914
20
1.10882381238153
30
0.625000000000289
11
0.686435182071981
21
1.12500000270043
31
0.625000000000294
  0
LINE
  8
MY3DLAYER
10
0.312499999999984
20
1.12500000269893
30
0.625000000000177
11
0.31037036414305
21
1.10882381238002
31
0.625000000000185
  0
LINE
  8
MY3DLAYER
10
0.31037036414305
20
1.10882381238002
30
0.625000000000185
11
0.304126587736509
21
1.09375000269893
31
0.625000000000178
  0
LINE
  8
MY3DLAYER
10
0.304126587736509
20
1.09375000269893
30
0.625000000000178
11
0.29419417382414
21
1.08080582887477
31
0.625000000000172
  0
LINE
  8
MY3DLAYER
10
0.29419417382414
20
1.08080582887477
30
0.625000000000172
11
0.28124999999998
21
1.0708734149624
31
0.625000000000167
  0
LINE
  8
MY3DLAYER
10
0.28124999999998
20
1.0708734149624
30
0.625000000000167
11
0.266176190318887
21
1.06462963855586
31
0.625000000000161
  0
LINE
  8
MY3DLAYER
10
0.266176190318887
20
1.06462963855586
30
0.625000000000161
11
0.24999999999998
21
1.06250000269893
31
0.625000000000157
  0
LINE
  8
MY3DLAYER
10
0.24999999999998
20
1.06250000269893
30
0.625000000000157
11
0.233823809681072
21
1.06462963855587
31
0.625000000000155
  0
LINE
  8
MY3DLAYER
10
0.233823809681072
20
1.06462963855587
30
0.625000000000155
11
0.21874999999998
21
1.07087341496241
31
0.625000000000154
  0
LINE
  8
MY3DLAYER
10
0.21874999999998
20
1.07087341496241
30
0.625000000000154
11
0.205805826175822
21
1.08080582887478
31
0.625000000000154
  0
LINE
  8
MY3DLAYER
10
0.205805826175822
20
1.08080582887478
30
0.625000000000154
11
0.195873412263454
21
1.09375000269894
31
0.625000000000157
  0
LINE
  8
MY3DLAYER
10
0.195873412263454
20
1.09375000269894
30
0.625000000000157
11
0.189629635856916
21
1.10882381238003
31
0.62500000000016
  0
LINE
  8
MY3DLAYER
10
0.189629635856916
20
1.10882381238003
30
0.62500000000016
11
0.187499999999984
21
1.12500000269894
31
0.625000000000177
  0
LINE
  8
MY3DLAYER
10
0.187499999999984
20
1.12500000269894
30
0.625000000000177
11
0.189629635856918
21
1.14117619301784
31
0.62500000000017
  0
LINE
  8
MY3DLAYER
10
0.189629635856918
20
1.14117619301784
30
0.62500000000017
11
0.195873412263458
21
1.15625000269894
31
0.625000000000177
  0
LINE
  8
MY3DLAYER
10
0.195873412263458
20
1.15625000269894
30
0.625000000000177
11
0.205805826175828
21
1.16919417652309
31
0.625000000000183
  0
LINE
  8
MY3DLAYER
10
0.205805826175828
20
1.16919417652309
30
0.625000000000183
11
0.218749999999987
21
1.17912659043546
31
0.625000000000188
  0
LINE
  8
MY3DLAYER
10
0.218749999999987
20
1.17912659043546
30
0.625000000000188
11
0.23382380968108
21
1.185370366842
31
0.625000000000193
  0
LINE
  8
MY3DLAYER
10
0.23382380968108
20
1.185370366842
30
0.625000000000193
11
0.249999999999988
21
1.18750000269893
31
0.625000000000197
  0
LINE
  8
MY3DLAYER
10
0.249999999999988
20
1.18750000269893
30
0.625000000000197
11
0.266176190318895
21
1.185370366842
31
0.6250000000002
  0
LINE
  8
MY3DLAYER
10
0.266176190318895
20
1.185370366842
30
0.6250000000002
11
0.281249999999987
21
1.17912659043546
31
0.625000000000201
  0
LINE
  8
MY3DLAYER
10
0.281249999999987
20
1.17912659043546
30
0.625000000000201
11
0.294194173824146
21
1.16919417652309
31
0.625000000000201
  0
LINE
  8
MY3DLAYER
10
0.294194173824146
20
1.16919417652309
30
0.625000000000201
11
0.304126587736513
21
1.15625000269893
31
0.625000000000198
  0
LINE
  8
MY3DLAYER
10
0.304126587736513
20
1.15625000269893
30
0.625000000000198
11
0.310370364143052
21
1.14117619301784
31
0.625000000000195
  0
LINE
  8
MY3DLAYER
10
0.310370364143052
20
1.14117619301784
30
0.625000000000195
11
0.312499999999984
21
1.12500000269893
31
0.625000000000177
  0
LINE
  8
MY3DLAYER
10
0.793129355896165
20
1.16919417652463
30
0.50000000000033
11
0.803061769808533
21
1.15625000270047
31
0.500000000000327
  0
LINE
  8
MY3DLAYER
10
0.780185182072006
20
1.179126590437
30
0.50000000000033
11
0.793129355896165
21
1.16919417652463
31
0.50000000000033
  0
LINE
  8
MY3DLAYER
10
0.694808594335478
20
1.15625000270047
30
0.500000000000306
11
0.704741008247847
21
1.16919417652463
31
0.500000000000312
  0
LINE
  8
MY3DLAYER
10
0.732758991753098
20
1.18537036684354
30
0.500000000000322
11
0.748935182072006
21
1.18750000270047
31
0.500000000000326
  0
LINE
  8
MY3DLAYER
10
0.704741008247847
20
1.16919417652463
30
0.500000000000312
11
0.717685182072006
21
1.179126590437
31
0.500000000000317
  0
LINE
  8
MY3DLAYER
10
0.205805826175847
20
1.08080582887482
30
0.50000000000003
11
0.19587341226348
21
1.09375000269898
31
0.500000000000032
  0
LINE
  8
MY3DLAYER
10
0.125000000000513
20
1.00000000269898
30
0.500000000000148
11
1.00000000000047
21
1.00000000270045
31
0.500000000000254
  0
LINE
  8
MY3DLAYER
10
0.780185182072006
20
1.07087341496395
30
0.500000000000296
11
0.765111372390914
21
1.06462963855741
31
0.50000000000029
  0
LINE
  8
MY3DLAYER
10
0.803061769808533
20
1.09375000270047
30
0.500000000000307
11
0.793129355896165
21
1.08080582887631
31
0.500000000000301
  0
LINE
  8
MY3DLAYER
10
0.793129355896165
20
1.08080582887631
30
0.500000000000301
11
0.780185182072006
21
1.07087341496395
31
0.500000000000296
  0
LINE
  8
MY3DLAYER
10
0.809305546215073
20
1.14117619301938
30
0.500000000000324
11
0.811435182072006
21
1.12500000270047
31
0.500000000000319
  0
LINE
  8
MY3DLAYER
10
0.811435182072006
20
1.12500000270047
30
0.500000000000319
11
0.809305546215073
21
1.10882381238157
31
0.500000000000314
  0
LINE
  8
MY3DLAYER
10
0.809305546215073
20
1.10882381238157
30
0.500000000000314
11
0.803061769808533
21
1.09375000270047
31
0.500000000000307
  0
LINE
  8
MY3DLAYER
10
0.803061769808533
20
1.15625000270047
30
0.500000000000327
11
0.809305546215073
21
1.14117619301938
31
0.500000000000324
  0
LINE
  8
MY3DLAYER
10
1.00000000000051
20
1.68750000270045
30
0.500000000000546
11
0.125000000000513
21
1.687500002699
31
0.500000000000296
  0
LINE
  8
MY3DLAYER
10
0.304126587736539
20
1.15625000269897
30
0.500000000000074
11
0.310370364143077
21
1.14117619301788
31
0.50000000000007
  0
LINE
  8
MY3DLAYER
10
0.294194173824171
20
1.16919417652313
30
0.500000000000076
11
0.304126587736539
21
1.15625000269897
31
0.500000000000074
  0
LINE
  8
MY3DLAYER
10
0.281250000000013
20
1.1791265904355
30
0.500000000000076
11
0.294194173824171
21
1.16919417652313
31
0.500000000000076
  0
LINE
  8
MY3DLAYER
10
0.266176190318921
20
1.18537036684204
30
0.500000000000075
11
0.281250000000013
21
1.1791265904355
31
0.500000000000076
  0
LINE
  8
MY3DLAYER
10
0.250000000000013
20
1.18750000269897
30
0.500000000000073
11
0.266176190318921
21
1.18537036684204
31
0.500000000000075
  0
LINE
  8
MY3DLAYER
10
0.233823809681106
20
1.18537036684204
30
0.500000000000069
11
0.250000000000013
21
1.18750000269897
31
0.500000000000073
  0
LINE
  8
MY3DLAYER
10
0.218750000000013
20
1.1791265904355
30
0.500000000000064
11
0.233823809681106
21
1.18537036684204
31
0.500000000000069
  0
LINE
  8
MY3DLAYER
10
0.304126587736534
20
1.09375000269897
30
0.500000000000054
11
0.294194173824165
21
1.08080582887481
31
0.500000000000048
  0
LINE
  8
MY3DLAYER
10
0.205805826175853
20
1.16919417652313
30
0.500000000000058
11
0.218750000000013
21
1.1791265904355
31
0.500000000000064
  0
LINE
  8
MY3DLAYER
10
0.195873412263484
20
1.15625000269898
30
0.500000000000052
11
0.205805826175853
21
1.16919417652313
31
0.500000000000058
  0
LINE
  8
MY3DLAYER
10
0.310370364143077
20
1.14117619301788
30
0.50000000000007
11
0.312500000000009
21
1.12500000269897
31
0.500000000000053
  0
LINE
  8
MY3DLAYER
10
0.218750000000006
20
1.07087341496245
30
0.500000000000029
11
0.205805826175847
21
1.08080582887482
31
0.50000000000003
  0
LINE
  8
MY3DLAYER
10
0.233823809681097
20
1.06462963855591
30
0.50000000000003
11
0.218750000000006
21
1.07087341496245
31
0.500000000000029
  0
LINE
  8
MY3DLAYER
10
0.250000000000005
20
1.06250000269897
30
0.500000000000033
11
0.233823809681097
21
1.06462963855591
31
0.50000000000003
  0
LINE
  8
MY3DLAYER
10
0.281250000000006
20
1.07087341496244
30
0.500000000000042
11
0.266176190318913
21
1.0646296385559
31
0.500000000000037
  0
LINE
  8
MY3DLAYER
10
0.294194173824165
20
1.08080582887481
30
0.500000000000048
11
0.281250000000006
21
1.07087341496244
31
0.500000000000042
  0
LINE
  8
MY3DLAYER
10
0.189629635856941
20
1.10882381238007
30
0.500000000000035
11
0.187500000000009
21
1.12500000269898
31
0.500000000000053
  0
LINE
  8
MY3DLAYER
10
0.189629635856943
20
1.14117619301788
30
0.500000000000046
11
0.195873412263484
21
1.15625000269898
31
0.500000000000052
  0
LINE
  8
MY3DLAYER
10
0.187500000000009
20
1.12500000269898
30
0.500000000000053
11
0.189629635856943
21
1.14117619301788
31
0.500000000000046
  0
LINE
  8
MY3DLAYER
10
0.266176190318913
20
1.0646296385559
30
0.500000000000037
11
0.250000000000005
21
1.06250000269897
31
0.500000000000033
  0
LINE
  8
MY3DLAYER
10
0.312500000000009
20
1.12500000269897
30
0.500000000000053
11
0.310370364143075
21
1.10882381238006
31
0.50000000000006
  0
LINE
  8
MY3DLAYER
10
0.310370364143075
20
1.10882381238006
30
0.50000000000006
11
0.304126587736534
21
1.09375000269897
31
0.500000000000054
  0
LINE
  8
MY3DLAYER
10
1.00000000000049
20
1.5312500027005
30
0.429126587737073
11
1.12500000000049
21
1.5312500027005
31
0.429126587737075
  0
LINE
  8
MY3DLAYER
10
1.00000000000049
20
1.51830582887634
30
0.419194173824705
11
1.12500000000049
21
1.51830582887634
31
0.419194173824707
  0
LINE
  8
MY3DLAYER
10
0.19587341226348
20
1.09375000269898
30
0.500000000000032
11
0.189629635856941
21
1.10882381238007
31
0.500000000000035
  0
LINE
  8
MY3DLAYER
10
0.688564817928939
20
1.10882381238157
30
0.500000000000289
11
0.686435182072006
21
1.12500000270047
31
0.500000000000294
  0
LINE
  8
MY3DLAYER
10
0.694808594335478
20
1.09375000270047
30
0.500000000000286
11
0.688564817928939
21
1.10882381238157
31
0.500000000000289
  0
LINE
  8
MY3DLAYER
10
0.704741008247847
20
1.08080582887631
30
0.500000000000283
11
0.694808594335478
21
1.09375000270047
31
0.500000000000286
  0
LINE
  8
MY3DLAYER
10
0.717685182072006
20
1.07087341496395
30
0.500000000000283
11
0.704741008247847
21
1.08080582887631
31
0.500000000000283
  0
LINE
  8
MY3DLAYER
10
0.732758991753098
20
1.06462963855741
30
0.500000000000284
11
0.717685182072006
21
1.07087341496395
31
0.500000000000283
  0
LINE
  8
MY3DLAYER
10
0.748935182072006
20
1.06250000270047
30
0.500000000000286
11
0.732758991753098
21
1.06462963855741
31
0.500000000000284
  0
LINE
  8
MY3DLAYER
10
0.765111372390914
20
1.06462963855741
30
0.50000000000029
11
0.748935182072006
21
1.06250000270047
31
0.500000000000286
  0
LINE
  8
MY3DLAYER
10
1.0000000000005
20
1.6250000027005
30
0.375000000000546
11
1.1250000000005
21
1.6250000027005
31
0.375000000000547
  0
LINE
  8
MY3DLAYER
10
1.0000000000005
20
1.62287036684357
30
0.391176190319453
11
1.1250000000005
21
1.62287036684356
31
0.391176190319455
  0
LINE
  8
MY3DLAYER
10
0.765111372390914
20
1.06462963855741
30
0.50000000000029
11
0.765111372390888
21
1.06462963855737
31
0.62500000000029
  0
LINE
  8
MY3DLAYER
10
0.780185182072006
20
1.07087341496395
30
0.500000000000296
11
0.780185182071981
21
1.07087341496391
31
0.625000000000296
  0
LINE
  8
MY3DLAYER
10
1.0000000000005
20
1.5937500027005
30
0.429126587737073
11
1.1250000000005
21
1.5937500027005
31
0.429126587737075
  0
LINE
  8
MY3DLAYER
10
1.0000000000005
20
1.57867619301941
30
0.435370364143613
11
1.1250000000005
21
1.57867619301941
31
0.435370364143614
  0
LINE
  8
MY3DLAYER
10
1.0000000000005
20
1.60669417652466
30
0.419194173824705
11
1.1250000000005
21
1.60669417652466
31
0.419194173824707
  0
LINE
  8
MY3DLAYER
10
1.00000000000049
20
1.5625000027005
30
0.437500000000546
11
1.12500000000049
21
1.5625000027005
31
0.437500000000548
  0
LINE
  8
MY3DLAYER
10
1.0000000000005
20
1.61662659043703
30
0.406250000000546
11
1.1250000000005
21
1.61662659043702
31
0.406250000000547
  0
LINE
  8
MY3DLAYER
10
1.0000000000005
20
1.57867619301941
30
0.314629635857479
11
1.1250000000005
21
1.57867619301941
31
0.314629635857481
  0
LINE
  8
MY3DLAYER
10
1.0000000000005
20
1.5625000027005
30
0.312500000000546
11
1.1250000000005
21
1.5625000027005
31
0.312500000000547
  0
LINE
  8
MY3DLAYER
10
1.0000000000005
20
1.5463238123816
30
0.314629635857479
11
1.1250000000005
21
1.54632381238159
31
0.314629635857481
  0
LINE
  8
MY3DLAYER
10
1.0000000000005
20
1.62287036684357
30
0.358823809681638
11
1.1250000000005
21
1.62287036684356
31
0.35882380968164
  0
LINE
  8
MY3DLAYER
10
1.0000000000005
20
1.61662659043703
30
0.343750000000546
11
1.1250000000005
21
1.61662659043703
31
0.343750000000547
  0
LINE
  8
MY3DLAYER
10
1.0000000000005
20
1.60669417652466
30
0.330805826176387
11
1.1250000000005
21
1.60669417652466
31
0.330805826176388
  0
LINE
  8
MY3DLAYER
10
0.250000000000005
20
1.06250000269897
30
0.500000000000033
11
0.24999999999998
21
1.06250000269893
31
0.625000000000157
  0
LINE
  8
MY3DLAYER
10
0.266176190318913
20
1.0646296385559
30
0.500000000000037
11
0.266176190318887
21
1.06462963855586
31
0.625000000000161
  0
LINE
  8
MY3DLAYER
10
0.281250000000006
20
1.07087341496244
30
0.500000000000042
11
0.28124999999998
21
1.0708734149624
31
0.625000000000167
  0
LINE
  8
MY3DLAYER
10
0.294194173824165
20
1.08080582887481
30
0.500000000000048
11
0.29419417382414
21
1.08080582887477
31
0.625000000000172
  0
LINE
  8
MY3DLAYER
10
0.304126587736534
20
1.09375000269897
30
0.500000000000054
11
0.304126587736509
21
1.09375000269893
31
0.625000000000178
  0
LINE
  8
MY3DLAYER
10
0.195873412263484
20
1.15625000269898
30
0.500000000000052
11
0.195873412263458
21
1.15625000269894
31
0.625000000000177
  0
LINE
  8
MY3DLAYER
10
0.189629635856943
20
1.14117619301788
30
0.500000000000046
11
0.189629635856918
21
1.14117619301784
31
0.62500000000017
  0
LINE
  8
MY3DLAYER
10
0.187500000000009
20
1.12500000269898
30
0.500000000000053
11
0.187499999999984
21
1.12500000269894
31
0.625000000000177
  0
LINE
  8
MY3DLAYER
10
1.00000000000049
20
1.5463238123816
30
0.435370364143613
11
1.12500000000049
21
1.54632381238159
31
0.435370364143614
  0
LINE
  8
MY3DLAYER
10
0.688564817928939
20
1.14117619301938
30
0.500000000000299
11
0.688564817928914
21
1.14117619301934
31
0.625000000000299
  0
LINE
  8
MY3DLAYER
10
0.686435182072006
20
1.12500000270047
30
0.500000000000294
11
0.686435182071981
21
1.12500000270043
31
0.625000000000294
  0
LINE
  8
MY3DLAYER
10
1.00000000000049
20
1.50212963855744
30
0.358823809681638
11
1.12500000000049
21
1.50212963855743
31
0.35882380968164
  0
LINE
  8
MY3DLAYER
10
1.00000000000049
20
1.50837341496398
30
0.343750000000546
11
1.12500000000049
21
1.50837341496397
31
0.343750000000547
  0
LINE
  8
MY3DLAYER
10
1.00000000000049
20
1.5000000027005
30
0.375000000000546
11
1.12500000000049
21
1.5000000027005
31
0.375000000000547
  0
LINE
  8
MY3DLAYER
10
1.00000000000049
20
1.50212963855744
30
0.391176190319453
11
1.12500000000049
21
1.50212963855743
31
0.391176190319455
  0
LINE
  8
MY3DLAYER
10
0.205805826175847
20
1.08080582887482
30
0.50000000000003
11
0.205805826175822
21
1.08080582887478
31
0.625000000000154
  0
LINE
  8
MY3DLAYER
10
0.218750000000006
20
1.07087341496245
30
0.500000000000029
11
0.21874999999998
21
1.07087341496241
31
0.625000000000154
  0
LINE
  8
MY3DLAYER
10
1.0000000000005
20
1.5937500027005
30
0.320873412264018
11
1.1250000000005
21
1.5937500027005
31
0.32087341226402
  0
LINE
  8
MY3DLAYER
10
1.00000000000049
20
1.5312500027005
30
0.320873412264018
11
1.12500000000049
21
1.5312500027005
31
0.32087341226402
  0
LINE
  8
MY3DLAYER
10
0.732758991753098
20
1.06462963855741
30
0.500000000000284
11
0.732758991753073
21
1.06462963855737
31
0.625000000000284
  0
LINE
  8
MY3DLAYER
10
0.748935182072006
20
1.06250000270047
30
0.500000000000286
11
0.748935182071981
21
1.06250000270043
31
0.625000000000286
  0
LINE
  8
MY3DLAYER
10
0.717685182072006
20
1.07087341496395
30
0.500000000000283
11
0.717685182071981
21
1.07087341496391
31
0.625000000000283
  0
LINE
  8
MY3DLAYER
10
0.704741008247847
20
1.08080582887631
30
0.500000000000283
11
0.704741008247821
21
1.08080582887627
31
0.625000000000283
  0
LINE
  8
MY3DLAYER
10
1.00000000000049
20
1.51830582887634
30
0.330805826176387
11
1.12500000000049
21
1.51830582887634
31
0.330805826176388
  0
LINE
  8
MY3DLAYER
10
1.00000000000049
20
1.50837341496398
30
0.406250000000546
11
1.12500000000049
21
1.50837341496397
31
0.406250000000547
  0
LINE
  8
MY3DLAYER
10
0.694808594335478
20
1.09375000270047
30
0.500000000000286
11
0.694808594335453
21
1.09375000270043
31
0.625000000000286
  0
LINE
  8
MY3DLAYER
10
0.688564817928939
20
1.10882381238157
30
0.500000000000289
11
0.688564817928914
21
1.10882381238153
31
0.625000000000289
  0
LINE
  8
MY3DLAYER
10
0.717685182072006
20
1.179126590437
30
0.500000000000317
11
0.717685182071981
21
1.17912659043696
31
0.625000000000317
  0
LINE
  8
MY3DLAYER
10
0.704741008247847
20
1.16919417652463
30
0.500000000000312
11
0.704741008247821
21
1.16919417652459
31
0.625000000000312
  0
LINE
  8
MY3DLAYER
10
0.732758991753098
20
1.18537036684354
30
0.500000000000322
11
0.732758991753073
21
1.1853703668435
31
0.625000000000322
  0
LINE
  8
MY3DLAYER
10
0.748935182072006
20
1.18750000270047
30
0.500000000000326
11
0.748935182071981
21
1.18750000270043
31
0.625000000000326
  0
LINE
  8
MY3DLAYER
10
0.765111372390914
20
1.18537036684354
30
0.500000000000329
11
0.765111372390888
21
1.1853703668435
31
0.625000000000329
  0
LINE
  8
MY3DLAYER
10
0.793129355896165
20
1.08080582887631
30
0.500000000000301
11
0.79312935589614
21
1.08080582887627
31
0.625000000000301
  0
LINE
  8
MY3DLAYER
10
0.694808594335478
20
1.15625000270047
30
0.500000000000306
11
0.694808594335453
21
1.15625000270043
31
0.625000000000306
  0
LINE
  8
MY3DLAYER
10
0.809305546215073
20
1.10882381238157
30
0.500000000000314
11
0.809305546215047
21
1.10882381238153
31
0.625000000000314
  0
LINE
  8
MY3DLAYER
10
0.803061769808533
20
1.09375000270047
30
0.500000000000307
11
0.803061769808508
21
1.09375000270043
31
0.625000000000307
  0
LINE
  8
MY3DLAYER
10
0.205805826175853
20
1.16919417652313
30
0.500000000000058
11
0.205805826175828
21
1.16919417652309
31
0.625000000000183
  0
LINE
  8
MY3DLAYER
10
0.189629635856941
20
1.10882381238007
30
0.500000000000035
11
0.189629635856916
21
1.10882381238003
31
0.62500000000016
  0
LINE
  8
MY3DLAYER
10
0.19587341226348
20
1.09375000269898
30
0.500000000000032
11
0.195873412263454
21
1.09375000269894
31
0.625000000000157
  0
LINE
  8
MY3DLAYER
10
0.233823809681097
20
1.06462963855591
30
0.50000000000003
11
0.233823809681072
21
1.06462963855587
31
0.625000000000155
  0
LINE
  8
MY3DLAYER
10
0.780185182072006
20
1.179126590437
30
0.50000000000033
11
0.78018518207198
21
1.17912659043696
31
0.62500000000033
  0
LINE
  8
MY3DLAYER
10
0.793129355896165
20
1.16919417652463
30
0.50000000000033
11
0.79312935589614
21
1.16919417652459
31
0.62500000000033
  0
LINE
  8
MY3DLAYER
10
0.803061769808533
20
1.15625000270047
30
0.500000000000327
11
0.803061769808508
21
1.15625000270043
31
0.625000000000327
  0
LINE
  8
MY3DLAYER
10
0.809305546215073
20
1.14117619301938
30
0.500000000000324
11
0.809305546215047
21
1.14117619301934
31
0.625000000000324
  0
LINE
  8
MY3DLAYER
10
0.811435182072006
20
1.12500000270047
30
0.500000000000319
11
0.81143518207198
21
1.12500000270043
31
0.625000000000319
  0
LINE
  8
MY3DLAYER
10
0.310370364143075
20
1.10882381238006
30
0.50000000000006
11
0.31037036414305
21
1.10882381238002
31
0.625000000000185
  0
LINE
  8
MY3DLAYER
10
0.312500000000009
20
1.12500000269897
30
0.500000000000053
11
0.312499999999984
21
1.12500000269893
31
0.625000000000177
  0
LINE
  8
MY3DLAYER
10
0.310370364143077
20
1.14117619301788
30
0.50000000000007
11
0.310370364143052
21
1.14117619301784
31
0.625000000000195
  0
LINE
  8
MY3DLAYER
10
0.304126587736539
20
1.15625000269897
30
0.500000000000074
11
0.304126587736513
21
1.15625000269893
31
0.625000000000198
  0
LINE
  8
MY3DLAYER
10
0.218750000000013
20
1.1791265904355
30
0.500000000000064
11
0.218749999999987
21
1.17912659043546
31
0.625000000000188
  0
LINE
  8
MY3DLAYER
10
1.1250000000005
20
1.46875000270042
30
0.187500000000547
11
1.0000000000005
21
1.46875000270042
31
0.187500000000547
  0
LINE
  8
MY3DLAYER
10
1.1250000000005
20
1.46555554891502
30
0.211764285478909
11
1.0000000000005
21
1.46555554891502
31
0.211764285478909
  0
LINE
  8
MY3DLAYER
10
0.294194173824171
20
1.16919417652313
30
0.500000000000076
11
0.294194173824146
21
1.16919417652309
31
0.625000000000201
  0
LINE
  8
MY3DLAYER
10
0.281250000000013
20
1.1791265904355
30
0.500000000000076
11
0.281249999999987
21
1.17912659043546
31
0.625000000000201
  0
LINE
  8
MY3DLAYER
10
1.1250000000005
20
1.37500000270042
30
0.0937500000005474
11
1.0000000000005
21
1.37500000270042
31
0.0937500000005474
  0
LINE
  8
MY3DLAYER
10
1.1250000000005
20
1.39926428817878
30
0.0969444537859472
11
1.0000000000005
21
1.39926428817878
31
0.0969444537859472
  0
LINE
  8
MY3DLAYER
10
1.1250000000005
20
1.35073571722206
30
0.0969444537859472
11
1.0000000000005
21
1.35073571722206
31
0.0969444537859472
  0
LINE
  8
MY3DLAYER
10
1.1250000000005
20
1.32812500270042
30
0.106310118395756
11
1.0000000000005
21
1.32812500270042
31
0.106310118395756
  0
LINE
  8
MY3DLAYER
10
1.1250000000005
20
1.30870874196418
30
0.121208739264309
11
1.0000000000005
21
1.30870874196418
31
0.121208739264309
  0
LINE
  8
MY3DLAYER
10
1.1250000000005
20
1.29381012109563
30
0.140625000000547
11
1.0000000000005
21
1.29381012109563
31
0.140625000000547
  0
LINE
  8
MY3DLAYER
10
0.266176190318921
20
1.18537036684204
30
0.500000000000075
11
0.266176190318895
21
1.185370366842
31
0.6250000000002
  0
LINE
  8
MY3DLAYER
10
0.250000000000013
20
1.18750000269897
30
0.500000000000073
11
0.249999999999988
21
1.18750000269893
31
0.625000000000197
  0
LINE
  8
MY3DLAYER
10
0.233823809681106
20
1.18537036684204
30
0.500000000000069
11
0.23382380968108
21
1.185370366842
31
0.625000000000193
  0
LINE
  8
MY3DLAYER
10
1.1250000000005
20
1.46555554891502
30
0.163235714522186
11
1.0000000000005
21
1.46555554891502
31
0.163235714522186
  0
LINE
  8
MY3DLAYER
10
1.1250000000005
20
1.45618988430521
30
0.140625000000547
11
1.0000000000005
21
1.45618988430521
31
0.140625000000547
  0
LINE
  8
MY3DLAYER
10
1.1250000000005
20
1.28125000270042
30
0.187500000000547
11
1.0000000000005
21
1.28125000270042
31
0.187500000000547
  0
LINE
  8
MY3DLAYER
10
1.1250000000005
20
1.28444445648582
30
0.163235714522186
11
1.0000000000005
21
1.28444445648582
31
0.163235714522186
  0
LINE
  8
MY3DLAYER
10
1.1250000000005
20
1.28444445648582
30
0.211764285478909
11
1.0000000000005
21
1.28444445648582
31
0.211764285478909
  0
LINE
  8
MY3DLAYER
10
1.1250000000005
20
1.29381012109563
30
0.234375000000547
11
1.0000000000005
21
1.29381012109563
31
0.234375000000547
  0
LINE
  8
MY3DLAYER
10
1.1250000000005
20
1.30870874196418
30
0.253791260736786
11
1.0000000000005
21
1.30870874196418
31
0.253791260736786
  0
LINE
  8
MY3DLAYER
10
1.1250000000005
20
1.44129126343666
30
0.121208739264309
11
1.0000000000005
21
1.44129126343666
31
0.121208739264309
  0
LINE
  8
MY3DLAYER
10
1.1250000000005
20
1.42187500270042
30
0.106310118395756
11
1.0000000000005
21
1.42187500270042
31
0.106310118395756
  0
LINE
  8
MY3DLAYER
10
1.1250000000005
20
1.45618988430521
30
0.234375000000547
11
1.0000000000005
21
1.45618988430521
31
0.234375000000547
  0
LINE
  8
MY3DLAYER
10
1.1250000000005
20
1.32812500270042
30
0.268689881605339
11
1.0000000000005
21
1.32812500270042
31
0.268689881605339
  0
LINE
  8
MY3DLAYER
10
1.1250000000005
20
1.35073571722206
30
0.278055546215148
11
1.0000000000005
21
1.35073571722206
31
0.278055546215148
  0
LINE
  8
MY3DLAYER
10
1.1250000000005
20
1.37500000270042
30
0.281250000000547
11
1.0000000000005
21
1.37500000270042
31
0.281250000000547
  0
LINE
  8
MY3DLAYER
10
1.1250000000005
20
1.39926428817878
30
0.278055546215148
11
1.0000000000005
21
1.39926428817878
31
0.278055546215148
  0
LINE
  8
MY3DLAYER
10
1.1250000000005
20
1.42187500270042
30
0.268689881605339
11
1.0000000000005
21
1.42187500270042
31
0.268689881605339
  0
LINE
  8
MY3DLAYER
10
1.1250000000005
20
1.44129126343666
30
0.253791260736786
11
1.0000000000005
21
1.44129126343666
31
0.253791260736786
  0
LINE
  8
MY3DLAYER
10
1.00000000048556
20
0.266746829926943
30
0.250000000000729
11
1.00000000048556
21
0.28661165775163
31
0.275888347649007
  0
LINE
  8
MY3DLAYER
10
1.00000000048556
20
0.254259277113901
30
0.219852380638598
11
1.00000000048556
21
0.266746829926943
31
0.250000000000729
  0
LINE
  8
MY3DLAYER
10
1.00000000048556
20
0.312500005399982
30
0.0792468245280244
11
1.00000000048556
21
0.286611657751706
31
0.0991116523527115
  0
LINE
  8
MY3DLAYER
10
1.00000000048556
20
0.342647624762115
30
0.0667592717149824
11
1.00000000048556
21
0.312500005399982
31
0.0792468245280244
  0
LINE
  8
MY3DLAYER
10
1.00000000048556
20
0.375000005399869
30
0.0625000000011381
11
1.00000000048556
21
0.342647624762115
31
0.0667592717149824
  0
LINE
  8
MY3DLAYER
10
1.00000000048554
20
5.399864999589e-009
30
2.54241072639161e-013
11
1.00000000048554
21
5.39965225310191e-009
31
0.500000000000255
  0
LINE
  8
MY3DLAYER
10
1.00000000048554
20
5.399864999589e-009
30
2.54241072639161e-013
11
1.00000000048559
21
0.687500005399865
31
5.47117906535277e-013
  0
LINE
  8
MY3DLAYER
10
1.00000000048559
20
0.687500005399865
30
5.47117906535277e-013
11
1.00000000048559
21
0.687500005399653
31
0.500000000000546
  0
LINE
  8
MY3DLAYER
10
1.00000000048554
20
5.39965225310191e-009
30
0.500000000000255
11
1.00000000048559
21
0.687500005399653
31
0.500000000000546
  0
LINE
  8
MY3DLAYER
10
1.00000000048556
20
0.375000005399762
30
0.312500000000655
11
1.00000000048557
21
0.407352386037516
31
0.30824072828681
  0
LINE
  8
MY3DLAYER
10
1.00000000048557
20
0.407352386037516
30
0.30824072828681
11
1.00000000048557
21
0.437500005399649
31
0.29575317547377
  0
LINE
  8
MY3DLAYER
10
1.00000000048557
20
0.437500005399649
30
0.29575317547377
11
1.00000000048557
21
0.463388353047926
31
0.275888347649082
  0
LINE
  8
MY3DLAYER
10
1.00000000048557
20
0.463388353047926
30
0.275888347649082
11
1.00000000048557
21
0.483253180872634
31
0.250000000000822
  0
LINE
  8
MY3DLAYER
10
1.00000000048557
20
0.483253180872634
30
0.250000000000822
11
1.00000000048557
21
0.495740733685703
31
0.219852380638701
  0
LINE
  8
MY3DLAYER
10
1.00000000048557
20
0.495740733685703
30
0.219852380638701
11
1.00000000048557
21
0.500000005399575
31
0.18750000000095
  0
LINE
  8
MY3DLAYER
10
1.00000000048557
20
0.500000005399575
30
0.18750000000095
11
1.00000000048557
21
0.49574073368573
31
0.155147619363196
  0
LINE
  8
MY3DLAYER
10
1.00000000048557
20
0.49574073368573
30
0.155147619363196
11
1.00000000048557
21
0.483253180872688
31
0.125000000001063
  0
LINE
  8
MY3DLAYER
10
1.00000000048557
20
0.483253180872688
30
0.125000000001063
11
1.00000000048557
21
0.463388353048001
31
0.099111652352787
  0
LINE
  8
MY3DLAYER
10
1.00000000048557
20
0.463388353048001
30
0.099111652352787
11
1.00000000048557
21
0.437500005399741
31
0.0792468245280782
  0
LINE
  8
MY3DLAYER
10
1.00000000048557
20
0.437500005399741
30
0.0792468245280782
11
1.00000000048557
21
0.40735238603762
31
0.0667592717150101
  0
LINE
  8
MY3DLAYER
10
1.00000000048557
20
0.40735238603762
30
0.0667592717150101
11
1.00000000048556
21
0.375000005399869
31
0.0625000000011381
  0
LINE
  8
MY3DLAYER
10
1.00000000048556
20
0.286611657751706
30
0.0991116523527115
11
1.00000000048556
21
0.266746829926997
31
0.125000000000971
  0
LINE
  8
MY3DLAYER
10
1.00000000048556
20
0.266746829926997
30
0.125000000000971
11
1.00000000048556
21
0.254259277113929
31
0.155147619363093
  0
LINE
  8
MY3DLAYER
10
1.00000000048556
20
0.254259277113929
30
0.155147619363093
11
1.00000000048555
21
0.250000005400057
31
0.187500000000843
  0
LINE
  8
MY3DLAYER
10
1.00000000048555
20
0.250000005400057
30
0.187500000000843
11
1.00000000048556
21
0.254259277113901
31
0.219852380638598
  0
LINE
  8
MY3DLAYER
10
1.00000000048556
20
0.28661165775163
30
0.275888347649007
11
1.00000000048556
21
0.31250000539989
31
0.295753175473716
  0
LINE
  8
MY3DLAYER
10
1.00000000048556
20
0.31250000539989
30
0.295753175473716
11
1.00000000048556
21
0.342647624762011
31
0.308240728286783
  0
LINE
  8
MY3DLAYER
10
1.00000000048556
20
0.342647624762011
30
0.308240728286783
11
1.00000000048556
21
0.375000005399762
31
0.312500000000655
  0
LINE
  8
MY3DLAYER
10
1.00000000048557
20
0.500000005399705
30
0.375000000000546
11
1.00000000048556
21
0.502129641256639
31
0.391176190319454
  0
LINE
  8
MY3DLAYER
10
1.00000000048556
20
0.502129641256639
30
0.391176190319454
11
1.00000000048556
21
0.508373417663177
31
0.406250000000546
  0
LINE
  8
MY3DLAYER
10
1.00000000048556
20
0.508373417663177
30
0.406250000000546
11
1.00000000048556
21
0.518305831575547
31
0.419194173824706
  0
LINE
  8
MY3DLAYER
10
1.00000000048556
20
0.518305831575547
30
0.419194173824706
11
1.00000000048557
21
0.531250005399705
31
0.429126587737074
  0
LINE
  8
MY3DLAYER
10
1.00000000048557
20
0.531250005399705
30
0.429126587737074
11
1.00000000048557
21
0.546323815080798
31
0.435370364143614
  0
LINE
  8
MY3DLAYER
10
1.00000000048557
20
0.546323815080798
30
0.435370364143614
11
1.00000000048557
21
0.562500005399705
31
0.437500000000546
  0
LINE
  8
MY3DLAYER
10
1.00000000048557
20
0.562500005399705
30
0.437500000000546
11
1.00000000048557
21
0.578676195718613
31
0.435370364143614
  0
LINE
  8
MY3DLAYER
10
1.00000000048557
20
0.578676195718613
30
0.435370364143614
11
1.00000000048557
21
0.593750005399705
31
0.429126587737074
  0
LINE
  8
MY3DLAYER
10
1.00000000048557
20
0.593750005399705
30
0.429126587737074
11
1.00000000048557
21
0.606694179223865
31
0.419194173824705
  0
LINE
  8
MY3DLAYER
10
1.00000000048557
20
0.606694179223865
30
0.419194173824705
11
1.00000000048557
21
0.616626593136233
31
0.406250000000546
  0
LINE
  8
MY3DLAYER
10
1.00000000048557
20
0.616626593136233
30
0.406250000000546
11
1.00000000048557
21
0.622870369542772
31
0.391176190319454
  0
LINE
  8
MY3DLAYER
10
1.00000000048557
20
0.622870369542772
30
0.391176190319454
11
1.00000000048557
21
0.625000005399705
31
0.375000000000546
  0
LINE
  8
MY3DLAYER
10
1.00000000048557
20
0.625000005399705
30
0.375000000000546
11
1.00000000048557
21
0.622870369542772
31
0.358823809681639
  0
LINE
  8
MY3DLAYER
10
1.00000000048557
20
0.622870369542772
30
0.358823809681639
11
1.00000000048557
21
0.616626593136233
31
0.343750000000546
  0
LINE
  8
MY3DLAYER
10
1.00000000048557
20
0.616626593136233
30
0.343750000000546
11
1.00000000048557
21
0.606694179223864
31
0.330805826176387
  0
LINE
  8
MY3DLAYER
10
1.00000000048557
20
0.606694179223864
30
0.330805826176387
11
1.00000000048557
21
0.593750005399704
31
0.320873412264019
  0
LINE
  8
MY3DLAYER
10
1.00000000048557
20
0.593750005399704
30
0.320873412264019
11
1.00000000048557
21
0.578676195718612
31
0.31462963585748
  0
LINE
  8
MY3DLAYER
10
1.00000000048557
20
0.578676195718612
30
0.31462963585748
11
1.00000000048557
21
0.562500005399705
31
0.312500000000547
  0
LINE
  8
MY3DLAYER
10
1.00000000048557
20
0.562500005399705
30
0.312500000000547
11
1.00000000048557
21
0.546323815080797
31
0.31462963585748
  0
LINE
  8
MY3DLAYER
10
1.00000000048557
20
0.546323815080797
30
0.31462963585748
11
1.00000000048557
21
0.531250005399704
31
0.320873412264019
  0
LINE
  8
MY3DLAYER
10
1.00000000048557
20
0.531250005399704
30
0.320873412264019
11
1.00000000048556
21
0.518305831575546
31
0.330805826176387
  0
LINE
  8
MY3DLAYER
10
1.00000000048556
20
0.518305831575546
30
0.330805826176387
11
1.00000000048556
21
0.508373417663178
31
0.343750000000546
  0
LINE
  8
MY3DLAYER
10
1.00000000048556
20
0.508373417663178
30
0.343750000000546
11
1.00000000048556
21
0.502129641256639
31
0.358823809681639
  0
LINE
  8
MY3DLAYER
10
1.00000000048556
20
0.502129641256639
30
0.358823809681639
11
1.00000000048557
21
0.500000005399705
31
0.375000000000546
  0
LINE
  8
MY3DLAYER
10
0.812500000485549
20
0.125000005399878
30
3.06976666308856e-013
11
0.810370364628612
21
0.10882381508097
31
2.99982261253717e-013
  0
LINE
  8
MY3DLAYER
10
0.810370364628612
20
0.10882381508097
30
2.99982261253717e-013
11
0.810370364628612
21
0.108823815080758
31
0.5000000000003
  0
LINE
  8
MY3DLAYER
10
0.812500000485549
20
0.125000005399665
30
0.500000000000307
11
0.810370364628612
21
0.108823815080758
31
0.5000000000003
  0
LINE
  8
MY3DLAYER
10
0.812500000485549
20
0.125000005399878
30
3.06976666308856e-013
11
0.812500000485549
21
0.125000005399665
31
0.500000000000307
  0
LINE
  8
MY3DLAYER
10
0.810370364628615
20
0.141176195718785
30
3.13860049061532e-013
11
0.812500000485549
21
0.125000005399878
31
3.06976666308856e-013
  0
LINE
  8
MY3DLAYER
10
0.810370364628615
20
0.141176195718572
30
0.500000000000314
11
0.812500000485549
21
0.125000005399665
31
0.500000000000307
  0
LINE
  8
MY3DLAYER
10
0.810370364628615
20
0.141176195718785
30
3.13860049061532e-013
11
0.810370364628615
21
0.141176195718572
31
0.500000000000314
  0
LINE
  8
MY3DLAYER
10
0.804126588222076
20
0.156250005399878
30
3.20965476419133e-013
11
0.810370364628615
21
0.141176195718785
31
3.13860049061532e-013
  0
LINE
  8
MY3DLAYER
10
0.804126588222076
20
0.156250005399666
30
0.50000000000032
11
0.810370364628615
21
0.141176195718572
31
0.500000000000314
  0
LINE
  8
MY3DLAYER
10
0.804126588222076
20
0.156250005399878
30
3.20965476419133e-013
11
0.804126588222076
21
0.156250005399666
31
0.50000000000032
  0
LINE
  8
MY3DLAYER
10
0.794194174309708
20
0.169194179224038
30
3.25905968878715e-013
11
0.804126588222076
21
0.156250005399878
31
3.20965476419133e-013
  0
LINE
  8
MY3DLAYER
10
0.794194174309708
20
0.169194179223825
30
0.500000000000327
11
0.804126588222076
21
0.156250005399666
31
0.50000000000032
  0
LINE
  8
MY3DLAYER
10
0.794194174309708
20
0.169194179224038
30
3.25905968878715e-013
11
0.794194174309708
21
0.169194179223825
31
0.500000000000327
  0
LINE
  8
MY3DLAYER
10
0.781250000485549
20
0.179126593136407
30
3.3012481637229e-013
11
0.794194174309708
21
0.169194179224038
31
3.25905968878715e-013
  0
LINE
  8
MY3DLAYER
10
0.781250000485549
20
0.179126593136194
30
0.500000000000331
11
0.794194174309708
21
0.169194179223825
31
0.500000000000327
  0
LINE
  8
MY3DLAYER
10
0.781250000485549
20
0.179126593136407
30
3.3012481637229e-013
11
0.781250000485549
21
0.179126593136194
31
0.500000000000331
  0
LINE
  8
MY3DLAYER
10
0.766176190804459
20
0.185370369542948
30
3.32789351631391e-013
11
0.781250000485549
21
0.179126593136407
31
3.3012481637229e-013
  0
LINE
  8
MY3DLAYER
10
0.766176190804459
20
0.185370369542734
30
0.500000000000334
11
0.781250000485549
21
0.179126593136194
31
0.500000000000331
  0
LINE
  8
MY3DLAYER
10
0.766176190804459
20
0.185370369542948
30
3.32789351631391e-013
11
0.766176190804459
21
0.185370369542734
31
0.500000000000334
  0
LINE
  8
MY3DLAYER
10
0.750000000485553
20
0.187500005399881
30
3.33677530051091e-013
11
0.766176190804459
21
0.185370369542948
31
3.32789351631391e-013
  0
LINE
  8
MY3DLAYER
10
0.750000000485553
20
0.187500005399668
30
0.500000000000334
11
0.766176190804459
21
0.185370369542734
31
0.500000000000334
  0
LINE
  8
MY3DLAYER
10
0.750000000485553
20
0.187500005399881
30
3.33677530051091e-013
11
0.750000000485553
21
0.187500005399668
31
0.500000000000334
  0
LINE
  8
MY3DLAYER
10
0.733823810166644
20
0.18537036954295
30
3.32789351631391e-013
11
0.750000000485553
21
0.187500005399881
31
3.33677530051091e-013
  0
LINE
  8
MY3DLAYER
10
0.733823810166644
20
0.185370369542737
30
0.500000000000334
11
0.750000000485553
21
0.187500005399668
31
0.500000000000334
  0
LINE
  8
MY3DLAYER
10
0.733823810166644
20
0.18537036954295
30
3.32789351631391e-013
11
0.733823810166644
21
0.185370369542737
31
0.500000000000334
  0
LINE
  8
MY3DLAYER
10
0.718750000485549
20
0.179126593136412
30
3.3012481637229e-013
11
0.733823810166644
21
0.18537036954295
31
3.32789351631391e-013
  0
LINE
  8
MY3DLAYER
10
0.718750000485549
20
0.179126593136199
30
0.500000000000331
11
0.733823810166644
21
0.185370369542737
31
0.500000000000334
  0
LINE
  8
MY3DLAYER
10
0.718750000485549
20
0.179126593136412
30
3.3012481637229e-013
11
0.718750000485549
21
0.179126593136199
31
0.500000000000331
  0
LINE
  8
MY3DLAYER
10
0.70580582666139
20
0.169194179224044
30
3.25905968878715e-013
11
0.718750000485549
21
0.179126593136412
31
3.3012481637229e-013
  0
LINE
  8
MY3DLAYER
10
0.70580582666139
20
0.169194179223831
30
0.500000000000327
11
0.718750000485549
21
0.179126593136199
31
0.500000000000331
  0
LINE
  8
MY3DLAYER
10
0.70580582666139
20
0.169194179224044
30
3.25905968878715e-013
11
0.70580582666139
21
0.169194179223831
31
0.500000000000327
  0
LINE
  8
MY3DLAYER
10
0.69587341274902
20
0.156250005399885
30
3.20965476419133e-013
11
0.70580582666139
21
0.169194179224044
31
3.25905968878715e-013
  0
LINE
  8
MY3DLAYER
10
0.69587341274902
20
0.156250005399673
30
0.50000000000032
11
0.70580582666139
21
0.169194179223831
31
0.500000000000327
  0
LINE
  8
MY3DLAYER
10
0.69587341274902
20
0.156250005399885
30
3.20965476419133e-013
11
0.69587341274902
21
0.156250005399673
31
0.50000000000032
  0
LINE
  8
MY3DLAYER
10
0.689629636342481
20
0.141176195718793
30
3.13860049061532e-013
11
0.69587341274902
21
0.156250005399885
31
3.20965476419133e-013
  0
LINE
  8
MY3DLAYER
10
0.689629636342481
20
0.14117619571858
30
0.500000000000314
11
0.69587341274902
21
0.156250005399673
31
0.50000000000032
  0
LINE
  8
MY3DLAYER
10
0.689629636342481
20
0.141176195718793
30
3.13860049061532e-013
11
0.689629636342481
21
0.14117619571858
31
0.500000000000314
  0
LINE
  8
MY3DLAYER
10
0.687500000485549
20
0.125000005399886
30
3.06976666308856e-013
11
0.689629636342481
21
0.141176195718793
31
3.13860049061532e-013
  0
LINE
  8
MY3DLAYER
10
0.687500000485549
20
0.125000005399673
30
0.500000000000307
11
0.689629636342481
21
0.14117619571858
31
0.500000000000314
  0
LINE
  8
MY3DLAYER
10
0.687500000485549
20
0.125000005399886
30
3.06976666308856e-013
11
0.687500000485549
21
0.125000005399673
31
0.500000000000307
  0
LINE
  8
MY3DLAYER
10
0.689629636342479
20
0.108823815080978
30
2.99982261253717e-013
11
0.687500000485549
21
0.125000005399886
31
3.06976666308856e-013
  0
LINE
  8
MY3DLAYER
10
0.689629636342479
20
0.108823815080765
30
0.5000000000003
11
0.687500000485549
21
0.125000005399673
31
0.500000000000307
  0
LINE
  8
MY3DLAYER
10
0.689629636342479
20
0.108823815080978
30
2.99982261253717e-013
11
0.689629636342479
21
0.108823815080765
31
0.5000000000003
  0
LINE
  8
MY3DLAYER
10
0.695873412749018
20
0.0937500053998861
30
2.9393154576951e-013
11
0.689629636342479
21
0.108823815080978
31
2.99982261253717e-013
  0
LINE
  8
MY3DLAYER
10
0.695873412749018
20
0.0937500053996729
30
0.500000000000294
11
0.689629636342479
21
0.108823815080765
31
0.5000000000003
  0
LINE
  8
MY3DLAYER
10
0.695873412749018
20
0.0937500053998861
30
2.9393154576951e-013
11
0.695873412749018
21
0.0937500053996729
31
0.500000000000294
  0
LINE
  8
MY3DLAYER
10
1.00000000048554
20
5.39965225310191e-009
30
0.500000000000255
11
0.53125000048554
21
5.39968411650271e-009
31
0.500000000000255
  0
LINE
  8
MY3DLAYER
10
0.53125000048554
20
5.39989686298981e-009
30
2.54130050336698e-013
11
1.00000000048554
21
5.399864999589e-009
31
2.54241072639161e-013
  0
LINE
  8
MY3DLAYER
10
0.531250000485587
20
0.687500005399896
30
5.47006884232815e-013
11
1.00000000048559
21
0.687500005399865
31
5.47117906535277e-013
  0
LINE
  8
MY3DLAYER
10
0.53125000048554
20
5.39989686298981e-009
30
2.54130050336698e-013
11
0.531250000485587
21
0.687500005399896
31
5.47006884232815e-013
  0
LINE
  8
MY3DLAYER
10
0.705805826661385
20
0.0808058315757263
30
2.88380430646384e-013
11
0.695873412749018
21
0.0937500053998861
31
2.9393154576951e-013
  0
LINE
  8
MY3DLAYER
10
0.718750000485543
20
0.0708734176633574
30
2.83939538547884e-013
11
0.705805826661385
21
0.0808058315757263
31
2.88380430646384e-013
  0
LINE
  8
MY3DLAYER
10
0.733823810166636
20
0.0646296412568169
30
2.81497047893708e-013
11
0.718750000485543
21
0.0708734176633574
31
2.83939538547884e-013
  0
LINE
  8
MY3DLAYER
10
0.750000000485541
20
0.062500005399882
30
2.80386824869083e-013
11
0.733823810166636
21
0.0646296412568169
31
2.81497047893708e-013
  0
LINE
  8
MY3DLAYER
10
0.766176190804452
20
0.0646296412568147
30
2.81497047893708e-013
11
0.750000000485541
21
0.062500005399882
31
2.80386824869083e-013
  0
LINE
  8
MY3DLAYER
10
0.781250000485543
20
0.0708734176633528
30
2.83939538547884e-013
11
0.766176190804452
21
0.0646296412568147
31
2.81497047893708e-013
  0
LINE
  8
MY3DLAYER
10
0.794194174309703
20
0.0808058315757194
30
2.88380430646384e-013
11
0.781250000485543
21
0.0708734176633528
31
2.83939538547884e-013
  0
LINE
  8
MY3DLAYER
10
0.804126588222073
20
0.0937500053998788
30
2.9393154576951e-013
11
0.794194174309703
21
0.0808058315757194
31
2.88380430646384e-013
  0
LINE
  8
MY3DLAYER
10
0.810370364628612
20
0.10882381508097
30
2.99982261253717e-013
11
0.804126588222073
21
0.0937500053998788
31
2.9393154576951e-013
  0
LINE
  8
MY3DLAYER
10
0.718750000485543
20
0.0708734176633574
30
2.83939538547884e-013
11
0.718750000485543
21
0.0708734176631443
31
0.500000000000284
  0
LINE
  8
MY3DLAYER
10
0.705805826661385
20
0.0808058315757263
30
2.88380430646384e-013
11
0.705805826661385
21
0.0808058315755131
31
0.500000000000288
  0
LINE
  8
MY3DLAYER
10
0.718750000485543
20
0.0708734176631443
30
0.500000000000284
11
0.705805826661385
21
0.0808058315755131
31
0.500000000000288
  0
LINE
  8
MY3DLAYER
10
0.705805826661385
20
0.0808058315755131
30
0.500000000000288
11
0.695873412749018
21
0.0937500053996729
31
0.500000000000294
  0
LINE
  8
MY3DLAYER
10
0.733823810166636
20
0.0646296412568169
30
2.81497047893708e-013
11
0.733823810166636
21
0.0646296412566037
31
0.500000000000281
  0
LINE
  8
MY3DLAYER
10
0.733823810166636
20
0.0646296412566037
30
0.500000000000281
11
0.718750000485543
21
0.0708734176631443
31
0.500000000000284
  0
LINE
  8
MY3DLAYER
10
0.750000000485541
20
0.062500005399882
30
2.80386824869083e-013
11
0.750000000485541
21
0.0625000053996688
31
0.50000000000028
  0
LINE
  8
MY3DLAYER
10
0.750000000485541
20
0.0625000053996688
30
0.50000000000028
11
0.733823810166636
21
0.0646296412566037
31
0.500000000000281
  0
LINE
  8
MY3DLAYER
10
0.766176190804452
20
0.0646296412568147
30
2.81497047893708e-013
11
0.766176190804452
21
0.0646296412566015
31
0.500000000000281
  0
LINE
  8
MY3DLAYER
10
0.766176190804452
20
0.0646296412566015
30
0.500000000000281
11
0.750000000485541
21
0.0625000053996688
31
0.50000000000028
  0
LINE
  8
MY3DLAYER
10
0.781250000485543
20
0.0708734176631391
30
0.500000000000284
11
0.766176190804452
21
0.0646296412566015
31
0.500000000000281
  0
LINE
  8
MY3DLAYER
10
0.794194174309703
20
0.0808058315755062
30
0.500000000000288
11
0.781250000485543
21
0.0708734176631391
31
0.500000000000284
  0
LINE
  8
MY3DLAYER
10
0.804126588222073
20
0.093750005399666
30
0.500000000000294
11
0.794194174309703
21
0.0808058315755062
31
0.500000000000288
  0
LINE
  8
MY3DLAYER
10
0.810370364628612
20
0.108823815080758
30
0.5000000000003
11
0.804126588222073
21
0.093750005399666
31
0.500000000000294
  0
LINE
  8
MY3DLAYER
10
0.781250000485543
20
0.0708734176633528
30
2.83939538547884e-013
11
0.781250000485543
21
0.0708734176631391
31
0.500000000000284
  0
LINE
  8
MY3DLAYER
10
0.794194174309703
20
0.0808058315757194
30
2.88380430646384e-013
11
0.794194174309703
21
0.0808058315755062
31
0.500000000000288
  0
LINE
  8
MY3DLAYER
10
0.804126588222073
20
0.0937500053998788
30
2.9393154576951e-013
11
0.804126588222073
21
0.093750005399666
31
0.500000000000294
  0
LINE
  8
MY3DLAYER
10
0.53125000048554
20
5.39968411650271e-009
30
0.500000000000255
11
0.53125000048554
21
5.39989686298981e-009
31
2.54130050336698e-013
  0
LINE
  8
MY3DLAYER
10
0.531250000485587
20
0.687500005399896
30
5.47006884232815e-013
11
0.531250000485587
21
0.687500005399684
31
0.500000000000546
  0
LINE
  8
MY3DLAYER
10
1.00000000048559
20
0.687500005399653
30
0.500000000000546
11
0.531250000485587
21
0.687500005399684
31
0.500000000000546
  0
LINE
  8
MY3DLAYER
10
0.531250000485587
20
0.687500005399684
30
0.500000000000546
11
0.53125000048554
21
5.39968411650271e-009
31
0.500000000000255
  0
LINE
  8
MY3DLAYER
10
0.531250000485573
20
0.495740733685762
30
0.155147619363196
11
0.531250000485573
21
0.48325318087272
31
0.125000000001063
  0
LINE
  8
MY3DLAYER
10
0.531250000485573
20
0.48325318087272
30
0.125000000001063
11
0.53125000048557
21
0.463388353048033
31
0.0991116523527869
  0
LINE
  8
MY3DLAYER
10
0.53125000048557
20
0.463388353048033
30
0.0991116523527869
11
0.53125000048557
21
0.437500005399773
31
0.0792468245280781
  0
LINE
  8
MY3DLAYER
10
0.53125000048557
20
0.437500005399773
30
0.0792468245280781
11
0.531250000485566
21
0.407352386037651
31
0.0667592717150101
  0
LINE
  8
MY3DLAYER
10
0.531250000485566
20
0.407352386037651
30
0.0667592717150101
11
0.531250000485563
21
0.3750000053999
31
0.0625000000011381
  0
LINE
  8
MY3DLAYER
10
0.531250000485556
20
0.254259277113961
30
0.155147619363093
11
0.531250000485555
21
0.250000005400089
31
0.187500000000843
  0
LINE
  8
MY3DLAYER
10
0.531250000485557
20
0.266746829927029
30
0.125000000000971
11
0.531250000485556
21
0.254259277113961
31
0.155147619363093
  0
LINE
  8
MY3DLAYER
10
0.531250000485557
20
0.286611657751738
30
0.0991116523527115
11
0.531250000485557
21
0.266746829927029
31
0.125000000000971
  0
LINE
  8
MY3DLAYER
10
0.53125000048556
20
0.312500005400014
30
0.0792468245280244
11
0.531250000485557
21
0.286611657751738
31
0.0991116523527115
  0
LINE
  8
MY3DLAYER
10
0.531250000485562
20
0.342647624762147
30
0.0667592717149824
11
0.53125000048556
21
0.312500005400014
31
0.0792468245280244
  0
LINE
  8
MY3DLAYER
10
0.531250000485563
20
0.3750000053999
30
0.0625000000011381
11
0.531250000485562
21
0.342647624762147
31
0.0667592717149824
  0
LINE
  8
MY3DLAYER
10
0.531250000485572
20
0.500000005399606
30
0.18750000000095
11
0.531250000485573
21
0.495740733685762
31
0.155147619363196
  0
LINE
  8
MY3DLAYER
10
0.531250000485573
20
0.495740733685734
30
0.219852380638701
11
0.531250000485572
21
0.500000005399606
31
0.18750000000095
  0
LINE
  8
MY3DLAYER
10
0.531250000485573
20
0.483253180872666
30
0.250000000000822
11
0.531250000485573
21
0.495740733685734
31
0.219852380638701
  0
LINE
  8
MY3DLAYER
10
0.53125000048557
20
0.463388353047957
30
0.275888347649082
11
0.531250000485573
21
0.483253180872666
31
0.250000000000822
  0
LINE
  8
MY3DLAYER
10
0.53125000048557
20
0.43750000539968
30
0.295753175473769
11
0.53125000048557
21
0.463388353047957
31
0.275888347649082
  0
LINE
  8
MY3DLAYER
10
0.531250000485566
20
0.407352386037548
30
0.30824072828681
11
0.53125000048557
21
0.43750000539968
31
0.295753175473769
  0
LINE
  8
MY3DLAYER
10
0.531250000485563
20
0.375000005399793
30
0.312500000000655
11
0.531250000485566
21
0.407352386037548
31
0.30824072828681
  0
LINE
  8
MY3DLAYER
10
0.531250000485562
20
0.342647624762043
30
0.308240728286783
11
0.531250000485563
21
0.375000005399793
31
0.312500000000655
  0
LINE
  8
MY3DLAYER
10
0.53125000048556
20
0.312500005399922
30
0.295753175473716
11
0.531250000485562
21
0.342647624762043
31
0.308240728286783
  0
LINE
  8
MY3DLAYER
10
0.531250000485557
20
0.286611657751662
30
0.275888347649007
11
0.53125000048556
21
0.312500005399922
31
0.295753175473716
  0
LINE
  8
MY3DLAYER
10
0.531250000485557
20
0.266746829926975
30
0.250000000000729
11
0.531250000485557
21
0.286611657751662
31
0.275888347649007
  0
LINE
  8
MY3DLAYER
10
0.531250000485556
20
0.254259277113933
30
0.219852380638598
11
0.531250000485557
21
0.266746829926975
31
0.250000000000729
  0
LINE
  8
MY3DLAYER
10
0.531250000485555
20
0.250000005400089
30
0.187500000000843
11
0.531250000485556
21
0.254259277113933
31
0.219852380638598
  0
LINE
  8
MY3DLAYER
10
0.531250000485574
20
0.500000005399737
30
0.375000000000546
11
0.531250000485573
21
0.50212964125667
31
0.391176190319454
  0
LINE
  8
MY3DLAYER
10
0.531250000485573
20
0.50212964125667
30
0.358823809681639
11
0.531250000485574
21
0.500000005399737
31
0.375000000000546
  0
LINE
  8
MY3DLAYER
10
0.531250000485573
20
0.50837341766321
30
0.343750000000546
11
0.531250000485573
21
0.50212964125667
31
0.358823809681639
  0
LINE
  8
MY3DLAYER
10
0.531250000485574
20
0.518305831575578
30
0.330805826176387
11
0.531250000485573
21
0.50837341766321
31
0.343750000000546
  0
LINE
  8
MY3DLAYER
10
0.531250000485575
20
0.531250005399736
30
0.320873412264019
11
0.531250000485574
21
0.518305831575578
31
0.330805826176387
  0
LINE
  8
MY3DLAYER
10
0.531250000485575
20
0.546323815080829
30
0.31462963585748
11
0.531250000485575
21
0.531250005399736
31
0.320873412264019
  0
LINE
  8
MY3DLAYER
10
0.531250000485578
20
0.562500005399737
30
0.312500000000547
11
0.531250000485575
21
0.546323815080829
31
0.31462963585748
  0
LINE
  8
MY3DLAYER
10
0.531250000485579
20
0.578676195718644
30
0.31462963585748
11
0.531250000485578
21
0.562500005399737
31
0.312500000000547
  0
LINE
  8
MY3DLAYER
10
0.53125000048558
20
0.593750005399736
30
0.320873412264019
11
0.531250000485579
21
0.578676195718644
31
0.31462963585748
  0
LINE
  8
MY3DLAYER
10
0.53125000048558
20
0.606694179223897
30
0.330805826176387
11
0.53125000048558
21
0.593750005399736
31
0.320873412264019
  0
LINE
  8
MY3DLAYER
10
0.531250000485582
20
0.616626593136264
30
0.343750000000546
11
0.53125000048558
21
0.606694179223897
31
0.330805826176387
  0
LINE
  8
MY3DLAYER
10
0.531250000485581
20
0.622870369542804
30
0.358823809681639
11
0.531250000485582
21
0.616626593136264
31
0.343750000000546
  0
LINE
  8
MY3DLAYER
10
0.531250000485581
20
0.625000005399737
30
0.375000000000546
11
0.531250000485581
21
0.622870369542804
31
0.358823809681639
  0
LINE
  8
MY3DLAYER
10
0.531250000485581
20
0.622870369542804
30
0.391176190319454
11
0.531250000485581
21
0.625000005399737
31
0.375000000000546
  0
LINE
  8
MY3DLAYER
10
0.531250000485582
20
0.616626593136264
30
0.406250000000546
11
0.531250000485581
21
0.622870369542804
31
0.391176190319454
  0
LINE
  8
MY3DLAYER
10
0.53125000048558
20
0.606694179223897
30
0.419194173824705
11
0.531250000485582
21
0.616626593136264
31
0.406250000000546
  0
LINE
  8
MY3DLAYER
10
0.53125000048558
20
0.593750005399737
30
0.429126587737074
11
0.53125000048558
21
0.606694179223897
31
0.419194173824705
  0
LINE
  8
MY3DLAYER
10
0.531250000485579
20
0.578676195718644
30
0.435370364143614
11
0.53125000048558
21
0.593750005399737
31
0.429126587737074
  0
LINE
  8
MY3DLAYER
10
0.531250000485578
20
0.562500005399737
30
0.437500000000546
11
0.531250000485579
21
0.578676195718644
31
0.435370364143614
  0
LINE
  8
MY3DLAYER
10
0.531250000485575
20
0.54632381508083
30
0.435370364143614
11
0.531250000485578
21
0.562500005399737
31
0.437500000000546
  0
LINE
  8
MY3DLAYER
10
0.531250000485575
20
0.531250005399737
30
0.429126587737074
11
0.531250000485575
21
0.54632381508083
31
0.435370364143614
  0
LINE
  8
MY3DLAYER
10
0.531250000485574
20
0.518305831575578
30
0.419194173824706
11
0.531250000485575
21
0.531250005399737
31
0.429126587737074
  0
LINE
  8
MY3DLAYER
10
0.531250000485573
20
0.50837341766321
30
0.406250000000546
11
0.531250000485574
21
0.518305831575578
31
0.419194173824706
  0
LINE
  8
MY3DLAYER
10
0.531250000485573
20
0.50212964125667
30
0.391176190319454
11
0.531250000485573
21
0.50837341766321
31
0.406250000000546
  0
LINE
  8
MY3DLAYER
10
1.00000000048556
20
0.31250000539989
30
0.295753175473716
11
0.53125000048556
21
0.312500005399922
31
0.295753175473716
  0
LINE
  8
MY3DLAYER
10
1.00000000048556
20
0.28661165775163
30
0.275888347649007
11
0.531250000485557
21
0.286611657751662
31
0.275888347649007
  0
LINE
  8
MY3DLAYER
10
1.00000000048556
20
0.342647624762011
30
0.308240728286783
11
0.531250000485562
21
0.342647624762043
31
0.308240728286783
  0
LINE
  8
MY3DLAYER
10
1.00000000048556
20
0.375000005399762
30
0.312500000000655
11
0.531250000485563
21
0.375000005399793
31
0.312500000000655
  0
LINE
  8
MY3DLAYER
10
1.00000000048555
20
0.250000005400057
30
0.187500000000843
11
0.531250000485555
21
0.250000005400089
31
0.187500000000843
  0
LINE
  8
MY3DLAYER
10
1.00000000048556
20
0.254259277113929
30
0.155147619363093
11
0.531250000485556
21
0.254259277113961
31
0.155147619363093
  0
LINE
  8
MY3DLAYER
10
1.00000000048556
20
0.254259277113901
30
0.219852380638598
11
0.531250000485556
21
0.254259277113933
31
0.219852380638598
  0
LINE
  8
MY3DLAYER
10
1.00000000048556
20
0.266746829926943
30
0.250000000000729
11
0.531250000485557
21
0.266746829926975
31
0.250000000000729
  0
LINE
  8
MY3DLAYER
10
1.00000000048557
20
0.483253180872688
30
0.125000000001063
11
0.531250000485573
21
0.48325318087272
31
0.125000000001063
  0
LINE
  8
MY3DLAYER
10
1.00000000048557
20
0.49574073368573
30
0.155147619363196
11
0.531250000485573
21
0.495740733685762
31
0.155147619363196
  0
LINE
  8
MY3DLAYER
10
1.00000000048557
20
0.463388353048001
30
0.099111652352787
11
0.53125000048557
21
0.463388353048033
31
0.0991116523527869
  0
LINE
  8
MY3DLAYER
10
1.00000000048557
20
0.437500005399741
30
0.0792468245280782
11
0.53125000048557
21
0.437500005399773
31
0.0792468245280781
  0
LINE
  8
MY3DLAYER
10
1.00000000048557
20
0.407352386037516
30
0.30824072828681
11
0.531250000485566
21
0.407352386037548
31
0.30824072828681
  0
LINE
  8
MY3DLAYER
10
1.00000000048557
20
0.437500005399649
30
0.29575317547377
11
0.53125000048557
21
0.43750000539968
31
0.295753175473769
  0
LINE
  8
MY3DLAYER
10
1.00000000048557
20
0.463388353047926
30
0.275888347649082
11
0.53125000048557
21
0.463388353047957
31
0.275888347649082
  0
LINE
  8
MY3DLAYER
10
1.00000000048557
20
0.483253180872634
30
0.250000000000822
11
0.531250000485573
21
0.483253180872666
31
0.250000000000822
  0
LINE
  8
MY3DLAYER
10
1.00000000048557
20
0.495740733685703
30
0.219852380638701
11
0.531250000485573
21
0.495740733685734
31
0.219852380638701
  0
LINE
  8
MY3DLAYER
10
1.00000000048556
20
0.286611657751706
30
0.0991116523527115
11
0.531250000485557
21
0.286611657751738
31
0.0991116523527115
  0
LINE
  8
MY3DLAYER
10
1.00000000048556
20
0.312500005399982
30
0.0792468245280244
11
0.53125000048556
21
0.312500005400014
31
0.0792468245280244
  0
LINE
  8
MY3DLAYER
10
1.00000000048556
20
0.266746829926997
30
0.125000000000971
11
0.531250000485557
21
0.266746829927029
31
0.125000000000971
  0
LINE
  8
MY3DLAYER
10
1.00000000048557
20
0.500000005399575
30
0.18750000000095
11
0.531250000485572
21
0.500000005399606
31
0.18750000000095
  0
LINE
  8
MY3DLAYER
10
1.00000000048557
20
0.40735238603762
30
0.0667592717150101
11
0.531250000485566
21
0.407352386037651
31
0.0667592717150101
  0
LINE
  8
MY3DLAYER
10
1.00000000048556
20
0.375000005399869
30
0.0625000000011381
11
0.531250000485563
21
0.3750000053999
31
0.0625000000011381
  0
LINE
  8
MY3DLAYER
10
1.00000000048556
20
0.342647624762115
30
0.0667592717149824
11
0.531250000485562
21
0.342647624762147
31
0.0667592717149824
  0
LINE
  8
MY3DLAYER
10
1.00000000048557
20
0.578676195718613
30
0.435370364143614
11
0.531250000485579
21
0.578676195718644
31
0.435370364143614
  0
LINE
  8
MY3DLAYER
10
1.00000000048557
20
0.562500005399705
30
0.437500000000546
11
0.531250000485578
21
0.562500005399737
31
0.437500000000546
  0
LINE
  8
MY3DLAYER
10
1.00000000048557
20
0.593750005399705
30
0.429126587737074
11
0.53125000048558
21
0.593750005399737
31
0.429126587737074
  0
LINE
  8
MY3DLAYER
10
1.00000000048557
20
0.606694179223865
30
0.419194173824705
11
0.53125000048558
21
0.606694179223897
31
0.419194173824705
  0
LINE
  8
MY3DLAYER
10
1.00000000048556
20
0.502129641256639
30
0.391176190319454
11
0.531250000485573
21
0.50212964125667
31
0.391176190319454
  0
LINE
  8
MY3DLAYER
10
1.00000000048557
20
0.500000005399705
30
0.375000000000546
11
0.531250000485574
21
0.500000005399737
31
0.375000000000546
  0
LINE
  8
MY3DLAYER
10
1.00000000048556
20
0.508373417663177
30
0.406250000000546
11
0.531250000485573
21
0.50837341766321
31
0.406250000000546
  0
LINE
  8
MY3DLAYER
10
1.00000000048556
20
0.518305831575547
30
0.419194173824706
11
0.531250000485574
21
0.518305831575578
31
0.419194173824706
  0
LINE
  8
MY3DLAYER
10
1.00000000048557
20
0.531250005399705
30
0.429126587737074
11
0.531250000485575
21
0.531250005399737
31
0.429126587737074
  0
LINE
  8
MY3DLAYER
10
1.00000000048557
20
0.546323815080798
30
0.435370364143614
11
0.531250000485575
21
0.54632381508083
31
0.435370364143614
  0
LINE
  8
MY3DLAYER
10
1.00000000048557
20
0.593750005399704
30
0.320873412264019
11
0.53125000048558
21
0.593750005399736
31
0.320873412264019
  0
LINE
  8
MY3DLAYER
10
1.00000000048557
20
0.606694179223864
30
0.330805826176387
11
0.53125000048558
21
0.606694179223897
31
0.330805826176387
  0
LINE
  8
MY3DLAYER
10
1.00000000048557
20
0.578676195718612
30
0.31462963585748
11
0.531250000485579
21
0.578676195718644
31
0.31462963585748
  0
LINE
  8
MY3DLAYER
10
1.00000000048557
20
0.562500005399705
30
0.312500000000547
11
0.531250000485578
21
0.562500005399737
31
0.312500000000547
  0
LINE
  8
MY3DLAYER
10
1.00000000048557
20
0.616626593136233
30
0.406250000000546
11
0.531250000485582
21
0.616626593136264
31
0.406250000000546
  0
LINE
  8
MY3DLAYER
10
1.00000000048557
20
0.622870369542772
30
0.391176190319454
11
0.531250000485581
21
0.622870369542804
31
0.391176190319454
  0
LINE
  8
MY3DLAYER
10
1.00000000048557
20
0.625000005399705
30
0.375000000000546
11
0.531250000485581
21
0.625000005399737
31
0.375000000000546
  0
LINE
  8
MY3DLAYER
10
1.00000000048557
20
0.622870369542772
30
0.358823809681639
11
0.531250000485581
21
0.622870369542804
31
0.358823809681639
  0
LINE
  8
MY3DLAYER
10
1.00000000048557
20
0.616626593136233
30
0.343750000000546
11
0.531250000485582
21
0.616626593136264
31
0.343750000000546
  0
LINE
  8
MY3DLAYER
10
1.00000000048557
20
0.546323815080797
30
0.31462963585748
11
0.531250000485575
21
0.546323815080829
31
0.31462963585748
  0
LINE
  8
MY3DLAYER
10
1.00000000048557
20
0.531250005399704
30
0.320873412264019
11
0.531250000485575
21
0.531250005399736
31
0.320873412264019
  0
LINE
  8
MY3DLAYER
10
1.00000000048556
20
0.518305831575546
30
0.330805826176387
11
0.531250000485574
21
0.518305831575578
31
0.330805826176387
  0
LINE
  8
MY3DLAYER
10
1.00000000048556
20
0.508373417663178
30
0.343750000000546
11
0.531250000485573
21
0.50837341766321
31
0.343750000000546
  0
LINE
  8
MY3DLAYER
10
1.00000000048556
20
0.502129641256639
30
0.358823809681639
11
0.531250000485573
21
0.50212964125667
31
0.358823809681639
  0
LINE
  8
MY3DLAYER
10
4.85076534495477e-010
20
5.39840133706448e-009
30
2.22044604925031e-016
11
4.85076534495477e-010
21
5.39818859057739e-009
31
0.500000000000001
  0
LINE
  8
MY3DLAYER
10
4.85076534495477e-010
20
5.39818859057739e-009
30
0.500000000000001
11
4.85121387505671e-010
21
0.687500005398189
31
0.500000000000292
  0
LINE
  8
MY3DLAYER
10
4.85121387505671e-010
20
0.687500005398401
30
2.93098878501041e-013
11
4.85121387505671e-010
21
0.687500005398189
31
0.500000000000292
  0
LINE
  8
MY3DLAYER
10
4.85076534495477e-010
20
5.39840133706448e-009
30
2.22044604925031e-016
11
4.85121387505671e-010
21
0.687500005398401
31
2.93098878501041e-013
  0
LINE
  8
MY3DLAYER
10
4.8510373495958e-010
20
0.375000005398299
30
0.312500000000401
11
4.85105955405629e-010
21
0.407352386036053
31
0.308240728286556
  0
LINE
  8
MY3DLAYER
10
4.85100626335111e-010
20
0.342647624760548
30
0.308240728286529
11
4.8510373495958e-010
21
0.375000005398299
31
0.312500000000401
  0
LINE
  8
MY3DLAYER
10
4.85097739755247e-010
20
0.312500005398426
30
0.295753175473462
11
4.85100626335111e-010
21
0.342647624760548
31
0.308240728286529
  0
LINE
  8
MY3DLAYER
10
4.85097739755247e-010
20
0.286611657750166
30
0.275888347648753
11
4.85097739755247e-010
21
0.312500005398426
31
0.295753175473462
  0
LINE
  8
MY3DLAYER
10
4.85094631130778e-010
20
0.266746829925479
30
0.250000000000475
11
4.85097739755247e-010
21
0.286611657750166
31
0.275888347648753
  0
LINE
  8
MY3DLAYER
10
4.85093742952358e-010
20
0.254259277112437
30
0.219852380638344
11
4.85094631130778e-010
21
0.266746829925479
31
0.250000000000475
  0
LINE
  8
MY3DLAYER
10
4.85095297264593e-010
20
0.250000005398593
30
0.187500000000589
11
4.85093742952358e-010
21
0.254259277112437
31
0.219852380638344
  0
LINE
  8
MY3DLAYER
10
4.85093742952358e-010
20
0.254259277112465
30
0.155147619362839
11
4.85095297264593e-010
21
0.250000005398593
31
0.187500000000589
  0
LINE
  8
MY3DLAYER
10
4.85094631130778e-010
20
0.266746829925533
30
0.125000000000717
11
4.85093742952358e-010
21
0.254259277112465
31
0.155147619362839
  0
LINE
  8
MY3DLAYER
10
4.85097739755247e-010
20
0.286611657750243
30
0.0991116523524575
11
4.85094631130778e-010
21
0.266746829925533
31
0.125000000000717
  0
LINE
  8
MY3DLAYER
10
4.85097739755247e-010
20
0.312500005398518
30
0.0792468245277704
11
4.85097739755247e-010
21
0.286611657750243
31
0.0991116523524575
  0
LINE
  8
MY3DLAYER
10
4.85100626335111e-010
20
0.342647624760651
30
0.0667592717147284
11
4.85097739755247e-010
21
0.312500005398518
31
0.0792468245277704
  0
LINE
  8
MY3DLAYER
10
4.8510373495958e-010
20
0.375000005398405
30
0.0625000000008841
11
4.85100626335111e-010
21
0.342647624760651
31
0.0667592717147284
  0
LINE
  8
MY3DLAYER
10
4.85105955405629e-010
20
0.407352386036156
30
0.066759271714756
11
4.8510373495958e-010
21
0.375000005398405
31
0.0625000000008841
  0
LINE
  8
MY3DLAYER
10
4.85106177450234e-010
20
0.437500005398277
30
0.0792468245278242
11
4.85105955405629e-010
21
0.407352386036156
31
0.066759271714756
  0
LINE
  8
MY3DLAYER
10
4.85109730163913e-010
20
0.463388353046537
30
0.0991116523525329
11
4.85106177450234e-010
21
0.437500005398277
31
0.0792468245278242
  0
LINE
  8
MY3DLAYER
10
4.85108397896283e-010
20
0.483253180871224
30
0.125000000000809
11
4.85109730163913e-010
21
0.463388353046537
31
0.0991116523525329
  0
LINE
  8
MY3DLAYER
10
4.85110174253123e-010
20
0.495740733684267
30
0.155147619362942
11
4.85108397896283e-010
21
0.483253180871224
31
0.125000000000809
  0
LINE
  8
MY3DLAYER
10
4.8511139549845e-010
20
0.500000005398111
30
0.187500000000696
11
4.85110174253123e-010
21
0.495740733684267
31
0.155147619362942
  0
LINE
  8
MY3DLAYER
10
4.85110174253123e-010
20
0.495740733684239
30
0.219852380638447
11
4.8511139549845e-010
21
0.500000005398111
31
0.187500000000696
  0
LINE
  8
MY3DLAYER
10
4.85108397896283e-010
20
0.48325318087117
30
0.250000000000568
11
4.85110174253123e-010
21
0.495740733684239
31
0.219852380638447
  0
LINE
  8
MY3DLAYER
10
4.85109730163913e-010
20
0.463388353046462
30
0.275888347648828
11
4.85108397896283e-010
21
0.48325318087117
31
0.250000000000568
  0
LINE
  8
MY3DLAYER
10
4.85106177450234e-010
20
0.437500005398185
30
0.295753175473516
11
4.85109730163913e-010
21
0.463388353046462
31
0.275888347648828
  0
LINE
  8
MY3DLAYER
10
4.85105955405629e-010
20
0.407352386036053
30
0.308240728286556
11
4.85106177450234e-010
21
0.437500005398185
31
0.295753175473516
  0
LINE
  8
MY3DLAYER
10
4.85118500925807e-010
20
0.500000005398241
30
0.375000000000292
11
4.8511950012653e-010
21
0.502129641255175
31
0.3911761903192
  0
LINE
  8
MY3DLAYER
10
4.8511950012653e-010
20
0.502129641255175
30
0.358823809681385
11
4.85118500925807e-010
21
0.500000005398241
31
0.375000000000292
  0
LINE
  8
MY3DLAYER
10
4.85120832394159e-010
20
0.508373417661714
30
0.343750000000292
11
4.8511950012653e-010
21
0.502129641255175
31
0.358823809681385
  0
LINE
  8
MY3DLAYER
10
4.85121498527974e-010
20
0.518305831574082
30
0.330805826176133
11
4.85120832394159e-010
21
0.508373417661714
31
0.343750000000292
  0
LINE
  8
MY3DLAYER
10
4.85120610349554e-010
20
0.53125000539824
30
0.320873412263765
11
4.85121498527974e-010
21
0.518305831574082
31
0.330805826176133
  0
LINE
  8
MY3DLAYER
10
4.85122497728696e-010
20
0.546323815079333
30
0.314629635857226
11
4.85120610349554e-010
21
0.53125000539824
31
0.320873412263765
  0
LINE
  8
MY3DLAYER
10
4.85122719773301e-010
20
0.562500005398241
30
0.312500000000293
11
4.85122497728696e-010
21
0.546323815079333
31
0.314629635857226
  0
LINE
  8
MY3DLAYER
10
4.85123829996326e-010
20
0.578676195717148
30
0.314629635857226
11
4.85122719773301e-010
21
0.562500005398241
31
0.312500000000293
  0
LINE
  8
MY3DLAYER
10
4.85124829197048e-010
20
0.59375000539824
30
0.320873412263765
11
4.85123829996326e-010
21
0.578676195717148
31
0.314629635857226
  0
LINE
  8
MY3DLAYER
10
4.85126605553887e-010
20
0.606694179222401
30
0.330805826176133
11
4.85124829197048e-010
21
0.59375000539824
31
0.320873412263765
  0
LINE
  8
MY3DLAYER
10
4.85127271687702e-010
20
0.616626593134769
30
0.343750000000292
11
4.85126605553887e-010
21
0.606694179222401
31
0.330805826176133
  0
LINE
  8
MY3DLAYER
10
4.85128603955332e-010
20
0.622870369541308
30
0.358823809681385
11
4.85127271687702e-010
21
0.616626593134769
31
0.343750000000292
  0
LINE
  8
MY3DLAYER
10
4.85127826799214e-010
20
0.625000005398241
30
0.375000000000292
11
4.85128603955332e-010
21
0.622870369541308
31
0.358823809681385
  0
LINE
  8
MY3DLAYER
10
4.85128603955332e-010
20
0.622870369541308
30
0.3911761903192
11
4.85127826799214e-010
21
0.625000005398241
31
0.375000000000292
  0
LINE
  8
MY3DLAYER
10
4.85127271687702e-010
20
0.616626593134769
30
0.406250000000292
11
4.85128603955332e-010
21
0.622870369541308
31
0.3911761903192
  0
LINE
  8
MY3DLAYER
10
4.85126605553887e-010
20
0.606694179222401
30
0.419194173824451
11
4.85127271687702e-010
21
0.616626593134769
31
0.406250000000292
  0
LINE
  8
MY3DLAYER
10
4.85125717375468e-010
20
0.593750005398241
30
0.42912658773682
11
4.85126605553887e-010
21
0.606694179222401
31
0.419194173824451
  0
LINE
  8
MY3DLAYER
10
4.85123829996326e-010
20
0.578676195717149
30
0.43537036414336
11
4.85125717375468e-010
21
0.593750005398241
31
0.42912658773682
  0
LINE
  8
MY3DLAYER
10
4.85122719773301e-010
20
0.562500005398241
30
0.437500000000292
11
4.85123829996326e-010
21
0.578676195717149
31
0.43537036414336
  0
LINE
  8
MY3DLAYER
10
4.85122497728696e-010
20
0.546323815079334
30
0.43537036414336
11
4.85122719773301e-010
21
0.562500005398241
31
0.437500000000292
  0
LINE
  8
MY3DLAYER
10
4.85121498527974e-010
20
0.531250005398241
30
0.42912658773682
11
4.85122497728696e-010
21
0.546323815079334
31
0.43537036414336
  0
LINE
  8
MY3DLAYER
10
4.85121498527974e-010
20
0.518305831574083
30
0.419194173824452
11
4.85121498527974e-010
21
0.531250005398241
31
0.42912658773682
  0
LINE
  8
MY3DLAYER
10
4.85120832394159e-010
20
0.508373417661714
30
0.406250000000292
11
4.85121498527974e-010
21
0.518305831574083
31
0.419194173824452
  0
LINE
  8
MY3DLAYER
10
4.8511950012653e-010
20
0.502129641255175
30
0.3911761903192
11
4.85120832394159e-010
21
0.508373417661714
31
0.406250000000292
  0
LINE
  8
MY3DLAYER
10
0.187500000485084
20
0.125000005398389
30
5.295763827462e-014
11
0.189629636342018
21
0.108823815079481
31
4.59632332194815e-014
  0
LINE
  8
MY3DLAYER
10
0.187500000485084
20
0.125000005398389
30
5.295763827462e-014
11
0.187500000485084
21
0.125000005398176
31
0.500000000000053
  0
LINE
  8
MY3DLAYER
10
0.187500000485084
20
0.125000005398176
30
0.500000000000053
11
0.189629636342018
21
0.108823815079268
31
0.500000000000046
  0
LINE
  8
MY3DLAYER
10
0.189629636342018
20
0.108823815079481
30
4.59632332194815e-014
11
0.189629636342018
21
0.108823815079268
31
0.500000000000046
  0
LINE
  8
MY3DLAYER
10
0.18962963634202
20
0.141176195717296
30
5.98410210272959e-014
11
0.187500000485084
21
0.125000005398389
31
5.295763827462e-014
  0
LINE
  8
MY3DLAYER
10
0.18962963634202
20
0.141176195717296
30
5.98410210272959e-014
11
0.18962963634202
21
0.141176195717083
31
0.50000000000006
  0
LINE
  8
MY3DLAYER
10
0.18962963634202
20
0.141176195717083
30
0.50000000000006
11
0.187500000485084
21
0.125000005398176
31
0.500000000000053
  0
LINE
  8
MY3DLAYER
10
0.195873412748561
20
0.156250005398388
30
6.69464483848969e-014
11
0.18962963634202
21
0.141176195717296
31
5.98410210272959e-014
  0
LINE
  8
MY3DLAYER
10
0.195873412748561
20
0.156250005398388
30
6.69464483848969e-014
11
0.195873412748561
21
0.156250005398175
31
0.500000000000066
  0
LINE
  8
MY3DLAYER
10
0.195873412748561
20
0.156250005398175
30
0.500000000000066
11
0.18962963634202
21
0.141176195717083
31
0.50000000000006
  0
LINE
  8
MY3DLAYER
10
0.205805826660931
20
0.169194179222546
30
7.18869408444789e-014
11
0.195873412748561
21
0.156250005398388
31
6.69464483848969e-014
  0
LINE
  8
MY3DLAYER
10
0.205805826660931
20
0.169194179222546
30
7.18869408444789e-014
11
0.205805826660931
21
0.169194179222334
31
0.500000000000073
  0
LINE
  8
MY3DLAYER
10
0.205805826660931
20
0.169194179222334
30
0.500000000000073
11
0.195873412748561
21
0.156250005398175
31
0.500000000000066
  0
LINE
  8
MY3DLAYER
10
0.218750000485091
20
0.179126593134914
30
7.61057883380545e-014
11
0.205805826660931
21
0.169194179222546
31
7.18869408444789e-014
  0
LINE
  8
MY3DLAYER
10
0.218750000485091
20
0.179126593134914
30
7.61057883380545e-014
11
0.218750000485091
21
0.179126593134701
31
0.500000000000077
  0
LINE
  8
MY3DLAYER
10
0.218750000485091
20
0.179126593134701
30
0.500000000000077
11
0.205805826660931
21
0.169194179222334
31
0.500000000000073
  0
LINE
  8
MY3DLAYER
10
0.233823810166182
20
0.185370369541452
30
7.87703235971549e-014
11
0.218750000485091
21
0.179126593134914
31
7.61057883380545e-014
  0
LINE
  8
MY3DLAYER
10
0.233823810166182
20
0.185370369541452
30
7.87703235971549e-014
11
0.233823810166182
21
0.185370369541239
31
0.50000000000008
  0
LINE
  8
MY3DLAYER
10
0.233823810166182
20
0.185370369541239
30
0.50000000000008
11
0.218750000485091
21
0.179126593134701
31
0.500000000000077
  0
LINE
  8
MY3DLAYER
10
0.250000000485088
20
0.187500005398383
30
7.9658502016855e-014
11
0.233823810166182
21
0.185370369541452
31
7.87703235971549e-014
  0
LINE
  8
MY3DLAYER
10
0.250000000485088
20
0.187500005398383
30
7.9658502016855e-014
11
0.250000000485088
21
0.18750000539817
31
0.50000000000008
  0
LINE
  8
MY3DLAYER
10
0.250000000485088
20
0.18750000539817
30
0.50000000000008
11
0.233823810166182
21
0.185370369541239
31
0.50000000000008
  0
LINE
  8
MY3DLAYER
10
0.266176190803997
20
0.18537036954145
30
7.87703235971549e-014
11
0.250000000485088
21
0.187500005398383
31
7.9658502016855e-014
  0
LINE
  8
MY3DLAYER
10
0.266176190803997
20
0.18537036954145
30
7.87703235971549e-014
11
0.266176190803997
21
0.185370369541238
31
0.50000000000008
  0
LINE
  8
MY3DLAYER
10
0.266176190803997
20
0.185370369541238
30
0.50000000000008
11
0.250000000485088
21
0.18750000539817
31
0.50000000000008
  0
LINE
  8
MY3DLAYER
10
0.281250000485091
20
0.17912659313491
30
7.61057883380545e-014
11
0.266176190803997
21
0.18537036954145
31
7.87703235971549e-014
  0
LINE
  8
MY3DLAYER
10
0.281250000485091
20
0.17912659313491
30
7.61057883380545e-014
11
0.281250000485091
21
0.179126593134697
31
0.500000000000077
  0
LINE
  8
MY3DLAYER
10
0.281250000485091
20
0.179126593134697
30
0.500000000000077
11
0.266176190803997
21
0.185370369541238
31
0.50000000000008
  0
LINE
  8
MY3DLAYER
10
0.294194174309248
20
0.16919417922254
30
7.18869408444789e-014
11
0.281250000485091
21
0.17912659313491
31
7.61057883380545e-014
  0
LINE
  8
MY3DLAYER
10
0.294194174309248
20
0.16919417922254
30
7.18869408444789e-014
11
0.294194174309248
21
0.169194179222328
31
0.500000000000073
  0
LINE
  8
MY3DLAYER
10
0.294194174309248
20
0.169194179222328
30
0.500000000000073
11
0.281250000485091
21
0.179126593134697
31
0.500000000000077
  0
LINE
  8
MY3DLAYER
10
0.304126588221617
20
0.15625000539838
30
6.69464483848969e-014
11
0.294194174309248
21
0.16919417922254
31
7.18869408444789e-014
  0
LINE
  8
MY3DLAYER
10
0.304126588221617
20
0.15625000539838
30
6.69464483848969e-014
11
0.304126588221617
21
0.156250005398168
31
0.500000000000066
  0
LINE
  8
MY3DLAYER
10
0.304126588221617
20
0.156250005398168
30
0.500000000000066
11
0.294194174309248
21
0.169194179222328
31
0.500000000000073
  0
LINE
  8
MY3DLAYER
10
0.310370364628154
20
0.141176195717287
30
5.98410210272959e-014
11
0.304126588221617
21
0.15625000539838
31
6.69464483848969e-014
  0
LINE
  8
MY3DLAYER
10
0.310370364628154
20
0.141176195717287
30
5.98410210272959e-014
11
0.310370364628154
21
0.141176195717074
31
0.50000000000006
  0
LINE
  8
MY3DLAYER
10
0.310370364628154
20
0.141176195717074
30
0.50000000000006
11
0.304126588221617
21
0.156250005398168
31
0.500000000000066
  0
LINE
  8
MY3DLAYER
10
0.312500000485084
20
0.12500000539838
30
5.295763827462e-014
11
0.310370364628154
21
0.141176195717287
31
5.98410210272959e-014
  0
LINE
  8
MY3DLAYER
10
0.312500000485084
20
0.12500000539838
30
5.295763827462e-014
11
0.312500000485084
21
0.125000005398167
31
0.500000000000053
  0
LINE
  8
MY3DLAYER
10
0.312500000485084
20
0.125000005398167
30
0.500000000000053
11
0.310370364628154
21
0.141176195717074
31
0.50000000000006
  0
LINE
  8
MY3DLAYER
10
0.310370364628151
20
0.108823815079472
30
4.59632332194815e-014
11
0.312500000485084
21
0.12500000539838
31
5.295763827462e-014
  0
LINE
  8
MY3DLAYER
10
0.310370364628151
20
0.108823815079472
30
4.59632332194815e-014
11
0.310370364628151
21
0.108823815079259
31
0.500000000000046
  0
LINE
  8
MY3DLAYER
10
0.310370364628151
20
0.108823815079259
30
0.500000000000046
11
0.312500000485084
21
0.125000005398167
31
0.500000000000053
  0
LINE
  8
MY3DLAYER
10
0.304126588221611
20
0.0937500053983811
30
3.99125177352744e-014
11
0.310370364628151
21
0.108823815079472
31
4.59632332194815e-014
  0
LINE
  8
MY3DLAYER
10
0.304126588221611
20
0.0937500053983811
30
3.99125177352744e-014
11
0.304126588221611
21
0.0937500053981679
31
0.50000000000004
  0
LINE
  8
MY3DLAYER
10
0.304126588221611
20
0.0937500053981679
30
0.50000000000004
11
0.310370364628151
21
0.108823815079259
31
0.500000000000046
  0
LINE
  8
MY3DLAYER
10
0.294194174309242
20
0.0808058315742227
30
3.43614026121486e-014
11
0.304126588221611
21
0.0937500053983811
31
3.99125177352744e-014
  0
LINE
  8
MY3DLAYER
10
0.294194174309242
20
0.0808058315742227
30
3.43614026121486e-014
11
0.294194174309242
21
0.0808058315740095
31
0.500000000000034
  0
LINE
  8
MY3DLAYER
10
0.294194174309242
20
0.0808058315740095
30
0.500000000000034
11
0.304126588221611
21
0.0937500053981679
31
0.50000000000004
  0
LINE
  8
MY3DLAYER
10
0.281250000485082
20
0.0708734176618555
30
2.9920510513648e-014
11
0.281250000485082
21
0.0708734176616423
31
0.50000000000003
  0
LINE
  8
MY3DLAYER
10
0.281250000485082
20
0.0708734176618555
30
2.9920510513648e-014
11
0.294194174309242
21
0.0808058315742227
31
3.43614026121486e-014
  0
LINE
  8
MY3DLAYER
10
0.281250000485082
20
0.0708734176616423
30
0.50000000000003
11
0.294194174309242
21
0.0808058315740095
31
0.500000000000034
  0
LINE
  8
MY3DLAYER
10
0.266176190803989
20
0.0646296412553171
30
2.74780198594726e-014
11
0.281250000485082
21
0.0708734176618555
31
2.9920510513648e-014
  0
LINE
  8
MY3DLAYER
10
4.85121387505671e-010
20
0.687500005398189
30
0.500000000000292
11
0.468750000485122
21
0.687500005398156
31
0.500000000000292
  0
LINE
  8
MY3DLAYER
10
0.266176190803989
20
0.0646296412551039
30
0.500000000000027
11
0.281250000485082
21
0.0708734176616423
31
0.50000000000003
  0
LINE
  8
MY3DLAYER
10
0.250000000485083
20
0.0625000053981712
30
0.500000000000026
11
0.266176190803989
21
0.0646296412551039
31
0.500000000000027
  0
LINE
  8
MY3DLAYER
10
0.233823810166173
20
0.0646296412551061
30
0.500000000000027
11
0.250000000485083
21
0.0625000053981712
31
0.500000000000026
  0
LINE
  8
MY3DLAYER
10
0.218750000485082
20
0.0708734176616457
30
0.50000000000003
11
0.233823810166173
21
0.0646296412551061
31
0.500000000000027
  0
LINE
  8
MY3DLAYER
10
0.205805826660923
20
0.0808058315740146
30
0.500000000000034
11
0.218750000485082
21
0.0708734176616457
31
0.50000000000003
  0
LINE
  8
MY3DLAYER
10
0.195873412748556
20
0.0937500053981757
30
0.50000000000004
11
0.205805826660923
21
0.0808058315740146
31
0.500000000000034
  0
LINE
  8
MY3DLAYER
10
0.189629636342018
20
0.108823815079268
30
0.500000000000046
11
0.195873412748556
21
0.0937500053981757
31
0.50000000000004
  0
LINE
  8
MY3DLAYER
10
0.468750000485076
20
5.39836947366368e-009
30
1.11022302462516e-016
11
4.85076534495477e-010
21
5.39840133706448e-009
31
2.22044604925031e-016
  0
LINE
  8
MY3DLAYER
10
0.468750000485122
20
0.687500005398369
30
2.92987856198579e-013
11
4.85121387505671e-010
21
0.687500005398401
31
2.93098878501041e-013
  0
LINE
  8
MY3DLAYER
10
0.468750000485076
20
5.39836947366368e-009
30
1.11022302462516e-016
11
0.468750000485122
21
0.687500005398369
31
2.92987856198579e-013
  0
LINE
  8
MY3DLAYER
10
0.189629636342018
20
0.108823815079481
30
4.59632332194815e-014
11
0.195873412748556
21
0.0937500053983885
31
3.99125177352744e-014
  0
LINE
  8
MY3DLAYER
10
0.195873412748556
20
0.0937500053983885
30
3.99125177352744e-014
11
0.205805826660923
21
0.0808058315742278
31
3.43614026121486e-014
  0
LINE
  8
MY3DLAYER
10
0.205805826660923
20
0.0808058315742278
30
3.43614026121486e-014
11
0.218750000485082
21
0.0708734176618593
31
2.9920510513648e-014
  0
LINE
  8
MY3DLAYER
10
0.218750000485082
20
0.0708734176618593
30
2.9920510513648e-014
11
0.233823810166173
21
0.0646296412553193
31
2.74780198594726e-014
  0
LINE
  8
MY3DLAYER
10
0.233823810166173
20
0.0646296412553193
30
2.74780198594726e-014
11
0.250000000485083
21
0.0625000053983844
31
2.63677968348475e-014
  0
LINE
  8
MY3DLAYER
10
0.250000000485083
20
0.0625000053983844
30
2.63677968348475e-014
11
0.266176190803989
21
0.0646296412553171
31
2.74780198594726e-014
  0
LINE
  8
MY3DLAYER
10
0.266176190803989
20
0.0646296412553171
30
2.74780198594726e-014
11
0.266176190803989
21
0.0646296412551039
31
0.500000000000027
  0
LINE
  8
MY3DLAYER
10
0.250000000485083
20
0.0625000053983844
30
2.63677968348475e-014
11
0.250000000485083
21
0.0625000053981712
31
0.500000000000026
  0
LINE
  8
MY3DLAYER
10
0.233823810166173
20
0.0646296412553193
30
2.74780198594726e-014
11
0.233823810166173
21
0.0646296412551061
31
0.500000000000027
  0
LINE
  8
MY3DLAYER
10
0.218750000485082
20
0.0708734176618593
30
2.9920510513648e-014
11
0.218750000485082
21
0.0708734176616457
31
0.50000000000003
  0
LINE
  8
MY3DLAYER
10
0.205805826660923
20
0.0808058315742278
30
3.43614026121486e-014
11
0.205805826660923
21
0.0808058315740146
31
0.500000000000034
  0
LINE
  8
MY3DLAYER
10
0.195873412748556
20
0.0937500053983885
30
3.99125177352744e-014
11
0.195873412748556
21
0.0937500053981757
31
0.50000000000004
  0
LINE
  8
MY3DLAYER
10
0.468750000485122
20
0.687500005398369
30
2.92987856198579e-013
11
0.468750000485122
21
0.687500005398156
31
0.500000000000292
  0
LINE
  8
MY3DLAYER
10
0.468750000485122
20
0.687500005398156
30
0.500000000000292
11
0.468750000485076
21
5.39815672717658e-009
31
0.500000000000001
  0
LINE
  8
MY3DLAYER
10
4.85076534495477e-010
20
5.39818859057739e-009
30
0.500000000000001
11
0.468750000485076
21
5.39815672717658e-009
31
0.500000000000001
  0
LINE
  8
MY3DLAYER
10
0.468750000485108
20
0.483253180871138
30
0.250000000000568
11
0.46875000048511
21
0.495740733684207
31
0.219852380638447
  0
LINE
  8
MY3DLAYER
10
0.46875000048511
20
0.495740733684207
30
0.219852380638447
11
0.468750000485111
21
0.500000005398079
31
0.187500000000696
  0
LINE
  8
MY3DLAYER
10
0.468750000485111
20
0.500000005398079
30
0.187500000000696
11
0.46875000048511
21
0.495740733684234
31
0.155147619362942
  0
LINE
  8
MY3DLAYER
10
0.46875000048511
20
0.495740733684234
30
0.155147619362942
11
0.468750000485108
21
0.483253180871192
31
0.125000000000809
  0
LINE
  8
MY3DLAYER
10
0.468750000485076
20
5.39815672717658e-009
30
0.500000000000001
11
0.468750000485076
21
5.39836947366368e-009
31
1.11022302462516e-016
  0
LINE
  8
MY3DLAYER
10
0.468750000485094
20
0.254259277112434
30
0.155147619362839
11
0.468750000485094
21
0.250000005398562
31
0.187500000000589
  0
LINE
  8
MY3DLAYER
10
0.468750000485094
20
0.250000005398562
30
0.187500000000589
11
0.468750000485094
21
0.254259277112406
31
0.219852380638344
  0
LINE
  8
MY3DLAYER
10
0.468750000485094
20
0.254259277112406
30
0.219852380638344
11
0.468750000485095
21
0.266746829925447
31
0.250000000000475
  0
LINE
  8
MY3DLAYER
10
0.468750000485095
20
0.266746829925447
30
0.250000000000475
11
0.468750000485098
21
0.286611657750135
31
0.275888347648753
  0
LINE
  8
MY3DLAYER
10
0.468750000485098
20
0.286611657750135
30
0.275888347648753
11
0.468750000485098
21
0.312500005398395
31
0.295753175473462
  0
LINE
  8
MY3DLAYER
10
0.468750000485098
20
0.312500005398395
30
0.295753175473462
11
0.4687500004851
21
0.342647624760516
31
0.308240728286529
  0
LINE
  8
MY3DLAYER
10
0.4687500004851
20
0.342647624760516
30
0.308240728286529
11
0.468750000485104
21
0.375000005398266
31
0.312500000000401
  0
LINE
  8
MY3DLAYER
10
0.468750000485104
20
0.375000005398266
30
0.312500000000401
11
0.468750000485105
21
0.407352386036021
31
0.308240728286556
  0
LINE
  8
MY3DLAYER
10
0.468750000485105
20
0.407352386036021
30
0.308240728286556
11
0.468750000485105
21
0.437500005398153
31
0.295753175473515
  0
LINE
  8
MY3DLAYER
10
0.468750000485105
20
0.437500005398153
30
0.295753175473515
11
0.468750000485109
21
0.46338835304643
31
0.275888347648828
  0
LINE
  8
MY3DLAYER
10
0.468750000485109
20
0.46338835304643
30
0.275888347648828
11
0.468750000485108
21
0.483253180871138
31
0.250000000000568
  0
LINE
  8
MY3DLAYER
10
0.468750000485108
20
0.483253180871192
30
0.125000000000809
11
0.468750000485109
21
0.463388353046505
31
0.0991116523525328
  0
LINE
  8
MY3DLAYER
10
0.468750000485109
20
0.463388353046505
30
0.0991116523525328
11
0.468750000485105
21
0.437500005398245
31
0.0792468245278241
  0
LINE
  8
MY3DLAYER
10
0.468750000485105
20
0.437500005398245
30
0.0792468245278241
11
0.468750000485105
21
0.407352386036124
31
0.066759271714756
  0
LINE
  8
MY3DLAYER
10
0.468750000485105
20
0.407352386036124
30
0.066759271714756
11
0.468750000485104
21
0.375000005398373
31
0.0625000000008841
  0
LINE
  8
MY3DLAYER
10
0.468750000485104
20
0.375000005398373
30
0.0625000000008841
11
0.4687500004851
21
0.342647624760619
31
0.0667592717147284
  0
LINE
  8
MY3DLAYER
10
0.4687500004851
20
0.342647624760619
30
0.0667592717147284
11
0.468750000485098
21
0.312500005398487
31
0.0792468245277704
  0
LINE
  8
MY3DLAYER
10
0.468750000485098
20
0.312500005398487
30
0.0792468245277704
11
0.468750000485098
21
0.286611657750211
31
0.0991116523524575
  0
LINE
  8
MY3DLAYER
10
0.468750000485098
20
0.286611657750211
30
0.0991116523524575
11
0.468750000485095
21
0.266746829925501
31
0.125000000000717
  0
LINE
  8
MY3DLAYER
10
0.468750000485095
20
0.266746829925501
30
0.125000000000717
11
0.468750000485094
21
0.254259277112434
31
0.155147619362839
  0
LINE
  8
MY3DLAYER
10
0.46875000048511
20
0.500000005398209
30
0.375000000000292
11
0.468750000485111
21
0.502129641255143
31
0.3911761903192
  0
LINE
  8
MY3DLAYER
10
0.468750000485111
20
0.502129641255143
30
0.3911761903192
11
0.468750000485112
21
0.508373417661682
31
0.406250000000292
  0
LINE
  8
MY3DLAYER
10
0.468750000485112
20
0.508373417661682
30
0.406250000000292
11
0.468750000485113
21
0.518305831574051
31
0.419194173824452
  0
LINE
  8
MY3DLAYER
10
0.468750000485113
20
0.518305831574051
30
0.419194173824452
11
0.468750000485113
21
0.53125000539821
31
0.42912658773682
  0
LINE
  8
MY3DLAYER
10
0.468750000485113
20
0.53125000539821
30
0.42912658773682
11
0.468750000485115
21
0.546323815079302
31
0.43537036414336
  0
LINE
  8
MY3DLAYER
10
0.468750000485115
20
0.546323815079302
30
0.43537036414336
11
0.468750000485114
21
0.56250000539821
31
0.437500000000292
  0
LINE
  8
MY3DLAYER
10
0.468750000485114
20
0.56250000539821
30
0.437500000000292
11
0.468750000485115
21
0.578676195717117
31
0.43537036414336
  0
LINE
  8
MY3DLAYER
10
0.468750000485115
20
0.578676195717117
30
0.43537036414336
11
0.468750000485117
21
0.59375000539821
31
0.42912658773682
  0
LINE
  8
MY3DLAYER
10
0.468750000485117
20
0.59375000539821
30
0.42912658773682
11
0.468750000485118
21
0.606694179222369
31
0.419194173824451
  0
LINE
  8
MY3DLAYER
10
0.468750000485118
20
0.606694179222369
30
0.419194173824451
11
0.468750000485118
21
0.616626593134737
31
0.406250000000292
  0
LINE
  8
MY3DLAYER
10
0.468750000485118
20
0.616626593134737
30
0.406250000000292
11
0.46875000048512
21
0.622870369541276
31
0.3911761903192
  0
LINE
  8
MY3DLAYER
10
0.46875000048512
20
0.622870369541276
30
0.3911761903192
11
0.46875000048512
21
0.625000005398209
31
0.375000000000292
  0
LINE
  8
MY3DLAYER
10
0.46875000048512
20
0.625000005398209
30
0.375000000000292
11
0.46875000048512
21
0.622870369541276
31
0.358823809681385
  0
LINE
  8
MY3DLAYER
10
0.46875000048512
20
0.622870369541276
30
0.358823809681385
11
0.468750000485118
21
0.616626593134737
31
0.343750000000292
  0
LINE
  8
MY3DLAYER
10
0.468750000485118
20
0.616626593134737
30
0.343750000000292
11
0.468750000485118
21
0.606694179222369
31
0.330805826176133
  0
LINE
  8
MY3DLAYER
10
0.468750000485118
20
0.606694179222369
30
0.330805826176133
11
0.468750000485116
21
0.593750005398209
31
0.320873412263765
  0
LINE
  8
MY3DLAYER
10
0.468750000485116
20
0.593750005398209
30
0.320873412263765
11
0.468750000485115
21
0.578676195717117
31
0.314629635857226
  0
LINE
  8
MY3DLAYER
10
0.468750000485115
20
0.578676195717117
30
0.314629635857226
11
0.468750000485114
21
0.562500005398209
31
0.312500000000293
  0
LINE
  8
MY3DLAYER
10
0.468750000485114
20
0.562500005398209
30
0.312500000000293
11
0.468750000485115
21
0.546323815079301
31
0.314629635857226
  0
LINE
  8
MY3DLAYER
10
0.468750000485115
20
0.546323815079301
30
0.314629635857226
11
0.468750000485113
21
0.531250005398209
31
0.320873412263765
  0
LINE
  8
MY3DLAYER
10
0.468750000485113
20
0.531250005398209
30
0.320873412263765
11
0.468750000485113
21
0.51830583157405
31
0.330805826176133
  0
LINE
  8
MY3DLAYER
10
0.468750000485113
20
0.51830583157405
30
0.330805826176133
11
0.468750000485112
21
0.508373417661682
31
0.343750000000292
  0
LINE
  8
MY3DLAYER
10
0.468750000485112
20
0.508373417661682
30
0.343750000000292
11
0.468750000485111
21
0.502129641255143
31
0.358823809681385
  0
LINE
  8
MY3DLAYER
10
0.468750000485111
20
0.502129641255143
30
0.358823809681385
11
0.46875000048511
21
0.500000005398209
31
0.375000000000292
  0
LINE
  8
MY3DLAYER
10
4.85094631130778e-010
20
0.266746829925479
30
0.250000000000475
11
0.468750000485095
21
0.266746829925447
31
0.250000000000475
  0
LINE
  8
MY3DLAYER
10
4.85093742952358e-010
20
0.254259277112437
30
0.219852380638344
11
0.468750000485094
21
0.254259277112406
31
0.219852380638344
  0
LINE
  8
MY3DLAYER
10
4.85097739755247e-010
20
0.286611657750166
30
0.275888347648753
11
0.468750000485098
21
0.286611657750135
31
0.275888347648753
  0
LINE
  8
MY3DLAYER
10
4.85097739755247e-010
20
0.312500005398426
30
0.295753175473462
11
0.468750000485098
21
0.312500005398395
31
0.295753175473462
  0
LINE
  8
MY3DLAYER
10
4.85095297264593e-010
20
0.250000005398593
30
0.187500000000589
11
0.468750000485094
21
0.250000005398562
31
0.187500000000589
  0
LINE
  8
MY3DLAYER
10
4.85093742952358e-010
20
0.254259277112465
30
0.155147619362839
11
0.468750000485094
21
0.254259277112434
31
0.155147619362839
  0
LINE
  8
MY3DLAYER
10
4.8511139549845e-010
20
0.500000005398111
30
0.187500000000696
11
0.468750000485111
21
0.500000005398079
31
0.187500000000696
  0
LINE
  8
MY3DLAYER
10
4.85110174253123e-010
20
0.495740733684239
30
0.219852380638447
11
0.46875000048511
21
0.495740733684207
31
0.219852380638447
  0
LINE
  8
MY3DLAYER
10
4.85110174253123e-010
20
0.495740733684267
30
0.155147619362942
11
0.46875000048511
21
0.495740733684234
31
0.155147619362942
  0
LINE
  8
MY3DLAYER
10
4.85108397896283e-010
20
0.483253180871224
30
0.125000000000809
11
0.468750000485108
21
0.483253180871192
31
0.125000000000809
  0
LINE
  8
MY3DLAYER
10
4.85100626335111e-010
20
0.342647624760548
30
0.308240728286529
11
0.4687500004851
21
0.342647624760516
31
0.308240728286529
  0
LINE
  8
MY3DLAYER
10
4.8510373495958e-010
20
0.375000005398299
30
0.312500000000401
11
0.468750000485104
21
0.375000005398266
31
0.312500000000401
  0
LINE
  8
MY3DLAYER
10
4.85105955405629e-010
20
0.407352386036053
30
0.308240728286556
11
0.468750000485105
21
0.407352386036021
31
0.308240728286556
  0
LINE
  8
MY3DLAYER
10
4.85106177450234e-010
20
0.437500005398185
30
0.295753175473516
11
0.468750000485105
21
0.437500005398153
31
0.295753175473515
  0
LINE
  8
MY3DLAYER
10
4.85109730163913e-010
20
0.463388353046462
30
0.275888347648828
11
0.468750000485109
21
0.46338835304643
31
0.275888347648828
  0
LINE
  8
MY3DLAYER
10
4.85108397896283e-010
20
0.48325318087117
30
0.250000000000568
11
0.468750000485108
21
0.483253180871138
31
0.250000000000568
  0
LINE
  8
MY3DLAYER
10
4.85097739755247e-010
20
0.286611657750243
30
0.0991116523524575
11
0.468750000485098
21
0.286611657750211
31
0.0991116523524575
  0
LINE
  8
MY3DLAYER
10
4.85097739755247e-010
20
0.312500005398518
30
0.0792468245277704
11
0.468750000485098
21
0.312500005398487
31
0.0792468245277704
  0
LINE
  8
MY3DLAYER
10
4.85094631130778e-010
20
0.266746829925533
30
0.125000000000717
11
0.468750000485095
21
0.266746829925501
31
0.125000000000717
  0
LINE
  8
MY3DLAYER
10
4.8511950012653e-010
20
0.502129641255175
30
0.3911761903192
11
0.468750000485111
21
0.502129641255143
31
0.3911761903192
  0
LINE
  8
MY3DLAYER
10
4.85118500925807e-010
20
0.500000005398241
30
0.375000000000292
11
0.46875000048511
21
0.500000005398209
31
0.375000000000292
  0
LINE
  8
MY3DLAYER
10
4.85109730163913e-010
20
0.463388353046537
30
0.0991116523525329
11
0.468750000485109
21
0.463388353046505
31
0.0991116523525328
  0
LINE
  8
MY3DLAYER
10
4.85106177450234e-010
20
0.437500005398277
30
0.0792468245278242
11
0.468750000485105
21
0.437500005398245
31
0.0792468245278241
  0
LINE
  8
MY3DLAYER
10
4.85105955405629e-010
20
0.407352386036156
30
0.066759271714756
11
0.468750000485105
21
0.407352386036124
31
0.066759271714756
  0
LINE
  8
MY3DLAYER
10
4.8510373495958e-010
20
0.375000005398405
30
0.0625000000008841
11
0.468750000485104
21
0.375000005398373
31
0.0625000000008841
  0
LINE
  8
MY3DLAYER
10
4.85100626335111e-010
20
0.342647624760651
30
0.0667592717147284
11
0.4687500004851
21
0.342647624760619
31
0.0667592717147284
  0
LINE
  8
MY3DLAYER
10
4.85123829996326e-010
20
0.578676195717149
30
0.43537036414336
11
0.468750000485115
21
0.578676195717117
31
0.43537036414336
  0
LINE
  8
MY3DLAYER
10
4.85122719773301e-010
20
0.562500005398241
30
0.437500000000292
11
0.468750000485114
21
0.56250000539821
31
0.437500000000292
  0
LINE
  8
MY3DLAYER
10
4.85125717375468e-010
20
0.593750005398241
30
0.42912658773682
11
0.468750000485117
21
0.59375000539821
31
0.42912658773682
  0
LINE
  8
MY3DLAYER
10
4.85126605553887e-010
20
0.606694179222401
30
0.419194173824451
11
0.468750000485118
21
0.606694179222369
31
0.419194173824451
  0
LINE
  8
MY3DLAYER
10
4.85120832394159e-010
20
0.508373417661714
30
0.406250000000292
11
0.468750000485112
21
0.508373417661682
31
0.406250000000292
  0
LINE
  8
MY3DLAYER
10
4.85121498527974e-010
20
0.518305831574083
30
0.419194173824452
11
0.468750000485113
21
0.518305831574051
31
0.419194173824452
  0
LINE
  8
MY3DLAYER
10
4.85121498527974e-010
20
0.531250005398241
30
0.42912658773682
11
0.468750000485113
21
0.53125000539821
31
0.42912658773682
  0
LINE
  8
MY3DLAYER
10
4.85122497728696e-010
20
0.546323815079334
30
0.43537036414336
11
0.468750000485115
21
0.546323815079302
31
0.43537036414336
  0
LINE
  8
MY3DLAYER
10
4.85124829197048e-010
20
0.59375000539824
30
0.320873412263765
11
0.468750000485116
21
0.593750005398209
31
0.320873412263765
  0
LINE
  8
MY3DLAYER
10
4.85126605553887e-010
20
0.606694179222401
30
0.330805826176133
11
0.468750000485118
21
0.606694179222369
31
0.330805826176133
  0
LINE
  8
MY3DLAYER
10
4.85123829996326e-010
20
0.578676195717148
30
0.314629635857226
11
0.468750000485115
21
0.578676195717117
31
0.314629635857226
  0
LINE
  8
MY3DLAYER
10
4.85122719773301e-010
20
0.562500005398241
30
0.312500000000293
11
0.468750000485114
21
0.562500005398209
31
0.312500000000293
  0
LINE
  8
MY3DLAYER
10
4.85127271687702e-010
20
0.616626593134769
30
0.406250000000292
11
0.468750000485118
21
0.616626593134737
31
0.406250000000292
  0
LINE
  8
MY3DLAYER
10
4.85128603955332e-010
20
0.622870369541308
30
0.3911761903192
11
0.46875000048512
21
0.622870369541276
31
0.3911761903192
  0
LINE
  8
MY3DLAYER
10
4.85127826799214e-010
20
0.625000005398241
30
0.375000000000292
11
0.46875000048512
21
0.625000005398209
31
0.375000000000292
  0
LINE
  8
MY3DLAYER
10
4.85128603955332e-010
20
0.622870369541308
30
0.358823809681385
11
0.46875000048512
21
0.622870369541276
31
0.358823809681385
  0
LINE
  8
MY3DLAYER
10
4.85127271687702e-010
20
0.616626593134769
30
0.343750000000292
11
0.468750000485118
21
0.616626593134737
31
0.343750000000292
  0
LINE
  8
MY3DLAYER
10
4.85122497728696e-010
20
0.546323815079333
30
0.314629635857226
11
0.468750000485115
21
0.546323815079301
31
0.314629635857226
  0
LINE
  8
MY3DLAYER
10
4.85120610349554e-010
20
0.53125000539824
30
0.320873412263765
11
0.468750000485113
21
0.531250005398209
31
0.320873412263765
  0
LINE
  8
MY3DLAYER
10
4.85121498527974e-010
20
0.518305831574082
30
0.330805826176133
11
0.468750000485113
21
0.51830583157405
31
0.330805826176133
  0
LINE
  8
MY3DLAYER
10
4.85120832394159e-010
20
0.508373417661714
30
0.343750000000292
11
0.468750000485112
21
0.508373417661682
31
0.343750000000292
  0
LINE
  8
MY3DLAYER
10
4.8511950012653e-010
20
0.502129641255175
30
0.358823809681385
11
0.468750000485111
21
0.502129641255143
31
0.358823809681385
  0
ENDSEC
  0
EOF
