 0
SECTION
 2
ENTITIES
  0
LINE
  8
MY3DLAYER
10
0.875000000001695
20
0.253009271714473
30
0.802150794834729
11
0.87500000000172
21
0.227120924066174
31
0.782285967009962
  0
LINE
  8
MY3DLAYER
10
0.875000004041305
20
2.22286165235227
30
0.814638347650126
11
0.875000004041335
21
2.19050927171445
31
0.818897619363954
  0
LINE
  8
MY3DLAYER
10
0.875000004041282
20
2.25300927171447
30
0.802150794837082
11
0.875000004041305
21
2.22286165235227
31
0.814638347650126
  0
LINE
  8
MY3DLAYER
10
0.87500000404126
20
2.27889761936281
30
0.782285967012377
11
0.875000004041282
21
2.25300927171447
31
0.802150794837082
  0
LINE
  8
MY3DLAYER
10
0.875000004041246
20
2.29876244718758
30
0.756397619364082
11
0.87500000404126
21
2.27889761936281
31
0.782285967012377
  0
LINE
  8
MY3DLAYER
10
0.875000004041236
20
2.31125000000069
30
0.726250000001911
11
0.875000004041246
21
2.29876244718758
31
0.756397619364082
  0
LINE
  8
MY3DLAYER
10
0.875000004041223
20
2.3155092717146
30
0.693897619364102
11
0.875000004041236
21
2.31125000000069
31
0.726250000001911
  0
LINE
  8
MY3DLAYER
10
0.87500000000186
20
1.75326420048805e-012
30
5.32907051820075e-015
11
0.874999999999975
21
2.50000000000175
31
2.73359113123206e-012
  0
LINE
  8
MY3DLAYER
10
0.874999999999975
20
2.50000000000175
30
2.73359113123206e-012
11
0.874999999999998
21
2.5000000000008
31
0.875000000002718
  0
LINE
  8
MY3DLAYER
10
0.874999999999998
20
2.5000000000008
30
0.875000000002718
11
0.875000000000449
21
1.9062500000008
31
0.875000000002121
  0
LINE
  8
MY3DLAYER
10
0.875000000000449
20
1.9062500000008
30
0.875000000002121
11
0.875000000000449
21
1.90625000000065
31
1.00000000000212
  0
LINE
  8
MY3DLAYER
10
1.9046638926964e-012
20
1.37667655053519e-013
30
0.875000000000044
11
0.875000000001905
21
8.06910094297564e-013
31
0.875000000000008
  0
LINE
  8
MY3DLAYER
10
0.875000000001905
20
8.06910094297564e-013
30
0.875000000000008
11
0.87500000000186
21
1.75326420048805e-012
31
5.32907051820075e-015
  0
LINE
  8
MY3DLAYER
10
0.87500000000186
20
1.75326420048805e-012
30
5.32907051820075e-015
11
1.00000000000186
21
1.84563475613686e-012
31
0.0
  0
LINE
  8
MY3DLAYER
10
1.0000000000019
20
7.56283924374657e-013
30
0.999999999999999
11
1.00000000000186
21
1.84563475613686e-012
31
0.0
  0
LINE
  8
MY3DLAYER
10
1.0000000000019
20
7.56283924374657e-013
30
0.999999999999999
11
1.90821660637526e-012
21
0.0
31
1.00000000000004
  0
LINE
  8
MY3DLAYER
10
1.90821660637526e-012
20
0.0
30
1.00000000000004
11
1.9046638926964e-012
21
1.37667655053519e-013
31
0.875000000000044
  0
LINE
  8
MY3DLAYER
10
0.875000000001549
20
0.436250000000769
30
0.661545238724074
11
0.875000000001546
21
0.440509271714596
31
0.693897619361894
  0
LINE
  8
MY3DLAYER
10
0.874999999999975
20
2.50000000000175
30
2.73359113123206e-012
11
0.999999999999975
21
2.50000000000185
31
2.72848410531878e-012
  0
LINE
  8
MY3DLAYER
10
1.90821660637526e-012
20
0.0
30
1.00000000000004
11
1.45581203003629e-012
21
0.59375
31
1.00000000000069
  0
LINE
  8
MY3DLAYER
10
1.00000000000001
20
2.50000000000076
30
1.00000000000273
11
1.0000000000019
21
7.56283924374657e-013
31
0.999999999999999
  0
LINE
  8
MY3DLAYER
10
3.54221724690448e-015
20
2.49999999999999
30
1.00000000000275
11
1.00000000000001
21
2.50000000000076
31
1.00000000000273
  0
LINE
  8
MY3DLAYER
10
4.52394079907084e-013
20
1.90624999999998
30
1.00000000000212
11
3.54221724690448e-015
21
2.49999999999999
31
1.00000000000275
  0
LINE
  8
MY3DLAYER
10
4.52394079907084e-013
20
1.90624999999998
30
1.00000000000212
11
0.875000000000449
21
1.90625000000065
31
1.00000000000212
  0
LINE
  8
MY3DLAYER
10
0.875000000000688
20
1.59375000000065
30
1.00000000000179
11
0.875000000000449
21
1.90625000000065
31
1.00000000000212
  0
LINE
  8
MY3DLAYER
10
6.91810646177679e-013
20
1.59374999999998
30
1.00000000000179
11
0.875000000000688
21
1.59375000000065
31
1.00000000000179
  0
LINE
  8
MY3DLAYER
10
1.21728364218539e-012
20
0.90625
30
1.00000000000103
11
6.91810646177679e-013
21
1.59374999999998
31
1.00000000000179
  0
LINE
  8
MY3DLAYER
10
1.21728364218539e-012
20
0.90625
30
1.00000000000103
11
0.875000000001214
21
0.906250000000665
31
1.00000000000102
  0
LINE
  8
MY3DLAYER
10
0.875000000001452
20
0.593750000000666
30
1.00000000000068
11
0.875000000001214
21
0.906250000000665
31
1.00000000000102
  0
LINE
  8
MY3DLAYER
10
1.45581203003629e-012
20
0.59375
30
1.00000000000069
11
0.875000000001452
21
0.593750000000666
31
1.00000000000068
  0
LINE
  8
MY3DLAYER
10
0.250000000005559
20
0.375000000000389
30
1.00000000000044
11
0.217647619367743
21
0.370740728286505
31
1.00000000000043
  0
LINE
  8
MY3DLAYER
10
0.282352380643373
20
0.37074072828654
30
1.00000000000043
11
0.250000000005559
21
0.375000000000389
31
1.00000000000044
  0
LINE
  8
MY3DLAYER
10
0.312500000005565
20
0.358253175473477
30
1.00000000000042
11
0.282352380643373
21
0.37074072828654
31
1.00000000000043
  0
LINE
  8
MY3DLAYER
10
0.338388347653896
20
0.338388347648755
30
1.00000000000039
11
0.312500000005565
21
0.358253175473477
31
1.00000000000042
  0
LINE
  8
MY3DLAYER
10
0.358253175478645
20
0.312500000000447
30
1.00000000000037
11
0.338388347653896
21
0.338388347648755
31
1.00000000000039
  0
LINE
  8
MY3DLAYER
10
0.37074072829174
20
0.28235238063827
30
1.00000000000033
11
0.358253175478645
21
0.312500000000447
31
1.00000000000037
  0
LINE
  8
MY3DLAYER
10
0.375000000005624
20
0.250000000000456
30
1.0000000000003
11
0.37074072829174
21
0.28235238063827
31
1.00000000000033
  0
LINE
  8
MY3DLAYER
10
0.370740728291775
20
0.217647619362639
30
1.00000000000026
11
0.375000000005624
21
0.250000000000456
31
1.0000000000003
  0
LINE
  8
MY3DLAYER
10
0.358253175478714
20
0.187500000000447
30
1.00000000000023
11
0.370740728291775
21
0.217647619362639
31
1.00000000000026
  0
LINE
  8
MY3DLAYER
10
0.338388347653985
20
0.161611652352118
30
1.0000000000002
11
0.358253175478714
21
0.187500000000447
31
1.00000000000023
  0
LINE
  8
MY3DLAYER
10
0.312500000005685
20
0.141746824527367
30
1.00000000000018
11
0.338388347653985
21
0.161611652352118
31
1.0000000000002
  0
LINE
  8
MY3DLAYER
10
0.282352380643505
20
0.129259271714273
30
1.00000000000017
11
0.312500000005685
21
0.141746824527367
31
1.00000000000018
  0
LINE
  8
MY3DLAYER
10
0.250000000005695
20
0.125000000000389
30
1.00000000000017
11
0.282352380643505
21
0.129259271714273
31
1.00000000000017
  0
LINE
  8
MY3DLAYER
10
0.217647619367875
20
0.129259271714239
30
1.00000000000017
11
0.250000000005695
21
0.125000000000389
31
1.00000000000017
  0
LINE
  8
MY3DLAYER
10
0.187500000005685
20
0.1417468245273
30
1.00000000000019
11
0.217647619367875
21
0.129259271714239
31
1.00000000000017
  0
LINE
  8
MY3DLAYER
10
0.161611652357347
20
0.161611652352023
30
1.00000000000021
11
0.187500000005685
21
0.1417468245273
31
1.00000000000019
  0
LINE
  8
MY3DLAYER
10
0.141746824532603
20
0.18750000000033
30
1.00000000000024
11
0.161611652357347
21
0.161611652352023
31
1.00000000000021
  0
LINE
  8
MY3DLAYER
10
0.129259271719509
20
0.217647619362508
30
1.00000000000027
11
0.141746824532603
21
0.18750000000033
31
1.00000000000024
  0
LINE
  8
MY3DLAYER
10
0.125000000005624
20
0.250000000000322
30
1.00000000000031
11
0.129259271719509
21
0.217647619362508
31
1.00000000000027
  0
LINE
  8
MY3DLAYER
10
0.129259271719474
20
0.282352380638139
30
1.00000000000034
11
0.125000000005624
21
0.250000000000322
31
1.00000000000031
  0
LINE
  8
MY3DLAYER
10
0.141746824532535
20
0.31250000000033
30
1.00000000000037
11
0.129259271719474
21
0.282352380638139
31
1.00000000000034
  0
LINE
  8
MY3DLAYER
10
0.161611652357258
20
0.33838834764866
30
1.0000000000004
11
0.141746824532535
21
0.31250000000033
31
1.00000000000037
  0
LINE
  8
MY3DLAYER
10
0.187500000005565
20
0.35825317547341
30
1.00000000000042
11
0.161611652357258
21
0.33838834764866
31
1.0000000000004
  0
LINE
  8
MY3DLAYER
10
0.217647619367743
20
0.370740728286505
30
1.00000000000043
11
0.187500000005565
21
0.35825317547341
31
1.00000000000042
  0
LINE
  8
MY3DLAYER
10
0.250000000004717
20
1.37500000000046
30
1.00000000000152
11
0.217647619366905
21
1.37074072828658
31
1.00000000000152
  0
LINE
  8
MY3DLAYER
10
0.282352380642535
20
1.3707407282866
30
1.00000000000152
11
0.250000000004717
21
1.37500000000046
31
1.00000000000152
  0
LINE
  8
MY3DLAYER
10
0.312500000004725
20
1.35825317547354
30
1.0000000000015
11
0.282352380642535
21
1.3707407282866
31
1.00000000000152
  0
LINE
  8
MY3DLAYER
10
0.338388347653048
20
1.33838834764881
30
1.00000000000148
11
0.312500000004725
21
1.35825317547354
31
1.0000000000015
  0
LINE
  8
MY3DLAYER
10
0.358253175477793
20
1.3125000000005
30
1.00000000000145
11
0.338388347653048
21
1.33838834764881
31
1.00000000000148
  0
LINE
  8
MY3DLAYER
10
0.370740728290888
20
1.28235238063832
30
1.00000000000142
11
0.358253175477793
21
1.3125000000005
31
1.00000000000145
  0
LINE
  8
MY3DLAYER
10
0.375000000004766
20
1.25000000000051
30
1.00000000000138
11
0.370740728290888
21
1.28235238063832
31
1.00000000000142
  0
LINE
  8
MY3DLAYER
10
0.370740728290913
20
1.21764761936269
30
1.00000000000135
11
0.375000000004766
21
1.25000000000051
31
1.00000000000138
  0
LINE
  8
MY3DLAYER
10
0.358253175477847
20
1.1875000000005
30
1.00000000000132
11
0.370740728290913
21
1.21764761936269
31
1.00000000000135
  0
LINE
  8
MY3DLAYER
10
0.338388347653124
20
1.16161165235217
30
1.00000000000129
11
0.358253175477847
21
1.1875000000005
31
1.00000000000132
  0
LINE
  8
MY3DLAYER
10
0.312500000004806
20
1.14174682452743
30
1.00000000000127
11
0.338388347653124
21
1.16161165235217
31
1.00000000000129
  0
LINE
  8
MY3DLAYER
10
0.282352380642631
20
1.12925927171434
30
1.00000000000126
11
0.312500000004806
21
1.14174682452743
31
1.00000000000127
  0
LINE
  8
MY3DLAYER
10
0.250000000004819
20
1.12500000000046
30
1.00000000000125
11
0.282352380642631
21
1.12925927171434
31
1.00000000000126
  0
LINE
  8
MY3DLAYER
10
0.217647619367001
20
1.12925927171431
30
1.00000000000126
11
0.250000000004819
21
1.12500000000046
31
1.00000000000125
  0
LINE
  8
MY3DLAYER
10
0.187500000004805
20
1.14174682452738
30
1.00000000000127
11
0.217647619367001
21
1.12925927171431
31
1.00000000000126
  0
LINE
  8
MY3DLAYER
10
0.161611652356488
20
1.1616116523521
30
1.0000000000013
11
0.187500000004805
21
1.14174682452738
31
1.00000000000127
  0
LINE
  8
MY3DLAYER
10
0.141746824531738
20
1.18750000000041
30
1.00000000000132
11
0.161611652356488
21
1.1616116523521
31
1.0000000000013
  0
LINE
  8
MY3DLAYER
10
0.129259271718647
20
1.21764761936259
30
1.00000000000136
11
0.141746824531738
21
1.18750000000041
31
1.00000000000132
  0
LINE
  8
MY3DLAYER
10
0.125000000004766
20
1.2500000000004
30
1.00000000000139
11
0.129259271718647
21
1.21764761936259
31
1.00000000000136
  0
LINE
  8
MY3DLAYER
10
0.129259271718622
20
1.28235238063822
30
1.00000000000143
11
0.125000000004766
21
1.2500000000004
31
1.00000000000139
  0
LINE
  8
MY3DLAYER
10
0.141746824531683
20
1.31250000000041
30
1.00000000000146
11
0.129259271718622
21
1.28235238063822
31
1.00000000000143
  0
LINE
  8
MY3DLAYER
10
0.161611652356412
20
1.33838834764874
30
1.00000000000149
11
0.141746824531683
21
1.31250000000041
31
1.00000000000146
  0
LINE
  8
MY3DLAYER
10
0.187500000004725
20
1.35825317547349
30
1.00000000000151
11
0.161611652356412
21
1.33838834764874
31
1.00000000000149
  0
LINE
  8
MY3DLAYER
10
0.217647619366905
20
1.37074072828658
30
1.00000000000152
11
0.187500000004725
21
1.35825317547349
31
1.00000000000151
  0
LINE
  8
MY3DLAYER
10
0.125000000000194
20
2.25000000000015
30
1.00000000000249
11
0.129259271714081
21
2.21764761936234
31
1.00000000000245
  0
LINE
  8
MY3DLAYER
10
0.129259271714039
20
2.28235238063797
30
1.00000000000252
11
0.125000000000194
21
2.25000000000015
31
1.00000000000249
  0
LINE
  8
MY3DLAYER
10
0.141746824527099
20
2.31250000000016
30
1.00000000000255
11
0.129259271714039
21
2.28235238063797
31
1.00000000000252
  0
LINE
  8
MY3DLAYER
10
0.161611652351812
20
2.33838834764849
30
1.00000000000258
11
0.141746824527099
21
2.31250000000016
31
1.00000000000255
  0
LINE
  8
MY3DLAYER
10
0.187500000000124
20
2.35825317547325
30
1.0000000000026
11
0.161611652351812
21
2.33838834764849
31
1.00000000000258
  0
LINE
  8
MY3DLAYER
10
0.2176476193623
20
2.37074072828634
30
1.00000000000262
11
0.187500000000124
21
2.35825317547325
31
1.0000000000026
  0
LINE
  8
MY3DLAYER
10
0.250000000000107
20
2.37500000000023
30
1.00000000000262
11
0.2176476193623
21
2.37074072828634
31
1.00000000000262
  0
LINE
  8
MY3DLAYER
10
0.282352380637932
20
2.37074072828639
30
1.00000000000261
11
0.250000000000107
21
2.37500000000023
31
1.00000000000262
  0
LINE
  8
MY3DLAYER
10
0.312500000000124
20
2.35825317547333
30
1.0000000000026
11
0.282352380637932
21
2.37074072828639
31
1.00000000000261
  0
LINE
  8
MY3DLAYER
10
0.33838834764845
20
2.33838834764861
30
1.00000000000258
11
0.312500000000124
21
2.35825317547333
31
1.0000000000026
  0
LINE
  8
MY3DLAYER
10
0.358253175473207
20
2.3125000000003
30
1.00000000000255
11
0.33838834764845
21
2.33838834764861
31
1.00000000000258
  0
LINE
  8
MY3DLAYER
10
0.370740728286306
20
2.28235238063812
30
1.00000000000251
11
0.358253175473207
21
2.3125000000003
31
1.00000000000255
  0
LINE
  8
MY3DLAYER
10
0.375000000000194
20
2.25000000000031
30
1.00000000000248
11
0.370740728286306
21
2.28235238063812
31
1.00000000000251
  0
LINE
  8
MY3DLAYER
10
0.370740728286348
20
2.21764761936249
30
1.00000000000244
11
0.375000000000194
21
2.25000000000031
31
1.00000000000248
  0
LINE
  8
MY3DLAYER
10
0.358253175473288
20
2.1875000000003
30
1.00000000000241
11
0.370740728286348
21
2.21764761936249
31
1.00000000000244
  0
LINE
  8
MY3DLAYER
10
0.338388347648569
20
2.16161165235197
30
1.00000000000238
11
0.358253175473288
21
2.1875000000003
31
1.00000000000241
  0
LINE
  8
MY3DLAYER
10
0.312500000000264
20
2.14174682452722
30
1.00000000000236
11
0.338388347648569
21
2.16161165235197
31
1.00000000000238
  0
LINE
  8
MY3DLAYER
10
0.282352380638086
20
2.12925927171412
30
1.00000000000235
11
0.312500000000264
21
2.14174682452722
31
1.00000000000236
  0
LINE
  8
MY3DLAYER
10
0.250000000000273
20
2.12500000000023
30
1.00000000000235
11
0.282352380638086
21
2.12925927171412
31
1.00000000000235
  0
LINE
  8
MY3DLAYER
10
0.217647619362455
20
2.12925927171408
30
1.00000000000235
11
0.250000000000273
21
2.12500000000023
31
1.00000000000235
  0
LINE
  8
MY3DLAYER
10
0.187500000000264
20
2.14174682452714
30
1.00000000000237
11
0.217647619362455
21
2.12925927171408
31
1.00000000000235
  0
LINE
  8
MY3DLAYER
10
0.161611652351931
20
2.16161165235186
30
1.00000000000239
11
0.187500000000264
21
2.14174682452714
31
1.00000000000237
  0
LINE
  8
MY3DLAYER
10
0.14174682452718
20
2.18750000000016
30
1.00000000000242
11
0.161611652351931
21
2.16161165235186
31
1.00000000000239
  0
LINE
  8
MY3DLAYER
10
0.129259271714081
20
2.21764761936234
30
1.00000000000245
11
0.14174682452718
21
2.18750000000016
31
1.00000000000242
  0
LINE
  8
MY3DLAYER
10
0.875000004041394
20
2.10212092406638
30
0.605509271715532
11
0.875000004041374
21
2.12800927171472
31
0.585644443890826
  0
LINE
  8
MY3DLAYER
10
0.87500000404141
20
2.08225609624162
30
0.631397619363827
11
0.875000004041394
21
2.10212092406638
31
0.605509271715532
  0
LINE
  8
MY3DLAYER
10
0.875000004041421
20
2.0655092717146
30
0.693897619363807
11
0.875000004041421
21
2.0697685434285
31
0.661545238725997
  0
LINE
  8
MY3DLAYER
10
0.875000004041423
20
2.06976854342842
30
0.726250000001627
11
0.875000004041421
21
2.0655092717146
31
0.693897619363807
  0
LINE
  8
MY3DLAYER
10
0.875000000001451
20
0.593750000000813
30
0.875000000000682
11
0.875000000001905
21
8.06910094297564e-013
31
0.875000000000008
  0
LINE
  8
MY3DLAYER
10
0.875000000001452
20
0.593750000000666
30
1.00000000000068
11
0.875000000001451
21
0.593750000000813
31
0.875000000000682
  0
LINE
  8
MY3DLAYER
10
0.875000000001214
20
0.906250000000665
30
1.00000000000102
11
0.875000000001214
21
0.906250000000812
31
0.875000000001049
  0
LINE
  8
MY3DLAYER
10
0.875000000000688
20
1.5937500000008
30
0.875000000001788
11
0.875000000001214
21
0.906250000000812
31
0.875000000001049
  0
LINE
  8
MY3DLAYER
10
0.875000000000688
20
1.5937500000008
30
0.875000000001788
11
0.875000000000688
21
1.59375000000065
31
1.00000000000179
  0
LINE
  8
MY3DLAYER
10
0.875000004041335
20
2.19050927171445
30
0.818897619363954
11
0.87500000404136
21
2.15815689107664
31
0.81463834765005
  0
LINE
  8
MY3DLAYER
10
0.87500000404136
20
2.15815689107664
30
0.81463834765005
11
0.875000004041383
21
2.12800927171447
31
0.802150794836936
  0
LINE
  8
MY3DLAYER
10
0.875000004041383
20
2.12800927171447
30
0.802150794836936
11
0.875000004041401
21
2.10212092406617
31
0.782285967012169
  0
LINE
  8
MY3DLAYER
10
0.875000004041401
20
2.10212092406617
30
0.782285967012169
11
0.875000004041416
21
2.08225609624147
31
0.756397619363827
  0
LINE
  8
MY3DLAYER
10
0.875000004041416
20
2.08225609624147
30
0.756397619363827
11
0.875000004041423
21
2.06976854342842
31
0.726250000001627
  0
LINE
  8
MY3DLAYER
10
0.875000004041421
20
2.0697685434285
30
0.661545238725997
11
0.87500000404141
21
2.08225609624162
31
0.631397619363827
  0
LINE
  8
MY3DLAYER
10
0.875000004041374
20
2.12800927171472
30
0.585644443890826
11
0.875000004041351
21
2.15815689107692
31
0.573156891077783
  0
LINE
  8
MY3DLAYER
10
0.875000004041351
20
2.15815689107692
30
0.573156891077783
11
0.875000004041325
21
2.19050927171474
31
0.568897619363955
  0
LINE
  8
MY3DLAYER
10
0.875000004041325
20
2.19050927171474
30
0.568897619363955
11
0.875000004041296
21
2.22286165235255
31
0.573156891077859
  0
LINE
  8
MY3DLAYER
10
0.875000004041296
20
2.22286165235255
30
0.573156891077859
11
0.875000004041274
21
2.25300927171472
31
0.585644443890973
  0
LINE
  8
MY3DLAYER
10
0.875000004041274
20
2.25300927171472
30
0.585644443890973
11
0.875000004041253
21
2.27889761936302
31
0.60550927171574
  0
LINE
  8
MY3DLAYER
10
0.875000004041253
20
2.27889761936302
30
0.60550927171574
11
0.87500000404124
21
2.29876244718773
31
0.631397619364081
  0
LINE
  8
MY3DLAYER
10
0.87500000404124
20
2.29876244718773
30
0.631397619364081
11
0.875000004041233
21
2.31125000000077
31
0.661545238726281
  0
LINE
  8
MY3DLAYER
10
0.875000004041233
20
2.31125000000077
30
0.661545238726281
11
0.875000004041223
21
2.3155092717146
31
0.693897619364102
  0
LINE
  8
MY3DLAYER
10
0.875000000001546
20
0.440509271714596
30
0.693897619361894
11
0.875000000001551
21
0.436250000000693
31
0.726249999999705
  0
LINE
  8
MY3DLAYER
10
0.875000000001551
20
0.436250000000693
30
0.726249999999705
11
0.875000000001568
21
0.423762447187578
31
0.756397619361875
  0
LINE
  8
MY3DLAYER
10
0.875000000001568
20
0.423762447187578
30
0.756397619361875
11
0.875000000001585
21
0.403897619362811
31
0.78228596701017
  0
LINE
  8
MY3DLAYER
10
0.875000000001585
20
0.403897619362811
30
0.78228596701017
11
0.875000000001605
21
0.378009271714472
31
0.802150794834876
  0
LINE
  8
MY3DLAYER
10
0.875000000001605
20
0.378009271714472
30
0.802150794834876
11
0.875000000001628
21
0.34786165235227
31
0.814638347647919
  0
LINE
  8
MY3DLAYER
10
0.875000000001628
20
0.34786165235227
30
0.814638347647919
11
0.875000000001654
21
0.31550927171445
31
0.818897619361747
  0
LINE
  8
MY3DLAYER
10
0.875000000001654
20
0.31550927171445
30
0.818897619361747
11
0.875000000001671
21
0.28315689107664
31
0.814638347647843
  0
LINE
  8
MY3DLAYER
10
0.875000000001671
20
0.28315689107664
30
0.814638347647843
11
0.875000000001695
21
0.253009271714473
31
0.802150794834729
  0
LINE
  8
MY3DLAYER
10
0.87500000000172
20
0.227120924066174
30
0.782285967009962
11
0.875000000001728
21
0.207256096241469
31
0.75639761936162
  0
LINE
  8
MY3DLAYER
10
0.875000000001728
20
0.207256096241469
30
0.75639761936162
11
0.875000000001735
21
0.194768543428426
31
0.72624999999942
  0
LINE
  8
MY3DLAYER
10
0.875000000001735
20
0.194768543428426
30
0.72624999999942
11
0.875000000001739
21
0.190509271714597
31
0.6938976193616
  0
LINE
  8
MY3DLAYER
10
0.875000000001739
20
0.190509271714597
30
0.6938976193616
11
0.875000000001734
21
0.194768543428501
31
0.66154523872379
  0
LINE
  8
MY3DLAYER
10
0.875000000001734
20
0.194768543428501
30
0.66154523872379
11
0.875000000001722
21
0.207256096241617
31
0.63139761936162
  0
LINE
  8
MY3DLAYER
10
0.875000000001722
20
0.207256096241617
30
0.63139761936162
11
0.875000000001712
21
0.227120924066383
31
0.605509271713325
  0
LINE
  8
MY3DLAYER
10
0.875000000001712
20
0.227120924066383
30
0.605509271713325
11
0.875000000001686
21
0.253009271714725
31
0.585644443888619
  0
LINE
  8
MY3DLAYER
10
0.875000000001686
20
0.253009271714725
30
0.585644443888619
11
0.875000000001663
21
0.283156891076924
31
0.573156891075575
  0
LINE
  8
MY3DLAYER
10
0.875000000001663
20
0.283156891076924
30
0.573156891075575
11
0.875000000001643
21
0.315509271714745
31
0.568897619361747
  0
LINE
  8
MY3DLAYER
10
0.875000000001643
20
0.315509271714745
30
0.568897619361747
11
0.875000000001619
21
0.347861652352554
31
0.573156891075652
  0
LINE
  8
MY3DLAYER
10
0.875000000001619
20
0.347861652352554
30
0.573156891075652
11
0.875000000001596
21
0.378009271714726
31
0.585644443888766
  0
LINE
  8
MY3DLAYER
10
0.875000000001596
20
0.378009271714726
30
0.585644443888766
11
0.875000000001578
21
0.40389761936302
31
0.605509271713533
  0
LINE
  8
MY3DLAYER
10
0.875000000001578
20
0.40389761936302
30
0.605509271713533
11
0.875000000001561
21
0.423762447187726
31
0.631397619361875
  0
LINE
  8
MY3DLAYER
10
0.875000000001561
20
0.423762447187726
30
0.631397619361875
11
0.875000000001549
21
0.436250000000769
31
0.661545238724074
  0
LINE
  8
MY3DLAYER
10
1.9046638926964e-012
20
1.37667655053519e-013
30
0.875000000000044
11
1.45403567319682e-012
21
0.593750000000147
31
0.875000000000688
  0
LINE
  8
MY3DLAYER
10
0.250000000005554
20
0.375000000000524
30
0.875000000000547
11
0.217647619367738
21
0.370740728286639
31
0.875000000000544
  0
LINE
  8
MY3DLAYER
10
0.282352380643368
20
0.370740728286675
30
0.875000000000541
11
0.250000000005554
21
0.375000000000524
31
0.875000000000547
  0
LINE
  8
MY3DLAYER
10
-1.04964319520067e-017
20
2.50000000000013
30
0.875000000002754
11
0.874999999999998
21
2.5000000000008
31
0.875000000002718
  0
LINE
  8
MY3DLAYER
10
-1.04964319520067e-017
20
2.50000000000013
30
0.875000000002754
11
3.54221724690448e-015
21
2.49999999999999
31
1.00000000000275
  0
LINE
  8
MY3DLAYER
10
0.999999999999975
20
2.50000000000185
30
2.72848410531878e-012
11
1.00000000000001
21
2.50000000000076
31
1.00000000000273
  0
LINE
  8
MY3DLAYER
10
0.37074072829177
20
0.217647619362773
30
0.875000000000371
11
0.375000000005619
21
0.250000000000592
31
0.875000000000406
  0
LINE
  8
MY3DLAYER
10
0.358253175478708
20
0.187500000000583
30
0.875000000000339
11
0.37074072829177
21
0.217647619362773
31
0.875000000000371
  0
LINE
  8
MY3DLAYER
10
0.33838834765398
20
0.161611652352253
30
0.875000000000312
11
0.358253175478708
21
0.187500000000583
31
0.875000000000339
  0
LINE
  8
MY3DLAYER
10
0.31250000000568
20
0.141746824527503
30
0.875000000000292
11
0.33838834765398
21
0.161611652352253
31
0.875000000000312
  0
LINE
  8
MY3DLAYER
10
0.2823523806435
20
0.129259271714408
30
0.875000000000279
11
0.31250000000568
21
0.141746824527503
31
0.875000000000292
  0
LINE
  8
MY3DLAYER
10
0.250000000005689
20
0.125000000000524
30
0.875000000000276
11
0.2823523806435
21
0.129259271714408
31
0.875000000000279
  0
LINE
  8
MY3DLAYER
10
0.21764761936787
20
0.129259271714372
30
0.875000000000282
11
0.250000000005689
21
0.125000000000524
31
0.875000000000276
  0
LINE
  8
MY3DLAYER
10
1.45403567319682e-012
20
0.593750000000147
30
0.875000000000688
11
0.875000000001451
21
0.593750000000813
31
0.875000000000682
  0
LINE
  8
MY3DLAYER
10
0.31250000000556
20
0.358253175473612
30
0.875000000000526
11
0.282352380643368
21
0.370740728286675
31
0.875000000000541
  0
LINE
  8
MY3DLAYER
10
0.338388347653891
20
0.338388347648889
30
0.875000000000503
11
0.31250000000556
21
0.358253175473612
31
0.875000000000526
  0
LINE
  8
MY3DLAYER
10
0.35825317547864
20
0.312500000000582
30
0.875000000000475
11
0.338388347653891
21
0.338388347648889
31
0.875000000000503
  0
LINE
  8
MY3DLAYER
10
0.370740728291735
20
0.282352380638403
30
0.875000000000441
11
0.35825317547864
21
0.312500000000582
31
0.875000000000475
  0
LINE
  8
MY3DLAYER
10
0.375000000005619
20
0.250000000000592
30
0.875000000000406
11
0.370740728291735
21
0.282352380638403
31
0.875000000000441
  0
LINE
  8
MY3DLAYER
10
0.18750000000568
20
0.141746824527435
30
0.875000000000297
11
0.21764761936787
21
0.129259271714372
31
0.875000000000282
  0
LINE
  8
MY3DLAYER
10
0.161611652357341
20
0.161611652352159
30
0.875000000000319
11
0.18750000000568
21
0.141746824527435
31
0.875000000000297
  0
LINE
  8
MY3DLAYER
10
0.141746824532598
20
0.187500000000465
30
0.875000000000348
11
0.161611652357341
21
0.161611652352159
31
0.875000000000319
  0
LINE
  8
MY3DLAYER
10
0.129259271719503
20
0.217647619362642
30
0.875000000000381
11
0.141746824532598
21
0.187500000000465
31
0.875000000000348
  0
LINE
  8
MY3DLAYER
10
0.125000000005619
20
0.250000000000455
30
0.875000000000417
11
0.129259271719503
21
0.217647619362642
31
0.875000000000381
  0
LINE
  8
MY3DLAYER
10
0.129259271719468
20
0.282352380638272
30
0.875000000000451
11
0.125000000005619
21
0.250000000000455
31
0.875000000000417
  0
LINE
  8
MY3DLAYER
10
0.14174682453253
20
0.312500000000465
30
0.875000000000483
11
0.129259271719468
21
0.282352380638272
31
0.875000000000451
  0
LINE
  8
MY3DLAYER
10
0.161611652357252
20
0.338388347648794
30
0.875000000000511
11
0.14174682453253
21
0.312500000000465
31
0.875000000000483
  0
LINE
  8
MY3DLAYER
10
0.18750000000556
20
0.358253175473545
30
0.875000000000531
11
0.161611652357252
21
0.338388347648794
31
0.875000000000511
  0
LINE
  8
MY3DLAYER
10
0.217647619367738
20
0.370740728286639
30
0.875000000000544
11
0.18750000000556
21
0.358253175473545
31
0.875000000000531
  0
LINE
  8
MY3DLAYER
10
1.00000000404124
20
2.31125000000079
30
0.726250000001906
11
1.00000000404125
21
2.29876244718767
31
0.756397619364077
  0
LINE
  8
MY3DLAYER
10
1.00000000000186
20
1.84563475613686e-012
30
0.0
11
0.999999999999975
21
2.50000000000185
31
2.72848410531878e-012
  0
LINE
  8
MY3DLAYER
10
1.00000000404124
20
2.31125000000079
30
0.726250000001906
11
0.875000004041236
21
2.31125000000069
31
0.726250000001911
  0
LINE
  8
MY3DLAYER
10
1.00000000404123
20
2.31550927171469
30
0.693897619364096
11
0.875000004041223
21
2.3155092717146
31
0.693897619364102
  0
LINE
  8
MY3DLAYER
10
1.00000000404123
20
2.31550927171469
30
0.693897619364096
11
1.00000000404124
21
2.31125000000079
31
0.726250000001906
  0
LINE
  8
MY3DLAYER
10
1.00000000404125
20
2.29876244718767
30
0.756397619364077
11
0.875000004041246
21
2.29876244718758
31
0.756397619364082
  0
LINE
  8
MY3DLAYER
10
1.00000000404266
20
0.440509271714691
30
0.693897619361889
11
1.00000000404266
21
0.436250000000787
31
0.726249999999699
  0
LINE
  8
MY3DLAYER
10
1.00000000404266
20
0.43625000000086
30
0.661545238724069
11
1.00000000404266
21
0.440509271714691
31
0.693897619361889
  0
LINE
  8
MY3DLAYER
10
1.00000000404267
20
0.423762447187819
30
0.63139761936187
11
1.00000000404266
21
0.43625000000086
31
0.661545238724069
  0
LINE
  8
MY3DLAYER
10
1.00000000404269
20
0.403897619363113
30
0.605509271713528
11
1.00000000404267
21
0.423762447187819
31
0.63139761936187
  0
LINE
  8
MY3DLAYER
10
1.0000000040427
20
0.378009271714819
30
0.585644443888761
11
1.00000000404269
21
0.403897619363113
31
0.605509271713528
  0
LINE
  8
MY3DLAYER
10
1.00000000404273
20
0.347861652352646
30
0.573156891075647
11
1.0000000040427
21
0.378009271714819
31
0.585644443888761
  0
LINE
  8
MY3DLAYER
10
1.00000000404275
20
0.315509271714838
30
0.568897619361742
11
1.00000000404273
21
0.347861652352646
31
0.573156891075647
  0
LINE
  8
MY3DLAYER
10
1.45581203003629e-012
20
0.59375
30
1.00000000000069
11
1.45403567319682e-012
21
0.593750000000147
31
0.875000000000688
  0
LINE
  8
MY3DLAYER
10
1.00000000404277
20
0.283156891077016
30
0.57315689107557
11
1.00000000404275
21
0.315509271714838
31
0.568897619361742
  0
LINE
  8
MY3DLAYER
10
1.00000000404279
20
0.253009271714819
30
0.585644443888614
11
1.00000000404277
21
0.283156891077016
31
0.57315689107557
  0
LINE
  8
MY3DLAYER
10
1.00000000404282
20
0.227120924066477
30
0.60550927171332
11
1.00000000404279
21
0.253009271714819
31
0.585644443888614
  0
LINE
  8
MY3DLAYER
10
1.00000000404283
20
0.207256096241709
30
0.631397619361615
11
1.00000000404282
21
0.227120924066477
31
0.60550927171332
  0
LINE
  8
MY3DLAYER
10
1.00000000404284
20
0.194768543428594
30
0.661545238723785
11
1.00000000404283
21
0.207256096241709
31
0.631397619361615
  0
LINE
  8
MY3DLAYER
10
1.00000000404285
20
0.190509271714689
30
0.693897619361595
11
1.00000000404284
21
0.194768543428594
31
0.661545238723785
  0
LINE
  8
MY3DLAYER
10
1.00000000404284
20
0.19476854342852
30
0.726249999999415
11
1.00000000404285
21
0.190509271714689
31
0.693897619361595
  0
LINE
  8
MY3DLAYER
10
1.00000000404284
20
0.207256096241563
30
0.756397619361615
11
1.00000000404284
21
0.19476854342852
31
0.726249999999415
  0
LINE
  8
MY3DLAYER
10
1.00000000404283
20
0.227120924066266
30
0.782285967009957
11
1.00000000404284
21
0.207256096241563
31
0.756397619361615
  0
LINE
  8
MY3DLAYER
10
1.0000000040428
20
0.253009271714566
30
0.802150794834724
11
1.00000000404283
21
0.227120924066266
31
0.782285967009957
  0
LINE
  8
MY3DLAYER
10
1.00000000404278
20
0.283156891076732
30
0.814638347647838
11
1.0000000040428
21
0.253009271714566
31
0.802150794834724
  0
LINE
  8
MY3DLAYER
10
1.00000000404276
20
0.315509271714544
30
0.818897619361742
11
1.00000000404278
21
0.283156891076732
31
0.814638347647838
  0
LINE
  8
MY3DLAYER
10
1.00000000404274
20
0.347861652352362
30
0.814638347647914
11
1.00000000404276
21
0.315509271714544
31
0.818897619361742
  0
LINE
  8
MY3DLAYER
10
1.00000000404271
20
0.378009271714565
30
0.80215079483487
11
1.00000000404274
21
0.347861652352362
31
0.814638347647914
  0
LINE
  8
MY3DLAYER
10
1.00000000404269
20
0.403897619362903
30
0.782285967010164
11
1.00000000404271
21
0.378009271714565
31
0.80215079483487
  0
LINE
  8
MY3DLAYER
10
1.00000000404267
20
0.423762447187673
30
0.75639761936187
11
1.00000000404269
21
0.403897619362903
31
0.782285967010164
  0
LINE
  8
MY3DLAYER
10
1.00000000404266
20
0.436250000000787
30
0.726249999999699
11
1.00000000404267
21
0.423762447187673
31
0.75639761936187
  0
LINE
  8
MY3DLAYER
10
1.00000000404123
20
2.31125000000086
30
0.661545238726276
11
1.00000000404123
21
2.31550927171469
31
0.693897619364096
  0
LINE
  8
MY3DLAYER
10
1.00000000404124
20
2.29876244718782
30
0.631397619364076
11
1.00000000404123
21
2.31125000000086
31
0.661545238726276
  0
LINE
  8
MY3DLAYER
10
1.00000000404125
20
2.27889761936311
30
0.605509271715735
11
1.00000000404124
21
2.29876244718782
31
0.631397619364076
  0
LINE
  8
MY3DLAYER
10
1.00000000404127
20
2.25300927171482
30
0.585644443890968
11
1.00000000404125
21
2.27889761936311
31
0.605509271715735
  0
LINE
  8
MY3DLAYER
10
1.0000000040413
20
2.22286165235265
30
0.573156891077853
11
1.00000000404127
21
2.25300927171482
31
0.585644443890968
  0
LINE
  8
MY3DLAYER
10
1.00000000404132
20
2.19050927171484
30
0.568897619363949
11
1.0000000040413
21
2.22286165235265
31
0.573156891077853
  0
LINE
  8
MY3DLAYER
10
1.00000000404135
20
2.15815689107702
30
0.573156891077778
11
1.00000000404132
21
2.19050927171484
31
0.568897619363949
  0
LINE
  8
MY3DLAYER
10
1.00000000404137
20
2.12800927171482
30
0.585644443890821
11
1.00000000404135
21
2.15815689107702
31
0.573156891077778
  0
LINE
  8
MY3DLAYER
10
1.00000000404139
20
2.10212092406648
30
0.605509271715526
11
1.00000000404137
21
2.12800927171482
31
0.585644443890821
  0
LINE
  8
MY3DLAYER
10
1.00000000404141
20
2.08225609624171
30
0.631397619363822
11
1.00000000404139
21
2.10212092406648
31
0.605509271715526
  0
LINE
  8
MY3DLAYER
10
1.00000000404142
20
2.0697685434286
30
0.661545238725992
11
1.00000000404141
21
2.08225609624171
31
0.631397619363822
  0
LINE
  8
MY3DLAYER
10
1.00000000404142
20
2.06550927171469
30
0.693897619363802
11
1.00000000404142
21
2.0697685434286
31
0.661545238725992
  0
LINE
  8
MY3DLAYER
10
1.00000000404142
20
2.06976854342852
30
0.726250000001622
11
1.00000000404142
21
2.06550927171469
31
0.693897619363802
  0
LINE
  8
MY3DLAYER
10
1.00000000404142
20
2.08225609624156
30
0.756397619363822
11
1.00000000404142
21
2.06976854342852
31
0.726250000001622
  0
LINE
  8
MY3DLAYER
10
1.0000000040414
20
2.10212092406627
30
0.782285967012163
11
1.00000000404142
21
2.08225609624156
31
0.756397619363822
  0
LINE
  8
MY3DLAYER
10
1.00000000404138
20
2.12800927171456
30
0.80215079483693
11
1.0000000040414
21
2.10212092406627
31
0.782285967012163
  0
LINE
  8
MY3DLAYER
10
1.00000000404136
20
2.15815689107674
30
0.814638347650044
11
1.00000000404138
21
2.12800927171456
31
0.80215079483693
  0
LINE
  8
MY3DLAYER
10
1.00000000404134
20
2.19050927171455
30
0.818897619363949
11
1.00000000404136
21
2.15815689107674
31
0.814638347650044
  0
LINE
  8
MY3DLAYER
10
1.00000000404131
20
2.22286165235237
30
0.814638347650121
11
1.00000000404134
21
2.19050927171455
31
0.818897619363949
  0
LINE
  8
MY3DLAYER
10
1.00000000404128
20
2.25300927171457
30
0.802150794837077
11
1.00000000404131
21
2.22286165235237
31
0.814638347650121
  0
LINE
  8
MY3DLAYER
10
1.00000000404126
20
2.27889761936291
30
0.782285967012371
11
1.00000000404128
21
2.25300927171457
31
0.802150794837077
  0
LINE
  8
MY3DLAYER
10
1.00000000404125
20
2.29876244718767
30
0.756397619364077
11
1.00000000404126
21
2.27889761936291
31
0.782285967012371
  0
LINE
  8
MY3DLAYER
10
1.00000000404126
20
2.27889761936291
30
0.782285967012371
11
0.87500000404126
21
2.27889761936281
31
0.782285967012377
  0
LINE
  8
MY3DLAYER
10
1.00000000404128
20
2.25300927171457
30
0.802150794837077
11
0.875000004041282
21
2.25300927171447
31
0.802150794837082
  0
LINE
  8
MY3DLAYER
10
1.00000000404131
20
2.22286165235237
30
0.814638347650121
11
0.875000004041305
21
2.22286165235227
31
0.814638347650126
  0
LINE
  8
MY3DLAYER
10
1.00000000404134
20
2.19050927171455
30
0.818897619363949
11
0.875000004041335
21
2.19050927171445
31
0.818897619363954
  0
LINE
  8
MY3DLAYER
10
1.00000000404136
20
2.15815689107674
30
0.814638347650044
11
0.87500000404136
21
2.15815689107664
31
0.81463834765005
  0
LINE
  8
MY3DLAYER
10
1.00000000404138
20
2.12800927171456
30
0.80215079483693
11
0.875000004041383
21
2.12800927171447
31
0.802150794836936
  0
LINE
  8
MY3DLAYER
10
1.0000000040414
20
2.10212092406627
30
0.782285967012163
11
0.875000004041401
21
2.10212092406617
31
0.782285967012169
  0
LINE
  8
MY3DLAYER
10
1.00000000404142
20
2.08225609624156
30
0.756397619363822
11
0.875000004041416
21
2.08225609624147
31
0.756397619363827
  0
LINE
  8
MY3DLAYER
10
1.00000000404142
20
2.06976854342852
30
0.726250000001622
11
0.875000004041423
21
2.06976854342842
31
0.726250000001627
  0
LINE
  8
MY3DLAYER
10
0.375000000004763
20
1.25000000000064
30
0.875000000001302
11
0.370740728290885
21
1.28235238063846
31
0.875000000001337
  0
LINE
  8
MY3DLAYER
10
0.370740728290885
20
1.28235238063846
30
0.875000000001337
11
0.35825317547779
21
1.31250000000064
31
0.87500000000137
  0
LINE
  8
MY3DLAYER
10
0.35825317547779
20
1.31250000000064
30
0.87500000000137
11
0.338388347653045
21
1.33838834764895
31
0.875000000001399
  0
LINE
  8
MY3DLAYER
10
0.338388347653045
20
1.33838834764895
30
0.875000000001399
11
0.312500000004721
21
1.35825317547367
31
0.875000000001422
  0
LINE
  8
MY3DLAYER
10
0.312500000004721
20
1.35825317547367
30
0.875000000001422
11
0.282352380642531
21
1.37074072828674
31
0.875000000001437
  0
LINE
  8
MY3DLAYER
10
0.282352380642531
20
1.37074072828674
30
0.875000000001437
11
0.250000000004714
21
1.37500000000059
31
0.875000000001442
  0
LINE
  8
MY3DLAYER
10
0.217647619367738
20
0.370740728286639
30
0.875000000000544
11
0.217647619367743
21
0.370740728286505
31
1.00000000000043
  0
LINE
  8
MY3DLAYER
10
0.250000000005554
20
0.375000000000524
30
0.875000000000547
11
0.250000000005559
21
0.375000000000389
31
1.00000000000044
  0
LINE
  8
MY3DLAYER
10
0.18750000000556
20
0.358253175473545
30
0.875000000000531
11
0.187500000005565
21
0.35825317547341
31
1.00000000000042
  0
LINE
  8
MY3DLAYER
10
0.161611652357252
20
0.338388347648794
30
0.875000000000511
11
0.161611652357258
21
0.33838834764866
31
1.0000000000004
  0
LINE
  8
MY3DLAYER
10
1.00000000404135
20
2.15815689107702
30
0.573156891077778
11
0.875000004041351
21
2.15815689107692
31
0.573156891077783
  0
LINE
  8
MY3DLAYER
10
1.00000000404137
20
2.12800927171482
30
0.585644443890821
11
0.875000004041374
21
2.12800927171472
31
0.585644443890826
  0
LINE
  8
MY3DLAYER
10
1.00000000404132
20
2.19050927171484
30
0.568897619363949
11
0.875000004041325
21
2.19050927171474
31
0.568897619363955
  0
LINE
  8
MY3DLAYER
10
1.0000000040413
20
2.22286165235265
30
0.573156891077853
11
0.875000004041296
21
2.22286165235255
31
0.573156891077859
  0
LINE
  8
MY3DLAYER
10
1.00000000404127
20
2.25300927171482
30
0.585644443890968
11
0.875000004041274
21
2.25300927171472
31
0.585644443890973
  0
LINE
  8
MY3DLAYER
10
1.00000000404125
20
2.27889761936311
30
0.605509271715735
11
0.875000004041253
21
2.27889761936302
31
0.60550927171574
  0
LINE
  8
MY3DLAYER
10
1.00000000404124
20
2.29876244718782
30
0.631397619364076
11
0.87500000404124
21
2.29876244718773
31
0.631397619364081
  0
LINE
  8
MY3DLAYER
10
1.00000000404142
20
2.06550927171469
30
0.693897619363802
11
0.875000004041421
21
2.0655092717146
31
0.693897619363807
  0
LINE
  8
MY3DLAYER
10
1.00000000404142
20
2.0697685434286
30
0.661545238725992
11
0.875000004041421
21
2.0697685434285
31
0.661545238725997
  0
LINE
  8
MY3DLAYER
10
1.00000000404141
20
2.08225609624171
30
0.631397619363822
11
0.87500000404141
21
2.08225609624162
31
0.631397619363827
  0
LINE
  8
MY3DLAYER
10
1.00000000404139
20
2.10212092406648
30
0.605509271715526
11
0.875000004041394
21
2.10212092406638
31
0.605509271715532
  0
LINE
  8
MY3DLAYER
10
1.00000000404269
20
0.403897619362903
30
0.782285967010164
11
0.875000000001585
21
0.403897619362811
31
0.78228596701017
  0
LINE
  8
MY3DLAYER
10
1.00000000404267
20
0.423762447187673
30
0.75639761936187
11
0.875000000001568
21
0.423762447187578
31
0.756397619361875
  0
LINE
  8
MY3DLAYER
10
1.00000000404271
20
0.378009271714565
30
0.80215079483487
11
0.875000000001605
21
0.378009271714472
31
0.802150794834876
  0
LINE
  8
MY3DLAYER
10
1.00000000404274
20
0.347861652352362
30
0.814638347647914
11
0.875000000001628
21
0.34786165235227
31
0.814638347647919
  0
LINE
  8
MY3DLAYER
10
1.00000000404276
20
0.315509271714544
30
0.818897619361742
11
0.875000000001654
21
0.31550927171445
31
0.818897619361747
  0
LINE
  8
MY3DLAYER
10
1.00000000404278
20
0.283156891076732
30
0.814638347647838
11
0.875000000001671
21
0.28315689107664
31
0.814638347647843
  0
LINE
  8
MY3DLAYER
10
1.0000000040428
20
0.253009271714566
30
0.802150794834724
11
0.875000000001695
21
0.253009271714473
31
0.802150794834729
  0
LINE
  8
MY3DLAYER
10
1.00000000404123
20
2.31125000000086
30
0.661545238726276
11
0.875000004041233
21
2.31125000000077
31
0.661545238726281
  0
LINE
  8
MY3DLAYER
10
1.00000000404285
20
0.190509271714689
30
0.693897619361595
11
0.875000000001739
21
0.190509271714597
31
0.6938976193616
  0
LINE
  8
MY3DLAYER
10
1.00000000404284
20
0.19476854342852
30
0.726249999999415
11
0.875000000001735
21
0.194768543428426
31
0.72624999999942
  0
LINE
  8
MY3DLAYER
10
1.00000000404284
20
0.194768543428594
30
0.661545238723785
11
0.875000000001734
21
0.194768543428501
31
0.66154523872379
  0
LINE
  8
MY3DLAYER
10
1.00000000404283
20
0.207256096241709
30
0.631397619361615
11
0.875000000001722
21
0.207256096241617
31
0.63139761936162
  0
LINE
  8
MY3DLAYER
10
1.00000000404282
20
0.227120924066477
30
0.60550927171332
11
0.875000000001712
21
0.227120924066383
31
0.605509271713325
  0
LINE
  8
MY3DLAYER
10
1.00000000404279
20
0.253009271714819
30
0.585644443888614
11
0.875000000001686
21
0.253009271714725
31
0.585644443888619
  0
LINE
  8
MY3DLAYER
10
1.00000000404277
20
0.283156891077016
30
0.57315689107557
11
0.875000000001663
21
0.283156891076924
31
0.573156891075575
  0
LINE
  8
MY3DLAYER
10
1.00000000404275
20
0.315509271714838
30
0.568897619361742
11
0.875000000001643
21
0.315509271714745
31
0.568897619361747
  0
LINE
  8
MY3DLAYER
10
1.00000000404266
20
0.436250000000787
30
0.726249999999699
11
0.875000000001551
21
0.436250000000693
31
0.726249999999705
  0
LINE
  8
MY3DLAYER
10
1.00000000404266
20
0.440509271714691
30
0.693897619361889
11
0.875000000001546
21
0.440509271714596
31
0.693897619361894
  0
LINE
  8
MY3DLAYER
10
1.00000000404283
20
0.227120924066266
30
0.782285967009957
11
0.87500000000172
21
0.227120924066174
31
0.782285967009962
  0
LINE
  8
MY3DLAYER
10
1.00000000404267
20
0.423762447187819
30
0.63139761936187
11
0.875000000001561
21
0.423762447187726
31
0.631397619361875
  0
LINE
  8
MY3DLAYER
10
1.00000000404269
20
0.403897619363113
30
0.605509271713528
11
0.875000000001578
21
0.40389761936302
31
0.605509271713533
  0
LINE
  8
MY3DLAYER
10
1.00000000404266
20
0.43625000000086
30
0.661545238724069
11
0.875000000001549
21
0.436250000000769
31
0.661545238724074
  0
LINE
  8
MY3DLAYER
10
0.250000000004714
20
1.37500000000059
30
0.875000000001442
11
0.217647619366901
21
1.37074072828671
31
0.875000000001439
  0
LINE
  8
MY3DLAYER
10
0.217647619366901
20
1.37074072828671
30
0.875000000001439
11
0.187500000004721
21
1.35825317547362
31
0.875000000001427
  0
LINE
  8
MY3DLAYER
10
0.187500000004721
20
1.35825317547362
30
0.875000000001427
11
0.161611652356408
21
1.33838834764887
31
0.875000000001406
  0
LINE
  8
MY3DLAYER
10
0.161611652356408
20
1.33838834764887
30
0.875000000001406
11
0.141746824531679
21
1.31250000000055
31
0.875000000001379
  0
LINE
  8
MY3DLAYER
10
0.141746824531679
20
1.31250000000055
30
0.875000000001379
11
0.129259271718618
21
1.28235238063836
31
0.875000000001347
  0
LINE
  8
MY3DLAYER
10
0.312500000004802
20
1.14174682452756
30
0.875000000001187
11
0.338388347653121
21
1.16161165235231
31
0.875000000001207
  0
LINE
  8
MY3DLAYER
10
0.187500000004801
20
1.14174682452751
30
0.875000000001192
11
0.217647619366998
21
1.12925927171445
31
0.875000000001177
  0
LINE
  8
MY3DLAYER
10
0.217647619366998
20
1.12925927171445
30
0.875000000001177
11
0.250000000004815
21
1.12500000000059
31
0.875000000001172
  0
LINE
  8
MY3DLAYER
10
0.250000000004815
20
1.12500000000059
30
0.875000000001172
11
0.282352380642628
21
1.12925927171447
31
0.875000000001175
  0
LINE
  8
MY3DLAYER
10
0.282352380642628
20
1.12925927171447
30
0.875000000001175
11
0.312500000004802
21
1.14174682452756
31
0.875000000001187
  0
LINE
  8
MY3DLAYER
10
0.338388347653121
20
1.16161165235231
30
0.875000000001207
11
0.358253175477843
21
1.18750000000064
31
0.875000000001235
  0
LINE
  8
MY3DLAYER
10
0.358253175477843
20
1.18750000000064
30
0.875000000001235
11
0.37074072829091
21
1.21764761936283
31
0.875000000001267
  0
LINE
  8
MY3DLAYER
10
0.37074072829091
20
1.21764761936283
30
0.875000000001267
11
0.375000000004763
21
1.25000000000064
31
0.875000000001302
  0
LINE
  8
MY3DLAYER
10
1.00000000404284
20
0.207256096241563
30
0.756397619361615
11
0.875000000001728
21
0.207256096241469
31
0.75639761936162
  0
LINE
  8
MY3DLAYER
10
0.31250000000556
20
0.358253175473612
30
0.875000000000526
11
0.312500000005565
21
0.358253175473477
31
1.00000000000042
  0
LINE
  8
MY3DLAYER
10
0.338388347653891
20
0.338388347648889
30
0.875000000000503
11
0.338388347653896
21
0.338388347648755
31
1.00000000000039
  0
LINE
  8
MY3DLAYER
10
0.282352380643368
20
0.370740728286675
30
0.875000000000541
11
0.282352380643373
21
0.37074072828654
31
1.00000000000043
  0
LINE
  8
MY3DLAYER
10
0.217647619366901
20
1.37074072828671
30
0.875000000001439
11
0.217647619366905
21
1.37074072828658
31
1.00000000000152
  0
LINE
  8
MY3DLAYER
10
0.250000000004714
20
1.37500000000059
30
0.875000000001442
11
0.250000000004717
21
1.37500000000046
31
1.00000000000152
  0
LINE
  8
MY3DLAYER
10
0.125000000005619
20
0.250000000000455
30
0.875000000000417
11
0.125000000005624
21
0.250000000000322
31
1.00000000000031
  0
LINE
  8
MY3DLAYER
10
0.129259271719468
20
0.282352380638272
30
0.875000000000451
11
0.129259271719474
21
0.282352380638139
31
1.00000000000034
  0
LINE
  8
MY3DLAYER
10
0.129259271719503
20
0.217647619362642
30
0.875000000000381
11
0.129259271719509
21
0.217647619362508
31
1.00000000000027
  0
LINE
  8
MY3DLAYER
10
0.141746824532598
20
0.187500000000465
30
0.875000000000348
11
0.141746824532603
21
0.18750000000033
31
1.00000000000024
  0
LINE
  8
MY3DLAYER
10
1.00000000404273
20
0.347861652352646
30
0.573156891075647
11
0.875000000001619
21
0.347861652352554
31
0.573156891075652
  0
LINE
  8
MY3DLAYER
10
1.0000000040427
20
0.378009271714819
30
0.585644443888761
11
0.875000000001596
21
0.378009271714726
31
0.585644443888766
  0
LINE
  8
MY3DLAYER
10
6.91810646177615e-013
20
1.59375000000013
30
0.875000000001788
11
6.91810646177679e-013
21
1.59374999999998
31
1.00000000000179
  0
LINE
  8
MY3DLAYER
10
4.52394079907019e-013
20
1.90625000000013
30
0.875000000002121
11
4.52394079907084e-013
21
1.90624999999998
31
1.00000000000212
  0
LINE
  8
MY3DLAYER
10
4.52394079907019e-013
20
1.90625000000013
30
0.875000000002121
11
0.875000000000449
21
1.9062500000008
31
0.875000000002121
  0
LINE
  8
MY3DLAYER
10
4.52394079907019e-013
20
1.90625000000013
30
0.875000000002121
11
-1.04964319520067e-017
21
2.50000000000013
31
0.875000000002754
  0
LINE
  8
MY3DLAYER
10
0.12500000000019
20
2.25000000000029
30
0.875000000002487
11
0.129259271714078
21
2.21764761936248
31
0.875000000002452
  0
LINE
  8
MY3DLAYER
10
0.129259271714036
20
2.28235238063811
30
0.875000000002522
11
0.12500000000019
21
2.25000000000029
31
0.875000000002487
  0
LINE
  8
MY3DLAYER
10
0.141746824527095
20
2.3125000000003
30
0.875000000002555
11
0.129259271714036
21
2.28235238063811
31
0.875000000002522
  0
LINE
  8
MY3DLAYER
10
0.161611652351808
20
2.33838834764863
30
0.875000000002582
11
0.141746824527095
21
2.3125000000003
31
0.875000000002555
  0
LINE
  8
MY3DLAYER
10
0.18750000000012
20
2.35825317547338
30
0.875000000002603
11
0.161611652351808
21
2.33838834764863
31
0.875000000002582
  0
LINE
  8
MY3DLAYER
10
0.217647619362297
20
2.37074072828648
30
0.875000000002615
11
0.18750000000012
21
2.35825317547338
31
0.875000000002603
  0
LINE
  8
MY3DLAYER
10
0.250000000000103
20
2.37500000000037
30
0.875000000002619
11
0.217647619362297
21
2.37074072828648
31
0.875000000002615
  0
LINE
  8
MY3DLAYER
10
0.282352380637928
20
2.37074072828652
30
0.875000000002613
11
0.250000000000103
21
2.37500000000037
31
0.875000000002619
  0
LINE
  8
MY3DLAYER
10
0.31250000000012
20
2.35825317547346
30
0.875000000002598
11
0.282352380637928
21
2.37074072828652
31
0.875000000002613
  0
LINE
  8
MY3DLAYER
10
0.338388347648447
20
2.33838834764874
30
0.875000000002576
11
0.31250000000012
21
2.35825317547346
31
0.875000000002598
  0
LINE
  8
MY3DLAYER
10
0.358253175473204
20
2.31250000000044
30
0.875000000002547
11
0.338388347648447
21
2.33838834764874
31
0.875000000002576
  0
LINE
  8
MY3DLAYER
10
0.370740728286302
20
2.28235238063826
30
0.875000000002513
11
0.358253175473204
21
2.31250000000044
31
0.875000000002547
  0
LINE
  8
MY3DLAYER
10
0.37500000000019
20
2.25000000000045
30
0.875000000002478
11
0.370740728286302
21
2.28235238063826
31
0.875000000002513
  0
LINE
  8
MY3DLAYER
10
0.370740728286344
20
2.21764761936263
30
0.875000000002443
11
0.37500000000019
21
2.25000000000045
31
0.875000000002478
  0
LINE
  8
MY3DLAYER
10
0.358253175473285
20
2.18750000000044
30
0.875000000002411
11
0.370740728286344
21
2.21764761936263
31
0.875000000002443
  0
LINE
  8
MY3DLAYER
10
0.338388347648566
20
2.16161165235211
30
0.875000000002383
11
0.358253175473285
21
2.18750000000044
31
0.875000000002411
  0
LINE
  8
MY3DLAYER
10
0.31250000000026
20
2.14174682452735
30
0.875000000002363
11
0.338388347648566
21
2.16161165235211
31
0.875000000002383
  0
LINE
  8
MY3DLAYER
10
0.282352380638083
20
2.12925927171426
30
0.87500000000235
11
0.31250000000026
21
2.14174682452735
31
0.875000000002363
  0
LINE
  8
MY3DLAYER
10
0.250000000000269
20
2.12500000000037
30
0.875000000002347
11
0.282352380638083
21
2.12925927171426
31
0.87500000000235
  0
LINE
  8
MY3DLAYER
10
0.217647619362451
20
2.12925927171421
30
0.875000000002353
11
0.250000000000269
21
2.12500000000037
31
0.875000000002347
  0
LINE
  8
MY3DLAYER
10
0.18750000000026
20
2.14174682452727
30
0.875000000002368
11
0.217647619362451
21
2.12925927171421
31
0.875000000002353
  0
LINE
  8
MY3DLAYER
10
0.161611652351927
20
2.16161165235199
30
0.87500000000239
11
0.18750000000026
21
2.14174682452727
31
0.875000000002368
  0
LINE
  8
MY3DLAYER
10
0.141746824527176
20
2.1875000000003
30
0.875000000002419
11
0.161611652351927
21
2.16161165235199
31
0.87500000000239
  0
LINE
  8
MY3DLAYER
10
0.129259271714078
20
2.21764761936248
30
0.875000000002452
11
0.141746824527176
21
2.1875000000003
31
0.875000000002419
  0
LINE
  8
MY3DLAYER
10
0.129259271718618
20
1.28235238063836
30
0.875000000001347
11
0.125000000004763
21
1.25000000000054
31
0.875000000001312
  0
LINE
  8
MY3DLAYER
10
0.125000000004763
20
1.25000000000054
30
0.875000000001312
11
0.129259271718643
21
1.21764761936273
31
0.875000000001277
  0
LINE
  8
MY3DLAYER
10
0.129259271718643
20
1.21764761936273
30
0.875000000001277
11
0.141746824531735
21
1.18750000000055
31
0.875000000001244
  0
LINE
  8
MY3DLAYER
10
0.141746824531735
20
1.18750000000055
30
0.875000000001244
11
0.161611652356484
21
1.16161165235224
31
0.875000000001215
  0
LINE
  8
MY3DLAYER
10
0.161611652356484
20
1.16161165235224
30
0.875000000001215
11
0.187500000004801
21
1.14174682452751
31
0.875000000001192
  0
LINE
  8
MY3DLAYER
10
0.129259271718618
20
1.28235238063836
30
0.875000000001347
11
0.129259271718622
21
1.28235238063822
31
1.00000000000143
  0
LINE
  8
MY3DLAYER
10
0.141746824531679
20
1.31250000000055
30
0.875000000001379
11
0.141746824531683
21
1.31250000000041
31
1.00000000000146
  0
LINE
  8
MY3DLAYER
10
0.125000000004763
20
1.25000000000054
30
0.875000000001312
11
0.125000000004766
21
1.2500000000004
31
1.00000000000139
  0
LINE
  8
MY3DLAYER
10
0.129259271718643
20
1.21764761936273
30
0.875000000001277
11
0.129259271718647
21
1.21764761936259
31
1.00000000000136
  0
LINE
  8
MY3DLAYER
10
0.141746824531735
20
1.18750000000055
30
0.875000000001244
11
0.141746824531738
21
1.18750000000041
31
1.00000000000132
  0
LINE
  8
MY3DLAYER
10
0.375000000005619
20
0.250000000000592
30
0.875000000000406
11
0.375000000005624
21
0.250000000000456
31
1.0000000000003
  0
LINE
  8
MY3DLAYER
10
0.37074072829177
20
0.217647619362773
30
0.875000000000371
11
0.370740728291775
21
0.217647619362639
31
1.00000000000026
  0
LINE
  8
MY3DLAYER
10
0.370740728291735
20
0.282352380638403
30
0.875000000000441
11
0.37074072829174
21
0.28235238063827
31
1.00000000000033
  0
LINE
  8
MY3DLAYER
10
0.35825317547864
20
0.312500000000582
30
0.875000000000475
11
0.358253175478645
21
0.312500000000447
31
1.00000000000037
  0
LINE
  8
MY3DLAYER
10
0.14174682453253
20
0.312500000000465
30
0.875000000000483
11
0.141746824532535
21
0.31250000000033
31
1.00000000000037
  0
LINE
  8
MY3DLAYER
10
0.187500000004721
20
1.35825317547362
30
0.875000000001427
11
0.187500000004725
21
1.35825317547349
31
1.00000000000151
  0
LINE
  8
MY3DLAYER
10
0.161611652356408
20
1.33838834764887
30
0.875000000001406
11
0.161611652356412
21
1.33838834764874
31
1.00000000000149
  0
LINE
  8
MY3DLAYER
10
0.161611652357341
20
0.161611652352159
30
0.875000000000319
11
0.161611652357347
21
0.161611652352023
31
1.00000000000021
  0
LINE
  8
MY3DLAYER
10
0.18750000000568
20
0.141746824527435
30
0.875000000000297
11
0.187500000005685
21
0.1417468245273
31
1.00000000000019
  0
LINE
  8
MY3DLAYER
10
0.21764761936787
20
0.129259271714372
30
0.875000000000282
11
0.217647619367875
21
0.129259271714239
31
1.00000000000017
  0
LINE
  8
MY3DLAYER
10
0.250000000005689
20
0.125000000000524
30
0.875000000000276
11
0.250000000005695
21
0.125000000000389
31
1.00000000000017
  0
LINE
  8
MY3DLAYER
10
0.2823523806435
20
0.129259271714408
30
0.875000000000279
11
0.282352380643505
21
0.129259271714273
31
1.00000000000017
  0
LINE
  8
MY3DLAYER
10
0.31250000000568
20
0.141746824527503
30
0.875000000000292
11
0.312500000005685
21
0.141746824527367
31
1.00000000000018
  0
LINE
  8
MY3DLAYER
10
0.33838834765398
20
0.161611652352253
30
0.875000000000312
11
0.338388347653985
21
0.161611652352118
31
1.0000000000002
  0
LINE
  8
MY3DLAYER
10
0.161611652356484
20
1.16161165235224
30
0.875000000001215
11
0.161611652356488
21
1.1616116523521
31
1.0000000000013
  0
LINE
  8
MY3DLAYER
10
0.250000000004815
20
1.12500000000059
30
0.875000000001172
11
0.250000000004819
21
1.12500000000046
31
1.00000000000125
  0
LINE
  8
MY3DLAYER
10
0.217647619366998
20
1.12925927171445
30
0.875000000001177
11
0.217647619367001
21
1.12925927171431
31
1.00000000000126
  0
LINE
  8
MY3DLAYER
10
0.282352380642628
20
1.12925927171447
30
0.875000000001175
11
0.282352380642631
21
1.12925927171434
31
1.00000000000126
  0
LINE
  8
MY3DLAYER
10
0.312500000004802
20
1.14174682452756
30
0.875000000001187
11
0.312500000004806
21
1.14174682452743
31
1.00000000000127
  0
LINE
  8
MY3DLAYER
10
0.358253175478708
20
0.187500000000583
30
0.875000000000339
11
0.358253175478714
21
0.187500000000447
31
1.00000000000023
  0
LINE
  8
MY3DLAYER
10
0.338388347653121
20
1.16161165235231
30
0.875000000001207
11
0.338388347653124
21
1.16161165235217
31
1.00000000000129
  0
LINE
  8
MY3DLAYER
10
0.358253175477843
20
1.18750000000064
30
0.875000000001235
11
0.358253175477847
21
1.1875000000005
31
1.00000000000132
  0
LINE
  8
MY3DLAYER
10
0.37074072829091
20
1.21764761936283
30
0.875000000001267
11
0.370740728290913
21
1.21764761936269
31
1.00000000000135
  0
LINE
  8
MY3DLAYER
10
0.375000000004763
20
1.25000000000064
30
0.875000000001302
11
0.375000000004766
21
1.25000000000051
31
1.00000000000138
  0
LINE
  8
MY3DLAYER
10
0.161611652351931
20
2.16161165235186
30
1.00000000000239
11
0.161611652351927
21
2.16161165235199
31
0.87500000000239
  0
LINE
  8
MY3DLAYER
10
0.14174682452718
20
2.18750000000016
30
1.00000000000242
11
0.141746824527176
21
2.1875000000003
31
0.875000000002419
  0
LINE
  8
MY3DLAYER
10
0.187500000000264
20
2.14174682452714
30
1.00000000000237
11
0.18750000000026
21
2.14174682452727
31
0.875000000002368
  0
LINE
  8
MY3DLAYER
10
0.217647619362455
20
2.12925927171408
30
1.00000000000235
11
0.217647619362451
21
2.12925927171421
31
0.875000000002353
  0
LINE
  8
MY3DLAYER
10
0.250000000000273
20
2.12500000000023
30
1.00000000000235
11
0.250000000000269
21
2.12500000000037
31
0.875000000002347
  0
LINE
  8
MY3DLAYER
10
0.282352380638086
20
2.12925927171412
30
1.00000000000235
11
0.282352380638083
21
2.12925927171426
31
0.87500000000235
  0
LINE
  8
MY3DLAYER
10
0.338388347653045
20
1.33838834764895
30
0.875000000001399
11
0.338388347653048
21
1.33838834764881
31
1.00000000000148
  0
LINE
  8
MY3DLAYER
10
0.35825317547779
20
1.31250000000064
30
0.87500000000137
11
0.358253175477793
21
1.3125000000005
31
1.00000000000145
  0
LINE
  8
MY3DLAYER
10
0.312500000004721
20
1.35825317547367
30
0.875000000001422
11
0.312500000004725
21
1.35825317547354
31
1.0000000000015
  0
LINE
  8
MY3DLAYER
10
0.282352380642531
20
1.37074072828674
30
0.875000000001437
11
0.282352380642535
21
1.3707407282866
31
1.00000000000152
  0
LINE
  8
MY3DLAYER
10
0.187500000004801
20
1.14174682452751
30
0.875000000001192
11
0.187500000004805
21
1.14174682452738
31
1.00000000000127
  0
LINE
  8
MY3DLAYER
10
0.358253175473288
20
2.1875000000003
30
1.00000000000241
11
0.358253175473285
21
2.18750000000044
31
0.875000000002411
  0
LINE
  8
MY3DLAYER
10
0.338388347648569
20
2.16161165235197
30
1.00000000000238
11
0.338388347648566
21
2.16161165235211
31
0.875000000002383
  0
LINE
  8
MY3DLAYER
10
0.370740728286348
20
2.21764761936249
30
1.00000000000244
11
0.370740728286344
21
2.21764761936263
31
0.875000000002443
  0
LINE
  8
MY3DLAYER
10
0.375000000000194
20
2.25000000000031
30
1.00000000000248
11
0.37500000000019
21
2.25000000000045
31
0.875000000002478
  0
LINE
  8
MY3DLAYER
10
0.370740728286306
20
2.28235238063812
30
1.00000000000251
11
0.370740728286302
21
2.28235238063826
31
0.875000000002513
  0
LINE
  8
MY3DLAYER
10
0.358253175473207
20
2.3125000000003
30
1.00000000000255
11
0.358253175473204
21
2.31250000000044
31
0.875000000002547
  0
LINE
  8
MY3DLAYER
10
0.370740728290885
20
1.28235238063846
30
0.875000000001337
11
0.370740728290888
21
1.28235238063832
31
1.00000000000142
  0
LINE
  8
MY3DLAYER
10
0.2176476193623
20
2.37074072828634
30
1.00000000000262
11
0.217647619362297
21
2.37074072828648
31
0.875000000002615
  0
LINE
  8
MY3DLAYER
10
0.250000000000107
20
2.37500000000023
30
1.00000000000262
11
0.250000000000103
21
2.37500000000037
31
0.875000000002619
  0
LINE
  8
MY3DLAYER
10
0.187500000000124
20
2.35825317547325
30
1.0000000000026
11
0.18750000000012
21
2.35825317547338
31
0.875000000002603
  0
LINE
  8
MY3DLAYER
10
0.161611652351812
20
2.33838834764849
30
1.00000000000258
11
0.161611652351808
21
2.33838834764863
31
0.875000000002582
  0
LINE
  8
MY3DLAYER
10
0.141746824527099
20
2.31250000000016
30
1.00000000000255
11
0.141746824527095
21
2.3125000000003
31
0.875000000002555
  0
LINE
  8
MY3DLAYER
10
0.129259271714039
20
2.28235238063797
30
1.00000000000252
11
0.129259271714036
21
2.28235238063811
31
0.875000000002522
  0
LINE
  8
MY3DLAYER
10
0.125000000000194
20
2.25000000000015
30
1.00000000000249
11
0.12500000000019
21
2.25000000000029
31
0.875000000002487
  0
LINE
  8
MY3DLAYER
10
1.21728364218533e-012
20
0.906250000000147
30
0.875000000001056
11
0.875000000001214
21
0.906250000000812
31
0.875000000001049
  0
LINE
  8
MY3DLAYER
10
1.21728364218539e-012
20
0.90625
30
1.00000000000103
11
1.21728364218533e-012
21
0.906250000000147
31
0.875000000001056
  0
LINE
  8
MY3DLAYER
10
6.91810646177615e-013
20
1.59375000000013
30
0.875000000001788
11
0.875000000000688
21
1.5937500000008
31
0.875000000001788
  0
LINE
  8
MY3DLAYER
10
1.21728364218533e-012
20
0.906250000000147
30
0.875000000001056
11
6.91810646177615e-013
21
1.59375000000013
31
0.875000000001788
  0
LINE
  8
MY3DLAYER
10
0.129259271714081
20
2.21764761936234
30
1.00000000000245
11
0.129259271714078
21
2.21764761936248
31
0.875000000002452
  0
LINE
  8
MY3DLAYER
10
0.312500000000264
20
2.14174682452722
30
1.00000000000236
11
0.31250000000026
21
2.14174682452735
31
0.875000000002363
  0
LINE
  8
MY3DLAYER
10
0.33838834764845
20
2.33838834764861
30
1.00000000000258
11
0.338388347648447
21
2.33838834764874
31
0.875000000002576
  0
LINE
  8
MY3DLAYER
10
0.312500000000124
20
2.35825317547333
30
1.0000000000026
11
0.31250000000012
21
2.35825317547346
31
0.875000000002598
  0
LINE
  8
MY3DLAYER
10
0.282352380637932
20
2.37074072828639
30
1.00000000000261
11
0.282352380637928
21
2.37074072828652
31
0.875000000002613
  0
ENDSEC
  0
EOF
