 0
SECTION
 2
ENTITIES
  0
LINE
  8
MY3DLAYER
10
0.518742480573706
20
-0.419205825133622
30
0.62430224869477
11
0.50881006658333
21
-0.406261651642604
31
0.624301775812395
  0
LINE
  8
MY3DLAYER
10
0.50881006658333
20
-0.406261651642604
30
0.624301775812395
11
0.502566289842106
21
-0.391187842349464
31
0.624302591390906
  0
LINE
  8
MY3DLAYER
10
0.502566289842106
20
-0.391187842349464
30
0.624302591390906
11
0.500436653416619
21
-0.375011652446881
31
0.624304639849974
  0
LINE
  8
MY3DLAYER
10
0.500436653416619
20
-0.375011652446881
30
0.624304639849974
11
0.502566288509874
21
-0.358835462544298
31
0.624307781590499
  0
LINE
  8
MY3DLAYER
10
0.502566288509874
20
-0.358835462544298
30
0.624307781590499
11
0.508810064009656
21
-0.343761653251158
31
0.624311802508057
  0
LINE
  8
MY3DLAYER
10
0.508810064009656
20
-0.343761653251158
30
0.624311802508057
11
0.51874247693398
21
-0.330817479760142
31
0.624316428583761
  0
LINE
  8
MY3DLAYER
10
0.51874247693398
20
-0.330817479760142
30
0.624316428583761
11
0.531686649756144
21
-0.320885066103405
31
0.624321344558195
  0
LINE
  8
MY3DLAYER
10
-3.45159022592606e-007
20
-1.37499475426066
30
3.57519319439392e-005
11
-6.89855395979424e-019
21
0.0
31
0.0
  0
LINE
  8
MY3DLAYER
10
-3.45159022592606e-007
20
-1.37499475426066
30
3.57519319439392e-005
11
0.000468322746187793
21
-1.37499159950465
31
0.624324680992751
  0
LINE
  8
MY3DLAYER
10
0.000468322746187793
20
-1.37499159950465
30
0.624324680992751
11
0.000468657686290896
21
8.40046996627986e-006
31
0.624320487505842
  0
LINE
  8
MY3DLAYER
10
0.000468657686290896
20
8.40046996627986e-006
30
0.624320487505842
11
-6.89855395979424e-019
21
0.0
31
0.0
  0
LINE
  8
MY3DLAYER
10
-1.33705353459817e-007
20
-0.435366163884904
30
0.125013407048235
11
1.24338001913897e-005
21
-0.43330923672226
31
0.140637314948961
  0
LINE
  8
MY3DLAYER
10
-1.27009199011892e-005
20
-0.43330923672226
30
0.109389499147275
11
-1.33705353459817e-007
21
-0.435366163884904
31
0.125013407048235
  0
LINE
  8
MY3DLAYER
10
-2.44114085488141e-005
20
-0.42727863142123
30
0.0948303347498021
11
-1.27009199011892e-005
21
-0.43330923672226
31
0.109389499147275
  0
LINE
  8
MY3DLAYER
10
-3.44671208475322e-005
20
-0.417685323767031
30
0.0823280968493484
11
-2.44114085488141e-005
21
-0.42727863142123
31
0.0948303347498021
  0
LINE
  8
MY3DLAYER
10
-4.21827766219032e-005
20
-0.405183081822609
30
0.0727347922979042
11
-3.44671208475322e-005
21
-0.417685323767031
31
0.0823280968493484
  0
LINE
  8
MY3DLAYER
10
-4.70325666815866e-005
20
-0.390623912715542
30
0.0667041889469654
11
-4.21827766219032e-005
21
-0.405183081822609
31
0.0727347922979042
  0
LINE
  8
MY3DLAYER
10
-4.86859858487716e-005
20
-0.374999999760313
30
0.064647262448855
11
-4.70325666815866e-005
21
-0.390623912715542
31
0.0667041889469654
  0
LINE
  8
MY3DLAYER
10
-4.70303563397756e-005
20
-0.359376086805084
30
0.0667041889451875
11
-4.86859858487716e-005
21
-0.374999999760313
31
0.064647262448855
  0
LINE
  8
MY3DLAYER
10
-4.21785065692971e-005
20
-0.344816917698017
30
0.0727347922944696
11
-4.70303563397756e-005
21
-0.359376086805084
31
0.0667041889451875
  0
LINE
  8
MY3DLAYER
10
-3.44610820812511e-005
20
-0.332314675753594
30
0.0823280968444909
11
-4.21785065692971e-005
21
-0.344816917698017
31
0.0727347922944696
  0
LINE
  8
MY3DLAYER
10
-2.44040126008113e-005
20
-0.322721368099395
30
0.0948303347438531
11
-3.44610820812511e-005
21
-0.332314675753594
31
0.0823280968444909
  0
LINE
  8
MY3DLAYER
10
-1.2692670793097e-005
20
-0.316690762798365
30
0.109389499140639
11
-2.44040126008113e-005
21
-0.322721368099395
31
0.0948303347438531
  0
LINE
  8
MY3DLAYER
10
-1.25165248247547e-007
20
-0.314633835635721
30
0.125013407041366
11
-1.2692670793097e-005
21
-0.316690762798365
31
0.109389499140639
  0
LINE
  8
MY3DLAYER
10
1.24420492994819e-005
20
-0.316690762798365
30
0.140637314942326
11
-1.25165248247547e-007
21
-0.314633835635721
31
0.125013407041366
  0
LINE
  8
MY3DLAYER
10
2.41525379471067e-005
20
-0.322721368099395
30
0.155196479339798
11
1.24420492994819e-005
21
-0.316690762798365
31
0.140637314942326
  0
LINE
  8
MY3DLAYER
10
3.42082502458249e-005
20
-0.332314675753594
30
0.167698717240252
11
2.41525379471067e-005
21
-0.322721368099395
31
0.155196479339798
  0
LINE
  8
MY3DLAYER
10
4.19239060201958e-005
20
-0.344816917698017
30
0.177292021791696
11
3.42082502458249e-005
21
-0.332314675753594
31
0.167698717240252
  0
LINE
  8
MY3DLAYER
10
4.67736960798793e-005
20
-0.359376086805084
30
0.183322625142635
11
4.19239060201958e-005
21
-0.344816917698017
31
0.177292021791696
  0
LINE
  8
MY3DLAYER
10
4.84271152470643e-005
20
-0.374999999760313
30
0.185379551640745
11
4.67736960798793e-005
21
-0.359376086805084
31
0.183322625142635
  0
LINE
  8
MY3DLAYER
10
4.67714857380682e-005
20
-0.390623912715542
30
0.183322625144413
11
4.84271152470643e-005
21
-0.374999999760313
31
0.185379551640745
  0
LINE
  8
MY3DLAYER
10
4.19196359675897e-005
20
-0.405183081822609
30
0.177292021795131
11
4.67714857380682e-005
21
-0.390623912715542
31
0.183322625144413
  0
LINE
  8
MY3DLAYER
10
3.42022114795437e-005
20
-0.417685323767031
30
0.16769871724511
11
4.19196359675897e-005
21
-0.405183081822609
31
0.177292021795131
  0
LINE
  8
MY3DLAYER
10
2.41451419991039e-005
20
-0.42727863142123
30
0.155196479345747
11
3.42022114795437e-005
21
-0.417685323767031
31
0.16769871724511
  0
LINE
  8
MY3DLAYER
10
1.24338001913897e-005
20
-0.43330923672226
30
0.140637314948961
11
2.41451419991039e-005
21
-0.42727863142123
31
0.155196479345747
  0
LINE
  8
MY3DLAYER
10
-3.4515898160877e-007
20
-1.06249560641439
30
0.125035751931944
11
-3.4525882889751e-007
21
-1.06036594152102
31
0.141212162804467
  0
LINE
  8
MY3DLAYER
10
-3.45059135080472e-007
20
-1.06036594152102
30
0.108859341059421
11
-3.4515898160877e-007
21
-1.06249560641439
31
0.125035751931944
  0
LINE
  8
MY3DLAYER
10
-3.44966093659408e-007
20
-1.05412207998396
30
0.0937853258550782
11
-3.45059135080472e-007
21
-1.06036594152102
31
0.108859341059421
  0
LINE
  8
MY3DLAYER
10
-3.44886197864216e-007
20
-1.0441895306485
30
0.0808409755441025
11
-3.44966093659408e-007
21
-1.05412207998396
31
0.0937853258550782
  0
LINE
  8
MY3DLAYER
10
-3.44824892506238e-007
20
-1.03124518033752
30
0.070908426208637
11
-3.44886197864216e-007
21
-1.0441895306485
31
0.0808409755441025
  0
LINE
  8
MY3DLAYER
10
-3.4478635542716e-007
20
-1.01617116513318
30
0.0646645646715799
11
-3.44824892506238e-007
21
-1.03124518033752
31
0.070908426208637
  0
LINE
  8
MY3DLAYER
10
-3.44773213054927e-007
20
-0.999994754260658
30
0.0625348997782124
11
-3.4478635542716e-007
21
-1.01617116513318
31
0.0646645646715799
  0
LINE
  8
MY3DLAYER
10
-3.44786360763918e-007
20
-0.983818343388135
30
0.0646645646715799
11
-3.44773213054927e-007
21
-0.999994754260658
31
0.0625348997782124
  0
LINE
  8
MY3DLAYER
10
-3.44824902694681e-007
20
-0.968744328183792
30
0.070908426208637
11
-3.44786360763918e-007
21
-0.983818343388135
31
0.0646645646715799
  0
LINE
  8
MY3DLAYER
10
-3.448862121439e-007
20
-0.955799977872816
30
0.0808409755441025
11
-3.44824902694681e-007
21
-0.968744328183792
31
0.070908426208637
  0
LINE
  8
MY3DLAYER
10
-3.44966111192731e-007
20
-0.945867428537351
30
0.0937853258550782
11
-3.448862121439e-007
21
-0.955799977872816
31
0.0808409755441025
  0
LINE
  8
MY3DLAYER
10
-3.45059154696914e-007
20
-0.939623567000294
30
0.108859341059421
11
-3.44966111192731e-007
21
-0.945867428537351
31
0.0937853258550782
  0
LINE
  8
MY3DLAYER
10
-3.45159001985654e-007
20
-0.937493902106926
30
0.125035751931944
11
-3.45059154696914e-007
21
-0.939623567000294
31
0.108859341059421
  0
LINE
  8
MY3DLAYER
10
-3.45258848513952e-007
20
-0.939623567000294
30
0.141212162804467
11
-3.45159001985654e-007
21
-0.937493902106926
31
0.125035751931944
  0
LINE
  8
MY3DLAYER
10
-3.45351889935015e-007
20
-0.945867428537351
30
0.15628617800881
11
-3.45258848513952e-007
21
-0.939623567000294
31
0.141212162804467
  0
LINE
  8
MY3DLAYER
10
-3.45431785730208e-007
20
-0.955799977872816
30
0.169230528319785
11
-3.45351889935015e-007
21
-0.945867428537351
31
0.15628617800881
  0
LINE
  8
MY3DLAYER
10
-3.45493091088185e-007
20
-0.968744328183792
30
0.179163077655251
11
-3.45431785730208e-007
21
-0.955799977872816
31
0.169230528319785
  0
LINE
  8
MY3DLAYER
10
-3.45531628167264e-007
20
-0.983818343388136
30
0.185406939192308
11
-3.45493091088185e-007
21
-0.968744328183792
31
0.179163077655251
  0
LINE
  8
MY3DLAYER
10
-3.45544770539496e-007
20
-0.999994754260658
30
0.187536604085676
11
-3.45531628167264e-007
21
-0.983818343388136
31
0.185406939192308
  0
LINE
  8
MY3DLAYER
10
-3.45531622830506e-007
20
-1.01617116513318
30
0.185406939192308
11
-3.45544770539496e-007
21
-0.999994754260658
31
0.187536604085676
  0
LINE
  8
MY3DLAYER
10
-3.45493080899743e-007
20
-1.03124518033752
30
0.179163077655251
11
-3.45531622830506e-007
21
-1.01617116513318
31
0.185406939192308
  0
LINE
  8
MY3DLAYER
10
-3.45431771450524e-007
20
-1.0441895306485
30
0.169230528319785
11
-3.45493080899743e-007
21
-1.03124518033752
31
0.179163077655251
  0
LINE
  8
MY3DLAYER
10
-3.45351872401693e-007
20
-1.05412207998396
30
0.15628617800881
11
-3.45431771450524e-007
21
-1.0441895306485
31
0.169230528319785
  0
LINE
  8
MY3DLAYER
10
-3.4525882889751e-007
20
-1.06036594152102
30
0.141212162804467
11
-3.45351872401693e-007
21
-1.05412207998396
31
0.15628617800881
  0
LINE
  8
MY3DLAYER
10
0.687968657686291
20
8.40047007588662e-006
30
0.624320487505842
11
0.687968657686291
21
8.40047007499845e-006
31
0.499320487505842
  0
LINE
  8
MY3DLAYER
10
0.687968657686291
20
8.40047007499845e-006
30
0.499320487505842
11
0.125468614675818
21
8.40046113195769e-006
31
0.498997531075655
  0
LINE
  8
MY3DLAYER
10
0.125468614675818
20
8.40046113195769e-006
30
0.498997531075655
11
0.124999957853472
21
2.17048601314218e-014
31
-0.000102648088706747
  0
LINE
  8
MY3DLAYER
10
0.124999957853472
20
2.17048601314218e-014
30
-0.000102648088706747
11
-6.89855395979424e-019
21
0.0
31
0.0
  0
LINE
  8
MY3DLAYER
10
0.000468657686290896
20
8.40046996627986e-006
30
0.624320487505842
11
0.687968657686291
21
8.40047007588662e-006
31
0.624320487505842
  0
LINE
  8
MY3DLAYER
10
0.125468269516796
20
-1.37498637819057
30
0.499003828385938
11
0.12499961269445
21
-1.37499477865168
31
-9.63507784236262e-005
  0
LINE
  8
MY3DLAYER
10
0.518742423520669
20
-0.955817532700129
30
0.624322671393553
11
0.531686596342832
21
-0.945885119043392
31
0.624327587367988
  0
LINE
  8
MY3DLAYER
10
0.579112784231966
20
-0.939641342797554
30
0.624340762522746
11
0.594186593479616
21
-0.9458851190434
31
0.624343630038113
  0
LINE
  8
MY3DLAYER
10
0.000468322746187793
20
-1.37499159950465
30
0.624324680992751
11
0.687968322746287
21
-1.37499159950453
31
0.624324680992751
  0
LINE
  8
MY3DLAYER
10
0.518742427160394
20
-1.04420587807361
30
0.624308491504563
11
0.508810013170019
21
-1.03126170458259
31
0.624308018622188
  0
LINE
  8
MY3DLAYER
10
0.562936599713766
20
-1.06251170377832
30
0.62431689863423
11
0.546760410048217
21
-1.0603820679762
31
0.624313088137037
  0
LINE
  8
MY3DLAYER
10
0.500436600003307
20
-1.00001170538687
30
0.624310882659767
11
0.502566235096562
21
-0.983835515484283
31
0.624314024400292
  0
LINE
  8
MY3DLAYER
10
0.502566235096562
20
-0.983835515484283
30
0.624314024400292
11
0.508810010596344
21
-0.968761706191148
31
0.624318045317849
  0
LINE
  8
MY3DLAYER
10
0.562936594566417
20
-0.937511706995429
30
0.624336952025553
11
0.579112784231966
21
-0.939641342797554
31
0.624340762522746
  0
LINE
  8
MY3DLAYER
10
0.508810010596344
20
-0.968761706191148
30
0.624318045317849
11
0.518742423520669
21
-0.955817532700129
31
0.624322671393553
  0
LINE
  8
MY3DLAYER
10
0.54676040507626
20
-0.939641342797552
30
0.624332458225621
11
0.562936594566417
21
-0.937511706995429
31
0.624336952025553
  0
LINE
  8
MY3DLAYER
10
0.502566236428794
20
-1.01618789528945
30
0.624308834200698
11
0.500436600003307
21
-1.00001170538687
31
0.624310882659767
  0
LINE
  8
MY3DLAYER
10
0.687968322746287
20
-1.37499159950453
30
0.624324680992751
11
0.687968657686291
21
8.40047007588662e-006
31
0.624320487505842
  0
LINE
  8
MY3DLAYER
10
0.546760410048217
20
-1.0603820679762
30
0.624313088137037
11
0.531686600800567
21
-1.05413829173035
31
0.62431022062167
  0
LINE
  8
MY3DLAYER
10
0.508810013170019
20
-1.03126170458259
30
0.624308018622188
11
0.502566236428794
21
-1.01618789528945
31
0.624308834200698
  0
LINE
  8
MY3DLAYER
10
0.531686596342832
20
-0.945885119043392
30
0.624327587367988
11
0.54676040507626
21
-0.939641342797552
31
0.624332458225621
  0
LINE
  8
MY3DLAYER
10
0.607130767119789
20
-0.95581753270014
30
0.624345359155221
11
0.617063181110164
21
-0.968761706191152
31
0.624345832037595
  0
LINE
  8
MY3DLAYER
10
0.133842069950002
20
-0.15624159953029
30
0.624320392199321
11
0.127598293543491
21
-0.171315409211242
31
0.624320438171556
  0
LINE
  8
MY3DLAYER
10
0.143774483862325
20
-0.143297425706252
30
0.624320352722068
11
0.133842069950002
21
-0.15624159953029
31
0.624320392199321
  0
LINE
  8
MY3DLAYER
10
0.156718657686425
20
-0.133365011793977
30
0.624320322430105
11
0.143774483862325
21
-0.143297425706252
31
0.624320352722068
  0
LINE
  8
MY3DLAYER
10
0.617063237097151
20
-0.406261651642613
30
0.624329562532141
11
0.607130824172826
21
-0.419205825133629
31
0.624324936456438
  0
LINE
  8
MY3DLAYER
10
0.607130824172826
20
-0.419205825133629
30
0.624324936456438
11
0.594186651350663
21
-0.429138238790367
31
0.624320020482003
  0
LINE
  8
MY3DLAYER
10
0.594186651350663
20
-0.429138238790367
30
0.624320020482003
11
0.579112842617235
21
-0.43538201503621
31
0.62431514962437
  0
LINE
  8
MY3DLAYER
10
0.531686600800567
20
-1.05413829173035
30
0.62431022062167
11
0.518742427160394
21
-1.04420587807361
31
0.624308491504563
  0
LINE
  8
MY3DLAYER
10
0.594186593479616
20
-0.9458851190434
30
0.624343630038113
11
0.607130767119789
21
-0.95581753270014
31
0.624345359155221
  0
LINE
  8
MY3DLAYER
10
0.617063181110164
20
-0.968761706191152
30
0.624345832037595
11
0.623306957851389
21
-0.983835515484298
31
0.624345016459085
  0
LINE
  8
MY3DLAYER
10
0.623306957851389
20
-0.983835515484298
30
0.624345016459085
11
0.625436594276876
21
-1.00001170538688
31
0.624342968000017
  0
LINE
  8
MY3DLAYER
10
0.625436594276876
20
-1.00001170538688
30
0.624342968000017
11
0.623306959183621
21
-1.01618789528946
31
0.624339826259492
  0
LINE
  8
MY3DLAYER
10
0.623306959183621
20
-1.01618789528946
30
0.624339826259492
11
0.617063183683839
21
-1.0312617045826
31
0.624335805341934
  0
LINE
  8
MY3DLAYER
10
0.617063183683839
20
-1.0312617045826
30
0.624335805341934
11
0.607130770759515
21
-1.04420587807362
31
0.624331179266231
  0
LINE
  8
MY3DLAYER
10
0.607130770759515
20
-1.04420587807362
30
0.624331179266231
11
0.594186597937351
21
-1.05413829173036
31
0.624326263291795
  0
LINE
  8
MY3DLAYER
10
0.594186597937351
20
-1.05413829173036
30
0.624326263291795
11
0.579112789203923
21
-1.0603820679762
31
0.624321392434163
  0
LINE
  8
MY3DLAYER
10
0.579112789203923
20
-1.0603820679762
30
0.624321392434163
11
0.562936599713766
21
-1.06251170377832
31
0.62431689863423
  0
LINE
  8
MY3DLAYER
10
0.562936653127078
20
-0.437511650838331
30
0.624310655824438
11
0.546760463461529
21
-0.435382015036207
31
0.624306845327245
  0
LINE
  8
MY3DLAYER
10
0.546760463461529
20
-0.435382015036207
30
0.624306845327245
11
0.531686654213878
21
-0.429138238790362
31
0.624303977811878
  0
LINE
  8
MY3DLAYER
10
0.531686654213878
20
-0.429138238790362
30
0.624303977811878
11
0.518742480573706
21
-0.419205825133622
31
0.62430224869477
  0
LINE
  8
MY3DLAYER
10
0.531686649756144
20
-0.320885066103405
30
0.624321344558195
11
0.546760458489572
21
-0.314641289857562
31
0.624326215415828
  0
LINE
  8
MY3DLAYER
10
0.546760458489572
20
-0.314641289857562
30
0.624326215415828
11
0.562936647979729
21
-0.31251165405544
31
0.624330709215761
  0
LINE
  8
MY3DLAYER
10
0.562936647979729
20
-0.31251165405544
30
0.624330709215761
11
0.579112837645278
21
-0.314641289857564
31
0.624334519712954
  0
LINE
  8
MY3DLAYER
10
0.579112837645278
20
-0.314641289857564
30
0.624334519712954
11
0.594186646892928
21
-0.32088506610341
31
0.624337387228321
  0
LINE
  8
MY3DLAYER
10
0.594186646892928
20
-0.32088506610341
30
0.624337387228321
11
0.607130820533101
21
-0.33081747976015
31
0.624339116345428
  0
LINE
  8
MY3DLAYER
10
0.607130820533101
20
-0.33081747976015
30
0.624339116345428
11
0.617063234523476
21
-0.343761653251167
31
0.624339589227803
  0
LINE
  8
MY3DLAYER
10
0.617063234523476
20
-0.343761653251167
30
0.624339589227803
11
0.6233070112647
21
-0.358835462544307
31
0.624338773649292
  0
LINE
  8
MY3DLAYER
10
0.6233070112647
20
-0.358835462544307
30
0.624338773649292
11
0.625436647690188
21
-0.375011652446891
31
0.624336725190225
  0
LINE
  8
MY3DLAYER
10
0.625436647690188
20
-0.375011652446891
30
0.624336725190225
11
0.623307012596933
21
-0.391187842349474
31
0.624333583449699
  0
LINE
  8
MY3DLAYER
10
0.623307012596933
20
-0.391187842349474
30
0.624333583449699
11
0.617063237097151
21
-0.406261651642613
31
0.624329562532141
  0
LINE
  8
MY3DLAYER
10
0.579112842617235
20
-0.43538201503621
30
0.62431514962437
11
0.562936653127078
21
-0.437511650838331
31
0.624310655824438
  0
LINE
  8
MY3DLAYER
10
0.250468322746203
20
-1.18749159950463
30
0.624324680992751
11
0.248338686889271
21
-1.17131540918579
31
0.624324631658466
  0
LINE
  8
MY3DLAYER
10
0.248338686889269
20
-1.20366778982346
30
0.624324730327036
11
0.250468322746203
21
-1.18749159950463
31
0.624324680992751
  0
LINE
  8
MY3DLAYER
10
0.242094910482728
20
-1.21874159950448
30
0.624324776299272
11
0.248338686889269
21
-1.20366778982346
31
0.624324730327036
  0
LINE
  8
MY3DLAYER
10
0.232162496570359
20
-1.23168577332858
30
0.624324815776525
11
0.242094910482728
21
-1.21874159950448
31
0.624324776299272
  0
LINE
  8
MY3DLAYER
10
0.219218322746199
20
-1.2416181872409
30
0.624324846068487
11
0.232162496570359
21
-1.23168577332858
31
0.624324815776525
  0
LINE
  8
MY3DLAYER
10
0.204144513065106
20
-1.24786196364741
30
0.62432486511081
11
0.219218322746199
21
-1.2416181872409
31
0.624324846068487
  0
LINE
  8
MY3DLAYER
10
0.187968322746198
20
-1.24999159950433
30
0.624324871605792
11
0.204144513065106
21
-1.24786196364741
31
0.62432486511081
  0
LINE
  8
MY3DLAYER
10
0.171792132427291
20
-1.24786196364741
30
0.62432486511081
11
0.187968322746198
21
-1.24999159950433
31
0.624324871605792
  0
LINE
  8
MY3DLAYER
10
0.156718322746199
20
-1.24161818724089
30
0.624324846068487
11
0.171792132427291
21
-1.24786196364741
31
0.62432486511081
  0
LINE
  8
MY3DLAYER
10
0.14377414892204
20
-1.23168577332857
30
0.624324815776525
11
0.156718322746199
21
-1.24161818724089
31
0.624324846068487
  0
LINE
  8
MY3DLAYER
10
0.133841735009673
20
-1.21874159950447
30
0.624324776299272
11
0.14377414892204
21
-1.23168577332857
31
0.624324815776525
  0
LINE
  8
MY3DLAYER
10
0.127597958603135
20
-1.20366778982345
30
0.624324730327036
11
0.133841735009673
21
-1.21874159950447
31
0.624324776299272
  0
LINE
  8
MY3DLAYER
10
0.125468322746203
20
-1.18749159950462
30
0.624324680992751
11
0.127597958603135
21
-1.20366778982345
31
0.624324730327036
  0
LINE
  8
MY3DLAYER
10
0.127597958603138
20
-1.17131540918578
30
0.624324631658466
11
0.125468322746203
21
-1.18749159950462
31
0.624324680992751
  0
LINE
  8
MY3DLAYER
10
0.133841735009678
20
-1.15624159950476
30
0.62432458568623
11
0.127597958603138
21
-1.17131540918578
31
0.624324631658466
  0
LINE
  8
MY3DLAYER
10
0.143774148922048
20
-1.14329742568066
30
0.624324546208977
11
0.133841735009678
21
-1.15624159950476
31
0.62432458568623
  0
LINE
  8
MY3DLAYER
10
0.156718322746208
20
-1.13336501176834
30
0.624324515917015
11
0.143774148922048
21
-1.14329742568066
31
0.624324546208977
  0
LINE
  8
MY3DLAYER
10
0.171792132427301
20
-1.12712123536183
30
0.624324496874691
11
0.156718322746208
21
-1.13336501176834
31
0.624324515917015
  0
LINE
  8
MY3DLAYER
10
0.187968322746208
20
-1.12499159950491
30
0.62432449037971
11
0.171792132427301
21
-1.12712123536183
31
0.624324496874691
  0
LINE
  8
MY3DLAYER
10
0.204144513065116
20
-1.12712123536184
30
0.624324496874691
11
0.187968322746208
21
-1.12499159950491
31
0.62432449037971
  0
LINE
  8
MY3DLAYER
10
0.219218322746208
20
-1.13336501176835
30
0.624324515917015
11
0.204144513065116
21
-1.12712123536184
31
0.624324496874691
  0
LINE
  8
MY3DLAYER
10
0.232162496570366
20
-1.14329742568067
30
0.624324546208977
11
0.219218322746208
21
-1.13336501176835
31
0.624324515917015
  0
LINE
  8
MY3DLAYER
10
0.242094910482733
20
-1.15624159950477
30
0.62432458568623
11
0.232162496570366
21
-1.14329742568067
31
0.624324546208977
  0
LINE
  8
MY3DLAYER
10
0.248338686889271
20
-1.17131540918579
30
0.624324631658466
11
0.242094910482733
21
-1.15624159950477
31
0.62432458568623
  0
LINE
  8
MY3DLAYER
10
0.187968657686281
20
-0.124991599530585
30
0.6243202968928
11
0.171792467367448
21
-0.127121235387497
31
0.624320303387782
  0
LINE
  8
MY3DLAYER
10
0.204144848005113
20
-0.1271212353875
30
0.624320303387782
11
0.187968657686281
21
-0.124991599530585
31
0.6243202968928
  0
LINE
  8
MY3DLAYER
10
0.219218657686135
20
-0.133365011793982
30
0.624320322430105
11
0.204144848005113
21
-0.1271212353875
31
0.624320303387782
  0
LINE
  8
MY3DLAYER
10
0.232162831510233
20
-0.143297425706259
30
0.624320352722068
11
0.219218657686135
21
-0.133365011793982
31
0.624320322430105
  0
LINE
  8
MY3DLAYER
10
0.242095245422554
20
-0.156241599530299
30
0.624320392199321
11
0.232162831510233
21
-0.143297425706259
31
0.624320352722068
  0
LINE
  8
MY3DLAYER
10
0.248339021829063
20
-0.171315409211252
30
0.624320438171556
11
0.242095245422554
21
-0.156241599530299
31
0.624320392199321
  0
LINE
  8
MY3DLAYER
10
0.250468657685985
20
-0.187491599530009
30
0.624320487505842
11
0.248339021829063
21
-0.171315409211252
31
0.624320438171556
  0
LINE
  8
MY3DLAYER
10
0.24833902182906
20
-0.203667789848766
30
0.624320536840127
11
0.250468657685985
21
-0.187491599530009
31
0.624320487505842
  0
LINE
  8
MY3DLAYER
10
0.242095245422548
20
-0.218741599529718
30
0.624320582812362
11
0.24833902182906
21
-0.203667789848766
31
0.624320536840127
  0
LINE
  8
MY3DLAYER
10
0.232162831510225
20
-0.231685773353756
30
0.624320622289616
11
0.242095245422548
21
-0.218741599529718
31
0.624320582812362
  0
LINE
  8
MY3DLAYER
10
0.219218657686126
20
-0.24161818726603
30
0.624320652581578
11
0.232162831510225
21
-0.231685773353756
31
0.624320622289616
  0
LINE
  8
MY3DLAYER
10
0.204144848005103
20
-0.24786196367251
30
0.624320671623901
11
0.219218657686126
21
-0.24161818726603
31
0.624320652581578
  0
LINE
  8
MY3DLAYER
10
0.18796865768627
20
-0.249991599529423
30
0.624320678118883
11
0.204144848005103
21
-0.24786196367251
31
0.624320671623901
  0
LINE
  8
MY3DLAYER
10
0.171792467367438
20
-0.247861963672508
30
0.624320671623901
11
0.18796865768627
21
-0.249991599529423
31
0.624320678118883
  0
LINE
  8
MY3DLAYER
10
0.156718657686416
20
-0.241618187266025
30
0.624320652581578
11
0.171792467367438
21
-0.247861963672508
31
0.624320671623901
  0
LINE
  8
MY3DLAYER
10
0.143774483862318
20
-0.231685773353748
30
0.624320622289616
11
0.156718657686416
21
-0.241618187266025
31
0.624320652581578
  0
LINE
  8
MY3DLAYER
10
0.133842069949997
20
-0.218741599529709
30
0.624320582812362
11
0.143774483862318
21
-0.231685773353748
31
0.624320622289616
  0
LINE
  8
MY3DLAYER
10
0.127598293543488
20
-0.203667789848756
30
0.624320536840127
11
0.133842069949997
21
-0.218741599529709
31
0.624320582812362
  0
LINE
  8
MY3DLAYER
10
0.125468657686566
20
-0.187491599529999
30
0.624320487505842
11
0.127598293543488
21
-0.203667789848756
31
0.624320536840127
  0
LINE
  8
MY3DLAYER
10
0.127598293543491
20
-0.171315409211242
30
0.624320438171556
11
0.125468657686566
21
-0.187491599529999
31
0.624320487505842
  0
LINE
  8
MY3DLAYER
10
0.171792467367448
20
-0.127121235387497
30
0.624320303387782
11
0.156718657686425
21
-0.133365011793977
31
0.624320322430105
  0
LINE
  8
MY3DLAYER
10
0.579144942872129
20
-0.435361952322289
30
0.499257049985413
11
0.562968753381972
21
-0.437491588124411
31
0.499252556185481
  0
LINE
  8
MY3DLAYER
10
0.687968322746287
20
-1.37499159950453
30
0.624324680992751
11
0.687968322746287
21
-1.37499159950454
31
0.499001724562677
  0
LINE
  8
MY3DLAYER
10
0.12499961269445
20
-1.37499477865168
30
-9.63507784236262e-005
11
-3.45159022592606e-007
21
-1.37499475426066
31
3.57519319439392e-005
  0
LINE
  8
MY3DLAYER
10
0.687968322746287
20
-1.37499159950454
30
0.499001724562677
11
0.125468269516796
21
-1.37498637819057
31
0.499003828385938
  0
LINE
  8
MY3DLAYER
10
0.5187745808286
20
-0.419185762419701
30
0.499244149055813
11
0.508842166838224
21
-0.406241588928684
31
0.499243676173439
  0
LINE
  8
MY3DLAYER
10
0.531718754468773
20
-0.429118176076441
30
0.499245878172921
11
0.5187745808286
21
-0.419185762419701
31
0.499244149055813
  0
LINE
  8
MY3DLAYER
10
0.546792563716423
20
-0.435361952322287
30
0.499248745688288
11
0.531718754468773
21
-0.429118176076441
31
0.499245878172921
  0
LINE
  8
MY3DLAYER
10
0.562968753381921
20
-1.06249160768102
30
0.499050708410298
11
0.546792563716372
21
-1.0603619718789
31
0.499046897913105
  0
LINE
  8
MY3DLAYER
10
0.579144942872078
20
-1.0603619718789
30
0.499055202210231
11
0.562968753381921
21
-1.06249160768102
31
0.499050708410298
  0
LINE
  8
MY3DLAYER
10
0.623339112851775
20
-1.01616779919217
30
0.49907363603556
11
0.617095337351994
21
-1.0312416084853
31
0.499069615118002
  0
LINE
  8
MY3DLAYER
10
0.625468747945031
20
-0.999991609289584
30
0.499076777776085
11
0.623339112851775
21
-1.01616779919217
31
0.49907363603556
  0
LINE
  8
MY3DLAYER
10
0.617095334778319
20
-0.968741610093855
30
0.499079641813664
11
0.623339111519543
21
-0.983815419387
31
0.499078826235153
  0
LINE
  8
MY3DLAYER
10
0.607162920787944
20
-0.955797436602842
30
0.499079168931289
11
0.617095334778319
21
-0.968741610093855
31
0.499079641813664
  0
LINE
  8
MY3DLAYER
10
0.594218747147771
20
-0.945865022946102
30
0.499077439814181
11
0.607162920787944
21
-0.955797436602842
31
0.499079168931289
  0
LINE
  8
MY3DLAYER
10
0.57914493790012
20
-0.939621246700257
30
0.499074572298814
11
0.594218747147771
21
-0.945865022946102
31
0.499077439814181
  0
LINE
  8
MY3DLAYER
10
0.124999957853472
20
2.17048601314218e-014
30
-0.000102648088706747
11
0.12499961269445
21
-1.37499477865168
31
-9.63507784236262e-005
  0
LINE
  8
MY3DLAYER
10
0.125468614675818
20
8.40046113195769e-006
30
0.498997531075655
11
0.125468657686566
21
-0.187491980756082
31
0.499320487506423
  0
LINE
  8
MY3DLAYER
10
0.687968322746287
20
-1.37499159950454
30
0.499001724562677
11
0.687968657686291
21
8.40047007499845e-006
31
0.499320487505842
  0
LINE
  8
MY3DLAYER
10
0.125468657686566
20
-0.187491980756082
30
0.499320487506423
11
0.125468322746203
21
-1.1874919807307
31
0.499324680993332
  0
LINE
  8
MY3DLAYER
10
0.125468322746203
20
-1.1874919807307
30
0.499324680993332
11
0.125468269516796
21
-1.37498637819057
31
0.499003828385938
  0
LINE
  8
MY3DLAYER
10
0.125115914890354
20
-0.435366172735101
30
0.124912767794583
11
0.125128482395899
21
-0.433309245572457
31
0.140536675695309
  0
LINE
  8
MY3DLAYER
10
0.125128482395899
20
-0.433309245572457
30
0.140536675695309
11
0.125140193737707
21
-0.427278640271427
31
0.155095840092095
  0
LINE
  8
MY3DLAYER
10
0.125140193737707
20
-0.427278640271427
30
0.155095840092095
11
0.125150250807187
21
-0.417685332617228
31
0.167598077991457
  0
LINE
  8
MY3DLAYER
10
0.125150250807187
20
-0.417685332617228
30
0.167598077991457
11
0.125157968231675
21
-0.405183090672805
31
0.177191382541479
  0
LINE
  8
MY3DLAYER
10
0.125157968231675
20
-0.405183090672805
30
0.177191382541479
11
0.125162820081446
21
-0.390623921565738
31
0.183221985890761
  0
LINE
  8
MY3DLAYER
10
0.125162820081446
20
-0.390623921565738
30
0.183221985890761
11
0.125164475710955
21
-0.375000008610509
31
0.185278912387093
  0
LINE
  8
MY3DLAYER
10
0.125164475710955
20
-0.375000008610509
30
0.185278912387093
11
0.125162822291788
21
-0.359376095655281
31
0.183221985888983
  0
LINE
  8
MY3DLAYER
10
0.125162822291788
20
-0.359376095655281
30
0.183221985888983
11
0.125157972501728
21
-0.344816926548214
31
0.177191382538044
  0
LINE
  8
MY3DLAYER
10
0.125157972501728
20
-0.344816926548214
30
0.177191382538044
11
0.125150256845954
21
-0.332314684603791
31
0.1675980779866
  0
LINE
  8
MY3DLAYER
10
0.125150256845954
20
-0.332314684603791
30
0.1675980779866
11
0.125140201133655
21
-0.322721376949592
31
0.155095840086146
  0
LINE
  8
MY3DLAYER
10
0.125140201133655
20
-0.322721376949592
30
0.155095840086146
11
0.125128490645007
21
-0.316690771648562
31
0.140536675688674
  0
LINE
  8
MY3DLAYER
10
0.125128490645007
20
-0.316690771648562
30
0.140536675688674
11
0.125115923430459
21
-0.314633844485918
31
0.124912767787713
  0
LINE
  8
MY3DLAYER
10
0.125115923430459
20
-0.314633844485918
30
0.124912767787713
11
0.125103355924915
21
-0.316690771648562
31
0.109288859886987
  0
LINE
  8
MY3DLAYER
10
0.125103355924915
20
-0.316690771648562
30
0.109288859886987
11
0.125091644583107
21
-0.322721376949592
31
0.0947296954902007
  0
LINE
  8
MY3DLAYER
10
0.125091644583107
20
-0.322721376949592
30
0.0947296954902007
11
0.125081587513626
21
-0.33231468460379
31
0.0822274575908386
  0
LINE
  8
MY3DLAYER
10
0.125081587513626
20
-0.33231468460379
30
0.0822274575908386
11
0.125073870089138
21
-0.344816926548214
31
0.0726341530408172
  0
LINE
  8
MY3DLAYER
10
0.125073870089138
20
-0.344816926548214
30
0.0726341530408172
11
0.125069018239368
21
-0.359376095655281
31
0.0666035496915351
  0
LINE
  8
MY3DLAYER
10
0.125069018239368
20
-0.359376095655281
30
0.0666035496915351
11
0.125067362609859
21
-0.375000008610509
31
0.0645466231952027
  0
LINE
  8
MY3DLAYER
10
0.125067362609859
20
-0.375000008610509
30
0.0645466231952027
11
0.125069016029026
21
-0.390623921565738
31
0.0666035496933131
  0
LINE
  8
MY3DLAYER
10
0.125069016029026
20
-0.390623921565738
30
0.0666035496933131
11
0.125073865819086
21
-0.405183090672805
31
0.0726341530442519
  0
LINE
  8
MY3DLAYER
10
0.125073865819086
20
-0.405183090672805
30
0.0726341530442519
11
0.12508158147486
21
-0.417685332617228
31
0.0822274575956961
  0
LINE
  8
MY3DLAYER
10
0.12508158147486
20
-0.417685332617228
30
0.0822274575956961
11
0.125091637187159
21
-0.427278640271427
31
0.0947296954961497
  0
LINE
  8
MY3DLAYER
10
0.125091637187159
20
-0.427278640271427
30
0.0947296954961497
11
0.125103347675807
21
-0.433309245572457
31
0.109288859893622
  0
LINE
  8
MY3DLAYER
10
0.125103347675807
20
-0.433309245572457
30
0.109288859893622
11
0.125115914890354
21
-0.435366172735101
31
0.124912767794583
  0
LINE
  8
MY3DLAYER
10
0.125158994469019
20
-1.06249560641437
30
0.125035752704475
11
0.125158994369171
21
-1.060365941521
31
0.141212163576997
  0
LINE
  8
MY3DLAYER
10
0.125158994369171
20
-1.060365941521
30
0.141212163576997
11
0.125158994276128
21
-1.05412207998395
31
0.15628617878134
  0
LINE
  8
MY3DLAYER
10
0.125158994276128
20
-1.05412207998395
30
0.15628617878134
11
0.125158994196229
21
-1.04418953064848
31
0.169230529092316
  0
LINE
  8
MY3DLAYER
10
0.125158994196229
20
-1.04418953064848
30
0.169230529092316
11
0.125158994134919
21
-1.0312451803375
31
0.179163078427781
  0
LINE
  8
MY3DLAYER
10
0.125158994134919
20
-1.0312451803375
30
0.179163078427781
11
0.125158994096377
21
-1.01617116513316
31
0.185406939964839
  0
LINE
  8
MY3DLAYER
10
0.125158994096377
20
-1.01617116513316
30
0.185406939964839
11
0.12515899408323
21
-0.999994754260639
31
0.187536604858206
  0
LINE
  8
MY3DLAYER
10
0.12515899408323
20
-0.999994754260639
30
0.187536604858206
11
0.125158994096372
21
-0.983818343388116
31
0.185406939964839
  0
LINE
  8
MY3DLAYER
10
0.125158994096372
20
-0.983818343388116
30
0.185406939964839
11
0.125158994134909
21
-0.968744328183773
31
0.179163078427781
  0
LINE
  8
MY3DLAYER
10
0.125158994134909
20
-0.968744328183773
30
0.179163078427781
11
0.125158994196214
21
-0.955799977872797
31
0.169230529092316
  0
LINE
  8
MY3DLAYER
10
0.125158994196214
20
-0.955799977872797
30
0.169230529092316
11
0.12515899427611
21
-0.945867428537332
31
0.15628617878134
  0
LINE
  8
MY3DLAYER
10
0.12515899427611
20
-0.945867428537332
30
0.15628617878134
11
0.125158994369152
21
-0.939623567000275
31
0.141212163576997
  0
LINE
  8
MY3DLAYER
10
0.125158994369152
20
-0.939623567000275
30
0.141212163576997
11
0.125158994468998
21
-0.937493902106906
31
0.125035752704475
  0
LINE
  8
MY3DLAYER
10
0.125158994468998
20
-0.937493902106906
30
0.125035752704475
11
0.125158994568845
21
-0.939623567000275
31
0.108859341831952
  0
LINE
  8
MY3DLAYER
10
0.125158994568845
20
-0.939623567000275
30
0.108859341831952
11
0.125158994661889
21
-0.945867428537332
31
0.0937853266276087
  0
LINE
  8
MY3DLAYER
10
0.125158994661889
20
-0.945867428537332
30
0.0937853266276087
11
0.125158994741788
21
-0.955799977872797
31
0.0808409763166331
  0
LINE
  8
MY3DLAYER
10
0.125158994741788
20
-0.955799977872797
30
0.0808409763166331
11
0.125158994803097
21
-0.968744328183773
31
0.0709084269811676
  0
LINE
  8
MY3DLAYER
10
0.125158994803097
20
-0.968744328183773
30
0.0709084269811676
11
0.125158994841639
21
-0.983818343388116
31
0.0646645654441105
  0
LINE
  8
MY3DLAYER
10
0.125158994841639
20
-0.983818343388116
30
0.0646645654441105
11
0.125158994854787
21
-0.999994754260639
31
0.062534900550743
  0
LINE
  8
MY3DLAYER
10
0.125158994854787
20
-0.999994754260639
30
0.062534900550743
11
0.125158994841645
21
-1.01617116513316
31
0.0646645654441105
  0
LINE
  8
MY3DLAYER
10
0.125158994841645
20
-1.01617116513316
30
0.0646645654441105
11
0.125158994803108
21
-1.0312451803375
31
0.0709084269811676
  0
LINE
  8
MY3DLAYER
10
0.125158994803108
20
-1.0312451803375
30
0.0709084269811676
11
0.125158994741802
21
-1.04418953064848
31
0.0808409763166331
  0
LINE
  8
MY3DLAYER
10
0.125158994741802
20
-1.04418953064848
30
0.0808409763166331
11
0.125158994661907
21
-1.05412207998395
31
0.0937853266276087
  0
LINE
  8
MY3DLAYER
10
0.125158994661907
20
-1.05412207998395
30
0.0937853266276087
11
0.125158994568865
21
-1.060365941521
31
0.108859341831952
  0
LINE
  8
MY3DLAYER
10
0.125158994568865
20
-1.060365941521
30
0.108859341831952
11
0.125158994469019
21
-1.06249560641437
31
0.125035752704475
  0
LINE
  8
MY3DLAYER
10
0.594218751605506
20
-1.05411819563306
30
0.499060073067864
11
0.579144942872078
21
-1.0603619718789
31
0.499055202210231
  0
LINE
  8
MY3DLAYER
10
0.607162924427669
20
-1.04418578197632
30
0.499064989042299
11
0.594218751605506
21
-1.05411819563306
31
0.499060073067864
  0
LINE
  8
MY3DLAYER
10
0.617095337351994
20
-1.0312416084853
30
0.499069615118002
11
0.607162924427669
21
-1.04418578197632
31
0.499064989042299
  0
LINE
  8
MY3DLAYER
10
0.562968753381972
20
-0.437491588124411
30
0.499252556185481
11
0.546792563716423
21
-0.435361952322287
31
0.499248745688288
  0
LINE
  8
MY3DLAYER
10
0.607162920787995
20
-0.330797417046229
30
0.499281016706472
11
0.617095334778371
21
-0.343741590537247
31
0.499281489588846
  0
LINE
  8
MY3DLAYER
10
0.531718750011038
20
-0.320865003389484
30
0.499263244919239
11
0.546792558744466
21
-0.314621227143641
31
0.499268115776872
  0
LINE
  8
MY3DLAYER
10
0.594218747147822
20
-0.320865003389489
30
0.499279287589364
11
0.607162920787995
21
-0.330797417046229
31
0.499281016706472
  0
LINE
  8
MY3DLAYER
10
0.579144937900172
20
-0.314621227143644
30
0.499276420073997
11
0.594218747147822
21
-0.320865003389489
31
0.499279287589364
  0
LINE
  8
MY3DLAYER
10
0.562968748234623
20
-0.312491591341519
30
0.499272609576804
11
0.579144937900172
21
-0.314621227143644
31
0.499276420073997
  0
LINE
  8
MY3DLAYER
10
0.546792558744466
20
-0.314621227143641
30
0.499268115776872
11
0.562968748234623
21
-0.312491591341519
31
0.499272609576804
  0
LINE
  8
MY3DLAYER
10
0.518774577188875
20
-0.330797417046222
30
0.499258328944804
11
0.531718750011038
21
-0.320865003389484
31
0.499263244919239
  0
LINE
  8
MY3DLAYER
10
0.50884216426455
20
-0.343741590537238
30
0.4992537028691
11
0.518774577188875
21
-0.330797417046222
31
0.499258328944804
  0
LINE
  8
MY3DLAYER
10
0.500468753671513
20
-0.37499158973296
30
0.499246540211017
11
0.502598388764768
21
-0.358815399830377
31
0.499249681951543
  0
LINE
  8
MY3DLAYER
10
0.502598390097
20
-0.391167779635543
30
0.499244491751949
11
0.500468753671513
21
-0.37499158973296
31
0.499246540211017
  0
LINE
  8
MY3DLAYER
10
0.508842166838224
20
-0.406241588928684
30
0.499243676173439
11
0.502598390097
21
-0.391167779635543
31
0.499244491751949
  0
LINE
  8
MY3DLAYER
10
0.594218751605557
20
-0.429118176076446
30
0.499261920843046
11
0.579144942872129
21
-0.435361952322289
31
0.499257049985413
  0
LINE
  8
MY3DLAYER
10
0.60716292442772
20
-0.419185762419709
30
0.499266836817481
11
0.594218751605557
21
-0.429118176076446
31
0.499261920843046
  0
LINE
  8
MY3DLAYER
10
0.508842164264499
20
-0.968741610093851
30
0.499051855093918
11
0.518774577188823
21
-0.955797436602831
31
0.499056481169621
  0
LINE
  8
MY3DLAYER
10
0.502598388764717
20
-0.983815419386985
30
0.49904783417636
11
0.508842164264499
21
-0.968741610093851
31
0.499051855093918
  0
LINE
  8
MY3DLAYER
10
0.500468753671461
20
-0.999991609289573
30
0.499044692435835
11
0.502598388764717
21
-0.983815419386985
31
0.49904783417636
  0
LINE
  8
MY3DLAYER
10
0.502598390096949
20
-1.01616779919215
30
0.499042643976767
11
0.500468753671461
21
-0.999991609289573
31
0.499044692435835
  0
LINE
  8
MY3DLAYER
10
0.518774580828549
20
-1.04418578197631
30
0.499042301280631
11
0.508842166838173
21
-1.0312416084853
31
0.499041828398256
  0
LINE
  8
MY3DLAYER
10
0.531718754468721
20
-1.05411819563305
30
0.499044030397738
11
0.518774580828549
21
-1.04418578197631
31
0.499042301280631
  0
LINE
  8
MY3DLAYER
10
0.546792563716372
20
-1.0603619718789
30
0.499046897913105
11
0.531718754468721
21
-1.05411819563305
31
0.499044030397738
  0
LINE
  8
MY3DLAYER
10
0.546792563716423
20
-0.435361952322287
30
0.499248745688288
11
0.546760463461529
21
-0.435382015036207
31
0.624306845327245
  0
LINE
  8
MY3DLAYER
10
0.562968753381972
20
-0.437491588124411
30
0.499252556185481
11
0.562936653127078
21
-0.437511650838331
31
0.624310655824438
  0
LINE
  8
MY3DLAYER
10
0.617095337352045
20
-0.406241588928693
30
0.499271462893185
11
0.60716292442772
21
-0.419185762419709
31
0.499266836817481
  0
LINE
  8
MY3DLAYER
10
0.623339112851827
20
-0.391167779635553
30
0.499275483810742
11
0.617095337352045
21
-0.406241588928693
31
0.499271462893185
  0
LINE
  8
MY3DLAYER
10
0.625468747945082
20
-0.37499158973297
30
0.499278625551268
11
0.623339112851827
21
-0.391167779635553
31
0.499275483810742
  0
LINE
  8
MY3DLAYER
10
0.623339111519595
20
-0.358815399830387
30
0.499280674010336
11
0.625468747945082
21
-0.37499158973297
31
0.499278625551268
  0
LINE
  8
MY3DLAYER
10
0.617095334778371
20
-0.343741590537247
30
0.499281489588846
11
0.623339111519595
21
-0.358815399830387
31
0.499280674010336
  0
LINE
  8
MY3DLAYER
10
0.623339111519595
20
-0.358815399830387
30
0.499280674010336
11
0.6233070112647
21
-0.358835462544307
31
0.624338773649292
  0
LINE
  8
MY3DLAYER
10
0.617095334778371
20
-0.343741590537247
30
0.499281489588846
11
0.617063234523476
21
-0.343761653251167
31
0.624339589227803
  0
LINE
  8
MY3DLAYER
10
0.625468747945082
20
-0.37499158973297
30
0.499278625551268
11
0.625436647690188
21
-0.375011652446891
31
0.624336725190225
  0
LINE
  8
MY3DLAYER
10
0.623339112851827
20
-0.391167779635553
30
0.499275483810742
11
0.623307012596933
21
-0.391187842349474
31
0.624333583449699
  0
LINE
  8
MY3DLAYER
10
0.562968748234571
20
-0.93749161089813
30
0.499070761801621
11
0.57914493790012
21
-0.939621246700257
31
0.499074572298814
  0
LINE
  8
MY3DLAYER
10
0.546792558744415
20
-0.939621246700254
30
0.499066268001689
11
0.562968748234571
21
-0.93749161089813
31
0.499070761801621
  0
LINE
  8
MY3DLAYER
10
0.531718750010986
20
-0.945865022946097
30
0.499061397144056
11
0.546792558744415
21
-0.939621246700254
31
0.499066268001689
  0
LINE
  8
MY3DLAYER
10
0.518774577188823
20
-0.955797436602831
30
0.499056481169621
11
0.531718750010986
21
-0.945865022946097
31
0.499061397144056
  0
LINE
  8
MY3DLAYER
10
0.518774580828549
20
-1.04418578197631
30
0.499042301280631
11
0.518742427160394
21
-1.04420587807361
31
0.624308491504563
  0
LINE
  8
MY3DLAYER
10
0.531718754468721
20
-1.05411819563305
30
0.499044030397738
11
0.531686600800567
21
-1.05413829173035
31
0.62431022062167
  0
LINE
  8
MY3DLAYER
10
0.508842166838173
20
-1.0312416084853
30
0.499041828398256
11
0.508810013170019
21
-1.03126170458259
31
0.624308018622188
  0
LINE
  8
MY3DLAYER
10
0.502598390096949
20
-1.01616779919215
30
0.499042643976767
11
0.502566236428794
21
-1.01618789528945
31
0.624308834200698
  0
LINE
  8
MY3DLAYER
10
0.502598390096949
20
-1.01616779919215
30
0.499042643976767
11
0.508842166838173
21
-1.0312416084853
31
0.499041828398256
  0
LINE
  8
MY3DLAYER
10
0.531718754468773
20
-0.429118176076441
30
0.499245878172921
11
0.531686654213878
21
-0.429138238790362
31
0.624303977811878
  0
LINE
  8
MY3DLAYER
10
0.5187745808286
20
-0.419185762419701
30
0.499244149055813
11
0.518742480573706
21
-0.419205825133622
31
0.62430224869477
  0
LINE
  8
MY3DLAYER
10
0.502598388764717
20
-0.983815419386985
30
0.49904783417636
11
0.502566235096562
21
-0.983835515484283
31
0.624314024400292
  0
LINE
  8
MY3DLAYER
10
0.500468753671461
20
-0.999991609289573
30
0.499044692435835
11
0.500436600003307
21
-1.00001170538687
31
0.624310882659767
  0
LINE
  8
MY3DLAYER
10
0.508842164264499
20
-0.968741610093851
30
0.499051855093918
11
0.508810010596344
21
-0.968761706191148
31
0.624318045317849
  0
LINE
  8
MY3DLAYER
10
0.546792563716372
20
-1.0603619718789
30
0.499046897913105
11
0.546760410048217
21
-1.0603820679762
31
0.624313088137037
  0
LINE
  8
MY3DLAYER
10
0.562968753381921
20
-1.06249160768102
30
0.499050708410298
11
0.562936599713766
21
-1.06251170377832
31
0.62431689863423
  0
LINE
  8
MY3DLAYER
10
0.562968748234571
20
-0.93749161089813
30
0.499070761801621
11
0.562936594566417
21
-0.937511706995429
31
0.624336952025553
  0
LINE
  8
MY3DLAYER
10
0.546792558744415
20
-0.939621246700254
30
0.499066268001689
11
0.54676040507626
21
-0.939641342797552
31
0.624332458225621
  0
LINE
  8
MY3DLAYER
10
0.57914493790012
20
-0.939621246700257
30
0.499074572298814
11
0.579112784231966
21
-0.939641342797554
31
0.624340762522746
  0
LINE
  8
MY3DLAYER
10
0.594218747147771
20
-0.945865022946102
30
0.499077439814181
11
0.594186593479616
21
-0.9458851190434
31
0.624343630038113
  0
LINE
  8
MY3DLAYER
10
0.623339111519543
20
-0.983815419387
30
0.499078826235153
11
0.623306957851389
21
-0.983835515484298
31
0.624345016459085
  0
LINE
  8
MY3DLAYER
10
0.617095334778319
20
-0.968741610093855
30
0.499079641813664
11
0.617063181110164
21
-0.968761706191152
31
0.624345832037595
  0
LINE
  8
MY3DLAYER
10
0.625468747945031
20
-0.999991609289584
30
0.499076777776085
11
0.625436594276876
21
-1.00001170538688
31
0.624342968000017
  0
LINE
  8
MY3DLAYER
10
0.623339111519543
20
-0.983815419387
30
0.499078826235153
11
0.625468747945031
21
-0.999991609289584
31
0.499076777776085
  0
LINE
  8
MY3DLAYER
10
0.518774577188823
20
-0.955797436602831
30
0.499056481169621
11
0.518742423520669
21
-0.955817532700129
31
0.624322671393553
  0
LINE
  8
MY3DLAYER
10
0.531718750010986
20
-0.945865022946097
30
0.499061397144056
11
0.531686596342832
21
-0.945885119043392
31
0.624327587367988
  0
LINE
  8
MY3DLAYER
10
0.607162924427669
20
-1.04418578197632
30
0.499064989042299
11
0.607130770759515
21
-1.04420587807362
31
0.624331179266231
  0
LINE
  8
MY3DLAYER
10
0.617095337351994
20
-1.0312416084853
30
0.499069615118002
11
0.617063183683839
21
-1.0312617045826
31
0.624335805341934
  0
LINE
  8
MY3DLAYER
10
0.594218751605506
20
-1.05411819563306
30
0.499060073067864
11
0.594186597937351
21
-1.05413829173036
31
0.624326263291795
  0
LINE
  8
MY3DLAYER
10
0.579144942872078
20
-1.0603619718789
30
0.499055202210231
11
0.579112789203923
21
-1.0603820679762
31
0.624321392434163
  0
LINE
  8
MY3DLAYER
10
0.508842166838224
20
-0.406241588928684
30
0.499243676173439
11
0.50881006658333
21
-0.406261651642604
31
0.624301775812395
  0
LINE
  8
MY3DLAYER
10
0.502598390097
20
-0.391167779635543
30
0.499244491751949
11
0.502566289842106
21
-0.391187842349464
31
0.624302591390906
  0
LINE
  8
MY3DLAYER
10
0.607162920787944
20
-0.955797436602842
30
0.499079168931289
11
0.607130767119789
21
-0.95581753270014
31
0.624345359155221
  0
LINE
  8
MY3DLAYER
10
0.623339112851775
20
-1.01616779919217
30
0.49907363603556
11
0.623306959183621
21
-1.01618789528946
31
0.624339826259492
  0
LINE
  8
MY3DLAYER
10
0.50884216426455
20
-0.343741590537238
30
0.4992537028691
11
0.508810064009656
21
-0.343761653251158
31
0.624311802508057
  0
LINE
  8
MY3DLAYER
10
0.502598388764768
20
-0.358815399830377
30
0.499249681951543
11
0.50884216426455
21
-0.343741590537238
31
0.4992537028691
  0
LINE
  8
MY3DLAYER
10
0.502598388764768
20
-0.358815399830377
30
0.499249681951543
11
0.502566288509874
21
-0.358835462544298
31
0.624307781590499
  0
LINE
  8
MY3DLAYER
10
0.518774577188875
20
-0.330797417046222
30
0.499258328944804
11
0.51874247693398
21
-0.330817479760142
31
0.624316428583761
  0
LINE
  8
MY3DLAYER
10
0.60716292442772
20
-0.419185762419709
30
0.499266836817481
11
0.607130824172826
21
-0.419205825133629
31
0.624324936456438
  0
LINE
  8
MY3DLAYER
10
0.617095337352045
20
-0.406241588928693
30
0.499271462893185
11
0.617063237097151
21
-0.406261651642613
31
0.624329562532141
  0
LINE
  8
MY3DLAYER
10
0.546792558744466
20
-0.314621227143641
30
0.499268115776872
11
0.546760458489572
21
-0.314641289857562
31
0.624326215415828
  0
LINE
  8
MY3DLAYER
10
0.531718750011038
20
-0.320865003389484
30
0.499263244919239
11
0.531686649756144
21
-0.320885066103405
31
0.624321344558195
  0
LINE
  8
MY3DLAYER
10
0.562968748234623
20
-0.312491591341519
30
0.499272609576804
11
0.562936647979729
21
-0.31251165405544
31
0.624330709215761
  0
LINE
  8
MY3DLAYER
10
0.579144937900172
20
-0.314621227143644
30
0.499276420073997
11
0.579112837645278
21
-0.314641289857564
31
0.624334519712954
  0
LINE
  8
MY3DLAYER
10
0.500468753671513
20
-0.37499158973296
30
0.499246540211017
11
0.500436653416619
21
-0.375011652446881
31
0.624304639849974
  0
LINE
  8
MY3DLAYER
10
0.579144942872129
20
-0.435361952322289
30
0.499257049985413
11
0.579112842617235
21
-0.43538201503621
31
0.62431514962437
  0
LINE
  8
MY3DLAYER
10
0.171792467367448
20
-0.127121235387497
30
0.624320303387782
11
0.171792467367448
21
-0.12712161661358
31
0.499320303388364
  0
LINE
  8
MY3DLAYER
10
0.187968657686281
20
-0.124991599530585
30
0.6243202968928
11
0.187968657686281
21
-0.124991980756668
31
0.499320296893382
  0
LINE
  8
MY3DLAYER
10
0.187968657686281
20
-0.124991980756668
30
0.499320296893382
11
0.171792467367448
21
-0.12712161661358
31
0.499320303388364
  0
LINE
  8
MY3DLAYER
10
0.156718657686425
20
-0.133365011793977
30
0.624320322430105
11
0.156718657686425
21
-0.13336539302006
31
0.499320322430687
  0
LINE
  8
MY3DLAYER
10
0.594218751605557
20
-0.429118176076446
30
0.499261920843046
11
0.594186651350663
21
-0.429138238790367
31
0.624320020482003
  0
LINE
  8
MY3DLAYER
10
0.594218747147822
20
-0.320865003389489
30
0.499279287589364
11
0.594186646892928
21
-0.32088506610341
31
0.624337387228321
  0
LINE
  8
MY3DLAYER
10
0.607162920787995
20
-0.330797417046229
30
0.499281016706472
11
0.607130820533101
21
-0.33081747976015
31
0.624339116345428
  0
LINE
  8
MY3DLAYER
10
-4.21785065692971e-005
20
-0.344816917698017
30
0.0727347922944696
11
0.125073870089138
21
-0.344816926548214
31
0.0726341530408172
  0
LINE
  8
MY3DLAYER
10
-4.70303563397756e-005
20
-0.359376086805084
30
0.0667041889451875
11
0.125069018239368
21
-0.359376095655281
31
0.0666035496915351
  0
LINE
  8
MY3DLAYER
10
-4.86859858487716e-005
20
-0.374999999760313
30
0.064647262448855
11
0.125067362609859
21
-0.375000008610509
31
0.0645466231952027
  0
LINE
  8
MY3DLAYER
10
-4.70325666815866e-005
20
-0.390623912715542
30
0.0667041889469654
11
0.125069016029026
21
-0.390623921565738
31
0.0666035496933131
  0
LINE
  8
MY3DLAYER
10
-4.21827766219032e-005
20
-0.405183081822609
30
0.0727347922979042
11
0.125073865819086
21
-0.405183090672805
31
0.0726341530442519
  0
LINE
  8
MY3DLAYER
10
-3.44671208475322e-005
20
-0.417685323767031
30
0.0823280968493484
11
0.12508158147486
21
-0.417685332617228
31
0.0822274575956961
  0
LINE
  8
MY3DLAYER
10
-2.44114085488141e-005
20
-0.42727863142123
30
0.0948303347498021
11
0.125091637187159
21
-0.427278640271427
31
0.0947296954961497
  0
LINE
  8
MY3DLAYER
10
0.133842069950002
20
-0.15624159953029
30
0.624320392199321
11
0.133842069950002
21
-0.156241980756373
31
0.499320392199903
  0
LINE
  8
MY3DLAYER
10
0.143774483862325
20
-0.143297806932335
30
0.499320352722649
11
0.133842069950002
21
-0.156241980756373
31
0.499320392199903
  0
LINE
  8
MY3DLAYER
10
0.143774483862325
20
-0.143297425706252
30
0.624320352722068
11
0.143774483862325
21
-0.143297806932335
31
0.499320352722649
  0
LINE
  8
MY3DLAYER
10
0.127598293543491
20
-0.171315409211242
30
0.624320438171556
11
0.127598293543491
21
-0.171315790437325
31
0.499320438172138
  0
LINE
  8
MY3DLAYER
10
0.133842069950002
20
-0.156241980756373
30
0.499320392199903
11
0.127598293543491
21
-0.171315790437325
31
0.499320438172138
  0
LINE
  8
MY3DLAYER
10
0.125468657686566
20
-0.187491599529999
30
0.624320487505842
11
0.125468657686566
21
-0.187491980756082
31
0.499320487506423
  0
LINE
  8
MY3DLAYER
10
0.127598293543491
20
-0.171315790437325
30
0.499320438172138
11
0.125468657686566
21
-0.187491980756082
31
0.499320487506423
  0
LINE
  8
MY3DLAYER
10
0.127598293543488
20
-0.203667789848756
30
0.624320536840127
11
0.127598293543488
21
-0.203668171074839
31
0.499320536840709
  0
LINE
  8
MY3DLAYER
10
0.171792467367448
20
-0.12712161661358
30
0.499320303388364
11
0.156718657686425
21
-0.13336539302006
31
0.499320322430687
  0
LINE
  8
MY3DLAYER
10
0.156718657686425
20
-0.13336539302006
30
0.499320322430687
11
0.143774483862325
21
-0.143297806932335
31
0.499320352722649
  0
LINE
  8
MY3DLAYER
10
0.156718657686416
20
-0.241618568492108
30
0.499320652582159
11
0.171792467367438
21
-0.247862344898591
31
0.499320671624483
  0
LINE
  8
MY3DLAYER
10
0.18796865768627
20
-0.249991599529423
30
0.624320678118883
11
0.18796865768627
21
-0.249991980755505
31
0.499320678119464
  0
LINE
  8
MY3DLAYER
10
0.171792467367438
20
-0.247862344898591
30
0.499320671624483
11
0.18796865768627
21
-0.249991980755505
31
0.499320678119464
  0
LINE
  8
MY3DLAYER
10
0.171792467367438
20
-0.247861963672508
30
0.624320671623901
11
0.171792467367438
21
-0.247862344898591
31
0.499320671624483
  0
LINE
  8
MY3DLAYER
10
0.204144848005103
20
-0.24786196367251
30
0.624320671623901
11
0.204144848005103
21
-0.247862344898593
31
0.499320671624483
  0
LINE
  8
MY3DLAYER
10
0.18796865768627
20
-0.249991980755505
30
0.499320678119464
11
0.204144848005103
21
-0.247862344898593
31
0.499320671624483
  0
LINE
  8
MY3DLAYER
10
0.219218657686126
20
-0.24161818726603
30
0.624320652581578
11
0.219218657686126
21
-0.241618568492113
31
0.499320652582159
  0
LINE
  8
MY3DLAYER
10
0.204144848005103
20
-0.247862344898593
30
0.499320671624483
11
0.219218657686126
21
-0.241618568492113
31
0.499320652582159
  0
LINE
  8
MY3DLAYER
10
0.125468657686566
20
-0.187491980756082
30
0.499320487506423
11
0.127598293543488
21
-0.203668171074839
31
0.499320536840709
  0
LINE
  8
MY3DLAYER
10
0.133842069949997
20
-0.218741599529709
30
0.624320582812362
11
0.133842069949997
21
-0.218741980755792
31
0.499320582812944
  0
LINE
  8
MY3DLAYER
10
0.127598293543488
20
-0.203668171074839
30
0.499320536840709
11
0.133842069949997
21
-0.218741980755792
31
0.499320582812944
  0
LINE
  8
MY3DLAYER
10
0.143774483862318
20
-0.231685773353748
30
0.624320622289616
11
0.143774483862318
21
-0.231686154579831
31
0.499320622290197
  0
LINE
  8
MY3DLAYER
10
0.133842069949997
20
-0.218741980755792
30
0.499320582812944
11
0.143774483862318
21
-0.231686154579831
31
0.499320622290197
  0
LINE
  8
MY3DLAYER
10
0.156718657686416
20
-0.241618187266025
30
0.624320652581578
11
0.156718657686416
21
-0.241618568492108
31
0.499320652582159
  0
LINE
  8
MY3DLAYER
10
0.143774483862318
20
-0.231686154579831
30
0.499320622290197
11
0.156718657686416
21
-0.241618568492108
31
0.499320652582159
  0
LINE
  8
MY3DLAYER
10
0.248339021829063
20
-0.171315790437335
30
0.499320438172138
11
0.242095245422554
21
-0.156241980756382
31
0.499320392199903
  0
LINE
  8
MY3DLAYER
10
0.232162831510233
20
-0.143297425706259
30
0.624320352722068
11
0.232162831510233
21
-0.143297806932342
31
0.499320352722649
  0
LINE
  8
MY3DLAYER
10
0.242095245422554
20
-0.156241980756382
30
0.499320392199903
11
0.232162831510233
21
-0.143297806932342
31
0.499320352722649
  0
LINE
  8
MY3DLAYER
10
0.242095245422554
20
-0.156241599530299
30
0.624320392199321
11
0.242095245422554
21
-0.156241980756382
31
0.499320392199903
  0
LINE
  8
MY3DLAYER
10
0.219218657686135
20
-0.133365011793982
30
0.624320322430105
11
0.219218657686135
21
-0.133365393020065
31
0.499320322430687
  0
LINE
  8
MY3DLAYER
10
0.232162831510233
20
-0.143297806932342
30
0.499320352722649
11
0.219218657686135
21
-0.133365393020065
31
0.499320322430687
  0
LINE
  8
MY3DLAYER
10
0.204144848005113
20
-0.1271212353875
30
0.624320303387782
11
0.204144848005113
21
-0.127121616613583
31
0.499320303388364
  0
LINE
  8
MY3DLAYER
10
0.219218657686135
20
-0.133365393020065
30
0.499320322430687
11
0.204144848005113
21
-0.127121616613583
31
0.499320303388364
  0
LINE
  8
MY3DLAYER
10
0.232162831510225
20
-0.231685773353756
30
0.624320622289616
11
0.232162831510225
21
-0.231686154579839
31
0.499320622290197
  0
LINE
  8
MY3DLAYER
10
0.219218657686126
20
-0.241618568492113
30
0.499320652582159
11
0.232162831510225
21
-0.231686154579839
31
0.499320622290197
  0
LINE
  8
MY3DLAYER
10
0.242095245422548
20
-0.218741599529718
30
0.624320582812362
11
0.242095245422548
21
-0.218741980755801
31
0.499320582812944
  0
LINE
  8
MY3DLAYER
10
0.232162831510225
20
-0.231686154579839
30
0.499320622290197
11
0.242095245422548
21
-0.218741980755801
31
0.499320582812944
  0
LINE
  8
MY3DLAYER
10
0.24833902182906
20
-0.203667789848766
30
0.624320536840127
11
0.24833902182906
21
-0.203668171074849
31
0.499320536840709
  0
LINE
  8
MY3DLAYER
10
0.242095245422548
20
-0.218741980755801
30
0.499320582812944
11
0.24833902182906
21
-0.203668171074849
31
0.499320536840709
  0
LINE
  8
MY3DLAYER
10
0.250468657685985
20
-0.187491599530009
30
0.624320487505842
11
0.250468657685985
21
-0.187491980756092
31
0.499320487506423
  0
LINE
  8
MY3DLAYER
10
0.24833902182906
20
-0.203668171074849
30
0.499320536840709
11
0.250468657685985
21
-0.187491980756092
31
0.499320487506423
  0
LINE
  8
MY3DLAYER
10
0.171792132427291
20
-1.24786234487349
30
0.499324865111392
11
0.187968322746198
21
-1.24999198073041
31
0.499324871606374
  0
LINE
  8
MY3DLAYER
10
0.187968322746198
20
-1.24999198073041
30
0.499324871606374
11
0.204144513065106
21
-1.24786234487349
31
0.499324865111392
  0
LINE
  8
MY3DLAYER
10
0.204144513065106
20
-1.24786234487349
30
0.499324865111392
11
0.219218322746199
21
-1.24161856846698
31
0.499324846069068
  0
LINE
  8
MY3DLAYER
10
0.219218322746199
20
-1.24161856846698
30
0.499324846069068
11
0.232162496570359
21
-1.23168615455466
31
0.499324815777107
  0
LINE
  8
MY3DLAYER
10
0.232162496570359
20
-1.23168615455466
30
0.499324815777107
11
0.237435458953525
21
-1.22481429618691
31
0.499324794819253
  0
LINE
  8
MY3DLAYER
10
0.242094910482728
20
-1.21874198073056
30
0.499324776299853
11
0.248338686889269
21
-1.20366817104954
31
0.499324730327618
  0
LINE
  8
MY3DLAYER
10
0.248338686889269
20
-1.20366817104954
30
0.499324730327618
11
0.250468322746203
21
-1.18749198073071
31
0.499324680993332
  0
LINE
  8
MY3DLAYER
10
0.250468322746203
20
-1.18749159950463
30
0.624324680992751
11
0.250468322746203
21
-1.18749198073071
31
0.499324680993332
  0
LINE
  8
MY3DLAYER
10
0.248338686889271
20
-1.17131540918579
30
0.624324631658466
11
0.248338686889271
21
-1.17131579041188
31
0.499324631659047
  0
LINE
  8
MY3DLAYER
10
0.250468322746203
20
-1.18749198073071
30
0.499324680993332
11
0.248338686889271
21
-1.17131579041188
31
0.499324631659047
  0
LINE
  8
MY3DLAYER
10
0.242094910482733
20
-1.15624159950477
30
0.62432458568623
11
0.242094910482733
21
-1.15624198073085
31
0.499324585686812
  0
LINE
  8
MY3DLAYER
10
0.248338686889271
20
-1.17131579041188
30
0.499324631659047
11
0.242094910482733
21
-1.15624198073085
31
0.499324585686812
  0
LINE
  8
MY3DLAYER
10
0.232162496570366
20
-1.14329742568067
30
0.624324546208977
11
0.232162496570366
21
-1.14329780690675
31
0.499324546209558
  0
LINE
  8
MY3DLAYER
10
0.242094910482733
20
-1.15624198073085
30
0.499324585686812
11
0.232162496570366
21
-1.14329780690675
31
0.499324546209558
  0
LINE
  8
MY3DLAYER
10
0.248339021829063
20
-0.171315409211252
30
0.624320438171556
11
0.248339021829063
21
-0.171315790437335
31
0.499320438172138
  0
LINE
  8
MY3DLAYER
10
0.250468657685985
20
-0.187491980756092
30
0.499320487506423
11
0.248339021829063
21
-0.171315790437335
31
0.499320438172138
  0
LINE
  8
MY3DLAYER
10
0.204144848005113
20
-0.127121616613583
30
0.499320303388364
11
0.187968657686281
21
-0.124991980756668
31
0.499320296893382
  0
LINE
  8
MY3DLAYER
10
0.187968322746208
20
-1.12499159950491
30
0.62432449037971
11
0.187968322746208
21
-1.12499198073099
31
0.499324490380291
  0
LINE
  8
MY3DLAYER
10
0.204144513065116
20
-1.12712161658792
30
0.499324496875273
11
0.187968322746208
21
-1.12499198073099
31
0.499324490380291
  0
LINE
  8
MY3DLAYER
10
0.204144513065116
20
-1.12712123536184
30
0.624324496874691
11
0.204144513065116
21
-1.12712161658792
31
0.499324496875273
  0
LINE
  8
MY3DLAYER
10
0.171792132427301
20
-1.12712123536183
30
0.624324496874691
11
0.171792132427301
21
-1.12712161658792
31
0.499324496875273
  0
LINE
  8
MY3DLAYER
10
0.187968322746208
20
-1.12499198073099
30
0.499324490380291
11
0.171792132427301
21
-1.12712161658792
31
0.499324496875273
  0
LINE
  8
MY3DLAYER
10
0.156718322746208
20
-1.13336501176834
30
0.624324515917015
11
0.156718322746208
21
-1.13336539299443
31
0.499324515917596
  0
LINE
  8
MY3DLAYER
10
0.171792132427301
20
-1.12712161658792
30
0.499324496875273
11
0.156718322746208
21
-1.13336539299443
31
0.499324515917596
  0
LINE
  8
MY3DLAYER
10
0.143774148922048
20
-1.14329742568066
30
0.624324546208977
11
0.143774148922048
21
-1.14329780690675
31
0.499324546209558
  0
LINE
  8
MY3DLAYER
10
0.156718322746208
20
-1.13336539299443
30
0.499324515917596
11
0.143774148922048
21
-1.14329780690675
31
0.499324546209558
  0
LINE
  8
MY3DLAYER
10
0.232162496570366
20
-1.14329780690675
30
0.499324546209558
11
0.219218322746208
21
-1.13336539299443
31
0.499324515917596
  0
LINE
  8
MY3DLAYER
10
0.219218322746208
20
-1.13336539299443
30
0.499324515917596
11
0.204144513065116
21
-1.12712161658792
31
0.499324496875273
  0
LINE
  8
MY3DLAYER
10
0.143774148922048
20
-1.14329780690675
30
0.499324546209558
11
0.133841735009678
21
-1.15624198073084
31
0.499324585686812
  0
LINE
  8
MY3DLAYER
10
0.133841735009678
20
-1.15624198073084
30
0.499324585686812
11
0.127597958603138
21
-1.17131579041187
31
0.499324631659047
  0
LINE
  8
MY3DLAYER
10
0.127597958603138
20
-1.17131579041187
30
0.499324631659047
11
0.125468322746203
21
-1.1874919807307
31
0.499324680993332
  0
LINE
  8
MY3DLAYER
10
0.125468322746203
20
-1.1874919807307
30
0.499324680993332
11
0.127597958603135
21
-1.20366817104953
31
0.499324730327618
  0
LINE
  8
MY3DLAYER
10
0.127597958603135
20
-1.20366817104953
30
0.499324730327618
11
0.133841735009673
21
-1.21874198073055
31
0.499324776299853
  0
LINE
  8
MY3DLAYER
10
0.133841735009673
20
-1.21874198073055
30
0.499324776299853
11
0.14377414892204
21
-1.23168615455465
31
0.499324815777107
  0
LINE
  8
MY3DLAYER
10
0.14377414892204
20
-1.23168615455465
30
0.499324815777107
11
0.156718322746199
21
-1.24161856846698
31
0.499324846069068
  0
LINE
  8
MY3DLAYER
10
0.156718322746199
20
-1.24161856846698
30
0.499324846069068
11
0.171792132427291
21
-1.24786234487349
31
0.499324865111392
  0
LINE
  8
MY3DLAYER
10
0.187968322746198
20
-1.24999159950433
30
0.624324871605792
11
0.187968322746198
21
-1.24999198073041
31
0.499324871606374
  0
LINE
  8
MY3DLAYER
10
0.171792132427291
20
-1.24786196364741
30
0.62432486511081
11
0.171792132427291
21
-1.24786234487349
31
0.499324865111392
  0
LINE
  8
MY3DLAYER
10
0.204144513065106
20
-1.24786196364741
30
0.62432486511081
11
0.204144513065106
21
-1.24786234487349
31
0.499324865111392
  0
LINE
  8
MY3DLAYER
10
0.219218322746199
20
-1.2416181872409
30
0.624324846068487
11
0.219218322746199
21
-1.24161856846698
31
0.499324846069068
  0
LINE
  8
MY3DLAYER
10
0.232162496570359
20
-1.23168577332858
30
0.624324815776525
11
0.232162496570359
21
-1.23168615455466
31
0.499324815777107
  0
LINE
  8
MY3DLAYER
10
0.219218322746208
20
-1.13336501176835
30
0.624324515917015
11
0.219218322746208
21
-1.13336539299443
31
0.499324515917596
  0
LINE
  8
MY3DLAYER
10
0.133841735009678
20
-1.15624159950476
30
0.62432458568623
11
0.133841735009678
21
-1.15624198073084
31
0.499324585686812
  0
LINE
  8
MY3DLAYER
10
0.127597958603138
20
-1.17131540918578
30
0.624324631658466
11
0.127597958603138
21
-1.17131579041187
31
0.499324631659047
  0
LINE
  8
MY3DLAYER
10
0.125468322746203
20
-1.18749159950462
30
0.624324680992751
11
0.125468322746203
21
-1.1874919807307
31
0.499324680993332
  0
LINE
  8
MY3DLAYER
10
2.41451419991039e-005
20
-0.42727863142123
30
0.155196479345747
11
0.125140193737707
21
-0.427278640271427
31
0.155095840092095
  0
LINE
  8
MY3DLAYER
10
1.24338001913897e-005
20
-0.43330923672226
30
0.140637314948961
11
0.125128482395899
21
-0.433309245572457
31
0.140536675695309
  0
LINE
  8
MY3DLAYER
10
3.42022114795437e-005
20
-0.417685323767031
30
0.16769871724511
11
0.125150250807187
21
-0.417685332617228
31
0.167598077991457
  0
LINE
  8
MY3DLAYER
10
4.19196359675897e-005
20
-0.405183081822609
30
0.177292021795131
11
0.125157968231675
21
-0.405183090672805
31
0.177191382541479
  0
LINE
  8
MY3DLAYER
10
4.67714857380682e-005
20
-0.390623912715542
30
0.183322625144413
11
0.125162820081446
21
-0.390623921565738
31
0.183221985890761
  0
LINE
  8
MY3DLAYER
10
4.84271152470643e-005
20
-0.374999999760313
30
0.185379551640745
11
0.125164475710955
21
-0.375000008610509
31
0.185278912387093
  0
LINE
  8
MY3DLAYER
10
4.67736960798793e-005
20
-0.359376086805084
30
0.183322625142635
11
0.125162822291788
21
-0.359376095655281
31
0.183221985888983
  0
LINE
  8
MY3DLAYER
10
0.127597958603135
20
-1.20366778982345
30
0.624324730327036
11
0.127597958603135
21
-1.20366817104953
31
0.499324730327618
  0
LINE
  8
MY3DLAYER
10
0.133841735009673
20
-1.21874159950447
30
0.624324776299272
11
0.133841735009673
21
-1.21874198073055
31
0.499324776299853
  0
LINE
  8
MY3DLAYER
10
0.14377414892204
20
-1.23168577332857
30
0.624324815776525
11
0.14377414892204
21
-1.23168615455465
31
0.499324815777107
  0
LINE
  8
MY3DLAYER
10
0.156718322746199
20
-1.24161818724089
30
0.624324846068487
11
0.156718322746199
21
-1.24161856846698
31
0.499324846069068
  0
LINE
  8
MY3DLAYER
10
0.242094910482728
20
-1.21874159950448
30
0.624324776299272
11
0.242094910482728
21
-1.21874198073056
31
0.499324776299853
  0
LINE
  8
MY3DLAYER
10
1.24420492994819e-005
20
-0.316690762798365
30
0.140637314942326
11
0.125128490645007
21
-0.316690771648562
31
0.140536675688674
  0
LINE
  8
MY3DLAYER
10
2.41525379471067e-005
20
-0.322721368099395
30
0.155196479339798
11
0.125140201133655
21
-0.322721376949592
31
0.155095840086146
  0
LINE
  8
MY3DLAYER
10
-1.25165248247547e-007
20
-0.314633835635721
30
0.125013407041366
11
0.125115923430459
21
-0.314633844485918
31
0.124912767787713
  0
LINE
  8
MY3DLAYER
10
-1.2692670793097e-005
20
-0.316690762798365
30
0.109389499140639
11
0.125103355924915
21
-0.316690771648562
31
0.109288859886987
  0
LINE
  8
MY3DLAYER
10
-2.44040126008113e-005
20
-0.322721368099395
30
0.0948303347438531
11
0.125091644583107
21
-0.322721376949592
31
0.0947296954902007
  0
LINE
  8
MY3DLAYER
10
-3.44610820812511e-005
20
-0.332314675753594
30
0.0823280968444909
11
0.125081587513626
21
-0.33231468460379
31
0.0822274575908386
  0
LINE
  8
MY3DLAYER
10
0.237435458953525
20
-1.22481429618691
30
0.499324794819253
11
0.242094910482728
21
-1.21874198073056
31
0.499324776299853
  0
LINE
  8
MY3DLAYER
10
0.248338686889269
20
-1.20366778982346
30
0.624324730327036
11
0.248338686889269
21
-1.20366817104954
31
0.499324730327618
  0
LINE
  8
MY3DLAYER
10
-1.33705353459817e-007
20
-0.435366163884904
30
0.125013407048235
11
0.125115914890354
21
-0.435366172735101
31
0.124912767794583
  0
LINE
  8
MY3DLAYER
10
-1.27009199011892e-005
20
-0.43330923672226
30
0.109389499147275
11
0.125103347675807
21
-0.433309245572457
31
0.109288859893622
  0
LINE
  8
MY3DLAYER
10
-3.4525882889751e-007
20
-1.06036594152102
30
0.141212162804467
11
0.125158994369171
21
-1.060365941521
31
0.141212163576997
  0
LINE
  8
MY3DLAYER
10
-3.4515898160877e-007
20
-1.06249560641439
30
0.125035751931944
11
0.125158994469019
21
-1.06249560641437
31
0.125035752704475
  0
LINE
  8
MY3DLAYER
10
-3.45351872401693e-007
20
-1.05412207998396
30
0.15628617800881
11
0.125158994276128
21
-1.05412207998395
31
0.15628617878134
  0
LINE
  8
MY3DLAYER
10
-3.45431771450524e-007
20
-1.0441895306485
30
0.169230528319785
11
0.125158994196229
21
-1.04418953064848
31
0.169230529092316
  0
LINE
  8
MY3DLAYER
10
4.19239060201958e-005
20
-0.344816917698017
30
0.177292021791696
11
0.125157972501728
21
-0.344816926548214
31
0.177191382538044
  0
LINE
  8
MY3DLAYER
10
3.42082502458249e-005
20
-0.332314675753594
30
0.167698717240252
11
0.125150256845954
21
-0.332314684603791
31
0.1675980779866
  0
LINE
  8
MY3DLAYER
10
-3.45493091088185e-007
20
-0.968744328183792
30
0.179163077655251
11
0.125158994134909
21
-0.968744328183773
31
0.179163078427781
  0
LINE
  8
MY3DLAYER
10
-3.45531628167264e-007
20
-0.983818343388136
30
0.185406939192308
11
0.125158994096372
21
-0.983818343388116
31
0.185406939964839
  0
LINE
  8
MY3DLAYER
10
-3.45431785730208e-007
20
-0.955799977872816
30
0.169230528319785
11
0.125158994196214
21
-0.955799977872797
31
0.169230529092316
  0
LINE
  8
MY3DLAYER
10
-3.45351889935015e-007
20
-0.945867428537351
30
0.15628617800881
11
0.12515899427611
21
-0.945867428537332
31
0.15628617878134
  0
LINE
  8
MY3DLAYER
10
-3.45258848513952e-007
20
-0.939623567000294
30
0.141212162804467
11
0.125158994369152
21
-0.939623567000275
31
0.141212163576997
  0
LINE
  8
MY3DLAYER
10
-3.45159001985654e-007
20
-0.937493902106926
30
0.125035751931944
11
0.125158994468998
21
-0.937493902106906
31
0.125035752704475
  0
LINE
  8
MY3DLAYER
10
-3.45059154696914e-007
20
-0.939623567000294
30
0.108859341059421
11
0.125158994568845
21
-0.939623567000275
31
0.108859341831952
  0
LINE
  8
MY3DLAYER
10
-3.44966111192731e-007
20
-0.945867428537351
30
0.0937853258550782
11
0.125158994661889
21
-0.945867428537332
31
0.0937853266276087
  0
LINE
  8
MY3DLAYER
10
-3.448862121439e-007
20
-0.955799977872816
30
0.0808409755441025
11
0.125158994741788
21
-0.955799977872797
31
0.0808409763166331
  0
LINE
  8
MY3DLAYER
10
-3.44824902694681e-007
20
-0.968744328183792
30
0.070908426208637
11
0.125158994803097
21
-0.968744328183773
31
0.0709084269811676
  0
LINE
  8
MY3DLAYER
10
-3.44786360763918e-007
20
-0.983818343388135
30
0.0646645646715799
11
0.125158994841639
21
-0.983818343388116
31
0.0646645654441105
  0
LINE
  8
MY3DLAYER
10
-3.44773213054927e-007
20
-0.999994754260658
30
0.0625348997782124
11
0.125158994854787
21
-0.999994754260639
31
0.062534900550743
  0
LINE
  8
MY3DLAYER
10
-3.4478635542716e-007
20
-1.01617116513318
30
0.0646645646715799
11
0.125158994841645
21
-1.01617116513316
31
0.0646645654441105
  0
LINE
  8
MY3DLAYER
10
-3.44824892506238e-007
20
-1.03124518033752
30
0.070908426208637
11
0.125158994803108
21
-1.0312451803375
31
0.0709084269811676
  0
LINE
  8
MY3DLAYER
10
-3.45493080899743e-007
20
-1.03124518033752
30
0.179163077655251
11
0.125158994134919
21
-1.0312451803375
31
0.179163078427781
  0
LINE
  8
MY3DLAYER
10
-3.45531622830506e-007
20
-1.01617116513318
30
0.185406939192308
11
0.125158994096377
21
-1.01617116513316
31
0.185406939964839
  0
LINE
  8
MY3DLAYER
10
-3.45544770539496e-007
20
-0.999994754260658
30
0.187536604085676
11
0.12515899408323
21
-0.999994754260639
31
0.187536604858206
  0
LINE
  8
MY3DLAYER
10
-3.44886197864216e-007
20
-1.0441895306485
30
0.0808409755441025
11
0.125158994741802
21
-1.04418953064848
31
0.0808409763166331
  0
LINE
  8
MY3DLAYER
10
-3.44966093659408e-007
20
-1.05412207998396
30
0.0937853258550782
11
0.125158994661907
21
-1.05412207998395
31
0.0937853266276087
  0
LINE
  8
MY3DLAYER
10
-3.45059135080472e-007
20
-1.06036594152102
30
0.108859341059421
11
0.125158994568865
21
-1.060365941521
31
0.108859341831952
  0
LINE
  8
MY3DLAYER
10
0.125468322746203
20
-1.1874919807307
30
0.499324680993332
11
0.237435458953525
21
-1.22481429618691
31
0.499324794819253
  0
LINE
  8
MY3DLAYER
10
0.687968657686291
20
8.40047007499845e-006
30
0.499320487505842
11
0.125468657686566
21
-0.187491980756082
31
0.499320487506423
  0
LINE
  8
MY3DLAYER
10
0.687968322746287
20
-1.37499159950454
30
0.499001724562677
11
0.625468747945082
21
-0.37499158973297
31
0.499278625551268
  0
LINE
  8
MY3DLAYER
10
0.500468753671513
20
-0.37499158973296
30
0.499246540211017
11
0.502598388764717
21
-0.983815419386985
31
0.49904783417636
  0
LINE
  8
MY3DLAYER
10
0.502598390097
20
-0.391167779635543
30
0.499244491751949
11
0.502598388764717
21
-0.983815419386985
31
0.49904783417636
  0
LINE
  8
MY3DLAYER
10
0.623339112851827
20
-0.391167779635553
30
0.499275483810742
11
0.623339111519543
21
-0.983815419387
31
0.499078826235153
  0
LINE
  8
MY3DLAYER
10
0.237435458953525
20
-1.22481429618691
30
0.499324794819253
11
0.687968322746287
21
-1.37499159950454
31
0.499001724562677
  0
LINE
  8
MY3DLAYER
10
0.625468747945082
20
-0.37499158973297
30
0.499278625551268
11
0.625468747945031
21
-0.999991609289584
31
0.499076777776085
  0
LINE
  8
MY3DLAYER
10
0.508842166838173
20
-1.0312416084853
30
0.499041828398256
11
0.687968322746287
21
-1.37499159950454
31
0.499001724562677
  0
LINE
  8
MY3DLAYER
10
0.623339112851827
20
-0.391167779635553
30
0.499275483810742
11
0.625468747945031
21
-0.999991609289584
31
0.499076777776085
  0
ENDSEC
  0
EOF
