 0
SECTION
 2
ENTITIES
  0
LINE
  8
MY3DLAYER
10
-0.53661165235169
20
0.380361652350426
30
-9.05845697388684e-014
11
-0.516746824526955
21
0.406249999998746
31
-9.64965073449974e-014
  0
LINE
  8
MY3DLAYER
10
-0.516746824526955
20
0.406249999998746
30
-9.64965073449974e-014
11
-0.504259271713878
21
0.436397619360932
31
-1.03490912400136e-013
  0
LINE
  8
MY3DLAYER
10
-0.504259271713878
20
0.436397619360932
30
-1.03490912400136e-013
11
-0.500000000000015
21
0.468749999998747
31
-1.11012673391971e-013
  0
LINE
  8
MY3DLAYER
10
-0.500000000000015
20
0.468749999998747
30
-1.11012673391971e-013
11
-0.504259271713883
21
0.501102380636562
31
-1.18589945535038e-013
  0
LINE
  8
MY3DLAYER
10
-0.504259271713883
20
0.501102380636562
30
-1.18589945535038e-013
11
-0.516746824526965
21
0.531249999998746
31
-1.25695372892639e-013
  0
LINE
  8
MY3DLAYER
10
-0.516746824526965
20
0.531249999998746
30
-1.25695372892639e-013
11
-0.536611652351703
21
0.557138347647063
31
-1.31857110679309e-013
  0
LINE
  8
MY3DLAYER
10
-0.536611652351703
20
0.557138347647063
30
-1.31857110679309e-013
11
-0.562500000000023
21
0.577003175471798
31
-1.36658825260812e-013
  0
LINE
  8
MY3DLAYER
10
-0.562500000000023
20
0.577003175471798
30
-1.36658825260812e-013
11
-0.592647619362209
21
0.589490728284874
31
-1.39739694154147e-013
  0
LINE
  8
MY3DLAYER
10
-2.51363458347225e-014
20
0.640224805741855
30
0.534261016329929
11
-2.55098703218865e-014
21
0.650873357548852
31
0.546622764852302
  0
LINE
  8
MY3DLAYER
10
-6.42706658000397e-015
20
0.228826326941543
30
0.439629635856879
11
-5.71376335895596e-015
21
0.213752517260453
31
0.445873412263422
  0
LINE
  8
MY3DLAYER
10
-1.00000000000003
20
0.937499999997484
30
-2.2521723797974e-013
11
-3.01980662697858e-014
21
0.937499999997517
31
-2.19888167461539e-013
  0
LINE
  8
MY3DLAYER
10
-3.01980662697858e-014
20
0.937499999997517
30
-2.19888167461539e-013
11
4.03729782256544e-017
21
0.0
31
0.0
  0
LINE
  8
MY3DLAYER
10
-8.27231830702582e-015
20
0.299129104996985
30
0.468749999999927
11
-8.39786930035303e-015
21
0.289196691084614
31
0.455805826175771
  0
LINE
  8
MY3DLAYER
10
-8.39786930035303e-015
20
0.289196691084614
30
0.455805826175771
11
-7.4039938882794e-015
21
0.276252517260453
31
0.445873412263406
  0
LINE
  8
MY3DLAYER
10
-7.4039938882794e-015
20
0.276252517260453
30
0.445873412263406
11
-7.13477987708111e-015
21
0.261178707579358
31
0.439629635856871
  0
LINE
  8
MY3DLAYER
10
-7.13477987708111e-015
20
0.261178707579358
30
0.439629635856871
11
-6.7809232285425e-015
21
0.24500251726045
31
0.437499999999942
  0
LINE
  8
MY3DLAYER
10
-1
20
-3.24185123190546e-014
30
-5.32907051820075e-015
11
-1.00000000000003
21
0.937499999997484
31
-2.2521723797974e-013
  0
LINE
  8
MY3DLAYER
10
-6.7809232285425e-015
20
0.24500251726045
30
0.437499999999942
11
-6.42706658000397e-015
21
0.228826326941543
31
0.439629635856879
  0
LINE
  8
MY3DLAYER
10
4.03729782256544e-017
20
0.0
30
0.0
11
-1
21
-3.24185123190546e-014
31
-5.32907051820075e-015
  0
LINE
  8
MY3DLAYER
10
-2.61011949006226e-014
20
0.664358524700164
30
0.55580724899774
11
-0.125000000000026
21
0.66435852470016
31
0.55580724899774
  0
LINE
  8
MY3DLAYER
10
-0.125000000000026
20
0.650873357548847
30
0.546622764852302
11
-0.125000000000026
21
0.66435852470016
31
0.55580724899774
  0
LINE
  8
MY3DLAYER
10
-2.55098703218865e-014
20
0.650873357548852
30
0.546622764852302
11
-0.125000000000026
21
0.650873357548847
31
0.546622764852302
  0
LINE
  8
MY3DLAYER
10
-2.63956686224908e-014
20
0.679761315339724
30
0.561188561349811
11
-0.125000000000026
21
0.67976131533972
31
0.561188561349811
  0
LINE
  8
MY3DLAYER
10
-5.16397715673266e-015
20
0.200808343436295
30
0.455805826175794
11
-5.28952815006034e-015
21
0.19087592952393
31
0.468749999999956
  0
LINE
  8
MY3DLAYER
10
2.85294249162878e-016
20
0.49999999999775
30
0.821986181675801
11
9.98597470211015e-016
21
0.484926190316658
31
0.815742405269262
  0
LINE
  8
MY3DLAYER
10
-5.71376335895596e-015
20
0.213752517260453
30
0.445873412263422
11
-5.16397715673266e-015
21
0.200808343436295
31
0.455805826175794
  0
LINE
  8
MY3DLAYER
10
9.98597470211015e-016
20
0.484926190316658
30
0.815742405269262
11
9.08364908899563e-016
21
0.46874999999775
31
0.813612769412329
  0
LINE
  8
MY3DLAYER
10
2.15039997713822e-015
20
0.452573809678843
30
0.815742405269262
11
2.41961398833637e-015
21
0.43749999999775
31
0.821986181675801
  0
LINE
  8
MY3DLAYER
10
-1.58794960687185e-016
20
0.49999999999775
30
0.930239357148857
11
-7.08581162910626e-016
21
0.51294417382191
31
0.920306943236488
  0
LINE
  8
MY3DLAYER
10
9.08364908899563e-016
20
0.46874999999775
30
0.813612769412329
11
2.15039997713822e-015
21
0.452573809678843
31
0.815742405269262
  0
LINE
  8
MY3DLAYER
10
2.41961398833637e-015
20
0.43749999999775
30
0.821986181675801
11
2.96940019055975e-015
21
0.424555826173592
31
0.831918595588169
  0
LINE
  8
MY3DLAYER
10
3.04268464807306e-015
20
0.40624999999775
30
0.876112769412329
11
2.87916762924829e-015
21
0.408379635854684
31
0.892288959731236
  0
LINE
  8
MY3DLAYER
10
9.08364908899563e-016
20
0.46874999999775
30
0.938612769412329
11
5.54508260360952e-016
21
0.484926190316658
31
0.936483133555395
  0
LINE
  8
MY3DLAYER
10
3.32325683909835e-015
20
0.408379635854684
30
0.859936579093422
11
3.04268464807306e-015
21
0.40624999999775
31
0.876112769412329
  0
LINE
  8
MY3DLAYER
10
1.79597256789499e-016
20
0.51294417382191
30
0.831918595588169
11
2.85294249162878e-016
21
0.49999999999775
31
0.821986181675801
  0
LINE
  8
MY3DLAYER
10
-5.83030169583139e-016
20
0.522876587734277
30
0.844862769412329
11
1.79597256789499e-016
21
0.51294417382191
31
0.831918595588169
  0
LINE
  8
MY3DLAYER
10
4.03729782256544e-017
20
0.0
30
0.0
11
-5.7327867498431e-015
21
2.33590924381133e-013
31
1
  0
LINE
  8
MY3DLAYER
10
-1.06243781144924e-015
20
0.529120364140818
30
0.859936579093422
11
-5.83030169583139e-016
21
0.522876587734277
31
0.844862769412329
  0
LINE
  8
MY3DLAYER
10
-1.22595483027393e-015
20
0.53124999999775
30
0.876112769412329
11
-1.06243781144924e-015
21
0.529120364140818
31
0.859936579093422
  0
LINE
  8
MY3DLAYER
10
-5.28952815006034e-015
20
0.19087592952393
30
0.468749999999956
11
-4.81012050819467e-015
21
0.184632153117395
31
0.483823809681049
  0
LINE
  8
MY3DLAYER
10
-3.64153152077047e-014
20
0.93749999999775
30
0.999999999999773
11
-3.01980662697858e-014
21
0.937499999997517
31
-2.19888167461539e-013
  0
LINE
  8
MY3DLAYER
10
-1
20
-3.24185123190546e-014
30
-5.32907051820075e-015
11
-1
21
-3.99680288865056e-015
31
0.124999999999993
  0
LINE
  8
MY3DLAYER
10
5.54508260360952e-016
20
0.484926190316658
30
0.936483133555395
11
-1.58794960687185e-016
21
0.49999999999775
31
0.930239357148857
  0
LINE
  8
MY3DLAYER
10
1.2622215574381e-015
20
0.452573809678843
30
0.936483133555395
11
9.08364908899563e-016
21
0.46874999999775
31
0.938612769412329
  0
LINE
  8
MY3DLAYER
10
-0.125000000000026
20
0.66435852470016
30
0.55580724899774
11
-0.125000000000026
21
0.67976131533972
31
0.561188561349811
  0
LINE
  8
MY3DLAYER
10
-5.83030169583139e-016
20
0.522876587734277
30
0.907362769412329
11
-1.06243781144924e-015
21
0.529120364140818
31
0.892288959731236
  0
LINE
  8
MY3DLAYER
10
-1.06243781144924e-015
20
0.529120364140818
30
0.892288959731236
11
-1.22595483027393e-015
21
0.53124999999775
31
0.876112769412329
  0
LINE
  8
MY3DLAYER
10
-7.08581162910626e-016
20
0.51294417382191
30
0.920306943236488
11
-5.83030169583139e-016
21
0.522876587734277
31
0.907362769412329
  0
LINE
  8
MY3DLAYER
10
-4.81012050819467e-015
20
0.184632153117395
30
0.483823809681049
11
-5.0906926992203e-015
21
0.182502517260466
31
0.499999999999958
  0
LINE
  8
MY3DLAYER
10
3.28793840708239e-015
20
0.414623412261223
30
0.844862769412329
11
3.32325683909835e-015
21
0.408379635854684
31
0.859936579093422
  0
LINE
  8
MY3DLAYER
10
-0.125000000000001
20
2.59792187762287e-014
30
0.124999999999998
11
-0.125000000000006
21
2.30260255307257e-013
31
0.999999999999998
  0
LINE
  8
MY3DLAYER
10
-2.81679449248309e-014
20
0.754897457099917
30
0.49646542799507
11
-2.79344486022064e-014
21
0.751856414982729
31
0.480435563836002
  0
LINE
  8
MY3DLAYER
10
-8.7517259488928e-015
20
0.305372881403537
30
0.516176190318834
11
-8.91524296771723e-015
21
0.307502517260466
31
0.499999999999926
  0
LINE
  8
MY3DLAYER
10
-8.91524296771723e-015
20
0.307502517260466
30
0.499999999999926
11
-8.75172594889212e-015
21
0.305372881403528
31
0.483823809681019
  0
LINE
  8
MY3DLAYER
10
1.97552477848631e-015
20
0.43749999999775
30
0.930239357148857
11
1.2622215574381e-015
21
0.452573809678843
31
0.936483133555395
  0
LINE
  8
MY3DLAYER
10
-2.77837452936446e-014
20
0.726758499065088
30
0.552272676992974
11
-2.78447226928883e-014
21
0.73912024758746
31
0.541624125185978
  0
LINE
  8
MY3DLAYER
10
-2.44517692553651e-014
20
0.631308921385019
30
0.487263832604566
11
-2.4802844138787e-014
21
0.630097508370071
31
0.5035345720046
  0
LINE
  8
MY3DLAYER
10
2.52531098070968e-015
20
0.424555826173592
30
0.920306943236488
11
1.97552477848631e-015
21
0.43749999999775
31
0.930239357148857
  0
LINE
  8
MY3DLAYER
10
2.84384919723233e-015
20
0.414623412261223
30
0.907362769412329
11
2.52531098070968e-015
21
0.424555826173592
31
0.920306943236488
  0
LINE
  8
MY3DLAYER
10
-2.55098703218865e-014
20
0.650873357548852
30
0.546622764852302
11
-2.61011949006226e-014
21
0.664358524700164
31
0.55580724899774
  0
LINE
  8
MY3DLAYER
10
2.87916762924829e-015
20
0.408379635854684
30
0.892288959731236
11
2.84384919723233e-015
21
0.414623412261223
31
0.907362769412329
  0
LINE
  8
MY3DLAYER
10
-2.50363404614115e-014
20
0.633138550487258
30
0.519564436163668
11
-2.51363458347225e-014
21
0.640224805741855
31
0.534261016329929
  0
LINE
  8
MY3DLAYER
10
-2.4802844138787e-014
20
0.630097508370071
30
0.5035345720046
11
-2.50363404614115e-014
21
0.633138550487258
31
0.519564436163668
  0
LINE
  8
MY3DLAYER
10
-2.51260663707296e-014
20
0.645874717882528
30
0.458375874813692
11
-2.44208662483631e-014
21
0.636690233737089
31
0.471861041965006
  0
LINE
  8
MY3DLAYER
10
-2.44208662483631e-014
20
0.636690233737089
30
0.471861041965006
11
-2.44517692553651e-014
21
0.631308921385019
31
0.487263832604566
  0
LINE
  8
MY3DLAYER
10
-2.51870437699733e-014
20
0.658236466404899
30
0.447727323006696
11
-2.51260663707296e-014
21
0.645874717882528
31
0.458375874813692
  0
LINE
  8
MY3DLAYER
10
-2.54272934652875e-014
20
0.672933046571161
30
0.440641067752099
11
-2.51870437699733e-014
21
0.658236466404899
31
0.447727323006696
  0
LINE
  8
MY3DLAYER
10
-2.65751204411271e-014
20
0.705233650130263
30
0.438811438649859
11
-2.57699149454497e-014
21
0.688962910730228
31
0.437600025634911
  0
LINE
  8
MY3DLAYER
10
-2.75434955983304e-014
20
0.712061918898827
30
0.559358932247571
11
-2.77837452936446e-014
21
0.726758499065088
31
0.552272676992974
  0
LINE
  8
MY3DLAYER
10
-2.78344432288954e-014
20
0.744770159728132
30
0.465738983669741
11
-2.74609187417314e-014
21
0.734121607921136
31
0.453377235147368
  0
LINE
  8
MY3DLAYER
10
-2.79344486022064e-014
20
0.751856414982729
30
0.480435563836002
11
-2.78344432288954e-014
21
0.744770159728132
31
0.465738983669741
  0
LINE
  8
MY3DLAYER
10
-2.72008741181683e-014
20
0.69603205473976
30
0.562399974364759
11
-2.75434955983304e-014
21
0.712061918898827
31
0.559358932247571
  0
LINE
  8
MY3DLAYER
10
-2.57699149454497e-014
20
0.688962910730228
30
0.437600025634911
11
-2.54272934652875e-014
21
0.672933046571161
31
0.440641067752099
  0
LINE
  8
MY3DLAYER
10
-2.68695941629953e-014
20
0.720636440769823
30
0.44419275100193
11
-2.65751204411271e-014
21
0.705233650130263
31
0.438811438649859
  0
LINE
  8
MY3DLAYER
10
-2.63956686224908e-014
20
0.679761315339724
30
0.561188561349811
11
-2.72008741181683e-014
21
0.69603205473976
31
0.562399974364759
  0
LINE
  8
MY3DLAYER
10
-2.85499228152548e-014
20
0.748304731732898
30
0.528138958034663
11
-2.85190198082528e-014
21
0.753686044084969
31
0.512736167395104
  0
LINE
  8
MY3DLAYER
10
-2.74609187417314e-014
20
0.734121607921136
30
0.453377235147368
11
-2.68695941629953e-014
21
0.720636440769823
31
0.44419275100193
  0
LINE
  8
MY3DLAYER
10
-2.85190198082528e-014
20
0.753686044084969
30
0.512736167395104
11
-2.81679449248309e-014
21
0.754897457099917
31
0.49646542799507
  0
LINE
  8
MY3DLAYER
10
-2.78447226928883e-014
20
0.73912024758746
30
0.541624125185978
11
-2.85499228152548e-014
21
0.748304731732898
31
0.528138958034663
  0
LINE
  8
MY3DLAYER
10
2.96940019055975e-015
20
0.424555826173592
30
0.831918595588169
11
3.28793840708239e-015
21
0.414623412261223
31
0.844862769412329
  0
LINE
  8
MY3DLAYER
10
-2.12099692736153e-014
20
0.531249999998904
30
0.733253175472941
11
-2.18654524682121e-014
21
0.557138347647222
31
0.713388347648205
  0
LINE
  8
MY3DLAYER
10
-2.02274520413691e-014
20
0.501102380636719
30
0.74574072828602
11
-2.12099692736153e-014
21
0.531249999998904
31
0.733253175472941
  0
LINE
  8
MY3DLAYER
10
-1.95197387442919e-014
20
0.468749999998904
30
0.749999999999886
11
-2.02274520413691e-014
21
0.501102380636719
31
0.74574072828602
  0
LINE
  8
MY3DLAYER
10
-1.83679362373647e-014
20
0.436397619361089
30
0.74574072828602
11
-1.95197387442919e-014
21
0.468749999998904
31
0.749999999999886
  0
LINE
  8
MY3DLAYER
10
-1.73854190051184e-014
20
0.406249999998904
30
0.733253175472941
11
-1.83679362373647e-014
21
0.436397619361089
31
0.74574072828602
  0
LINE
  8
MY3DLAYER
10
-1.62858466006716e-014
20
0.380361652350586
30
0.713388347648205
11
-1.73854190051184e-014
21
0.406249999998904
31
0.733253175472941
  0
LINE
  8
MY3DLAYER
10
-1.56487701676263e-014
20
0.360496824525849
30
0.687499999999886
11
-1.62858466006716e-014
21
0.380361652350586
31
0.713388347648205
  0
LINE
  8
MY3DLAYER
10
-1.88951844118189e-014
20
0.501102380636719
30
0.504259271713753
11
-1.77433819048917e-014
21
0.468749999998904
31
0.499999999999886
  0
LINE
  8
MY3DLAYER
10
-1.98777016440651e-014
20
0.531249999998904
30
0.516746824526832
11
-1.88951844118189e-014
21
0.501102380636719
31
0.504259271713753
  0
LINE
  8
MY3DLAYER
10
-2.0977274048512e-014
20
0.557138347647222
30
0.536611652351568
11
-1.98777016440651e-014
21
0.531249999998904
31
0.516746824526832
  0
LINE
  8
MY3DLAYER
10
-5.0906926992203e-015
20
0.182502517260466
30
0.499999999999958
11
-5.25420971804541e-015
21
0.184632153117404
31
0.516176190318865
  0
LINE
  8
MY3DLAYER
10
-5.25420971804541e-015
20
0.184632153117404
30
0.516176190318865
11
-5.28952815006158e-015
21
0.190875929523946
31
0.531249999999956
  0
LINE
  8
MY3DLAYER
10
-2.24561105930887e-014
20
0.593749999998904
30
0.624999999999886
11
-2.21290765554392e-014
21
0.589490728285037
31
0.592647619362071
  0
LINE
  8
MY3DLAYER
10
-2.61011949006226e-014
20
0.664358524700164
30
0.55580724899774
11
-2.63956686224908e-014
21
0.679761315339724
31
0.561188561349811
  0
LINE
  8
MY3DLAYER
10
-8.75172594889212e-015
20
0.305372881403528
30
0.483823809681019
11
-8.27231830702582e-015
21
0.299129104996985
31
0.468749999999927
  0
LINE
  8
MY3DLAYER
10
-9.16049672672717e-015
20
0.299129104997001
30
0.531249999999927
11
-8.7517259488928e-015
21
0.305372881403537
31
0.516176190318834
  0
LINE
  8
MY3DLAYER
10
-8.39786930035474e-015
20
0.289196691084636
30
0.544194173824089
11
-9.16049672672717e-015
21
0.299129104997001
31
0.531249999999927
  0
LINE
  8
MY3DLAYER
10
-8.29217230798157e-015
20
0.276252517260479
30
0.554126587736461
11
-8.39786930035474e-015
21
0.289196691084636
31
0.544194173824089
  0
LINE
  8
MY3DLAYER
10
-8.02295829678363e-015
20
0.261178707579389
30
0.560370364143005
11
-8.29217230798157e-015
21
0.276252517260479
31
0.554126587736461
  0
LINE
  8
MY3DLAYER
10
-1.51340440937444e-014
20
0.348009271712771
30
0.657352380637702
11
-1.56487701676263e-014
21
0.360496824525849
31
0.687499999999886
  0
LINE
  8
MY3DLAYER
10
-1.48070100560949e-014
20
0.343749999998904
30
0.624999999999886
11
-1.51340440937444e-014
21
0.348009271712771
31
0.657352380637702
  0
LINE
  8
MY3DLAYER
10
-1.46899548838943e-014
20
0.348009271712771
30
0.592647619362071
11
-1.48070100560949e-014
21
0.343749999998904
31
0.624999999999886
  0
LINE
  8
MY3DLAYER
10
-1.47605917479262e-014
20
0.360496824525849
30
0.562499999999886
11
-1.46899548838943e-014
21
0.348009271712771
31
0.592647619362071
  0
LINE
  8
MY3DLAYER
10
-1.53976681809715e-014
20
0.380361652350586
30
0.536611652351568
11
-1.47605917479262e-014
21
0.360496824525849
31
0.562499999999886
  0
LINE
  8
MY3DLAYER
10
-1.60531513755682e-014
20
0.406249999998904
30
0.516746824526832
11
-1.53976681809715e-014
21
0.380361652350586
31
0.536611652351568
  0
LINE
  8
MY3DLAYER
10
-0.71338834764834
20
0.557138347647049
30
-1.32884066977087e-013
11
-0.733253175473074
21
0.53124999999873
31
-1.26972129370958e-013
  0
LINE
  8
MY3DLAYER
10
-0.733253175473074
20
0.53124999999873
30
-1.26972129370958e-013
11
-0.745740728286151
21
0.501102380636544
31
-1.19977724315819e-013
  0
LINE
  8
MY3DLAYER
10
-0.745740728286151
20
0.501102380636544
30
-1.19977724315819e-013
11
-0.750000000000015
21
0.468749999998728
31
-1.12455963323984e-013
  0
LINE
  8
MY3DLAYER
10
-2.51363458347225e-014
20
0.640224805741855
30
0.534261016329929
11
-0.125000000000025
21
0.640224805741851
31
0.534261016329929
  0
LINE
  8
MY3DLAYER
10
-0.125000000000025
20
0.633138550487254
30
0.519564436163668
11
-0.125000000000025
21
0.640224805741851
31
0.534261016329929
  0
LINE
  8
MY3DLAYER
10
-2.50363404614115e-014
20
0.633138550487258
30
0.519564436163668
11
-0.125000000000025
21
0.633138550487254
31
0.519564436163668
  0
LINE
  8
MY3DLAYER
10
-0.125000000000025
20
0.630097508370066
30
0.5035345720046
11
-0.125000000000025
21
0.633138550487254
31
0.519564436163668
  0
LINE
  8
MY3DLAYER
10
-2.4802844138787e-014
20
0.630097508370071
30
0.5035345720046
11
-0.125000000000025
21
0.630097508370066
31
0.5035345720046
  0
LINE
  8
MY3DLAYER
10
-2.16143504815573e-014
20
0.577003175471959
30
0.562499999999886
11
-2.0977274048512e-014
21
0.557138347647222
31
0.536611652351568
  0
LINE
  8
MY3DLAYER
10
-2.21290765554392e-014
20
0.589490728285037
30
0.592647619362071
11
-2.16143504815573e-014
21
0.577003175471959
31
0.562499999999886
  0
LINE
  8
MY3DLAYER
10
-0.625000000000005
20
0.343749999998738
30
-8.25354528103361e-014
11
-0.59264761936219
21
0.348009271712607
31
-8.33403645031893e-014
  0
LINE
  8
MY3DLAYER
10
-0.59264761936219
20
0.348009271712607
30
-8.33403645031893e-014
11
-0.562500000000006
21
0.360496824525688
31
-8.60881664891366e-014
  0
LINE
  8
MY3DLAYER
10
-0.562500000000006
20
0.360496824525688
30
-8.60881664891366e-014
11
-0.53661165235169
21
0.380361652350426
31
-9.05845697388684e-014
  0
LINE
  8
MY3DLAYER
10
-0.592647619362209
20
0.589490728284874
30
-1.39739694154147e-013
11
-0.625000000000024
21
0.593749999998738
31
-1.40933183905619e-013
  0
LINE
  8
MY3DLAYER
10
-0.625000000000024
20
0.593749999998738
30
-1.40933183905619e-013
11
-0.657352380637839
21
0.589490728284869
31
-1.40128272212766e-013
  0
LINE
  8
MY3DLAYER
10
-0.657352380637839
20
0.589490728284869
30
-1.40128272212766e-013
11
-0.687500000000023
21
0.577003175471788
31
-1.37380470226819e-013
  0
LINE
  8
MY3DLAYER
10
-0.687500000000023
20
0.577003175471788
30
-1.37380470226819e-013
11
-0.71338834764834
21
0.557138347647049
31
-1.32884066977087e-013
  0
LINE
  8
MY3DLAYER
10
-0.750000000000015
20
0.468749999998728
30
-1.12455963323984e-013
11
-0.745740728286146
21
0.436397619360914
31
-1.04878691180917e-013
  0
LINE
  8
MY3DLAYER
10
-0.745740728286146
20
0.436397619360914
30
-1.04878691180917e-013
11
-0.733253175473065
21
0.40624999999873
31
-9.77732638233163e-014
  0
LINE
  8
MY3DLAYER
10
-0.733253175473065
20
0.40624999999873
30
-9.77732638233163e-014
11
-0.713388347648326
21
0.380361652350413
31
-9.16115260366467e-014
  0
LINE
  8
MY3DLAYER
10
-0.713388347648326
20
0.380361652350413
30
-9.16115260366467e-014
11
-0.687500000000006
21
0.360496824525678
31
-8.68098114551429e-014
  0
LINE
  8
MY3DLAYER
10
-0.687500000000006
20
0.360496824525678
30
-8.68098114551429e-014
11
-0.65735238063782
21
0.348009271712602
31
-8.37289425618081e-014
  0
LINE
  8
MY3DLAYER
10
-0.65735238063782
20
0.348009271712602
30
-8.37289425618081e-014
11
-0.625000000000005
21
0.343749999998738
31
-8.25354528103361e-014
  0
LINE
  8
MY3DLAYER
10
1.79597256789499e-016
20
0.51294417382191
30
0.831918595588169
11
-0.125
21
0.512944173821906
31
0.831918595588169
  0
LINE
  8
MY3DLAYER
10
-0.124999999999997
20
0.408379635854679
30
0.892288959731236
11
-0.124999999999997
21
0.414623412261219
31
0.907362769412329
  0
LINE
  8
MY3DLAYER
10
-2.78344432288954e-014
20
0.744770159728132
30
0.465738983669741
11
-0.125000000000028
21
0.744770159728128
31
0.465738983669741
  0
LINE
  8
MY3DLAYER
10
-0.125000000000028
20
0.751856414982725
30
0.480435563836002
11
-0.125000000000028
21
0.744770159728128
31
0.465738983669741
  0
LINE
  8
MY3DLAYER
10
-2.79344486022064e-014
20
0.751856414982729
30
0.480435563836002
11
-0.125000000000028
21
0.751856414982725
31
0.480435563836002
  0
LINE
  8
MY3DLAYER
10
-0.125000000000024
20
0.631308921385014
30
0.487263832604566
11
-0.125000000000025
21
0.630097508370066
31
0.5035345720046
  0
LINE
  8
MY3DLAYER
10
-2.44517692553651e-014
20
0.631308921385019
30
0.487263832604566
11
-0.125000000000024
21
0.631308921385014
31
0.487263832604566
  0
LINE
  8
MY3DLAYER
10
-0.125000000000024
20
0.636690233737085
30
0.471861041965006
11
-0.125000000000024
21
0.631308921385014
31
0.487263832604566
  0
LINE
  8
MY3DLAYER
10
-2.44208662483631e-014
20
0.636690233737089
30
0.471861041965006
11
-0.125000000000024
21
0.636690233737085
31
0.471861041965006
  0
LINE
  8
MY3DLAYER
10
2.85294249162878e-016
20
0.49999999999775
30
0.821986181675801
11
-0.125
21
0.499999999997746
31
0.821986181675801
  0
LINE
  8
MY3DLAYER
10
-0.125
20
0.512944173821906
30
0.831918595588169
11
-0.125
21
0.499999999997746
31
0.821986181675801
  0
LINE
  8
MY3DLAYER
10
-0.125000000000025
20
0.645874717882523
30
0.458375874813692
11
-0.125000000000024
21
0.636690233737085
31
0.471861041965006
  0
LINE
  8
MY3DLAYER
10
-2.51260663707296e-014
20
0.645874717882528
30
0.458375874813692
11
-0.125000000000025
21
0.645874717882523
31
0.458375874813692
  0
LINE
  8
MY3DLAYER
10
-0.125000000000025
20
0.658236466404895
30
0.447727323006696
11
-0.125000000000025
21
0.645874717882523
31
0.458375874813692
  0
LINE
  8
MY3DLAYER
10
-2.51870437699733e-014
20
0.658236466404899
30
0.447727323006696
11
-0.125000000000025
21
0.658236466404895
31
0.447727323006696
  0
LINE
  8
MY3DLAYER
10
2.87916762924829e-015
20
0.408379635854684
30
0.892288959731236
11
-0.124999999999997
21
0.408379635854679
31
0.892288959731236
  0
LINE
  8
MY3DLAYER
10
-0.124999999999997
20
0.406249999997746
30
0.876112769412329
11
-0.124999999999997
21
0.408379635854679
31
0.892288959731236
  0
LINE
  8
MY3DLAYER
10
3.04268464807306e-015
20
0.40624999999775
30
0.876112769412329
11
-0.124999999999997
21
0.406249999997746
31
0.876112769412329
  0
LINE
  8
MY3DLAYER
10
-0.125000000000025
20
0.640224805741851
30
0.534261016329929
11
-0.125000000000026
21
0.650873357548847
31
0.546622764852302
  0
LINE
  8
MY3DLAYER
10
-6.42706658000397e-015
20
0.228826326941543
30
0.439629635856879
11
-0.125000000000006
21
0.228826326941539
31
0.439629635856879
  0
LINE
  8
MY3DLAYER
10
-6.7809232285425e-015
20
0.24500251726045
30
0.437499999999942
11
-0.125000000000007
21
0.245002517260446
31
0.437499999999942
  0
LINE
  8
MY3DLAYER
10
-7.13477987708111e-015
20
0.261178707579358
30
0.439629635856871
11
-0.125000000000007
21
0.261178707579354
31
0.439629635856871
  0
LINE
  8
MY3DLAYER
10
-0.124999999999997
20
0.408379635854679
30
0.859936579093422
11
-0.124999999999997
21
0.406249999997746
31
0.876112769412329
  0
LINE
  8
MY3DLAYER
10
3.32325683909835e-015
20
0.408379635854684
30
0.859936579093422
11
-0.124999999999997
21
0.408379635854679
31
0.859936579093422
  0
LINE
  8
MY3DLAYER
10
-0.124999999999997
20
0.414623412261219
30
0.844862769412329
11
-0.124999999999997
21
0.408379635854679
31
0.859936579093422
  0
LINE
  8
MY3DLAYER
10
3.28793840708239e-015
20
0.414623412261223
30
0.844862769412329
11
-0.124999999999997
21
0.414623412261219
31
0.844862769412329
  0
LINE
  8
MY3DLAYER
10
-0.125000000000028
20
0.744770159728128
30
0.465738983669741
11
-0.125000000000027
21
0.734121607921131
31
0.453377235147368
  0
LINE
  8
MY3DLAYER
10
-5.83030169583139e-016
20
0.522876587734277
30
0.844862769412329
11
-0.125000000000001
21
0.522876587734273
31
0.844862769412329
  0
LINE
  8
MY3DLAYER
10
-0.125000000000001
20
0.529120364140814
30
0.859936579093422
11
-0.125000000000001
21
0.522876587734273
31
0.844862769412329
  0
LINE
  8
MY3DLAYER
10
-1.06243781144924e-015
20
0.529120364140818
30
0.859936579093422
11
-0.125000000000001
21
0.529120364140814
31
0.859936579093422
  0
LINE
  8
MY3DLAYER
10
-0.125000000000005
20
0.200808343436292
30
0.455805826175794
11
-0.125000000000005
21
0.190875929523927
31
0.468749999999956
  0
LINE
  8
MY3DLAYER
10
-0.125000000000025
20
0.672933046571156
30
0.440641067752099
11
-0.125000000000025
21
0.658236466404895
31
0.447727323006696
  0
LINE
  8
MY3DLAYER
10
-2.54272934652875e-014
20
0.672933046571161
30
0.440641067752099
11
-0.125000000000025
21
0.672933046571156
31
0.440641067752099
  0
LINE
  8
MY3DLAYER
10
-0.125000000000026
20
0.688962910730224
30
0.437600025634911
11
-0.125000000000025
21
0.672933046571156
31
0.440641067752099
  0
LINE
  8
MY3DLAYER
10
-2.57699149454497e-014
20
0.688962910730228
30
0.437600025634911
11
-0.125000000000026
21
0.688962910730224
31
0.437600025634911
  0
LINE
  8
MY3DLAYER
10
-0.125000000000027
20
0.705233650130259
30
0.438811438649859
11
-0.125000000000026
21
0.688962910730224
31
0.437600025634911
  0
LINE
  8
MY3DLAYER
10
-2.65751204411271e-014
20
0.705233650130263
30
0.438811438649859
11
-0.125000000000027
21
0.705233650130259
31
0.438811438649859
  0
LINE
  8
MY3DLAYER
10
-0.125000000000027
20
0.720636440769819
30
0.44419275100193
11
-0.125000000000027
21
0.705233650130259
31
0.438811438649859
  0
LINE
  8
MY3DLAYER
10
-2.68695941629953e-014
20
0.720636440769823
30
0.44419275100193
11
-0.125000000000027
21
0.720636440769819
31
0.44419275100193
  0
LINE
  8
MY3DLAYER
10
-0.125000000000027
20
0.734121607921131
30
0.453377235147368
11
-0.125000000000027
21
0.720636440769819
31
0.44419275100193
  0
LINE
  8
MY3DLAYER
10
-2.74609187417314e-014
20
0.734121607921136
30
0.453377235147368
11
-0.125000000000027
21
0.734121607921131
31
0.453377235147368
  0
LINE
  8
MY3DLAYER
10
-0.124999999999997
20
0.414623412261219
30
0.907362769412329
11
-0.124999999999997
21
0.424555826173587
31
0.920306943236488
  0
LINE
  8
MY3DLAYER
10
2.84384919723233e-015
20
0.414623412261223
30
0.907362769412329
11
-0.124999999999997
21
0.414623412261219
31
0.907362769412329
  0
LINE
  8
MY3DLAYER
10
-7.08581162910626e-016
20
0.51294417382191
30
0.920306943236488
11
-0.125000000000001
21
0.512944173821906
31
0.920306943236488
  0
LINE
  8
MY3DLAYER
10
-0.125
20
0.499999999997746
30
0.930239357148857
11
-0.125000000000001
21
0.512944173821906
31
0.920306943236488
  0
LINE
  8
MY3DLAYER
10
-1.58794960687185e-016
20
0.49999999999775
30
0.930239357148857
11
-0.125
21
0.499999999997746
31
0.930239357148857
  0
LINE
  8
MY3DLAYER
10
-0.125
20
0.499999999997746
30
0.821986181675801
11
-0.124999999999999
21
0.484926190316654
31
0.815742405269262
  0
LINE
  8
MY3DLAYER
10
9.98597470211015e-016
20
0.484926190316658
30
0.815742405269262
11
-0.124999999999999
21
0.484926190316654
31
0.815742405269262
  0
LINE
  8
MY3DLAYER
10
-4.81012050819467e-015
20
0.184632153117395
30
0.483823809681049
11
-0.125000000000005
21
0.184632153117391
31
0.483823809681049
  0
LINE
  8
MY3DLAYER
10
-5.28952815006034e-015
20
0.19087592952393
30
0.468749999999956
11
-0.125000000000005
21
0.190875929523927
31
0.468749999999956
  0
LINE
  8
MY3DLAYER
10
-5.83030169583139e-016
20
0.522876587734277
30
0.907362769412329
11
-0.125000000000001
21
0.522876587734273
31
0.907362769412329
  0
LINE
  8
MY3DLAYER
10
-0.125000000000001
20
0.512944173821906
30
0.920306943236488
11
-0.125000000000001
21
0.522876587734273
31
0.907362769412329
  0
LINE
  8
MY3DLAYER
10
-0.125000000000028
20
0.754897457099913
30
0.49646542799507
11
-0.125000000000028
21
0.751856414982725
31
0.480435563836002
  0
LINE
  8
MY3DLAYER
10
-2.81679449248309e-014
20
0.754897457099917
30
0.49646542799507
11
-0.125000000000028
21
0.754897457099913
31
0.49646542799507
  0
LINE
  8
MY3DLAYER
10
-8.39786930035474e-015
20
0.289196691084636
30
0.544194173824089
11
-0.125000000000008
21
0.289196691084633
31
0.544194173824089
  0
LINE
  8
MY3DLAYER
10
-8.29217230798157e-015
20
0.276252517260479
30
0.554126587736461
11
-0.125000000000008
21
0.276252517260476
31
0.554126587736461
  0
LINE
  8
MY3DLAYER
10
-8.02295829678363e-015
20
0.261178707579389
30
0.560370364143005
11
-0.125000000000008
21
0.261178707579385
31
0.560370364143005
  0
LINE
  8
MY3DLAYER
10
-7.66910164824508e-015
20
0.245002517260482
30
0.562499999999941
11
-0.125000000000008
21
0.245002517260478
31
0.562499999999941
  0
LINE
  8
MY3DLAYER
10
-0.125000000000001
20
0.522876587734273
30
0.844862769412329
11
-0.125
21
0.512944173821906
31
0.831918595588169
  0
LINE
  8
MY3DLAYER
10
-5.7327867498431e-015
20
2.33590924381133e-013
30
1
11
-3.64153152077047e-014
21
0.93749999999775
31
0.999999999999773
  0
LINE
  8
MY3DLAYER
10
-7.66910164824508e-015
20
0.245002517260482
30
0.562499999999941
11
-8.02295829678363e-015
21
0.261178707579389
31
0.560370364143005
  0
LINE
  8
MY3DLAYER
10
-6.87115578985642e-015
20
0.228826326941574
30
0.560370364143012
11
-7.66910164824508e-015
21
0.245002517260482
31
0.562499999999941
  0
LINE
  8
MY3DLAYER
10
-6.15785256880807e-015
20
0.213752517260479
30
0.554126587736477
11
-6.87115578985642e-015
21
0.228826326941574
31
0.560370364143012
  0
LINE
  8
MY3DLAYER
10
-6.05215557643455e-015
20
0.200808343436318
30
0.544194173824112
11
-6.15785256880807e-015
21
0.213752517260479
31
0.554126587736477
  0
LINE
  8
MY3DLAYER
10
-5.28952815006158e-015
20
0.190875929523946
30
0.531249999999956
11
-6.05215557643455e-015
21
0.200808343436318
31
0.544194173824112
  0
LINE
  8
MY3DLAYER
10
-2.25731657652892e-014
20
0.589490728285037
30
0.657352380637702
11
-2.24561105930887e-014
21
0.593749999998904
31
0.624999999999886
  0
LINE
  8
MY3DLAYER
10
-2.25025289012574e-014
20
0.577003175471959
30
0.687499999999886
11
-2.25731657652892e-014
21
0.589490728285037
31
0.657352380637702
  0
LINE
  8
MY3DLAYER
10
-2.18654524682121e-014
20
0.557138347647222
30
0.713388347648205
11
-2.25025289012574e-014
21
0.577003175471959
31
0.687499999999886
  0
LINE
  8
MY3DLAYER
10
-1.70356686078145e-014
20
0.436397619361089
30
0.504259271713753
11
-1.60531513755682e-014
21
0.406249999998904
31
0.516746824526832
  0
LINE
  8
MY3DLAYER
10
-1.77433819048917e-014
20
0.468749999998904
30
0.499999999999886
11
-1.70356686078145e-014
21
0.436397619361089
31
0.504259271713753
  0
LINE
  8
MY3DLAYER
10
-0.124999999999997
20
0.424555826173587
30
0.920306943236488
11
-0.124999999999998
21
0.437499999997746
31
0.930239357148857
  0
LINE
  8
MY3DLAYER
10
2.41961398833637e-015
20
0.43749999999775
30
0.821986181675801
11
-0.124999999999998
21
0.437499999997746
31
0.821986181675801
  0
LINE
  8
MY3DLAYER
10
-0.124999999999998
20
0.452573809678839
30
0.815742405269262
11
-0.124999999999998
21
0.437499999997746
31
0.821986181675801
  0
LINE
  8
MY3DLAYER
10
2.15039997713822e-015
20
0.452573809678843
30
0.815742405269262
11
-0.124999999999998
21
0.452573809678839
31
0.815742405269262
  0
LINE
  8
MY3DLAYER
10
1.97552477848631e-015
20
0.43749999999775
30
0.930239357148857
11
-0.124999999999998
21
0.437499999997746
31
0.930239357148857
  0
LINE
  8
MY3DLAYER
10
2.52531098070968e-015
20
0.424555826173592
30
0.920306943236488
11
-0.124999999999997
21
0.424555826173587
31
0.920306943236488
  0
LINE
  8
MY3DLAYER
10
-0.124999999999999
20
0.484926190316654
30
0.936483133555395
11
-0.125
21
0.499999999997746
31
0.930239357148857
  0
LINE
  8
MY3DLAYER
10
5.54508260360952e-016
20
0.484926190316658
30
0.936483133555395
11
-0.124999999999999
21
0.484926190316654
31
0.936483133555395
  0
LINE
  8
MY3DLAYER
10
-0.124999999999999
20
0.468749999997746
30
0.938612769412329
11
-0.124999999999999
21
0.484926190316654
31
0.936483133555395
  0
LINE
  8
MY3DLAYER
10
9.08364908899563e-016
20
0.46874999999775
30
0.938612769412329
11
-0.124999999999999
21
0.468749999997746
31
0.938612769412329
  0
LINE
  8
MY3DLAYER
10
-0.124999999999999
20
0.452573809678839
30
0.936483133555395
11
-0.124999999999999
21
0.468749999997746
31
0.938612769412329
  0
LINE
  8
MY3DLAYER
10
1.2622215574381e-015
20
0.452573809678843
30
0.936483133555395
11
-0.124999999999999
21
0.452573809678839
31
0.936483133555395
  0
LINE
  8
MY3DLAYER
10
-0.124999999999998
20
0.437499999997746
30
0.930239357148857
11
-0.124999999999999
21
0.452573809678839
31
0.936483133555395
  0
LINE
  8
MY3DLAYER
10
2.96940019055975e-015
20
0.424555826173592
30
0.831918595588169
11
-0.124999999999997
21
0.424555826173587
31
0.831918595588169
  0
LINE
  8
MY3DLAYER
10
-0.124999999999997
20
0.424555826173587
30
0.831918595588169
11
-0.124999999999997
21
0.414623412261219
31
0.844862769412329
  0
LINE
  8
MY3DLAYER
10
-0.124999999999999
20
0.468749999997746
30
0.813612769412329
11
-0.124999999999998
21
0.452573809678839
31
0.815742405269262
  0
LINE
  8
MY3DLAYER
10
9.08364908899563e-016
20
0.46874999999775
30
0.813612769412329
11
-0.124999999999999
21
0.468749999997746
31
0.813612769412329
  0
LINE
  8
MY3DLAYER
10
-0.124999999999999
20
0.484926190316654
30
0.815742405269262
11
-0.124999999999999
21
0.468749999997746
31
0.813612769412329
  0
LINE
  8
MY3DLAYER
10
-0.124999999999998
20
0.437499999997746
30
0.821986181675801
11
-0.124999999999997
21
0.424555826173587
31
0.831918595588169
  0
LINE
  8
MY3DLAYER
10
-0.125000000000022
20
0.5937499999989
30
0.624999999999886
11
-0.125000000000022
21
0.589490728285033
31
0.592647619362071
  0
LINE
  8
MY3DLAYER
10
-0.125000000000023
20
0.589490728285033
30
0.657352380637701
11
-0.125000000000022
21
0.5937499999989
31
0.624999999999886
  0
LINE
  8
MY3DLAYER
10
-0.125000000000022
20
0.577003175471955
30
0.687499999999886
11
-0.125000000000023
21
0.589490728285033
31
0.657352380637701
  0
LINE
  8
MY3DLAYER
10
-0.125000000000022
20
0.557138347647218
30
0.713388347648204
11
-0.125000000000022
21
0.577003175471955
31
0.687499999999886
  0
LINE
  8
MY3DLAYER
10
-0.125000000000021
20
0.5312499999989
30
0.733253175472941
11
-0.125000000000022
21
0.557138347647218
31
0.713388347648204
  0
LINE
  8
MY3DLAYER
10
-2.85499228152548e-014
20
0.748304731732898
30
0.528138958034663
11
-0.125000000000029
21
0.748304731732894
31
0.528138958034663
  0
LINE
  8
MY3DLAYER
10
-0.125000000000028
20
0.739120247587455
30
0.541624125185978
11
-0.125000000000029
21
0.748304731732894
31
0.528138958034663
  0
LINE
  8
MY3DLAYER
10
-2.78447226928883e-014
20
0.73912024758746
30
0.541624125185978
11
-0.125000000000028
21
0.739120247587455
31
0.541624125185978
  0
LINE
  8
MY3DLAYER
10
-0.125000000000028
20
0.726758499065084
30
0.552272676992974
11
-0.125000000000028
21
0.739120247587455
31
0.541624125185978
  0
LINE
  8
MY3DLAYER
10
-2.77837452936446e-014
20
0.726758499065088
30
0.552272676992974
11
-0.125000000000028
21
0.726758499065084
31
0.552272676992974
  0
LINE
  8
MY3DLAYER
10
-2.72008741181683e-014
20
0.69603205473976
30
0.562399974364759
11
-0.125000000000027
21
0.696032054739756
31
0.562399974364759
  0
LINE
  8
MY3DLAYER
10
-0.125000000000026
20
0.67976131533972
30
0.561188561349811
11
-0.125000000000027
21
0.696032054739756
31
0.562399974364759
  0
LINE
  8
MY3DLAYER
10
-1.00000000000003
20
0.937499999997513
30
0.124999999999773
11
-0.125000000000031
21
0.937499999997543
31
0.124999999999778
  0
LINE
  8
MY3DLAYER
10
-0.125000000000005
20
0.182502517260463
30
0.499999999999958
11
-0.125000000000005
21
0.1846321531174
31
0.516176190318865
  0
LINE
  8
MY3DLAYER
10
-0.125000000000036
20
0.937499999997747
30
0.999999999999773
11
-3.64153152077047e-014
21
0.93749999999775
31
0.999999999999773
  0
LINE
  8
MY3DLAYER
10
-0.125000000000006
20
2.30260255307257e-013
30
0.999999999999998
11
-0.125000000000036
21
0.937499999997747
31
0.999999999999773
  0
LINE
  8
MY3DLAYER
10
-0.125000000000006
20
2.30260255307257e-013
30
0.999999999999998
11
-5.7327867498431e-015
21
2.33590924381133e-013
31
1
  0
LINE
  8
MY3DLAYER
10
-1.00000000000003
20
0.937499999997513
30
0.124999999999773
11
-1.00000000000003
21
0.937499999997484
31
-2.2521723797974e-013
  0
LINE
  8
MY3DLAYER
10
-1
20
-3.99680288865056e-015
30
0.124999999999993
11
-1.00000000000003
21
0.937499999997513
31
0.124999999999773
  0
LINE
  8
MY3DLAYER
10
-0.125000000000029
20
0.753686044084964
30
0.512736167395104
11
-0.125000000000028
21
0.754897457099913
31
0.49646542799507
  0
LINE
  8
MY3DLAYER
10
-2.85190198082528e-014
20
0.753686044084969
30
0.512736167395104
11
-0.125000000000029
21
0.753686044084964
31
0.512736167395104
  0
LINE
  8
MY3DLAYER
10
-0.125000000000029
20
0.748304731732894
30
0.528138958034663
11
-0.125000000000029
21
0.753686044084964
31
0.512736167395104
  0
LINE
  8
MY3DLAYER
10
-0.125000000000028
20
0.712061918898822
30
0.559358932247571
11
-0.125000000000028
21
0.726758499065084
31
0.552272676992974
  0
LINE
  8
MY3DLAYER
10
-2.75434955983304e-014
20
0.712061918898827
30
0.559358932247571
11
-0.125000000000028
21
0.712061918898822
31
0.559358932247571
  0
LINE
  8
MY3DLAYER
10
-0.125000000000027
20
0.696032054739756
30
0.562399974364759
11
-0.125000000000028
21
0.712061918898822
31
0.559358932247571
  0
LINE
  8
MY3DLAYER
10
-0.750000000000015
20
0.468749999998758
30
0.124999999999882
11
-0.745740728286146
21
0.436397619360943
31
0.12499999999989
  0
LINE
  8
MY3DLAYER
10
-0.745740728286151
20
0.501102380636573
30
0.124999999999875
11
-0.750000000000015
21
0.468749999998758
31
0.124999999999882
  0
LINE
  8
MY3DLAYER
10
-0.733253175473075
20
0.531249999998759
30
0.124999999999868
11
-0.745740728286151
21
0.501102380636573
31
0.124999999999875
  0
LINE
  8
MY3DLAYER
10
-0.71338834764834
20
0.557138347647079
30
0.124999999999862
11
-0.733253175473075
21
0.531249999998759
31
0.124999999999868
  0
LINE
  8
MY3DLAYER
10
-0.687500000000023
20
0.577003175471817
30
0.124999999999857
11
-0.71338834764834
21
0.557138347647079
31
0.124999999999862
  0
LINE
  8
MY3DLAYER
10
-0.657352380637839
20
0.589490728284898
30
0.124999999999855
11
-0.687500000000023
21
0.577003175471817
31
0.124999999999857
  0
LINE
  8
MY3DLAYER
10
-0.625000000000025
20
0.593749999998767
30
0.124999999999854
11
-0.657352380637839
21
0.589490728284898
31
0.124999999999855
  0
LINE
  8
MY3DLAYER
10
-0.125000000000036
20
0.937499999997747
30
0.999999999999773
11
-0.125000000000031
21
0.937499999997543
31
0.124999999999778
  0
LINE
  8
MY3DLAYER
10
-0.125000000000031
20
0.937499999997543
30
0.124999999999778
11
-0.125000000000001
21
2.59792187762287e-014
31
0.124999999999998
  0
LINE
  8
MY3DLAYER
10
-1
20
-3.99680288865056e-015
30
0.124999999999993
11
-0.125000000000001
21
2.59792187762287e-014
31
0.124999999999998
  0
LINE
  8
MY3DLAYER
10
-0.625000000000005
20
0.343749999998767
30
0.124999999999912
11
-0.592647619362191
21
0.348009271712636
31
0.124999999999911
  0
LINE
  8
MY3DLAYER
10
-0.657352380637821
20
0.348009271712631
30
0.124999999999911
11
-0.625000000000005
21
0.343749999998767
31
0.124999999999912
  0
LINE
  8
MY3DLAYER
10
-0.687500000000007
20
0.360496824525707
30
0.124999999999908
11
-0.657352380637821
21
0.348009271712631
31
0.124999999999911
  0
LINE
  8
MY3DLAYER
10
-0.713388347648327
20
0.380361652350442
30
0.124999999999903
11
-0.687500000000007
21
0.360496824525707
31
0.124999999999908
  0
LINE
  8
MY3DLAYER
10
-0.733253175473065
20
0.406249999998759
30
0.124999999999897
11
-0.713388347648327
21
0.380361652350442
31
0.124999999999903
  0
LINE
  8
MY3DLAYER
10
-0.745740728286146
20
0.436397619360943
30
0.12499999999989
11
-0.733253175473065
21
0.406249999998759
31
0.124999999999897
  0
LINE
  8
MY3DLAYER
10
-0.592647619362209
20
0.589490728284903
30
0.124999999999855
11
-0.625000000000025
21
0.593749999998767
31
0.124999999999854
  0
LINE
  8
MY3DLAYER
10
-0.562500000000023
20
0.577003175471827
30
0.124999999999858
11
-0.592647619362209
21
0.589490728284903
31
0.124999999999855
  0
LINE
  8
MY3DLAYER
10
-0.536611652351704
20
0.557138347647092
30
0.124999999999863
11
-0.562500000000023
21
0.577003175471827
31
0.124999999999858
  0
LINE
  8
MY3DLAYER
10
-0.516746824526965
20
0.531249999998775
30
0.124999999999869
11
-0.536611652351704
21
0.557138347647092
31
0.124999999999863
  0
LINE
  8
MY3DLAYER
10
-0.504259271713884
20
0.501102380636592
30
0.124999999999876
11
-0.516746824526965
21
0.531249999998775
31
0.124999999999869
  0
LINE
  8
MY3DLAYER
10
-0.500000000000015
20
0.468749999998777
30
0.124999999999884
11
-0.504259271713884
21
0.501102380636592
31
0.124999999999876
  0
LINE
  8
MY3DLAYER
10
-0.504259271713879
20
0.436397619360961
30
0.124999999999891
11
-0.500000000000015
21
0.468749999998777
31
0.124999999999884
  0
LINE
  8
MY3DLAYER
10
-0.516746824526956
20
0.406249999998776
30
0.124999999999898
11
-0.504259271713879
21
0.436397619360961
31
0.124999999999891
  0
LINE
  8
MY3DLAYER
10
-0.53661165235169
20
0.380361652350456
30
0.124999999999904
11
-0.516746824526956
21
0.406249999998776
31
0.124999999999898
  0
LINE
  8
MY3DLAYER
10
-0.562500000000007
20
0.360496824525717
30
0.124999999999909
11
-0.53661165235169
21
0.380361652350456
31
0.124999999999904
  0
LINE
  8
MY3DLAYER
10
-0.592647619362191
20
0.348009271712636
30
0.124999999999911
11
-0.562500000000007
21
0.360496824525717
31
0.124999999999909
  0
LINE
  8
MY3DLAYER
10
-5.16397715673266e-015
20
0.200808343436295
30
0.455805826175794
11
-0.125000000000005
21
0.200808343436292
31
0.455805826175794
  0
LINE
  8
MY3DLAYER
10
-0.125000000000006
20
0.213752517260448
30
0.445873412263422
11
-0.125000000000005
21
0.200808343436292
31
0.455805826175794
  0
LINE
  8
MY3DLAYER
10
-5.71376335895596e-015
20
0.213752517260453
30
0.445873412263422
11
-0.125000000000006
21
0.213752517260448
31
0.445873412263422
  0
LINE
  8
MY3DLAYER
10
-0.125000000000006
20
0.228826326941539
30
0.439629635856879
11
-0.125000000000006
21
0.213752517260448
31
0.445873412263422
  0
LINE
  8
MY3DLAYER
10
-0.125000000000007
20
0.245002517260446
30
0.437499999999942
11
-0.125000000000006
21
0.228826326941539
31
0.439629635856879
  0
LINE
  8
MY3DLAYER
10
-0.125000000000005
20
0.190875929523943
30
0.531249999999956
11
-0.125000000000006
21
0.200808343436314
31
0.544194173824112
  0
LINE
  8
MY3DLAYER
10
-0.125000000000008
20
0.261178707579385
30
0.560370364143005
11
-0.125000000000008
21
0.276252517260476
31
0.554126587736461
  0
LINE
  8
MY3DLAYER
10
-0.125000000000008
20
0.245002517260478
30
0.562499999999941
11
-0.125000000000008
21
0.261178707579385
31
0.560370364143005
  0
LINE
  8
MY3DLAYER
10
-0.125000000000007
20
0.22882632694157
30
0.560370364143012
11
-0.125000000000008
21
0.245002517260478
31
0.562499999999941
  0
LINE
  8
MY3DLAYER
10
-0.125000000000006
20
0.213752517260476
30
0.554126587736477
11
-0.125000000000007
21
0.22882632694157
31
0.560370364143012
  0
LINE
  8
MY3DLAYER
10
-0.125000000000006
20
0.200808343436314
30
0.544194173824112
11
-0.125000000000006
21
0.213752517260476
31
0.554126587736477
  0
LINE
  8
MY3DLAYER
10
-0.125000000000005
20
0.184632153117391
30
0.483823809681049
11
-0.125000000000005
21
0.182502517260463
31
0.499999999999958
  0
LINE
  8
MY3DLAYER
10
-0.125000000000005
20
0.190875929523927
30
0.468749999999956
11
-0.125000000000005
21
0.184632153117391
31
0.483823809681049
  0
LINE
  8
MY3DLAYER
10
-0.125000000000008
20
0.299129104996982
30
0.468749999999927
11
-0.125000000000008
21
0.28919669108461
31
0.455805826175771
  0
LINE
  8
MY3DLAYER
10
-0.125000000000009
20
0.305372881403525
30
0.483823809681019
11
-0.125000000000008
21
0.299129104996982
31
0.468749999999927
  0
LINE
  8
MY3DLAYER
10
-0.125000000000009
20
0.307502517260462
30
0.499999999999926
11
-0.125000000000009
21
0.305372881403525
31
0.483823809681019
  0
LINE
  8
MY3DLAYER
10
-0.125000000000007
20
0.261178707579354
30
0.439629635856871
11
-0.125000000000007
21
0.245002517260446
31
0.437499999999942
  0
LINE
  8
MY3DLAYER
10
-0.125000000000007
20
0.276252517260448
30
0.445873412263406
11
-0.125000000000007
21
0.261178707579354
31
0.439629635856871
  0
LINE
  8
MY3DLAYER
10
-7.4039938882794e-015
20
0.276252517260453
30
0.445873412263406
11
-0.125000000000007
21
0.276252517260448
31
0.445873412263406
  0
LINE
  8
MY3DLAYER
10
-0.125000000000008
20
0.28919669108461
30
0.455805826175771
11
-0.125000000000007
21
0.276252517260448
31
0.445873412263406
  0
LINE
  8
MY3DLAYER
10
-8.39786930035303e-015
20
0.289196691084614
30
0.455805826175771
11
-0.125000000000008
21
0.28919669108461
31
0.455805826175771
  0
LINE
  8
MY3DLAYER
10
-0.125000000000005
20
0.1846321531174
30
0.516176190318865
11
-0.125000000000005
21
0.190875929523943
31
0.531249999999956
  0
LINE
  8
MY3DLAYER
10
-0.125000000000008
20
0.276252517260476
30
0.554126587736461
11
-0.125000000000008
21
0.289196691084633
31
0.544194173824089
  0
LINE
  8
MY3DLAYER
10
-0.125000000000009
20
0.305372881403533
30
0.516176190318834
11
-0.125000000000009
21
0.307502517260462
31
0.499999999999926
  0
LINE
  8
MY3DLAYER
10
-0.125000000000009
20
0.299129104996998
30
0.531249999999927
11
-0.125000000000009
21
0.305372881403533
31
0.516176190318834
  0
LINE
  8
MY3DLAYER
10
-0.125000000000008
20
0.289196691084633
30
0.544194173824089
11
-0.125000000000009
21
0.299129104996998
31
0.531249999999927
  0
LINE
  8
MY3DLAYER
10
-0.125000000000001
20
0.531249999997746
30
0.876112769412329
11
-0.125000000000001
21
0.529120364140814
31
0.859936579093422
  0
LINE
  8
MY3DLAYER
10
-0.125000000000001
20
0.529120364140814
30
0.892288959731236
11
-0.125000000000001
21
0.531249999997746
31
0.876112769412329
  0
LINE
  8
MY3DLAYER
10
-0.125000000000001
20
0.522876587734273
30
0.907362769412329
11
-0.125000000000001
21
0.529120364140814
31
0.892288959731236
  0
LINE
  8
MY3DLAYER
10
-0.12500000000002
20
0.501102380636715
30
0.745740728286019
11
-0.125000000000021
21
0.5312499999989
31
0.733253175472941
  0
LINE
  8
MY3DLAYER
10
-0.12500000000002
20
0.4687499999989
30
0.749999999999886
11
-0.12500000000002
21
0.501102380636715
31
0.745740728286019
  0
LINE
  8
MY3DLAYER
10
-0.125000000000018
20
0.436397619361085
30
0.745740728286019
11
-0.12500000000002
21
0.4687499999989
31
0.749999999999886
  0
LINE
  8
MY3DLAYER
10
-0.125000000000017
20
0.4062499999989
30
0.733253175472941
11
-0.125000000000018
21
0.436397619361085
31
0.745740728286019
  0
LINE
  8
MY3DLAYER
10
-0.125000000000016
20
0.380361652350582
30
0.713388347648204
11
-0.125000000000017
21
0.4062499999989
31
0.733253175472941
  0
LINE
  8
MY3DLAYER
10
-0.125000000000016
20
0.360496824525845
30
0.687499999999886
11
-0.125000000000016
21
0.380361652350582
31
0.713388347648204
  0
LINE
  8
MY3DLAYER
10
-0.125000000000015
20
0.348009271712767
30
0.657352380637701
11
-0.125000000000016
21
0.360496824525845
31
0.687499999999886
  0
LINE
  8
MY3DLAYER
10
-0.125000000000015
20
0.3437499999989
30
0.624999999999886
11
-0.125000000000015
21
0.348009271712767
31
0.657352380637701
  0
LINE
  8
MY3DLAYER
10
-0.125000000000015
20
0.348009271712767
30
0.592647619362071
11
-0.125000000000015
21
0.3437499999989
31
0.624999999999886
  0
LINE
  8
MY3DLAYER
10
-0.125000000000015
20
0.360496824525845
30
0.562499999999886
11
-0.125000000000015
21
0.348009271712767
31
0.592647619362071
  0
LINE
  8
MY3DLAYER
10
-0.125000000000015
20
0.380361652350582
30
0.536611652351567
11
-0.125000000000015
21
0.360496824525845
31
0.562499999999886
  0
LINE
  8
MY3DLAYER
10
-0.125000000000016
20
0.4062499999989
30
0.516746824526831
11
-0.125000000000015
21
0.380361652350582
31
0.536611652351567
  0
LINE
  8
MY3DLAYER
10
-0.125000000000017
20
0.436397619361085
30
0.504259271713752
11
-0.125000000000016
21
0.4062499999989
31
0.516746824526831
  0
LINE
  8
MY3DLAYER
10
-0.125000000000018
20
0.4687499999989
30
0.499999999999886
11
-0.125000000000017
21
0.436397619361085
31
0.504259271713752
  0
LINE
  8
MY3DLAYER
10
-0.125000000000019
20
0.501102380636715
30
0.504259271713752
11
-0.125000000000018
21
0.4687499999989
31
0.499999999999886
  0
LINE
  8
MY3DLAYER
10
-0.12500000000002
20
0.5312499999989
30
0.516746824526831
11
-0.125000000000019
21
0.501102380636715
31
0.504259271713752
  0
LINE
  8
MY3DLAYER
10
-0.125000000000021
20
0.557138347647218
30
0.536611652351567
11
-0.12500000000002
21
0.5312499999989
31
0.516746824526831
  0
LINE
  8
MY3DLAYER
10
-0.125000000000022
20
0.577003175471955
30
0.562499999999886
11
-0.125000000000021
21
0.557138347647218
31
0.536611652351567
  0
LINE
  8
MY3DLAYER
10
-0.125000000000022
20
0.589490728285033
30
0.592647619362071
11
-0.125000000000022
21
0.577003175471955
31
0.562499999999886
  0
LINE
  8
MY3DLAYER
10
-0.733253175473075
20
0.531249999998759
30
0.124999999999868
11
-0.733253175473074
21
0.53124999999873
31
-1.26972129370958e-013
  0
LINE
  8
MY3DLAYER
10
-0.71338834764834
20
0.557138347647079
30
0.124999999999862
11
-0.71338834764834
21
0.557138347647049
31
-1.32884066977087e-013
  0
LINE
  8
MY3DLAYER
10
-0.745740728286151
20
0.501102380636573
30
0.124999999999875
11
-0.745740728286151
21
0.501102380636544
31
-1.19977724315819e-013
  0
LINE
  8
MY3DLAYER
10
-0.750000000000015
20
0.468749999998758
30
0.124999999999882
11
-0.750000000000015
21
0.468749999998728
31
-1.12455963323984e-013
  0
LINE
  8
MY3DLAYER
10
-0.745740728286146
20
0.436397619360943
30
0.12499999999989
11
-0.745740728286146
21
0.436397619360914
31
-1.04878691180917e-013
  0
LINE
  8
MY3DLAYER
10
-0.733253175473065
20
0.406249999998759
30
0.124999999999897
11
-0.733253175473065
21
0.40624999999873
31
-9.77732638233163e-014
  0
LINE
  8
MY3DLAYER
10
-0.713388347648327
20
0.380361652350442
30
0.124999999999903
11
-0.713388347648326
21
0.380361652350413
31
-9.16115260366467e-014
  0
LINE
  8
MY3DLAYER
10
-8.27231830702582e-015
20
0.299129104996985
30
0.468749999999927
11
-0.125000000000008
21
0.299129104996982
31
0.468749999999927
  0
LINE
  8
MY3DLAYER
10
-8.91524296771723e-015
20
0.307502517260466
30
0.499999999999926
11
-0.125000000000009
21
0.307502517260462
31
0.499999999999926
  0
LINE
  8
MY3DLAYER
10
-8.7517259488928e-015
20
0.305372881403537
30
0.516176190318834
11
-0.125000000000009
21
0.305372881403533
31
0.516176190318834
  0
LINE
  8
MY3DLAYER
10
-9.16049672672717e-015
20
0.299129104997001
30
0.531249999999927
11
-0.125000000000009
21
0.299129104996998
31
0.531249999999927
  0
LINE
  8
MY3DLAYER
10
-5.28952815006158e-015
20
0.190875929523946
30
0.531249999999956
11
-0.125000000000005
21
0.190875929523943
31
0.531249999999956
  0
LINE
  8
MY3DLAYER
10
-5.25420971804541e-015
20
0.184632153117404
30
0.516176190318865
11
-0.125000000000005
21
0.1846321531174
31
0.516176190318865
  0
LINE
  8
MY3DLAYER
10
-1.22595483027393e-015
20
0.53124999999775
30
0.876112769412329
11
-0.125000000000001
21
0.531249999997746
31
0.876112769412329
  0
LINE
  8
MY3DLAYER
10
-1.06243781144924e-015
20
0.529120364140818
30
0.892288959731236
11
-0.125000000000001
21
0.529120364140814
31
0.892288959731236
  0
LINE
  8
MY3DLAYER
10
-6.87115578985642e-015
20
0.228826326941574
30
0.560370364143012
11
-0.125000000000007
21
0.22882632694157
31
0.560370364143012
  0
LINE
  8
MY3DLAYER
10
-8.75172594889212e-015
20
0.305372881403528
30
0.483823809681019
11
-0.125000000000009
21
0.305372881403525
31
0.483823809681019
  0
LINE
  8
MY3DLAYER
10
-5.0906926992203e-015
20
0.182502517260466
30
0.499999999999958
11
-0.125000000000005
21
0.182502517260463
31
0.499999999999958
  0
LINE
  8
MY3DLAYER
10
-2.0977274048512e-014
20
0.557138347647222
30
0.536611652351568
11
-0.125000000000021
21
0.557138347647218
31
0.536611652351567
  0
LINE
  8
MY3DLAYER
10
-2.16143504815573e-014
20
0.577003175471959
30
0.562499999999886
11
-0.125000000000022
21
0.577003175471955
31
0.562499999999886
  0
LINE
  8
MY3DLAYER
10
-1.98777016440651e-014
20
0.531249999998904
30
0.516746824526832
11
-0.12500000000002
21
0.5312499999989
31
0.516746824526831
  0
LINE
  8
MY3DLAYER
10
-1.88951844118189e-014
20
0.501102380636719
30
0.504259271713753
11
-0.125000000000019
21
0.501102380636715
31
0.504259271713752
  0
LINE
  8
MY3DLAYER
10
-1.77433819048917e-014
20
0.468749999998904
30
0.499999999999886
11
-0.125000000000018
21
0.4687499999989
31
0.499999999999886
  0
LINE
  8
MY3DLAYER
10
-6.15785256880807e-015
20
0.213752517260479
30
0.554126587736477
11
-0.125000000000006
21
0.213752517260476
31
0.554126587736477
  0
LINE
  8
MY3DLAYER
10
-6.05215557643455e-015
20
0.200808343436318
30
0.544194173824112
11
-0.125000000000006
21
0.200808343436314
31
0.544194173824112
  0
LINE
  8
MY3DLAYER
10
-2.21290765554392e-014
20
0.589490728285037
30
0.592647619362071
11
-0.125000000000022
21
0.589490728285033
31
0.592647619362071
  0
LINE
  8
MY3DLAYER
10
-2.24561105930887e-014
20
0.593749999998904
30
0.624999999999886
11
-0.125000000000022
21
0.5937499999989
31
0.624999999999886
  0
LINE
  8
MY3DLAYER
10
-1.56487701676263e-014
20
0.360496824525849
30
0.687499999999886
11
-0.125000000000016
21
0.360496824525845
31
0.687499999999886
  0
LINE
  8
MY3DLAYER
10
-1.51340440937444e-014
20
0.348009271712771
30
0.657352380637702
11
-0.125000000000015
21
0.348009271712767
31
0.657352380637701
  0
LINE
  8
MY3DLAYER
10
-1.62858466006716e-014
20
0.380361652350586
30
0.713388347648205
11
-0.125000000000016
21
0.380361652350582
31
0.713388347648204
  0
LINE
  8
MY3DLAYER
10
-1.73854190051184e-014
20
0.406249999998904
30
0.733253175472941
11
-0.125000000000017
21
0.4062499999989
31
0.733253175472941
  0
LINE
  8
MY3DLAYER
10
-1.83679362373647e-014
20
0.436397619361089
30
0.74574072828602
11
-0.125000000000018
21
0.436397619361085
31
0.745740728286019
  0
LINE
  8
MY3DLAYER
10
-1.95197387442919e-014
20
0.468749999998904
30
0.749999999999886
11
-0.12500000000002
21
0.4687499999989
31
0.749999999999886
  0
LINE
  8
MY3DLAYER
10
-1.70356686078145e-014
20
0.436397619361089
30
0.504259271713753
11
-0.125000000000017
21
0.436397619361085
31
0.504259271713752
  0
LINE
  8
MY3DLAYER
10
-1.60531513755682e-014
20
0.406249999998904
30
0.516746824526832
11
-0.125000000000016
21
0.4062499999989
31
0.516746824526831
  0
LINE
  8
MY3DLAYER
10
-1.53976681809715e-014
20
0.380361652350586
30
0.536611652351568
11
-0.125000000000015
21
0.380361652350582
31
0.536611652351567
  0
LINE
  8
MY3DLAYER
10
-1.47605917479262e-014
20
0.360496824525849
30
0.562499999999886
11
-0.125000000000015
21
0.360496824525845
31
0.562499999999886
  0
LINE
  8
MY3DLAYER
10
-1.46899548838943e-014
20
0.348009271712771
30
0.592647619362071
11
-0.125000000000015
21
0.348009271712767
31
0.592647619362071
  0
LINE
  8
MY3DLAYER
10
-2.25731657652892e-014
20
0.589490728285037
30
0.657352380637702
11
-0.125000000000023
21
0.589490728285033
31
0.657352380637701
  0
LINE
  8
MY3DLAYER
10
-0.592647619362191
20
0.348009271712636
30
0.124999999999911
11
-0.59264761936219
21
0.348009271712607
31
-8.33403645031893e-014
  0
LINE
  8
MY3DLAYER
10
-0.625000000000005
20
0.343749999998767
30
0.124999999999912
11
-0.625000000000005
21
0.343749999998738
31
-8.25354528103361e-014
  0
LINE
  8
MY3DLAYER
10
-0.562500000000007
20
0.360496824525717
30
0.124999999999909
11
-0.562500000000006
21
0.360496824525688
31
-8.60881664891366e-014
  0
LINE
  8
MY3DLAYER
10
-0.53661165235169
20
0.380361652350456
30
0.124999999999904
11
-0.53661165235169
21
0.380361652350426
31
-9.05845697388684e-014
  0
LINE
  8
MY3DLAYER
10
-0.516746824526956
20
0.406249999998776
30
0.124999999999898
11
-0.516746824526955
21
0.406249999998746
31
-9.64965073449974e-014
  0
LINE
  8
MY3DLAYER
10
-1.48070100560949e-014
20
0.343749999998904
30
0.624999999999886
11
-0.125000000000015
21
0.3437499999989
31
0.624999999999886
  0
LINE
  8
MY3DLAYER
10
-2.02274520413691e-014
20
0.501102380636719
30
0.74574072828602
11
-0.12500000000002
21
0.501102380636715
31
0.745740728286019
  0
LINE
  8
MY3DLAYER
10
-2.12099692736153e-014
20
0.531249999998904
30
0.733253175472941
11
-0.125000000000021
21
0.5312499999989
31
0.733253175472941
  0
LINE
  8
MY3DLAYER
10
-0.562500000000023
20
0.577003175471827
30
0.124999999999858
11
-0.562500000000023
21
0.577003175471798
31
-1.36658825260812e-013
  0
LINE
  8
MY3DLAYER
10
-0.536611652351704
20
0.557138347647092
30
0.124999999999863
11
-0.536611652351703
21
0.557138347647063
31
-1.31857110679309e-013
  0
LINE
  8
MY3DLAYER
10
-0.592647619362209
20
0.589490728284903
30
0.124999999999855
11
-0.592647619362209
21
0.589490728284874
31
-1.39739694154147e-013
  0
LINE
  8
MY3DLAYER
10
-0.625000000000025
20
0.593749999998767
30
0.124999999999854
11
-0.625000000000024
21
0.593749999998738
31
-1.40933183905619e-013
  0
LINE
  8
MY3DLAYER
10
-0.657352380637839
20
0.589490728284898
30
0.124999999999855
11
-0.657352380637839
21
0.589490728284869
31
-1.40128272212766e-013
  0
LINE
  8
MY3DLAYER
10
-0.687500000000023
20
0.577003175471817
30
0.124999999999857
11
-0.687500000000023
21
0.577003175471788
31
-1.37380470226819e-013
  0
LINE
  8
MY3DLAYER
10
-2.18654524682121e-014
20
0.557138347647222
30
0.713388347648205
11
-0.125000000000022
21
0.557138347647218
31
0.713388347648204
  0
LINE
  8
MY3DLAYER
10
-2.25025289012574e-014
20
0.577003175471959
30
0.687499999999886
11
-0.125000000000022
21
0.577003175471955
31
0.687499999999886
  0
LINE
  8
MY3DLAYER
10
-0.504259271713879
20
0.436397619360961
30
0.124999999999891
11
-0.504259271713878
21
0.436397619360932
31
-1.03490912400136e-013
  0
LINE
  8
MY3DLAYER
10
-0.500000000000015
20
0.468749999998777
30
0.124999999999884
11
-0.500000000000015
21
0.468749999998747
31
-1.11012673391971e-013
  0
LINE
  8
MY3DLAYER
10
-0.687500000000007
20
0.360496824525707
30
0.124999999999908
11
-0.687500000000006
21
0.360496824525678
31
-8.68098114551429e-014
  0
LINE
  8
MY3DLAYER
10
-0.657352380637821
20
0.348009271712631
30
0.124999999999911
11
-0.65735238063782
21
0.348009271712602
31
-8.37289425618081e-014
  0
LINE
  8
MY3DLAYER
10
-0.504259271713884
20
0.501102380636592
30
0.124999999999876
11
-0.504259271713883
21
0.501102380636562
31
-1.18589945535038e-013
  0
LINE
  8
MY3DLAYER
10
-0.516746824526965
20
0.531249999998775
30
0.124999999999869
11
-0.516746824526965
21
0.531249999998746
31
-1.25695372892639e-013
  0
ENDSEC
  0
EOF
