 0
SECTION
 2
ENTITIES
  0
LINE
  8
MY3DLAYER
10
0.249999999991902
20
-0.12499999999958
30
0.874999999999834
11
0.217647619354087
21
-0.124999999999581
31
0.8792592717137
  0
LINE
  8
MY3DLAYER
10
0.249999999991902
20
-0.12499999999958
30
0.874999999999834
11
0.249999999991914
21
-0.24999999999958
31
0.874999999999843
  0
LINE
  8
MY3DLAYER
10
0.249999999991914
20
-0.24999999999958
30
0.874999999999843
11
0.217647619354099
21
-0.249999999999581
31
0.879259271713709
  0
LINE
  8
MY3DLAYER
10
0.217647619354087
20
-0.124999999999581
30
0.8792592717137
11
0.217647619354099
21
-0.249999999999581
31
0.879259271713709
  0
LINE
  8
MY3DLAYER
10
0.217647619354087
20
-0.124999999999581
30
0.8792592717137
11
0.187499999991902
21
-0.124999999999583
31
0.891746824526779
  0
LINE
  8
MY3DLAYER
10
0.217647619354099
20
-0.249999999999581
30
0.879259271713709
11
0.187499999991914
21
-0.249999999999583
31
0.891746824526788
  0
LINE
  8
MY3DLAYER
10
0.187499999991902
20
-0.124999999999583
30
0.891746824526779
11
0.187499999991914
21
-0.249999999999583
31
0.891746824526788
  0
LINE
  8
MY3DLAYER
10
0.187499999991902
20
-0.124999999999583
30
0.891746824526779
11
0.161611652343584
21
-0.124999999999583
31
0.911611652351516
  0
LINE
  8
MY3DLAYER
10
0.187499999991914
20
-0.249999999999583
30
0.891746824526788
11
0.161611652343595
21
-0.249999999999583
31
0.911611652351525
  0
LINE
  8
MY3DLAYER
10
0.161611652343584
20
-0.124999999999583
30
0.911611652351516
11
0.161611652343595
21
-0.249999999999583
31
0.911611652351525
  0
LINE
  8
MY3DLAYER
10
0.161611652343584
20
-0.124999999999583
30
0.911611652351516
11
0.141746824518847
21
-0.124999999999583
31
0.937499999999834
  0
LINE
  8
MY3DLAYER
10
0.161611652343595
20
-0.249999999999583
30
0.911611652351525
11
0.141746824518859
21
-0.249999999999583
31
0.937499999999843
  0
LINE
  8
MY3DLAYER
10
0.141746824518847
20
-0.124999999999583
30
0.937499999999834
11
0.141746824518859
21
-0.249999999999583
31
0.937499999999843
  0
LINE
  8
MY3DLAYER
10
0.161611652343584
20
-0.124999999999571
30
1.08838834764815
11
0.187499999991902
21
-0.124999999999567
31
1.10825317547289
  0
LINE
  8
MY3DLAYER
10
0.249999999991902
20
-0.124999999999562
30
1.12499999999983
11
0.282352380629717
21
-0.124999999999558
31
1.12074072828597
  0
LINE
  8
MY3DLAYER
10
0.282352380629717
20
-0.124999999999558
30
1.12074072828597
11
0.312499999991902
21
-0.124999999999556
31
1.10825317547289
  0
LINE
  8
MY3DLAYER
10
0.282352380629717
20
-0.124999999999558
30
1.12074072828597
11
0.282352380629729
21
-0.249999999999558
31
1.12074072828598
  0
LINE
  8
MY3DLAYER
10
0.282352380629729
20
-0.249999999999558
30
1.12074072828598
11
0.312499999991914
21
-0.249999999999556
31
1.1082531754729
  0
LINE
  8
MY3DLAYER
10
0.312499999991902
20
-0.124999999999556
30
1.10825317547289
11
0.312499999991914
21
-0.249999999999556
31
1.1082531754729
  0
LINE
  8
MY3DLAYER
10
0.249999999991902
20
-0.124999999999693
30
0.749999999999834
11
0.499999999991902
21
-0.124999999999691
31
0.999999999999834
  0
LINE
  8
MY3DLAYER
10
0.499999999991902
20
-0.124999999999546
30
1.37499999999983
11
0.499999999991902
21
-0.124999999999691
31
0.999999999999834
  0
LINE
  8
MY3DLAYER
10
0.358253175464969
20
-0.249999999999565
30
0.937499999999843
11
0.338388347640232
21
-0.249999999999569
31
0.911611652351525
  0
LINE
  8
MY3DLAYER
10
0.499999999991902
20
-0.749999999999547
30
1.24999999999981
11
-8.09774469701097e-012
21
-0.749999999999546
31
1.24999999999984
  0
LINE
  8
MY3DLAYER
10
0.499999999991902
20
-0.749999999999545
30
1.37499999999981
11
0.499999999991902
21
-0.749999999999547
31
1.24999999999981
  0
LINE
  8
MY3DLAYER
10
0.499999999991902
20
-0.749999999999545
30
1.37499999999981
11
0.249999999991917
21
-0.749999999999546
31
1.37499999999997
  0
LINE
  8
MY3DLAYER
10
-8.09774469701097e-012
20
-0.749999999999546
30
1.24999999999984
11
-8.06898992067318e-012
21
-0.749999999999545
31
1.37500000000012
  0
LINE
  8
MY3DLAYER
10
0.499999999991902
20
-0.124999999999546
30
1.37499999999983
11
0.499999999991902
21
-0.749999999999545
31
1.37499999999981
  0
LINE
  8
MY3DLAYER
10
0.499999999991902
20
-0.249999999999546
30
1.24999999999984
11
0.499999999991902
21
-0.749999999999547
31
1.24999999999981
  0
LINE
  8
MY3DLAYER
10
0.499999999991902
20
-0.249999999999548
30
0.999999999999835
11
0.499999999991902
21
-0.249999999999546
31
1.24999999999984
  0
LINE
  8
MY3DLAYER
10
0.499999999991902
20
-0.249999999999548
30
0.999999999999835
11
0.499999999991902
21
-0.124999999999691
31
0.999999999999834
  0
LINE
  8
MY3DLAYER
10
0.358253175464969
20
-0.249999999999557
30
1.06249999999984
11
0.370740728278047
21
-0.249999999999557
31
1.03235238063766
  0
LINE
  8
MY3DLAYER
10
0.249999999991902
20
-0.24999999999955
30
0.749999999999835
11
0.499999999991902
21
-0.249999999999548
31
0.999999999999835
  0
LINE
  8
MY3DLAYER
10
0.499999999991902
20
-0.249999999999546
30
1.24999999999984
11
-8.06898992067318e-012
21
-0.249999999999546
31
1.24999999999984
  0
LINE
  8
MY3DLAYER
10
-8.06898992067318e-012
20
-0.249999999999546
30
1.24999999999984
11
-8.09774469701097e-012
21
-0.24999999999955
31
0.749999999999835
  0
LINE
  8
MY3DLAYER
10
0.374999999991914
20
-0.249999999999559
30
0.999999999999843
11
0.370740728278047
21
-0.249999999999561
31
0.967647619362028
  0
LINE
  8
MY3DLAYER
10
0.370740728278047
20
-0.249999999999561
30
0.967647619362028
11
0.358253175464969
21
-0.249999999999565
31
0.937499999999843
  0
LINE
  8
MY3DLAYER
10
0.338388347640232
20
-0.249999999999569
30
0.911611652351525
11
0.312499999991914
21
-0.249999999999572
31
0.891746824526788
  0
LINE
  8
MY3DLAYER
10
0.312499999991914
20
-0.249999999999572
30
0.891746824526788
11
0.282352380629729
21
-0.249999999999576
31
0.879259271713709
  0
LINE
  8
MY3DLAYER
10
0.282352380629729
20
-0.249999999999576
30
0.879259271713709
11
0.249999999991914
21
-0.24999999999958
31
0.874999999999843
  0
LINE
  8
MY3DLAYER
10
0.141746824518859
20
-0.249999999999583
30
0.937499999999843
11
0.12925927170578
21
-0.249999999999582
31
0.967647619362028
  0
LINE
  8
MY3DLAYER
10
0.12925927170578
20
-0.249999999999582
30
0.967647619362028
11
0.124999999991914
21
-0.24999999999958
31
0.999999999999843
  0
LINE
  8
MY3DLAYER
10
0.124999999991914
20
-0.24999999999958
30
0.999999999999843
11
0.12925927170578
21
-0.249999999999578
31
1.03235238063766
  0
LINE
  8
MY3DLAYER
10
0.12925927170578
20
-0.249999999999578
30
1.03235238063766
11
0.141746824518859
21
-0.249999999999575
31
1.06249999999984
  0
LINE
  8
MY3DLAYER
10
0.141746824518859
20
-0.249999999999575
30
1.06249999999984
11
0.161611652343595
21
-0.249999999999571
31
1.08838834764816
  0
LINE
  8
MY3DLAYER
10
0.161611652343595
20
-0.249999999999571
30
1.08838834764816
11
0.187499999991914
21
-0.249999999999567
31
1.1082531754729
  0
LINE
  8
MY3DLAYER
10
0.187499999991914
20
-0.249999999999567
30
1.1082531754729
11
0.217647619354099
21
-0.249999999999563
31
1.12074072828598
  0
LINE
  8
MY3DLAYER
10
0.217647619354099
20
-0.249999999999563
30
1.12074072828598
11
0.249999999991914
21
-0.249999999999562
31
1.12499999999984
  0
LINE
  8
MY3DLAYER
10
0.249999999991914
20
-0.249999999999562
30
1.12499999999984
11
0.282352380629729
21
-0.249999999999558
31
1.12074072828598
  0
LINE
  8
MY3DLAYER
10
0.312499999991914
20
-0.249999999999556
30
1.1082531754729
11
0.338388347640232
21
-0.249999999999557
31
1.08838834764816
  0
LINE
  8
MY3DLAYER
10
0.338388347640232
20
-0.249999999999557
30
1.08838834764816
11
0.358253175464969
21
-0.249999999999557
31
1.06249999999984
  0
LINE
  8
MY3DLAYER
10
0.370740728278047
20
-0.249999999999557
30
1.03235238063766
11
0.374999999991914
21
-0.249999999999559
31
0.999999999999843
  0
LINE
  8
MY3DLAYER
10
-8.06898992067318e-012
20
-0.249999999999546
30
1.24999999999984
11
-8.09774469701097e-012
21
-0.749999999999546
31
1.24999999999984
  0
LINE
  8
MY3DLAYER
10
0.217647619354087
20
-0.124999999999563
30
1.12074072828597
11
0.217647619354099
21
-0.249999999999563
31
1.12074072828598
  0
LINE
  8
MY3DLAYER
10
0.249999999991902
20
-0.124999999999562
30
1.12499999999983
11
0.249999999991914
21
-0.249999999999562
31
1.12499999999984
  0
LINE
  8
MY3DLAYER
10
0.161611652343584
20
-0.124999999999571
30
1.08838834764815
11
0.161611652343595
21
-0.249999999999571
31
1.08838834764816
  0
LINE
  8
MY3DLAYER
10
0.187499999991902
20
-0.124999999999567
30
1.10825317547289
11
0.187499999991914
21
-0.249999999999567
31
1.1082531754729
  0
LINE
  8
MY3DLAYER
10
0.124999999991902
20
-0.12499999999958
30
0.999999999999834
11
0.129259271705769
21
-0.124999999999578
31
1.03235238063765
  0
LINE
  8
MY3DLAYER
10
0.124999999991902
20
-0.12499999999958
30
0.999999999999834
11
0.124999999991914
21
-0.24999999999958
31
0.999999999999843
  0
LINE
  8
MY3DLAYER
10
0.129259271705769
20
-0.124999999999578
30
1.03235238063765
11
0.12925927170578
21
-0.249999999999578
31
1.03235238063766
  0
LINE
  8
MY3DLAYER
10
0.129259271705769
20
-0.124999999999578
30
1.03235238063765
11
0.141746824518847
21
-0.124999999999575
31
1.06249999999983
  0
LINE
  8
MY3DLAYER
10
0.141746824518847
20
-0.124999999999575
30
1.06249999999983
11
0.141746824518859
21
-0.249999999999575
31
1.06249999999984
  0
LINE
  8
MY3DLAYER
10
0.141746824518847
20
-0.124999999999575
30
1.06249999999983
11
0.161611652343584
21
-0.124999999999571
31
1.08838834764815
  0
LINE
  8
MY3DLAYER
10
0.338388347640221
20
-0.124999999999569
30
0.911611652351516
11
0.338388347640232
21
-0.249999999999569
31
0.911611652351525
  0
LINE
  8
MY3DLAYER
10
0.358253175464957
20
-0.124999999999557
30
1.06249999999983
11
0.358253175464969
21
-0.249999999999557
31
1.06249999999984
  0
LINE
  8
MY3DLAYER
10
0.187499999991902
20
-0.124999999999567
30
1.10825317547289
11
0.217647619354087
21
-0.124999999999563
31
1.12074072828597
  0
LINE
  8
MY3DLAYER
10
0.312499999991902
20
-0.124999999999572
30
0.891746824526779
11
0.312499999991914
21
-0.249999999999572
31
0.891746824526788
  0
LINE
  8
MY3DLAYER
10
0.312499999991902
20
-0.124999999999556
30
1.10825317547289
11
0.338388347640221
21
-0.124999999999557
31
1.08838834764815
  0
LINE
  8
MY3DLAYER
10
0.217647619354087
20
-0.124999999999563
30
1.12074072828597
11
0.249999999991902
21
-0.124999999999562
31
1.12499999999983
  0
LINE
  8
MY3DLAYER
10
0.312499999991902
20
-0.124999999999572
30
0.891746824526779
11
0.282352380629717
21
-0.124999999999576
31
0.8792592717137
  0
LINE
  8
MY3DLAYER
10
0.370740728278036
20
-0.124999999999557
30
1.03235238063765
11
0.374999999991902
21
-0.124999999999559
31
0.999999999999834
  0
LINE
  8
MY3DLAYER
10
0.338388347640221
20
-0.124999999999557
30
1.08838834764815
11
0.338388347640232
21
-0.249999999999557
31
1.08838834764816
  0
LINE
  8
MY3DLAYER
10
0.129259271705769
20
-0.124999999999582
30
0.967647619362019
11
0.124999999991902
21
-0.12499999999958
31
0.999999999999834
  0
LINE
  8
MY3DLAYER
10
0.141746824518847
20
-0.124999999999583
30
0.937499999999834
11
0.129259271705769
21
-0.124999999999582
31
0.967647619362019
  0
LINE
  8
MY3DLAYER
10
0.282352380629717
20
-0.124999999999576
30
0.8792592717137
11
0.249999999991902
21
-0.12499999999958
31
0.874999999999834
  0
LINE
  8
MY3DLAYER
10
0.370740728278036
20
-0.124999999999561
30
0.967647619362019
11
0.358253175464957
21
-0.124999999999565
31
0.937499999999834
  0
LINE
  8
MY3DLAYER
10
0.370740728278036
20
-0.124999999999557
30
1.03235238063765
11
0.370740728278047
21
-0.249999999999557
31
1.03235238063766
  0
LINE
  8
MY3DLAYER
10
0.358253175464957
20
-0.124999999999557
30
1.06249999999983
11
0.370740728278036
21
-0.124999999999557
31
1.03235238063765
  0
LINE
  8
MY3DLAYER
10
0.374999999991902
20
-0.124999999999559
30
0.999999999999834
11
0.374999999991914
21
-0.249999999999559
31
0.999999999999843
  0
LINE
  8
MY3DLAYER
10
0.374999999991902
20
-0.124999999999559
30
0.999999999999834
11
0.370740728278036
21
-0.124999999999561
31
0.967647619362019
  0
LINE
  8
MY3DLAYER
10
0.370740728278036
20
-0.124999999999561
30
0.967647619362019
11
0.370740728278047
21
-0.249999999999561
31
0.967647619362028
  0
LINE
  8
MY3DLAYER
10
0.358253175464957
20
-0.124999999999565
30
0.937499999999834
11
0.338388347640221
21
-0.124999999999569
31
0.911611652351516
  0
LINE
  8
MY3DLAYER
10
0.358253175464957
20
-0.124999999999565
30
0.937499999999834
11
0.358253175464969
21
-0.249999999999565
31
0.937499999999843
  0
LINE
  8
MY3DLAYER
10
0.338388347640221
20
-0.124999999999569
30
0.911611652351516
11
0.312499999991902
21
-0.124999999999572
31
0.891746824526779
  0
LINE
  8
MY3DLAYER
10
0.282352380629717
20
-0.124999999999576
30
0.8792592717137
11
0.282352380629729
21
-0.249999999999576
31
0.879259271713709
  0
LINE
  8
MY3DLAYER
10
0.129259271705769
20
-0.124999999999582
30
0.967647619362019
11
0.12925927170578
21
-0.249999999999582
31
0.967647619362028
  0
LINE
  8
MY3DLAYER
10
0.338388347640221
20
-0.124999999999557
30
1.08838834764815
11
0.358253175464957
21
-0.124999999999557
31
1.06249999999983
  0
LINE
  8
MY3DLAYER
10
0.338388347644257
20
-0.588388347648289
30
0.125000000000027
11
0.338388347644269
21
-0.588388347648281
31
0.250000000000027
  0
LINE
  8
MY3DLAYER
10
0.129259271709787
20
-0.249999999999948
30
0.532352380637848
11
0.141746824522866
21
-0.249999999999946
31
0.562500000000032
  0
LINE
  8
MY3DLAYER
10
0.141746824522884
20
-0.124999999999946
30
0.562500000000014
11
0.141746824522866
21
-0.249999999999946
31
0.562500000000032
  0
LINE
  8
MY3DLAYER
10
0.217647619358106
20
-0.249999999999949
30
0.620740728286165
11
0.249999999995921
21
-0.249999999999953
31
0.625000000000032
  0
LINE
  8
MY3DLAYER
10
0.249999999995939
20
-0.124999999999953
30
0.625000000000014
11
0.249999999995921
21
-0.249999999999953
31
0.625000000000032
  0
LINE
  8
MY3DLAYER
10
0.249999999995939
20
-0.124999999999953
30
0.625000000000014
11
0.282352380633754
21
-0.124999999999958
31
0.620740728286148
  0
LINE
  8
MY3DLAYER
10
0.249999999995921
20
-0.249999999999953
30
0.625000000000032
11
0.282352380633736
21
-0.249999999999958
31
0.620740728286165
  0
LINE
  8
MY3DLAYER
10
0.129259271709805
20
-0.124999999999948
30
0.53235238063783
11
0.141746824522884
21
-0.124999999999946
31
0.562500000000014
  0
LINE
  8
MY3DLAYER
10
0.129259271709805
20
-0.124999999999948
30
0.53235238063783
11
0.129259271709787
21
-0.249999999999948
31
0.532352380637848
  0
LINE
  8
MY3DLAYER
10
0.141746824522884
20
-0.124999999999946
30
0.562500000000014
11
0.16161165234762
21
-0.124999999999945
31
0.588388347648334
  0
LINE
  8
MY3DLAYER
10
0.141746824522866
20
-0.249999999999946
30
0.562500000000032
11
0.161611652347602
21
-0.249999999999945
31
0.588388347648351
  0
LINE
  8
MY3DLAYER
10
0.16161165234762
20
-0.124999999999945
30
0.588388347648334
11
0.161611652347602
21
-0.249999999999945
31
0.588388347648351
  0
LINE
  8
MY3DLAYER
10
0.16161165234762
20
-0.124999999999945
30
0.588388347648334
11
0.187499999995939
21
-0.124999999999946
31
0.608253175473069
  0
LINE
  8
MY3DLAYER
10
0.161611652347602
20
-0.249999999999945
30
0.588388347648351
11
0.187499999995921
21
-0.249999999999946
31
0.608253175473086
  0
LINE
  8
MY3DLAYER
10
0.187499999995939
20
-0.124999999999946
30
0.608253175473069
11
0.187499999995921
21
-0.249999999999946
31
0.608253175473086
  0
LINE
  8
MY3DLAYER
10
0.187499999995939
20
-0.124999999999946
30
0.608253175473069
11
0.217647619358124
21
-0.124999999999949
31
0.620740728286148
  0
LINE
  8
MY3DLAYER
10
0.187499999995921
20
-0.249999999999946
30
0.608253175473086
11
0.217647619358106
21
-0.249999999999949
31
0.620740728286165
  0
LINE
  8
MY3DLAYER
10
0.217647619358124
20
-0.124999999999949
30
0.620740728286148
11
0.217647619358106
21
-0.249999999999949
31
0.620740728286165
  0
LINE
  8
MY3DLAYER
10
0.217647619358124
20
-0.124999999999949
30
0.620740728286148
11
0.249999999995939
21
-0.124999999999953
31
0.625000000000014
  0
LINE
  8
MY3DLAYER
10
0.282352380633754
20
-0.124999999999958
30
0.620740728286148
11
0.282352380633736
21
-0.249999999999958
31
0.620740728286165
  0
LINE
  8
MY3DLAYER
10
0.282352380633754
20
-0.124999999999958
30
0.620740728286148
11
0.312499999995939
21
-0.124999999999964
31
0.608253175473069
  0
LINE
  8
MY3DLAYER
10
0.282352380633736
20
-0.249999999999958
30
0.620740728286165
11
0.312499999995921
21
-0.249999999999964
31
0.608253175473086
  0
LINE
  8
MY3DLAYER
10
0.312499999995939
20
-0.124999999999964
30
0.608253175473069
11
0.312499999995921
21
-0.249999999999964
31
0.608253175473086
  0
LINE
  8
MY3DLAYER
10
0.312499999995939
20
-0.124999999999964
30
0.608253175473069
11
0.338388347644257
21
-0.124999999999971
31
0.588388347648334
  0
LINE
  8
MY3DLAYER
10
0.312499999995921
20
-0.249999999999964
30
0.608253175473086
11
0.338388347644239
21
-0.249999999999971
31
0.588388347648351
  0
LINE
  8
MY3DLAYER
10
0.338388347644257
20
-0.124999999999971
30
0.588388347648334
11
0.338388347644239
21
-0.249999999999971
31
0.588388347648351
  0
LINE
  8
MY3DLAYER
10
0.338388347644257
20
-0.124999999999971
30
0.588388347648334
11
0.358253175468993
21
-0.124999999999977
31
0.562500000000015
  0
LINE
  8
MY3DLAYER
10
0.338388347644239
20
-0.249999999999971
30
0.588388347648351
11
0.358253175468976
21
-0.249999999999977
31
0.562500000000032
  0
LINE
  8
MY3DLAYER
10
0.358253175468993
20
-0.124999999999977
30
0.562500000000015
11
0.358253175468976
21
-0.249999999999977
31
0.562500000000032
  0
LINE
  8
MY3DLAYER
10
0.124999999995939
20
-0.124999999999952
30
0.500000000000014
11
0.129259271709805
21
-0.124999999999948
31
0.53235238063783
  0
LINE
  8
MY3DLAYER
10
0.124999999995939
20
-0.124999999999952
30
0.500000000000014
11
0.124999999995921
21
-0.249999999999952
31
0.500000000000032
  0
LINE
  8
MY3DLAYER
10
0.124999999995921
20
-0.249999999999952
30
0.500000000000032
11
0.129259271709787
21
-0.249999999999948
31
0.532352380637848
  0
LINE
  8
MY3DLAYER
10
0.129259271709805
20
-0.124999999999958
30
0.467647619362198
11
0.124999999995939
21
-0.124999999999952
31
0.500000000000014
  0
LINE
  8
MY3DLAYER
10
0.129259271709805
20
-0.124999999999958
30
0.467647619362198
11
0.129259271709787
21
-0.249999999999958
31
0.467647619362216
  0
LINE
  8
MY3DLAYER
10
0.129259271709787
20
-0.249999999999958
30
0.467647619362216
11
0.124999999995921
21
-0.249999999999952
31
0.500000000000032
  0
LINE
  8
MY3DLAYER
10
0.141746824522884
20
-0.124999999999964
30
0.437500000000014
11
0.129259271709805
21
-0.124999999999958
31
0.467647619362198
  0
LINE
  8
MY3DLAYER
10
0.141746824522884
20
-0.124999999999964
30
0.437500000000014
11
0.141746824522866
21
-0.249999999999964
31
0.437500000000032
  0
LINE
  8
MY3DLAYER
10
0.141746824522866
20
-0.249999999999964
30
0.437500000000032
11
0.129259271709787
21
-0.249999999999958
31
0.467647619362216
  0
LINE
  8
MY3DLAYER
10
0.16161165234762
20
-0.12499999999997
30
0.411611652351695
11
0.141746824522884
21
-0.124999999999964
31
0.437500000000014
  0
LINE
  8
MY3DLAYER
10
0.16161165234762
20
-0.12499999999997
30
0.411611652351695
11
0.161611652347602
21
-0.24999999999997
31
0.411611652351713
  0
LINE
  8
MY3DLAYER
10
0.161611652347602
20
-0.24999999999997
30
0.411611652351713
11
0.141746824522866
21
-0.249999999999964
31
0.437500000000032
  0
LINE
  8
MY3DLAYER
10
0.187499999995939
20
-0.124999999999977
30
0.39174682452696
11
0.16161165234762
21
-0.12499999999997
31
0.411611652351695
  0
LINE
  8
MY3DLAYER
10
0.187499999995939
20
-0.124999999999977
30
0.39174682452696
11
0.187499999995921
21
-0.249999999999977
31
0.391746824526978
  0
LINE
  8
MY3DLAYER
10
0.187499999995921
20
-0.249999999999977
30
0.391746824526978
11
0.161611652347602
21
-0.24999999999997
31
0.411611652351713
  0
LINE
  8
MY3DLAYER
10
0.217647619358124
20
-0.124999999999983
30
0.379259271713881
11
0.187499999995939
21
-0.124999999999977
31
0.39174682452696
  0
LINE
  8
MY3DLAYER
10
0.217647619358124
20
-0.124999999999983
30
0.379259271713881
11
0.217647619358106
21
-0.249999999999983
31
0.379259271713899
  0
LINE
  8
MY3DLAYER
10
0.217647619358106
20
-0.249999999999983
30
0.379259271713899
11
0.187499999995921
21
-0.249999999999977
31
0.391746824526978
  0
LINE
  8
MY3DLAYER
10
0.249999999995939
20
-0.124999999999988
30
0.375000000000014
11
0.217647619358124
21
-0.124999999999983
31
0.379259271713881
  0
LINE
  8
MY3DLAYER
10
0.249999999995939
20
-0.124999999999988
30
0.375000000000014
11
0.249999999995921
21
-0.249999999999988
31
0.375000000000032
  0
LINE
  8
MY3DLAYER
10
0.249999999995921
20
-0.249999999999988
30
0.375000000000032
11
0.217647619358106
21
-0.249999999999983
31
0.379259271713899
  0
LINE
  8
MY3DLAYER
10
0.24999999999595
20
-0.624999999999963
30
0.250000000000037
11
0.217647619358135
21
-0.620740728286096
31
0.250000000000039
  0
LINE
  8
MY3DLAYER
10
0.129259271709805
20
-0.467647619362156
30
0.125000000000037
11
0.129259271709817
21
-0.467647619362147
31
0.250000000000037
  0
LINE
  8
MY3DLAYER
10
0.129259271709805
20
-0.532352380637786
30
0.125000000000041
11
0.124999999995939
21
-0.499999999999971
31
0.125000000000039
  0
LINE
  8
MY3DLAYER
10
0.141746824522884
20
-0.562499999999971
30
0.125000000000041
11
0.129259271709805
21
-0.532352380637786
31
0.125000000000041
  0
LINE
  8
MY3DLAYER
10
-8.09774469701097e-012
20
-0.24999999999955
30
0.749999999999835
11
-8.09774469701097e-012
21
-0.124999999999707
31
0.749999999999834
  0
LINE
  8
MY3DLAYER
10
0.282352380633754
20
-0.620740728286104
30
0.125000000000034
11
0.249999999995939
21
-0.624999999999971
31
0.125000000000037
  0
LINE
  8
MY3DLAYER
10
0.217647619358123
20
-0.620740728286104
30
0.125000000000039
11
0.187499999995939
21
-0.608253175473025
31
0.125000000000041
  0
LINE
  8
MY3DLAYER
10
0.249999999995939
20
-0.624999999999971
30
0.125000000000037
11
0.217647619358123
21
-0.620740728286104
31
0.125000000000039
  0
LINE
  8
MY3DLAYER
10
0.187499999995939
20
-0.608253175473025
30
0.125000000000041
11
0.16161165234762
21
-0.588388347648289
31
0.125000000000041
  0
LINE
  8
MY3DLAYER
10
0.370740728282072
20
-0.532352380637786
30
0.12500000000002
11
0.358253175468993
21
-0.562499999999971
31
0.125000000000023
  0
LINE
  8
MY3DLAYER
10
0.358253175469005
20
-0.562499999999963
30
0.250000000000023
11
0.338388347644269
21
-0.588388347648281
31
0.250000000000027
  0
LINE
  8
MY3DLAYER
10
0.141746824522895
20
-0.437499999999962
30
0.250000000000034
11
0.161611652347632
21
-0.411611652351644
31
0.25000000000003
  0
LINE
  8
MY3DLAYER
10
0.358253175469005
20
-0.437499999999962
30
0.250000000000016
11
0.370740728282084
21
-0.467647619362147
31
0.250000000000016
  0
LINE
  8
MY3DLAYER
10
0.374999999995939
20
-0.124999999999989
30
0.500000000000014
11
0.370740728282072
21
-0.124999999999993
31
0.467647619362198
  0
LINE
  8
MY3DLAYER
10
0.370740728282072
20
-0.124999999999993
30
0.467647619362198
11
0.358253175468993
21
-0.124999999999996
31
0.437500000000014
  0
LINE
  8
MY3DLAYER
10
0.282352380633765
20
-0.379259271713829
30
0.250000000000018
11
0.31249999999595
21
-0.391746824526908
31
0.250000000000016
  0
LINE
  8
MY3DLAYER
10
0.338388347644257
20
-0.124999999999996
30
0.411611652351695
11
0.312499999995939
21
-0.124999999999995
31
0.39174682452696
  0
LINE
  8
MY3DLAYER
10
0.282352380633754
20
-0.124999999999992
30
0.379259271713881
11
0.249999999995939
21
-0.124999999999988
31
0.375000000000014
  0
LINE
  8
MY3DLAYER
10
0.358253175468993
20
-0.437499999999971
30
0.125000000000016
11
0.358253175469005
21
-0.437499999999962
31
0.250000000000016
  0
LINE
  8
MY3DLAYER
10
0.312499999995939
20
-0.124999999999995
30
0.39174682452696
11
0.282352380633754
21
-0.124999999999992
31
0.379259271713881
  0
LINE
  8
MY3DLAYER
10
0.217647619358135
20
-0.379259271713829
30
0.250000000000023
11
0.24999999999595
21
-0.374999999999962
31
0.250000000000021
  0
LINE
  8
MY3DLAYER
10
0.129259271709817
20
-0.467647619362147
30
0.250000000000037
11
0.141746824522895
21
-0.437499999999962
31
0.250000000000034
  0
LINE
  8
MY3DLAYER
10
0.187499999995939
20
-0.391746824526916
30
0.125000000000027
11
0.217647619358123
21
-0.379259271713837
31
0.125000000000023
  0
LINE
  8
MY3DLAYER
10
0.312499999995938
20
-0.391746824526916
30
0.125000000000016
11
0.338388347644257
21
-0.411611652351652
31
0.125000000000016
  0
LINE
  8
MY3DLAYER
10
0.18749999999595
20
-0.391746824526908
30
0.250000000000027
11
0.217647619358135
21
-0.379259271713829
31
0.250000000000023
  0
LINE
  8
MY3DLAYER
10
0.217647619358123
20
-0.379259271713837
30
0.125000000000023
11
0.249999999995939
21
-0.374999999999971
31
0.125000000000021
  0
LINE
  8
MY3DLAYER
10
0.370740728282072
20
-0.124999999999984
30
0.53235238063783
11
0.374999999995939
21
-0.124999999999989
31
0.500000000000014
  0
LINE
  8
MY3DLAYER
10
0.312499999995939
20
-0.608253175473025
30
0.12500000000003
11
0.282352380633754
21
-0.620740728286104
31
0.125000000000034
  0
LINE
  8
MY3DLAYER
10
0.312499999995939
20
-0.608253175473025
30
0.12500000000003
11
0.31249999999595
21
-0.608253175473017
31
0.25000000000003
  0
LINE
  8
MY3DLAYER
10
0.338388347644257
20
-0.411611652351652
30
0.125000000000016
11
0.338388347644269
21
-0.411611652351644
31
0.250000000000016
  0
LINE
  8
MY3DLAYER
10
0.312499999995921
20
-0.249999999999995
30
0.391746824526978
11
0.282352380633736
21
-0.249999999999992
31
0.379259271713899
  0
LINE
  8
MY3DLAYER
10
0.141746824522884
20
-0.562499999999971
30
0.125000000000041
11
0.141746824522895
21
-0.562499999999963
31
0.250000000000041
  0
LINE
  8
MY3DLAYER
10
0.282352380633754
20
-0.124999999999992
30
0.379259271713881
11
0.282352380633736
21
-0.249999999999992
31
0.379259271713899
  0
LINE
  8
MY3DLAYER
10
0.282352380633736
20
-0.249999999999992
30
0.379259271713899
11
0.249999999995921
21
-0.249999999999988
31
0.375000000000032
  0
LINE
  8
MY3DLAYER
10
0.312499999995939
20
-0.124999999999995
30
0.39174682452696
11
0.312499999995921
21
-0.249999999999995
31
0.391746824526978
  0
LINE
  8
MY3DLAYER
10
0.338388347644257
20
-0.124999999999996
30
0.411611652351695
11
0.338388347644239
21
-0.249999999999996
31
0.411611652351713
  0
LINE
  8
MY3DLAYER
10
0.338388347644239
20
-0.249999999999996
30
0.411611652351713
11
0.312499999995921
21
-0.249999999999995
31
0.391746824526978
  0
LINE
  8
MY3DLAYER
10
0.358253175468993
20
-0.124999999999996
30
0.437500000000014
11
0.338388347644257
21
-0.124999999999996
31
0.411611652351695
  0
LINE
  8
MY3DLAYER
10
0.358253175468993
20
-0.124999999999996
30
0.437500000000014
11
0.358253175468976
21
-0.249999999999996
31
0.437500000000032
  0
LINE
  8
MY3DLAYER
10
0.358253175468976
20
-0.249999999999996
30
0.437500000000032
11
0.338388347644239
21
-0.249999999999996
31
0.411611652351713
  0
LINE
  8
MY3DLAYER
10
0.370740728282072
20
-0.124999999999993
30
0.467647619362198
11
0.370740728282054
21
-0.249999999999993
31
0.467647619362216
  0
LINE
  8
MY3DLAYER
10
0.370740728282054
20
-0.249999999999993
30
0.467647619362216
11
0.358253175468976
21
-0.249999999999996
31
0.437500000000032
  0
LINE
  8
MY3DLAYER
10
0.374999999995939
20
-0.124999999999989
30
0.500000000000014
11
0.374999999995921
21
-0.249999999999989
31
0.500000000000032
  0
LINE
  8
MY3DLAYER
10
0.374999999995921
20
-0.249999999999989
30
0.500000000000032
11
0.370740728282054
21
-0.249999999999993
31
0.467647619362216
  0
LINE
  8
MY3DLAYER
10
0.249999999995939
20
-0.749999999999971
30
0.250000000000007
11
0.499999999995939
21
-0.499999999999971
31
0.250000000000007
  0
LINE
  8
MY3DLAYER
10
0.338388347644269
20
-0.588388347648281
30
0.250000000000027
11
0.31249999999595
21
-0.608253175473017
31
0.25000000000003
  0
LINE
  8
MY3DLAYER
10
0.31249999999595
20
-0.608253175473017
30
0.25000000000003
11
0.282352380633765
21
-0.620740728286096
31
0.250000000000034
  0
LINE
  8
MY3DLAYER
10
0.370740728282054
20
-0.249999999999984
30
0.532352380637848
11
0.374999999995921
21
-0.249999999999989
31
0.500000000000032
  0
LINE
  8
MY3DLAYER
10
0.358253175468993
20
-0.124999999999977
30
0.562500000000015
11
0.370740728282072
21
-0.124999999999984
31
0.53235238063783
  0
LINE
  8
MY3DLAYER
10
0.358253175468976
20
-0.249999999999977
30
0.562500000000032
11
0.370740728282054
21
-0.249999999999984
31
0.532352380637848
  0
LINE
  8
MY3DLAYER
10
0.370740728282072
20
-0.124999999999984
30
0.53235238063783
11
0.370740728282054
21
-0.249999999999984
31
0.532352380637848
  0
LINE
  8
MY3DLAYER
10
0.282352380633754
20
-0.620740728286104
30
0.125000000000034
11
0.282352380633765
21
-0.620740728286096
31
0.250000000000034
  0
LINE
  8
MY3DLAYER
10
0.282352380633765
20
-0.620740728286096
30
0.250000000000034
11
0.24999999999595
21
-0.624999999999963
31
0.250000000000037
  0
LINE
  8
MY3DLAYER
10
0.249999999995939
20
-0.624999999999971
30
0.125000000000037
11
0.24999999999595
21
-0.624999999999963
31
0.250000000000037
  0
LINE
  8
MY3DLAYER
10
0.217647619358123
20
-0.620740728286104
30
0.125000000000039
11
0.217647619358135
21
-0.620740728286096
31
0.250000000000039
  0
LINE
  8
MY3DLAYER
10
0.217647619358135
20
-0.620740728286096
30
0.250000000000039
11
0.18749999999595
21
-0.608253175473017
31
0.250000000000041
  0
LINE
  8
MY3DLAYER
10
0.187499999995939
20
-0.608253175473025
30
0.125000000000041
11
0.18749999999595
21
-0.608253175473017
31
0.250000000000041
  0
LINE
  8
MY3DLAYER
10
0.18749999999595
20
-0.608253175473017
30
0.250000000000041
11
0.161611652347632
21
-0.588388347648281
31
0.250000000000041
  0
LINE
  8
MY3DLAYER
10
0.16161165234762
20
-0.588388347648289
30
0.125000000000041
11
0.161611652347632
21
-0.588388347648281
31
0.250000000000041
  0
LINE
  8
MY3DLAYER
10
0.249999999995939
20
-0.749999999999971
30
0.12500000000015
11
0.499999999995939
21
-0.499999999999971
31
0.12500000000015
  0
LINE
  8
MY3DLAYER
10
0.499999999995939
20
-0.124999999999971
30
0.125000000000007
11
0.499999999995939
21
-0.499999999999971
31
0.12500000000015
  0
LINE
  8
MY3DLAYER
10
0.374999999995939
20
-0.499999999999971
30
0.125000000000018
11
0.370740728282072
21
-0.532352380637786
31
0.12500000000002
  0
LINE
  8
MY3DLAYER
10
0.358253175468993
20
-0.562499999999971
30
0.125000000000023
11
0.338388347644257
21
-0.588388347648289
31
0.125000000000027
  0
LINE
  8
MY3DLAYER
10
0.338388347644257
20
-0.588388347648289
30
0.125000000000027
11
0.312499999995939
21
-0.608253175473025
31
0.12500000000003
  0
LINE
  8
MY3DLAYER
10
0.16161165234762
20
-0.588388347648289
30
0.125000000000041
11
0.141746824522884
21
-0.562499999999971
31
0.125000000000041
  0
LINE
  8
MY3DLAYER
10
0.124999999995939
20
-0.499999999999971
30
0.125000000000039
11
0.129259271709805
21
-0.467647619362156
31
0.125000000000037
  0
LINE
  8
MY3DLAYER
10
0.129259271709805
20
-0.467647619362156
30
0.125000000000037
11
0.141746824522884
21
-0.437499999999971
31
0.125000000000034
  0
LINE
  8
MY3DLAYER
10
0.141746824522884
20
-0.437499999999971
30
0.125000000000034
11
0.16161165234762
21
-0.411611652351652
31
0.12500000000003
  0
LINE
  8
MY3DLAYER
10
0.16161165234762
20
-0.411611652351652
30
0.12500000000003
11
0.187499999995939
21
-0.391746824526916
31
0.125000000000027
  0
LINE
  8
MY3DLAYER
10
0.249999999995939
20
-0.374999999999971
30
0.125000000000021
11
0.282352380633754
21
-0.379259271713837
31
0.125000000000018
  0
LINE
  8
MY3DLAYER
10
0.282352380633754
20
-0.379259271713837
30
0.125000000000018
11
0.312499999995938
21
-0.391746824526916
31
0.125000000000016
  0
LINE
  8
MY3DLAYER
10
0.338388347644257
20
-0.411611652351652
30
0.125000000000016
11
0.358253175468993
21
-0.437499999999971
31
0.125000000000016
  0
LINE
  8
MY3DLAYER
10
0.358253175468993
20
-0.437499999999971
30
0.125000000000016
11
0.370740728282072
21
-0.467647619362156
31
0.125000000000016
  0
LINE
  8
MY3DLAYER
10
0.370740728282072
20
-0.467647619362156
30
0.125000000000016
11
0.374999999995939
21
-0.499999999999971
31
0.125000000000018
  0
LINE
  8
MY3DLAYER
10
0.24999999999595
20
-0.374999999999962
30
0.250000000000021
11
0.282352380633765
21
-0.379259271713829
31
0.250000000000018
  0
LINE
  8
MY3DLAYER
10
0.161611652347632
20
-0.588388347648281
30
0.250000000000041
11
0.141746824522895
21
-0.562499999999963
31
0.250000000000041
  0
LINE
  8
MY3DLAYER
10
0.338388347644269
20
-0.411611652351644
30
0.250000000000016
11
0.358253175469005
21
-0.437499999999962
31
0.250000000000016
  0
LINE
  8
MY3DLAYER
10
0.370740728282072
20
-0.467647619362156
30
0.125000000000016
11
0.370740728282084
21
-0.467647619362147
31
0.250000000000016
  0
LINE
  8
MY3DLAYER
10
0.370740728282084
20
-0.467647619362147
30
0.250000000000016
11
0.37499999999595
21
-0.499999999999963
31
0.250000000000018
  0
LINE
  8
MY3DLAYER
10
0.374999999995939
20
-0.499999999999971
30
0.125000000000018
11
0.37499999999595
21
-0.499999999999963
31
0.250000000000018
  0
LINE
  8
MY3DLAYER
10
0.37499999999595
20
-0.499999999999963
30
0.250000000000018
11
0.370740728282084
21
-0.532352380637778
31
0.25000000000002
  0
LINE
  8
MY3DLAYER
10
0.370740728282072
20
-0.532352380637786
30
0.12500000000002
11
0.370740728282084
21
-0.532352380637778
31
0.25000000000002
  0
LINE
  8
MY3DLAYER
10
0.129259271709805
20
-0.532352380637786
30
0.125000000000041
11
0.129259271709817
21
-0.532352380637778
31
0.250000000000041
  0
LINE
  8
MY3DLAYER
10
0.129259271709817
20
-0.532352380637778
30
0.250000000000041
11
0.12499999999595
21
-0.499999999999963
31
0.250000000000039
  0
LINE
  8
MY3DLAYER
10
0.124999999995939
20
-0.499999999999971
30
0.125000000000039
11
0.12499999999595
21
-0.499999999999963
31
0.250000000000039
  0
LINE
  8
MY3DLAYER
10
0.370740728282084
20
-0.532352380637778
30
0.25000000000002
11
0.358253175469005
21
-0.562499999999963
31
0.250000000000023
  0
LINE
  8
MY3DLAYER
10
0.358253175468993
20
-0.562499999999971
30
0.125000000000023
11
0.358253175469005
21
-0.562499999999963
31
0.250000000000023
  0
LINE
  8
MY3DLAYER
10
0.141746824522895
20
-0.562499999999963
30
0.250000000000041
11
0.129259271709817
21
-0.532352380637778
31
0.250000000000041
  0
LINE
  8
MY3DLAYER
10
0.499999999995939
20
-0.124999999999971
30
0.125000000000007
11
0.499999999995939
21
-0.124999999999995
31
0.500000000000007
  0
LINE
  8
MY3DLAYER
10
0.249999999991902
20
-0.124999999999693
30
0.749999999999834
11
0.499999999995939
21
-0.124999999999995
31
0.500000000000007
  0
LINE
  8
MY3DLAYER
10
0.249999999991902
20
-0.124999999999693
30
0.749999999999834
11
-8.09774469701097e-012
21
-0.124999999999707
31
0.749999999999834
  0
LINE
  8
MY3DLAYER
10
0.141746824522884
20
-0.437499999999971
30
0.125000000000034
11
0.141746824522895
21
-0.437499999999962
31
0.250000000000034
  0
LINE
  8
MY3DLAYER
10
0.16161165234762
20
-0.411611652351652
30
0.12500000000003
11
0.161611652347632
21
-0.411611652351644
31
0.25000000000003
  0
LINE
  8
MY3DLAYER
10
0.161611652347632
20
-0.411611652351644
30
0.25000000000003
11
0.18749999999595
21
-0.391746824526908
31
0.250000000000027
  0
LINE
  8
MY3DLAYER
10
0.187499999995939
20
-0.391746824526916
30
0.125000000000027
11
0.18749999999595
21
-0.391746824526908
31
0.250000000000027
  0
LINE
  8
MY3DLAYER
10
0.31249999999595
20
-0.391746824526908
30
0.250000000000016
11
0.338388347644269
21
-0.411611652351644
31
0.250000000000016
  0
LINE
  8
MY3DLAYER
10
0.12499999999595
20
-0.499999999999963
30
0.250000000000039
11
0.129259271709817
21
-0.467647619362147
31
0.250000000000037
  0
LINE
  8
MY3DLAYER
10
0.499999999995939
20
-0.24999999999997
30
0.250000000000007
11
0.499999999995939
21
-0.249999999999971
31
0.500000000000007
  0
LINE
  8
MY3DLAYER
10
0.499999999995939
20
-0.24999999999997
30
0.250000000000007
11
-4.03266309234596e-012
21
-0.24999999999997
31
0.250000000000007
  0
LINE
  8
MY3DLAYER
10
-4.03266309234596e-012
20
-0.24999999999997
30
0.250000000000007
11
-8.09774469701097e-012
21
-0.24999999999955
31
0.749999999999835
  0
LINE
  8
MY3DLAYER
10
-4.03266309234596e-012
20
-0.24999999999997
30
0.250000000000007
11
-4.06141786868375e-012
21
-0.749999999999971
31
0.250000000000007
  0
LINE
  8
MY3DLAYER
10
0.217647619358123
20
-0.379259271713837
30
0.125000000000023
11
0.217647619358135
21
-0.379259271713829
31
0.250000000000023
  0
LINE
  8
MY3DLAYER
10
0.249999999995939
20
-0.374999999999971
30
0.125000000000021
11
0.24999999999595
21
-0.374999999999962
31
0.250000000000021
  0
LINE
  8
MY3DLAYER
10
0.499999999995939
20
-0.249999999999971
30
0.500000000000007
11
0.499999999995939
21
-0.124999999999995
31
0.500000000000007
  0
LINE
  8
MY3DLAYER
10
0.499999999995939
20
-0.499999999999971
30
0.250000000000007
11
0.499999999995939
21
-0.24999999999997
31
0.250000000000007
  0
LINE
  8
MY3DLAYER
10
0.282352380633754
20
-0.379259271713837
30
0.125000000000018
11
0.282352380633765
21
-0.379259271713829
31
0.250000000000018
  0
LINE
  8
MY3DLAYER
10
0.312499999995938
20
-0.391746824526916
30
0.125000000000016
11
0.31249999999595
21
-0.391746824526908
31
0.250000000000016
  0
LINE
  8
MY3DLAYER
10
0.249999999991902
20
-0.24999999999955
30
0.749999999999835
11
0.249999999991902
21
-0.124999999999693
31
0.749999999999834
  0
LINE
  8
MY3DLAYER
10
0.249999999991902
20
-0.24999999999955
30
0.749999999999835
11
-8.09774469701097e-012
21
-0.24999999999955
31
0.749999999999835
  0
LINE
  8
MY3DLAYER
10
0.249999999991902
20
-0.24999999999955
30
0.749999999999835
11
0.499999999995939
21
-0.249999999999971
31
0.500000000000007
  0
LINE
  8
MY3DLAYER
10
0.499999999995939
20
-0.499999999999971
30
0.250000000000007
11
0.499999999995939
21
-0.499999999999971
31
0.12500000000015
  0
LINE
  8
MY3DLAYER
10
0.35825317547307
20
-0.937499999999851
30
0.250000000000282
11
0.338388347648334
21
-0.911611652351532
31
0.250000000000287
  0
LINE
  8
MY3DLAYER
10
0.35825317547307
20
-1.06249999999985
30
0.250000000000265
11
0.370740728286149
21
-1.03235238063767
31
0.250000000000267
  0
LINE
  8
MY3DLAYER
10
0.28235238063783
20
-1.12074072828598
30
0.250000000000262
11
0.312500000000015
21
-1.10825317547291
31
0.250000000000261
  0
LINE
  8
MY3DLAYER
10
0.250000000000015
20
-0.874999999999851
30
0.250000000000301
11
0.2176476193622
21
-0.879259271713717
31
0.250000000000302
  0
LINE
  8
MY3DLAYER
10
0.14174682452696
20
-1.06249999999985
30
0.250000000000283
11
0.161611652351697
21
-1.08838834764817
31
0.250000000000277
  0
LINE
  8
MY3DLAYER
10
0.312500000000015
20
-0.891746824526796
30
0.250000000000292
11
0.28235238063783
21
-0.879259271713717
31
0.250000000000297
  0
LINE
  8
MY3DLAYER
10
0.338388347648334
20
-0.911611652351532
30
0.250000000000287
11
0.312500000000015
21
-0.891746824526796
31
0.250000000000292
  0
LINE
  8
MY3DLAYER
10
0.338388347648322
20
-1.08838834764815
30
0.125000000000263
11
0.358253175473058
21
-1.06249999999983
31
0.125000000000265
  0
LINE
  8
MY3DLAYER
10
0.358253175473058
20
-1.06249999999983
30
0.125000000000265
11
0.35825317547307
21
-1.06249999999985
31
0.250000000000265
  0
LINE
  8
MY3DLAYER
10
0.338388347648334
20
-1.08838834764817
30
0.250000000000263
11
0.35825317547307
21
-1.06249999999985
31
0.250000000000265
  0
LINE
  8
MY3DLAYER
10
0.338388347648322
20
-1.08838834764815
30
0.125000000000263
11
0.338388347648334
21
-1.08838834764817
31
0.250000000000263
  0
LINE
  8
MY3DLAYER
10
0.358253175473058
20
-1.06249999999983
30
0.125000000000265
11
0.370740728286137
21
-1.03235238063765
31
0.125000000000267
  0
LINE
  8
MY3DLAYER
10
0.370740728286137
20
-1.03235238063765
30
0.125000000000267
11
0.370740728286149
21
-1.03235238063767
31
0.250000000000267
  0
LINE
  8
MY3DLAYER
10
0.370740728286137
20
-1.03235238063765
30
0.125000000000267
11
0.375000000000004
21
-0.999999999999833
31
0.125000000000271
  0
LINE
  8
MY3DLAYER
10
0.375000000000004
20
-0.999999999999833
30
0.125000000000271
11
0.375000000000015
21
-0.999999999999851
31
0.250000000000271
  0
LINE
  8
MY3DLAYER
10
0.370740728286149
20
-1.03235238063767
30
0.250000000000267
11
0.375000000000015
21
-0.999999999999851
31
0.250000000000271
  0
LINE
  8
MY3DLAYER
10
0.375000000000004
20
-0.999999999999833
30
0.125000000000271
11
0.370740728286137
21
-0.967647619362018
31
0.125000000000276
  0
LINE
  8
MY3DLAYER
10
0.370740728286137
20
-0.967647619362018
30
0.125000000000276
11
0.370740728286149
21
-0.967647619362036
31
0.250000000000276
  0
LINE
  8
MY3DLAYER
10
0.375000000000015
20
-0.999999999999851
30
0.250000000000271
11
0.370740728286149
21
-0.967647619362036
31
0.250000000000276
  0
LINE
  8
MY3DLAYER
10
0.370740728286137
20
-0.967647619362018
30
0.125000000000276
11
0.358253175473059
21
-0.937499999999833
31
0.125000000000282
  0
LINE
  8
MY3DLAYER
10
0.358253175473059
20
-0.937499999999833
30
0.125000000000282
11
0.35825317547307
21
-0.937499999999851
31
0.250000000000282
  0
LINE
  8
MY3DLAYER
10
0.370740728286149
20
-0.967647619362036
30
0.250000000000276
11
0.35825317547307
21
-0.937499999999851
31
0.250000000000282
  0
LINE
  8
MY3DLAYER
10
0.358253175473059
20
-0.937499999999833
30
0.125000000000282
11
0.338388347648322
21
-0.911611652351515
31
0.125000000000287
  0
LINE
  8
MY3DLAYER
10
0.338388347648322
20
-0.911611652351515
30
0.125000000000287
11
0.338388347648334
21
-0.911611652351532
31
0.250000000000287
  0
LINE
  8
MY3DLAYER
10
0.338388347648322
20
-0.911611652351515
30
0.125000000000287
11
0.312500000000004
21
-0.891746824526778
31
0.125000000000292
  0
LINE
  8
MY3DLAYER
10
0.312500000000004
20
-0.891746824526778
30
0.125000000000292
11
0.312500000000015
21
-0.891746824526796
31
0.250000000000292
  0
LINE
  8
MY3DLAYER
10
0.312500000000004
20
-0.891746824526778
30
0.125000000000292
11
0.282352380637819
21
-0.879259271713699
31
0.125000000000297
  0
LINE
  8
MY3DLAYER
10
0.282352380637819
20
-0.879259271713699
30
0.125000000000297
11
0.28235238063783
21
-0.879259271713717
31
0.250000000000297
  0
LINE
  8
MY3DLAYER
10
0.282352380637819
20
-0.879259271713699
30
0.125000000000297
11
0.250000000000004
21
-0.874999999999833
31
0.125000000000301
  0
LINE
  8
MY3DLAYER
10
0.250000000000004
20
-0.874999999999833
30
0.125000000000301
11
0.250000000000015
21
-0.874999999999851
31
0.250000000000301
  0
LINE
  8
MY3DLAYER
10
0.28235238063783
20
-0.879259271713717
30
0.250000000000297
11
0.250000000000015
21
-0.874999999999851
31
0.250000000000301
  0
LINE
  8
MY3DLAYER
10
0.250000000000004
20
-0.874999999999833
30
0.125000000000301
11
0.217647619362189
21
-0.879259271713699
31
0.125000000000302
  0
LINE
  8
MY3DLAYER
10
0.217647619362189
20
-0.879259271713699
30
0.125000000000302
11
0.2176476193622
21
-0.879259271713717
31
0.250000000000302
  0
LINE
  8
MY3DLAYER
10
0.217647619362189
20
-0.879259271713699
30
0.125000000000302
11
0.187500000000004
21
-0.891746824526778
31
0.125000000000303
  0
LINE
  8
MY3DLAYER
10
0.187500000000004
20
-0.891746824526778
30
0.125000000000303
11
0.187500000000015
21
-0.891746824526796
31
0.250000000000303
  0
LINE
  8
MY3DLAYER
10
0.2176476193622
20
-0.879259271713717
30
0.250000000000302
11
0.187500000000015
21
-0.891746824526796
31
0.250000000000303
  0
LINE
  8
MY3DLAYER
10
0.187500000000004
20
-0.891746824526778
30
0.125000000000303
11
0.161611652351685
21
-0.911611652351515
31
0.125000000000301
  0
LINE
  8
MY3DLAYER
10
0.161611652351685
20
-0.911611652351515
30
0.125000000000301
11
0.161611652351697
21
-0.911611652351532
31
0.250000000000301
  0
LINE
  8
MY3DLAYER
10
0.187500000000015
20
-0.891746824526796
30
0.250000000000303
11
0.161611652351697
21
-0.911611652351532
31
0.250000000000301
  0
LINE
  8
MY3DLAYER
10
0.161611652351685
20
-0.911611652351515
30
0.125000000000301
11
0.141746824526949
21
-0.937499999999833
31
0.125000000000299
  0
LINE
  8
MY3DLAYER
10
0.141746824526949
20
-0.937499999999833
30
0.125000000000299
11
0.14174682452696
21
-0.937499999999851
31
0.250000000000299
  0
LINE
  8
MY3DLAYER
10
0.161611652351697
20
-0.911611652351532
30
0.250000000000301
11
0.14174682452696
21
-0.937499999999851
31
0.250000000000299
  0
LINE
  8
MY3DLAYER
10
0.12925927171387
20
-0.967647619362018
30
0.125000000000297
11
0.125000000000004
21
-0.999999999999833
31
0.125000000000293
  0
LINE
  8
MY3DLAYER
10
0.125000000000004
20
-0.999999999999833
30
0.125000000000293
11
0.125000000000015
21
-0.999999999999851
31
0.250000000000293
  0
LINE
  8
MY3DLAYER
10
0.129259271713882
20
-0.967647619362036
30
0.250000000000297
11
0.125000000000015
21
-0.999999999999851
31
0.250000000000293
  0
LINE
  8
MY3DLAYER
10
0.12925927171387
20
-0.967647619362018
30
0.125000000000297
11
0.129259271713882
21
-0.967647619362036
31
0.250000000000297
  0
LINE
  8
MY3DLAYER
10
0.141746824526949
20
-0.937499999999833
30
0.125000000000299
11
0.12925927171387
21
-0.967647619362018
31
0.125000000000297
  0
LINE
  8
MY3DLAYER
10
0.14174682452696
20
-0.937499999999851
30
0.250000000000299
11
0.129259271713882
21
-0.967647619362036
31
0.250000000000297
  0
LINE
  8
MY3DLAYER
10
0.500000000000004
20
-1.37499999999983
30
0.125000000000232
11
0.500000000000004
21
-1.37499999999986
31
0.750000000000232
  0
LINE
  8
MY3DLAYER
10
0.500000000000004
20
-1.37499999999986
30
0.750000000000232
11
0.250000000000018
21
-1.37500000000001
31
0.750000000000232
  0
LINE
  8
MY3DLAYER
10
0.500000000000004
20
-1.37499999999983
30
0.125000000000232
11
0.500000000000004
21
-0.999999999999833
31
0.125000000000404
  0
LINE
  8
MY3DLAYER
10
0.249999999995939
20
-0.749999999999971
30
0.12500000000015
11
0.500000000000004
21
-0.999999999999833
31
0.125000000000404
  0
LINE
  8
MY3DLAYER
10
0.249999999995939
20
-0.749999999999971
30
0.12500000000015
11
-4.06141786868375e-012
21
-0.749999999999971
31
0.125000000000163
  0
LINE
  8
MY3DLAYER
10
0.312500000000004
20
-1.10825317547289
30
0.125000000000261
11
0.338388347648322
21
-1.08838834764815
31
0.125000000000263
  0
LINE
  8
MY3DLAYER
10
0.282352380637819
20
-1.12074072828597
30
0.125000000000262
11
0.312500000000004
21
-1.10825317547289
31
0.125000000000261
  0
LINE
  8
MY3DLAYER
10
0.250000000000004
20
-1.12499999999983
30
0.125000000000265
11
0.282352380637819
21
-1.12074072828597
31
0.125000000000262
  0
LINE
  8
MY3DLAYER
10
0.217647619362188
20
-1.12074072828597
30
0.125000000000267
11
0.250000000000004
21
-1.12499999999983
31
0.125000000000265
  0
LINE
  8
MY3DLAYER
10
0.187500000000004
20
-1.10825317547289
30
0.125000000000272
11
0.217647619362188
21
-1.12074072828597
31
0.125000000000267
  0
LINE
  8
MY3DLAYER
10
0.161611652351685
20
-1.08838834764815
30
0.125000000000277
11
0.187500000000004
21
-1.10825317547289
31
0.125000000000272
  0
LINE
  8
MY3DLAYER
10
0.141746824526949
20
-1.06249999999983
30
0.125000000000283
11
0.161611652351685
21
-1.08838834764815
31
0.125000000000277
  0
LINE
  8
MY3DLAYER
10
0.12925927171387
20
-1.03235238063765
30
0.125000000000288
11
0.141746824526949
21
-1.06249999999983
31
0.125000000000283
  0
LINE
  8
MY3DLAYER
10
0.125000000000004
20
-0.999999999999833
30
0.125000000000293
11
0.12925927171387
21
-1.03235238063765
31
0.125000000000288
  0
LINE
  8
MY3DLAYER
10
0.12925927171387
20
-1.03235238063765
30
0.125000000000288
11
0.129259271713882
21
-1.03235238063767
31
0.250000000000288
  0
LINE
  8
MY3DLAYER
10
0.125000000000015
20
-0.999999999999851
30
0.250000000000293
11
0.129259271713882
21
-1.03235238063767
31
0.250000000000288
  0
LINE
  8
MY3DLAYER
10
0.141746824526949
20
-1.06249999999983
30
0.125000000000283
11
0.14174682452696
21
-1.06249999999985
31
0.250000000000283
  0
LINE
  8
MY3DLAYER
10
0.129259271713882
20
-1.03235238063767
30
0.250000000000288
11
0.14174682452696
21
-1.06249999999985
31
0.250000000000283
  0
LINE
  8
MY3DLAYER
10
0.161611652351685
20
-1.08838834764815
30
0.125000000000277
11
0.161611652351697
21
-1.08838834764817
31
0.250000000000277
  0
LINE
  8
MY3DLAYER
10
0.187500000000004
20
-1.10825317547289
30
0.125000000000272
11
0.187500000000015
21
-1.10825317547291
31
0.250000000000272
  0
LINE
  8
MY3DLAYER
10
0.161611652351697
20
-1.08838834764817
30
0.250000000000277
11
0.187500000000015
21
-1.10825317547291
31
0.250000000000272
  0
LINE
  8
MY3DLAYER
10
0.217647619362188
20
-1.12074072828597
30
0.125000000000267
11
0.2176476193622
21
-1.12074072828598
31
0.250000000000267
  0
LINE
  8
MY3DLAYER
10
0.187500000000015
20
-1.10825317547291
30
0.250000000000272
11
0.2176476193622
21
-1.12074072828598
31
0.250000000000267
  0
LINE
  8
MY3DLAYER
10
0.250000000000004
20
-1.12499999999983
30
0.125000000000265
11
0.250000000000015
21
-1.12499999999985
31
0.250000000000265
  0
LINE
  8
MY3DLAYER
10
0.2176476193622
20
-1.12074072828598
30
0.250000000000267
11
0.250000000000015
21
-1.12499999999985
31
0.250000000000265
  0
LINE
  8
MY3DLAYER
10
0.282352380637819
20
-1.12074072828597
30
0.125000000000262
11
0.28235238063783
21
-1.12074072828598
31
0.250000000000262
  0
LINE
  8
MY3DLAYER
10
0.250000000000015
20
-1.12499999999985
30
0.250000000000265
11
0.28235238063783
21
-1.12074072828598
31
0.250000000000262
  0
LINE
  8
MY3DLAYER
10
0.312500000000004
20
-1.10825317547289
30
0.125000000000261
11
0.312500000000015
21
-1.10825317547291
31
0.250000000000261
  0
LINE
  8
MY3DLAYER
10
0.312500000000015
20
-1.10825317547291
30
0.250000000000261
11
0.338388347648334
21
-1.08838834764817
31
0.250000000000263
  0
LINE
  8
MY3DLAYER
10
0.500000000000004
20
-1.24999999999986
30
0.750000000000242
11
3.66373598126302e-015
21
-1.24999999999988
31
0.750000000000241
  0
LINE
  8
MY3DLAYER
10
3.66373598126302e-015
20
-1.24999999999988
30
0.750000000000241
11
3.24185123190546e-014
21
-1.37500000000017
31
0.750000000000232
  0
LINE
  8
MY3DLAYER
10
0.500000000000004
20
-1.37499999999986
30
0.750000000000232
11
0.500000000000004
21
-1.24999999999986
31
0.750000000000242
  0
LINE
  8
MY3DLAYER
10
0.500000000000004
20
-0.999999999999843
30
0.250000000000261
11
0.500000000000004
21
-0.999999999999833
31
0.125000000000404
  0
LINE
  8
MY3DLAYER
10
0.500000000000004
20
-0.999999999999843
30
0.250000000000261
11
0.500000000000004
21
-1.24999999999984
31
0.250000000000241
  0
LINE
  8
MY3DLAYER
10
0.500000000000004
20
-1.24999999999984
30
0.250000000000241
11
0.500000000000004
21
-1.24999999999986
31
0.750000000000242
  0
LINE
  8
MY3DLAYER
10
-4.06141786868375e-012
20
-0.749999999999971
30
0.250000000000007
11
-4.06141786868375e-012
21
-0.749999999999971
31
0.125000000000163
  0
LINE
  8
MY3DLAYER
10
0.249999999995939
20
-0.749999999999971
30
0.250000000000007
11
-4.06141786868375e-012
21
-0.749999999999971
31
0.250000000000007
  0
LINE
  8
MY3DLAYER
10
0.249999999995939
20
-0.749999999999971
30
0.250000000000007
11
0.249999999995939
21
-0.749999999999971
31
0.12500000000015
  0
LINE
  8
MY3DLAYER
10
3.24185123190546e-014
20
-1.24999999999984
30
0.250000000000241
11
-4.06141786868375e-012
21
-0.749999999999971
31
0.250000000000007
  0
LINE
  8
MY3DLAYER
10
0.500000000000004
20
-1.24999999999984
30
0.250000000000241
11
3.24185123190546e-014
21
-1.24999999999984
31
0.250000000000241
  0
LINE
  8
MY3DLAYER
10
0.249999999995939
20
-0.749999999999971
30
0.250000000000007
11
0.500000000000004
21
-0.999999999999843
31
0.250000000000261
  0
LINE
  8
MY3DLAYER
10
3.24185123190546e-014
20
-1.24999999999984
30
0.250000000000241
11
3.66373598126302e-015
21
-1.24999999999988
31
0.750000000000241
  0
LINE
  8
MY3DLAYER
10
4.31876756579186e-014
20
-1.49999999999957
30
1.50000000000043
11
1.11022302462516e-016
21
-1.5
31
4.26325641455974e-013
  0
LINE
  8
MY3DLAYER
10
1.11022302462516e-016
20
-8.88178419700125e-016
30
-8.61625435118598e-026
11
4.31876756579186e-014
21
4.2632564145606e-013
31
1.5
  0
LINE
  8
MY3DLAYER
10
1
20
-0.124999999999965
30
0.125000000000006
11
1
21
-1.37499999999997
31
0.125000000000361
  0
LINE
  8
MY3DLAYER
10
1
20
-1.37499999999997
30
0.125000000000361
11
1.00000000000004
21
-1.37499999999961
31
1.37500000000036
  0
LINE
  8
MY3DLAYER
10
1.00000000000004
20
4.2632564145606e-013
30
1.49999999999997
11
1.00000000000004
21
-1.49999999999957
31
1.5000000000004
  0
LINE
  8
MY3DLAYER
10
1.0
20
-8.88178419700125e-016
30
-2.94694824099802e-014
11
1.00000000000004
21
4.2632564145606e-013
31
1.49999999999997
  0
LINE
  8
MY3DLAYER
10
1.0
20
-1.5
30
3.9863251588548e-013
11
1.0
21
-8.88178419700125e-016
31
-2.94694824099802e-014
  0
LINE
  8
MY3DLAYER
10
1.00000000000004
20
-0.124999999999609
30
1.37500000000001
11
1
21
-0.124999999999965
31
0.125000000000006
  0
LINE
  8
MY3DLAYER
10
0.312500000000018
20
-1.37500000000001
30
0.687500000000232
11
0.310370364143085
21
-1.37500000000001
31
0.671323809681324
  0
LINE
  8
MY3DLAYER
10
-8.09774469701097e-012
20
-0.124999999999574
30
1.37499999999983
11
-8.09774469701097e-012
21
-0.124999999999707
31
0.749999999999834
  0
LINE
  8
MY3DLAYER
10
1.11022302462516e-016
20
-8.88178419700125e-016
30
-8.61625435118598e-026
11
1.0
21
-8.88178419700125e-016
31
-2.94694824099802e-014
  0
LINE
  8
MY3DLAYER
10
3.96349619791181e-014
20
-1.37499999999961
30
1.37500000000039
11
1.00000000000004
21
-1.37499999999961
31
1.37500000000036
  0
LINE
  8
MY3DLAYER
10
1.00000000000004
20
-1.37499999999961
30
1.37500000000036
11
1.00000000000004
21
-0.124999999999609
31
1.37500000000001
  0
LINE
  8
MY3DLAYER
10
-8.09774469701097e-012
20
-0.124999999999574
30
1.37499999999983
11
0.499999999991902
21
-0.124999999999546
31
1.37499999999983
  0
LINE
  8
MY3DLAYER
10
3.96349619791181e-014
20
-1.37499999999961
30
1.37500000000039
11
-8.06898992067318e-012
21
-0.749999999999545
31
1.37500000000012
  0
LINE
  8
MY3DLAYER
10
0.500000000000021
20
-0.124999999999965
30
0.875000000000237
11
0.532352380637836
21
-0.124999999999967
31
0.87074072828637
  0
LINE
  8
MY3DLAYER
10
0.532352380637836
20
-0.124999999999967
30
0.87074072828637
11
0.562500000000021
21
-0.124999999999971
31
0.858253175473291
  0
LINE
  8
MY3DLAYER
10
0.562500000000021
20
-0.124999999999971
30
0.858253175473291
11
0.58838834764834
21
-0.124999999999976
31
0.838388347648555
  0
LINE
  8
MY3DLAYER
10
0.58838834764834
20
-0.124999999999976
30
0.838388347648555
11
0.608253175473076
21
-0.124999999999983
31
0.812500000000237
  0
LINE
  8
MY3DLAYER
10
0.608253175473076
20
-0.124999999999983
30
0.812500000000237
11
0.620740728286155
21
-0.124999999999992
31
0.782352380638052
  0
LINE
  8
MY3DLAYER
10
0.620740728286155
20
-0.124999999999992
30
0.782352380638052
11
0.625000000000021
21
-0.125000000000001
31
0.750000000000237
  0
LINE
  8
MY3DLAYER
10
0.625000000000021
20
-0.125000000000001
30
0.750000000000237
11
0.620740728286155
21
-0.12500000000001
31
0.717647619362422
  0
LINE
  8
MY3DLAYER
10
0.620740728286155
20
-0.12500000000001
30
0.717647619362422
11
0.608253175473076
21
-0.125000000000019
31
0.687500000000237
  0
LINE
  8
MY3DLAYER
10
0.608253175473076
20
-0.125000000000019
30
0.687500000000237
11
0.58838834764834
21
-0.125000000000026
31
0.661611652351918
  0
LINE
  8
MY3DLAYER
10
0.58838834764834
20
-0.125000000000026
30
0.661611652351918
11
0.562500000000021
21
-0.125000000000031
31
0.641746824527182
  0
LINE
  8
MY3DLAYER
10
0.562500000000021
20
-0.125000000000031
30
0.641746824527182
11
0.532352380637836
21
-0.125000000000035
31
0.629259271714103
  0
LINE
  8
MY3DLAYER
10
0.532352380637836
20
-0.125000000000035
30
0.629259271714103
11
0.500000000000021
21
-0.125000000000036
31
0.625000000000237
  0
LINE
  8
MY3DLAYER
10
-4.06141786868375e-012
20
-0.124999999999971
30
0.125000000000036
11
0.499999999995939
21
-0.124999999999971
31
0.125000000000007
  0
LINE
  8
MY3DLAYER
10
0.187500000000057
20
-0.124999999614134
30
0.500000000000006
11
0.18962963585699
21
-0.124999999614131
31
0.516176190318913
  0
LINE
  8
MY3DLAYER
10
0.18962963585699
20
-0.124999999614131
30
0.516176190318913
11
0.195873412263529
21
-0.124999999614126
31
0.531250000000006
  0
LINE
  8
MY3DLAYER
10
0.195873412263529
20
-0.124999999614126
30
0.531250000000006
11
0.205805826175897
21
-0.124999999614123
31
0.544194173824166
  0
LINE
  8
MY3DLAYER
10
0.205805826175897
20
-0.124999999614123
30
0.544194173824166
11
0.218750000000057
21
-0.124999999614119
31
0.554126587736534
  0
LINE
  8
MY3DLAYER
10
0.218750000000057
20
-0.124999999614119
30
0.554126587736534
11
0.233823809681149
21
-0.124999999614118
31
0.560370364143073
  0
LINE
  8
MY3DLAYER
10
0.233823809681149
20
-0.124999999614118
30
0.560370364143073
11
0.250000000000057
21
-0.124999999614115
31
0.562500000000006
  0
LINE
  8
MY3DLAYER
10
0.250000000000057
20
-0.124999999614115
30
0.562500000000006
11
0.266176190318964
21
-0.124999999614114
31
0.560370364143073
  0
LINE
  8
MY3DLAYER
10
0.266176190318964
20
-0.124999999614114
30
0.560370364143073
11
0.281250000000057
21
-0.124999999614114
31
0.554126587736534
  0
LINE
  8
MY3DLAYER
10
0.281250000000057
20
-0.124999999614114
30
0.554126587736534
11
0.294194173824216
21
-0.124999999614114
31
0.544194173824166
  0
LINE
  8
MY3DLAYER
10
0.294194173824216
20
-0.124999999614114
30
0.544194173824166
11
0.304126587736584
21
-0.124999999614116
31
0.531250000000006
  0
LINE
  8
MY3DLAYER
10
0.304126587736584
20
-0.124999999614116
30
0.531250000000006
11
0.310370364143124
21
-0.124999999614119
31
0.516176190318913
  0
LINE
  8
MY3DLAYER
10
0.310370364143124
20
-0.124999999614119
30
0.516176190318913
11
0.312500000000057
21
-0.124999999614122
31
0.500000000000006
  0
LINE
  8
MY3DLAYER
10
0.312500000000057
20
-0.124999999614122
30
0.500000000000006
11
0.310370364143124
21
-0.124999999614126
31
0.483823809681099
  0
LINE
  8
MY3DLAYER
10
0.310370364143124
20
-0.124999999614126
30
0.483823809681099
11
0.304126587736584
21
-0.12499999961413
31
0.468750000000006
  0
LINE
  8
MY3DLAYER
10
0.304126587736584
20
-0.12499999961413
30
0.468750000000006
11
0.294194173824216
21
-0.124999999614134
31
0.455805826175847
  0
LINE
  8
MY3DLAYER
10
0.294194173824216
20
-0.124999999614134
30
0.455805826175847
11
0.281250000000057
21
-0.124999999614137
31
0.445873412263478
  0
LINE
  8
MY3DLAYER
10
0.281250000000057
20
-0.124999999614137
30
0.445873412263478
11
0.266176190318964
21
-0.124999999614139
31
0.43962963585694
  0
LINE
  8
MY3DLAYER
10
0.266176190318964
20
-0.124999999614139
30
0.43962963585694
11
0.250000000000057
21
-0.124999999614142
31
0.437500000000006
  0
LINE
  8
MY3DLAYER
10
0.250000000000057
20
-0.124999999614142
30
0.437500000000006
11
0.233823809681149
21
-0.124999999614142
31
0.43962963585694
  0
LINE
  8
MY3DLAYER
10
0.233823809681149
20
-0.124999999614142
30
0.43962963585694
11
0.218750000000057
21
-0.124999999614142
31
0.445873412263478
  0
LINE
  8
MY3DLAYER
10
0.218750000000057
20
-0.124999999614142
30
0.445873412263478
11
0.205805826175897
21
-0.124999999614142
31
0.455805826175847
  0
LINE
  8
MY3DLAYER
10
0.205805826175897
20
-0.124999999614142
30
0.455805826175847
11
0.195873412263529
21
-0.124999999614141
31
0.468750000000006
  0
LINE
  8
MY3DLAYER
10
0.195873412263529
20
-0.124999999614141
30
0.468750000000006
11
0.18962963585699
21
-0.124999999614137
31
0.483823809681099
  0
LINE
  8
MY3DLAYER
10
0.18962963585699
20
-0.124999999614137
30
0.483823809681099
11
0.187500000000057
21
-0.124999999614134
31
0.500000000000006
  0
LINE
  8
MY3DLAYER
10
0.310370364143124
20
-0.124999999614119
30
1.01617619031891
11
0.312500000000057
21
-0.124999999614122
31
1.00000000000001
  0
LINE
  8
MY3DLAYER
10
0.312500000000057
20
-0.124999999614122
30
1.00000000000001
11
0.310370364143124
21
-0.124999999614126
31
0.983823809681099
  0
LINE
  8
MY3DLAYER
10
0.310370364143124
20
-0.124999999614126
30
0.983823809681099
11
0.304126587736584
21
-0.12499999961413
31
0.968750000000006
  0
LINE
  8
MY3DLAYER
10
0.304126587736584
20
-0.12499999961413
30
0.968750000000006
11
0.294194173824216
21
-0.124999999614134
31
0.955805826175847
  0
LINE
  8
MY3DLAYER
10
0.294194173824216
20
-0.124999999614134
30
0.955805826175847
11
0.281250000000057
21
-0.124999999614137
31
0.945873412263478
  0
LINE
  8
MY3DLAYER
10
0.281250000000057
20
-0.124999999614137
30
0.945873412263478
11
0.266176190318964
21
-0.124999999614139
31
0.93962963585694
  0
LINE
  8
MY3DLAYER
10
0.266176190318964
20
-0.124999999614139
30
0.93962963585694
11
0.250000000000057
21
-0.124999999614142
31
0.937500000000006
  0
LINE
  8
MY3DLAYER
10
0.250000000000057
20
-0.124999999614142
30
0.937500000000006
11
0.233823809681149
21
-0.124999999614142
31
0.93962963585694
  0
LINE
  8
MY3DLAYER
10
0.233823809681149
20
-0.124999999614142
30
0.93962963585694
11
0.218750000000057
21
-0.124999999614142
31
0.945873412263478
  0
LINE
  8
MY3DLAYER
10
0.218750000000057
20
-0.124999999614142
30
0.945873412263478
11
0.205805826175897
21
-0.124999999614142
31
0.955805826175847
  0
LINE
  8
MY3DLAYER
10
0.205805826175897
20
-0.124999999614142
30
0.955805826175847
11
0.195873412263529
21
-0.124999999614141
31
0.968750000000006
  0
LINE
  8
MY3DLAYER
10
0.195873412263529
20
-0.124999999614141
30
0.968750000000006
11
0.18962963585699
21
-0.124999999614137
31
0.983823809681099
  0
LINE
  8
MY3DLAYER
10
0.18962963585699
20
-0.124999999614137
30
0.983823809681099
11
0.187500000000057
21
-0.124999999614134
31
1.00000000000001
  0
LINE
  8
MY3DLAYER
10
0.187500000000057
20
-0.124999999614134
30
1.00000000000001
11
0.18962963585699
21
-0.124999999614131
31
1.01617619031891
  0
LINE
  8
MY3DLAYER
10
0.18962963585699
20
-0.124999999614131
30
1.01617619031891
11
0.195873412263529
21
-0.124999999614126
31
1.03125000000001
  0
LINE
  8
MY3DLAYER
10
0.195873412263529
20
-0.124999999614126
30
1.03125000000001
11
0.205805826175897
21
-0.124999999614123
31
1.04419417382417
  0
LINE
  8
MY3DLAYER
10
0.205805826175897
20
-0.124999999614123
30
1.04419417382417
11
0.218750000000057
21
-0.124999999614119
31
1.05412658773653
  0
LINE
  8
MY3DLAYER
10
0.218750000000057
20
-0.124999999614119
30
1.05412658773653
11
0.233823809681149
21
-0.124999999614118
31
1.06037036414307
  0
LINE
  8
MY3DLAYER
10
0.233823809681149
20
-0.124999999614118
30
1.06037036414307
11
0.250000000000057
21
-0.124999999614115
31
1.06250000000001
  0
LINE
  8
MY3DLAYER
10
0.250000000000057
20
-0.124999999614115
30
1.06250000000001
11
0.266176190318964
21
-0.124999999614114
31
1.06037036414307
  0
LINE
  8
MY3DLAYER
10
0.266176190318964
20
-0.124999999614114
30
1.06037036414307
11
0.281250000000057
21
-0.124999999614114
31
1.05412658773653
  0
LINE
  8
MY3DLAYER
10
0.281250000000057
20
-0.124999999614114
30
1.05412658773653
11
0.294194173824216
21
-0.124999999614114
31
1.04419417382417
  0
LINE
  8
MY3DLAYER
10
0.294194173824216
20
-0.124999999614114
30
1.04419417382417
11
0.304126587736584
21
-0.124999999614116
31
1.03125000000001
  0
LINE
  8
MY3DLAYER
10
0.304126587736584
20
-0.124999999614116
30
1.03125000000001
11
0.310370364143124
21
-0.124999999614119
31
1.01617619031891
  0
LINE
  8
MY3DLAYER
10
0.375000000000021
20
-0.125000000000001
30
0.750000000000237
11
0.379259271713888
21
-0.124999999999992
31
0.782352380638052
  0
LINE
  8
MY3DLAYER
10
0.379259271713888
20
-0.124999999999992
30
0.782352380638052
11
0.391746824526966
21
-0.124999999999983
31
0.812500000000237
  0
LINE
  8
MY3DLAYER
10
0.391746824526966
20
-0.124999999999983
30
0.812500000000237
11
0.411611652351703
21
-0.124999999999976
31
0.838388347648555
  0
LINE
  8
MY3DLAYER
10
0.411611652351703
20
-0.124999999999976
30
0.838388347648555
11
0.437500000000021
21
-0.124999999999971
31
0.858253175473291
  0
LINE
  8
MY3DLAYER
10
0.437500000000021
20
-0.124999999999971
30
0.858253175473291
11
0.467647619362206
21
-0.124999999999967
31
0.87074072828637
  0
LINE
  8
MY3DLAYER
10
0.467647619362206
20
-0.124999999999967
30
0.87074072828637
11
0.500000000000021
21
-0.124999999999965
31
0.875000000000237
  0
LINE
  8
MY3DLAYER
10
0.500000000000021
20
-0.125000000000036
30
0.625000000000237
11
0.467647619362206
21
-0.125000000000035
31
0.629259271714103
  0
LINE
  8
MY3DLAYER
10
0.467647619362206
20
-0.125000000000035
30
0.629259271714103
11
0.437500000000021
21
-0.125000000000031
31
0.641746824527182
  0
LINE
  8
MY3DLAYER
10
0.437500000000021
20
-0.125000000000031
30
0.641746824527182
11
0.411611652351703
21
-0.125000000000026
31
0.661611652351918
  0
LINE
  8
MY3DLAYER
10
0.411611652351703
20
-0.125000000000026
30
0.661611652351918
11
0.391746824526966
21
-0.125000000000019
31
0.687500000000236
  0
LINE
  8
MY3DLAYER
10
0.391746824526966
20
-0.125000000000019
30
0.687500000000236
11
0.379259271713888
21
-0.12500000000001
31
0.717647619362421
  0
LINE
  8
MY3DLAYER
10
0.379259271713888
20
-0.12500000000001
30
0.717647619362421
11
0.375000000000021
21
-0.125000000000001
31
0.750000000000237
  0
LINE
  8
MY3DLAYER
10
-4.06141786868375e-012
20
-0.124999999999971
30
0.125000000000036
11
-4.06141786868375e-012
21
-0.749999999999971
31
0.125000000000163
  0
LINE
  8
MY3DLAYER
10
3.66373598126302e-015
20
-1.37499999999983
30
0.12500000000026
11
0.500000000000004
21
-1.37499999999983
31
0.125000000000232
  0
LINE
  8
MY3DLAYER
10
3.66373598126302e-015
20
-1.37499999999983
30
0.12500000000026
11
3.24185123190546e-014
21
-1.37500000000017
31
0.750000000000232
  0
LINE
  8
MY3DLAYER
10
1.11022302462516e-016
20
-1.5
30
4.26325641455974e-013
11
1.11022302462516e-016
21
-8.88178419700125e-016
31
-8.61625435118598e-026
  0
LINE
  8
MY3DLAYER
10
4.31876756579186e-014
20
4.2632564145606e-013
30
1.5
11
1.00000000000004
21
4.2632564145606e-013
31
1.49999999999997
  0
LINE
  8
MY3DLAYER
10
1.11022302462516e-016
20
-1.5
30
4.26325641455974e-013
11
1.0
21
-1.5
31
3.9863251588548e-013
  0
LINE
  8
MY3DLAYER
10
4.31876756579186e-014
20
4.2632564145606e-013
30
1.5
11
4.31876756579186e-014
21
-1.49999999999957
31
1.50000000000043
  0
LINE
  8
MY3DLAYER
10
0.281250000000018
20
-1.37500000000001
30
0.633373412263704
11
0.266176190318926
21
-1.37500000000001
31
0.627129635857165
  0
LINE
  8
MY3DLAYER
10
0.294194173824177
20
-1.37500000000001
30
0.643305826176072
11
0.281250000000018
21
-1.37500000000001
31
0.633373412263704
  0
LINE
  8
MY3DLAYER
10
0.304126587736545
20
-1.37500000000001
30
0.656250000000232
11
0.294194173824177
21
-1.37500000000001
31
0.643305826176072
  0
LINE
  8
MY3DLAYER
10
0.310370364143085
20
-1.37500000000001
30
0.671323809681324
11
0.304126587736545
21
-1.37500000000001
31
0.656250000000232
  0
LINE
  8
MY3DLAYER
10
0.310370364143085
20
-1.37500000000001
30
0.703676190319139
11
0.312500000000018
21
-1.37500000000001
31
0.687500000000232
  0
LINE
  8
MY3DLAYER
10
0.304126587736545
20
-1.37500000000001
30
0.718750000000232
11
0.310370364143085
21
-1.37500000000001
31
0.703676190319139
  0
LINE
  8
MY3DLAYER
10
0.187499999991917
20
-0.687499999999546
30
1.37499999999997
11
0.18962963584885
21
-0.703676190318453
31
1.37499999999998
  0
LINE
  8
MY3DLAYER
10
0.18962963584885
20
-0.703676190318453
30
1.37499999999998
11
0.195873412255389
21
-0.718749999999545
31
1.37499999999998
  0
LINE
  8
MY3DLAYER
10
0.195873412255389
20
-0.718749999999545
30
1.37499999999998
11
0.205805826167757
21
-0.731694173823705
31
1.37499999999998
  0
LINE
  8
MY3DLAYER
10
0.266176190310824
20
-0.627129635856479
30
1.37499999999995
11
0.249999999991917
21
-0.624999999999546
31
1.37499999999995
  0
LINE
  8
MY3DLAYER
10
0.249999999991917
20
-0.624999999999546
30
1.37499999999995
11
0.233823809673009
21
-0.627129635856479
31
1.37499999999996
  0
LINE
  8
MY3DLAYER
10
0.233823809673009
20
-0.627129635856479
30
1.37499999999996
11
0.218749999991917
21
-0.633373412263018
31
1.37499999999996
  0
LINE
  8
MY3DLAYER
10
0.218749999991917
20
-0.633373412263018
30
1.37499999999996
11
0.205805826167757
21
-0.643305826175387
31
1.37499999999996
  0
LINE
  8
MY3DLAYER
10
0.249999999991917
20
-0.749999999999546
30
1.37499999999997
11
0.266176190310824
21
-0.747870364142613
31
1.37499999999998
  0
LINE
  8
MY3DLAYER
10
0.205805826167757
20
-0.731694173823705
30
1.37499999999998
11
0.218749999991917
21
-0.741626587736073
31
1.37499999999998
  0
LINE
  8
MY3DLAYER
10
0.218749999991917
20
-0.741626587736073
30
1.37499999999998
11
0.233823809673009
21
-0.747870364142613
31
1.37499999999998
  0
LINE
  8
MY3DLAYER
10
0.233823809673009
20
-0.747870364142613
30
1.37499999999998
11
0.249999999991917
21
-0.749999999999546
31
1.37499999999997
  0
LINE
  8
MY3DLAYER
10
1.00000000000004
20
-1.49999999999957
30
1.5000000000004
11
1.0
21
-1.5
31
3.9863251588548e-013
  0
LINE
  8
MY3DLAYER
10
0.294194173824177
20
-1.37500000000001
30
0.731694173824391
11
0.304126587736545
21
-1.37500000000001
31
0.718750000000232
  0
LINE
  8
MY3DLAYER
10
0.281250000000018
20
-1.37500000000002
30
0.741626587736759
11
0.294194173824177
21
-1.37500000000001
31
0.731694173824391
  0
LINE
  8
MY3DLAYER
10
0.266176190318926
20
-1.37500000000002
30
0.747870364143298
11
0.281250000000018
21
-1.37500000000002
31
0.741626587736759
  0
LINE
  8
MY3DLAYER
10
4.31876756579186e-014
20
-1.49999999999957
30
1.50000000000043
11
1.00000000000004
21
-1.49999999999957
31
1.5000000000004
  0
LINE
  8
MY3DLAYER
10
0.205805826167757
20
-0.643305826175387
30
1.37499999999996
11
0.195873412255389
21
-0.656249999999546
31
1.37499999999996
  0
LINE
  8
MY3DLAYER
10
0.195873412255389
20
-0.656249999999546
30
1.37499999999996
11
0.18962963584885
21
-0.671323809680638
31
1.37499999999997
  0
LINE
  8
MY3DLAYER
10
0.18962963584885
20
-0.671323809680638
30
1.37499999999997
11
0.187499999991917
21
-0.687499999999546
31
1.37499999999997
  0
LINE
  8
MY3DLAYER
10
0.218750000000018
20
-1.37500000000002
30
0.741626587736759
11
0.23382380968111
21
-1.37500000000002
31
0.747870364143298
  0
LINE
  8
MY3DLAYER
10
0.205805826175859
20
-1.37500000000002
30
0.731694173824391
11
0.218750000000018
21
-1.37500000000002
31
0.741626587736759
  0
LINE
  8
MY3DLAYER
10
0.195873412263491
20
-1.37500000000002
30
0.718750000000232
11
0.205805826175859
21
-1.37500000000002
31
0.731694173824391
  0
LINE
  8
MY3DLAYER
10
0.189629635856951
20
-1.37500000000001
30
0.703676190319139
11
0.195873412263491
21
-1.37500000000002
31
0.718750000000232
  0
LINE
  8
MY3DLAYER
10
0.187500000000018
20
-1.37500000000001
30
0.687500000000232
11
0.189629635856951
21
-1.37500000000001
31
0.703676190319139
  0
LINE
  8
MY3DLAYER
10
0.189629635856951
20
-1.37500000000001
30
0.671323809681324
11
0.187500000000018
21
-1.37500000000001
31
0.687500000000232
  0
LINE
  8
MY3DLAYER
10
0.294194173816076
20
-0.643305826175387
30
1.37499999999996
11
0.281249999991917
21
-0.633373412263018
31
1.37499999999996
  0
LINE
  8
MY3DLAYER
10
0.281249999991917
20
-0.633373412263018
30
1.37499999999996
11
0.266176190310824
21
-0.627129635856479
31
1.37499999999995
  0
LINE
  8
MY3DLAYER
10
0.310370364134983
20
-0.703676190318453
30
1.37499999999997
11
0.312499999991917
21
-0.687499999999546
31
1.37499999999997
  0
LINE
  8
MY3DLAYER
10
0.250000000000018
20
-1.37500000000001
30
0.750000000000232
11
0.266176190318926
21
-1.37500000000002
31
0.747870364143298
  0
LINE
  8
MY3DLAYER
10
0.23382380968111
20
-1.37500000000002
30
0.747870364143298
11
0.250000000000018
21
-1.37500000000001
31
0.750000000000232
  0
LINE
  8
MY3DLAYER
10
0.195873412263491
20
-1.37500000000001
30
0.656250000000232
11
0.189629635856951
21
-1.37500000000001
31
0.671323809681324
  0
LINE
  8
MY3DLAYER
10
0.205805826175859
20
-1.37500000000001
30
0.643305826176072
11
0.195873412263491
21
-1.37500000000001
31
0.656250000000232
  0
LINE
  8
MY3DLAYER
10
0.218750000000018
20
-1.37500000000001
30
0.633373412263704
11
0.205805826175859
21
-1.37500000000001
31
0.643305826176072
  0
LINE
  8
MY3DLAYER
10
0.23382380968111
20
-1.37500000000001
30
0.627129635857165
11
0.218750000000018
21
-1.37500000000001
31
0.633373412263704
  0
LINE
  8
MY3DLAYER
10
0.250000000000018
20
-1.37500000000001
30
0.625000000000232
11
0.23382380968111
21
-1.37500000000001
31
0.627129635857165
  0
LINE
  8
MY3DLAYER
10
0.266176190318926
20
-1.37500000000001
30
0.627129635857165
11
0.250000000000018
21
-1.37500000000001
31
0.625000000000232
  0
LINE
  8
MY3DLAYER
10
0.294194173816076
20
-0.731694173823705
30
1.37499999999998
11
0.304126587728444
21
-0.718749999999546
31
1.37499999999997
  0
LINE
  8
MY3DLAYER
10
0.266176190310824
20
-0.747870364142613
30
1.37499999999998
11
0.281249999991917
21
-0.741626587736073
31
1.37499999999998
  0
LINE
  8
MY3DLAYER
10
0.310370364134983
20
-0.671323809680638
30
1.37499999999996
11
0.304126587728444
21
-0.656249999999546
31
1.37499999999996
  0
LINE
  8
MY3DLAYER
10
0.312499999991917
20
-0.687499999999546
30
1.37499999999997
11
0.310370364134983
21
-0.671323809680638
31
1.37499999999996
  0
LINE
  8
MY3DLAYER
10
0.281249999991917
20
-0.741626587736073
30
1.37499999999998
11
0.294194173816076
21
-0.731694173823705
31
1.37499999999998
  0
LINE
  8
MY3DLAYER
10
0.304126587728444
20
-0.718749999999546
30
1.37499999999997
11
0.310370364134983
21
-0.703676190318453
31
1.37499999999997
  0
LINE
  8
MY3DLAYER
10
0.304126587728444
20
-0.656249999999546
30
1.37499999999996
11
0.294194173816076
21
-0.643305826175387
31
1.37499999999996
  0
LINE
  8
MY3DLAYER
10
0.187500000000043
20
3.85865561725041e-010
30
0.499999999999978
11
0.189629635856976
21
3.85869114438719e-010
31
0.516176190318885
  0
LINE
  8
MY3DLAYER
10
0.189629635856976
20
3.85862897189782e-010
30
0.483823809681071
11
0.187500000000043
21
3.85865561725041e-010
31
0.499999999999978
  0
LINE
  8
MY3DLAYER
10
0.195873412263516
20
3.85859344476103e-010
30
0.468749999999978
11
0.189629635856976
21
3.85862897189782e-010
31
0.483823809681071
  0
LINE
  8
MY3DLAYER
10
0.205805826175884
20
3.85857568119263e-010
30
0.455805826175818
11
0.195873412263516
21
3.85859344476103e-010
31
0.468749999999978
  0
LINE
  8
MY3DLAYER
10
0.218750000000043
20
3.85857568119263e-010
30
0.44587341226345
11
0.205805826175884
21
3.85857568119263e-010
31
0.455805826175818
  0
LINE
  8
MY3DLAYER
10
0.233823809681136
20
3.85857568119263e-010
30
0.439629635856911
11
0.218750000000043
21
3.85857568119263e-010
31
0.44587341226345
  0
LINE
  8
MY3DLAYER
10
0.250000000000043
20
3.85858456297683e-010
30
0.437499999999978
11
0.233823809681136
21
3.85857568119263e-010
31
0.439629635856911
  0
LINE
  8
MY3DLAYER
10
0.266176190318951
20
3.85861120832942e-010
30
0.439629635856911
11
0.250000000000043
21
3.85858456297683e-010
31
0.437499999999978
  0
LINE
  8
MY3DLAYER
10
0.281250000000043
20
3.85862897189782e-010
30
0.44587341226345
11
0.266176190318951
21
3.85861120832942e-010
31
0.439629635856911
  0
LINE
  8
MY3DLAYER
10
0.294194173824203
20
3.8586644990346e-010
30
0.455805826175818
11
0.281250000000043
21
3.85862897189782e-010
31
0.44587341226345
  0
LINE
  8
MY3DLAYER
10
0.304126587736571
20
3.85870002617139e-010
30
0.468749999999978
11
0.294194173824203
21
3.8586644990346e-010
31
0.455805826175818
  0
LINE
  8
MY3DLAYER
10
0.31037036414311
20
3.85874443509238e-010
30
0.483823809681071
11
0.304126587736571
21
3.85870002617139e-010
31
0.468749999999978
  0
LINE
  8
MY3DLAYER
10
0.312500000000043
20
3.85877996222916e-010
30
0.499999999999978
11
0.31037036414311
21
3.85874443509238e-010
31
0.483823809681071
  0
LINE
  8
MY3DLAYER
10
0.31037036414311
20
3.85880660758176e-010
30
0.516176190318885
11
0.312500000000043
21
3.85877996222916e-010
31
0.499999999999978
  0
LINE
  8
MY3DLAYER
10
0.304126587736571
20
3.85884213471854e-010
30
0.531249999999978
11
0.31037036414311
21
3.85880660758176e-010
31
0.516176190318885
  0
LINE
  8
MY3DLAYER
10
0.294194173824203
20
3.85885989828694e-010
30
0.544194173824137
11
0.304126587736571
21
3.85884213471854e-010
31
0.531249999999978
  0
LINE
  8
MY3DLAYER
10
0.281250000000043
20
3.85885989828694e-010
30
0.554126587736506
11
0.294194173824203
21
3.85885989828694e-010
31
0.544194173824137
  0
LINE
  8
MY3DLAYER
10
0.266176190318951
20
3.85885989828694e-010
30
0.560370364143044
11
0.281250000000043
21
3.85885989828694e-010
31
0.554126587736506
  0
LINE
  8
MY3DLAYER
10
0.250000000000043
20
3.85885101650274e-010
30
0.562499999999978
11
0.266176190318951
21
3.85885989828694e-010
31
0.560370364143044
  0
LINE
  8
MY3DLAYER
10
0.233823809681136
20
3.85882437115015e-010
30
0.560370364143044
11
0.250000000000043
21
3.85885101650274e-010
31
0.562499999999978
  0
LINE
  8
MY3DLAYER
10
0.218750000000043
20
3.85880660758176e-010
30
0.554126587736506
11
0.233823809681136
21
3.85882437115015e-010
31
0.560370364143044
  0
LINE
  8
MY3DLAYER
10
0.205805826175884
20
3.85877108044497e-010
30
0.544194173824137
11
0.218750000000043
21
3.85880660758176e-010
31
0.554126587736506
  0
LINE
  8
MY3DLAYER
10
0.195873412263516
20
3.85873555330818e-010
30
0.531249999999978
11
0.205805826175884
21
3.85877108044497e-010
31
0.544194173824137
  0
LINE
  8
MY3DLAYER
10
0.189629635856976
20
3.85869114438719e-010
30
0.516176190318885
11
0.195873412263516
21
3.85873555330818e-010
31
0.531249999999978
  0
LINE
  8
MY3DLAYER
10
0.294194173824203
20
3.8586644990346e-010
30
0.955805826175818
11
0.281250000000043
21
3.85862897189782e-010
31
0.94587341226345
  0
LINE
  8
MY3DLAYER
10
0.304126587736571
20
3.85870002617139e-010
30
0.968749999999978
11
0.294194173824203
21
3.8586644990346e-010
31
0.955805826175818
  0
LINE
  8
MY3DLAYER
10
0.31037036414311
20
3.85874443509238e-010
30
0.983823809681071
11
0.304126587736571
21
3.85870002617139e-010
31
0.968749999999978
  0
LINE
  8
MY3DLAYER
10
0.312500000000043
20
3.85877996222916e-010
30
0.999999999999978
11
0.31037036414311
21
3.85874443509238e-010
31
0.983823809681071
  0
LINE
  8
MY3DLAYER
10
0.31037036414311
20
3.85880660758176e-010
30
1.01617619031888
11
0.312500000000043
21
3.85877996222916e-010
31
0.999999999999978
  0
LINE
  8
MY3DLAYER
10
0.304126587736571
20
3.85884213471854e-010
30
1.03124999999998
11
0.31037036414311
21
3.85880660758176e-010
31
1.01617619031888
  0
LINE
  8
MY3DLAYER
10
0.294194173824203
20
3.85885989828694e-010
30
1.04419417382414
11
0.304126587736571
21
3.85884213471854e-010
31
1.03124999999998
  0
LINE
  8
MY3DLAYER
10
0.281250000000043
20
3.85885989828694e-010
30
1.05412658773651
11
0.294194173824203
21
3.85885989828694e-010
31
1.04419417382414
  0
LINE
  8
MY3DLAYER
10
0.266176190318951
20
3.85885989828694e-010
30
1.06037036414304
11
0.281250000000043
21
3.85885989828694e-010
31
1.05412658773651
  0
LINE
  8
MY3DLAYER
10
0.250000000000043
20
3.85885101650274e-010
30
1.06249999999998
11
0.266176190318951
21
3.85885989828694e-010
31
1.06037036414304
  0
LINE
  8
MY3DLAYER
10
0.233823809681136
20
3.85882437115015e-010
30
1.06037036414304
11
0.250000000000043
21
3.85885101650274e-010
31
1.06249999999998
  0
LINE
  8
MY3DLAYER
10
0.218750000000043
20
3.85880660758176e-010
30
1.05412658773651
11
0.233823809681136
21
3.85882437115015e-010
31
1.06037036414304
  0
LINE
  8
MY3DLAYER
10
0.205805826175884
20
3.85877108044497e-010
30
1.04419417382414
11
0.218750000000043
21
3.85880660758176e-010
31
1.05412658773651
  0
LINE
  8
MY3DLAYER
10
0.195873412263516
20
3.85873555330818e-010
30
1.03124999999998
11
0.205805826175884
21
3.85877108044497e-010
31
1.04419417382414
  0
LINE
  8
MY3DLAYER
10
0.189629635856976
20
3.85869114438719e-010
30
1.01617619031888
11
0.195873412263516
21
3.85873555330818e-010
31
1.03124999999998
  0
LINE
  8
MY3DLAYER
10
0.187500000000043
20
3.85865561725041e-010
30
0.999999999999978
11
0.189629635856976
21
3.85869114438719e-010
31
1.01617619031888
  0
LINE
  8
MY3DLAYER
10
0.189629635856976
20
3.85862897189782e-010
30
0.983823809681071
11
0.187500000000043
21
3.85865561725041e-010
31
0.999999999999978
  0
LINE
  8
MY3DLAYER
10
0.195873412263516
20
3.85859344476103e-010
30
0.968749999999978
11
0.189629635856976
21
3.85862897189782e-010
31
0.983823809681071
  0
LINE
  8
MY3DLAYER
10
0.205805826175884
20
3.85857568119263e-010
30
0.955805826175818
11
0.195873412263516
21
3.85859344476103e-010
31
0.968749999999978
  0
LINE
  8
MY3DLAYER
10
0.218750000000043
20
3.85857568119263e-010
30
0.94587341226345
11
0.205805826175884
21
3.85857568119263e-010
31
0.955805826175818
  0
LINE
  8
MY3DLAYER
10
0.233823809681136
20
3.85857568119263e-010
30
0.939629635856911
11
0.218750000000043
21
3.85857568119263e-010
31
0.94587341226345
  0
LINE
  8
MY3DLAYER
10
0.250000000000043
20
3.85858456297683e-010
30
0.937499999999978
11
0.233823809681136
21
3.85857568119263e-010
31
0.939629635856911
  0
LINE
  8
MY3DLAYER
10
0.266176190318951
20
3.85861120832942e-010
30
0.939629635856911
11
0.250000000000043
21
3.85858456297683e-010
31
0.937499999999978
  0
LINE
  8
MY3DLAYER
10
0.281250000000043
20
3.85862897189782e-010
30
0.94587341226345
11
0.266176190318951
21
3.85861120832942e-010
31
0.939629635856911
  0
LINE
  8
MY3DLAYER
10
0.375000000000021
20
-8.88178419700125e-016
30
0.750000000000201
11
0.379259271713888
21
7.99360577730113e-015
31
0.782352380638016
  0
LINE
  8
MY3DLAYER
10
0.379259271713888
20
-9.76996261670138e-015
30
0.717647619362386
11
0.375000000000021
21
-8.88178419700125e-016
31
0.750000000000201
  0
LINE
  8
MY3DLAYER
10
0.391746824526966
20
-1.86517468137026e-014
30
0.687500000000201
11
0.379259271713888
21
-9.76996261670138e-015
31
0.717647619362386
  0
LINE
  8
MY3DLAYER
10
0.411611652351703
20
-2.57571741713036e-014
30
0.661611652351883
11
0.391746824526966
21
-1.86517468137026e-014
31
0.687500000000201
  0
LINE
  8
MY3DLAYER
10
0.437500000000021
20
-3.10862446895044e-014
30
0.641746824527146
11
0.411611652351703
21
-2.57571741713036e-014
31
0.661611652351883
  0
LINE
  8
MY3DLAYER
10
0.467647619362206
20
-3.46389583683049e-014
30
0.629259271714067
11
0.437500000000021
21
-3.10862446895044e-014
31
0.641746824527146
  0
LINE
  8
MY3DLAYER
10
0.500000000000021
20
-3.64153152077051e-014
30
0.625000000000201
11
0.467647619362206
21
-3.46389583683049e-014
31
0.629259271714067
  0
LINE
  8
MY3DLAYER
10
0.532352380637836
20
-3.46389583683049e-014
30
0.629259271714068
11
0.500000000000021
21
-3.64153152077051e-014
31
0.625000000000201
  0
LINE
  8
MY3DLAYER
10
0.562500000000021
20
-3.10862446895044e-014
30
0.641746824527146
11
0.532352380637836
21
-3.46389583683049e-014
31
0.629259271714068
  0
LINE
  8
MY3DLAYER
10
0.58838834764834
20
-2.57571741713036e-014
30
0.661611652351883
11
0.562500000000021
21
-3.10862446895044e-014
31
0.641746824527146
  0
LINE
  8
MY3DLAYER
10
0.608253175473076
20
-1.86517468137026e-014
30
0.687500000000201
11
0.58838834764834
21
-2.57571741713036e-014
31
0.661611652351883
  0
LINE
  8
MY3DLAYER
10
0.620740728286155
20
-9.76996261670138e-015
30
0.717647619362386
11
0.608253175473076
21
-1.86517468137026e-014
31
0.687500000000201
  0
LINE
  8
MY3DLAYER
10
0.625000000000021
20
-8.88178419700125e-016
30
0.750000000000201
11
0.620740728286155
21
-9.76996261670138e-015
31
0.717647619362386
  0
LINE
  8
MY3DLAYER
10
0.620740728286155
20
7.99360577730113e-015
30
0.782352380638016
11
0.625000000000021
21
-8.88178419700125e-016
31
0.750000000000201
  0
LINE
  8
MY3DLAYER
10
0.608253175473076
20
1.68753899743024e-014
30
0.812500000000201
11
0.620740728286155
21
7.99360577730113e-015
31
0.782352380638016
  0
LINE
  8
MY3DLAYER
10
0.58838834764834
20
2.39808173319034e-014
30
0.83838834764852
11
0.608253175473076
21
1.68753899743024e-014
31
0.812500000000201
  0
LINE
  8
MY3DLAYER
10
0.562500000000021
20
2.93098878501041e-014
30
0.858253175473256
11
0.58838834764834
21
2.39808173319034e-014
31
0.83838834764852
  0
LINE
  8
MY3DLAYER
10
0.532352380637836
20
3.28626015289046e-014
30
0.870740728286335
11
0.562500000000021
21
2.93098878501041e-014
31
0.858253175473256
  0
LINE
  8
MY3DLAYER
10
0.500000000000021
20
3.46389583683049e-014
30
0.875000000000201
11
0.532352380637836
21
3.28626015289046e-014
31
0.870740728286335
  0
LINE
  8
MY3DLAYER
10
0.467647619362206
20
3.28626015289046e-014
30
0.870740728286335
11
0.500000000000021
21
3.46389583683049e-014
31
0.875000000000201
  0
LINE
  8
MY3DLAYER
10
0.437500000000021
20
2.93098878501041e-014
30
0.858253175473256
11
0.467647619362206
21
3.28626015289046e-014
31
0.870740728286335
  0
LINE
  8
MY3DLAYER
10
0.411611652351703
20
2.39808173319034e-014
30
0.838388347648519
11
0.437500000000021
21
2.93098878501041e-014
31
0.858253175473256
  0
LINE
  8
MY3DLAYER
10
0.391746824526966
20
1.68753899743024e-014
30
0.812500000000201
11
0.411611652351703
21
2.39808173319034e-014
31
0.838388347648519
  0
LINE
  8
MY3DLAYER
10
0.379259271713888
20
7.99360577730113e-015
30
0.782352380638016
11
0.391746824526966
21
1.68753899743024e-014
31
0.812500000000201
  0
LINE
  8
MY3DLAYER
10
0.312500000000004
20
-0.999999999999834
30
0.12500000000028
11
0.31037036414307
21
-0.983823809680926
31
0.125000000000276
  0
LINE
  8
MY3DLAYER
10
0.31037036414307
20
-1.01617619031874
30
0.125000000000285
11
0.312500000000004
21
-0.999999999999834
31
0.12500000000028
  0
LINE
  8
MY3DLAYER
10
0.195873412263493
20
-1.50000000000002
30
0.718750000000224
11
0.205805826175861
21
-1.50000000000002
31
0.731694173824383
  0
LINE
  8
MY3DLAYER
10
0.205805826175861
20
-1.50000000000002
30
0.731694173824383
11
0.21875000000002
21
-1.50000000000002
31
0.741626587736751
  0
LINE
  8
MY3DLAYER
10
0.21875000000002
20
-1.50000000000002
30
0.741626587736751
11
0.233823809681113
21
-1.50000000000002
31
0.747870364143291
  0
LINE
  8
MY3DLAYER
10
0.233823809681113
20
-1.50000000000002
30
0.747870364143291
11
0.25000000000002
21
-1.50000000000001
31
0.750000000000224
  0
LINE
  8
MY3DLAYER
10
0.266176190318926
20
-1.37500000000002
30
0.747870364143298
11
0.266176190318928
21
-1.50000000000002
31
0.747870364143291
  0
LINE
  8
MY3DLAYER
10
0.250000000000018
20
-1.37500000000001
30
0.750000000000232
11
0.25000000000002
21
-1.50000000000001
31
0.750000000000224
  0
LINE
  8
MY3DLAYER
10
0.25000000000002
20
-1.50000000000001
30
0.750000000000224
11
0.266176190318928
21
-1.50000000000002
31
0.747870364143291
  0
LINE
  8
MY3DLAYER
10
0.25
20
-1.06249999999987
30
2.99871238951169e-013
11
0.266176190318907
21
-1.06037036414294
31
2.98816527077775e-013
  0
LINE
  8
MY3DLAYER
10
0.266176190318907
20
-1.06037036414294
30
2.98816527077775e-013
11
0.28125
21
-1.0541265877364
31
2.96596081028524e-013
  0
LINE
  8
MY3DLAYER
10
0.28125
20
-1.0541265877364
30
2.96596081028524e-013
11
0.294194173824159
21
-1.04419417382403
31
2.93376434257111e-013
  0
LINE
  8
MY3DLAYER
10
0.294194173824159
20
-1.04419417382403
30
2.93376434257111e-013
11
0.304126587736527
21
-1.03124999999987
31
2.89435142519692e-013
  0
LINE
  8
MY3DLAYER
10
0.304126587736527
20
-1.03124999999987
30
2.89435142519692e-013
11
0.310370364143066
21
-1.01617619031878
31
2.8493873926996e-013
  0
LINE
  8
MY3DLAYER
10
0.310370364143066
20
-1.01617619031878
30
2.8493873926996e-013
11
0.3125
21
-0.999999999999869
31
2.80275802566535e-013
  0
LINE
  8
MY3DLAYER
10
0.3125
20
-0.999999999999869
30
2.80275802566535e-013
11
0.310370364143066
21
-0.983823809680962
31
2.75723888165571e-013
  0
LINE
  8
MY3DLAYER
10
0.310370364143066
20
-0.983823809680962
30
2.75723888165571e-013
11
0.304126587736527
21
-0.968749999999869
31
2.7167157412569e-013
  0
LINE
  8
MY3DLAYER
10
0.304126587736527
20
-0.968749999999869
30
2.7167157412569e-013
11
0.294194173824159
21
-0.95580582617571
31
2.68285393900583e-013
  0
LINE
  8
MY3DLAYER
10
0.294194173824159
20
-0.95580582617571
30
2.68285393900583e-013
11
0.28125
21
-0.945873412263341
31
2.65842903246408e-013
  0
LINE
  8
MY3DLAYER
10
0.28125
20
-0.945873412263341
30
2.65842903246408e-013
11
0.266176190318907
21
-0.939629635856802
31
2.64510635616857e-013
  0
LINE
  8
MY3DLAYER
10
0.266176190318907
20
-0.939629635856802
30
2.64510635616857e-013
11
0.25
21
-0.937499999999869
31
2.64344102163164e-013
  0
LINE
  8
MY3DLAYER
10
0.25
20
-0.937499999999869
30
2.64344102163164e-013
11
0.233823809681093
21
-0.939629635856802
31
2.65398814036557e-013
  0
LINE
  8
MY3DLAYER
10
0.233823809681093
20
-0.939629635856802
30
2.65398814036557e-013
11
0.21875
21
-0.945873412263341
31
2.67619260085808e-013
  0
LINE
  8
MY3DLAYER
10
0.21875
20
-0.945873412263341
30
2.67619260085808e-013
11
0.205805826175841
21
-0.95580582617571
31
2.70838906857221e-013
  0
LINE
  8
MY3DLAYER
10
0.205805826175841
20
-0.95580582617571
30
2.70838906857221e-013
11
0.195873412263473
21
-0.968749999999869
31
2.7478019859464e-013
  0
LINE
  8
MY3DLAYER
10
0.195873412263473
20
-0.968749999999869
30
2.7478019859464e-013
11
0.189629635856933
21
-0.983823809680962
31
2.79276601844372e-013
  0
LINE
  8
MY3DLAYER
10
0.189629635856933
20
-0.983823809680962
30
2.79276601844372e-013
11
0.1875
21
-0.999999999999869
31
2.83939538547798e-013
  0
LINE
  8
MY3DLAYER
10
0.1875
20
-0.999999999999869
30
2.83939538547798e-013
11
0.189629635856933
21
-1.01617619031878
31
2.88491452948761e-013
  0
LINE
  8
MY3DLAYER
10
0.189629635856933
20
-1.01617619031878
30
2.88491452948761e-013
11
0.195873412263473
21
-1.03124999999987
31
2.92543766988643e-013
  0
LINE
  8
MY3DLAYER
10
0.195873412263473
20
-1.03124999999987
30
2.92543766988643e-013
11
0.205805826175841
21
-1.04419417382403
31
2.95929947213749e-013
  0
LINE
  8
MY3DLAYER
10
0.205805826175841
20
-1.04419417382403
30
2.95929947213749e-013
11
0.21875
21
-1.0541265877364
31
2.98372437867925e-013
  0
LINE
  8
MY3DLAYER
10
0.21875
20
-1.0541265877364
30
2.98372437867925e-013
11
0.233823809681093
21
-1.06037036414294
31
2.99704705497475e-013
  0
LINE
  8
MY3DLAYER
10
0.233823809681093
20
-1.06037036414294
30
2.99704705497475e-013
11
0.25
21
-1.06249999999987
31
2.99871238951169e-013
  0
LINE
  8
MY3DLAYER
10
0.375000000000021
20
-0.749999999999788
30
-8.48230216233396e-015
11
0.379259271713888
21
-0.717647619361972
31
-1.78186948768133e-014
  0
LINE
  8
MY3DLAYER
10
0.379259271713888
20
-0.782352380637602
30
6.09817275660784e-016
11
0.375000000000021
21
-0.749999999999788
31
-8.48230216233396e-015
  0
LINE
  8
MY3DLAYER
10
0.391746824526966
20
-0.812499999999788
30
8.83805052290928e-015
11
0.379259271713888
21
-0.782352380637602
31
6.09817275660784e-016
  0
LINE
  8
MY3DLAYER
10
0.411611652351703
20
-0.838388347648105
30
1.564165708141e-014
11
0.391746824526966
21
-0.812499999999788
31
8.83805052290928e-015
  0
LINE
  8
MY3DLAYER
10
0.437500000000021
20
-0.858253175472842
30
2.05569824076924e-014
11
0.411611652351703
21
-0.838388347648105
31
1.564165708141e-014
  0
LINE
  8
MY3DLAYER
10
0.467647619362206
20
-0.870740728285921
30
2.32490552037297e-014
11
0.437500000000021
21
-0.858253175472842
31
2.05569824076924e-014
  0
LINE
  8
MY3DLAYER
10
0.500000000000021
20
-0.874999999999788
30
2.35344151573325e-014
11
0.467647619362206
21
-0.870740728285921
31
2.32490552037297e-014
  0
LINE
  8
MY3DLAYER
10
0.532352380637836
20
-0.870740728285921
30
2.13936154592424e-014
11
0.500000000000021
21
-0.874999999999788
31
2.35344151573325e-014
  0
LINE
  8
MY3DLAYER
10
0.562500000000021
20
-0.858253175472842
30
1.69725480710455e-014
11
0.532352380637836
21
-0.870740728285921
31
2.13936154592424e-014
  0
LINE
  8
MY3DLAYER
10
0.58838834764834
20
-0.838388347648105
30
1.05725014290881e-014
11
0.562500000000021
21
-0.858253175472842
31
1.69725480710455e-014
  0
LINE
  8
MY3DLAYER
10
0.608253175473076
20
-0.812499999999788
30
2.62962813544241e-015
11
0.58838834764834
21
-0.838388347648105
31
1.05725014290881e-014
  0
LINE
  8
MY3DLAYER
10
0.620740728286155
20
-0.782352380637602
30
-6.31477812114834e-015
11
0.608253175473076
21
-0.812499999999788
31
2.62962813544241e-015
  0
LINE
  8
MY3DLAYER
10
0.625000000000021
20
-0.749999999999788
30
-1.56511708356277e-014
11
0.620740728286155
21
-0.782352380637602
31
-6.31477812114834e-015
  0
LINE
  8
MY3DLAYER
10
0.620740728286155
20
-0.717647619361972
30
-2.47432902736224e-014
11
0.625000000000021
21
-0.749999999999788
31
-1.56511708356277e-014
  0
LINE
  8
MY3DLAYER
10
0.608253175473076
20
-0.687499999999788
30
-3.29715235208709e-014
11
0.620740728286155
21
-0.717647619361972
31
-2.47432902736224e-014
  0
LINE
  8
MY3DLAYER
10
0.58838834764834
20
-0.661611652351469
30
-3.97751300793716e-014
11
0.608253175473076
21
-0.687499999999788
31
-3.29715235208709e-014
  0
LINE
  8
MY3DLAYER
10
0.562500000000021
20
-0.641746824526733
30
-4.46904554056541e-014
11
0.58838834764834
21
-0.661611652351469
31
-3.97751300793716e-014
  0
LINE
  8
MY3DLAYER
10
0.532352380637836
20
-0.629259271713654
30
-4.73825282016914e-014
11
0.562500000000021
21
-0.641746824526733
31
-4.46904554056541e-014
  0
LINE
  8
MY3DLAYER
10
0.500000000000021
20
-0.624999999999788
30
-4.76678881552942e-014
11
0.532352380637836
21
-0.629259271713654
31
-4.73825282016914e-014
  0
LINE
  8
MY3DLAYER
10
0.467647619362206
20
-0.629259271713654
30
-4.55270884572041e-014
11
0.500000000000021
21
-0.624999999999788
31
-4.76678881552942e-014
  0
LINE
  8
MY3DLAYER
10
0.437500000000021
20
-0.641746824526733
30
-4.11060210690072e-014
11
0.467647619362206
21
-0.629259271713654
31
-4.55270884572041e-014
  0
LINE
  8
MY3DLAYER
10
0.411611652351703
20
-0.661611652351469
30
-3.47059744270498e-014
11
0.437500000000021
21
-0.641746824526733
31
-4.11060210690072e-014
  0
LINE
  8
MY3DLAYER
10
0.391746824526966
20
-0.687499999999788
30
-2.67631011334041e-014
11
0.411611652351703
21
-0.661611652351469
31
-3.47059744270498e-014
  0
LINE
  8
MY3DLAYER
10
0.379259271713888
20
-0.717647619361972
30
-1.78186948768133e-014
11
0.391746824526966
21
-0.687499999999788
31
-2.67631011334041e-014
  0
LINE
  8
MY3DLAYER
10
0.375000000000025
20
-0.749999999999752
30
0.124999999999991
11
0.379259271713891
21
-0.717647619361936
31
0.124999999999982
  0
LINE
  8
MY3DLAYER
10
0.233823809673013
20
-0.747870364142583
30
1.49999999999998
11
0.249999999991921
21
-0.749999999999516
31
1.49999999999997
  0
LINE
  8
MY3DLAYER
10
0.379259271713891
20
-0.717647619361936
30
0.124999999999982
11
0.39174682452697
21
-0.687499999999752
31
0.124999999999973
  0
LINE
  8
MY3DLAYER
10
0.39174682452697
20
-0.687499999999752
30
0.124999999999973
11
0.411611652351706
21
-0.661611652351433
31
0.124999999999965
  0
LINE
  8
MY3DLAYER
10
0.205805826175844
20
-0.955805826175674
30
0.125000000000271
11
0.195873412263476
21
-0.968749999999834
31
0.125000000000275
  0
LINE
  8
MY3DLAYER
10
0.218750000000004
20
-0.945873412263306
30
0.125000000000268
11
0.205805826175844
21
-0.955805826175674
31
0.125000000000271
  0
LINE
  8
MY3DLAYER
10
0.233823809681096
20
-0.939629635856766
30
0.125000000000265
11
0.218750000000004
21
-0.945873412263306
31
0.125000000000268
  0
LINE
  8
MY3DLAYER
10
0.304126587736531
20
-1.03124999999983
30
0.125000000000289
11
0.31037036414307
21
-1.01617619031874
31
0.125000000000285
  0
LINE
  8
MY3DLAYER
10
0.250000000000004
20
-0.937499999999834
30
0.125000000000264
11
0.233823809681096
21
-0.939629635856766
31
0.125000000000265
  0
LINE
  8
MY3DLAYER
10
0.266176190318911
20
-0.939629635856766
30
0.125000000000264
11
0.250000000000004
21
-0.937499999999834
31
0.125000000000264
  0
LINE
  8
MY3DLAYER
10
0.281250000000004
20
-0.945873412263306
30
0.125000000000266
11
0.266176190318911
21
-0.939629635856766
31
0.125000000000264
  0
LINE
  8
MY3DLAYER
10
0.294194173824163
20
-0.955805826175674
30
0.125000000000268
11
0.281250000000004
21
-0.945873412263306
31
0.125000000000266
  0
LINE
  8
MY3DLAYER
10
0.294194173824163
20
-1.04419417382399
30
0.125000000000293
11
0.304126587736531
21
-1.03124999999983
31
0.125000000000289
  0
LINE
  8
MY3DLAYER
10
0.281250000000004
20
-1.05412658773636
30
0.125000000000297
11
0.294194173824163
21
-1.04419417382399
31
0.125000000000293
  0
LINE
  8
MY3DLAYER
10
0.266176190318911
20
-1.0603703641429
30
0.125000000000299
11
0.281250000000004
21
-1.05412658773636
31
0.125000000000297
  0
LINE
  8
MY3DLAYER
10
0.218750000000004
20
-1.05412658773636
30
0.125000000000298
11
0.233823809681096
21
-1.0603703641429
31
0.1250000000003
  0
LINE
  8
MY3DLAYER
10
0.205805826175844
20
-1.04419417382399
30
0.125000000000296
11
0.218750000000004
21
-1.05412658773636
31
0.125000000000298
  0
LINE
  8
MY3DLAYER
10
0.195873412263476
20
-1.03124999999983
30
0.125000000000293
11
0.205805826175844
21
-1.04419417382399
31
0.125000000000296
  0
LINE
  8
MY3DLAYER
10
0.189629635856937
20
-1.01617619031874
30
0.125000000000288
11
0.195873412263476
21
-1.03124999999983
31
0.125000000000293
  0
LINE
  8
MY3DLAYER
10
0.187500000000004
20
-0.999999999999834
30
0.125000000000284
11
0.189629635856937
21
-1.01617619031874
31
0.125000000000288
  0
LINE
  8
MY3DLAYER
10
0.189629635856937
20
-0.983823809680926
30
0.125000000000279
11
0.187500000000004
21
-0.999999999999834
31
0.125000000000284
  0
LINE
  8
MY3DLAYER
10
0.195873412263476
20
-0.968749999999834
30
0.125000000000275
11
0.189629635856937
21
-0.983823809680926
31
0.125000000000279
  0
LINE
  8
MY3DLAYER
10
0.411611652351706
20
-0.661611652351433
30
0.124999999999965
11
0.437500000000025
21
-0.641746824526697
31
0.124999999999959
  0
LINE
  8
MY3DLAYER
10
0.437500000000025
20
-0.641746824526697
30
0.124999999999959
11
0.46764761936221
21
-0.629259271713618
31
0.124999999999954
  0
LINE
  8
MY3DLAYER
10
0.46764761936221
20
-0.629259271713618
30
0.124999999999954
11
0.500000000000025
21
-0.624999999999752
31
0.124999999999952
  0
LINE
  8
MY3DLAYER
10
0.500000000000025
20
-0.624999999999752
30
0.124999999999952
11
0.53235238063784
21
-0.629259271713618
31
0.124999999999953
  0
LINE
  8
MY3DLAYER
10
0.53235238063784
20
-0.629259271713618
30
0.124999999999953
11
0.562500000000025
21
-0.641746824526697
31
0.124999999999955
  0
LINE
  8
MY3DLAYER
10
0.562500000000025
20
-0.641746824526697
30
0.124999999999955
11
0.588388347648343
21
-0.661611652351433
31
0.12499999999996
  0
LINE
  8
MY3DLAYER
10
0.588388347648343
20
-0.661611652351433
30
0.12499999999996
11
0.60825317547308
21
-0.687499999999752
31
0.124999999999967
  0
LINE
  8
MY3DLAYER
10
0.250000000000004
20
-1.06249999999983
30
0.1250000000003
11
0.266176190318911
21
-1.0603703641429
31
0.125000000000299
  0
LINE
  8
MY3DLAYER
10
0.233823809681096
20
-1.0603703641429
30
0.1250000000003
11
0.250000000000004
21
-1.06249999999983
31
0.1250000000003
  0
LINE
  8
MY3DLAYER
10
0.304126587736531
20
-0.968749999999834
30
0.125000000000272
11
0.294194173824163
21
-0.955805826175674
31
0.125000000000268
  0
LINE
  8
MY3DLAYER
10
0.31037036414307
20
-0.983823809680926
30
0.125000000000276
11
0.304126587736531
21
-0.968749999999834
31
0.125000000000272
  0
LINE
  8
MY3DLAYER
10
0.60825317547308
20
-0.687499999999752
30
0.124999999999967
11
0.620740728286158
21
-0.717647619361936
31
0.124999999999975
  0
LINE
  8
MY3DLAYER
10
0.620740728286158
20
-0.717647619361936
30
0.124999999999975
11
0.625000000000025
21
-0.749999999999752
31
0.124999999999984
  0
LINE
  8
MY3DLAYER
10
0.625000000000025
20
-0.749999999999752
30
0.124999999999984
11
0.620740728286158
21
-0.782352380637566
31
0.124999999999994
  0
LINE
  8
MY3DLAYER
10
0.620740728286158
20
-0.782352380637566
30
0.124999999999994
11
0.60825317547308
21
-0.812499999999752
31
0.125000000000003
  0
LINE
  8
MY3DLAYER
10
0.60825317547308
20
-0.812499999999752
30
0.125000000000003
11
0.588388347648343
21
-0.83838834764807
31
0.125000000000011
  0
LINE
  8
MY3DLAYER
10
0.588388347648343
20
-0.83838834764807
30
0.125000000000011
11
0.562500000000025
21
-0.858253175472806
31
0.125000000000017
  0
LINE
  8
MY3DLAYER
10
0.562500000000025
20
-0.858253175472806
30
0.125000000000017
11
0.53235238063784
21
-0.870740728285885
31
0.125000000000021
  0
LINE
  8
MY3DLAYER
10
0.53235238063784
20
-0.870740728285885
30
0.125000000000021
11
0.500000000000025
21
-0.874999999999752
31
0.125000000000024
  0
LINE
  8
MY3DLAYER
10
0.500000000000025
20
-0.874999999999752
30
0.125000000000024
11
0.46764761936221
21
-0.870740728285885
31
0.125000000000023
  0
LINE
  8
MY3DLAYER
10
0.46764761936221
20
-0.870740728285885
30
0.125000000000023
11
0.437500000000025
21
-0.858253175472806
31
0.125000000000021
  0
LINE
  8
MY3DLAYER
10
0.437500000000025
20
-0.858253175472806
30
0.125000000000021
11
0.411611652351706
21
-0.83838834764807
31
0.125000000000016
  0
LINE
  8
MY3DLAYER
10
0.411611652351706
20
-0.83838834764807
30
0.125000000000016
11
0.39174682452697
21
-0.812499999999752
31
0.125000000000009
  0
LINE
  8
MY3DLAYER
10
0.39174682452697
20
-0.812499999999752
30
0.125000000000009
11
0.379259271713891
21
-0.782352380637566
31
0.125000000000001
  0
LINE
  8
MY3DLAYER
10
0.379259271713891
20
-0.782352380637566
30
0.125000000000001
11
0.375000000000025
21
-0.749999999999752
31
0.124999999999991
  0
LINE
  8
MY3DLAYER
10
0.189629635856953
20
-1.50000000000001
30
0.703676190319132
11
0.195873412263493
21
-1.50000000000002
31
0.718750000000224
  0
LINE
  8
MY3DLAYER
10
0.608253175473076
20
-0.687499999999788
30
-3.29715235208709e-014
11
0.60825317547308
21
-0.687499999999752
31
0.124999999999967
  0
LINE
  8
MY3DLAYER
10
0.58838834764834
20
-0.661611652351469
30
-3.97751300793716e-014
11
0.588388347648343
21
-0.661611652351433
31
0.12499999999996
  0
LINE
  8
MY3DLAYER
10
0.467647619362206
20
3.28626015289046e-014
30
0.870740728286335
11
0.467647619362206
21
-0.124999999999967
31
0.87074072828637
  0
LINE
  8
MY3DLAYER
10
0.437500000000021
20
2.93098878501041e-014
30
0.858253175473256
11
0.437500000000021
21
-0.124999999999971
31
0.858253175473291
  0
LINE
  8
MY3DLAYER
10
0.500000000000021
20
3.46389583683049e-014
30
0.875000000000201
11
0.500000000000021
21
-0.124999999999965
31
0.875000000000237
  0
LINE
  8
MY3DLAYER
10
0.608253175473076
20
-1.86517468137026e-014
30
0.687500000000201
11
0.608253175473076
21
-0.125000000000019
31
0.687500000000237
  0
LINE
  8
MY3DLAYER
10
0.620740728286155
20
-9.76996261670138e-015
30
0.717647619362386
11
0.620740728286155
21
-0.12500000000001
31
0.717647619362422
  0
LINE
  8
MY3DLAYER
10
0.625000000000021
20
-8.88178419700125e-016
30
0.750000000000201
11
0.625000000000021
21
-0.125000000000001
31
0.750000000000237
  0
LINE
  8
MY3DLAYER
10
0.391746824526966
20
-1.86517468137026e-014
30
0.687500000000201
11
0.391746824526966
21
-0.125000000000019
31
0.687500000000236
  0
LINE
  8
MY3DLAYER
10
0.411611652351703
20
-2.57571741713036e-014
30
0.661611652351883
11
0.411611652351703
21
-0.125000000000026
31
0.661611652351918
  0
LINE
  8
MY3DLAYER
10
0.379259271713888
20
7.99360577730113e-015
30
0.782352380638016
11
0.379259271713888
21
-0.124999999999992
31
0.782352380638052
  0
LINE
  8
MY3DLAYER
10
0.375000000000021
20
-8.88178419700125e-016
30
0.750000000000201
11
0.375000000000021
21
-0.125000000000001
31
0.750000000000237
  0
LINE
  8
MY3DLAYER
10
0.391746824526966
20
1.68753899743024e-014
30
0.812500000000201
11
0.391746824526966
21
-0.124999999999983
31
0.812500000000237
  0
LINE
  8
MY3DLAYER
10
0.411611652351703
20
2.39808173319034e-014
30
0.838388347648519
11
0.411611652351703
21
-0.124999999999976
31
0.838388347648555
  0
LINE
  8
MY3DLAYER
10
0.532352380637836
20
3.28626015289046e-014
30
0.870740728286335
11
0.532352380637836
21
-0.124999999999967
31
0.87074072828637
  0
LINE
  8
MY3DLAYER
10
0.195873412263516
20
3.85859344476103e-010
30
0.468749999999978
11
0.195873412263529
21
-0.124999999614141
31
0.468750000000006
  0
LINE
  8
MY3DLAYER
10
0.187500000000043
20
3.85865561725041e-010
30
0.499999999999978
11
0.187500000000057
21
-0.124999999614134
31
0.500000000000006
  0
LINE
  8
MY3DLAYER
10
0.189629635856976
20
3.85862897189782e-010
30
0.483823809681071
11
0.18962963585699
21
-0.124999999614137
31
0.483823809681099
  0
LINE
  8
MY3DLAYER
10
0.189629635856976
20
3.85869114438719e-010
30
0.516176190318885
11
0.18962963585699
21
-0.124999999614131
31
0.516176190318913
  0
LINE
  8
MY3DLAYER
10
0.195873412263516
20
3.85873555330818e-010
30
0.531249999999978
11
0.195873412263529
21
-0.124999999614126
31
0.531250000000006
  0
LINE
  8
MY3DLAYER
10
0.205805826175884
20
3.85857568119263e-010
30
0.455805826175818
11
0.205805826175897
21
-0.124999999614142
31
0.455805826175847
  0
LINE
  8
MY3DLAYER
10
0.312500000000043
20
3.85877996222916e-010
30
0.499999999999978
11
0.312500000000057
21
-0.124999999614122
31
0.500000000000006
  0
LINE
  8
MY3DLAYER
10
0.31037036414311
20
3.85880660758176e-010
30
0.516176190318885
11
0.310370364143124
21
-0.124999999614119
31
0.516176190318913
  0
LINE
  8
MY3DLAYER
10
0.31037036414311
20
3.85874443509238e-010
30
0.483823809681071
11
0.310370364143124
21
-0.124999999614126
31
0.483823809681099
  0
LINE
  8
MY3DLAYER
10
0.266176190318951
20
3.85861120832942e-010
30
0.439629635856911
11
0.266176190318964
21
-0.124999999614139
31
0.43962963585694
  0
LINE
  8
MY3DLAYER
10
0.281250000000043
20
3.85862897189782e-010
30
0.44587341226345
11
0.281250000000057
21
-0.124999999614137
31
0.445873412263478
  0
LINE
  8
MY3DLAYER
10
0.233823809681136
20
3.85882437115015e-010
30
0.560370364143044
11
0.233823809681149
21
-0.124999999614118
31
0.560370364143073
  0
LINE
  8
MY3DLAYER
10
0.218750000000043
20
3.85880660758176e-010
30
0.554126587736506
11
0.218750000000057
21
-0.124999999614119
31
0.554126587736534
  0
LINE
  8
MY3DLAYER
10
0.266176190318951
20
3.85885989828694e-010
30
0.560370364143044
11
0.266176190318964
21
-0.124999999614114
31
0.560370364143073
  0
LINE
  8
MY3DLAYER
10
0.250000000000043
20
3.85885101650274e-010
30
0.562499999999978
11
0.250000000000057
21
-0.124999999614115
31
0.562500000000006
  0
LINE
  8
MY3DLAYER
10
0.281250000000043
20
3.85885989828694e-010
30
0.554126587736506
11
0.281250000000057
21
-0.124999999614114
31
0.554126587736534
  0
LINE
  8
MY3DLAYER
10
0.233823809681136
20
3.85857568119263e-010
30
0.439629635856911
11
0.233823809681149
21
-0.124999999614142
31
0.43962963585694
  0
LINE
  8
MY3DLAYER
10
0.250000000000043
20
3.85858456297683e-010
30
0.437499999999978
11
0.250000000000057
21
-0.124999999614142
31
0.437500000000006
  0
LINE
  8
MY3DLAYER
10
0.304126587736571
20
3.85884213471854e-010
30
0.531249999999978
11
0.304126587736584
21
-0.124999999614116
31
0.531250000000006
  0
LINE
  8
MY3DLAYER
10
0.195873412263516
20
3.85859344476103e-010
30
0.968749999999978
11
0.195873412263529
21
-0.124999999614141
31
0.968750000000006
  0
LINE
  8
MY3DLAYER
10
0.233823809681136
20
3.85857568119263e-010
30
0.939629635856911
11
0.233823809681149
21
-0.124999999614142
31
0.93962963585694
  0
LINE
  8
MY3DLAYER
10
0.250000000000043
20
3.85858456297683e-010
30
0.937499999999978
11
0.250000000000057
21
-0.124999999614142
31
0.937500000000006
  0
LINE
  8
MY3DLAYER
10
0.189629635856976
20
3.85869114438719e-010
30
1.01617619031888
11
0.18962963585699
21
-0.124999999614131
31
1.01617619031891
  0
LINE
  8
MY3DLAYER
10
0.312500000000043
20
3.85877996222916e-010
30
0.999999999999978
11
0.312500000000057
21
-0.124999999614122
31
1.00000000000001
  0
LINE
  8
MY3DLAYER
10
0.266176190318951
20
3.85861120832942e-010
30
0.939629635856911
11
0.266176190318964
21
-0.124999999614139
31
0.93962963585694
  0
LINE
  8
MY3DLAYER
10
0.304126587736571
20
3.85884213471854e-010
30
1.03124999999998
11
0.304126587736584
21
-0.124999999614116
31
1.03125000000001
  0
LINE
  8
MY3DLAYER
10
0.294194173824203
20
3.85885989828694e-010
30
1.04419417382414
11
0.294194173824216
21
-0.124999999614114
31
1.04419417382417
  0
LINE
  8
MY3DLAYER
10
0.281250000000043
20
3.85885989828694e-010
30
1.05412658773651
11
0.281250000000057
21
-0.124999999614114
31
1.05412658773653
  0
LINE
  8
MY3DLAYER
10
0.31037036414311
20
3.85874443509238e-010
30
0.983823809681071
11
0.310370364143124
21
-0.124999999614126
31
0.983823809681099
  0
LINE
  8
MY3DLAYER
10
0.189629635856976
20
3.85862897189782e-010
30
0.983823809681071
11
0.18962963585699
21
-0.124999999614137
31
0.983823809681099
  0
LINE
  8
MY3DLAYER
10
0.266176190318951
20
3.85885989828694e-010
30
1.06037036414304
11
0.266176190318964
21
-0.124999999614114
31
1.06037036414307
  0
LINE
  8
MY3DLAYER
10
0.31037036414311
20
3.85880660758176e-010
30
1.01617619031888
11
0.310370364143124
21
-0.124999999614119
31
1.01617619031891
  0
LINE
  8
MY3DLAYER
10
0.205805826175884
20
3.85857568119263e-010
30
0.955805826175818
11
0.205805826175897
21
-0.124999999614142
31
0.955805826175847
  0
LINE
  8
MY3DLAYER
10
0.218750000000043
20
3.85857568119263e-010
30
0.44587341226345
11
0.218750000000057
21
-0.124999999614142
31
0.445873412263478
  0
LINE
  8
MY3DLAYER
10
0.304126587736571
20
3.85870002617139e-010
30
0.968749999999978
11
0.304126587736584
21
-0.12499999961413
31
0.968750000000006
  0
LINE
  8
MY3DLAYER
10
0.294194173824203
20
3.8586644990346e-010
30
0.955805826175818
11
0.294194173824216
21
-0.124999999614134
31
0.955805826175847
  0
LINE
  8
MY3DLAYER
10
0.218750000000043
20
3.85857568119263e-010
30
0.94587341226345
11
0.218750000000057
21
-0.124999999614142
31
0.945873412263478
  0
LINE
  8
MY3DLAYER
10
0.187500000000043
20
3.85865561725041e-010
30
0.999999999999978
11
0.187500000000057
21
-0.124999999614134
31
1.00000000000001
  0
LINE
  8
MY3DLAYER
10
0.250000000000043
20
3.85885101650274e-010
30
1.06249999999998
11
0.250000000000057
21
-0.124999999614115
31
1.06250000000001
  0
LINE
  8
MY3DLAYER
10
0.218750000000043
20
3.85880660758176e-010
30
1.05412658773651
11
0.218750000000057
21
-0.124999999614119
31
1.05412658773653
  0
LINE
  8
MY3DLAYER
10
0.205805826175884
20
3.85877108044497e-010
30
1.04419417382414
11
0.205805826175897
21
-0.124999999614123
31
1.04419417382417
  0
LINE
  8
MY3DLAYER
10
0.281250000000043
20
3.85862897189782e-010
30
0.94587341226345
11
0.281250000000057
21
-0.124999999614137
31
0.945873412263478
  0
LINE
  8
MY3DLAYER
10
0.294194173824163
20
-1.04419417382399
30
0.125000000000293
11
0.294194173824159
21
-1.04419417382403
31
2.93376434257111e-013
  0
LINE
  8
MY3DLAYER
10
0.281250000000004
20
-1.05412658773636
30
0.125000000000297
11
0.28125
21
-1.0541265877364
31
2.96596081028524e-013
  0
LINE
  8
MY3DLAYER
10
0.304126587736531
20
-1.03124999999983
30
0.125000000000289
11
0.304126587736527
21
-1.03124999999987
31
2.89435142519692e-013
  0
LINE
  8
MY3DLAYER
10
0.31037036414307
20
-1.01617619031874
30
0.125000000000285
11
0.310370364143066
21
-1.01617619031878
31
2.8493873926996e-013
  0
LINE
  8
MY3DLAYER
10
0.312500000000004
20
-0.999999999999834
30
0.12500000000028
11
0.3125
21
-0.999999999999869
31
2.80275802566535e-013
  0
LINE
  8
MY3DLAYER
10
0.31037036414307
20
-0.983823809680926
30
0.125000000000276
11
0.310370364143066
21
-0.983823809680962
31
2.75723888165571e-013
  0
LINE
  8
MY3DLAYER
10
0.195873412263516
20
3.85873555330818e-010
30
1.03124999999998
11
0.195873412263529
21
-0.124999999614126
31
1.03125000000001
  0
LINE
  8
MY3DLAYER
10
0.233823809681136
20
3.85882437115015e-010
30
1.06037036414304
11
0.233823809681149
21
-0.124999999614118
31
1.06037036414307
  0
LINE
  8
MY3DLAYER
10
0.195873412263476
20
-0.968749999999834
30
0.125000000000275
11
0.195873412263473
21
-0.968749999999869
31
2.7478019859464e-013
  0
LINE
  8
MY3DLAYER
10
0.205805826175844
20
-0.955805826175674
30
0.125000000000271
11
0.205805826175841
21
-0.95580582617571
31
2.70838906857221e-013
  0
LINE
  8
MY3DLAYER
10
0.189629635856937
20
-0.983823809680926
30
0.125000000000279
11
0.189629635856933
21
-0.983823809680962
31
2.79276601844372e-013
  0
LINE
  8
MY3DLAYER
10
0.187500000000004
20
-0.999999999999834
30
0.125000000000284
11
0.1875
21
-0.999999999999869
31
2.83939538547798e-013
  0
LINE
  8
MY3DLAYER
10
0.266176190318928
20
-1.50000000000002
30
0.747870364143291
11
0.28125000000002
21
-1.50000000000002
31
0.741626587736752
  0
LINE
  8
MY3DLAYER
10
0.28125000000002
20
-1.50000000000002
30
0.741626587736752
11
0.294194173824179
21
-1.50000000000001
31
0.731694173824383
  0
LINE
  8
MY3DLAYER
10
0.294194173824179
20
-1.50000000000001
30
0.731694173824383
11
0.304126587736548
21
-1.50000000000001
31
0.718750000000224
  0
LINE
  8
MY3DLAYER
10
0.304126587736548
20
-1.50000000000001
30
0.718750000000224
11
0.310370364143087
21
-1.50000000000001
31
0.703676190319132
  0
LINE
  8
MY3DLAYER
10
0.205805826175861
20
-1.50000000000001
30
0.643305826176065
11
0.195873412263493
21
-1.50000000000001
31
0.656250000000224
  0
LINE
  8
MY3DLAYER
10
0.310370364143087
20
-1.50000000000001
30
0.703676190319132
11
0.31250000000002
21
-1.50000000000001
31
0.687500000000224
  0
LINE
  8
MY3DLAYER
10
0.31250000000002
20
-1.50000000000001
30
0.687500000000224
11
0.310370364143087
21
-1.50000000000001
31
0.671323809681317
  0
LINE
  8
MY3DLAYER
10
0.310370364143087
20
-1.50000000000001
30
0.671323809681317
11
0.304126587736548
21
-1.50000000000001
31
0.656250000000224
  0
LINE
  8
MY3DLAYER
10
0.233823809681113
20
-1.50000000000001
30
0.627129635857157
11
0.21875000000002
21
-1.50000000000001
31
0.633373412263697
  0
LINE
  8
MY3DLAYER
10
0.195873412263493
20
-1.50000000000001
30
0.656250000000224
11
0.189629635856953
21
-1.50000000000001
31
0.671323809681316
  0
LINE
  8
MY3DLAYER
10
0.189629635856953
20
-1.50000000000001
30
0.671323809681316
11
0.18750000000002
21
-1.50000000000001
31
0.687500000000224
  0
LINE
  8
MY3DLAYER
10
0.304126587736531
20
-0.968749999999834
30
0.125000000000272
11
0.304126587736527
21
-0.968749999999869
31
2.7167157412569e-013
  0
LINE
  8
MY3DLAYER
10
0.266176190318911
20
-0.939629635856766
30
0.125000000000264
11
0.266176190318907
21
-0.939629635856802
31
2.64510635616857e-013
  0
LINE
  8
MY3DLAYER
10
0.281250000000004
20
-0.945873412263306
30
0.125000000000266
11
0.28125
21
-0.945873412263341
31
2.65842903246408e-013
  0
LINE
  8
MY3DLAYER
10
0.250000000000004
20
-0.937499999999834
30
0.125000000000264
11
0.25
21
-0.937499999999869
31
2.64344102163164e-013
  0
LINE
  8
MY3DLAYER
10
0.233823809681096
20
-0.939629635856766
30
0.125000000000265
11
0.233823809681093
21
-0.939629635856802
31
2.65398814036557e-013
  0
LINE
  8
MY3DLAYER
10
0.294194173824203
20
3.85885989828694e-010
30
0.544194173824137
11
0.294194173824216
21
-0.124999999614114
31
0.544194173824166
  0
LINE
  8
MY3DLAYER
10
0.281250000000018
20
-1.37500000000001
30
0.633373412263704
11
0.28125000000002
21
-1.50000000000001
31
0.633373412263697
  0
LINE
  8
MY3DLAYER
10
0.294194173824179
20
-1.50000000000001
30
0.643305826176065
11
0.28125000000002
21
-1.50000000000001
31
0.633373412263697
  0
LINE
  8
MY3DLAYER
10
0.294194173824177
20
-1.37500000000001
30
0.643305826176072
11
0.294194173824179
21
-1.50000000000001
31
0.643305826176065
  0
LINE
  8
MY3DLAYER
10
0.266176190318926
20
-1.37500000000001
30
0.627129635857165
11
0.266176190318928
21
-1.50000000000001
31
0.627129635857157
  0
LINE
  8
MY3DLAYER
10
0.28125000000002
20
-1.50000000000001
30
0.633373412263697
11
0.266176190318928
21
-1.50000000000001
31
0.627129635857157
  0
LINE
  8
MY3DLAYER
10
0.218750000000004
20
-0.945873412263306
30
0.125000000000268
11
0.21875
21
-0.945873412263341
31
2.67619260085808e-013
  0
LINE
  8
MY3DLAYER
10
0.18750000000002
20
-1.50000000000001
30
0.687500000000224
11
0.189629635856953
21
-1.50000000000001
31
0.703676190319132
  0
LINE
  8
MY3DLAYER
10
0.304126587736545
20
-1.37500000000001
30
0.718750000000232
11
0.304126587736548
21
-1.50000000000001
31
0.718750000000224
  0
LINE
  8
MY3DLAYER
10
0.294194173824177
20
-1.37500000000001
30
0.731694173824391
11
0.294194173824179
21
-1.50000000000001
31
0.731694173824383
  0
LINE
  8
MY3DLAYER
10
0.310370364143085
20
-1.37500000000001
30
0.703676190319139
11
0.310370364143087
21
-1.50000000000001
31
0.703676190319132
  0
LINE
  8
MY3DLAYER
10
0.195873412263491
20
-1.37500000000001
30
0.656250000000232
11
0.195873412263493
21
-1.50000000000001
31
0.656250000000224
  0
LINE
  8
MY3DLAYER
10
0.187500000000018
20
-1.37500000000001
30
0.687500000000232
11
0.18750000000002
21
-1.50000000000001
31
0.687500000000224
  0
LINE
  8
MY3DLAYER
10
0.189629635856951
20
-1.37500000000001
30
0.671323809681324
11
0.189629635856953
21
-1.50000000000001
31
0.671323809681316
  0
LINE
  8
MY3DLAYER
10
0.189629635856951
20
-1.37500000000001
30
0.703676190319139
11
0.189629635856953
21
-1.50000000000001
31
0.703676190319132
  0
LINE
  8
MY3DLAYER
10
0.195873412263491
20
-1.37500000000002
30
0.718750000000232
11
0.195873412263493
21
-1.50000000000002
31
0.718750000000224
  0
LINE
  8
MY3DLAYER
10
0.205805826175859
20
-1.37500000000002
30
0.731694173824391
11
0.205805826175861
21
-1.50000000000002
31
0.731694173824383
  0
LINE
  8
MY3DLAYER
10
0.218750000000018
20
-1.37500000000002
30
0.741626587736759
11
0.21875000000002
21
-1.50000000000002
31
0.741626587736751
  0
LINE
  8
MY3DLAYER
10
0.310370364143085
20
-1.37500000000001
30
0.671323809681324
11
0.310370364143087
21
-1.50000000000001
31
0.671323809681317
  0
LINE
  8
MY3DLAYER
10
0.312500000000018
20
-1.37500000000001
30
0.687500000000232
11
0.31250000000002
21
-1.50000000000001
31
0.687500000000224
  0
LINE
  8
MY3DLAYER
10
0.304126587736545
20
-1.37500000000001
30
0.656250000000232
11
0.304126587736548
21
-1.50000000000001
31
0.656250000000224
  0
LINE
  8
MY3DLAYER
10
0.205805826175884
20
3.85877108044497e-010
30
0.544194173824137
11
0.205805826175897
21
-0.124999999614123
31
0.544194173824166
  0
LINE
  8
MY3DLAYER
10
0.250000000000018
20
-1.37500000000001
30
0.625000000000232
11
0.25000000000002
21
-1.50000000000001
31
0.625000000000224
  0
LINE
  8
MY3DLAYER
10
0.266176190318928
20
-1.50000000000001
30
0.627129635857157
11
0.25000000000002
21
-1.50000000000001
31
0.625000000000224
  0
LINE
  8
MY3DLAYER
10
0.23382380968111
20
-1.37500000000002
30
0.747870364143298
11
0.233823809681113
21
-1.50000000000002
31
0.747870364143291
  0
LINE
  8
MY3DLAYER
10
0.249999999991921
20
-0.749999999999516
30
1.49999999999997
11
0.266176190310828
21
-0.747870364142583
31
1.49999999999998
  0
LINE
  8
MY3DLAYER
10
0.218749999991921
20
-0.741626587736043
30
1.49999999999998
11
0.233823809673013
21
-0.747870364142583
31
1.49999999999998
  0
LINE
  8
MY3DLAYER
10
0.205805826167762
20
-0.731694173823676
30
1.49999999999998
11
0.218749999991921
21
-0.741626587736043
31
1.49999999999998
  0
LINE
  8
MY3DLAYER
10
0.195873412255394
20
-0.718749999999516
30
1.49999999999998
11
0.205805826167762
21
-0.731694173823676
31
1.49999999999998
  0
LINE
  8
MY3DLAYER
10
0.189629635848854
20
-0.703676190318423
30
1.49999999999998
11
0.195873412255394
21
-0.718749999999516
31
1.49999999999998
  0
LINE
  8
MY3DLAYER
10
0.187499999991921
20
-0.687499999999516
30
1.49999999999997
11
0.189629635848854
21
-0.703676190318423
31
1.49999999999998
  0
LINE
  8
MY3DLAYER
10
0.23382380968111
20
-1.37500000000001
30
0.627129635857165
11
0.233823809681113
21
-1.50000000000001
31
0.627129635857157
  0
LINE
  8
MY3DLAYER
10
0.25000000000002
20
-1.50000000000001
30
0.625000000000224
11
0.233823809681113
21
-1.50000000000001
31
0.627129635857157
  0
LINE
  8
MY3DLAYER
10
0.218750000000018
20
-1.37500000000001
30
0.633373412263704
11
0.21875000000002
21
-1.50000000000001
31
0.633373412263697
  0
LINE
  8
MY3DLAYER
10
0.304126587736571
20
3.85870002617139e-010
30
0.468749999999978
11
0.304126587736584
21
-0.12499999961413
31
0.468750000000006
  0
LINE
  8
MY3DLAYER
10
0.218749999991921
20
-0.633373412262989
30
1.49999999999996
11
0.205805826167762
21
-0.643305826175356
31
1.49999999999996
  0
LINE
  8
MY3DLAYER
10
0.233823809673013
20
-0.627129635856449
30
1.49999999999996
11
0.218749999991921
21
-0.633373412262989
31
1.49999999999996
  0
LINE
  8
MY3DLAYER
10
0.249999999991921
20
-0.624999999999516
30
1.49999999999995
11
0.233823809673013
21
-0.627129635856449
31
1.49999999999996
  0
LINE
  8
MY3DLAYER
10
0.29419417381608
20
-0.643305826175356
30
1.49999999999996
11
0.281249999991921
21
-0.633373412262989
31
1.49999999999996
  0
LINE
  8
MY3DLAYER
10
0.304126587728448
20
-0.656249999999516
30
1.49999999999996
11
0.29419417381608
21
-0.643305826175356
31
1.49999999999996
  0
LINE
  8
MY3DLAYER
10
0.310370364134988
20
-0.671323809680609
30
1.49999999999996
11
0.304126587728448
21
-0.656249999999516
31
1.49999999999996
  0
LINE
  8
MY3DLAYER
10
0.312499999991921
20
-0.687499999999516
30
1.49999999999997
11
0.310370364134988
21
-0.671323809680609
31
1.49999999999996
  0
LINE
  8
MY3DLAYER
10
0.310370364134988
20
-0.703676190318424
30
1.49999999999997
11
0.312499999991921
21
-0.687499999999516
31
1.49999999999997
  0
LINE
  8
MY3DLAYER
10
0.304126587728448
20
-0.718749999999516
30
1.49999999999997
11
0.310370364134988
21
-0.703676190318424
31
1.49999999999997
  0
LINE
  8
MY3DLAYER
10
0.29419417381608
20
-0.731694173823676
30
1.49999999999998
11
0.304126587728448
21
-0.718749999999516
31
1.49999999999997
  0
LINE
  8
MY3DLAYER
10
0.281249999991921
20
-0.741626587736043
30
1.49999999999998
11
0.29419417381608
21
-0.731694173823676
31
1.49999999999998
  0
LINE
  8
MY3DLAYER
10
0.266176190310828
20
-0.747870364142583
30
1.49999999999998
11
0.281249999991921
21
-0.741626587736043
31
1.49999999999998
  0
LINE
  8
MY3DLAYER
10
0.249999999991917
20
-0.749999999999546
30
1.37499999999997
11
0.249999999991921
21
-0.749999999999516
31
1.49999999999997
  0
LINE
  8
MY3DLAYER
10
0.266176190310824
20
-0.747870364142613
30
1.37499999999998
11
0.266176190310828
21
-0.747870364142583
31
1.49999999999998
  0
LINE
  8
MY3DLAYER
10
0.195873412255389
20
-0.718749999999545
30
1.37499999999998
11
0.195873412255394
21
-0.718749999999516
31
1.49999999999998
  0
LINE
  8
MY3DLAYER
10
0.205805826167757
20
-0.731694173823705
30
1.37499999999998
11
0.205805826167762
21
-0.731694173823676
31
1.49999999999998
  0
LINE
  8
MY3DLAYER
10
0.18962963584885
20
-0.703676190318453
30
1.37499999999998
11
0.189629635848854
21
-0.703676190318423
31
1.49999999999998
  0
LINE
  8
MY3DLAYER
10
0.294194173824203
20
3.8586644990346e-010
30
0.455805826175818
11
0.294194173824216
21
-0.124999999614134
31
0.455805826175847
  0
LINE
  8
MY3DLAYER
10
0.195873412255389
20
-0.656249999999546
30
1.37499999999996
11
0.195873412255394
21
-0.656249999999516
31
1.49999999999996
  0
LINE
  8
MY3DLAYER
10
0.195873412255394
20
-0.656249999999516
30
1.49999999999996
11
0.189629635848854
21
-0.671323809680609
31
1.49999999999997
  0
LINE
  8
MY3DLAYER
10
0.18962963584885
20
-0.671323809680638
30
1.37499999999997
11
0.189629635848854
21
-0.671323809680609
31
1.49999999999997
  0
LINE
  8
MY3DLAYER
10
0.205805826167757
20
-0.643305826175387
30
1.37499999999996
11
0.205805826167762
21
-0.643305826175356
31
1.49999999999996
  0
LINE
  8
MY3DLAYER
10
0.205805826167762
20
-0.643305826175356
30
1.49999999999996
11
0.195873412255394
21
-0.656249999999516
31
1.49999999999996
  0
LINE
  8
MY3DLAYER
10
0.218749999991917
20
-0.633373412263018
30
1.37499999999996
11
0.218749999991921
21
-0.633373412262989
31
1.49999999999996
  0
LINE
  8
MY3DLAYER
10
0.233823809673009
20
-0.627129635856479
30
1.37499999999996
11
0.233823809673013
21
-0.627129635856449
31
1.49999999999996
  0
LINE
  8
MY3DLAYER
10
0.249999999991917
20
-0.624999999999546
30
1.37499999999995
11
0.249999999991921
21
-0.624999999999516
31
1.49999999999995
  0
LINE
  8
MY3DLAYER
10
0.189629635848854
20
-0.671323809680609
30
1.49999999999997
11
0.187499999991921
21
-0.687499999999516
31
1.49999999999997
  0
LINE
  8
MY3DLAYER
10
0.266176190310828
20
-0.627129635856449
30
1.49999999999995
11
0.249999999991921
21
-0.624999999999516
31
1.49999999999995
  0
LINE
  8
MY3DLAYER
10
0.281249999991921
20
-0.633373412262989
30
1.49999999999996
11
0.266176190310828
21
-0.627129635856449
31
1.49999999999995
  0
LINE
  8
MY3DLAYER
10
0.187499999991917
20
-0.687499999999546
30
1.37499999999997
11
0.187499999991921
21
-0.687499999999516
31
1.49999999999997
  0
LINE
  8
MY3DLAYER
10
0.310370364134983
20
-0.671323809680638
30
1.37499999999996
11
0.310370364134988
21
-0.671323809680609
31
1.49999999999996
  0
LINE
  8
MY3DLAYER
10
0.304126587728444
20
-0.656249999999546
30
1.37499999999996
11
0.304126587728448
21
-0.656249999999516
31
1.49999999999996
  0
LINE
  8
MY3DLAYER
10
0.266176190318911
20
-1.0603703641429
30
0.125000000000299
11
0.266176190318907
21
-1.06037036414294
31
2.98816527077775e-013
  0
LINE
  8
MY3DLAYER
10
0.250000000000004
20
-1.06249999999983
30
0.1250000000003
11
0.25
21
-1.06249999999987
31
2.99871238951169e-013
  0
LINE
  8
MY3DLAYER
10
0.189629635856937
20
-1.01617619031874
30
0.125000000000288
11
0.189629635856933
21
-1.01617619031878
31
2.88491452948761e-013
  0
LINE
  8
MY3DLAYER
10
0.294194173824163
20
-0.955805826175674
30
0.125000000000268
11
0.294194173824159
21
-0.95580582617571
31
2.68285393900583e-013
  0
LINE
  8
MY3DLAYER
10
0.266176190310824
20
-0.627129635856479
30
1.37499999999995
11
0.266176190310828
21
-0.627129635856449
31
1.49999999999995
  0
LINE
  8
MY3DLAYER
10
0.281249999991917
20
-0.633373412263018
30
1.37499999999996
11
0.281249999991921
21
-0.633373412262989
31
1.49999999999996
  0
LINE
  8
MY3DLAYER
10
0.218750000000004
20
-1.05412658773636
30
0.125000000000298
11
0.21875
21
-1.0541265877364
31
2.98372437867925e-013
  0
LINE
  8
MY3DLAYER
10
0.205805826175844
20
-1.04419417382399
30
0.125000000000296
11
0.205805826175841
21
-1.04419417382403
31
2.95929947213749e-013
  0
LINE
  8
MY3DLAYER
10
0.233823809681096
20
-1.0603703641429
30
0.1250000000003
11
0.233823809681093
21
-1.06037036414294
31
2.99704705497475e-013
  0
LINE
  8
MY3DLAYER
10
0.304126587736548
20
-1.50000000000001
30
0.656250000000224
11
0.294194173824179
21
-1.50000000000001
31
0.643305826176065
  0
LINE
  8
MY3DLAYER
10
0.21875000000002
20
-1.50000000000001
30
0.633373412263697
11
0.205805826175861
21
-1.50000000000001
31
0.643305826176065
  0
LINE
  8
MY3DLAYER
10
0.281250000000018
20
-1.37500000000002
30
0.741626587736759
11
0.28125000000002
21
-1.50000000000002
31
0.741626587736752
  0
LINE
  8
MY3DLAYER
10
0.294194173816076
20
-0.643305826175387
30
1.37499999999996
11
0.29419417381608
21
-0.643305826175356
31
1.49999999999996
  0
LINE
  8
MY3DLAYER
10
0.205805826175859
20
-1.37500000000001
30
0.643305826176072
11
0.205805826175861
21
-1.50000000000001
31
0.643305826176065
  0
LINE
  8
MY3DLAYER
10
0.233823809673009
20
-0.747870364142613
30
1.37499999999998
11
0.233823809673013
21
-0.747870364142583
31
1.49999999999998
  0
LINE
  8
MY3DLAYER
10
0.218749999991917
20
-0.741626587736073
30
1.37499999999998
11
0.218749999991921
21
-0.741626587736043
31
1.49999999999998
  0
LINE
  8
MY3DLAYER
10
0.312499999991917
20
-0.687499999999546
30
1.37499999999997
11
0.312499999991921
21
-0.687499999999516
31
1.49999999999997
  0
LINE
  8
MY3DLAYER
10
0.310370364134983
20
-0.703676190318453
30
1.37499999999997
11
0.310370364134988
21
-0.703676190318424
31
1.49999999999997
  0
LINE
  8
MY3DLAYER
10
0.195873412263476
20
-1.03124999999983
30
0.125000000000293
11
0.195873412263473
21
-1.03124999999987
31
2.92543766988643e-013
  0
LINE
  8
MY3DLAYER
10
0.467647619362206
20
-0.629259271713654
30
-4.55270884572041e-014
11
0.46764761936221
21
-0.629259271713618
31
0.124999999999954
  0
LINE
  8
MY3DLAYER
10
0.437500000000021
20
-0.641746824526733
30
-4.11060210690072e-014
11
0.437500000000025
21
-0.641746824526697
31
0.124999999999959
  0
LINE
  8
MY3DLAYER
10
0.500000000000021
20
-0.624999999999788
30
-4.76678881552942e-014
11
0.500000000000025
21
-0.624999999999752
31
0.124999999999952
  0
LINE
  8
MY3DLAYER
10
0.532352380637836
20
-0.629259271713654
30
-4.73825282016914e-014
11
0.53235238063784
21
-0.629259271713618
31
0.124999999999953
  0
LINE
  8
MY3DLAYER
10
0.562500000000021
20
-0.641746824526733
30
-4.46904554056541e-014
11
0.562500000000025
21
-0.641746824526697
31
0.124999999999955
  0
LINE
  8
MY3DLAYER
10
0.304126587728444
20
-0.718749999999546
30
1.37499999999997
11
0.304126587728448
21
-0.718749999999516
31
1.49999999999997
  0
LINE
  8
MY3DLAYER
10
0.294194173816076
20
-0.731694173823705
30
1.37499999999998
11
0.29419417381608
21
-0.731694173823676
31
1.49999999999998
  0
LINE
  8
MY3DLAYER
10
0.281249999991917
20
-0.741626587736073
30
1.37499999999998
11
0.281249999991921
21
-0.741626587736043
31
1.49999999999998
  0
LINE
  8
MY3DLAYER
10
0.620740728286155
20
-0.717647619361972
30
-2.47432902736224e-014
11
0.620740728286158
21
-0.717647619361936
31
0.124999999999975
  0
LINE
  8
MY3DLAYER
10
0.58838834764834
20
-0.838388347648105
30
1.05725014290881e-014
11
0.588388347648343
21
-0.83838834764807
31
0.125000000000011
  0
LINE
  8
MY3DLAYER
10
0.608253175473076
20
-0.812499999999788
30
2.62962813544241e-015
11
0.60825317547308
21
-0.812499999999752
31
0.125000000000003
  0
LINE
  8
MY3DLAYER
10
0.500000000000021
20
-0.874999999999788
30
2.35344151573325e-014
11
0.500000000000025
21
-0.874999999999752
31
0.125000000000024
  0
LINE
  8
MY3DLAYER
10
0.532352380637836
20
-0.870740728285921
30
2.13936154592424e-014
11
0.53235238063784
21
-0.870740728285885
31
0.125000000000021
  0
LINE
  8
MY3DLAYER
10
0.391746824526966
20
-0.812499999999788
30
8.83805052290928e-015
11
0.39174682452697
21
-0.812499999999752
31
0.125000000000009
  0
LINE
  8
MY3DLAYER
10
0.411611652351703
20
-0.838388347648105
30
1.564165708141e-014
11
0.411611652351706
21
-0.83838834764807
31
0.125000000000016
  0
LINE
  8
MY3DLAYER
10
0.379259271713888
20
-0.782352380637602
30
6.09817275660784e-016
11
0.379259271713891
21
-0.782352380637566
31
0.125000000000001
  0
LINE
  8
MY3DLAYER
10
0.375000000000021
20
-0.749999999999788
30
-8.48230216233396e-015
11
0.375000000000025
21
-0.749999999999752
31
0.124999999999991
  0
LINE
  8
MY3DLAYER
10
0.562500000000021
20
2.93098878501041e-014
30
0.858253175473256
11
0.562500000000021
21
-0.124999999999971
31
0.858253175473291
  0
LINE
  8
MY3DLAYER
10
0.58838834764834
20
2.39808173319034e-014
30
0.83838834764852
11
0.58838834764834
21
-0.124999999999976
31
0.838388347648555
  0
LINE
  8
MY3DLAYER
10
0.608253175473076
20
1.68753899743024e-014
30
0.812500000000201
11
0.608253175473076
21
-0.124999999999983
31
0.812500000000237
  0
LINE
  8
MY3DLAYER
10
0.620740728286155
20
7.99360577730113e-015
30
0.782352380638016
11
0.620740728286155
21
-0.124999999999992
31
0.782352380638052
  0
LINE
  8
MY3DLAYER
10
0.562500000000021
20
-3.10862446895044e-014
30
0.641746824527146
11
0.562500000000021
21
-0.125000000000031
31
0.641746824527182
  0
LINE
  8
MY3DLAYER
10
0.58838834764834
20
-2.57571741713036e-014
30
0.661611652351883
11
0.58838834764834
21
-0.125000000000026
31
0.661611652351918
  0
LINE
  8
MY3DLAYER
10
0.532352380637836
20
-3.46389583683049e-014
30
0.629259271714068
11
0.532352380637836
21
-0.125000000000035
31
0.629259271714103
  0
LINE
  8
MY3DLAYER
10
0.500000000000021
20
-3.64153152077051e-014
30
0.625000000000201
11
0.500000000000021
21
-0.125000000000036
31
0.625000000000237
  0
LINE
  8
MY3DLAYER
10
0.411611652351703
20
-0.661611652351469
30
-3.47059744270498e-014
11
0.411611652351706
21
-0.661611652351433
31
0.124999999999965
  0
LINE
  8
MY3DLAYER
10
0.467647619362206
20
-3.46389583683049e-014
30
0.629259271714067
11
0.467647619362206
21
-0.125000000000035
31
0.629259271714103
  0
LINE
  8
MY3DLAYER
10
0.437500000000021
20
-3.10862446895044e-014
30
0.641746824527146
11
0.437500000000021
21
-0.125000000000031
31
0.641746824527182
  0
LINE
  8
MY3DLAYER
10
0.379259271713888
20
-0.717647619361972
30
-1.78186948768133e-014
11
0.379259271713891
21
-0.717647619361936
31
0.124999999999982
  0
LINE
  8
MY3DLAYER
10
0.467647619362206
20
-0.870740728285921
30
2.32490552037297e-014
11
0.46764761936221
21
-0.870740728285885
31
0.125000000000023
  0
LINE
  8
MY3DLAYER
10
0.437500000000021
20
-0.858253175472842
30
2.05569824076924e-014
11
0.437500000000025
21
-0.858253175472806
31
0.125000000000021
  0
LINE
  8
MY3DLAYER
10
0.625000000000021
20
-0.749999999999788
30
-1.56511708356277e-014
11
0.625000000000025
21
-0.749999999999752
31
0.124999999999984
  0
LINE
  8
MY3DLAYER
10
0.620740728286155
20
-0.782352380637602
30
-6.31477812114834e-015
11
0.620740728286158
21
-0.782352380637566
31
0.124999999999994
  0
LINE
  8
MY3DLAYER
10
0.562500000000021
20
-0.858253175472842
30
1.69725480710455e-014
11
0.562500000000025
21
-0.858253175472806
31
0.125000000000017
  0
LINE
  8
MY3DLAYER
10
0.391746824526966
20
-0.687499999999788
30
-2.67631011334041e-014
11
0.39174682452697
21
-0.687499999999752
31
0.124999999999973
  0
LINE
  8
MY3DLAYER
10
0.379259271713888
20
-9.76996261670138e-015
30
0.717647619362386
11
0.379259271713888
21
-0.12500000000001
31
0.717647619362421
  0
LINE
  8
MY3DLAYER
10
0.249999999991917
20
-0.749999999999546
30
1.37499999999997
11
-8.06898992067318e-012
21
-0.749999999999545
31
1.37500000000012
  0
LINE
  8
MY3DLAYER
10
0.250000000000018
20
-1.37500000000001
30
0.750000000000232
11
3.24185123190546e-014
21
-1.37500000000017
31
0.750000000000232
  0
LINE
  8
MY3DLAYER
10
-8.09774469701097e-012
20
-0.124999999999707
30
0.749999999999834
11
-4.06141786868375e-012
21
-0.124999999999971
31
0.125000000000036
  0
LINE
  8
MY3DLAYER
10
0.499999999991902
20
-0.124999999999546
30
1.37499999999983
11
1.00000000000004
21
-0.124999999999609
31
1.37500000000001
  0
LINE
  8
MY3DLAYER
10
-8.06898992067318e-012
20
-0.749999999999545
30
1.37500000000012
11
-8.09774469701097e-012
21
-0.124999999999574
31
1.37499999999983
  0
LINE
  8
MY3DLAYER
10
0.499999999995939
20
-0.124999999999971
30
0.125000000000007
11
1
21
-0.124999999999965
31
0.125000000000006
  0
LINE
  8
MY3DLAYER
10
-4.06141786868375e-012
20
-0.749999999999971
30
0.125000000000163
11
3.66373598126302e-015
21
-1.37499999999983
31
0.12500000000026
  0
LINE
  8
MY3DLAYER
10
0.500000000000004
20
-1.37499999999983
30
0.125000000000232
11
1
21
-1.37499999999997
31
0.125000000000361
  0
LINE
  8
MY3DLAYER
10
3.24185123190546e-014
20
-1.37500000000017
30
0.750000000000232
11
3.96349619791181e-014
21
-1.37499999999961
31
1.37500000000039
  0
ENDSEC
  0
EOF
