 0
SECTION
 2
ENTITIES
  0
LINE
  8
MY3DLAYER
10
-0.87499999999807
20
-2.50000000000162
30
0.874999999997312
11
1.93001170600837e-012
21
-2.50000000000095
31
0.874999999997276
  0
LINE
  8
MY3DLAYER
10
1.93001170600837e-012
20
-2.50000000000095
30
0.874999999997276
11
1.88560278502337e-012
21
-2.5
31
-2.72670774847938e-012
  0
LINE
  8
MY3DLAYER
10
-0.874999999998066
20
-2.50000000000175
30
0.999999999997312
11
-0.874999999998519
21
-1.90625000000175
31
0.999999999997956
  0
LINE
  8
MY3DLAYER
10
0.125000000000039
20
-9.95259430425222e-013
30
0.999999999999996
11
0.125000000001928
21
-2.500000000001
31
0.999999999997267
  0
LINE
  8
MY3DLAYER
10
1.88560278502337e-012
20
-2.5
30
-2.72670774847938e-012
11
0.125000000001886
21
-2.49999999999991
31
-2.73203681899759e-012
  0
LINE
  8
MY3DLAYER
10
1.47759582347362e-012
20
-1.90625000000109
30
0.999999999997949
11
1.23900889548167e-012
21
-1.59375000000109
31
0.999999999998288
  0
LINE
  8
MY3DLAYER
10
4.04126165864938e-009
20
-0.188750000001062
30
0.726249999999179
11
4.04127109554508e-009
21
-0.201237552814177
31
0.75639761936135
  0
LINE
  8
MY3DLAYER
10
7.13540337926588e-013
20
-0.906250000000957
30
0.874999999999056
11
1.23900889548167e-012
21
-1.59375000000094
31
0.874999999998317
  0
LINE
  8
MY3DLAYER
10
7.13540337926588e-013
20
-0.906250000000957
30
0.874999999999056
11
7.13540337926588e-013
21
-0.906250000001104
31
0.999999999999056
  0
LINE
  8
MY3DLAYER
10
4.04144617771607e-009
20
-0.430231456573252
30
0.661545238723265
11
4.04143574161964e-009
21
-0.417743903760138
31
0.631397619361095
  0
LINE
  8
MY3DLAYER
10
4.04143574161964e-009
20
-0.417743903760138
30
0.631397619361095
11
4.04141886622966e-009
21
-0.397879075935372
31
0.6055092717128
  0
LINE
  8
MY3DLAYER
10
1.23900889548167e-012
20
-1.59375000000109
30
0.999999999998288
11
1.23900889548167e-012
21
-1.59375000000094
31
0.874999999998317
  0
LINE
  8
MY3DLAYER
10
7.13540337926588e-013
20
-0.906250000001104
30
0.999999999999056
11
4.74176253817404e-013
21
-0.593750000001104
31
0.999999999999389
  0
LINE
  8
MY3DLAYER
10
4.04138511544971e-009
20
-0.341843108925115
30
0.814638347647317
11
4.04140809706632e-009
21
-0.371990728287285
31
0.802150794834203
  0
LINE
  8
MY3DLAYER
10
1.47759582347362e-012
20
-1.90625000000109
30
0.999999999997949
11
1.47581946663422e-012
21
-1.90625000000094
31
0.87499999999795
  0
LINE
  8
MY3DLAYER
10
4.0413306034992e-009
20
-0.277138347649484
30
0.814638347647394
11
4.04136057952087e-009
21
-0.309490728287304
31
0.818897619361222
  0
LINE
  8
MY3DLAYER
10
-0.874999999998066
20
-2.50000000000175
30
0.999999999997312
11
-0.87499999999807
21
-2.50000000000162
31
0.874999999997312
  0
LINE
  8
MY3DLAYER
10
4.04124866903999e-009
20
-0.184490728287158
30
0.693897619361369
11
4.04126165864938e-009
21
-0.188750000001062
31
0.726249999999179
  0
LINE
  8
MY3DLAYER
10
4.04136057952087e-009
20
-0.309490728287304
30
0.818897619361222
11
4.04138511544971e-009
21
-0.341843108925115
31
0.814638347647317
  0
LINE
  8
MY3DLAYER
10
2.35367281220533e-014
20
-9.57456336436735e-013
30
0.874999999999986
11
4.74176253817404e-013
21
-0.593750000000957
31
0.874999999999389
  0
LINE
  8
MY3DLAYER
10
4.74176253817404e-013
20
-0.593750000000957
30
0.874999999999389
11
4.74176253817404e-013
21
-0.593750000001104
31
0.999999999999389
  0
LINE
  8
MY3DLAYER
10
4.04140809706632e-009
20
-0.371990728287285
30
0.802150794834203
11
4.04142597165702e-009
21
-0.397879075935579
31
0.782285967009436
  0
LINE
  8
MY3DLAYER
10
4.04142597165702e-009
20
-0.397879075935579
30
0.782285967009436
11
4.04144107069015e-009
21
-0.417743903760286
31
0.756397619361095
  0
LINE
  8
MY3DLAYER
10
4.04139921528213e-009
20
-0.37199072828703
30
0.585644443888094
11
4.04137623366552e-009
21
-0.341843108924831
31
0.573156891075051
  0
LINE
  8
MY3DLAYER
10
4.04141886622966e-009
20
-0.397879075935372
30
0.6055092717128
11
4.04139921528213e-009
21
-0.37199072828703
31
0.585644443888094
  0
LINE
  8
MY3DLAYER
10
1.88560278502337e-012
20
-2.5
30
-2.72670774847938e-012
11
4.44089209850063e-016
21
1.12410081243297e-015
31
1.4432899320127e-015
  0
LINE
  8
MY3DLAYER
10
4.04144795407291e-009
20
-0.430231456573329
30
0.726249999998895
11
4.04144673282758e-009
21
-0.434490728287158
31
0.693897619361075
  0
LINE
  8
MY3DLAYER
10
4.44089209850063e-016
20
1.12410081243297e-015
30
1.4432899320127e-015
11
2.35367281220533e-014
21
-9.57456336436735e-013
31
0.874999999999986
  0
LINE
  8
MY3DLAYER
10
4.0412853063998e-009
20
-0.221102380638943
30
0.782285967009644
11
4.0413077329049e-009
21
-0.246990728287285
31
0.80215079483435
  0
LINE
  8
MY3DLAYER
10
4.04127109554508e-009
20
-0.201237552814177
30
0.75639761936135
11
4.0412853063998e-009
21
-0.221102380638943
31
0.782285967009644
  0
LINE
  8
MY3DLAYER
10
4.04144107069015e-009
20
-0.417743903760286
30
0.756397619361095
11
4.04144795407291e-009
21
-0.430231456573329
31
0.726249999998895
  0
LINE
  8
MY3DLAYER
10
1.47581946663422e-012
20
-1.90625000000094
30
0.87499999999795
11
1.93001170600837e-012
21
-2.50000000000095
31
0.874999999997276
  0
LINE
  8
MY3DLAYER
10
4.0413077329049e-009
20
-0.246990728287285
30
0.80215079483435
11
4.0413306034992e-009
21
-0.277138347649484
31
0.814638347647394
  0
LINE
  8
MY3DLAYER
10
4.04144673282758e-009
20
-0.434490728287158
30
0.693897619361075
11
4.04144617771607e-009
21
-0.430231456573252
31
0.661545238723265
  0
LINE
  8
MY3DLAYER
10
4.04137623366552e-009
20
-0.341843108924831
30
0.573156891075051
11
4.04134992137983e-009
21
-0.309490728287011
31
0.568897619361223
  0
LINE
  8
MY3DLAYER
10
4.04134992137983e-009
20
-0.309490728287011
30
0.568897619361223
11
4.04132172171501e-009
21
-0.277138347649201
31
0.573156891075127
  0
LINE
  8
MY3DLAYER
10
4.04132172171501e-009
20
-0.277138347649201
30
0.573156891075127
11
4.0412988511207e-009
21
-0.246990728287031
31
0.585644443888241
  0
LINE
  8
MY3DLAYER
10
4.0412988511207e-009
20
-0.246990728287031
30
0.585644443888241
11
4.04127820097244e-009
21
-0.221102380638735
31
0.605509271713008
  0
LINE
  8
MY3DLAYER
10
4.04127820097244e-009
20
-0.221102380638735
30
0.605509271713008
11
4.04126576647457e-009
21
-0.201237552814028
31
0.631397619361349
  0
LINE
  8
MY3DLAYER
10
4.04126576647457e-009
20
-0.201237552814028
30
0.631397619361349
11
4.0412581059357e-009
21
-0.188750000000986
31
0.661545238723549
  0
LINE
  8
MY3DLAYER
10
4.0412581059357e-009
20
-0.188750000000986
30
0.661545238723549
11
4.04124866903999e-009
21
-0.184490728287158
31
0.693897619361369
  0
LINE
  8
MY3DLAYER
10
1.57174273596183e-012
20
-2.05949072828716
30
0.693897619359162
11
1.57607260575787e-012
21
-2.06375000000106
31
0.726249999996972
  0
LINE
  8
MY3DLAYER
10
1.57607260575787e-012
20
-2.06375000000106
30
0.726249999996972
11
1.59350310724449e-012
21
-2.07623755281417
31
0.756397619359143
  0
LINE
  8
MY3DLAYER
10
1.59350310724449e-012
20
-2.07623755281417
30
0.756397619359143
11
1.61037849721879e-012
21
-2.09610238063894
31
0.782285967007437
  0
LINE
  8
MY3DLAYER
10
1.61037849721879e-012
20
-2.09610238063894
30
0.782285967007437
11
1.63014046705712e-012
21
-2.12199072828728
31
0.802150794832143
  0
LINE
  8
MY3DLAYER
10
1.63014046705712e-012
20
-2.12199072828728
30
0.802150794832143
11
1.6530110613644e-012
21
-2.15213834764948
31
0.814638347645187
  0
LINE
  8
MY3DLAYER
10
1.6530110613644e-012
20
-2.15213834764948
30
0.814638347645187
11
1.67943436935047e-012
21
-2.1844907282873
31
0.818897619359015
  0
LINE
  8
MY3DLAYER
10
1.67943436935047e-012
20
-2.1844907282873
30
0.818897619359015
11
1.69686487083709e-012
21
-2.21684310892511
31
0.814638347645111
  0
LINE
  8
MY3DLAYER
10
1.69686487083709e-012
20
-2.21684310892511
30
0.814638347645111
11
1.71984648744683e-012
21
-2.24699072828728
31
0.802150794831996
  0
LINE
  8
MY3DLAYER
10
1.71984648744683e-012
20
-2.24699072828728
30
0.802150794831996
11
1.7448265055009e-012
21
-2.27287907593558
31
0.78228596700723
  0
LINE
  8
MY3DLAYER
10
1.7448265055009e-012
20
-2.27287907593558
30
0.78228596700723
11
1.7528201112782e-012
21
-2.29274390376028
31
0.756397619358888
  0
LINE
  8
MY3DLAYER
10
1.7528201112782e-012
20
-2.29274390376028
30
0.756397619358888
11
1.76059167245057e-012
21
-2.30523145657333
31
0.726249999996688
  0
LINE
  8
MY3DLAYER
10
1.76059167245057e-012
20
-2.30523145657333
30
0.726249999996688
11
1.76381131922199e-012
21
-2.30949072828716
31
0.693897619358868
  0
LINE
  8
MY3DLAYER
10
1.76381131922199e-012
20
-2.30949072828716
30
0.693897619358868
11
1.75881531561117e-012
21
-2.30523145657325
31
0.661545238721058
  0
LINE
  8
MY3DLAYER
10
1.75881531561117e-012
20
-2.30523145657325
30
0.661545238721058
11
1.74749104076e-012
21
-2.29274390376014
31
0.631397619358888
  0
LINE
  8
MY3DLAYER
10
1.74749104076e-012
20
-2.29274390376014
30
0.631397619358888
11
1.7377210781433e-012
21
-2.27287907593537
31
0.605509271710593
  0
LINE
  8
MY3DLAYER
10
1.7377210781433e-012
20
-2.27287907593537
30
0.605509271710593
11
1.71096470324983e-012
21
-2.24699072828703
31
0.585644443885887
  0
LINE
  8
MY3DLAYER
10
1.71096470324983e-012
20
-2.24699072828703
30
0.585644443885887
11
1.68798308664009e-012
21
-2.21684310892483
31
0.573156891072843
  0
LINE
  8
MY3DLAYER
10
1.68798308664009e-012
20
-2.21684310892483
30
0.573156891072843
11
1.66877622831407e-012
21
-2.18449072828701
31
0.568897619359015
  0
LINE
  8
MY3DLAYER
10
1.66877622831407e-012
20
-2.18449072828701
30
0.568897619359015
11
1.64412927716739e-012
21
-2.1521383476492
31
0.57315689107292
  0
LINE
  8
MY3DLAYER
10
1.64412927716739e-012
20
-2.1521383476492
30
0.57315689107292
11
1.62125868286012e-012
21
-2.12199072828703
31
0.585644443886034
  0
LINE
  8
MY3DLAYER
10
1.62125868286012e-012
20
-2.12199072828703
30
0.585644443886034
11
1.60327306986119e-012
21
-2.09610238063873
31
0.605509271710801
  0
LINE
  8
MY3DLAYER
10
1.60327306986119e-012
20
-2.09610238063873
30
0.605509271710801
11
1.58639767988689e-012
21
-2.07623755281403
31
0.631397619359142
  0
LINE
  8
MY3DLAYER
10
1.58639767988689e-012
20
-2.07623755281403
30
0.631397619359142
11
1.57429624891847e-012
21
-2.06375000000098
31
0.661545238721342
  0
LINE
  8
MY3DLAYER
10
1.57429624891847e-012
20
-2.06375000000098
30
0.661545238721342
11
1.57174273596183e-012
21
-2.05949072828716
31
0.693897619359162
  0
LINE
  8
MY3DLAYER
10
4.44089209850063e-016
20
1.12410081243297e-015
30
1.4432899320127e-015
11
0.125
21
9.61591917203464e-014
31
-3.66373598126302e-015
  0
LINE
  8
MY3DLAYER
10
-0.874999999999522
20
-0.593750000001773
30
0.999999999999389
11
4.74176253817404e-013
21
-0.593750000001104
31
0.999999999999389
  0
LINE
  8
MY3DLAYER
10
-0.874999999999522
20
-0.593750000001773
30
0.999999999999389
11
-0.874999999999971
21
-1.76214598468505e-012
31
1.00000000000002
  0
LINE
  8
MY3DLAYER
10
-0.60825317546744
20
-2.18750000000142
30
0.999999999997643
11
-0.620740728280501
21
-2.21764761936361
31
0.99999999999761
  0
LINE
  8
MY3DLAYER
10
-0.588388347642717
20
-2.16161165235309
30
0.99999999999767
11
-0.60825317546744
21
-2.18750000000142
31
0.999999999997643
  0
LINE
  8
MY3DLAYER
10
-0.56249999999441
20
-2.14174682452834
30
0.99999999999769
11
-0.588388347642717
21
-2.16161165235309
31
0.99999999999767
  0
LINE
  8
MY3DLAYER
10
-0.532352380632231
20
-2.12925927171525
30
0.999999999997703
11
-0.56249999999441
21
-2.14174682452834
31
0.99999999999769
  0
LINE
  8
MY3DLAYER
10
-0.499999999995257
20
-1.1250000000013
30
0.999999999998791
11
-0.53235238063307
21
-1.12925927171518
31
0.999999999998788
  0
LINE
  8
MY3DLAYER
10
-0.620740728285935
20
-0.217647619363783
30
0.999999999999791
11
-0.624999999999781
21
-0.2500000000016
31
0.999999999999755
  0
LINE
  8
MY3DLAYER
10
-0.608253175472876
20
-0.18750000000159
30
0.999999999999823
11
-0.620740728285935
21
-0.217647619363783
31
0.999999999999791
  0
LINE
  8
MY3DLAYER
10
-0.379259271708235
20
-2.21764761936348
30
0.9999999999976
11
-0.39174682452133
21
-2.18750000000131
31
0.999999999997634
  0
LINE
  8
MY3DLAYER
10
-0.37499999999435
20
-2.2500000000013
30
0.999999999997565
11
-0.379259271708235
21
-2.21764761936348
31
0.9999999999976
  0
LINE
  8
MY3DLAYER
10
-0.3792592717082
20
-2.28235238063911
30
0.99999999999753
11
-0.37499999999435
21
-2.2500000000013
31
0.999999999997565
  0
LINE
  8
MY3DLAYER
10
0.125000000001928
20
-2.500000000001
30
0.999999999997267
11
-0.874999999998066
21
-2.50000000000175
31
0.999999999997312
  0
LINE
  8
MY3DLAYER
10
-0.874999999999971
20
-1.76214598468505e-012
30
1.00000000000002
11
0.125000000000039
21
-9.95259430425222e-013
31
0.999999999999996
  0
LINE
  8
MY3DLAYER
10
-0.874999999999283
20
-0.906250000001773
30
0.999999999999056
11
7.13540337926588e-013
21
-0.906250000001104
31
0.999999999999056
  0
LINE
  8
MY3DLAYER
10
-0.874999999998757
20
-1.59375000000175
30
0.999999999998294
11
-0.874999999999283
21
-0.906250000001773
31
0.999999999999056
  0
LINE
  8
MY3DLAYER
10
-0.874999999998757
20
-1.59375000000175
30
0.999999999998294
11
1.23900889548167e-012
21
-1.59375000000109
31
0.999999999998288
  0
LINE
  8
MY3DLAYER
10
-0.874999999998519
20
-1.90625000000175
30
0.999999999997956
11
1.47759582347362e-012
21
-1.90625000000109
31
0.999999999997949
  0
LINE
  8
MY3DLAYER
10
-0.499999999994415
20
-2.12500000000136
30
0.999999999997706
11
-0.532352380632231
21
-2.12925927171525
31
0.999999999997703
  0
LINE
  8
MY3DLAYER
10
-0.467647619356601
20
-2.12925927171521
30
0.9999999999977
11
-0.499999999994415
21
-2.12500000000136
31
0.999999999997706
  0
LINE
  8
MY3DLAYER
10
-0.43749999999441
20
-2.14174682452828
30
0.999999999997685
11
-0.467647619356601
21
-2.12925927171521
31
0.9999999999977
  0
LINE
  8
MY3DLAYER
10
-0.411611652346079
20
-2.161611652353
30
0.999999999997663
11
-0.43749999999441
21
-2.14174682452828
31
0.999999999997685
  0
LINE
  8
MY3DLAYER
10
-0.39174682452133
20
-2.18750000000131
30
0.999999999997634
11
-0.411611652346079
21
-2.161611652353
31
0.999999999997663
  0
LINE
  8
MY3DLAYER
10
-0.391746824521261
20
-2.31250000000131
30
0.999999999997498
11
-0.3792592717082
21
-2.28235238063911
31
0.99999999999753
  0
LINE
  8
MY3DLAYER
10
-0.41161165234599
20
-2.33838834764964
30
0.999999999997471
11
-0.391746824521261
21
-2.31250000000131
31
0.999999999997498
  0
LINE
  8
MY3DLAYER
10
-0.437499999994289
20
-2.35825317547439
30
0.999999999997451
11
-0.41161165234599
21
-2.33838834764964
31
0.999999999997471
  0
LINE
  8
MY3DLAYER
10
-0.467647619356469
20
-2.37074072828748
30
0.999999999997438
11
-0.437499999994289
21
-2.35825317547439
31
0.999999999997451
  0
LINE
  8
MY3DLAYER
10
-0.49999999999428
20
-2.37500000000136
30
0.999999999997435
11
-0.467647619356469
21
-2.37074072828748
31
0.999999999997438
  0
LINE
  8
MY3DLAYER
10
-0.532352380632099
20
-2.37074072828751
30
0.999999999997441
11
-0.49999999999428
21
-2.37500000000136
31
0.999999999997435
  0
LINE
  8
MY3DLAYER
10
-0.562499999994289
20
-2.35825317547445
30
0.999999999997456
11
-0.532352380632099
21
-2.37074072828751
31
0.999999999997441
  0
LINE
  8
MY3DLAYER
10
-0.588388347642628
20
-2.33838834764973
30
0.999999999997478
11
-0.562499999994289
21
-2.35825317547445
31
0.999999999997456
  0
LINE
  8
MY3DLAYER
10
-0.608253175467371
20
-2.31250000000142
30
0.999999999997507
11
-0.588388347642628
21
-2.33838834764973
31
0.999999999997478
  0
LINE
  8
MY3DLAYER
10
-0.620740728280466
20
-2.28235238063924
30
0.99999999999754
11
-0.608253175467371
21
-2.31250000000142
31
0.999999999997507
  0
LINE
  8
MY3DLAYER
10
-0.62499999999435
20
-2.25000000000143
30
0.999999999997576
11
-0.620740728280466
21
-2.28235238063924
31
0.99999999999754
  0
LINE
  8
MY3DLAYER
10
-0.620740728280501
20
-2.21764761936361
30
0.99999999999761
11
-0.62499999999435
21
-2.25000000000143
31
0.999999999997576
  0
LINE
  8
MY3DLAYER
10
-0.46764761935744
20
-1.12925927171515
30
0.999999999998785
11
-0.499999999995257
21
-1.1250000000013
31
0.999999999998791
  0
LINE
  8
MY3DLAYER
10
-0.43749999999525
20
-1.14174682452822
30
0.99999999999877
11
-0.46764761935744
21
-1.12925927171515
31
0.999999999998785
  0
LINE
  8
MY3DLAYER
10
-0.411611652346926
20
-1.16161165235294
30
0.999999999998748
11
-0.43749999999525
21
-1.14174682452822
31
0.99999999999877
  0
LINE
  8
MY3DLAYER
10
-0.391746824522181
20
-1.18750000000125
30
0.999999999998719
11
-0.411611652346926
21
-1.16161165235294
31
0.999999999998748
  0
LINE
  8
MY3DLAYER
10
-0.379259271709087
20
-1.21764761936343
30
0.999999999998686
11
-0.391746824522181
21
-1.18750000000125
31
0.999999999998719
  0
LINE
  8
MY3DLAYER
10
-0.374999999995209
20
-1.25000000000125
30
0.99999999999865
11
-0.379259271709087
21
-1.21764761936343
31
0.999999999998686
  0
LINE
  8
MY3DLAYER
10
-0.379259271709061
20
-1.28235238063906
30
0.999999999998615
11
-0.374999999995209
21
-1.25000000000125
31
0.99999999999865
  0
LINE
  8
MY3DLAYER
10
-0.391746824522128
20
-1.31250000000125
30
0.999999999998583
11
-0.379259271709061
21
-1.28235238063906
31
0.999999999998615
  0
LINE
  8
MY3DLAYER
10
-0.411611652346851
20
-1.33838834764958
30
0.999999999998556
11
-0.391746824522128
21
-1.31250000000125
31
0.999999999998583
  0
LINE
  8
MY3DLAYER
10
-0.437499999995169
20
-1.35825317547433
30
0.999999999998536
11
-0.411611652346851
21
-1.33838834764958
31
0.999999999998556
  0
LINE
  8
MY3DLAYER
10
-0.467647619357343
20
-1.37074072828742
30
0.999999999998523
11
-0.437499999995169
21
-1.35825317547433
31
0.999999999998536
  0
LINE
  8
MY3DLAYER
10
-0.499999999995156
20
-1.3750000000013
30
0.99999999999852
11
-0.467647619357343
21
-1.37074072828742
31
0.999999999998523
  0
LINE
  8
MY3DLAYER
10
-0.532352380632973
20
-1.37074072828744
30
0.999999999998526
11
-0.499999999995156
21
-1.3750000000013
31
0.99999999999852
  0
LINE
  8
MY3DLAYER
10
-0.56249999999517
20
-1.35825317547438
30
0.999999999998541
11
-0.532352380632973
21
-1.37074072828744
31
0.999999999998526
  0
LINE
  8
MY3DLAYER
10
-0.588388347643487
20
-1.33838834764965
30
0.999999999998563
11
-0.56249999999517
21
-1.35825317547438
31
0.999999999998541
  0
LINE
  8
MY3DLAYER
10
-0.608253175468237
20
-1.31250000000134
30
0.999999999998592
11
-0.588388347643487
21
-1.33838834764965
31
0.999999999998563
  0
LINE
  8
MY3DLAYER
10
-0.620740728281328
20
-1.28235238063916
30
0.999999999998625
11
-0.608253175468237
21
-1.31250000000134
31
0.999999999998592
  0
LINE
  8
MY3DLAYER
10
-0.624999999995209
20
-1.25000000000135
30
0.999999999998661
11
-0.620740728281328
21
-1.28235238063916
31
0.999999999998625
  0
LINE
  8
MY3DLAYER
10
-0.620740728281353
20
-1.21764761936353
30
0.999999999998695
11
-0.624999999995209
21
-1.25000000000135
31
0.999999999998661
  0
LINE
  8
MY3DLAYER
10
-0.608253175468292
20
-1.18750000000134
30
0.999999999998728
11
-0.620740728281353
21
-1.21764761936353
31
0.999999999998695
  0
LINE
  8
MY3DLAYER
10
-0.588388347643563
20
-1.16161165235301
30
0.999999999998755
11
-0.608253175468292
21
-1.18750000000134
31
0.999999999998728
  0
LINE
  8
MY3DLAYER
10
-0.56249999999525
20
-1.14174682452827
30
0.999999999998775
11
-0.588388347643563
21
-1.16161165235301
31
0.999999999998755
  0
LINE
  8
MY3DLAYER
10
-0.53235238063307
20
-1.12925927171518
30
0.999999999998788
11
-0.56249999999525
21
-1.14174682452827
31
0.999999999998775
  0
LINE
  8
MY3DLAYER
10
-0.624999999999781
20
-0.2500000000016
30
0.999999999999755
11
-0.620740728285893
21
-0.282352380639413
31
0.99999999999972
  0
LINE
  8
MY3DLAYER
10
-0.588388347648163
20
-0.161611652353259
30
0.99999999999985
11
-0.608253175472876
21
-0.18750000000159
31
0.999999999999823
  0
LINE
  8
MY3DLAYER
10
-0.562499999999851
20
-0.141746824528506
30
0.999999999999871
11
-0.588388347648163
21
-0.161611652353259
31
0.99999999999985
  0
LINE
  8
MY3DLAYER
10
-0.532352380637674
20
-0.129259271715408
30
0.999999999999883
11
-0.562499999999851
21
-0.141746824528506
31
0.999999999999871
  0
LINE
  8
MY3DLAYER
10
-0.499999999999868
20
-0.125000000001521
30
0.999999999999887
11
-0.532352380637674
21
-0.129259271715408
31
0.999999999999883
  0
LINE
  8
MY3DLAYER
10
-0.467647619362043
20
-0.129259271715366
30
0.999999999999881
11
-0.499999999999868
21
-0.125000000001521
31
0.999999999999887
  0
LINE
  8
MY3DLAYER
10
-0.437499999999851
20
-0.141746824528425
30
0.999999999999866
11
-0.467647619362043
21
-0.129259271715366
31
0.999999999999881
  0
LINE
  8
MY3DLAYER
10
-0.411611652351525
20
-0.161611652353146
30
0.999999999999843
11
-0.437499999999851
21
-0.141746824528425
31
0.999999999999866
  0
LINE
  8
MY3DLAYER
10
-0.391746824526767
20
-0.187500000001451
30
0.999999999999814
11
-0.411611652351525
21
-0.161611652353146
31
0.999999999999843
  0
LINE
  8
MY3DLAYER
10
-0.379259271713669
20
-0.217647619363629
30
0.999999999999781
11
-0.391746824526767
21
-0.187500000001451
31
0.999999999999814
  0
LINE
  8
MY3DLAYER
10
-0.374999999999781
20
-0.250000000001441
30
0.999999999999746
11
-0.379259271713669
21
-0.217647619363629
31
0.999999999999781
  0
LINE
  8
MY3DLAYER
10
-0.379259271713627
20
-0.282352380639259
30
0.999999999999711
11
-0.374999999999781
21
-0.250000000001441
31
0.999999999999746
  0
LINE
  8
MY3DLAYER
10
-0.391746824526686
20
-0.312500000001451
30
0.999999999999679
11
-0.379259271713627
21
-0.282352380639259
31
0.999999999999711
  0
LINE
  8
MY3DLAYER
10
-0.411611652351405
20
-0.338388347649783
30
0.999999999999652
11
-0.391746824526686
21
-0.312500000001451
31
0.999999999999679
  0
LINE
  8
MY3DLAYER
10
-0.437499999999711
20
-0.358253175474536
30
0.999999999999631
11
-0.411611652351405
21
-0.338388347649783
31
0.999999999999652
  0
LINE
  8
MY3DLAYER
10
-0.467647619361888
20
-0.370740728287633
30
0.999999999999618
11
-0.437499999999711
21
-0.358253175474536
31
0.999999999999631
  0
LINE
  8
MY3DLAYER
10
-0.499999999999702
20
-0.375000000001521
30
0.999999999999615
11
-0.467647619361888
21
-0.370740728287633
31
0.999999999999618
  0
LINE
  8
MY3DLAYER
10
-0.53235238063752
20
-0.370740728287675
30
0.999999999999621
11
-0.499999999999702
21
-0.375000000001521
31
0.999999999999615
  0
LINE
  8
MY3DLAYER
10
-0.562499999999711
20
-0.358253175474616
30
0.999999999999635
11
-0.53235238063752
21
-0.370740728287675
31
0.999999999999621
  0
LINE
  8
MY3DLAYER
10
-0.588388347648044
20
-0.338388347649896
30
0.999999999999658
11
-0.562499999999711
21
-0.358253175474616
31
0.999999999999635
  0
LINE
  8
MY3DLAYER
10
-0.608253175472795
20
-0.31250000000159
30
0.999999999999687
11
-0.588388347648044
21
-0.338388347649896
31
0.999999999999658
  0
LINE
  8
MY3DLAYER
10
-0.620740728285893
20
-0.282352380639413
30
0.99999999999972
11
-0.608253175472795
21
-0.31250000000159
31
0.999999999999687
  0
LINE
  8
MY3DLAYER
10
0.125000000001928
20
-2.500000000001
30
0.999999999997267
11
0.125000000001886
21
-2.49999999999991
31
-2.73203681899759e-012
  0
LINE
  8
MY3DLAYER
10
-0.467647619356475
20
-2.37074072828734
30
0.874999999997547
11
-0.437499999994295
21
-2.35825317547425
31
0.874999999997559
  0
LINE
  8
MY3DLAYER
10
-0.499999999994286
20
-2.37500000000123
30
0.874999999997544
11
-0.467647619356475
21
-2.37074072828734
31
0.874999999997547
  0
LINE
  8
MY3DLAYER
10
-0.532352380632105
20
-2.37074072828738
30
0.87499999999755
11
-0.499999999994286
21
-2.37500000000123
31
0.874999999997544
  0
LINE
  8
MY3DLAYER
10
-0.562499999994295
20
-2.35825317547432
30
0.874999999997565
11
-0.532352380632105
21
-2.37074072828738
31
0.87499999999755
  0
LINE
  8
MY3DLAYER
10
-0.874999999999975
20
-1.62640040324291e-012
30
0.875000000000022
11
2.35367281220533e-014
21
-9.57456336436735e-013
31
0.874999999999986
  0
LINE
  8
MY3DLAYER
10
-0.874999999999975
20
-1.62640040324291e-012
30
0.875000000000022
11
-0.874999999999971
21
-1.76214598468505e-012
31
1.00000000000002
  0
LINE
  8
MY3DLAYER
10
0.125
20
9.61591917203464e-014
30
-3.66373598126302e-015
11
0.125000000000039
21
-9.95259430425222e-013
31
0.999999999999996
  0
LINE
  8
MY3DLAYER
10
-0.874999999998521
20
-1.90625000000161
30
0.874999999997956
11
1.47581946663422e-012
21
-1.90625000000094
31
0.87499999999795
  0
LINE
  8
MY3DLAYER
10
-0.87499999999807
20
-2.50000000000162
30
0.874999999997312
11
-0.874999999998521
21
-1.90625000000161
31
0.874999999997956
  0
LINE
  8
MY3DLAYER
10
-0.499999999994421
20
-2.12500000000123
30
0.874999999997815
11
-0.532352380632237
21
-2.12925927171511
31
0.874999999997811
  0
LINE
  8
MY3DLAYER
10
-0.467647619356607
20
-2.12925927171508
30
0.874999999997809
11
-0.499999999994421
21
-2.12500000000123
31
0.874999999997815
  0
LINE
  8
MY3DLAYER
10
-0.437499999994415
20
-2.14174682452814
30
0.874999999997794
11
-0.467647619356607
21
-2.12925927171508
31
0.874999999997809
  0
LINE
  8
MY3DLAYER
10
-0.411611652346084
20
-2.16161165235286
30
0.874999999997771
11
-0.437499999994415
21
-2.14174682452814
31
0.874999999997794
  0
LINE
  8
MY3DLAYER
10
-0.391746824521335
20
-2.18750000000117
30
0.874999999997742
11
-0.411611652346084
21
-2.16161165235286
31
0.874999999997771
  0
LINE
  8
MY3DLAYER
10
-0.37925927170824
20
-2.21764761936335
30
0.874999999997709
11
-0.391746824521335
21
-2.18750000000117
31
0.874999999997742
  0
LINE
  8
MY3DLAYER
10
-0.374999999994356
20
-2.25000000000116
30
0.874999999997674
11
-0.37925927170824
21
-2.21764761936335
31
0.874999999997709
  0
LINE
  8
MY3DLAYER
10
-0.379259271708205
20
-2.28235238063898
30
0.874999999997639
11
-0.374999999994356
21
-2.25000000000116
31
0.874999999997674
  0
LINE
  8
MY3DLAYER
10
-0.391746824521266
20
-2.31250000000117
30
0.874999999997607
11
-0.379259271708205
21
-2.28235238063898
31
0.874999999997639
  0
LINE
  8
MY3DLAYER
10
-0.411611652345995
20
-2.3383883476495
30
0.87499999999758
11
-0.391746824521266
21
-2.31250000000117
31
0.874999999997607
  0
LINE
  8
MY3DLAYER
10
-0.437499999994295
20
-2.35825317547425
30
0.874999999997559
11
-0.411611652345995
21
-2.3383883476495
31
0.87499999999758
  0
LINE
  8
MY3DLAYER
10
-0.588388347642633
20
-2.33838834764959
30
0.874999999997587
11
-0.562499999994295
21
-2.35825317547432
31
0.874999999997565
  0
LINE
  8
MY3DLAYER
10
-0.608253175467377
20
-2.31250000000129
30
0.874999999997616
11
-0.588388347642633
21
-2.33838834764959
31
0.874999999997587
  0
LINE
  8
MY3DLAYER
10
-0.620740728280471
20
-2.28235238063911
30
0.874999999997649
11
-0.608253175467377
21
-2.31250000000129
31
0.874999999997616
  0
LINE
  8
MY3DLAYER
10
-0.624999999994356
20
-2.2500000000013
30
0.874999999997684
11
-0.620740728280471
21
-2.28235238063911
31
0.874999999997649
  0
LINE
  8
MY3DLAYER
10
-0.620740728280506
20
-2.21764761936348
30
0.874999999997719
11
-0.624999999994356
21
-2.2500000000013
31
0.874999999997684
  0
LINE
  8
MY3DLAYER
10
-0.608253175467445
20
-2.18750000000129
30
0.874999999997751
11
-0.620740728280506
21
-2.21764761936348
31
0.874999999997719
  0
LINE
  8
MY3DLAYER
10
-0.588388347642723
20
-2.16161165235296
30
0.874999999997778
11
-0.608253175467445
21
-2.18750000000129
31
0.874999999997751
  0
LINE
  8
MY3DLAYER
10
-0.562499999994415
20
-2.14174682452821
30
0.874999999997799
11
-0.588388347642723
21
-2.16161165235296
31
0.874999999997778
  0
LINE
  8
MY3DLAYER
10
-0.532352380632237
20
-2.12925927171511
30
0.874999999997811
11
-0.562499999994415
21
-2.14174682452821
31
0.874999999997799
  0
LINE
  8
MY3DLAYER
10
0.125000004041285
20
-0.221102380638846
30
0.782285967009639
11
4.0412853063998e-009
21
-0.221102380638943
31
0.782285967009644
  0
LINE
  8
MY3DLAYER
10
0.125000004041271
20
-0.20123755281408
30
0.756397619361344
11
0.125000004041285
21
-0.221102380638846
31
0.782285967009639
  0
LINE
  8
MY3DLAYER
10
0.125000004041271
20
-0.20123755281408
30
0.756397619361344
11
4.04127109554508e-009
21
-0.201237552814177
31
0.75639761936135
  0
LINE
  8
MY3DLAYER
10
0.125000004041308
20
-0.246990728287188
30
0.802150794834345
11
4.0413077329049e-009
21
-0.246990728287285
31
0.80215079483435
  0
LINE
  8
MY3DLAYER
10
0.125000004041285
20
-0.221102380638846
30
0.782285967009639
11
0.125000004041308
21
-0.246990728287188
31
0.802150794834345
  0
LINE
  8
MY3DLAYER
10
0.12500000404273
20
-2.12199072828693
30
0.585644443886029
11
0.125000004042712
21
-2.09610238063864
31
0.605509271710795
  0
LINE
  8
MY3DLAYER
10
0.125000004042753
20
-2.15213834764911
30
0.573156891072915
11
0.12500000404273
21
-2.12199072828693
31
0.585644443886029
  0
LINE
  8
MY3DLAYER
10
0.125000004042777
20
-2.18449072828692
30
0.56889761935901
11
0.125000004042753
21
-2.15213834764911
31
0.573156891072915
  0
LINE
  8
MY3DLAYER
10
0.125000004042797
20
-2.21684310892474
30
0.573156891072838
11
0.125000004042777
21
-2.18449072828692
31
0.56889761935901
  0
LINE
  8
MY3DLAYER
10
0.12500000404282
20
-2.24699072828693
30
0.585644443885881
11
0.125000004042797
21
-2.21684310892474
31
0.573156891072838
  0
LINE
  8
MY3DLAYER
10
-0.874999999998519
20
-1.90625000000175
30
0.999999999997956
11
-0.874999999998521
21
-1.90625000000161
31
0.874999999997956
  0
LINE
  8
MY3DLAYER
10
0.125000000001886
20
-2.49999999999991
30
-2.73203681899759e-012
11
0.125
21
9.61591917203464e-014
31
-3.66373598126302e-015
  0
LINE
  8
MY3DLAYER
10
0.125000004042681
20
-2.05949072828706
30
0.693897619359157
11
0.12500000404269
21
-2.06375000000097
31
0.726249999996967
  0
LINE
  8
MY3DLAYER
10
0.125000004042688
20
-2.06375000000089
30
0.661545238721337
11
0.125000004042681
21
-2.05949072828706
31
0.693897619359157
  0
LINE
  8
MY3DLAYER
10
0.125000004042692
20
-2.07623755281393
30
0.631397619359137
11
0.125000004042688
21
-2.06375000000089
31
0.661545238721337
  0
LINE
  8
MY3DLAYER
10
0.125000004042712
20
-2.09610238063864
30
0.605509271710795
11
0.125000004042692
21
-2.07623755281393
31
0.631397619359137
  0
LINE
  8
MY3DLAYER
10
0.125000004042846
20
-2.27287907593528
30
0.605509271710588
11
0.12500000404282
21
-2.24699072828693
31
0.585644443885881
  0
LINE
  8
MY3DLAYER
10
0.125000004042856
20
-2.29274390376004
30
0.631397619358882
11
0.125000004042846
21
-2.27287907593528
31
0.605509271710588
  0
LINE
  8
MY3DLAYER
10
0.125000004042868
20
-2.30523145657316
30
0.661545238721053
11
0.125000004042856
21
-2.29274390376004
31
0.631397619358882
  0
LINE
  8
MY3DLAYER
10
0.125000004042872
20
-2.30949072828706
30
0.693897619358863
11
0.125000004042868
21
-2.30523145657316
31
0.661545238721053
  0
LINE
  8
MY3DLAYER
10
0.125000004042869
20
-2.30523145657323
30
0.726249999996683
11
0.125000004042872
21
-2.30949072828706
31
0.693897619358863
  0
LINE
  8
MY3DLAYER
10
0.125000004042862
20
-2.29274390376019
30
0.756397619358883
11
0.125000004042869
21
-2.30523145657323
31
0.726249999996683
  0
LINE
  8
MY3DLAYER
10
0.125000004042853
20
-2.27287907593549
30
0.782285967007224
11
0.125000004042862
21
-2.29274390376019
31
0.756397619358883
  0
LINE
  8
MY3DLAYER
10
0.125000004042829
20
-2.24699072828719
30
0.802150794831991
11
0.125000004042853
21
-2.27287907593549
31
0.782285967007224
  0
LINE
  8
MY3DLAYER
10
0.125000004042806
20
-2.21684310892502
30
0.814638347645106
11
0.125000004042829
21
-2.24699072828719
31
0.802150794831991
  0
LINE
  8
MY3DLAYER
10
0.125000004042788
20
-2.18449072828721
30
0.81889761935901
11
0.125000004042806
21
-2.21684310892502
31
0.814638347645106
  0
LINE
  8
MY3DLAYER
10
0.125000004042762
20
-2.15213834764939
30
0.814638347645182
11
0.125000004042788
21
-2.18449072828721
31
0.81889761935901
  0
LINE
  8
MY3DLAYER
10
0.125000004042739
20
-2.12199072828719
30
0.802150794832138
11
0.125000004042762
21
-2.15213834764939
31
0.814638347645182
  0
LINE
  8
MY3DLAYER
10
0.125000004042719
20
-2.09610238063885
30
0.782285967007432
11
0.125000004042739
21
-2.12199072828719
31
0.802150794832138
  0
LINE
  8
MY3DLAYER
10
0.125000004042699
20
-2.07623755281408
30
0.756397619359138
11
0.125000004042719
21
-2.09610238063885
31
0.782285967007432
  0
LINE
  8
MY3DLAYER
10
0.12500000404269
20
-2.06375000000097
30
0.726249999996967
11
0.125000004042699
21
-2.07623755281408
31
0.756397619359138
  0
LINE
  8
MY3DLAYER
10
0.125000004041255
20
-0.184490728287061
30
0.693897619361364
11
0.125000004041262
21
-0.188750000000967
31
0.726249999999174
  0
LINE
  8
MY3DLAYER
10
0.125000004041258
20
-0.188750000000889
30
0.661545238723544
11
0.125000004041255
21
-0.184490728287061
31
0.693897619361364
  0
LINE
  8
MY3DLAYER
10
0.125000004041266
20
-0.201237552813932
30
0.631397619361344
11
0.125000004041258
21
-0.188750000000889
31
0.661545238723544
  0
LINE
  8
MY3DLAYER
10
0.125000004041278
20
-0.22110238063864
30
0.605509271713002
11
0.125000004041266
21
-0.201237552813932
31
0.631397619361344
  0
LINE
  8
MY3DLAYER
10
0.125000004041299
20
-0.246990728286933
30
0.585644443888236
11
0.125000004041278
21
-0.22110238063864
31
0.605509271713002
  0
LINE
  8
MY3DLAYER
10
0.125000004041322
20
-0.277138347649104
30
0.573156891075121
11
0.125000004041299
21
-0.246990728286933
31
0.585644443888236
  0
LINE
  8
MY3DLAYER
10
0.12500000404135
20
-0.309490728286915
30
0.568897619361217
11
0.125000004041322
21
-0.277138347649104
31
0.573156891075121
  0
LINE
  8
MY3DLAYER
10
0.125000004041375
20
-0.341843108924734
30
0.573156891075045
11
0.12500000404135
21
-0.309490728286915
31
0.568897619361217
  0
LINE
  8
MY3DLAYER
10
0.125000004041399
20
-0.371990728286933
30
0.585644443888089
11
0.125000004041375
21
-0.341843108924734
31
0.573156891075045
  0
LINE
  8
MY3DLAYER
10
0.125000004041419
20
-0.397879075935276
30
0.605509271712794
11
0.125000004041399
21
-0.371990728286933
31
0.585644443888089
  0
LINE
  8
MY3DLAYER
10
0.125000004041436
20
-0.417743903760042
30
0.631397619361089
11
0.125000004041419
21
-0.397879075935276
31
0.605509271712794
  0
LINE
  8
MY3DLAYER
10
0.125000004041446
20
-0.430231456573156
30
0.66154523872326
11
0.125000004041436
21
-0.417743903760042
31
0.631397619361089
  0
LINE
  8
MY3DLAYER
10
0.125000004041447
20
-0.434490728287061
30
0.69389761936107
11
0.125000004041446
21
-0.430231456573156
31
0.66154523872326
  0
LINE
  8
MY3DLAYER
10
0.125000004041448
20
-0.430231456573233
30
0.72624999999889
11
0.125000004041447
21
-0.434490728287061
31
0.69389761936107
  0
LINE
  8
MY3DLAYER
10
0.125000004041441
20
-0.41774390376019
30
0.756397619361089
11
0.125000004041448
21
-0.430231456573233
31
0.72624999999889
  0
LINE
  8
MY3DLAYER
10
0.125000004041426
20
-0.397879075935483
30
0.782285967009431
11
0.125000004041441
21
-0.41774390376019
31
0.756397619361089
  0
LINE
  8
MY3DLAYER
10
0.125000004041408
20
-0.371990728287188
30
0.802150794834198
11
0.125000004041426
21
-0.397879075935483
31
0.782285967009431
  0
LINE
  8
MY3DLAYER
10
0.125000004041384
20
-0.341843108925018
30
0.814638347647312
11
0.125000004041408
21
-0.371990728287188
31
0.802150794834198
  0
LINE
  8
MY3DLAYER
10
0.125000004041361
20
-0.309490728287208
30
0.818897619361217
11
0.125000004041384
21
-0.341843108925018
31
0.814638347647312
  0
LINE
  8
MY3DLAYER
10
0.125000004041332
20
-0.277138347649388
30
0.814638347647389
11
0.125000004041361
21
-0.309490728287208
31
0.818897619361217
  0
LINE
  8
MY3DLAYER
10
0.125000004041308
20
-0.246990728287188
30
0.802150794834345
11
0.125000004041332
21
-0.277138347649388
31
0.814638347647389
  0
LINE
  8
MY3DLAYER
10
0.125000004041262
20
-0.188750000000967
30
0.726249999999174
11
0.125000004041271
21
-0.20123755281408
31
0.756397619361344
  0
LINE
  8
MY3DLAYER
10
0.125000004041426
20
-0.397879075935483
30
0.782285967009431
11
4.04142597165702e-009
21
-0.397879075935579
31
0.782285967009436
  0
LINE
  8
MY3DLAYER
10
0.125000004041408
20
-0.371990728287188
30
0.802150794834198
11
4.04140809706632e-009
21
-0.371990728287285
31
0.802150794834203
  0
LINE
  8
MY3DLAYER
10
0.125000004041441
20
-0.41774390376019
30
0.756397619361089
11
4.04144107069015e-009
21
-0.417743903760286
31
0.756397619361095
  0
LINE
  8
MY3DLAYER
10
0.125000004041448
20
-0.430231456573233
30
0.72624999999889
11
4.04144795407291e-009
21
-0.430231456573329
31
0.726249999998895
  0
LINE
  8
MY3DLAYER
10
-0.562499999994415
20
-2.14174682452821
30
0.874999999997799
11
-0.56249999999441
21
-2.14174682452834
31
0.99999999999769
  0
LINE
  8
MY3DLAYER
10
-0.532352380632237
20
-2.12925927171511
30
0.874999999997811
11
-0.532352380632231
21
-2.12925927171525
31
0.999999999997703
  0
LINE
  8
MY3DLAYER
10
-0.588388347642723
20
-2.16161165235296
30
0.874999999997778
11
-0.588388347642717
21
-2.16161165235309
31
0.99999999999767
  0
LINE
  8
MY3DLAYER
10
-0.608253175467445
20
-2.18750000000129
30
0.874999999997751
11
-0.60825317546744
21
-2.18750000000142
31
0.999999999997643
  0
LINE
  8
MY3DLAYER
10
-0.620740728280506
20
-2.21764761936348
30
0.874999999997719
11
-0.620740728280501
21
-2.21764761936361
31
0.99999999999761
  0
LINE
  8
MY3DLAYER
10
0.125000004041262
20
-0.188750000000967
30
0.726249999999174
11
4.04126165864938e-009
21
-0.188750000001062
31
0.726249999999179
  0
LINE
  8
MY3DLAYER
10
0.125000004041255
20
-0.184490728287061
30
0.693897619361364
11
4.04124866903999e-009
21
-0.184490728287158
31
0.693897619361369
  0
LINE
  8
MY3DLAYER
10
0.125000004041332
20
-0.277138347649388
30
0.814638347647389
11
4.0413306034992e-009
21
-0.277138347649484
31
0.814638347647394
  0
LINE
  8
MY3DLAYER
10
0.125000004041361
20
-0.309490728287208
30
0.818897619361217
11
4.04136057952087e-009
21
-0.309490728287304
31
0.818897619361222
  0
LINE
  8
MY3DLAYER
10
0.12500000404135
20
-0.309490728286915
30
0.568897619361217
11
4.04134992137983e-009
21
-0.309490728287011
31
0.568897619361223
  0
LINE
  8
MY3DLAYER
10
0.125000004041375
20
-0.341843108924734
30
0.573156891075045
11
4.04137623366552e-009
21
-0.341843108924831
31
0.573156891075051
  0
LINE
  8
MY3DLAYER
10
0.125000004041322
20
-0.277138347649104
30
0.573156891075121
11
4.04132172171501e-009
21
-0.277138347649201
31
0.573156891075127
  0
LINE
  8
MY3DLAYER
10
0.125000004041299
20
-0.246990728286933
30
0.585644443888236
11
4.0412988511207e-009
21
-0.246990728287031
31
0.585644443888241
  0
LINE
  8
MY3DLAYER
10
0.125000004041278
20
-0.22110238063864
30
0.605509271713002
11
4.04127820097244e-009
21
-0.221102380638735
31
0.605509271713008
  0
LINE
  8
MY3DLAYER
10
0.125000004041384
20
-0.341843108925018
30
0.814638347647312
11
4.04138511544971e-009
21
-0.341843108925115
31
0.814638347647317
  0
LINE
  8
MY3DLAYER
10
0.125000004041447
20
-0.434490728287061
30
0.69389761936107
11
4.04144673282758e-009
21
-0.434490728287158
31
0.693897619361075
  0
LINE
  8
MY3DLAYER
10
0.125000004041446
20
-0.430231456573156
30
0.66154523872326
11
4.04144617771607e-009
21
-0.430231456573252
31
0.661545238723265
  0
LINE
  8
MY3DLAYER
10
0.125000004041436
20
-0.417743903760042
30
0.631397619361089
11
4.04143574161964e-009
21
-0.417743903760138
31
0.631397619361095
  0
LINE
  8
MY3DLAYER
10
0.125000004041419
20
-0.397879075935276
30
0.605509271712794
11
4.04141886622966e-009
21
-0.397879075935372
31
0.6055092717128
  0
LINE
  8
MY3DLAYER
10
0.125000004041399
20
-0.371990728286933
30
0.585644443888089
11
4.04139921528213e-009
21
-0.37199072828703
31
0.585644443888094
  0
LINE
  8
MY3DLAYER
10
0.125000004042699
20
-2.07623755281408
30
0.756397619359138
11
1.59350310724449e-012
21
-2.07623755281417
31
0.756397619359143
  0
LINE
  8
MY3DLAYER
10
0.12500000404269
20
-2.06375000000097
30
0.726249999996967
11
1.57607260575787e-012
21
-2.06375000000106
31
0.726249999996972
  0
LINE
  8
MY3DLAYER
10
0.125000004042719
20
-2.09610238063885
30
0.782285967007432
11
1.61037849721879e-012
21
-2.09610238063894
31
0.782285967007437
  0
LINE
  8
MY3DLAYER
10
0.125000004042739
20
-2.12199072828719
30
0.802150794832138
11
1.63014046705712e-012
21
-2.12199072828728
31
0.802150794832143
  0
LINE
  8
MY3DLAYER
10
0.125000004041266
20
-0.201237552813932
30
0.631397619361344
11
4.04126576647457e-009
21
-0.201237552814028
31
0.631397619361349
  0
LINE
  8
MY3DLAYER
10
0.125000004041258
20
-0.188750000000889
30
0.661545238723544
11
4.0412581059357e-009
21
-0.188750000000986
31
0.661545238723549
  0
LINE
  8
MY3DLAYER
10
0.125000004042681
20
-2.05949072828706
30
0.693897619359157
11
1.57174273596183e-012
21
-2.05949072828716
31
0.693897619359162
  0
LINE
  8
MY3DLAYER
10
0.125000004042869
20
-2.30523145657323
30
0.726249999996683
11
1.76059167245057e-012
21
-2.30523145657333
31
0.726249999996688
  0
LINE
  8
MY3DLAYER
10
0.125000004042862
20
-2.29274390376019
30
0.756397619358883
11
1.7528201112782e-012
21
-2.29274390376028
31
0.756397619358888
  0
LINE
  8
MY3DLAYER
10
0.125000004042872
20
-2.30949072828706
30
0.693897619358863
11
1.76381131922199e-012
21
-2.30949072828716
31
0.693897619358868
  0
LINE
  8
MY3DLAYER
10
0.125000004042868
20
-2.30523145657316
30
0.661545238721053
11
1.75881531561117e-012
21
-2.30523145657325
31
0.661545238721058
  0
LINE
  8
MY3DLAYER
10
0.125000004042762
20
-2.15213834764939
30
0.814638347645182
11
1.6530110613644e-012
21
-2.15213834764948
31
0.814638347645187
  0
LINE
  8
MY3DLAYER
10
0.125000004042788
20
-2.18449072828721
30
0.81889761935901
11
1.67943436935047e-012
21
-2.1844907282873
31
0.818897619359015
  0
LINE
  8
MY3DLAYER
10
0.125000004042806
20
-2.21684310892502
30
0.814638347645106
11
1.69686487083709e-012
21
-2.21684310892511
31
0.814638347645111
  0
LINE
  8
MY3DLAYER
10
0.125000004042829
20
-2.24699072828719
30
0.802150794831991
11
1.71984648744683e-012
21
-2.24699072828728
31
0.802150794831996
  0
LINE
  8
MY3DLAYER
10
0.125000004042853
20
-2.27287907593549
30
0.782285967007224
11
1.7448265055009e-012
21
-2.27287907593558
31
0.78228596700723
  0
LINE
  8
MY3DLAYER
10
0.12500000404273
20
-2.12199072828693
30
0.585644443886029
11
1.62125868286012e-012
21
-2.12199072828703
31
0.585644443886034
  0
LINE
  8
MY3DLAYER
10
0.125000004042753
20
-2.15213834764911
30
0.573156891072915
11
1.64412927716739e-012
21
-2.1521383476492
31
0.57315689107292
  0
LINE
  8
MY3DLAYER
10
0.125000004042712
20
-2.09610238063864
30
0.605509271710795
11
1.60327306986119e-012
21
-2.09610238063873
31
0.605509271710801
  0
LINE
  8
MY3DLAYER
10
0.125000004042692
20
-2.07623755281393
30
0.631397619359137
11
1.58639767988689e-012
21
-2.07623755281403
31
0.631397619359142
  0
LINE
  8
MY3DLAYER
10
0.125000004042856
20
-2.29274390376004
30
0.631397619358882
11
1.74749104076e-012
21
-2.29274390376014
31
0.631397619358888
  0
LINE
  8
MY3DLAYER
10
0.125000004042846
20
-2.27287907593528
30
0.605509271710588
11
1.7377210781433e-012
21
-2.27287907593537
31
0.605509271710593
  0
LINE
  8
MY3DLAYER
10
0.12500000404282
20
-2.24699072828693
30
0.585644443885881
11
1.71096470324983e-012
21
-2.24699072828703
31
0.585644443885887
  0
LINE
  8
MY3DLAYER
10
0.125000004042797
20
-2.21684310892474
30
0.573156891072838
11
1.68798308664009e-012
21
-2.21684310892483
31
0.573156891072843
  0
LINE
  8
MY3DLAYER
10
0.125000004042777
20
-2.18449072828692
30
0.56889761935901
11
1.66877622831407e-012
21
-2.18449072828701
31
0.568897619359015
  0
LINE
  8
MY3DLAYER
10
-0.624999999994356
20
-2.2500000000013
30
0.874999999997684
11
-0.62499999999435
21
-2.25000000000143
31
0.999999999997576
  0
LINE
  8
MY3DLAYER
10
-0.562499999994295
20
-2.35825317547432
30
0.874999999997565
11
-0.562499999994289
21
-2.35825317547445
31
0.999999999997456
  0
LINE
  8
MY3DLAYER
10
-0.588388347642633
20
-2.33838834764959
30
0.874999999997587
11
-0.588388347642628
21
-2.33838834764973
31
0.999999999997478
  0
LINE
  8
MY3DLAYER
10
-0.532352380632105
20
-2.37074072828738
30
0.87499999999755
11
-0.532352380632099
21
-2.37074072828751
31
0.999999999997441
  0
LINE
  8
MY3DLAYER
10
0.125000004042688
20
-2.06375000000089
30
0.661545238721337
11
1.57429624891847e-012
21
-2.06375000000098
31
0.661545238721342
  0
LINE
  8
MY3DLAYER
10
-0.499999999995261
20
-1.12500000000116
30
0.87499999999871
11
-0.532352380633074
21
-1.12925927171504
31
0.874999999998707
  0
LINE
  8
MY3DLAYER
10
-0.532352380633074
20
-1.12925927171504
30
0.874999999998707
11
-0.562499999995254
21
-1.14174682452813
31
0.874999999998695
  0
LINE
  8
MY3DLAYER
10
-0.562499999995254
20
-1.14174682452813
30
0.874999999998695
11
-0.588388347643567
21
-1.16161165235288
31
0.874999999998674
  0
LINE
  8
MY3DLAYER
10
-0.588388347643567
20
-1.16161165235288
30
0.874999999998674
11
-0.608253175468295
21
-1.18750000000121
31
0.874999999998647
  0
LINE
  8
MY3DLAYER
10
-0.608253175468295
20
-1.18750000000121
30
0.874999999998647
11
-0.620740728281357
21
-1.2176476193634
31
0.874999999998615
  0
LINE
  8
MY3DLAYER
10
-0.467647619362043
20
-0.129259271715366
30
0.999999999999881
11
-0.467647619362046
21
-0.129259271715231
31
0.874999999999881
  0
LINE
  8
MY3DLAYER
10
-0.437499999999854
20
-0.14174682452829
30
0.874999999999866
11
-0.467647619362046
21
-0.129259271715231
31
0.874999999999881
  0
LINE
  8
MY3DLAYER
10
-0.437499999999851
20
-0.141746824528425
30
0.999999999999866
11
-0.437499999999854
21
-0.14174682452829
31
0.874999999999866
  0
LINE
  8
MY3DLAYER
10
-0.499999999999868
20
-0.125000000001521
30
0.999999999999887
11
-0.499999999999872
21
-0.125000000001385
31
0.874999999999887
  0
LINE
  8
MY3DLAYER
10
-0.467647619362046
20
-0.129259271715231
30
0.874999999999881
11
-0.499999999999872
21
-0.125000000001385
31
0.874999999999887
  0
LINE
  8
MY3DLAYER
10
-0.532352380637674
20
-0.129259271715408
30
0.999999999999883
11
-0.532352380637678
21
-0.129259271715273
31
0.874999999999883
  0
LINE
  8
MY3DLAYER
10
-0.499999999999872
20
-0.125000000001385
30
0.874999999999887
11
-0.532352380637678
21
-0.129259271715273
31
0.874999999999883
  0
LINE
  8
MY3DLAYER
10
-0.562499999999851
20
-0.141746824528506
30
0.999999999999871
11
-0.562499999999854
21
-0.14174682452837
31
0.874999999999871
  0
LINE
  8
MY3DLAYER
10
-0.532352380637678
20
-0.129259271715273
30
0.874999999999883
11
-0.562499999999854
21
-0.14174682452837
31
0.874999999999871
  0
LINE
  8
MY3DLAYER
10
-0.588388347648163
20
-0.161611652353259
30
0.99999999999985
11
-0.588388347648167
21
-0.161611652353123
31
0.87499999999985
  0
LINE
  8
MY3DLAYER
10
-0.620740728281357
20
-1.2176476193634
30
0.874999999998615
11
-0.624999999995212
21
-1.25000000000121
31
0.87499999999858
  0
LINE
  8
MY3DLAYER
10
-0.624999999995212
20
-1.25000000000121
30
0.87499999999858
11
-0.620740728281331
21
-1.28235238063903
31
0.874999999998545
  0
LINE
  8
MY3DLAYER
10
-0.620740728281331
20
-1.28235238063903
30
0.874999999998545
11
-0.60825317546824
21
-1.31250000000121
31
0.874999999998511
  0
LINE
  8
MY3DLAYER
10
-0.60825317546824
20
-1.31250000000121
30
0.874999999998511
11
-0.588388347643491
21
-1.33838834764952
31
0.874999999998483
  0
LINE
  8
MY3DLAYER
10
-0.588388347643491
20
-1.33838834764952
30
0.874999999998483
11
-0.562499999995173
21
-1.35825317547424
31
0.87499999999846
  0
LINE
  8
MY3DLAYER
10
-0.437499999995172
20
-1.35825317547419
30
0.874999999998455
11
-0.411611652346854
21
-1.33838834764944
31
0.874999999998475
  0
LINE
  8
MY3DLAYER
10
-0.562499999995173
20
-1.35825317547424
30
0.87499999999846
11
-0.532352380632977
21
-1.37074072828731
31
0.874999999998445
  0
LINE
  8
MY3DLAYER
10
-0.532352380632977
20
-1.37074072828731
30
0.874999999998445
11
-0.49999999999516
21
-1.37500000000116
31
0.874999999998439
  0
LINE
  8
MY3DLAYER
10
-0.49999999999516
20
-1.37500000000116
30
0.874999999998439
11
-0.467647619357347
21
-1.37074072828728
31
0.874999999998443
  0
LINE
  8
MY3DLAYER
10
-0.499999999994286
20
-2.37500000000123
30
0.874999999997544
11
-0.49999999999428
21
-2.37500000000136
31
0.999999999997435
  0
LINE
  8
MY3DLAYER
10
-0.467647619356475
20
-2.37074072828734
30
0.874999999997547
11
-0.467647619356469
21
-2.37074072828748
31
0.999999999997438
  0
LINE
  8
MY3DLAYER
10
-0.437499999994295
20
-2.35825317547425
30
0.874999999997559
11
-0.437499999994289
21
-2.35825317547439
31
0.999999999997451
  0
LINE
  8
MY3DLAYER
10
-0.411611652345995
20
-2.3383883476495
30
0.87499999999758
11
-0.41161165234599
21
-2.33838834764964
31
0.999999999997471
  0
LINE
  8
MY3DLAYER
10
-0.467647619357347
20
-1.37074072828728
30
0.874999999998443
11
-0.437499999995172
21
-1.35825317547419
31
0.874999999998455
  0
LINE
  8
MY3DLAYER
10
-0.411611652346854
20
-1.33838834764944
30
0.874999999998475
11
-0.391746824522132
21
-1.31250000000112
31
0.874999999998503
  0
LINE
  8
MY3DLAYER
10
-0.391746824522132
20
-1.31250000000112
30
0.874999999998503
11
-0.379259271709065
21
-1.28235238063893
31
0.874999999998535
  0
LINE
  8
MY3DLAYER
10
-0.379259271709065
20
-1.28235238063893
30
0.874999999998535
11
-0.374999999995212
21
-1.25000000000111
31
0.87499999999857
  0
LINE
  8
MY3DLAYER
10
-0.374999999995212
20
-1.25000000000111
30
0.87499999999857
11
-0.37925927170909
21
-1.2176476193633
31
0.874999999998605
  0
LINE
  8
MY3DLAYER
10
-0.37925927170909
20
-1.2176476193633
30
0.874999999998605
11
-0.391746824522185
21
-1.18750000000112
31
0.874999999998638
  0
LINE
  8
MY3DLAYER
10
-0.391746824522185
20
-1.18750000000112
30
0.874999999998638
11
-0.41161165234693
21
-1.16161165235281
31
0.874999999998667
  0
LINE
  8
MY3DLAYER
10
-0.41161165234693
20
-1.16161165235281
30
0.874999999998667
11
-0.437499999995254
21
-1.14174682452808
31
0.874999999998689
  0
LINE
  8
MY3DLAYER
10
-0.437499999995254
20
-1.14174682452808
30
0.874999999998689
11
-0.467647619357444
21
-1.12925927171501
31
0.874999999998704
  0
LINE
  8
MY3DLAYER
10
-0.467647619357444
20
-1.12925927171501
30
0.874999999998704
11
-0.499999999995261
21
-1.12500000000116
31
0.87499999999871
  0
LINE
  8
MY3DLAYER
10
-0.499999999994421
20
-2.12500000000123
30
0.874999999997815
11
-0.499999999994415
21
-2.12500000000136
31
0.999999999997706
  0
LINE
  8
MY3DLAYER
10
-0.37925927170824
20
-2.21764761936335
30
0.874999999997709
11
-0.379259271708235
21
-2.21764761936348
31
0.9999999999976
  0
LINE
  8
MY3DLAYER
10
-0.374999999994356
20
-2.25000000000116
30
0.874999999997674
11
-0.37499999999435
21
-2.2500000000013
31
0.999999999997565
  0
LINE
  8
MY3DLAYER
10
-0.391746824521335
20
-2.18750000000117
30
0.874999999997742
11
-0.39174682452133
21
-2.18750000000131
31
0.999999999997634
  0
LINE
  8
MY3DLAYER
10
-0.411611652346084
20
-2.16161165235286
30
0.874999999997771
11
-0.411611652346079
21
-2.161611652353
31
0.999999999997663
  0
LINE
  8
MY3DLAYER
10
-0.437499999994415
20
-2.14174682452814
30
0.874999999997794
11
-0.43749999999441
21
-2.14174682452828
31
0.999999999997685
  0
LINE
  8
MY3DLAYER
10
-0.620740728280471
20
-2.28235238063911
30
0.874999999997649
11
-0.620740728280466
21
-2.28235238063924
31
0.99999999999754
  0
LINE
  8
MY3DLAYER
10
-0.608253175467377
20
-2.31250000000129
30
0.874999999997616
11
-0.608253175467371
21
-2.31250000000142
31
0.999999999997507
  0
LINE
  8
MY3DLAYER
10
-0.608253175468295
20
-1.18750000000121
30
0.874999999998647
11
-0.608253175468292
21
-1.18750000000134
31
0.999999999998728
  0
LINE
  8
MY3DLAYER
10
-0.588388347643567
20
-1.16161165235288
30
0.874999999998674
11
-0.588388347643563
21
-1.16161165235301
31
0.999999999998755
  0
LINE
  8
MY3DLAYER
10
-0.620740728281357
20
-1.2176476193634
30
0.874999999998615
11
-0.620740728281353
21
-1.21764761936353
31
0.999999999998695
  0
LINE
  8
MY3DLAYER
10
-0.624999999995212
20
-1.25000000000121
30
0.87499999999858
11
-0.624999999995209
21
-1.25000000000135
31
0.999999999998661
  0
LINE
  8
MY3DLAYER
10
-0.620740728281331
20
-1.28235238063903
30
0.874999999998545
11
-0.620740728281328
21
-1.28235238063916
31
0.999999999998625
  0
LINE
  8
MY3DLAYER
10
-0.391746824521266
20
-2.31250000000117
30
0.874999999997607
11
-0.391746824521261
21
-2.31250000000131
31
0.999999999997498
  0
LINE
  8
MY3DLAYER
10
-0.379259271708205
20
-2.28235238063898
30
0.874999999997639
11
-0.3792592717082
21
-2.28235238063911
31
0.99999999999753
  0
LINE
  8
MY3DLAYER
10
-0.467647619356607
20
-2.12925927171508
30
0.874999999997809
11
-0.467647619356601
21
-2.12925927171521
31
0.9999999999977
  0
LINE
  8
MY3DLAYER
10
-0.532352380633074
20
-1.12925927171504
30
0.874999999998707
11
-0.53235238063307
21
-1.12925927171518
31
0.999999999998788
  0
LINE
  8
MY3DLAYER
10
-0.499999999995261
20
-1.12500000000116
30
0.87499999999871
11
-0.499999999995257
21
-1.1250000000013
31
0.999999999998791
  0
LINE
  8
MY3DLAYER
10
-0.467647619357347
20
-1.37074072828728
30
0.874999999998443
11
-0.467647619357343
21
-1.37074072828742
31
0.999999999998523
  0
LINE
  8
MY3DLAYER
10
-0.49999999999516
20
-1.37500000000116
30
0.874999999998439
11
-0.499999999995156
21
-1.3750000000013
31
0.99999999999852
  0
LINE
  8
MY3DLAYER
10
-0.437499999995172
20
-1.35825317547419
30
0.874999999998455
11
-0.437499999995169
21
-1.35825317547433
31
0.999999999998536
  0
LINE
  8
MY3DLAYER
10
-0.411611652346854
20
-1.33838834764944
30
0.874999999998475
11
-0.411611652346851
21
-1.33838834764958
31
0.999999999998556
  0
LINE
  8
MY3DLAYER
10
-0.391746824522132
20
-1.31250000000112
30
0.874999999998503
11
-0.391746824522128
21
-1.31250000000125
31
0.999999999998583
  0
LINE
  8
MY3DLAYER
10
-0.562499999995254
20
-1.14174682452813
30
0.874999999998695
11
-0.56249999999525
21
-1.14174682452827
31
0.999999999998775
  0
LINE
  8
MY3DLAYER
10
-0.60825317546824
20
-1.31250000000121
30
0.874999999998511
11
-0.608253175468237
21
-1.31250000000134
31
0.999999999998592
  0
LINE
  8
MY3DLAYER
10
-0.588388347643491
20
-1.33838834764952
30
0.874999999998483
11
-0.588388347643487
21
-1.33838834764965
31
0.999999999998563
  0
LINE
  8
MY3DLAYER
10
-0.562499999995173
20
-1.35825317547424
30
0.87499999999846
11
-0.56249999999517
21
-1.35825317547438
31
0.999999999998541
  0
LINE
  8
MY3DLAYER
10
-0.437499999995254
20
-1.14174682452808
30
0.874999999998689
11
-0.43749999999525
21
-1.14174682452822
31
0.99999999999877
  0
LINE
  8
MY3DLAYER
10
-0.41161165234693
20
-1.16161165235281
30
0.874999999998667
11
-0.411611652346926
21
-1.16161165235294
31
0.999999999998748
  0
LINE
  8
MY3DLAYER
10
-0.467647619357444
20
-1.12925927171501
30
0.874999999998704
11
-0.46764761935744
21
-1.12925927171515
31
0.999999999998785
  0
LINE
  8
MY3DLAYER
10
-0.624999999999785
20
-0.250000000001465
30
0.874999999999755
11
-0.620740728285897
21
-0.282352380639278
31
0.87499999999972
  0
LINE
  8
MY3DLAYER
10
-0.620740728285897
20
-0.282352380639278
30
0.87499999999972
11
-0.608253175472798
21
-0.312500000001455
31
0.874999999999687
  0
LINE
  8
MY3DLAYER
10
-0.608253175472798
20
-0.312500000001455
30
0.874999999999687
11
-0.588388347648047
21
-0.33838834764976
31
0.874999999999658
  0
LINE
  8
MY3DLAYER
10
-0.532352380632977
20
-1.37074072828731
30
0.874999999998445
11
-0.532352380632973
21
-1.37074072828744
31
0.999999999998526
  0
LINE
  8
MY3DLAYER
10
-0.379259271709065
20
-1.28235238063893
30
0.874999999998535
11
-0.379259271709061
21
-1.28235238063906
31
0.999999999998615
  0
LINE
  8
MY3DLAYER
10
-0.374999999995212
20
-1.25000000000111
30
0.87499999999857
11
-0.374999999995209
21
-1.25000000000125
31
0.99999999999865
  0
LINE
  8
MY3DLAYER
10
-0.37925927170909
20
-1.2176476193633
30
0.874999999998605
11
-0.379259271709087
21
-1.21764761936343
31
0.999999999998686
  0
LINE
  8
MY3DLAYER
10
-0.608253175472795
20
-0.31250000000159
30
0.999999999999687
11
-0.608253175472798
21
-0.312500000001455
31
0.874999999999687
  0
LINE
  8
MY3DLAYER
10
-0.620740728285893
20
-0.282352380639413
30
0.99999999999972
11
-0.620740728285897
21
-0.282352380639278
31
0.87499999999972
  0
LINE
  8
MY3DLAYER
10
-0.588388347648044
20
-0.338388347649896
30
0.999999999999658
11
-0.588388347648047
21
-0.33838834764976
31
0.874999999999658
  0
LINE
  8
MY3DLAYER
10
-0.562499999999711
20
-0.358253175474616
30
0.999999999999635
11
-0.562499999999715
21
-0.35825317547448
31
0.874999999999635
  0
LINE
  8
MY3DLAYER
10
-0.588388347648047
20
-0.33838834764976
30
0.874999999999658
11
-0.562499999999715
21
-0.35825317547448
31
0.874999999999635
  0
LINE
  8
MY3DLAYER
10
-0.53235238063752
20
-0.370740728287675
30
0.999999999999621
11
-0.532352380637524
21
-0.37074072828754
31
0.874999999999621
  0
LINE
  8
MY3DLAYER
10
-0.562499999999715
20
-0.35825317547448
30
0.874999999999635
11
-0.532352380637524
21
-0.37074072828754
31
0.874999999999621
  0
LINE
  8
MY3DLAYER
10
-0.499999999999702
20
-0.375000000001521
30
0.999999999999615
11
-0.499999999999706
21
-0.375000000001385
31
0.874999999999615
  0
LINE
  8
MY3DLAYER
10
-0.391746824522185
20
-1.18750000000112
30
0.874999999998638
11
-0.391746824522181
21
-1.18750000000125
31
0.999999999998719
  0
LINE
  8
MY3DLAYER
10
-0.532352380637524
20
-0.37074072828754
30
0.874999999999621
11
-0.499999999999706
21
-0.375000000001385
31
0.874999999999615
  0
LINE
  8
MY3DLAYER
10
-0.499999999999706
20
-0.375000000001385
30
0.874999999999615
11
-0.467647619361892
21
-0.370740728287498
31
0.874999999999618
  0
LINE
  8
MY3DLAYER
10
-0.467647619361892
20
-0.370740728287498
30
0.874999999999618
11
-0.437499999999715
21
-0.3582531754744
31
0.874999999999631
  0
LINE
  8
MY3DLAYER
10
-0.437499999999715
20
-0.3582531754744
30
0.874999999999631
11
-0.411611652351409
21
-0.338388347649647
31
0.874999999999651
  0
LINE
  8
MY3DLAYER
10
-0.411611652351409
20
-0.338388347649647
30
0.874999999999651
11
-0.39174682452669
21
-0.312500000001316
31
0.874999999999679
  0
LINE
  8
MY3DLAYER
10
-0.391746824526771
20
-0.187500000001316
30
0.874999999999815
11
-0.411611652351528
21
-0.16161165235301
31
0.874999999999843
  0
LINE
  8
MY3DLAYER
10
-0.39174682452669
20
-0.312500000001316
30
0.874999999999679
11
-0.37925927171363
21
-0.282352380639123
31
0.874999999999711
  0
LINE
  8
MY3DLAYER
10
-0.37925927171363
20
-0.282352380639123
30
0.874999999999711
11
-0.374999999999785
21
-0.250000000001305
31
0.874999999999746
  0
LINE
  8
MY3DLAYER
10
-0.379259271713627
20
-0.282352380639259
30
0.999999999999711
11
-0.37925927171363
21
-0.282352380639123
31
0.874999999999711
  0
LINE
  8
MY3DLAYER
10
-0.391746824526686
20
-0.312500000001451
30
0.999999999999679
11
-0.39174682452669
21
-0.312500000001316
31
0.874999999999679
  0
LINE
  8
MY3DLAYER
10
-0.374999999999781
20
-0.250000000001441
30
0.999999999999746
11
-0.374999999999785
21
-0.250000000001305
31
0.874999999999746
  0
LINE
  8
MY3DLAYER
10
-0.379259271713669
20
-0.217647619363629
30
0.999999999999781
11
-0.379259271713672
21
-0.217647619363493
31
0.874999999999781
  0
LINE
  8
MY3DLAYER
10
-0.374999999999785
20
-0.250000000001305
30
0.874999999999746
11
-0.379259271713672
21
-0.217647619363493
31
0.874999999999781
  0
LINE
  8
MY3DLAYER
10
-0.391746824526767
20
-0.187500000001451
30
0.999999999999814
11
-0.391746824526771
21
-0.187500000001316
31
0.874999999999815
  0
LINE
  8
MY3DLAYER
10
-0.379259271713672
20
-0.217647619363493
30
0.874999999999781
11
-0.391746824526771
21
-0.187500000001316
31
0.874999999999815
  0
LINE
  8
MY3DLAYER
10
-0.411611652351525
20
-0.161611652353146
30
0.999999999999843
11
-0.411611652351528
21
-0.16161165235301
31
0.874999999999843
  0
LINE
  8
MY3DLAYER
10
-0.411611652351528
20
-0.16161165235301
30
0.874999999999843
11
-0.437499999999854
21
-0.14174682452829
31
0.874999999999866
  0
LINE
  8
MY3DLAYER
10
-0.562499999999854
20
-0.14174682452837
30
0.874999999999871
11
-0.588388347648167
21
-0.161611652353123
31
0.87499999999985
  0
LINE
  8
MY3DLAYER
10
-0.588388347648167
20
-0.161611652353123
30
0.87499999999985
11
-0.608253175472879
21
-0.187500000001454
31
0.874999999999823
  0
LINE
  8
MY3DLAYER
10
-0.608253175472879
20
-0.187500000001454
30
0.874999999999823
11
-0.620740728285939
21
-0.217647619363647
31
0.87499999999979
  0
LINE
  8
MY3DLAYER
10
-0.620740728285939
20
-0.217647619363647
30
0.87499999999979
11
-0.624999999999785
21
-0.250000000001465
31
0.874999999999755
  0
LINE
  8
MY3DLAYER
10
-0.624999999999781
20
-0.2500000000016
30
0.999999999999755
11
-0.624999999999785
21
-0.250000000001465
31
0.874999999999755
  0
LINE
  8
MY3DLAYER
10
-0.874999999999283
20
-0.906250000001626
30
0.874999999999056
11
7.13540337926588e-013
21
-0.906250000000957
31
0.874999999999056
  0
LINE
  8
MY3DLAYER
10
-0.874999999998757
20
-1.59375000000161
30
0.874999999998323
11
-0.874999999999283
21
-0.906250000001626
31
0.874999999999056
  0
LINE
  8
MY3DLAYER
10
-0.874999999998757
20
-1.59375000000161
30
0.874999999998323
11
1.23900889548167e-012
21
-1.59375000000094
31
0.874999999998317
  0
LINE
  8
MY3DLAYER
10
-0.467647619361888
20
-0.370740728287633
30
0.999999999999618
11
-0.467647619361892
21
-0.370740728287498
31
0.874999999999618
  0
LINE
  8
MY3DLAYER
10
-0.437499999999711
20
-0.358253175474536
30
0.999999999999631
11
-0.437499999999715
21
-0.3582531754744
31
0.874999999999631
  0
LINE
  8
MY3DLAYER
10
-0.411611652351405
20
-0.338388347649783
30
0.999999999999652
11
-0.411611652351409
21
-0.338388347649647
31
0.874999999999651
  0
LINE
  8
MY3DLAYER
10
-0.874999999999283
20
-0.906250000001626
30
0.874999999999056
11
-0.874999999999283
21
-0.906250000001773
31
0.999999999999056
  0
LINE
  8
MY3DLAYER
10
-0.874999999998757
20
-1.59375000000175
30
0.999999999998294
11
-0.874999999998757
21
-1.59375000000161
31
0.874999999998323
  0
LINE
  8
MY3DLAYER
10
-0.874999999999522
20
-0.593750000001626
30
0.874999999999389
11
-0.874999999999522
21
-0.593750000001773
31
0.999999999999389
  0
LINE
  8
MY3DLAYER
10
-0.874999999999522
20
-0.593750000001626
30
0.874999999999389
11
4.74176253817404e-013
21
-0.593750000000957
31
0.874999999999389
  0
LINE
  8
MY3DLAYER
10
-0.874999999999522
20
-0.593750000001626
30
0.874999999999389
11
-0.874999999999975
21
-1.62640040324291e-012
31
0.875000000000022
  0
LINE
  8
MY3DLAYER
10
-0.608253175472876
20
-0.18750000000159
30
0.999999999999823
11
-0.608253175472879
21
-0.187500000001454
31
0.874999999999823
  0
LINE
  8
MY3DLAYER
10
-0.620740728285935
20
-0.217647619363783
30
0.999999999999791
11
-0.620740728285939
21
-0.217647619363647
31
0.87499999999979
  0
ENDSEC
  0
EOF
