 0
SECTION
 2
ENTITIES
  0
LINE
  8
MY3DLAYER
10
0.406249999999991
20
0.304126587736818
30
0.499999999999984
11
0.393305826175829
21
0.294194173824453
31
0.499999999999984
  0
LINE
  8
MY3DLAYER
10
0.999999999999944
20
0.500000000000148
30
0.624999999999953
11
0.999999999999938
21
0.500000000000154
31
0.499999999999953
  0
LINE
  8
MY3DLAYER
10
0.999999999999938
20
0.500000000000154
30
0.499999999999953
11
0.249999999999938
21
0.500000000000327
31
0.499999999999989
  0
LINE
  8
MY3DLAYER
10
0.999999999999938
20
0.500000000000154
30
0.499999999999953
11
0.999999999999823
21
1.54196100332589e-013
31
0.49999999999993
  0
LINE
  8
MY3DLAYER
10
0.249999999999859
20
0.156250000000327
30
0.499999999999972
11
0.274264285478222
21
0.159444453785721
31
0.499999999999971
  0
LINE
  8
MY3DLAYER
10
0.296874999999862
20
0.168810118395525
30
0.499999999999971
11
0.316291260736104
21
0.183708739264073
31
0.499999999999971
  0
LINE
  8
MY3DLAYER
10
0.331189881604661
20
0.203125000000308
30
0.499999999999971
11
0.340555546214475
21
0.225735714521944
31
0.499999999999971
  0
LINE
  8
MY3DLAYER
10
0.316291260736104
20
0.183708739264073
30
0.499999999999971
11
0.331189881604661
21
0.203125000000308
31
0.499999999999971
  0
LINE
  8
MY3DLAYER
10
0.316291260736135
20
0.31629126073655
30
0.499999999999977
11
0.2968749999999
21
0.331189881605107
31
0.499999999999978
  0
LINE
  8
MY3DLAYER
10
0.340555546214486
20
0.274264285478667
30
0.499999999999974
11
0.331189881604683
21
0.296875000000308
31
0.499999999999975
  0
LINE
  8
MY3DLAYER
10
0.343749999999881
20
0.250000000000305
30
0.499999999999972
11
0.340555546214486
21
0.274264285478667
31
0.499999999999974
  0
LINE
  8
MY3DLAYER
10
0.249999999999859
20
0.156250000000327
30
0.499999999999972
11
0.249999999999823
21
3.2674557504105e-013
31
0.499999999999965
  0
LINE
  8
MY3DLAYER
10
0.340555546214475
20
0.225735714521944
30
0.499999999999971
11
0.343749999999881
21
0.250000000000305
31
0.499999999999972
  0
LINE
  8
MY3DLAYER
10
0.274264285478222
20
0.159444453785721
30
0.499999999999971
11
0.296874999999862
21
0.168810118395525
31
0.499999999999971
  0
LINE
  8
MY3DLAYER
10
0.331189881604683
20
0.296875000000308
30
0.499999999999975
11
0.316291260736135
21
0.31629126073655
31
0.499999999999977
  0
LINE
  8
MY3DLAYER
10
0.2968749999999
20
0.331189881605107
30
0.499999999999978
11
0.274264285478263
21
0.340555546214921
31
0.49999999999998
  0
LINE
  8
MY3DLAYER
10
0.249999999999938
20
0.500000000000327
30
0.499999999999989
11
0.249999999999903
21
0.343750000000327
31
0.499999999999981
  0
LINE
  8
MY3DLAYER
10
0.691759271713838
20
0.21764761936241
30
0.499999999999966
11
0.704246824526909
21
0.187500000000222
31
0.499999999999964
  0
LINE
  8
MY3DLAYER
10
0.704246824526909
20
0.187500000000222
30
0.499999999999964
11
0.72411165235164
21
0.161611652351899
31
0.499999999999962
  0
LINE
  8
MY3DLAYER
10
0.687499999999979
20
0.250000000000226
30
0.499999999999968
11
0.691759271713838
21
0.21764761936241
31
0.499999999999966
  0
LINE
  8
MY3DLAYER
10
0.72411165235164
20
0.161611652351899
30
0.499999999999962
11
0.749999999999954
21
0.141746824527157
31
0.49999999999996
  0
LINE
  8
MY3DLAYER
10
0.749999999999954
20
0.141746824527157
30
0.49999999999996
11
0.780147619362136
21
0.129259271714072
31
0.499999999999958
  0
LINE
  8
MY3DLAYER
10
0.274264285478263
20
0.340555546214921
30
0.49999999999998
11
0.249999999999903
21
0.343750000000327
31
0.499999999999981
  0
LINE
  8
MY3DLAYER
10
0.780147619362136
20
0.129259271714072
30
0.499999999999958
11
0.81249999999995
21
0.125000000000197
31
0.499999999999956
  0
LINE
  8
MY3DLAYER
10
0.844852380637766
20
0.129259271714057
30
0.499999999999955
11
0.874999999999954
21
0.141746824527128
31
0.499999999999954
  0
LINE
  8
MY3DLAYER
10
0.81249999999995
20
0.125000000000197
30
0.499999999999956
11
0.844852380637766
21
0.129259271714057
31
0.499999999999955
  0
LINE
  8
MY3DLAYER
10
0.874999999999954
20
0.141746824527128
30
0.499999999999954
11
0.900888347648277
21
0.161611652351859
31
0.499999999999954
  0
LINE
  8
MY3DLAYER
10
0.933240728286119
20
0.282352380637985
30
0.499999999999958
11
0.920753175473048
21
0.312500000000172
31
0.49999999999996
  0
LINE
  8
MY3DLAYER
10
0.937499999999979
20
0.250000000000169
30
0.499999999999956
11
0.933240728286119
21
0.282352380637985
31
0.499999999999958
  0
LINE
  8
MY3DLAYER
10
0.900888347648317
20
0.338388347648495
30
0.499999999999962
11
0.875000000000004
21
0.358253175473238
31
0.499999999999964
  0
LINE
  8
MY3DLAYER
10
0.920753175473048
20
0.312500000000172
30
0.49999999999996
11
0.900888347648317
21
0.338388347648495
31
0.499999999999962
  0
LINE
  8
MY3DLAYER
10
0.875000000000004
20
0.358253175473238
30
0.499999999999964
11
0.844852380637821
21
0.370740728286323
31
0.499999999999966
  0
LINE
  8
MY3DLAYER
10
0.900888347648277
20
0.161611652351859
30
0.499999999999954
11
0.920753175473019
21
0.187500000000172
31
0.499999999999954
  0
LINE
  8
MY3DLAYER
10
0.933240728286104
20
0.217647619362355
30
0.499999999999955
11
0.937499999999979
21
0.250000000000169
31
0.499999999999956
  0
LINE
  8
MY3DLAYER
10
0.844852380637821
20
0.370740728286323
30
0.499999999999966
11
0.812500000000007
21
0.375000000000197
31
0.499999999999968
  0
LINE
  8
MY3DLAYER
10
0.920753175473019
20
0.187500000000172
30
0.499999999999954
11
0.933240728286104
21
0.217647619362355
31
0.499999999999955
  0
LINE
  8
MY3DLAYER
10
0.780147619362191
20
0.370740728286338
30
0.499999999999969
11
0.750000000000004
21
0.358253175473267
31
0.49999999999997
  0
LINE
  8
MY3DLAYER
10
0.750000000000004
20
0.358253175473267
30
0.49999999999997
11
0.724111652351681
21
0.338388347648536
31
0.49999999999997
  0
LINE
  8
MY3DLAYER
10
0.704246824526938
20
0.312500000000222
30
0.49999999999997
11
0.691759271713853
21
0.28235238063804
31
0.499999999999969
  0
LINE
  8
MY3DLAYER
10
0.691759271713853
20
0.28235238063804
30
0.499999999999969
11
0.687499999999979
21
0.250000000000226
31
0.499999999999968
  0
LINE
  8
MY3DLAYER
10
0.724111652351681
20
0.338388347648536
30
0.49999999999997
11
0.704246824526938
21
0.312500000000222
31
0.49999999999997
  0
LINE
  8
MY3DLAYER
10
0.374999999999979
20
0.250000000000298
30
0.499999999999983
11
0.377129635856908
21
0.23382380968139
31
0.499999999999982
  0
LINE
  8
MY3DLAYER
10
0.377129635856908
20
0.23382380968139
30
0.499999999999982
11
0.383373412263444
21
0.218750000000296
31
0.499999999999981
  0
LINE
  8
MY3DLAYER
10
0.393305826175809
20
0.205805826176134
30
0.49999999999998
11
0.406249999999966
21
0.195873412263764
31
0.499999999999979
  0
LINE
  8
MY3DLAYER
10
0.406249999999966
20
0.195873412263764
30
0.499999999999979
11
0.421323809681057
21
0.189629635857221
31
0.499999999999978
  0
LINE
  8
MY3DLAYER
10
0.383373412263444
20
0.218750000000296
30
0.499999999999981
11
0.393305826175809
21
0.205805826176134
31
0.49999999999998
  0
LINE
  8
MY3DLAYER
10
0.421323809681057
20
0.189629635857221
30
0.499999999999978
11
0.437499999999964
21
0.187500000000284
31
0.499999999999977
  0
LINE
  8
MY3DLAYER
10
0.491626587736499
20
0.218750000000271
30
0.499999999999976
11
0.497870364143042
21
0.233823809681362
31
0.499999999999976
  0
LINE
  8
MY3DLAYER
10
0.468749999999966
20
0.195873412263749
30
0.499999999999976
11
0.481694173824128
21
0.205805826176114
31
0.499999999999976
  0
LINE
  8
MY3DLAYER
10
0.499999999999979
20
0.250000000000269
30
0.499999999999977
11
0.497870364143049
21
0.266176190319178
31
0.499999999999978
  0
LINE
  8
MY3DLAYER
10
0.497870364143042
20
0.233823809681362
30
0.499999999999976
11
0.499999999999979
21
0.250000000000269
31
0.499999999999977
  0
LINE
  8
MY3DLAYER
10
0.481694173824128
20
0.205805826176114
30
0.499999999999976
11
0.491626587736499
21
0.218750000000271
31
0.499999999999976
  0
LINE
  8
MY3DLAYER
10
0.497870364143049
20
0.266176190319178
30
0.499999999999978
11
0.491626587736513
21
0.281250000000271
31
0.499999999999979
  0
LINE
  8
MY3DLAYER
10
0.491626587736513
20
0.281250000000271
30
0.499999999999979
11
0.481694173824148
21
0.294194173824433
31
0.49999999999998
  0
LINE
  8
MY3DLAYER
10
0.453676190318873
20
0.189629635857213
30
0.499999999999976
11
0.468749999999966
21
0.195873412263749
31
0.499999999999976
  0
LINE
  8
MY3DLAYER
10
0.481694173824148
20
0.294194173824433
30
0.49999999999998
11
0.468749999999991
21
0.304126587736804
31
0.499999999999981
  0
LINE
  8
MY3DLAYER
10
0.437499999999964
20
0.187500000000284
30
0.499999999999977
11
0.453676190318873
21
0.189629635857213
31
0.499999999999976
  0
LINE
  8
MY3DLAYER
10
0.468749999999991
20
0.304126587736804
30
0.499999999999981
11
0.453676190318901
21
0.310370364143347
31
0.499999999999982
  0
LINE
  8
MY3DLAYER
10
0.453676190318901
20
0.310370364143347
30
0.499999999999982
11
0.437499999999993
21
0.312500000000284
31
0.499999999999983
  0
LINE
  8
MY3DLAYER
10
0.812500000000007
20
0.375000000000197
30
0.499999999999968
11
0.780147619362191
21
0.370740728286338
31
0.499999999999969
  0
LINE
  8
MY3DLAYER
10
0.421323809681085
20
0.310370364143354
30
0.499999999999983
11
0.406249999999991
21
0.304126587736818
31
0.499999999999984
  0
LINE
  8
MY3DLAYER
10
0.999999999999823
20
1.54196100332589e-013
30
0.49999999999993
11
0.249999999999823
21
3.2674557504105e-013
31
0.499999999999965
  0
LINE
  8
MY3DLAYER
10
0.437499999999993
20
0.312500000000284
30
0.499999999999983
11
0.421323809681085
21
0.310370364143354
31
0.499999999999983
  0
LINE
  8
MY3DLAYER
10
0.383373412263459
20
0.281250000000296
30
0.499999999999984
11
0.377129635856916
21
0.266176190319205
31
0.499999999999983
  0
LINE
  8
MY3DLAYER
10
0.377129635856916
20
0.266176190319205
30
0.499999999999983
11
0.374999999999979
21
0.250000000000298
31
0.499999999999983
  0
LINE
  8
MY3DLAYER
10
0.393305826175829
20
0.294194173824453
30
0.499999999999984
11
0.383373412263459
21
0.281250000000296
31
0.499999999999984
  0
LINE
  8
MY3DLAYER
10
0.724111652351687
20
0.33838834764853
30
0.62499999999997
11
0.724111652351681
21
0.338388347648536
31
0.49999999999997
  0
LINE
  8
MY3DLAYER
10
0.750000000000009
20
0.358253175473261
30
0.62499999999997
11
0.724111652351687
21
0.33838834764853
31
0.62499999999997
  0
LINE
  8
MY3DLAYER
10
0.750000000000009
20
0.358253175473261
30
0.62499999999997
11
0.750000000000004
21
0.358253175473267
31
0.49999999999997
  0
LINE
  8
MY3DLAYER
10
0.704246824526944
20
0.312500000000216
30
0.62499999999997
11
0.704246824526938
21
0.312500000000222
31
0.49999999999997
  0
LINE
  8
MY3DLAYER
10
0.724111652351687
20
0.33838834764853
30
0.62499999999997
11
0.704246824526944
21
0.312500000000216
31
0.62499999999997
  0
LINE
  8
MY3DLAYER
10
0.920753175473054
20
0.312500000000167
30
0.62499999999996
11
0.920753175473048
21
0.312500000000172
31
0.49999999999996
  0
LINE
  8
MY3DLAYER
10
0.933240728286125
20
0.282352380637979
30
0.624999999999958
11
0.920753175473054
21
0.312500000000167
31
0.62499999999996
  0
LINE
  8
MY3DLAYER
10
0.933240728286125
20
0.282352380637979
30
0.624999999999958
11
0.933240728286119
21
0.282352380637985
31
0.499999999999958
  0
LINE
  8
MY3DLAYER
10
0.900888347648323
20
0.338388347648489
30
0.624999999999962
11
0.900888347648317
21
0.338388347648495
31
0.499999999999962
  0
LINE
  8
MY3DLAYER
10
0.920753175473054
20
0.312500000000167
30
0.62499999999996
11
0.900888347648323
21
0.338388347648489
31
0.624999999999962
  0
LINE
  8
MY3DLAYER
10
0.249999999999908
20
0.343750000000321
30
0.624999999999981
11
0.249999999999903
21
0.343750000000327
31
0.499999999999981
  0
LINE
  8
MY3DLAYER
10
0.249999999999944
20
0.500000000000321
30
0.624999999999989
11
0.249999999999908
21
0.343750000000321
31
0.624999999999981
  0
LINE
  8
MY3DLAYER
10
0.249999999999938
20
0.500000000000327
30
0.499999999999989
11
0.249999999999944
21
0.500000000000321
31
0.624999999999989
  0
LINE
  8
MY3DLAYER
10
0.999999999999944
20
0.500000000000148
30
0.624999999999953
11
0.999999999999829
21
1.48345311728991e-013
31
0.62499999999993
  0
LINE
  8
MY3DLAYER
10
0.999999999999829
20
1.48345311728991e-013
30
0.62499999999993
11
0.999999999999823
21
1.54196100332589e-013
31
0.49999999999993
  0
LINE
  8
MY3DLAYER
10
0.724111652351646
20
0.161611652351894
30
0.624999999999962
11
0.72411165235164
21
0.161611652351899
31
0.499999999999962
  0
LINE
  8
MY3DLAYER
10
0.704246824526915
20
0.187500000000216
30
0.624999999999964
11
0.724111652351646
21
0.161611652351894
31
0.624999999999962
  0
LINE
  8
MY3DLAYER
10
0.704246824526915
20
0.187500000000216
30
0.624999999999964
11
0.704246824526909
21
0.187500000000222
31
0.499999999999964
  0
LINE
  8
MY3DLAYER
10
0.691759271713844
20
0.217647619362404
30
0.624999999999966
11
0.704246824526915
21
0.187500000000216
31
0.624999999999964
  0
LINE
  8
MY3DLAYER
10
0.724111652351646
20
0.161611652351894
30
0.624999999999962
11
0.74999999999996
21
0.141746824527151
31
0.62499999999996
  0
LINE
  8
MY3DLAYER
10
0.74999999999996
20
0.141746824527151
30
0.62499999999996
11
0.780147619362142
21
0.129259271714066
31
0.624999999999958
  0
LINE
  8
MY3DLAYER
10
0.780147619362142
20
0.129259271714066
30
0.624999999999958
11
0.812499999999956
21
0.125000000000191
31
0.624999999999956
  0
LINE
  8
MY3DLAYER
10
0.812499999999956
20
0.125000000000191
30
0.624999999999956
11
0.844852380637772
21
0.129259271714051
31
0.624999999999955
  0
LINE
  8
MY3DLAYER
10
0.844852380637772
20
0.129259271714051
30
0.624999999999955
11
0.87499999999996
21
0.141746824527122
31
0.624999999999954
  0
LINE
  8
MY3DLAYER
10
0.249999999999829
20
3.20894786437451e-013
30
0.624999999999965
11
0.999999999999829
21
1.48345311728991e-013
31
0.62499999999993
  0
LINE
  8
MY3DLAYER
10
0.249999999999944
20
0.500000000000321
30
0.624999999999989
11
0.999999999999944
21
0.500000000000148
31
0.624999999999953
  0
LINE
  8
MY3DLAYER
10
0.87499999999996
20
0.141746824527122
30
0.624999999999954
11
0.900888347648283
21
0.161611652351853
31
0.624999999999954
  0
LINE
  8
MY3DLAYER
10
0.900888347648283
20
0.161611652351853
30
0.624999999999954
11
0.920753175473025
21
0.187500000000167
31
0.624999999999954
  0
LINE
  8
MY3DLAYER
10
0.920753175473025
20
0.187500000000167
30
0.624999999999954
11
0.93324072828611
21
0.217647619362349
31
0.624999999999955
  0
LINE
  8
MY3DLAYER
10
0.93324072828611
20
0.217647619362349
30
0.624999999999955
11
0.937499999999985
21
0.250000000000163
31
0.624999999999956
  0
LINE
  8
MY3DLAYER
10
0.937499999999985
20
0.250000000000163
30
0.624999999999956
11
0.933240728286125
21
0.282352380637979
31
0.624999999999958
  0
LINE
  8
MY3DLAYER
10
0.900888347648323
20
0.338388347648489
30
0.624999999999962
11
0.875000000000009
21
0.358253175473232
31
0.624999999999964
  0
LINE
  8
MY3DLAYER
10
0.875000000000009
20
0.358253175473232
30
0.624999999999964
11
0.844852380637827
21
0.370740728286317
31
0.624999999999966
  0
LINE
  8
MY3DLAYER
10
0.844852380637827
20
0.370740728286317
30
0.624999999999966
11
0.812500000000013
21
0.375000000000192
31
0.624999999999968
  0
LINE
  8
MY3DLAYER
10
0.812500000000013
20
0.375000000000192
30
0.624999999999968
11
0.780147619362197
21
0.370740728286332
31
0.624999999999969
  0
LINE
  8
MY3DLAYER
10
0.780147619362197
20
0.370740728286332
30
0.624999999999969
11
0.750000000000009
21
0.358253175473261
31
0.62499999999997
  0
LINE
  8
MY3DLAYER
10
0.704246824526944
20
0.312500000000216
30
0.62499999999997
11
0.691759271713859
21
0.282352380638034
31
0.624999999999969
  0
LINE
  8
MY3DLAYER
10
0.691759271713859
20
0.282352380638034
30
0.624999999999969
11
0.687499999999984
21
0.25000000000022
31
0.624999999999968
  0
LINE
  8
MY3DLAYER
10
0.691759271713844
20
0.217647619362404
30
0.624999999999966
11
0.691759271713838
21
0.21764761936241
31
0.499999999999966
  0
LINE
  8
MY3DLAYER
10
0.687499999999984
20
0.25000000000022
30
0.624999999999968
11
0.687499999999979
21
0.250000000000226
31
0.499999999999968
  0
LINE
  8
MY3DLAYER
10
0.687499999999984
20
0.25000000000022
30
0.624999999999968
11
0.691759271713844
21
0.217647619362404
31
0.624999999999966
  0
LINE
  8
MY3DLAYER
10
0.937499999999985
20
0.250000000000163
30
0.624999999999956
11
0.937499999999979
21
0.250000000000169
31
0.499999999999956
  0
LINE
  8
MY3DLAYER
10
0.74999999999996
20
0.141746824527151
30
0.62499999999996
11
0.749999999999954
21
0.141746824527157
31
0.49999999999996
  0
LINE
  8
MY3DLAYER
10
0.468749999999972
20
0.195873412263743
30
0.624999999999976
11
0.481694173824134
21
0.205805826176108
31
0.624999999999976
  0
LINE
  8
MY3DLAYER
10
0.481694173824134
20
0.205805826176108
30
0.624999999999976
11
0.491626587736504
21
0.218750000000265
31
0.624999999999976
  0
LINE
  8
MY3DLAYER
10
0.491626587736519
20
0.281250000000265
30
0.624999999999979
11
0.481694173824154
21
0.294194173824427
31
0.62499999999998
  0
LINE
  8
MY3DLAYER
10
0.491626587736504
20
0.218750000000265
30
0.624999999999976
11
0.497870364143048
21
0.233823809681356
31
0.624999999999976
  0
LINE
  8
MY3DLAYER
10
0.497870364143048
20
0.233823809681356
30
0.624999999999976
11
0.499999999999985
21
0.250000000000263
31
0.624999999999977
  0
LINE
  8
MY3DLAYER
10
0.499999999999985
20
0.250000000000263
30
0.624999999999977
11
0.497870364143055
21
0.266176190319172
31
0.624999999999978
  0
LINE
  8
MY3DLAYER
10
0.497870364143055
20
0.266176190319172
30
0.624999999999978
11
0.491626587736519
21
0.281250000000265
31
0.624999999999979
  0
LINE
  8
MY3DLAYER
10
0.812499999999956
20
0.125000000000191
30
0.624999999999956
11
0.81249999999995
21
0.125000000000197
31
0.499999999999956
  0
LINE
  8
MY3DLAYER
10
0.780147619362142
20
0.129259271714066
30
0.624999999999958
11
0.780147619362136
21
0.129259271714072
31
0.499999999999958
  0
LINE
  8
MY3DLAYER
10
0.844852380637772
20
0.129259271714051
30
0.624999999999955
11
0.844852380637766
21
0.129259271714057
31
0.499999999999955
  0
LINE
  8
MY3DLAYER
10
0.87499999999996
20
0.141746824527122
30
0.624999999999954
11
0.874999999999954
21
0.141746824527128
31
0.499999999999954
  0
LINE
  8
MY3DLAYER
10
0.900888347648283
20
0.161611652351853
30
0.624999999999954
11
0.900888347648277
21
0.161611652351859
31
0.499999999999954
  0
LINE
  8
MY3DLAYER
10
0.920753175473025
20
0.187500000000167
30
0.624999999999954
11
0.920753175473019
21
0.187500000000172
31
0.499999999999954
  0
LINE
  8
MY3DLAYER
10
0.93324072828611
20
0.217647619362349
30
0.624999999999955
11
0.933240728286104
21
0.217647619362355
31
0.499999999999955
  0
LINE
  8
MY3DLAYER
10
0.249999999999823
20
3.2674557504105e-013
30
0.499999999999965
11
0.249999999999829
21
3.20894786437451e-013
31
0.624999999999965
  0
LINE
  8
MY3DLAYER
10
0.875000000000009
20
0.358253175473232
30
0.624999999999964
11
0.875000000000004
21
0.358253175473238
31
0.499999999999964
  0
LINE
  8
MY3DLAYER
10
0.844852380637827
20
0.370740728286317
30
0.624999999999966
11
0.844852380637821
21
0.370740728286323
31
0.499999999999966
  0
LINE
  8
MY3DLAYER
10
0.812500000000013
20
0.375000000000192
30
0.624999999999968
11
0.812500000000007
21
0.375000000000197
31
0.499999999999968
  0
LINE
  8
MY3DLAYER
10
0.780147619362197
20
0.370740728286332
30
0.624999999999969
11
0.780147619362191
21
0.370740728286338
31
0.499999999999969
  0
LINE
  8
MY3DLAYER
10
0.421323809681091
20
0.310370364143348
30
0.624999999999983
11
0.406249999999997
21
0.304126587736812
31
0.624999999999984
  0
LINE
  8
MY3DLAYER
10
0.406249999999997
20
0.304126587736812
30
0.624999999999984
11
0.393305826175835
21
0.294194173824448
31
0.624999999999984
  0
LINE
  8
MY3DLAYER
10
0.393305826175835
20
0.294194173824448
30
0.624999999999984
11
0.383373412263465
21
0.28125000000029
31
0.624999999999984
  0
LINE
  8
MY3DLAYER
10
0.383373412263465
20
0.28125000000029
30
0.624999999999984
11
0.377129635856922
21
0.2661761903192
31
0.624999999999983
  0
LINE
  8
MY3DLAYER
10
0.377129635856922
20
0.2661761903192
30
0.624999999999983
11
0.374999999999985
21
0.250000000000292
31
0.624999999999983
  0
LINE
  8
MY3DLAYER
10
0.377129635856914
20
0.233823809681384
30
0.624999999999982
11
0.377129635856908
21
0.23382380968139
31
0.499999999999982
  0
LINE
  8
MY3DLAYER
10
0.374999999999985
20
0.250000000000292
30
0.624999999999983
11
0.374999999999979
21
0.250000000000298
31
0.499999999999983
  0
LINE
  8
MY3DLAYER
10
0.374999999999985
20
0.250000000000292
30
0.624999999999983
11
0.377129635856914
21
0.233823809681384
31
0.624999999999982
  0
LINE
  8
MY3DLAYER
10
0.691759271713859
20
0.282352380638034
30
0.624999999999969
11
0.691759271713853
21
0.28235238063804
31
0.499999999999969
  0
LINE
  8
MY3DLAYER
10
0.377129635856914
20
0.233823809681384
30
0.624999999999982
11
0.38337341226345
21
0.21875000000029
31
0.624999999999981
  0
LINE
  8
MY3DLAYER
10
0.38337341226345
20
0.21875000000029
30
0.624999999999981
11
0.393305826175815
21
0.205805826176128
31
0.62499999999998
  0
LINE
  8
MY3DLAYER
10
0.393305826175815
20
0.205805826176128
30
0.62499999999998
11
0.406249999999972
21
0.195873412263758
31
0.624999999999979
  0
LINE
  8
MY3DLAYER
10
0.406249999999972
20
0.195873412263758
30
0.624999999999979
11
0.421323809681063
21
0.189629635857215
31
0.624999999999978
  0
LINE
  8
MY3DLAYER
10
0.421323809681063
20
0.189629635857215
30
0.624999999999978
11
0.43749999999997
21
0.187500000000278
31
0.624999999999977
  0
LINE
  8
MY3DLAYER
10
0.43749999999997
20
0.187500000000278
30
0.624999999999977
11
0.453676190318879
21
0.189629635857207
31
0.624999999999976
  0
LINE
  8
MY3DLAYER
10
0.453676190318879
20
0.189629635857207
30
0.624999999999976
11
0.468749999999972
21
0.195873412263743
31
0.624999999999976
  0
LINE
  8
MY3DLAYER
10
0.481694173824154
20
0.294194173824427
30
0.62499999999998
11
0.468749999999997
21
0.304126587736798
31
0.624999999999981
  0
LINE
  8
MY3DLAYER
10
0.468749999999997
20
0.304126587736798
30
0.624999999999981
11
0.453676190318906
21
0.310370364143341
31
0.624999999999982
  0
LINE
  8
MY3DLAYER
10
0.481694173824134
20
0.205805826176108
30
0.624999999999976
11
0.481694173824128
21
0.205805826176114
31
0.499999999999976
  0
LINE
  8
MY3DLAYER
10
0.468749999999972
20
0.195873412263743
30
0.624999999999976
11
0.468749999999966
21
0.195873412263749
31
0.499999999999976
  0
LINE
  8
MY3DLAYER
10
0.491626587736504
20
0.218750000000265
30
0.624999999999976
11
0.491626587736499
21
0.218750000000271
31
0.499999999999976
  0
LINE
  8
MY3DLAYER
10
0.453676190318906
20
0.310370364143341
30
0.624999999999982
11
0.437499999999999
21
0.312500000000278
31
0.624999999999983
  0
LINE
  8
MY3DLAYER
10
0.437499999999999
20
0.312500000000278
30
0.624999999999983
11
0.421323809681091
21
0.310370364143348
31
0.624999999999983
  0
LINE
  8
MY3DLAYER
10
0.38337341226345
20
0.21875000000029
30
0.624999999999981
11
0.383373412263444
21
0.218750000000296
31
0.499999999999981
  0
LINE
  8
MY3DLAYER
10
0.393305826175815
20
0.205805826176128
30
0.62499999999998
11
0.393305826175809
21
0.205805826176134
31
0.49999999999998
  0
LINE
  8
MY3DLAYER
10
0.406249999999972
20
0.195873412263758
30
0.624999999999979
11
0.406249999999966
21
0.195873412263764
31
0.499999999999979
  0
LINE
  8
MY3DLAYER
10
0.421323809681063
20
0.189629635857215
30
0.624999999999978
11
0.421323809681057
21
0.189629635857221
31
0.499999999999978
  0
LINE
  8
MY3DLAYER
10
0.43749999999997
20
0.187500000000278
30
0.624999999999977
11
0.437499999999964
21
0.187500000000284
31
0.499999999999977
  0
LINE
  8
MY3DLAYER
10
0.453676190318879
20
0.189629635857207
30
0.624999999999976
11
0.453676190318873
21
0.189629635857213
31
0.499999999999976
  0
LINE
  8
MY3DLAYER
10
0.437499999999999
20
0.312500000000278
30
0.624999999999983
11
0.437499999999993
21
0.312500000000284
31
0.499999999999983
  0
LINE
  8
MY3DLAYER
10
0.453676190318906
20
0.310370364143341
30
0.624999999999982
11
0.453676190318901
21
0.310370364143347
31
0.499999999999982
  0
LINE
  8
MY3DLAYER
10
0.421323809681091
20
0.310370364143348
30
0.624999999999983
11
0.421323809681085
21
0.310370364143354
31
0.499999999999983
  0
LINE
  8
MY3DLAYER
10
0.497870364143048
20
0.233823809681356
30
0.624999999999976
11
0.497870364143042
21
0.233823809681362
31
0.499999999999976
  0
LINE
  8
MY3DLAYER
10
0.499999999999985
20
0.250000000000263
30
0.624999999999977
11
0.499999999999979
21
0.250000000000269
31
0.499999999999977
  0
LINE
  8
MY3DLAYER
10
0.497870364143055
20
0.266176190319172
30
0.624999999999978
11
0.497870364143049
21
0.266176190319178
31
0.499999999999978
  0
LINE
  8
MY3DLAYER
10
0.491626587736519
20
0.281250000000265
30
0.624999999999979
11
0.491626587736513
21
0.281250000000271
31
0.499999999999979
  0
LINE
  8
MY3DLAYER
10
0.481694173824154
20
0.294194173824427
30
0.62499999999998
11
0.481694173824148
21
0.294194173824433
31
0.49999999999998
  0
LINE
  8
MY3DLAYER
10
0.468749999999997
20
0.304126587736798
30
0.624999999999981
11
0.468749999999991
21
0.304126587736804
31
0.499999999999981
  0
LINE
  8
MY3DLAYER
10
0.296874999999868
20
0.168810118395519
30
0.624999999999971
11
0.31629126073611
21
0.183708739264067
31
0.624999999999971
  0
LINE
  8
MY3DLAYER
10
0.31629126073611
20
0.183708739264067
30
0.624999999999971
11
0.331189881604667
21
0.203125000000302
31
0.624999999999971
  0
LINE
  8
MY3DLAYER
10
0.331189881604667
20
0.203125000000302
30
0.624999999999971
11
0.340555546214481
21
0.225735714521939
31
0.624999999999971
  0
LINE
  8
MY3DLAYER
10
0.340555546214481
20
0.225735714521939
30
0.624999999999971
11
0.343749999999887
21
0.250000000000299
31
0.624999999999972
  0
LINE
  8
MY3DLAYER
10
0.274264285478269
20
0.340555546214915
30
0.62499999999998
11
0.249999999999908
21
0.343750000000321
31
0.624999999999981
  0
LINE
  8
MY3DLAYER
10
0.296874999999906
20
0.331189881605101
30
0.624999999999978
11
0.274264285478269
21
0.340555546214915
31
0.62499999999998
  0
LINE
  8
MY3DLAYER
10
0.316291260736141
20
0.316291260736544
30
0.624999999999977
11
0.296874999999906
21
0.331189881605101
31
0.624999999999978
  0
LINE
  8
MY3DLAYER
10
0.331189881604689
20
0.296875000000302
30
0.624999999999975
11
0.316291260736141
21
0.316291260736544
31
0.624999999999977
  0
LINE
  8
MY3DLAYER
10
0.340555546214492
20
0.274264285478662
30
0.624999999999974
11
0.331189881604689
21
0.296875000000302
31
0.624999999999975
  0
LINE
  8
MY3DLAYER
10
0.343749999999887
20
0.250000000000299
30
0.624999999999972
11
0.340555546214492
21
0.274264285478662
31
0.624999999999974
  0
LINE
  8
MY3DLAYER
10
0.274264285478227
20
0.159444453785715
30
0.624999999999971
11
0.296874999999868
21
0.168810118395519
31
0.624999999999971
  0
LINE
  8
MY3DLAYER
10
0.249999999999865
20
0.156250000000321
30
0.624999999999972
11
0.274264285478227
21
0.159444453785715
31
0.624999999999971
  0
LINE
  8
MY3DLAYER
10
0.249999999999865
20
0.156250000000321
30
0.624999999999972
11
0.249999999999829
21
3.20894786437451e-013
31
0.624999999999965
  0
LINE
  8
MY3DLAYER
10
0.406249999999997
20
0.304126587736812
30
0.624999999999984
11
0.406249999999991
21
0.304126587736818
31
0.499999999999984
  0
LINE
  8
MY3DLAYER
10
0.393305826175835
20
0.294194173824448
30
0.624999999999984
11
0.393305826175829
21
0.294194173824453
31
0.499999999999984
  0
LINE
  8
MY3DLAYER
10
0.383373412263465
20
0.28125000000029
30
0.624999999999984
11
0.383373412263459
21
0.281250000000296
31
0.499999999999984
  0
LINE
  8
MY3DLAYER
10
0.377129635856922
20
0.2661761903192
30
0.624999999999983
11
0.377129635856916
21
0.266176190319205
31
0.499999999999983
  0
LINE
  8
MY3DLAYER
10
0.331189881604689
20
0.296875000000302
30
0.624999999999975
11
0.331189881604683
21
0.296875000000308
31
0.499999999999975
  0
LINE
  8
MY3DLAYER
10
0.340555546214492
20
0.274264285478662
30
0.624999999999974
11
0.340555546214486
21
0.274264285478667
31
0.499999999999974
  0
LINE
  8
MY3DLAYER
10
0.316291260736141
20
0.316291260736544
30
0.624999999999977
11
0.316291260736135
21
0.31629126073655
31
0.499999999999977
  0
LINE
  8
MY3DLAYER
10
0.296874999999906
20
0.331189881605101
30
0.624999999999978
11
0.2968749999999
21
0.331189881605107
31
0.499999999999978
  0
LINE
  8
MY3DLAYER
10
0.249999999999865
20
0.156250000000321
30
0.624999999999972
11
0.249999999999859
21
0.156250000000327
31
0.499999999999972
  0
LINE
  8
MY3DLAYER
10
0.274264285478227
20
0.159444453785715
30
0.624999999999971
11
0.274264285478222
21
0.159444453785721
31
0.499999999999971
  0
LINE
  8
MY3DLAYER
10
0.296874999999868
20
0.168810118395519
30
0.624999999999971
11
0.296874999999862
21
0.168810118395525
31
0.499999999999971
  0
LINE
  8
MY3DLAYER
10
0.31629126073611
20
0.183708739264067
30
0.624999999999971
11
0.316291260736104
21
0.183708739264073
31
0.499999999999971
  0
LINE
  8
MY3DLAYER
10
0.331189881604667
20
0.203125000000302
30
0.624999999999971
11
0.331189881604661
21
0.203125000000308
31
0.499999999999971
  0
LINE
  8
MY3DLAYER
10
0.340555546214481
20
0.225735714521939
30
0.624999999999971
11
0.340555546214475
21
0.225735714521944
31
0.499999999999971
  0
LINE
  8
MY3DLAYER
10
0.343749999999887
20
0.250000000000299
30
0.624999999999972
11
0.343749999999881
21
0.250000000000305
31
0.499999999999972
  0
LINE
  8
MY3DLAYER
10
0.274264285478269
20
0.340555546214915
30
0.62499999999998
11
0.274264285478263
21
0.340555546214921
31
0.49999999999998
  0
LINE
  8
MY3DLAYER
10
0.125000000000006
20
2.11497486191092e-014
30
0.124999999999994
11
1
21
1.68420832835636e-013
31
0.124999999999953
  0
LINE
  8
MY3DLAYER
10
0.125000000000006
20
2.11497486191092e-014
30
0.124999999999994
11
0.124999999999921
21
0.500000000000021
31
0.124999999999994
  0
LINE
  8
MY3DLAYER
10
0.844852380637802
20
0.370740728286338
30
0.124999999999961
11
0.874999999999985
21
0.358253175473253
31
0.124999999999959
  0
LINE
  8
MY3DLAYER
10
0.125000000000001
20
0.141746824526969
30
0.562499999999989
11
0.125000000000002
21
0.129259271713892
31
0.532352380637804
  0
LINE
  8
MY3DLAYER
10
0.125000000000002
20
0.129259271713892
30
0.532352380637804
11
2.10098620665896e-015
21
0.129259271713873
31
0.53235238063781
  0
LINE
  8
MY3DLAYER
10
1.39800306880614e-015
20
0.141746824526949
30
0.562499999999995
11
2.10098620665896e-015
21
0.129259271713873
31
0.53235238063781
  0
LINE
  8
MY3DLAYER
10
0.125000000000001
20
0.141746824526969
30
0.562499999999989
11
1.39800306880614e-015
21
0.141746824526949
31
0.562499999999995
  0
LINE
  8
MY3DLAYER
10
0.125000000000002
20
0.129259271713892
30
0.532352380637804
11
0.125000000000001
21
0.125000000000028
31
0.499999999999988
  0
LINE
  8
MY3DLAYER
10
0.125000000000001
20
0.125000000000028
30
0.499999999999988
11
1.30776466045137e-015
21
0.125000000000009
31
0.499999999999994
  0
LINE
  8
MY3DLAYER
10
2.10098620665896e-015
20
0.129259271713873
30
0.53235238063781
11
1.30776466045137e-015
21
0.125000000000009
31
0.499999999999994
  0
LINE
  8
MY3DLAYER
10
0.125000000000001
20
0.125000000000028
30
0.499999999999988
11
0.124999999999999
21
0.129259271713895
31
0.467647619362174
  0
LINE
  8
MY3DLAYER
10
0.124999999999999
20
0.129259271713895
30
0.467647619362174
11
-9.27604832302811e-016
21
0.129259271713876
31
0.467647619362179
  0
LINE
  8
MY3DLAYER
10
1.30776466045137e-015
20
0.125000000000009
30
0.499999999999994
11
-9.27604832302811e-016
21
0.129259271713876
31
0.467647619362179
  0
LINE
  8
MY3DLAYER
10
0.124999999999999
20
0.129259271713895
30
0.467647619362174
11
0.124999999999996
21
0.141746824526975
31
0.437499999999989
  0
LINE
  8
MY3DLAYER
10
0.124999999999996
20
0.141746824526975
30
0.437499999999989
11
-4.45278553479569e-015
21
0.141746824526956
31
0.437499999999995
  0
LINE
  8
MY3DLAYER
10
-9.27604832302811e-016
20
0.129259271713876
30
0.467647619362179
11
-4.45278553479569e-015
21
0.141746824526956
31
0.437499999999995
  0
LINE
  8
MY3DLAYER
10
0.124999999999996
20
0.141746824526975
30
0.437499999999989
11
0.12499999999999
21
0.161611652351713
31
0.411611652351672
  0
LINE
  8
MY3DLAYER
10
0.12499999999999
20
0.161611652351713
30
0.411611652351672
11
-9.9157206274889e-015
21
0.161611652351693
31
0.411611652351678
  0
LINE
  8
MY3DLAYER
10
-4.45278553479569e-015
20
0.141746824526956
30
0.437499999999995
11
-9.9157206274889e-015
21
0.161611652351693
31
0.411611652351678
  0
LINE
  8
MY3DLAYER
10
0.12499999999999
20
0.161611652351713
30
0.411611652351672
11
0.124999999999986
21
0.187500000000032
31
0.391746824526937
  0
LINE
  8
MY3DLAYER
10
0.124999999999986
20
0.187500000000032
30
0.391746824526937
11
-1.43401127441604e-014
21
0.187500000000012
31
0.391746824526943
  0
LINE
  8
MY3DLAYER
10
-9.9157206274889e-015
20
0.161611652351693
30
0.411611652351678
11
-1.43401127441604e-014
21
0.187500000000012
31
0.391746824526943
  0
LINE
  8
MY3DLAYER
10
0.124999999999986
20
0.187500000000032
30
0.391746824526937
11
0.12499999999998
21
0.217647619362218
31
0.379259271713859
  0
LINE
  8
MY3DLAYER
10
0.12499999999998
20
0.217647619362218
30
0.379259271713859
11
-2.00284542412948e-014
21
0.217647619362198
31
0.379259271713865
  0
LINE
  8
MY3DLAYER
10
-1.43401127441604e-014
20
0.187500000000012
30
0.391746824526943
11
-2.00284542412948e-014
21
0.217647619362198
31
0.379259271713865
  0
LINE
  8
MY3DLAYER
10
0.12499999999998
20
0.217647619362218
30
0.379259271713859
11
0.124999999999973
21
0.250000000000033
31
0.374999999999994
  0
LINE
  8
MY3DLAYER
10
0.124999999999973
20
0.250000000000033
30
0.374999999999994
11
-2.65930940462911e-014
21
0.250000000000013
31
0.375
  0
LINE
  8
MY3DLAYER
10
-2.00284542412948e-014
20
0.217647619362198
30
0.379259271713865
11
-2.65930940462911e-014
21
0.250000000000013
31
0.375
  0
LINE
  8
MY3DLAYER
10
0.124999999999973
20
0.250000000000033
30
0.374999999999994
11
0.12499999999997
21
0.282352380637848
31
0.379259271713862
  0
LINE
  8
MY3DLAYER
10
0.12499999999997
20
0.282352380637848
30
0.379259271713862
11
-3.00944770177369e-014
21
0.282352380637828
31
0.379259271713868
  0
LINE
  8
MY3DLAYER
10
-2.65930940462911e-014
20
0.250000000000013
30
0.375
11
-3.00944770177369e-014
21
0.282352380637828
31
0.379259271713868
  0
LINE
  8
MY3DLAYER
10
0.12499999999997
20
0.282352380637848
30
0.379259271713862
11
0.124999999999964
21
0.312500000000032
31
0.391746824526942
  0
LINE
  8
MY3DLAYER
10
0.124999999999964
20
0.312500000000032
30
0.391746824526942
11
-3.63901828473013e-014
21
0.312500000000012
31
0.391746824526948
  0
LINE
  8
MY3DLAYER
10
-3.00944770177369e-014
20
0.282352380637828
30
0.379259271713868
11
-3.63901828473013e-014
21
0.312500000000012
31
0.391746824526948
  0
LINE
  8
MY3DLAYER
10
0.124999999999964
20
0.312500000000032
30
0.391746824526942
11
0.124999999999961
21
0.338388347648349
31
0.41161165235168
  0
LINE
  8
MY3DLAYER
10
0.124999999999961
20
0.338388347648349
30
0.41161165235168
11
-3.89549764319811e-014
21
0.33838834764833
31
0.411611652351686
  0
LINE
  8
MY3DLAYER
10
-3.63901828473013e-014
20
0.312500000000012
30
0.391746824526948
11
-3.89549764319811e-014
21
0.33838834764833
31
0.411611652351686
  0
LINE
  8
MY3DLAYER
10
0.124999999999961
20
0.338388347648349
30
0.41161165235168
11
0.12499999999996
21
0.358253175473085
31
0.4375
  0
LINE
  8
MY3DLAYER
10
0.12499999999996
20
0.358253175473085
30
0.4375
11
-4.02180786950844e-014
21
0.358253175473066
31
0.437500000000005
  0
LINE
  8
MY3DLAYER
10
-3.89549764319811e-014
20
0.33838834764833
30
0.411611652351686
11
-4.02180786950844e-014
21
0.358253175473066
31
0.437500000000005
  0
LINE
  8
MY3DLAYER
10
0.12499999999996
20
0.358253175473085
30
0.4375
11
0.124999999999957
21
0.370740728286162
31
0.467647619362185
  0
LINE
  8
MY3DLAYER
10
0.124999999999957
20
0.370740728286162
30
0.467647619362185
11
-4.26974186723375e-014
21
0.370740728286142
31
0.467647619362191
  0
LINE
  8
MY3DLAYER
10
-4.02180786950844e-014
20
0.358253175473066
30
0.437500000000005
11
-4.26974186723375e-014
21
0.370740728286142
31
0.467647619362191
  0
LINE
  8
MY3DLAYER
10
0.124999999999957
20
0.370740728286162
30
0.467647619362185
11
0.124999999999958
21
0.375000000000028
31
0.5
  0
LINE
  8
MY3DLAYER
10
0.124999999999958
20
0.375000000000028
30
0.5
11
-4.19041971261303e-014
21
0.375000000000009
31
0.500000000000006
  0
LINE
  8
MY3DLAYER
10
-4.26974186723375e-014
20
0.370740728286142
30
0.467647619362191
11
-4.19041971261303e-014
21
0.375000000000009
31
0.500000000000006
  0
LINE
  8
MY3DLAYER
10
0.812499999999983
20
0.375000000000213
30
-3.80806497446429e-014
11
0.844852380637797
21
0.370740728286339
31
-3.95239396766556e-014
  0
LINE
  8
MY3DLAYER
10
0.844852380637797
20
0.370740728286339
30
-3.95239396766556e-014
11
0.844852380637802
21
0.370740728286338
31
0.124999999999961
  0
LINE
  8
MY3DLAYER
10
0.812499999999989
20
0.375000000000212
30
0.124999999999962
11
0.844852380637802
21
0.370740728286338
31
0.124999999999961
  0
LINE
  8
MY3DLAYER
10
0.812499999999983
20
0.375000000000213
30
-3.80806497446429e-014
11
0.812499999999989
21
0.375000000000212
31
0.124999999999962
  0
LINE
  8
MY3DLAYER
10
0.844852380637797
20
0.370740728286339
30
-3.95239396766556e-014
11
0.874999999999979
21
0.358253175473254
31
-4.09672296086683e-014
  0
LINE
  8
MY3DLAYER
10
0.874999999999979
20
0.358253175473254
30
-4.09672296086683e-014
11
0.874999999999985
21
0.358253175473253
31
0.124999999999959
  0
LINE
  8
MY3DLAYER
10
0.874999999999979
20
0.358253175473254
30
-4.09672296086683e-014
11
0.900888347648293
21
0.338388347648511
31
-4.20774526332934e-014
  0
LINE
  8
MY3DLAYER
10
0.900888347648293
20
0.338388347648511
30
-4.20774526332934e-014
11
0.900888347648299
21
0.33838834764851
31
0.124999999999958
  0
LINE
  8
MY3DLAYER
10
0.874999999999985
20
0.358253175473253
30
0.124999999999959
11
0.900888347648299
21
0.33838834764851
31
0.124999999999958
  0
LINE
  8
MY3DLAYER
10
0.900888347648293
20
0.338388347648511
30
-4.20774526332934e-014
11
0.920753175473023
21
0.312500000000189
31
-4.30766533554561e-014
  0
LINE
  8
MY3DLAYER
10
0.920753175473023
20
0.312500000000189
30
-4.30766533554561e-014
11
0.920753175473029
21
0.312500000000188
31
0.124999999999957
  0
LINE
  8
MY3DLAYER
10
0.900888347648299
20
0.33838834764851
30
0.124999999999958
11
0.920753175473029
21
0.312500000000188
31
0.124999999999957
  0
LINE
  8
MY3DLAYER
10
0.920753175473023
20
0.312500000000189
30
-4.30766533554561e-014
11
0.933240728286095
21
0.282352380638001
31
-4.36317648677687e-014
  0
LINE
  8
MY3DLAYER
10
0.933240728286095
20
0.282352380638001
30
-4.36317648677687e-014
11
0.933240728286101
21
0.282352380638
31
0.124999999999956
  0
LINE
  8
MY3DLAYER
10
0.920753175473029
20
0.312500000000188
30
0.124999999999957
11
0.933240728286101
21
0.282352380638
31
0.124999999999956
  0
LINE
  8
MY3DLAYER
10
0.933240728286095
20
0.282352380638001
30
-4.36317648677687e-014
11
0.937499999999954
21
0.250000000000184
31
-4.38538094726937e-014
  0
LINE
  8
MY3DLAYER
10
0.937499999999954
20
0.250000000000184
30
-4.38538094726937e-014
11
0.93749999999996
21
0.250000000000184
31
0.124999999999956
  0
LINE
  8
MY3DLAYER
10
0.933240728286101
20
0.282352380638
30
0.124999999999956
11
0.93749999999996
21
0.250000000000184
31
0.124999999999956
  0
LINE
  8
MY3DLAYER
10
0.937499999999954
20
0.250000000000184
30
-4.38538094726937e-014
11
0.93324072828608
21
0.217647619362371
31
-4.36317648677687e-014
  0
LINE
  8
MY3DLAYER
10
0.93324072828608
20
0.217647619362371
30
-4.36317648677687e-014
11
0.933240728286086
21
0.21764761936237
31
0.124999999999956
  0
LINE
  8
MY3DLAYER
10
0.93749999999996
20
0.250000000000184
30
0.124999999999956
11
0.933240728286086
21
0.21764761936237
31
0.124999999999956
  0
LINE
  8
MY3DLAYER
10
0.93324072828608
20
0.217647619362371
30
-4.36317648677687e-014
11
0.920753175472995
21
0.187500000000189
31
-4.30766533554561e-014
  0
LINE
  8
MY3DLAYER
10
0.920753175472995
20
0.187500000000189
30
-4.30766533554561e-014
11
0.920753175473001
21
0.187500000000188
31
0.124999999999957
  0
LINE
  8
MY3DLAYER
10
0.933240728286086
20
0.21764761936237
30
0.124999999999956
11
0.920753175473001
21
0.187500000000188
31
0.124999999999957
  0
LINE
  8
MY3DLAYER
10
0.920753175472995
20
0.187500000000189
30
-4.30766533554561e-014
11
0.900888347648252
21
0.161611652351874
31
-4.21884749357559e-014
  0
LINE
  8
MY3DLAYER
10
0.900888347648252
20
0.161611652351874
30
-4.21884749357559e-014
11
0.900888347648258
21
0.161611652351873
31
0.124999999999958
  0
LINE
  8
MY3DLAYER
10
0.920753175473001
20
0.187500000000188
30
0.124999999999957
11
0.900888347648258
21
0.161611652351873
31
0.124999999999958
  0
LINE
  8
MY3DLAYER
10
0.900888347648252
20
0.161611652351874
30
-4.21884749357559e-014
11
0.87499999999993
21
0.141746824527144
31
-4.09672296086683e-014
  0
LINE
  8
MY3DLAYER
10
0.87499999999993
20
0.141746824527144
30
-4.09672296086683e-014
11
0.874999999999936
21
0.141746824527143
31
0.124999999999959
  0
LINE
  8
MY3DLAYER
10
0.900888347648258
20
0.161611652351873
30
0.124999999999958
11
0.874999999999936
21
0.141746824527143
31
0.124999999999959
  0
LINE
  8
MY3DLAYER
10
0.87499999999993
20
0.141746824527144
30
-4.09672296086683e-014
11
0.844852380637742
21
0.129259271714073
31
-3.95239396766556e-014
  0
LINE
  8
MY3DLAYER
10
0.844852380637742
20
0.129259271714073
30
-3.95239396766556e-014
11
0.844852380637747
21
0.129259271714072
31
0.12499999999996
  0
LINE
  8
MY3DLAYER
10
0.874999999999936
20
0.141746824527143
30
0.124999999999959
11
0.844852380637747
21
0.129259271714072
31
0.12499999999996
  0
LINE
  8
MY3DLAYER
10
0.844852380637742
20
0.129259271714073
30
-3.95239396766556e-014
11
0.812499999999926
21
0.125000000000213
31
-3.80806497446429e-014
  0
LINE
  8
MY3DLAYER
10
0.812499999999926
20
0.125000000000213
30
-3.80806497446429e-014
11
0.812499999999931
21
0.125000000000212
31
0.124999999999962
  0
LINE
  8
MY3DLAYER
10
0.844852380637747
20
0.129259271714072
30
0.12499999999996
11
0.812499999999931
21
0.125000000000212
31
0.124999999999962
  0
LINE
  8
MY3DLAYER
10
0.812499999999926
20
0.125000000000213
30
-3.80806497446429e-014
11
0.780147619362112
21
0.129259271714088
31
-3.65263375101677e-014
  0
LINE
  8
MY3DLAYER
10
0.780147619362112
20
0.129259271714088
30
-3.65263375101677e-014
11
0.780147619362117
21
0.129259271714087
31
0.124999999999963
  0
LINE
  8
MY3DLAYER
10
0.812499999999931
20
0.125000000000212
30
0.124999999999962
11
0.780147619362117
21
0.129259271714087
31
0.124999999999963
  0
LINE
  8
MY3DLAYER
10
0.999999999999915
20
0.500000000000172
30
-4.68514116391816e-014
11
0.999999999999921
21
0.500000000000168
31
0.124999999999953
  0
LINE
  8
MY3DLAYER
10
1
20
1.68420832835636e-013
30
0.124999999999953
11
0.999999999999921
21
0.500000000000168
31
0.124999999999953
  0
LINE
  8
MY3DLAYER
10
1
20
1.68420832835636e-013
30
0.124999999999953
11
0.999999999999995
21
1.71973546514437e-013
31
-4.68514116391816e-014
  0
LINE
  8
MY3DLAYER
10
0.999999999999915
20
0.500000000000172
30
-4.68514116391816e-014
11
0.999999999999995
21
1.71973546514437e-013
31
-4.68514116391816e-014
  0
LINE
  8
MY3DLAYER
10
0.124999999999921
20
0.500000000000021
30
0.124999999999994
11
0.999999999999921
21
0.500000000000168
31
0.124999999999953
  0
LINE
  8
MY3DLAYER
10
0.780147619362117
20
0.129259271714087
30
0.124999999999963
11
0.749999999999936
21
0.141746824527171
31
0.124999999999965
  0
LINE
  8
MY3DLAYER
10
0.749999999999936
20
0.141746824527171
30
0.124999999999965
11
0.724111652351621
21
0.161611652351914
31
0.124999999999966
  0
LINE
  8
MY3DLAYER
10
0.724111652351621
20
0.161611652351914
30
0.124999999999966
11
0.704246824526891
21
0.187500000000237
31
0.124999999999967
  0
LINE
  8
MY3DLAYER
10
0.704246824526891
20
0.187500000000237
30
0.124999999999967
11
0.69175927171382
21
0.217647619362425
31
0.124999999999968
  0
LINE
  8
MY3DLAYER
10
0.69175927171382
20
0.217647619362425
30
0.124999999999968
11
0.68749999999996
21
0.250000000000241
31
0.124999999999968
  0
LINE
  8
MY3DLAYER
10
0.68749999999996
20
0.250000000000241
30
0.124999999999968
11
0.691759271713835
21
0.282352380638055
31
0.124999999999968
  0
LINE
  8
MY3DLAYER
10
0.691759271713835
20
0.282352380638055
30
0.124999999999968
11
0.704246824526919
21
0.312500000000237
31
0.124999999999967
  0
LINE
  8
MY3DLAYER
10
0.704246824526919
20
0.312500000000237
30
0.124999999999967
11
0.724111652351662
21
0.338388347648551
31
0.124999999999966
  0
LINE
  8
MY3DLAYER
10
0.724111652351662
20
0.338388347648551
30
0.124999999999966
11
0.749999999999985
21
0.358253175473282
31
0.124999999999965
  0
LINE
  8
MY3DLAYER
10
0.749999999999985
20
0.358253175473282
30
0.124999999999965
11
0.780147619362172
21
0.370740728286353
31
0.124999999999964
  0
LINE
  8
MY3DLAYER
10
0.780147619362172
20
0.370740728286353
30
0.124999999999964
11
0.812499999999989
21
0.375000000000212
31
0.124999999999962
  0
LINE
  8
MY3DLAYER
10
-3.78865775557667e-014
20
0.499999999999999
30
1.0
11
4.67609891779976e-014
21
-8.88178419700125e-016
31
1.0
  0
LINE
  8
MY3DLAYER
10
4.67609891779976e-014
20
-8.88178419700125e-016
30
1.0
11
0.125000000000047
21
1.84852133600089e-014
31
0.999999999999994
  0
LINE
  8
MY3DLAYER
10
0.124999999999962
20
0.500000000000019
30
0.999999999999994
11
0.125000000000047
21
1.84852133600089e-014
31
0.999999999999994
  0
LINE
  8
MY3DLAYER
10
-3.78865775557667e-014
20
0.499999999999999
30
1.0
11
0.124999999999962
21
0.500000000000019
31
0.999999999999994
  0
LINE
  8
MY3DLAYER
10
0.125000000000047
20
1.84852133600089e-014
30
0.999999999999994
11
0.125000000000006
21
2.11497486191092e-014
31
0.124999999999994
  0
LINE
  8
MY3DLAYER
10
0.124999999999921
20
0.500000000000021
30
0.124999999999994
11
0.124999999999962
21
0.500000000000019
31
0.999999999999994
  0
LINE
  8
MY3DLAYER
10
0.124999999999958
20
0.375000000000028
30
0.5
11
0.12499999999996
21
0.370740728286159
31
0.532352380637815
  0
LINE
  8
MY3DLAYER
10
0.124999999999998
20
0.161611652351705
30
0.588388347648309
11
0.125000000000001
21
0.141746824526969
31
0.562499999999989
  0
LINE
  8
MY3DLAYER
10
0.124999999999996
20
0.187500000000022
30
0.608253175473046
11
0.124999999999998
21
0.161611652351705
31
0.588388347648309
  0
LINE
  8
MY3DLAYER
10
0.124999999999991
20
0.217647619362206
30
0.620740728286126
11
0.124999999999996
21
0.187500000000022
31
0.608253175473046
  0
LINE
  8
MY3DLAYER
10
0.124999999999985
20
0.250000000000021
30
0.624999999999994
11
0.124999999999991
21
0.217647619362206
31
0.620740728286126
  0
LINE
  8
MY3DLAYER
10
0.124999999999981
20
0.282352380637836
30
0.620740728286129
11
0.124999999999985
21
0.250000000000021
31
0.624999999999994
  0
LINE
  8
MY3DLAYER
10
0.124999999999974
20
0.312500000000022
30
0.608253175473052
11
0.124999999999981
21
0.282352380637836
31
0.620740728286129
  0
LINE
  8
MY3DLAYER
10
0.124999999999969
20
0.338388347648341
30
0.588388347648317
11
0.124999999999974
21
0.312500000000022
31
0.608253175473052
  0
LINE
  8
MY3DLAYER
10
0.124999999999966
20
0.358253175473079
30
0.5625
11
0.124999999999969
21
0.338388347648341
31
0.588388347648317
  0
LINE
  8
MY3DLAYER
10
0.12499999999996
20
0.370740728286159
30
0.532352380637815
11
0.124999999999966
21
0.358253175473079
31
0.5625
  0
LINE
  8
MY3DLAYER
10
4.67609891779976e-014
20
-8.88178419700125e-016
30
1.0
11
-4.53196508087581e-017
21
0.0
31
0.0
  0
LINE
  8
MY3DLAYER
10
-8.4692886384573e-014
20
0.5
30
0.0
11
-3.78865775557667e-014
21
0.499999999999999
31
1.0
  0
LINE
  8
MY3DLAYER
10
-8.4692886384573e-014
20
0.5
30
0.0
11
-4.53196508087581e-017
21
0.0
31
0.0
  0
LINE
  8
MY3DLAYER
10
-4.19041971261303e-014
20
0.375000000000009
30
0.500000000000006
11
-3.96688276333757e-014
21
0.370740728286139
31
0.532352380637821
  0
LINE
  8
MY3DLAYER
10
-3.96688276333757e-014
20
0.370740728286139
30
0.532352380637821
11
-3.43672900914826e-014
21
0.35825317547306
31
0.562500000000005
  0
LINE
  8
MY3DLAYER
10
-3.43672900914826e-014
20
0.35825317547306
30
0.562500000000005
11
-3.06807118381896e-014
21
0.338388347648322
31
0.588388347648323
  0
LINE
  8
MY3DLAYER
10
-3.06807118381896e-014
20
0.338388347648322
30
0.588388347648323
11
-2.62563197215181e-014
21
0.312500000000003
31
0.608253175473058
  0
LINE
  8
MY3DLAYER
10
-2.62563197215181e-014
20
0.312500000000003
30
0.608253175473058
11
-1.87916213849834e-014
21
0.282352380637817
31
0.620740728286135
  0
LINE
  8
MY3DLAYER
10
-1.87916213849834e-014
20
0.282352380637817
30
0.620740728286135
11
-1.48915168390876e-014
21
0.250000000000002
31
0.625
  0
LINE
  8
MY3DLAYER
10
-1.48915168390876e-014
20
0.250000000000002
30
0.625
11
-8.72559860854137e-015
21
0.217647619362187
31
0.620740728286132
  0
LINE
  8
MY3DLAYER
10
-8.72559860854137e-015
20
0.217647619362187
30
0.620740728286132
11
-4.20624961837721e-015
21
0.187500000000003
31
0.608253175473052
  0
LINE
  8
MY3DLAYER
10
-4.20624961837721e-015
20
0.187500000000003
30
0.608253175473052
11
-1.6414560336974e-015
21
0.161611652351685
31
0.588388347648315
  0
LINE
  8
MY3DLAYER
10
-1.6414560336974e-015
20
0.161611652351685
30
0.588388347648315
11
1.39800306880614e-015
21
0.141746824526949
31
0.562499999999995
  0
LINE
  8
MY3DLAYER
10
-8.4692886384573e-014
20
0.5
30
0.0
11
0.999999999999915
21
0.500000000000172
31
-4.68514116391816e-014
  0
LINE
  8
MY3DLAYER
10
-4.53196508087581e-017
20
0.0
30
0.0
11
0.999999999999995
21
1.71973546514437e-013
31
-4.68514116391816e-014
  0
LINE
  8
MY3DLAYER
10
0.780147619362167
20
0.370740728286354
30
-3.65263375101677e-014
11
0.812499999999983
21
0.375000000000213
31
-3.80806497446429e-014
  0
LINE
  8
MY3DLAYER
10
0.749999999999979
20
0.358253175473283
30
-3.50830475781549e-014
11
0.780147619362167
21
0.370740728286354
31
-3.65263375101677e-014
  0
LINE
  8
MY3DLAYER
10
0.724111652351656
20
0.338388347648552
30
-3.37507799486048e-014
11
0.749999999999979
21
0.358253175473283
31
-3.50830475781549e-014
  0
LINE
  8
MY3DLAYER
10
0.704246824526913
20
0.312500000000238
30
-3.29736238313671e-014
11
0.724111652351656
21
0.338388347648552
31
-3.37507799486048e-014
  0
LINE
  8
MY3DLAYER
10
0.691759271713829
20
0.282352380638056
30
-3.24185123190546e-014
11
0.704246824526913
21
0.312500000000238
31
-3.29736238313671e-014
  0
LINE
  8
MY3DLAYER
10
0.687499999999954
20
0.250000000000242
30
-3.21964677141295e-014
11
0.691759271713829
21
0.282352380638056
31
-3.24185123190546e-014
  0
LINE
  8
MY3DLAYER
10
0.691759271713814
20
0.217647619362426
30
-3.24185123190546e-014
11
0.687499999999954
21
0.250000000000242
31
-3.21964677141295e-014
  0
LINE
  8
MY3DLAYER
10
0.704246824526885
20
0.187500000000238
30
-3.29736238313671e-014
11
0.691759271713814
21
0.217647619362426
31
-3.24185123190546e-014
  0
LINE
  8
MY3DLAYER
10
0.724111652351615
20
0.161611652351915
30
-3.38618022510673e-014
11
0.704246824526885
21
0.187500000000238
31
-3.29736238313671e-014
  0
LINE
  8
MY3DLAYER
10
0.74999999999993
20
0.141746824527172
30
-3.50830475781549e-014
11
0.724111652351615
21
0.161611652351915
31
-3.38618022510673e-014
  0
LINE
  8
MY3DLAYER
10
0.780147619362112
20
0.129259271714088
30
-3.65263375101677e-014
11
0.74999999999993
21
0.141746824527172
31
-3.50830475781549e-014
  0
LINE
  8
MY3DLAYER
10
0.12499999999996
20
0.370740728286159
30
0.532352380637815
11
-3.96688276333757e-014
21
0.370740728286139
31
0.532352380637821
  0
LINE
  8
MY3DLAYER
10
0.124999999999966
20
0.358253175473079
30
0.5625
11
-3.43672900914826e-014
21
0.35825317547306
31
0.562500000000005
  0
LINE
  8
MY3DLAYER
10
0.124999999999969
20
0.338388347648341
30
0.588388347648317
11
-3.06807118381896e-014
21
0.338388347648322
31
0.588388347648323
  0
LINE
  8
MY3DLAYER
10
0.124999999999974
20
0.312500000000022
30
0.608253175473052
11
-2.62563197215181e-014
21
0.312500000000003
31
0.608253175473058
  0
LINE
  8
MY3DLAYER
10
0.124999999999981
20
0.282352380637836
30
0.620740728286129
11
-1.87916213849834e-014
21
0.282352380637817
31
0.620740728286135
  0
LINE
  8
MY3DLAYER
10
0.124999999999985
20
0.250000000000021
30
0.624999999999994
11
-1.48915168390876e-014
21
0.250000000000002
31
0.625
  0
LINE
  8
MY3DLAYER
10
0.124999999999991
20
0.217647619362206
30
0.620740728286126
11
-8.72559860854137e-015
21
0.217647619362187
31
0.620740728286132
  0
LINE
  8
MY3DLAYER
10
0.124999999999996
20
0.187500000000022
30
0.608253175473046
11
-4.20624961837721e-015
21
0.187500000000003
31
0.608253175473052
  0
LINE
  8
MY3DLAYER
10
0.124999999999998
20
0.161611652351705
30
0.588388347648309
11
-1.6414560336974e-015
21
0.161611652351685
31
0.588388347648315
  0
LINE
  8
MY3DLAYER
10
0.74999999999993
20
0.141746824527172
30
-3.50830475781549e-014
11
0.749999999999936
21
0.141746824527171
31
0.124999999999965
  0
LINE
  8
MY3DLAYER
10
0.749999999999979
20
0.358253175473283
30
-3.50830475781549e-014
11
0.749999999999985
21
0.358253175473282
31
0.124999999999965
  0
LINE
  8
MY3DLAYER
10
0.724111652351656
20
0.338388347648552
30
-3.37507799486048e-014
11
0.724111652351662
21
0.338388347648551
31
0.124999999999966
  0
LINE
  8
MY3DLAYER
10
0.780147619362167
20
0.370740728286354
30
-3.65263375101677e-014
11
0.780147619362172
21
0.370740728286353
31
0.124999999999964
  0
LINE
  8
MY3DLAYER
10
0.724111652351615
20
0.161611652351915
30
-3.38618022510673e-014
11
0.724111652351621
21
0.161611652351914
31
0.124999999999966
  0
LINE
  8
MY3DLAYER
10
0.704246824526885
20
0.187500000000238
30
-3.29736238313671e-014
11
0.704246824526891
21
0.187500000000237
31
0.124999999999967
  0
LINE
  8
MY3DLAYER
10
0.691759271713814
20
0.217647619362426
30
-3.24185123190546e-014
11
0.69175927171382
21
0.217647619362425
31
0.124999999999968
  0
LINE
  8
MY3DLAYER
10
0.687499999999954
20
0.250000000000242
30
-3.21964677141295e-014
11
0.68749999999996
21
0.250000000000241
31
0.124999999999968
  0
LINE
  8
MY3DLAYER
10
0.691759271713829
20
0.282352380638056
30
-3.24185123190546e-014
11
0.691759271713835
21
0.282352380638055
31
0.124999999999968
  0
LINE
  8
MY3DLAYER
10
0.704246824526913
20
0.312500000000238
30
-3.29736238313671e-014
11
0.704246824526919
21
0.312500000000237
31
0.124999999999967
  0
LINE
  8
MY3DLAYER
10
0.624999999999904
20
0.100000000000021
30
0.187499999999819
11
0.624999999999904
21
0.0375000000000212
31
0.187499999999819
  0
LINE
  8
MY3DLAYER
10
0.624999999999934
20
0.100000000000021
30
0.249999999999819
11
0.624999999999904
21
0.100000000000021
31
0.187499999999819
  0
LINE
  8
MY3DLAYER
10
0.249999999999963
20
0.462500000000021
30
0.312499999999994
11
0.249999999999904
21
0.462500000000021
31
0.187499999999994
  0
LINE
  8
MY3DLAYER
10
0.249999999999963
20
0.0375000000000212
30
0.312499999999994
11
0.624999999999963
21
0.0375000000000212
31
0.312499999999819
  0
LINE
  8
MY3DLAYER
10
0.624999999999963
20
0.462500000000021
30
0.312499999999819
11
0.624999999999963
21
0.0375000000000212
31
0.312499999999819
  0
LINE
  8
MY3DLAYER
10
0.624999999999963
20
0.462500000000021
30
0.312499999999819
11
0.624999999999904
21
0.462500000000021
31
0.187499999999819
  0
LINE
  8
MY3DLAYER
10
0.249999999999963
20
0.462500000000021
30
0.312499999999994
11
0.249999999999963
21
0.0375000000000212
31
0.312499999999994
  0
LINE
  8
MY3DLAYER
10
0.249999999999963
20
0.462500000000021
30
0.312499999999994
11
0.624999999999963
21
0.462500000000021
31
0.312499999999819
  0
LINE
  8
MY3DLAYER
10
0.249999999999904
20
0.462500000000021
30
0.187499999999994
11
0.624999999999904
21
0.462500000000021
31
0.187499999999819
  0
LINE
  8
MY3DLAYER
10
0.624999999999904
20
0.400000000000021
30
0.187499999999819
11
0.624999999999904
21
0.462500000000021
31
0.187499999999819
  0
LINE
  8
MY3DLAYER
10
0.624999999999904
20
0.0375000000000212
30
0.187499999999819
11
0.624999999999963
21
0.0375000000000212
31
0.312499999999819
  0
LINE
  8
MY3DLAYER
10
0.624999999999934
20
0.200000000000021
30
0.249999999999819
11
0.624999999999934
21
0.100000000000021
31
0.249999999999819
  0
LINE
  8
MY3DLAYER
10
0.624999999999934
20
0.200000000000021
30
0.249999999999819
11
0.624999999999904
21
0.200000000000021
31
0.187499999999819
  0
LINE
  8
MY3DLAYER
10
0.624999999999904
20
0.200000000000021
30
0.187499999999819
11
0.624999999999904
21
0.300000000000021
31
0.187499999999819
  0
LINE
  8
MY3DLAYER
10
0.624999999999904
20
0.300000000000021
30
0.187499999999819
11
0.624999999999934
21
0.300000000000021
31
0.249999999999819
  0
LINE
  8
MY3DLAYER
10
0.624999999999934
20
0.300000000000021
30
0.249999999999819
11
0.624999999999934
21
0.400000000000021
31
0.249999999999819
  0
LINE
  8
MY3DLAYER
10
0.624999999999934
20
0.400000000000021
30
0.249999999999819
11
0.624999999999904
21
0.400000000000021
31
0.187499999999819
  0
LINE
  8
MY3DLAYER
10
0.249999999999934
20
0.400000000000021
30
0.249999999999994
11
0.249999999999904
21
0.400000000000021
31
0.187499999999994
  0
LINE
  8
MY3DLAYER
10
0.249999999999904
20
0.400000000000021
30
0.187499999999994
11
0.624999999999904
21
0.400000000000021
31
0.187499999999819
  0
LINE
  8
MY3DLAYER
10
0.249999999999934
20
0.400000000000021
30
0.249999999999994
11
0.624999999999934
21
0.400000000000021
31
0.249999999999819
  0
LINE
  8
MY3DLAYER
10
0.249999999999934
20
0.200000000000021
30
0.249999999999994
11
0.249999999999934
21
0.100000000000021
31
0.249999999999994
  0
LINE
  8
MY3DLAYER
10
0.249999999999934
20
0.200000000000021
30
0.249999999999994
11
0.624999999999934
21
0.200000000000021
31
0.249999999999819
  0
LINE
  8
MY3DLAYER
10
0.249999999999934
20
0.100000000000021
30
0.249999999999994
11
0.624999999999934
21
0.100000000000021
31
0.249999999999819
  0
LINE
  8
MY3DLAYER
10
0.249999999999904
20
0.400000000000021
30
0.187499999999994
11
0.249999999999904
21
0.462500000000021
31
0.187499999999994
  0
LINE
  8
MY3DLAYER
10
0.249999999999934
20
0.300000000000021
30
0.249999999999994
11
0.249999999999934
21
0.400000000000021
31
0.249999999999994
  0
LINE
  8
MY3DLAYER
10
0.249999999999904
20
0.300000000000021
30
0.187499999999994
11
0.249999999999934
21
0.300000000000021
31
0.249999999999994
  0
LINE
  8
MY3DLAYER
10
0.249999999999904
20
0.200000000000021
30
0.187499999999994
11
0.249999999999904
21
0.300000000000021
31
0.187499999999994
  0
LINE
  8
MY3DLAYER
10
0.249999999999934
20
0.200000000000021
30
0.249999999999994
11
0.249999999999904
21
0.200000000000021
31
0.187499999999994
  0
LINE
  8
MY3DLAYER
10
0.249999999999934
20
0.100000000000021
30
0.249999999999994
11
0.249999999999904
21
0.100000000000021
31
0.187499999999994
  0
LINE
  8
MY3DLAYER
10
0.249999999999904
20
0.100000000000021
30
0.187499999999994
11
0.249999999999904
21
0.0375000000000212
31
0.187499999999994
  0
LINE
  8
MY3DLAYER
10
0.249999999999904
20
0.0375000000000212
30
0.187499999999994
11
0.249999999999963
21
0.0375000000000212
31
0.312499999999994
  0
LINE
  8
MY3DLAYER
10
0.249999999999904
20
0.200000000000021
30
0.187499999999994
11
0.624999999999904
21
0.200000000000021
31
0.187499999999819
  0
LINE
  8
MY3DLAYER
10
0.249999999999934
20
0.300000000000021
30
0.249999999999994
11
0.624999999999934
21
0.300000000000021
31
0.249999999999819
  0
LINE
  8
MY3DLAYER
10
0.249999999999904
20
0.300000000000021
30
0.187499999999994
11
0.624999999999904
21
0.300000000000021
31
0.187499999999819
  0
LINE
  8
MY3DLAYER
10
0.249999999999904
20
0.100000000000021
30
0.187499999999994
11
0.624999999999904
21
0.100000000000021
31
0.187499999999819
  0
LINE
  8
MY3DLAYER
10
0.249999999999904
20
0.0375000000000212
30
0.187499999999994
11
0.624999999999904
21
0.0375000000000212
31
0.187499999999819
  0
ENDSEC
  0
EOF
