 0
SECTION
 2
ENTITIES
  0
LINE
  8
MY3DLAYER
10
0.999999999999995
20
-0.406249999999029
30
0.662379763209577
11
0.999999999999998
21
-0.451471429042306
31
0.681111092429195
  0
LINE
  8
MY3DLAYER
10
1.00000000000001
20
-0.662379763208611
30
0.593749999999995
11
1.00000000000001
21
-0.681111092428229
31
0.548528570956717
  0
LINE
  8
MY3DLAYER
10
1.00000000000004
20
-0.868953695811792
30
0.356694170597819
11
1.00000000000004
21
-0.87888610972416
31
0.34374999677366
  0
LINE
  8
MY3DLAYER
10
1.00000000000004
20
-0.856009521987633
30
0.366626584510187
11
1.00000000000004
21
-0.868953695811792
31
0.356694170597819
  0
LINE
  8
MY3DLAYER
10
0.999999997661418
20
-0.229367055342742
30
0.281250003225992
11
0.999999997722725
21
-0.219434641430374
31
0.268305829401833
  0
LINE
  8
MY3DLAYER
10
0.99999999762288
20
-0.235610831749281
30
0.296323812907084
11
0.999999997661418
21
-0.229367055342742
31
0.281250003225992
  0
LINE
  8
MY3DLAYER
10
0.999999997609735
20
-0.237740467606214
30
0.312500003225992
11
0.99999999762288
21
-0.235610831749281
31
0.296323812907084
  0
LINE
  8
MY3DLAYER
10
0.99999999762288
20
-0.235610831749281
30
0.328676193544899
11
0.999999997609735
21
-0.237740467606214
31
0.312500003225992
  0
LINE
  8
MY3DLAYER
10
0.999999997661418
20
-0.229367055342742
30
0.343750003225992
11
0.99999999762288
21
-0.235610831749281
31
0.328676193544899
  0
LINE
  8
MY3DLAYER
10
0.999999997722725
20
-0.219434641430374
30
0.356694177050151
11
0.999999997661418
21
-0.229367055342742
31
0.343750003225992
  0
LINE
  8
MY3DLAYER
10
1.00000000000001
20
-0.681111092428229
30
0.548528570956717
11
0.875000000000012
21
-0.681111092428237
31
0.548528570956718
  0
LINE
  8
MY3DLAYER
10
0.875000000000011
20
-0.662379763208619
30
0.593749999999995
11
0.875000000000012
21
-0.681111092428237
31
0.548528570956718
  0
LINE
  8
MY3DLAYER
10
1.00000000000001
20
-0.662379763208611
30
0.593749999999995
11
0.875000000000011
21
-0.662379763208619
31
0.593749999999995
  0
LINE
  8
MY3DLAYER
10
0.999999997802621
20
-0.206490467606214
30
0.366626590962519
11
0.999999997722725
21
-0.219434641430374
31
0.356694177050151
  0
LINE
  8
MY3DLAYER
10
0.999999997895662
20
-0.191416657925122
30
0.372870367369059
11
0.999999997802621
21
-0.206490467606214
31
0.366626590962519
  0
LINE
  8
MY3DLAYER
10
0.999999997995507
20
-0.175240467606214
30
0.375000003225992
11
0.999999997895662
21
-0.191416657925122
31
0.372870367369059
  0
LINE
  8
MY3DLAYER
10
0.999999998095352
20
-0.159064277287307
30
0.372870367369059
11
0.999999997995507
21
-0.175240467606214
31
0.375000003225992
  0
LINE
  8
MY3DLAYER
10
0.999999998188393
20
-0.143990467606214
30
0.366626590962519
11
0.999999998095352
21
-0.159064277287307
31
0.372870367369059
  0
LINE
  8
MY3DLAYER
10
0.999999998268289
20
-0.131046293782055
30
0.356694177050151
11
0.999999998188393
21
-0.143990467606214
31
0.366626590962519
  0
LINE
  8
MY3DLAYER
10
0.999999998329596
20
-0.121113879869687
30
0.343750003225992
11
0.999999998268289
21
-0.131046293782055
31
0.356694177050151
  0
LINE
  8
MY3DLAYER
10
0.999999998368135
20
-0.114870103463148
30
0.328676193544899
11
0.999999998329596
21
-0.121113879869687
31
0.343750003225992
  0
LINE
  8
MY3DLAYER
10
1.00000000000004
20
-0.887259521987633
30
0.31249999677366
11
1.00000000000004
21
-0.8851298861307
31
0.296323806454752
  0
LINE
  8
MY3DLAYER
10
1.00000000000004
20
-0.8851298861307
30
0.328676187092568
11
1.00000000000004
21
-0.887259521987633
31
0.31249999677366
  0
LINE
  8
MY3DLAYER
10
1.00000000000004
20
-0.87888610972416
30
0.34374999677366
11
1.00000000000004
21
-0.8851298861307
31
0.328676187092568
  0
LINE
  8
MY3DLAYER
10
0.999999999999988
20
-0.312499999999029
30
0.499999999999995
11
0.874999999999988
21
-0.312499999999037
31
0.499999999999995
  0
LINE
  8
MY3DLAYER
10
0.874999999999988
20
-0.318888907569836
30
0.451471429043272
11
0.874999999999988
21
-0.312499999999037
31
0.499999999999995
  0
LINE
  8
MY3DLAYER
10
0.999999999999988
20
-0.318888907569828
30
0.451471429043272
11
0.874999999999988
21
-0.318888907569836
31
0.451471429043272
  0
LINE
  8
MY3DLAYER
10
1.00000000000004
20
-0.84093571230654
30
0.372870360916727
11
1.00000000000004
21
-0.856009521987633
31
0.366626584510187
  0
LINE
  8
MY3DLAYER
10
1.00000000000004
20
-0.824759521987633
30
0.37499999677366
11
1.00000000000004
21
-0.84093571230654
31
0.372870360916727
  0
LINE
  8
MY3DLAYER
10
1.00000000000004
20
-0.808583331668725
30
0.372870360916727
11
1.00000000000004
21
-0.824759521987633
31
0.37499999677366
  0
LINE
  8
MY3DLAYER
10
1.00000000000003
20
-0.793509521987633
30
0.366626584510187
11
1.00000000000004
21
-0.808583331668725
31
0.372870360916727
  0
LINE
  8
MY3DLAYER
10
1.00000000000003
20
-0.780565348163474
30
0.356694170597819
11
1.00000000000003
21
-0.793509521987633
31
0.366626584510187
  0
LINE
  8
MY3DLAYER
10
1.00000000000003
20
-0.770632934251105
30
0.34374999677366
11
1.00000000000003
21
-0.780565348163474
31
0.356694170597819
  0
LINE
  8
MY3DLAYER
10
1.00000000000003
20
-0.764389157844566
30
0.328676187092567
11
1.00000000000003
21
-0.770632934251105
31
0.34374999677366
  0
LINE
  8
MY3DLAYER
10
1.00000000000003
20
-0.762259521987633
30
0.31249999677366
11
1.00000000000003
21
-0.764389157844566
31
0.328676187092567
  0
LINE
  8
MY3DLAYER
10
1.00000000000003
20
-0.764389157844566
30
0.296323806454752
11
1.00000000000003
21
-0.762259521987633
31
0.31249999677366
  0
LINE
  8
MY3DLAYER
10
1.00000000000003
20
-0.770632934251105
30
0.28124999677366
11
1.00000000000003
21
-0.764389157844566
31
0.296323806454752
  0
LINE
  8
MY3DLAYER
10
1.00000000000003
20
-0.780565348163474
30
0.268305822949501
11
1.00000000000003
21
-0.770632934251105
31
0.28124999677366
  0
LINE
  8
MY3DLAYER
10
1.00000000000003
20
-0.793509521987633
30
0.258373409037133
11
1.00000000000003
21
-0.780565348163474
31
0.268305822949501
  0
LINE
  8
MY3DLAYER
10
1.00000000000003
20
-0.808583331668725
30
0.252129632630593
11
1.00000000000003
21
-0.793509521987633
31
0.258373409037133
  0
LINE
  8
MY3DLAYER
10
1.00000000000004
20
-0.824759521987633
30
0.24999999677366
11
1.00000000000003
21
-0.808583331668725
31
0.252129632630593
  0
LINE
  8
MY3DLAYER
10
1.00000000000004
20
-0.84093571230654
30
0.252129632630593
11
1.00000000000004
21
-0.824759521987633
31
0.24999999677366
  0
LINE
  8
MY3DLAYER
10
1.00000000000004
20
-0.856009521987633
30
0.258373409037133
11
1.00000000000004
21
-0.84093571230654
31
0.252129632630593
  0
LINE
  8
MY3DLAYER
10
1.00000000000004
20
-0.868953695811792
30
0.268305822949501
11
1.00000000000004
21
-0.856009521987633
31
0.258373409037133
  0
LINE
  8
MY3DLAYER
10
1.00000000000004
20
-0.87888610972416
30
0.28124999677366
11
1.00000000000004
21
-0.868953695811792
31
0.268305822949501
  0
LINE
  8
MY3DLAYER
10
1.00000000000004
20
-0.8851298861307
30
0.296323806454752
11
1.00000000000004
21
-0.87888610972416
31
0.28124999677366
  0
LINE
  8
MY3DLAYER
10
0.999999999999988
20
-0.318888907569828
30
0.451471429043272
11
0.999999999999988
21
-0.312499999999029
31
0.499999999999995
  0
LINE
  8
MY3DLAYER
10
0.62074072828619
20
-0.53235238063656
30
-1.86851752110827e-013
11
0.608253175473111
21
-0.562499999998737
31
-1.97065803937378e-013
  0
LINE
  8
MY3DLAYER
10
0.625000000000053
20
-0.499999999998737
30
-1.768597448892e-013
11
0.62074072828619
21
-0.53235238063656
31
-1.86851752110827e-013
  0
LINE
  8
MY3DLAYER
10
0.620740728286188
20
-0.46764761936093
30
-1.65091380828174e-013
11
0.625000000000053
21
-0.499999999998737
31
-1.768597448892e-013
  0
LINE
  8
MY3DLAYER
10
0.875000000000002
20
-0.499999999999037
30
0.687499999999995
11
0.875000000000004
21
-0.548528570955759
31
0.681111092429196
  0
LINE
  8
MY3DLAYER
10
0.875000000000004
20
-0.548528570955759
30
0.681111092429196
11
0.875000000000007
21
-0.593749999999037
31
0.662379763209577
  0
LINE
  8
MY3DLAYER
10
0.875000000000007
20
-0.593749999999037
30
0.662379763209577
11
0.875000000000009
21
-0.632582521471515
31
0.632582521472473
  0
LINE
  8
MY3DLAYER
10
0.875000000000012
20
-0.681111092428237
30
0.548528570956718
11
0.875000000000012
21
-0.687499999999037
31
0.499999999999995
  0
LINE
  8
MY3DLAYER
10
0.999999999999989
20
-0.337620236789446
30
0.406249999999994
11
0.999999999999988
21
-0.318888907569828
31
0.451471429043272
  0
LINE
  8
MY3DLAYER
10
0.874999999999989
20
-0.337620236789454
30
0.406249999999995
11
0.874999999999988
21
-0.318888907569836
31
0.451471429043272
  0
LINE
  8
MY3DLAYER
10
0.999999999999989
20
-0.337620236789446
30
0.406249999999994
11
0.874999999999989
21
-0.337620236789454
31
0.406249999999995
  0
LINE
  8
MY3DLAYER
10
1.00000000000001
20
-0.632582521471507
30
0.632582521472472
11
1.00000000000001
21
-0.662379763208611
31
0.593749999999995
  0
LINE
  8
MY3DLAYER
10
0.875000000000009
20
-0.632582521471515
30
0.632582521472473
11
0.875000000000011
21
-0.662379763208619
31
0.593749999999995
  0
LINE
  8
MY3DLAYER
10
1.00000000000001
20
-0.632582521471507
30
0.632582521472472
11
0.875000000000009
21
-0.632582521471515
31
0.632582521472473
  0
LINE
  8
MY3DLAYER
10
0.875000000000004
20
-2.66786592817425e-013
30
0.999999999999994
11
0.875000000000071
21
-0.999999999997798
31
0.999999999999651
  0
LINE
  8
MY3DLAYER
10
0.0
20
9.99200722162641e-016
30
-1.2170664130528e-018
11
6.57252030578093e-014
21
-0.999999999997516
31
-3.39174351089398e-013
  0
LINE
  8
MY3DLAYER
10
1.0
20
6.09512440519211e-014
30
-5.77437679446387e-015
11
0.0
21
9.99200722162641e-016
31
-1.2170664130528e-018
  0
LINE
  8
MY3DLAYER
10
1.00000000000006
20
-0.999999999997447
30
-3.44947510817449e-013
11
1.0
21
6.09512440519211e-014
31
-5.77437679446387e-015
  0
LINE
  8
MY3DLAYER
10
6.57252030578093e-014
20
-0.999999999997516
30
-3.39174351089398e-013
11
1.00000000000006
21
-0.999999999997447
31
-3.44947510817449e-013
  0
LINE
  8
MY3DLAYER
10
0.50000000000005
20
-0.624999999998746
30
-2.17715952195406e-013
11
0.467647619362243
21
-0.620740728284883
31
-2.15939595356006e-013
  0
LINE
  8
MY3DLAYER
10
0.532352380637873
20
-0.620740728284872
30
-2.14385283121531e-013
11
0.50000000000005
21
-0.624999999998746
31
-2.17715952195406e-013
  0
LINE
  8
MY3DLAYER
10
0.562500000000059
20
-0.608253175471802
30
-2.1038848023288e-013
11
0.532352380637873
21
-0.620740728284872
31
-2.14385283121531e-013
  0
LINE
  8
MY3DLAYER
10
0.588388347648369
20
-0.588388347647056
30
-2.0639167734423e-013
11
0.562500000000059
21
-0.608253175471802
31
-2.1038848023288e-013
  0
LINE
  8
MY3DLAYER
10
0.608253175473111
20
-0.562499999998737
30
-1.97065803937378e-013
11
0.588388347648369
21
-0.588388347647056
31
-2.0639167734423e-013
  0
LINE
  8
MY3DLAYER
10
0.608253175473102
20
-0.437499999998737
30
-1.52878927557297e-013
11
0.620740728286188
21
-0.46764761936093
31
-1.65091380828174e-013
  0
LINE
  8
MY3DLAYER
10
0.588388347648371
20
-0.41161165235042
30
-1.45995544804621e-013
11
0.608253175473102
21
-0.437499999998737
31
-1.52878927557297e-013
  0
LINE
  8
MY3DLAYER
10
0.562500000000053
20
-0.391746824525692
30
-1.3711376060762e-013
11
0.588388347648371
21
-0.41161165235042
31
-1.45995544804621e-013
  0
LINE
  8
MY3DLAYER
10
0.532352380637867
20
-0.379259271712606
30
-1.34671269953445e-013
11
0.562500000000053
21
-0.391746824525692
31
-1.3711376060762e-013
  0
LINE
  8
MY3DLAYER
10
0.500000000000052
20
-0.374999999998746
30
-1.33116957718969e-013
11
0.532352380637867
21
-0.379259271712606
31
-1.34671269953445e-013
  0
LINE
  8
MY3DLAYER
10
0.467647619362237
20
-0.379259271712616
30
-1.34227180743594e-013
11
0.500000000000052
21
-0.374999999998746
31
-1.33116957718969e-013
  0
LINE
  8
MY3DLAYER
10
0.437500000000053
20
-0.391746824525687
30
-1.39112162051945e-013
11
0.467647619362237
21
-0.379259271712616
31
-1.34227180743594e-013
  0
LINE
  8
MY3DLAYER
10
0.411611652351734
20
-0.411611652350432
30
-1.43108964940596e-013
11
0.437500000000053
21
-0.391746824525687
31
-1.39112162051945e-013
  0
LINE
  8
MY3DLAYER
10
0.391746824526992
20
-0.437499999998748
30
-1.53545061372072e-013
11
0.411611652351734
21
-0.411611652350432
31
-1.43108964940596e-013
  0
LINE
  8
MY3DLAYER
10
0.37925927171392
20
-0.467647619360935
30
-1.61760711754298e-013
11
0.391746824526992
21
-0.437499999998748
31
-1.53545061372072e-013
  0
LINE
  8
MY3DLAYER
10
0.375000000000055
20
-0.499999999998751
30
-1.7463929883995e-013
11
0.37925927171392
21
-0.467647619360935
31
-1.61760711754298e-013
  0
LINE
  8
MY3DLAYER
10
0.379259271713922
20
-0.532352380636565
30
-1.85519484481277e-013
11
0.375000000000055
21
-0.499999999998751
31
-1.7463929883995e-013
  0
LINE
  8
MY3DLAYER
10
0.391746824527001
20
-0.562499999998748
30
-1.96621714727528e-013
11
0.379259271713922
21
-0.532352380636565
31
-1.85519484481277e-013
  0
LINE
  8
MY3DLAYER
10
0.411611652351732
20
-0.588388347647068
30
-2.04615320504829e-013
11
0.391746824527001
21
-0.562499999998748
31
-1.96621714727528e-013
  0
LINE
  8
MY3DLAYER
10
0.437500000000059
20
-0.608253175471796
30
-2.12386881677206e-013
11
0.411611652351732
21
-0.588388347647068
31
-2.04615320504829e-013
  0
LINE
  8
MY3DLAYER
10
0.467647619362243
20
-0.620740728284883
30
-2.15939595356006e-013
11
0.437500000000059
21
-0.608253175471796
31
-2.12386881677206e-013
  0
LINE
  8
MY3DLAYER
10
1.00000000000005
20
-0.544194174980509
30
0.830805826175667
11
1.00000000000004
21
-0.53125000115635
31
0.820873412263298
  0
LINE
  8
MY3DLAYER
10
1.00000000000005
20
-0.554126588892878
30
0.843749999999826
11
1.00000000000005
21
-0.544194174980509
31
0.830805826175667
  0
LINE
  8
MY3DLAYER
10
0.999999999999993
20
-0.406249999999029
30
0.337620236790412
11
0.999999999999991
21
-0.367417478526551
31
0.367417478527517
  0
LINE
  8
MY3DLAYER
10
1.00000000000001
20
-0.687499999999029
30
0.499999999999995
11
1.00000000000001
21
-0.681111092428229
31
0.451471429043272
  0
LINE
  8
MY3DLAYER
10
1.00000000000001
20
-0.593749999999029
30
0.662379763209577
11
1.00000000000001
21
-0.632582521471507
31
0.632582521472472
  0
LINE
  8
MY3DLAYER
10
1.00000000000001
20
-0.681111092428229
30
0.548528570956717
11
1.00000000000001
21
-0.687499999999029
31
0.499999999999995
  0
LINE
  8
MY3DLAYER
10
1
20
-0.548528570955752
30
0.318888907570794
11
0.999999999999998
21
-0.499999999999029
31
0.312499999999995
  0
LINE
  8
MY3DLAYER
10
1.00000000000001
20
-0.593749999999029
30
0.337620236790412
11
1
21
-0.548528570955752
31
0.318888907570794
  0
LINE
  8
MY3DLAYER
10
1.00000000000001
20
-0.662379763208611
30
0.406249999999995
11
1.00000000000001
21
-0.632582521471507
31
0.367417478527517
  0
LINE
  8
MY3DLAYER
10
0.999999999999988
20
-0.312499999999029
30
0.499999999999995
11
0.999999999999988
21
-0.318888907569828
31
0.548528570956717
  0
LINE
  8
MY3DLAYER
10
1.00000000000004
20
-0.46875000115635
30
0.929126587736353
11
1.00000000000004
21
-0.483823810837443
31
0.935370364142893
  0
LINE
  8
MY3DLAYER
10
1.00000000000004
20
-0.455805827332191
30
0.919194173823985
11
1.00000000000004
21
-0.46875000115635
31
0.929126587736353
  0
LINE
  8
MY3DLAYER
10
1.00000000000004
20
-0.445873413419823
30
0.906249999999826
11
1.00000000000004
21
-0.455805827332191
31
0.919194173823985
  0
LINE
  8
MY3DLAYER
10
1.00000000000004
20
-0.439629637013283
30
0.891176190318733
11
1.00000000000004
21
-0.445873413419823
31
0.906249999999826
  0
LINE
  8
MY3DLAYER
10
1.00000000000001
20
-0.681111092428229
30
0.451471429043272
11
1.00000000000001
21
-0.662379763208611
31
0.406249999999995
  0
LINE
  8
MY3DLAYER
10
1.0
20
6.09512440519211e-014
30
-5.77437679446387e-015
11
1
21
-2.72115663335626e-013
31
0.999999999999995
  0
LINE
  8
MY3DLAYER
10
1.00000000000001
20
-0.632582521471507
30
0.367417478527517
11
1.00000000000001
21
-0.593749999999029
31
0.337620236790412
  0
LINE
  8
MY3DLAYER
10
0.999999999999991
20
-0.367417478526551
30
0.367417478527517
11
0.999999999999989
21
-0.337620236789446
31
0.406249999999994
  0
LINE
  8
MY3DLAYER
10
1
20
-2.72115663335626e-013
30
0.999999999999995
11
1.00000000000007
21
-0.999999999997785
31
0.999999999999649
  0
LINE
  8
MY3DLAYER
10
1.00000000000007
20
-0.999999999997785
30
0.999999999999649
11
1.00000000000006
21
-0.999999999997447
31
-3.44947510817449e-013
  0
LINE
  8
MY3DLAYER
10
0.999999999999996
20
-0.451471429042306
30
0.318888907570794
11
0.999999999999993
21
-0.406249999999029
31
0.337620236790412
  0
LINE
  8
MY3DLAYER
10
0.999999999999998
20
-0.499999999999029
30
0.312499999999995
11
0.999999999999996
21
-0.451471429042306
31
0.318888907570794
  0
LINE
  8
MY3DLAYER
10
1
20
-0.548528570955751
30
0.681111092429195
11
1.00000000000001
21
-0.593749999999029
31
0.662379763209577
  0
LINE
  8
MY3DLAYER
10
1
20
-0.499999999999029
30
0.687499999999995
11
1
21
-0.548528570955751
31
0.681111092429195
  0
LINE
  8
MY3DLAYER
10
0.999999999999998
20
-0.451471429042306
30
0.681111092429195
11
1
21
-0.499999999999029
31
0.687499999999995
  0
LINE
  8
MY3DLAYER
10
0.999999999999991
20
-0.367417478526551
30
0.632582521472472
11
0.999999999999995
21
-0.406249999999029
31
0.662379763209577
  0
LINE
  8
MY3DLAYER
10
0.999999999999989
20
-0.337620236789446
30
0.593749999999995
11
0.999999999999991
21
-0.367417478526551
31
0.632582521472472
  0
LINE
  8
MY3DLAYER
10
0.999999999999988
20
-0.318888907569828
30
0.548528570956717
11
0.999999999999989
21
-0.337620236789446
31
0.593749999999995
  0
LINE
  8
MY3DLAYER
10
1.00000000000004
20
-0.50000000115635
30
0.812499999999826
11
1.00000000000004
21
-0.483823810837443
31
0.814629635856759
  0
LINE
  8
MY3DLAYER
10
1.00000000000004
20
-0.516176191475258
30
0.814629635856759
11
1.00000000000004
21
-0.50000000115635
31
0.812499999999826
  0
LINE
  8
MY3DLAYER
10
1.00000000000004
20
-0.53125000115635
30
0.820873412263298
11
1.00000000000004
21
-0.516176191475258
31
0.814629635856759
  0
LINE
  8
MY3DLAYER
10
1.00000000000005
20
-0.560370365299417
30
0.858823809680918
11
1.00000000000005
21
-0.554126588892878
31
0.843749999999826
  0
LINE
  8
MY3DLAYER
10
1.00000000000005
20
-0.56250000115635
30
0.874999999999826
11
1.00000000000005
21
-0.560370365299417
31
0.858823809680918
  0
LINE
  8
MY3DLAYER
10
1.00000000000005
20
-0.560370365299417
30
0.891176190318733
11
1.00000000000005
21
-0.56250000115635
31
0.874999999999826
  0
LINE
  8
MY3DLAYER
10
1.00000000000005
20
-0.554126588892878
30
0.906249999999826
11
1.00000000000005
21
-0.560370365299417
31
0.891176190318733
  0
LINE
  8
MY3DLAYER
10
1.00000000000005
20
-0.544194174980509
30
0.919194173823985
11
1.00000000000005
21
-0.554126588892878
31
0.906249999999826
  0
LINE
  8
MY3DLAYER
10
1.00000000000005
20
-0.53125000115635
30
0.929126587736353
11
1.00000000000005
21
-0.544194174980509
31
0.919194173823985
  0
LINE
  8
MY3DLAYER
10
1.00000000000004
20
-0.516176191475258
30
0.935370364142893
11
1.00000000000005
21
-0.53125000115635
31
0.929126587736353
  0
LINE
  8
MY3DLAYER
10
1.00000000000004
20
-0.50000000115635
30
0.937499999999826
11
1.00000000000004
21
-0.516176191475258
31
0.935370364142893
  0
LINE
  8
MY3DLAYER
10
1.00000000000004
20
-0.483823810837443
30
0.935370364142893
11
1.00000000000004
21
-0.50000000115635
31
0.937499999999826
  0
LINE
  8
MY3DLAYER
10
1.00000000000004
20
-0.43750000115635
30
0.874999999999826
11
1.00000000000004
21
-0.439629637013283
31
0.891176190318733
  0
LINE
  8
MY3DLAYER
10
1.00000000000004
20
-0.439629637013284
30
0.858823809680918
11
1.00000000000004
21
-0.43750000115635
31
0.874999999999826
  0
LINE
  8
MY3DLAYER
10
1.00000000000004
20
-0.445873413419823
30
0.843749999999826
11
1.00000000000004
21
-0.439629637013284
31
0.858823809680918
  0
LINE
  8
MY3DLAYER
10
1.00000000000004
20
-0.455805827332191
30
0.830805826175667
11
1.00000000000004
21
-0.445873413419823
31
0.843749999999826
  0
LINE
  8
MY3DLAYER
10
1.00000000000004
20
-0.46875000115635
30
0.820873412263298
11
1.00000000000004
21
-0.455805827332191
31
0.830805826175667
  0
LINE
  8
MY3DLAYER
10
1.00000000000004
20
-0.483823810837443
30
0.814629635856759
11
1.00000000000004
21
-0.46875000115635
31
0.820873412263298
  0
LINE
  8
MY3DLAYER
10
0.99999999838128
20
-0.112740467606214
30
0.312500003225992
11
0.999999998368135
21
-0.114870103463148
31
0.328676193544899
  0
LINE
  8
MY3DLAYER
10
0.999999998368135
20
-0.114870103463148
30
0.296323812907084
11
0.99999999838128
21
-0.112740467606214
31
0.312500003225992
  0
LINE
  8
MY3DLAYER
10
0.999999998329596
20
-0.121113879869687
30
0.281250003225992
11
0.999999998368135
21
-0.114870103463148
31
0.296323812907084
  0
LINE
  8
MY3DLAYER
10
0.999999998268289
20
-0.131046293782055
30
0.268305829401833
11
0.999999998329596
21
-0.121113879869687
31
0.281250003225992
  0
LINE
  8
MY3DLAYER
10
0.999999998188393
20
-0.143990467606214
30
0.258373415489464
11
0.999999998268289
21
-0.131046293782055
31
0.268305829401833
  0
LINE
  8
MY3DLAYER
10
0.999999998095352
20
-0.159064277287307
30
0.252129639082925
11
0.999999998188393
21
-0.143990467606214
31
0.258373415489464
  0
LINE
  8
MY3DLAYER
10
0.999999997995507
20
-0.175240467606214
30
0.250000003225992
11
0.999999998095352
21
-0.159064277287307
31
0.252129639082925
  0
LINE
  8
MY3DLAYER
10
0.999999997895662
20
-0.191416657925122
30
0.252129639082925
11
0.999999997995507
21
-0.175240467606214
31
0.250000003225992
  0
LINE
  8
MY3DLAYER
10
0.999999997802621
20
-0.206490467606214
30
0.258373415489465
11
0.999999997895662
21
-0.191416657925122
31
0.252129639082925
  0
LINE
  8
MY3DLAYER
10
0.999999997722725
20
-0.219434641430374
30
0.268305829401833
11
0.999999997802621
21
-0.206490467606214
31
0.258373415489465
  0
LINE
  8
MY3DLAYER
10
0.875000000000071
20
-0.999999999997798
30
0.999999999999651
11
1.00000000000007
21
-0.999999999997785
31
0.999999999999649
  0
LINE
  8
MY3DLAYER
10
0.875000000000004
20
-2.66786592817425e-013
30
0.999999999999994
11
1
21
-2.72115663335626e-013
31
0.999999999999995
  0
LINE
  8
MY3DLAYER
10
0.875000000000066
20
-0.999999999997495
30
0.124999999999655
11
0.874999999999993
21
1.56541446472147e-014
31
0.124999999999993
  0
LINE
  8
MY3DLAYER
10
0.875000000000071
20
-0.999999999997798
30
0.999999999999651
11
0.875000000000066
21
-0.999999999997495
31
0.124999999999655
  0
LINE
  8
MY3DLAYER
10
0.874999999999993
20
1.56541446472147e-014
30
0.124999999999993
11
0.875000000000004
21
-2.66786592817425e-013
31
0.999999999999994
  0
LINE
  8
MY3DLAYER
10
0.874999999999988
20
-0.312499999999037
30
0.499999999999995
11
0.874999999999988
21
-0.318888907569836
31
0.548528570956718
  0
LINE
  8
MY3DLAYER
10
0.874999999999988
20
-0.318888907569836
30
0.548528570956718
11
0.874999999999989
21
-0.337620236789454
31
0.593749999999995
  0
LINE
  8
MY3DLAYER
10
0.874999999999989
20
-0.337620236789454
30
0.593749999999995
11
0.874999999999991
21
-0.367417478526559
31
0.632582521472473
  0
LINE
  8
MY3DLAYER
10
0.874999999999991
20
-0.367417478526559
30
0.632582521472473
11
0.874999999999995
21
-0.406249999999037
31
0.662379763209577
  0
LINE
  8
MY3DLAYER
10
0.874999999999995
20
-0.406249999999037
30
0.662379763209577
11
0.874999999999998
21
-0.451471429042314
31
0.681111092429196
  0
LINE
  8
MY3DLAYER
10
0.874999999999998
20
-0.451471429042314
30
0.681111092429196
11
0.875000000000002
21
-0.499999999999037
31
0.687499999999995
  0
LINE
  8
MY3DLAYER
10
0.875000000000012
20
-0.687499999999037
30
0.499999999999995
11
0.875000000000012
21
-0.681111092428237
31
0.451471429043273
  0
LINE
  8
MY3DLAYER
10
0.875000000000012
20
-0.681111092428237
30
0.451471429043273
11
0.875000000000011
21
-0.662379763208619
31
0.406249999999995
  0
LINE
  8
MY3DLAYER
10
0.875000000000011
20
-0.662379763208619
30
0.406249999999995
11
0.875000000000009
21
-0.632582521471515
31
0.367417478527518
  0
LINE
  8
MY3DLAYER
10
0.875000000000009
20
-0.632582521471515
30
0.367417478527518
11
0.875000000000005
21
-0.593749999999037
31
0.337620236790413
  0
LINE
  8
MY3DLAYER
10
0.875000000000005
20
-0.593749999999037
30
0.337620236790413
11
0.875000000000002
21
-0.54852857095576
31
0.318888907570795
  0
LINE
  8
MY3DLAYER
10
0.875000000000002
20
-0.54852857095576
30
0.318888907570795
11
0.874999999999998
21
-0.499999999999037
31
0.312499999999995
  0
LINE
  8
MY3DLAYER
10
0.874999999999998
20
-0.499999999999037
30
0.312499999999995
11
0.874999999999996
21
-0.451471429042314
31
0.318888907570795
  0
LINE
  8
MY3DLAYER
10
0.874999999999996
20
-0.451471429042314
30
0.318888907570795
11
0.874999999999993
21
-0.406249999999037
31
0.337620236790413
  0
LINE
  8
MY3DLAYER
10
0.874999999999993
20
-0.406249999999037
30
0.337620236790413
11
0.874999999999991
21
-0.367417478526559
31
0.367417478527518
  0
LINE
  8
MY3DLAYER
10
0.874999999999991
20
-0.367417478526559
30
0.367417478527518
11
0.874999999999989
21
-0.337620236789454
31
0.406249999999995
  0
LINE
  8
MY3DLAYER
10
0.875000000000042
20
-0.500000001156358
30
0.812499999999826
11
0.875000000000041
21
-0.483823810837451
31
0.81462963585676
  0
LINE
  8
MY3DLAYER
10
0.875000000000041
20
-0.483823810837451
30
0.81462963585676
11
0.87500000000004
21
-0.468750001156358
31
0.820873412263299
  0
LINE
  8
MY3DLAYER
10
0.87500000000004
20
-0.468750001156358
30
0.820873412263299
11
0.87500000000004
21
-0.455805827332199
31
0.830805826175667
  0
LINE
  8
MY3DLAYER
10
0.87500000000004
20
-0.455805827332199
30
0.830805826175667
11
0.875000000000039
21
-0.445873413419831
31
0.843749999999826
  0
LINE
  8
MY3DLAYER
10
0.875000000000039
20
-0.445873413419831
30
0.843749999999826
11
0.875000000000039
21
-0.439629637013292
31
0.858823809680919
  0
LINE
  8
MY3DLAYER
10
0.875000000000039
20
-0.439629637013292
30
0.858823809680919
11
0.875000000000039
21
-0.437500001156358
31
0.874999999999826
  0
LINE
  8
MY3DLAYER
10
0.875000000000039
20
-0.437500001156358
30
0.874999999999826
11
0.875000000000039
21
-0.439629637013292
31
0.891176190318734
  0
LINE
  8
MY3DLAYER
10
0.875000000000039
20
-0.439629637013292
30
0.891176190318734
11
0.875000000000039
21
-0.445873413419831
31
0.906249999999826
  0
LINE
  8
MY3DLAYER
10
0.875000000000039
20
-0.445873413419831
30
0.906249999999826
11
0.87500000000004
21
-0.455805827332199
31
0.919194173823986
  0
LINE
  8
MY3DLAYER
10
0.87500000000004
20
-0.455805827332199
30
0.919194173823986
11
0.875000000000041
21
-0.468750001156358
31
0.929126587736354
  0
LINE
  8
MY3DLAYER
10
0.875000000000041
20
-0.468750001156358
30
0.929126587736354
11
0.875000000000042
21
-0.483823810837451
31
0.935370364142893
  0
LINE
  8
MY3DLAYER
10
0.875000000000042
20
-0.483823810837451
30
0.935370364142893
11
0.875000000000043
21
-0.500000001156358
31
0.937499999999826
  0
LINE
  8
MY3DLAYER
10
0.875000000000043
20
-0.500000001156358
30
0.937499999999826
11
0.875000000000044
21
-0.516176191475266
31
0.935370364142893
  0
LINE
  8
MY3DLAYER
10
0.875000000000044
20
-0.516176191475266
30
0.935370364142893
11
0.875000000000045
21
-0.531250001156358
31
0.929126587736354
  0
LINE
  8
MY3DLAYER
10
0.875000000000045
20
-0.531250001156358
30
0.929126587736354
11
0.875000000000046
21
-0.544194174980518
31
0.919194173823986
  0
LINE
  8
MY3DLAYER
10
0.875000000000046
20
-0.544194174980518
30
0.919194173823986
11
0.875000000000046
21
-0.554126588892886
31
0.906249999999826
  0
LINE
  8
MY3DLAYER
10
0.875000000000046
20
-0.554126588892886
30
0.906249999999826
11
0.875000000000047
21
-0.560370365299425
31
0.891176190318734
  0
LINE
  8
MY3DLAYER
10
0.875000000000047
20
-0.560370365299425
30
0.891176190318734
11
0.875000000000047
21
-0.562500001156358
31
0.874999999999826
  0
LINE
  8
MY3DLAYER
10
0.875000000000047
20
-0.562500001156358
30
0.874999999999826
11
0.875000000000046
21
-0.560370365299425
31
0.858823809680919
  0
LINE
  8
MY3DLAYER
10
0.875000000000046
20
-0.560370365299425
30
0.858823809680919
11
0.875000000000046
21
-0.554126588892886
31
0.843749999999826
  0
LINE
  8
MY3DLAYER
10
0.875000000000046
20
-0.554126588892886
30
0.843749999999826
11
0.875000000000045
21
-0.544194174980518
31
0.830805826175667
  0
LINE
  8
MY3DLAYER
10
0.875000000000045
20
-0.544194174980518
30
0.830805826175667
11
0.875000000000044
21
-0.531250001156358
31
0.820873412263299
  0
LINE
  8
MY3DLAYER
10
0.875000000000044
20
-0.531250001156358
30
0.820873412263299
11
0.875000000000043
21
-0.516176191475266
31
0.81462963585676
  0
LINE
  8
MY3DLAYER
10
0.875000000000043
20
-0.516176191475266
30
0.81462963585676
11
0.875000000000042
21
-0.500000001156358
31
0.812499999999826
  0
LINE
  8
MY3DLAYER
10
0.87499999838128
20
-0.112740466834669
30
0.312500003225992
11
0.874999998368135
21
-0.114870102691602
31
0.328676193544899
  0
LINE
  8
MY3DLAYER
10
0.874999998368135
20
-0.114870102691602
30
0.328676193544899
11
0.874999998329596
21
-0.121113879098142
31
0.343750003225992
  0
LINE
  8
MY3DLAYER
10
0.874999998329596
20
-0.121113879098142
30
0.343750003225992
11
0.874999998268289
21
-0.13104629301051
31
0.356694177050151
  0
LINE
  8
MY3DLAYER
10
0.874999998268289
20
-0.13104629301051
30
0.356694177050151
11
0.874999998188393
21
-0.143990466834669
31
0.366626590962519
  0
LINE
  8
MY3DLAYER
10
0.874999998188393
20
-0.143990466834669
30
0.366626590962519
11
0.874999998095352
21
-0.159064276515762
31
0.372870367369059
  0
LINE
  8
MY3DLAYER
10
0.874999998095352
20
-0.159064276515762
30
0.372870367369059
11
0.874999997995507
21
-0.175240466834669
31
0.375000003225992
  0
LINE
  8
MY3DLAYER
10
0.874999997995507
20
-0.175240466834669
30
0.375000003225992
11
0.874999997895662
21
-0.191416657153577
31
0.372870367369059
  0
LINE
  8
MY3DLAYER
10
0.874999997895662
20
-0.191416657153577
30
0.372870367369059
11
0.874999997802621
21
-0.206490466834669
31
0.366626590962519
  0
LINE
  8
MY3DLAYER
10
0.874999997802621
20
-0.206490466834669
30
0.366626590962519
11
0.874999997722725
21
-0.219434640658828
31
0.356694177050151
  0
LINE
  8
MY3DLAYER
10
0.874999997722725
20
-0.219434640658828
30
0.356694177050151
11
0.874999997661418
21
-0.229367054571197
31
0.343750003225992
  0
LINE
  8
MY3DLAYER
10
0.874999997661418
20
-0.229367054571197
30
0.343750003225992
11
0.87499999762288
21
-0.235610830977736
31
0.328676193544899
  0
LINE
  8
MY3DLAYER
10
0.87499999762288
20
-0.235610830977736
30
0.328676193544899
11
0.874999997609735
21
-0.237740466834669
31
0.312500003225992
  0
LINE
  8
MY3DLAYER
10
0.874999997609735
20
-0.237740466834669
30
0.312500003225992
11
0.87499999762288
21
-0.235610830977736
31
0.296323812907084
  0
LINE
  8
MY3DLAYER
10
0.87499999762288
20
-0.235610830977736
30
0.296323812907084
11
0.874999997661418
21
-0.229367054571197
31
0.281250003225992
  0
LINE
  8
MY3DLAYER
10
0.874999997661418
20
-0.229367054571197
30
0.281250003225992
11
0.874999997722725
21
-0.219434640658828
31
0.268305829401833
  0
LINE
  8
MY3DLAYER
10
0.874999997722725
20
-0.219434640658828
30
0.268305829401833
11
0.874999997802621
21
-0.206490466834669
31
0.258373415489465
  0
LINE
  8
MY3DLAYER
10
0.874999997802621
20
-0.206490466834669
30
0.258373415489465
11
0.874999997895662
21
-0.191416657153577
31
0.252129639082925
  0
LINE
  8
MY3DLAYER
10
0.874999997895662
20
-0.191416657153577
30
0.252129639082925
11
0.874999997995507
21
-0.175240466834669
31
0.250000003225992
  0
LINE
  8
MY3DLAYER
10
0.874999997995507
20
-0.175240466834669
30
0.250000003225992
11
0.874999998095352
21
-0.159064276515762
31
0.252129639082925
  0
LINE
  8
MY3DLAYER
10
0.874999998095352
20
-0.159064276515762
30
0.252129639082925
11
0.874999998188393
21
-0.143990466834669
31
0.258373415489464
  0
LINE
  8
MY3DLAYER
10
0.874999998188393
20
-0.143990466834669
30
0.258373415489464
11
0.874999998268289
21
-0.13104629301051
31
0.268305829401833
  0
LINE
  8
MY3DLAYER
10
0.874999998268289
20
-0.13104629301051
30
0.268305829401833
11
0.874999998329596
21
-0.121113879098142
31
0.281250003225992
  0
LINE
  8
MY3DLAYER
10
0.874999998329596
20
-0.121113879098142
30
0.281250003225992
11
0.874999998368135
21
-0.114870102691602
31
0.296323812907084
  0
LINE
  8
MY3DLAYER
10
0.874999998368135
20
-0.114870102691602
30
0.296323812907084
11
0.87499999838128
21
-0.112740466834669
31
0.312500003225992
  0
LINE
  8
MY3DLAYER
10
0.87500000000004
20
-0.887259521987641
30
0.312499996773661
11
0.87500000000004
21
-0.885129886130708
31
0.296323806454753
  0
LINE
  8
MY3DLAYER
10
0.87500000000004
20
-0.885129886130708
30
0.296323806454753
11
0.875000000000039
21
-0.878886109724168
31
0.281249996773661
  0
LINE
  8
MY3DLAYER
10
0.875000000000039
20
-0.878886109724168
30
0.281249996773661
11
0.875000000000039
21
-0.8689536958118
31
0.268305822949501
  0
LINE
  8
MY3DLAYER
10
0.875000000000039
20
-0.8689536958118
30
0.268305822949501
11
0.875000000000038
21
-0.856009521987641
31
0.258373409037133
  0
LINE
  8
MY3DLAYER
10
0.875000000000038
20
-0.856009521987641
30
0.258373409037133
11
0.875000000000037
21
-0.840935712306549
31
0.252129632630594
  0
LINE
  8
MY3DLAYER
10
0.875000000000037
20
-0.840935712306549
30
0.252129632630594
11
0.875000000000036
21
-0.824759521987641
31
0.249999996773661
  0
LINE
  8
MY3DLAYER
10
0.875000000000036
20
-0.824759521987641
30
0.249999996773661
11
0.875000000000035
21
-0.808583331668733
31
0.252129632630594
  0
LINE
  8
MY3DLAYER
10
0.875000000000035
20
-0.808583331668733
30
0.252129632630594
11
0.875000000000034
21
-0.793509521987641
31
0.258373409037133
  0
LINE
  8
MY3DLAYER
10
0.875000000000034
20
-0.793509521987641
30
0.258373409037133
11
0.875000000000033
21
-0.780565348163482
31
0.268305822949501
  0
LINE
  8
MY3DLAYER
10
0.875000000000033
20
-0.780565348163482
30
0.268305822949501
11
0.875000000000032
21
-0.770632934251113
31
0.281249996773661
  0
LINE
  8
MY3DLAYER
10
0.875000000000032
20
-0.770632934251113
30
0.281249996773661
11
0.875000000000032
21
-0.764389157844574
31
0.296323806454753
  0
LINE
  8
MY3DLAYER
10
0.875000000000032
20
-0.764389157844574
30
0.296323806454753
11
0.875000000000032
21
-0.762259521987641
31
0.312499996773661
  0
LINE
  8
MY3DLAYER
10
0.875000000000032
20
-0.762259521987641
30
0.312499996773661
11
0.875000000000032
21
-0.764389157844574
31
0.328676187092568
  0
LINE
  8
MY3DLAYER
10
0.875000000000032
20
-0.764389157844574
30
0.328676187092568
11
0.875000000000033
21
-0.770632934251113
31
0.343749996773661
  0
LINE
  8
MY3DLAYER
10
0.875000000000033
20
-0.770632934251113
30
0.343749996773661
11
0.875000000000033
21
-0.780565348163482
31
0.35669417059782
  0
LINE
  8
MY3DLAYER
10
0.875000000000033
20
-0.780565348163482
30
0.35669417059782
11
0.875000000000034
21
-0.793509521987641
31
0.366626584510188
  0
LINE
  8
MY3DLAYER
10
0.875000000000034
20
-0.793509521987641
30
0.366626584510188
11
0.875000000000035
21
-0.808583331668733
31
0.372870360916727
  0
LINE
  8
MY3DLAYER
10
0.875000000000035
20
-0.808583331668733
30
0.372870360916727
11
0.875000000000036
21
-0.824759521987641
31
0.374999996773661
  0
LINE
  8
MY3DLAYER
10
0.875000000000036
20
-0.824759521987641
30
0.374999996773661
11
0.875000000000037
21
-0.840935712306548
31
0.372870360916727
  0
LINE
  8
MY3DLAYER
10
0.875000000000037
20
-0.840935712306548
30
0.372870360916727
11
0.875000000000038
21
-0.856009521987641
31
0.366626584510188
  0
LINE
  8
MY3DLAYER
10
0.875000000000038
20
-0.856009521987641
30
0.366626584510188
11
0.875000000000039
21
-0.8689536958118
31
0.35669417059782
  0
LINE
  8
MY3DLAYER
10
0.875000000000039
20
-0.8689536958118
30
0.35669417059782
11
0.87500000000004
21
-0.878886109724168
31
0.343749996773661
  0
LINE
  8
MY3DLAYER
10
0.87500000000004
20
-0.878886109724168
30
0.343749996773661
11
0.87500000000004
21
-0.885129886130708
31
0.328676187092568
  0
LINE
  8
MY3DLAYER
10
0.87500000000004
20
-0.885129886130708
30
0.328676187092568
11
0.87500000000004
21
-0.887259521987641
31
0.312499996773661
  0
LINE
  8
MY3DLAYER
10
6.57252030578093e-014
20
-0.999999999997552
30
0.124999999999659
11
0.875000000000066
21
-0.999999999997495
31
0.124999999999655
  0
LINE
  8
MY3DLAYER
10
0.500000000000053
20
-0.624999999998784
30
0.124999999999782
11
0.467647619362243
21
-0.620740728284913
31
0.124999999999783
  0
LINE
  8
MY3DLAYER
10
0.467647619362243
20
-0.620740728284913
30
0.124999999999783
11
0.437500000000052
21
-0.608253175471835
31
0.124999999999789
  0
LINE
  8
MY3DLAYER
10
0.437500000000052
20
-0.608253175471835
30
0.124999999999789
11
0.411611652351732
21
-0.588388347647099
31
0.124999999999794
  0
LINE
  8
MY3DLAYER
10
0.411611652351732
20
-0.588388347647099
30
0.124999999999794
11
0.391746824526996
21
-0.562499999998779
31
0.124999999999804
  0
LINE
  8
MY3DLAYER
10
0.999999999999991
20
-0.367417478526551
30
0.632582521472472
11
0.874999999999991
21
-0.367417478526559
31
0.632582521472473
  0
LINE
  8
MY3DLAYER
10
0.999999999999989
20
-0.337620236789446
30
0.593749999999995
11
0.874999999999989
21
-0.337620236789454
31
0.593749999999995
  0
LINE
  8
MY3DLAYER
10
0.999999999999995
20
-0.406249999999029
30
0.662379763209577
11
0.874999999999995
21
-0.406249999999037
31
0.662379763209577
  0
LINE
  8
MY3DLAYER
10
1
20
-0.499999999999029
30
0.687499999999995
11
0.875000000000002
21
-0.499999999999037
31
0.687499999999995
  0
LINE
  8
MY3DLAYER
10
0.999999999999998
20
-0.451471429042306
30
0.681111092429195
11
0.874999999999998
21
-0.451471429042314
31
0.681111092429196
  0
LINE
  8
MY3DLAYER
10
6.57252030578093e-014
20
-0.999999999997552
30
0.124999999999659
11
6.57252030578093e-014
21
-0.999999999997516
31
-3.39174351089398e-013
  0
LINE
  8
MY3DLAYER
10
-5.32907051820075e-015
20
-4.65183447317941e-014
30
0.124999999999999
11
6.57252030578093e-014
21
-0.999999999997552
31
0.124999999999659
  0
LINE
  8
MY3DLAYER
10
0.0
20
9.99200722162641e-016
30
-1.2170664130528e-018
11
-5.32907051820075e-015
21
-4.65183447317941e-014
31
0.124999999999999
  0
LINE
  8
MY3DLAYER
10
-5.32907051820075e-015
20
-4.65183447317941e-014
30
0.124999999999999
11
0.874999999999993
21
1.56541446472147e-014
31
0.124999999999993
  0
LINE
  8
MY3DLAYER
10
0.391746824526996
20
-0.562499999998779
30
0.124999999999804
11
0.379259271713916
21
-0.532352380636596
31
0.124999999999814
  0
LINE
  8
MY3DLAYER
10
0.379259271713916
20
-0.532352380636596
30
0.124999999999814
11
0.375000000000055
21
-0.499999999998781
31
0.124999999999825
  0
LINE
  8
MY3DLAYER
10
0.375000000000055
20
-0.499999999998781
30
0.124999999999825
11
0.379259271713922
21
-0.467647619360966
31
0.124999999999836
  0
LINE
  8
MY3DLAYER
10
0.379259271713922
20
-0.467647619360966
30
0.124999999999836
11
0.391746824526992
21
-0.437499999998786
31
0.124999999999846
  0
LINE
  8
MY3DLAYER
10
0.391746824526992
20
-0.437499999998786
30
0.124999999999846
11
0.411611652351729
21
-0.411611652350463
31
0.124999999999855
  0
LINE
  8
MY3DLAYER
10
0.411611652351729
20
-0.411611652350463
30
0.124999999999855
11
0.437500000000055
21
-0.391746824525725
31
0.124999999999863
  0
LINE
  8
MY3DLAYER
10
0.437500000000055
20
-0.391746824525725
30
0.124999999999863
11
0.467647619362232
21
-0.379259271712647
31
0.124999999999865
  0
LINE
  8
MY3DLAYER
10
0.467647619362232
20
-0.379259271712647
30
0.124999999999865
11
0.500000000000046
21
-0.374999999998785
31
0.124999999999867
  0
LINE
  8
MY3DLAYER
10
0.500000000000046
20
-0.374999999998785
30
0.124999999999867
11
0.532352380637862
21
-0.379259271712645
31
0.124999999999866
  0
LINE
  8
MY3DLAYER
10
0.532352380637862
20
-0.379259271712645
30
0.124999999999866
11
0.562500000000055
21
-0.391746824525723
31
0.12499999999986
  0
LINE
  8
MY3DLAYER
10
0.562500000000055
20
-0.391746824525723
30
0.12499999999986
11
0.588388347648365
21
-0.411611652350459
31
0.124999999999855
  0
LINE
  8
MY3DLAYER
10
0.588388347648365
20
-0.411611652350459
30
0.124999999999855
11
0.608253175473102
21
-0.437499999998776
31
0.124999999999845
  0
LINE
  8
MY3DLAYER
10
0.608253175473102
20
-0.437499999998776
30
0.124999999999845
11
0.62074072828619
21
-0.467647619360961
31
0.124999999999834
  0
LINE
  8
MY3DLAYER
10
0.62074072828619
20
-0.467647619360961
30
0.124999999999834
11
0.625000000000057
21
-0.499999999998776
31
0.124999999999823
  0
LINE
  8
MY3DLAYER
10
0.625000000000057
20
-0.499999999998776
30
0.124999999999823
11
0.62074072828619
21
-0.532352380636591
31
0.124999999999813
  0
LINE
  8
MY3DLAYER
10
0.62074072828619
20
-0.532352380636591
30
0.124999999999813
11
0.608253175473106
21
-0.562499999998776
31
0.124999999999803
  0
LINE
  8
MY3DLAYER
10
0.608253175473106
20
-0.562499999998776
30
0.124999999999803
11
0.588388347648369
21
-0.588388347647095
31
0.124999999999794
  0
LINE
  8
MY3DLAYER
10
0.588388347648369
20
-0.588388347647095
30
0.124999999999794
11
0.562500000000059
21
-0.608253175471833
31
0.124999999999788
  0
LINE
  8
MY3DLAYER
10
0.562500000000059
20
-0.608253175471833
30
0.124999999999788
11
0.532352380637873
21
-0.620740728284911
31
0.124999999999783
  0
LINE
  8
MY3DLAYER
10
0.532352380637873
20
-0.620740728284911
30
0.124999999999783
11
0.500000000000053
21
-0.624999999998784
31
0.124999999999782
  0
LINE
  8
MY3DLAYER
10
0.379259271713922
20
-0.532352380636565
30
-1.85519484481277e-013
11
0.379259271713916
21
-0.532352380636596
31
0.124999999999814
  0
LINE
  8
MY3DLAYER
10
0.37925927171392
20
-0.467647619360935
30
-1.61760711754298e-013
11
0.379259271713922
21
-0.467647619360966
31
0.124999999999836
  0
LINE
  8
MY3DLAYER
10
0.375000000000055
20
-0.499999999998751
30
-1.7463929883995e-013
11
0.375000000000055
21
-0.499999999998781
31
0.124999999999825
  0
LINE
  8
MY3DLAYER
10
0.391746824526992
20
-0.437499999998748
30
-1.53545061372072e-013
11
0.391746824526992
21
-0.437499999998786
31
0.124999999999846
  0
LINE
  8
MY3DLAYER
10
0.411611652351734
20
-0.411611652350432
30
-1.43108964940596e-013
11
0.411611652351729
21
-0.411611652350463
31
0.124999999999855
  0
LINE
  8
MY3DLAYER
10
0.532352380637867
20
-0.379259271712606
30
-1.34671269953445e-013
11
0.532352380637862
21
-0.379259271712645
31
0.124999999999866
  0
LINE
  8
MY3DLAYER
10
0.500000000000052
20
-0.374999999998746
30
-1.33116957718969e-013
11
0.500000000000046
21
-0.374999999998785
31
0.124999999999867
  0
LINE
  8
MY3DLAYER
10
0.562500000000053
20
-0.391746824525692
30
-1.3711376060762e-013
11
0.562500000000055
21
-0.391746824525723
31
0.12499999999986
  0
LINE
  8
MY3DLAYER
10
0.588388347648371
20
-0.41161165235042
30
-1.45995544804621e-013
11
0.588388347648365
21
-0.411611652350459
31
0.124999999999855
  0
LINE
  8
MY3DLAYER
10
0.620740728286188
20
-0.46764761936093
30
-1.65091380828174e-013
11
0.62074072828619
21
-0.467647619360961
31
0.124999999999834
  0
LINE
  8
MY3DLAYER
10
0.608253175473102
20
-0.437499999998737
30
-1.52878927557297e-013
11
0.608253175473102
21
-0.437499999998776
31
0.124999999999845
  0
LINE
  8
MY3DLAYER
10
0.437500000000053
20
-0.391746824525687
30
-1.39112162051945e-013
11
0.437500000000055
21
-0.391746824525725
31
0.124999999999863
  0
LINE
  8
MY3DLAYER
10
0.467647619362237
20
-0.379259271712616
30
-1.34227180743594e-013
11
0.467647619362232
21
-0.379259271712647
31
0.124999999999865
  0
LINE
  8
MY3DLAYER
10
0.588388347648369
20
-0.588388347647056
30
-2.0639167734423e-013
11
0.588388347648369
21
-0.588388347647095
31
0.124999999999794
  0
LINE
  8
MY3DLAYER
10
0.608253175473111
20
-0.562499999998737
30
-1.97065803937378e-013
11
0.608253175473106
21
-0.562499999998776
31
0.124999999999803
  0
LINE
  8
MY3DLAYER
10
0.50000000000005
20
-0.624999999998746
30
-2.17715952195406e-013
11
0.500000000000053
21
-0.624999999998784
31
0.124999999999782
  0
LINE
  8
MY3DLAYER
10
1
20
-0.548528570955751
30
0.681111092429195
11
0.875000000000004
21
-0.548528570955759
31
0.681111092429196
  0
LINE
  8
MY3DLAYER
10
0.999999999999988
20
-0.318888907569828
30
0.548528570956717
11
0.874999999999988
21
-0.318888907569836
31
0.548528570956718
  0
LINE
  8
MY3DLAYER
10
0.625000000000053
20
-0.499999999998737
30
-1.768597448892e-013
11
0.625000000000057
21
-0.499999999998776
31
0.124999999999823
  0
LINE
  8
MY3DLAYER
10
0.62074072828619
20
-0.53235238063656
30
-1.86851752110827e-013
11
0.62074072828619
21
-0.532352380636591
31
0.124999999999813
  0
LINE
  8
MY3DLAYER
10
0.562500000000059
20
-0.608253175471802
30
-2.1038848023288e-013
11
0.562500000000059
21
-0.608253175471833
31
0.124999999999788
  0
LINE
  8
MY3DLAYER
10
0.532352380637873
20
-0.620740728284872
30
-2.14385283121531e-013
11
0.532352380637873
21
-0.620740728284911
31
0.124999999999783
  0
LINE
  8
MY3DLAYER
10
0.999999999999993
20
-0.406249999999029
30
0.337620236790412
11
0.874999999999993
21
-0.406249999999037
31
0.337620236790413
  0
LINE
  8
MY3DLAYER
10
0.999999999999996
20
-0.451471429042306
30
0.318888907570794
11
0.874999999999996
21
-0.451471429042314
31
0.318888907570795
  0
LINE
  8
MY3DLAYER
10
0.999999999999991
20
-0.367417478526551
30
0.367417478527517
11
0.874999999999991
21
-0.367417478526559
31
0.367417478527518
  0
LINE
  8
MY3DLAYER
10
1.00000000000001
20
-0.687499999999029
30
0.499999999999995
11
0.875000000000012
21
-0.687499999999037
31
0.499999999999995
  0
LINE
  8
MY3DLAYER
10
1.00000000000001
20
-0.681111092428229
30
0.451471429043272
11
0.875000000000012
21
-0.681111092428237
31
0.451471429043273
  0
LINE
  8
MY3DLAYER
10
1.00000000000001
20
-0.662379763208611
30
0.406249999999995
11
0.875000000000011
21
-0.662379763208619
31
0.406249999999995
  0
LINE
  8
MY3DLAYER
10
1.00000000000001
20
-0.632582521471507
30
0.367417478527517
11
0.875000000000009
21
-0.632582521471515
31
0.367417478527518
  0
LINE
  8
MY3DLAYER
10
1.00000000000001
20
-0.593749999999029
30
0.337620236790412
11
0.875000000000005
21
-0.593749999999037
31
0.337620236790413
  0
LINE
  8
MY3DLAYER
10
1.00000000000001
20
-0.593749999999029
30
0.662379763209577
11
0.875000000000007
21
-0.593749999999037
31
0.662379763209577
  0
LINE
  8
MY3DLAYER
10
0.467647619362243
20
-0.620740728284883
30
-2.15939595356006e-013
11
0.467647619362243
21
-0.620740728284913
31
0.124999999999783
  0
LINE
  8
MY3DLAYER
10
1
20
-0.548528570955752
30
0.318888907570794
11
0.875000000000002
21
-0.54852857095576
31
0.318888907570795
  0
LINE
  8
MY3DLAYER
10
0.999999999999998
20
-0.499999999999029
30
0.312499999999995
11
0.874999999999998
21
-0.499999999999037
31
0.312499999999995
  0
LINE
  8
MY3DLAYER
10
1.00000000000003
20
-0.793509521987633
30
0.366626584510187
11
0.875000000000034
21
-0.793509521987641
31
0.366626584510188
  0
LINE
  8
MY3DLAYER
10
1.00000000000003
20
-0.780565348163474
30
0.356694170597819
11
0.875000000000033
21
-0.780565348163482
31
0.35669417059782
  0
LINE
  8
MY3DLAYER
10
1.00000000000004
20
-0.808583331668725
30
0.372870360916727
11
0.875000000000035
21
-0.808583331668733
31
0.372870360916727
  0
LINE
  8
MY3DLAYER
10
1.00000000000004
20
-0.824759521987633
30
0.37499999677366
11
0.875000000000036
21
-0.824759521987641
31
0.374999996773661
  0
LINE
  8
MY3DLAYER
10
1.00000000000004
20
-0.84093571230654
30
0.372870360916727
11
0.875000000000037
21
-0.840935712306548
31
0.372870360916727
  0
LINE
  8
MY3DLAYER
10
1.00000000000004
20
-0.856009521987633
30
0.366626584510187
11
0.875000000000038
21
-0.856009521987641
31
0.366626584510188
  0
LINE
  8
MY3DLAYER
10
1.00000000000004
20
-0.868953695811792
30
0.356694170597819
11
0.875000000000039
21
-0.8689536958118
31
0.35669417059782
  0
LINE
  8
MY3DLAYER
10
1.00000000000004
20
-0.46875000115635
30
0.820873412263298
11
0.87500000000004
21
-0.468750001156358
31
0.820873412263299
  0
LINE
  8
MY3DLAYER
10
1.00000000000004
20
-0.483823810837443
30
0.814629635856759
11
0.875000000000041
21
-0.483823810837451
31
0.81462963585676
  0
LINE
  8
MY3DLAYER
10
1.00000000000004
20
-0.455805827332191
30
0.830805826175667
11
0.87500000000004
21
-0.455805827332199
31
0.830805826175667
  0
LINE
  8
MY3DLAYER
10
1.00000000000004
20
-0.445873413419823
30
0.843749999999826
11
0.875000000000039
21
-0.445873413419831
31
0.843749999999826
  0
LINE
  8
MY3DLAYER
10
1.00000000000004
20
-0.439629637013284
30
0.858823809680918
11
0.875000000000039
21
-0.439629637013292
31
0.858823809680919
  0
LINE
  8
MY3DLAYER
10
1.00000000000004
20
-0.43750000115635
30
0.874999999999826
11
0.875000000000039
21
-0.437500001156358
31
0.874999999999826
  0
LINE
  8
MY3DLAYER
10
0.437500000000059
20
-0.608253175471796
30
-2.12386881677206e-013
11
0.437500000000052
21
-0.608253175471835
31
0.124999999999789
  0
LINE
  8
MY3DLAYER
10
0.391746824527001
20
-0.562499999998748
30
-1.96621714727528e-013
11
0.391746824526996
21
-0.562499999998779
31
0.124999999999804
  0
LINE
  8
MY3DLAYER
10
0.411611652351732
20
-0.588388347647068
30
-2.04615320504829e-013
11
0.411611652351732
21
-0.588388347647099
31
0.124999999999794
  0
LINE
  8
MY3DLAYER
10
1.00000000000004
20
-0.50000000115635
30
0.937499999999826
11
0.875000000000043
21
-0.500000001156358
31
0.937499999999826
  0
LINE
  8
MY3DLAYER
10
1.00000000000004
20
-0.483823810837443
30
0.935370364142893
11
0.875000000000042
21
-0.483823810837451
31
0.935370364142893
  0
LINE
  8
MY3DLAYER
10
1.00000000000004
20
-0.516176191475258
30
0.935370364142893
11
0.875000000000044
21
-0.516176191475266
31
0.935370364142893
  0
LINE
  8
MY3DLAYER
10
1.00000000000005
20
-0.53125000115635
30
0.929126587736353
11
0.875000000000045
21
-0.531250001156358
31
0.929126587736354
  0
LINE
  8
MY3DLAYER
10
1.00000000000005
20
-0.544194174980509
30
0.919194173823985
11
0.875000000000046
21
-0.544194174980518
31
0.919194173823986
  0
LINE
  8
MY3DLAYER
10
1.00000000000005
20
-0.554126588892878
30
0.906249999999826
11
0.875000000000046
21
-0.554126588892886
31
0.906249999999826
  0
LINE
  8
MY3DLAYER
10
1.00000000000004
20
-0.50000000115635
30
0.812499999999826
11
0.875000000000042
21
-0.500000001156358
31
0.812499999999826
  0
LINE
  8
MY3DLAYER
10
1.00000000000004
20
-0.439629637013283
30
0.891176190318733
11
0.875000000000039
21
-0.439629637013292
31
0.891176190318734
  0
LINE
  8
MY3DLAYER
10
1.00000000000005
20
-0.560370365299417
30
0.858823809680918
11
0.875000000000046
21
-0.560370365299425
31
0.858823809680919
  0
LINE
  8
MY3DLAYER
10
1.00000000000005
20
-0.56250000115635
30
0.874999999999826
11
0.875000000000047
21
-0.562500001156358
31
0.874999999999826
  0
LINE
  8
MY3DLAYER
10
1.00000000000005
20
-0.554126588892878
30
0.843749999999826
11
0.875000000000046
21
-0.554126588892886
31
0.843749999999826
  0
LINE
  8
MY3DLAYER
10
1.00000000000005
20
-0.544194174980509
30
0.830805826175667
11
0.875000000000045
21
-0.544194174980518
31
0.830805826175667
  0
LINE
  8
MY3DLAYER
10
1.00000000000004
20
-0.53125000115635
30
0.820873412263298
11
0.875000000000044
21
-0.531250001156358
31
0.820873412263299
  0
LINE
  8
MY3DLAYER
10
1.00000000000004
20
-0.445873413419823
30
0.906249999999826
11
0.875000000000039
21
-0.445873413419831
31
0.906249999999826
  0
LINE
  8
MY3DLAYER
10
1.00000000000004
20
-0.455805827332191
30
0.919194173823985
11
0.87500000000004
21
-0.455805827332199
31
0.919194173823986
  0
LINE
  8
MY3DLAYER
10
1.00000000000004
20
-0.46875000115635
30
0.929126587736353
11
0.875000000000041
21
-0.468750001156358
31
0.929126587736354
  0
LINE
  8
MY3DLAYER
10
1.00000000000005
20
-0.560370365299417
30
0.891176190318733
11
0.875000000000047
21
-0.560370365299425
31
0.891176190318734
  0
LINE
  8
MY3DLAYER
10
0.999999998188393
20
-0.143990467606214
30
0.366626590962519
11
0.874999998188393
21
-0.143990466834669
31
0.366626590962519
  0
LINE
  8
MY3DLAYER
10
0.999999998268289
20
-0.131046293782055
30
0.356694177050151
11
0.874999998268289
21
-0.13104629301051
31
0.356694177050151
  0
LINE
  8
MY3DLAYER
10
0.999999998095352
20
-0.159064277287307
30
0.372870367369059
11
0.874999998095352
21
-0.159064276515762
31
0.372870367369059
  0
LINE
  8
MY3DLAYER
10
0.999999997995507
20
-0.175240467606214
30
0.375000003225992
11
0.874999997995507
21
-0.175240466834669
31
0.375000003225992
  0
LINE
  8
MY3DLAYER
10
0.999999997895662
20
-0.191416657925122
30
0.372870367369059
11
0.874999997895662
21
-0.191416657153577
31
0.372870367369059
  0
LINE
  8
MY3DLAYER
10
0.999999997802621
20
-0.206490467606214
30
0.366626590962519
11
0.874999997802621
21
-0.206490466834669
31
0.366626590962519
  0
LINE
  8
MY3DLAYER
10
1.00000000000004
20
-0.516176191475258
30
0.814629635856759
11
0.875000000000043
21
-0.516176191475266
31
0.81462963585676
  0
LINE
  8
MY3DLAYER
10
0.999999998368135
20
-0.114870103463148
30
0.328676193544899
11
0.874999998368135
21
-0.114870102691602
31
0.328676193544899
  0
LINE
  8
MY3DLAYER
10
0.99999999838128
20
-0.112740467606214
30
0.312500003225992
11
0.87499999838128
21
-0.112740466834669
31
0.312500003225992
  0
LINE
  8
MY3DLAYER
10
0.999999998329596
20
-0.121113879869687
30
0.343750003225992
11
0.874999998329596
21
-0.121113879098142
31
0.343750003225992
  0
LINE
  8
MY3DLAYER
10
0.999999997661418
20
-0.229367055342742
30
0.281250003225992
11
0.874999997661418
21
-0.229367054571197
31
0.281250003225992
  0
LINE
  8
MY3DLAYER
10
0.99999999762288
20
-0.235610831749281
30
0.296323812907084
11
0.87499999762288
21
-0.235610830977736
31
0.296323812907084
  0
LINE
  8
MY3DLAYER
10
0.999999997722725
20
-0.219434641430374
30
0.268305829401833
11
0.874999997722725
21
-0.219434640658828
31
0.268305829401833
  0
LINE
  8
MY3DLAYER
10
0.999999997802621
20
-0.206490467606214
30
0.258373415489465
11
0.874999997802621
21
-0.206490466834669
31
0.258373415489465
  0
LINE
  8
MY3DLAYER
10
0.999999997895662
20
-0.191416657925122
30
0.252129639082925
11
0.874999997895662
21
-0.191416657153577
31
0.252129639082925
  0
LINE
  8
MY3DLAYER
10
0.999999997995507
20
-0.175240467606214
30
0.250000003225992
11
0.874999997995507
21
-0.175240466834669
31
0.250000003225992
  0
LINE
  8
MY3DLAYER
10
0.999999997722725
20
-0.219434641430374
30
0.356694177050151
11
0.874999997722725
21
-0.219434640658828
31
0.356694177050151
  0
LINE
  8
MY3DLAYER
10
0.999999997661418
20
-0.229367055342742
30
0.343750003225992
11
0.874999997661418
21
-0.229367054571197
31
0.343750003225992
  0
LINE
  8
MY3DLAYER
10
0.99999999762288
20
-0.235610831749281
30
0.328676193544899
11
0.87499999762288
21
-0.235610830977736
31
0.328676193544899
  0
LINE
  8
MY3DLAYER
10
0.999999998368135
20
-0.114870103463148
30
0.296323812907084
11
0.874999998368135
21
-0.114870102691602
31
0.296323812907084
  0
LINE
  8
MY3DLAYER
10
1.00000000000004
20
-0.8851298861307
30
0.296323806454752
11
0.87500000000004
21
-0.885129886130708
31
0.296323806454753
  0
LINE
  8
MY3DLAYER
10
1.00000000000004
20
-0.887259521987633
30
0.31249999677366
11
0.87500000000004
21
-0.887259521987641
31
0.312499996773661
  0
LINE
  8
MY3DLAYER
10
1.00000000000004
20
-0.87888610972416
30
0.28124999677366
11
0.875000000000039
21
-0.878886109724168
31
0.281249996773661
  0
LINE
  8
MY3DLAYER
10
1.00000000000004
20
-0.868953695811792
30
0.268305822949501
11
0.875000000000039
21
-0.8689536958118
31
0.268305822949501
  0
LINE
  8
MY3DLAYER
10
1.00000000000004
20
-0.856009521987633
30
0.258373409037133
11
0.875000000000038
21
-0.856009521987641
31
0.258373409037133
  0
LINE
  8
MY3DLAYER
10
0.999999997609735
20
-0.237740467606214
30
0.312500003225992
11
0.874999997609735
21
-0.237740466834669
31
0.312500003225992
  0
LINE
  8
MY3DLAYER
10
0.999999998095352
20
-0.159064277287307
30
0.252129639082925
11
0.874999998095352
21
-0.159064276515762
31
0.252129639082925
  0
LINE
  8
MY3DLAYER
10
0.999999998188393
20
-0.143990467606214
30
0.258373415489464
11
0.874999998188393
21
-0.143990466834669
31
0.258373415489464
  0
LINE
  8
MY3DLAYER
10
1.00000000000003
20
-0.770632934251105
30
0.28124999677366
11
0.875000000000032
21
-0.770632934251113
31
0.281249996773661
  0
LINE
  8
MY3DLAYER
10
1.00000000000003
20
-0.780565348163474
30
0.268305822949501
11
0.875000000000033
21
-0.780565348163482
31
0.268305822949501
  0
LINE
  8
MY3DLAYER
10
1.00000000000003
20
-0.764389157844566
30
0.296323806454752
11
0.875000000000032
21
-0.764389157844574
31
0.296323806454753
  0
LINE
  8
MY3DLAYER
10
1.00000000000003
20
-0.762259521987633
30
0.31249999677366
11
0.875000000000032
21
-0.762259521987641
31
0.312499996773661
  0
LINE
  8
MY3DLAYER
10
1.00000000000003
20
-0.764389157844566
30
0.328676187092567
11
0.875000000000032
21
-0.764389157844574
31
0.328676187092568
  0
LINE
  8
MY3DLAYER
10
1.00000000000003
20
-0.770632934251105
30
0.34374999677366
11
0.875000000000033
21
-0.770632934251113
31
0.343749996773661
  0
LINE
  8
MY3DLAYER
10
0.999999998268289
20
-0.131046293782055
30
0.268305829401833
11
0.874999998268289
21
-0.13104629301051
31
0.268305829401833
  0
LINE
  8
MY3DLAYER
10
0.999999998329596
20
-0.121113879869687
30
0.281250003225992
11
0.874999998329596
21
-0.121113879098142
31
0.281250003225992
  0
LINE
  8
MY3DLAYER
10
1.00000000000004
20
-0.84093571230654
30
0.252129632630593
11
0.875000000000037
21
-0.840935712306549
31
0.252129632630594
  0
LINE
  8
MY3DLAYER
10
1.00000000000004
20
-0.824759521987633
30
0.24999999677366
11
0.875000000000036
21
-0.824759521987641
31
0.249999996773661
  0
LINE
  8
MY3DLAYER
10
1.00000000000003
20
-0.808583331668725
30
0.252129632630593
11
0.875000000000035
21
-0.808583331668733
31
0.252129632630594
  0
LINE
  8
MY3DLAYER
10
1.00000000000003
20
-0.793509521987633
30
0.258373409037133
11
0.875000000000034
21
-0.793509521987641
31
0.258373409037133
  0
LINE
  8
MY3DLAYER
10
1.00000000000004
20
-0.87888610972416
30
0.34374999677366
11
0.87500000000004
21
-0.878886109724168
31
0.343749996773661
  0
LINE
  8
MY3DLAYER
10
1.00000000000004
20
-0.8851298861307
30
0.328676187092568
11
0.87500000000004
21
-0.885129886130708
31
0.328676187092568
  0
ENDSEC
  0
EOF
