 0
SECTION
 2
ENTITIES
  0
LINE
  8
MY3DLAYER
10
0.124999999998996
20
-1.50000000000007
30
0.625
11
0.124999999998996
21
-1.50000000000007
31
0.0
  0
LINE
  8
MY3DLAYER
10
0.687499999999138
20
-1.50000000000039
30
0.625
11
0.124999999998996
21
-1.50000000000007
31
0.625
  0
LINE
  8
MY3DLAYER
10
0.687499999999138
20
-1.50000000000039
30
0.75
11
0.687499999999138
21
-1.50000000000039
31
0.625
  0
LINE
  8
MY3DLAYER
10
-8.61573182589503e-013
20
-1.5
30
0.75
11
0.687499999999138
21
-1.50000000000039
31
0.75
  0
LINE
  8
MY3DLAYER
10
-8.61573182589503e-013
20
-1.5
30
0.0
11
-8.61573182589503e-013
21
-1.5
31
0.75
  0
LINE
  8
MY3DLAYER
10
0.124999999998996
20
-1.50000000000007
30
0.0
11
-8.61573182589503e-013
21
-1.5
31
0.0
  0
LINE
  8
MY3DLAYER
10
0.421874999999236
20
-1.08118988160503
30
0.75
11
0.441291260735484
21
-1.06629126073649
31
0.75
  0
LINE
  8
MY3DLAYER
10
0.399264285477593
20
-1.09055554621483
30
0.75
11
0.421874999999236
21
-1.08118988160503
31
0.75
  0
LINE
  8
MY3DLAYER
10
0.531249999999282
20
-1.2500000000003
30
0.75
11
0.528055546213896
21
-1.22573571452194
31
0.75
  0
LINE
  8
MY3DLAYER
10
0.528055546213868
20
-1.27426428547866
30
0.75
11
0.531249999999282
21
-1.2500000000003
31
0.75
  0
LINE
  8
MY3DLAYER
10
0.518689881604046
20
-1.2968750000003
30
0.75
11
0.528055546213868
21
-1.27426428547866
31
0.75
  0
LINE
  8
MY3DLAYER
10
0.503791260735483
20
-1.31629126073653
30
0.75
11
0.518689881604046
21
-1.2968750000003
31
0.75
  0
LINE
  8
MY3DLAYER
10
0.484374999999235
20
-1.33118988160507
30
0.75
11
0.503791260735483
21
-1.31629126073653
31
0.75
  0
LINE
  8
MY3DLAYER
10
0.0
20
1.03871179690637e-029
30
0.0
11
0.0
21
1.03871179690637e-029
31
0.75
  0
LINE
  8
MY3DLAYER
10
0.0
20
1.03871179690637e-029
30
0.75
11
0.6875
21
-3.94887708686856e-013
31
0.75
  0
LINE
  8
MY3DLAYER
10
0.687499999999138
20
-1.50000000000039
30
0.625
11
0.6875
21
-3.94887708686856e-013
31
0.625
  0
LINE
  8
MY3DLAYER
10
-7.88732523303998e-013
20
-1.125
30
0.312499999999758
11
-7.91178972828017e-013
21
-1.12925927171387
31
0.344852380637574
  0
LINE
  8
MY3DLAYER
10
-7.91178972828017e-013
20
-1.12925927171387
30
0.344852380637574
11
-7.98351599907963e-013
21
-1.14174682452695
31
0.374999999999758
  0
LINE
  8
MY3DLAYER
10
-8.96429171127686e-013
20
-1.3125
30
0.420753175472813
11
-9.11298975177916e-013
21
-1.33838834764832
31
0.400888347648077
  0
LINE
  8
MY3DLAYER
10
-8.79112917553436e-013
20
-1.28235238063782
30
0.433240728285892
11
-8.96429171127686e-013
21
-1.3125
31
0.420753175472813
  0
LINE
  8
MY3DLAYER
10
-8.24631405911894e-013
20
-1.1875
30
0.420753175472813
11
-8.41947659486143e-013
21
-1.21764761936219
31
0.433240728285892
  0
LINE
  8
MY3DLAYER
10
-7.98351599907963e-013
20
-1.14174682452695
30
0.374999999999758
11
-8.09761601861664e-013
21
-1.16161165235168
31
0.400888347648077
  0
LINE
  8
MY3DLAYER
10
-8.6053028851979e-013
20
-1.25
30
0.437499999999758
11
-8.79112917553436e-013
21
-1.28235238063782
31
0.433240728285892
  0
LINE
  8
MY3DLAYER
10
-8.41947659486143e-013
20
-1.21764761936219
30
0.433240728285892
11
-8.6053028851979e-013
21
-1.25
31
0.437499999999758
  0
LINE
  8
MY3DLAYER
10
-8.09761601861664e-013
20
-1.16161165235168
30
0.400888347648077
11
-8.24631405911894e-013
21
-1.1875
31
0.420753175472813
  0
LINE
  8
MY3DLAYER
10
-2.67565537759808e-013
20
-0.217647619362185
30
0.433240728285892
11
-2.86148166793454e-013
21
-0.25
31
0.437499999999758
  0
LINE
  8
MY3DLAYER
10
-2.50249284185558e-013
20
-0.1875
30
0.420753175472813
11
-2.67565537759808e-013
21
-0.217647619362185
31
0.433240728285892
  0
LINE
  8
MY3DLAYER
10
-9.22708977131616e-013
20
-1.35825317547305
30
0.374999999999758
11
-9.29881604211562e-013
21
-1.37074072828613
31
0.344852380637574
  0
LINE
  8
MY3DLAYER
10
-7.98351599907963e-013
20
-1.14174682452695
30
0.249999999999758
11
-7.91178972828017e-013
21
-1.12925927171387
31
0.280147619361943
  0
LINE
  8
MY3DLAYER
10
-7.91178972828017e-013
20
-1.12925927171387
30
0.280147619361943
11
-7.88732523303998e-013
21
-1.125
31
0.312499999999758
  0
LINE
  8
MY3DLAYER
10
0.124999999999857
20
-7.17977652157101e-014
30
0.0
11
0.0
21
1.03871179690637e-029
31
0.0
  0
LINE
  8
MY3DLAYER
10
0.124999999998996
20
-1.50000000000007
30
0.0
11
0.124999999999857
21
-7.17977652157101e-014
31
0.0
  0
LINE
  8
MY3DLAYER
10
-2.86148166793454e-013
20
-0.25
30
0.437499999999758
11
-3.047307958271e-013
21
-0.282352380637815
31
0.433240728285892
  0
LINE
  8
MY3DLAYER
10
-9.29881604211562e-013
20
-1.37074072828613
30
0.280147619361943
11
-9.22708977131616e-013
21
-1.35825317547305
31
0.249999999999758
  0
LINE
  8
MY3DLAYER
10
-9.22708977131616e-013
20
-1.35825317547305
30
0.249999999999758
11
-9.11298975177916e-013
21
-1.33838834764832
31
0.22411165235144
  0
LINE
  8
MY3DLAYER
10
-8.96429171127686e-013
20
-1.3125
30
0.204246824526704
11
-8.79112917553436e-013
21
-1.28235238063782
31
0.191759271713625
  0
LINE
  8
MY3DLAYER
10
-2.23969478181627e-013
20
-0.141746824526945
30
0.374999999999758
11
-2.35379480135328e-013
21
-0.161611652351682
31
0.400888347648077
  0
LINE
  8
MY3DLAYER
10
-9.11298975177916e-013
20
-1.33838834764832
30
0.22411165235144
11
-8.96429171127686e-013
21
-1.3125
31
0.204246824526704
  0
LINE
  8
MY3DLAYER
10
-8.6053028851979e-013
20
-1.25
30
0.187499999999758
11
-8.41947659486143e-013
21
-1.21764761936219
31
0.191759271713625
  0
LINE
  8
MY3DLAYER
10
-8.41947659486143e-013
20
-1.21764761936219
30
0.191759271713625
11
-8.24631405911894e-013
21
-1.1875
31
0.204246824526704
  0
LINE
  8
MY3DLAYER
10
-2.16796851101682e-013
20
-0.129259271713867
30
0.344852380637574
11
-2.23969478181627e-013
21
-0.141746824526945
31
0.374999999999758
  0
LINE
  8
MY3DLAYER
10
-8.61573182589503e-013
20
-1.5
30
0.75
11
0.0
21
1.03871179690637e-029
31
0.75
  0
LINE
  8
MY3DLAYER
10
-8.09761601861664e-013
20
-1.16161165235168
30
0.22411165235144
11
-7.98351599907963e-013
21
-1.14174682452695
31
0.249999999999758
  0
LINE
  8
MY3DLAYER
10
-9.32328053735582e-013
20
-1.375
30
0.312499999999758
11
-9.29881604211562e-013
21
-1.37074072828613
31
0.280147619361943
  0
LINE
  8
MY3DLAYER
10
-8.24631405911894e-013
20
-1.1875
30
0.204246824526704
11
-8.09761601861664e-013
21
-1.16161165235168
31
0.22411165235144
  0
LINE
  8
MY3DLAYER
10
-9.29881604211562e-013
20
-1.37074072828613
30
0.344852380637574
11
-9.32328053735582e-013
21
-1.375
31
0.312499999999758
  0
LINE
  8
MY3DLAYER
10
-9.11298975177916e-013
20
-1.33838834764832
30
0.400888347648077
11
-9.22708977131616e-013
21
-1.35825317547305
31
0.374999999999758
  0
LINE
  8
MY3DLAYER
10
-2.14350401577662e-013
20
-0.125
30
0.312499999999758
11
-2.16796851101682e-013
21
-0.129259271713867
31
0.344852380637574
  0
LINE
  8
MY3DLAYER
10
-8.79112917553436e-013
20
-1.28235238063782
30
0.191759271713625
11
-8.6053028851979e-013
21
-1.25
31
0.187499999999758
  0
LINE
  8
MY3DLAYER
10
-2.35379480135328e-013
20
-0.161611652351682
30
0.400888347648077
11
-2.50249284185558e-013
21
-0.1875
31
0.420753175472813
  0
LINE
  8
MY3DLAYER
10
-3.55499482485226e-013
20
-0.370740728286133
30
0.280147619361943
11
-3.48326855405281e-013
21
-0.358253175473055
31
0.249999999999758
  0
LINE
  8
MY3DLAYER
10
-3.047307958271e-013
20
-0.282352380637815
30
0.433240728285892
11
-3.2204704940135e-013
21
-0.3125
31
0.420753175472813
  0
LINE
  8
MY3DLAYER
10
-3.48326855405281e-013
20
-0.358253175473055
30
0.249999999999758
11
-3.3691685345158e-013
21
-0.338388347648318
31
0.22411165235144
  0
LINE
  8
MY3DLAYER
10
-3.48326855405281e-013
20
-0.358253175473055
30
0.374999999999758
11
-3.55499482485226e-013
21
-0.370740728286133
31
0.344852380637574
  0
LINE
  8
MY3DLAYER
10
-3.55499482485226e-013
20
-0.370740728286133
30
0.344852380637574
11
-3.57945932009246e-013
21
-0.375
31
0.312499999999758
  0
LINE
  8
MY3DLAYER
10
-3.3691685345158e-013
20
-0.338388347648318
30
0.400888347648077
11
-3.48326855405281e-013
21
-0.358253175473055
31
0.374999999999758
  0
LINE
  8
MY3DLAYER
10
-2.50249284185558e-013
20
-0.1875
30
0.204246824526704
11
-2.35379480135328e-013
21
-0.161611652351682
31
0.22411165235144
  0
LINE
  8
MY3DLAYER
10
-2.86148166793454e-013
20
-0.25
30
0.187499999999758
11
-2.67565537759808e-013
21
-0.217647619362185
31
0.191759271713625
  0
LINE
  8
MY3DLAYER
10
-3.2204704940135e-013
20
-0.3125
30
0.204246824526704
11
-3.047307958271e-013
21
-0.282352380637815
31
0.191759271713625
  0
LINE
  8
MY3DLAYER
10
-3.2204704940135e-013
20
-0.3125
30
0.420753175472813
11
-3.3691685345158e-013
21
-0.338388347648318
31
0.400888347648077
  0
LINE
  8
MY3DLAYER
10
-3.3691685345158e-013
20
-0.338388347648318
30
0.22411165235144
11
-3.2204704940135e-013
21
-0.3125
31
0.204246824526704
  0
LINE
  8
MY3DLAYER
10
-3.047307958271e-013
20
-0.282352380637815
30
0.191759271713625
11
-2.86148166793454e-013
21
-0.25
31
0.187499999999758
  0
LINE
  8
MY3DLAYER
10
0.687499999999138
20
-1.50000000000039
30
0.75
11
0.6875
21
-3.94887708686856e-013
31
0.75
  0
LINE
  8
MY3DLAYER
10
0.374999999999516
20
-0.593750000000215
30
0.75
11
0.39926428547788
21
-0.59055554621483
31
0.75
  0
LINE
  8
MY3DLAYER
10
-2.16796851101682e-013
20
-0.129259271713867
30
0.280147619361943
11
-2.14350401577662e-013
21
-0.125
31
0.312499999999758
  0
LINE
  8
MY3DLAYER
10
-2.67565537759808e-013
20
-0.217647619362185
30
0.191759271713625
11
-2.50249284185558e-013
21
-0.1875
31
0.204246824526704
  0
LINE
  8
MY3DLAYER
10
-2.35379480135328e-013
20
-0.161611652351682
30
0.22411165235144
11
-2.23969478181628e-013
21
-0.141746824526945
31
0.249999999999758
  0
LINE
  8
MY3DLAYER
10
0.350735714521157
20
-0.590555546214802
30
0.75
11
0.374999999999516
21
-0.593750000000215
31
0.75
  0
LINE
  8
MY3DLAYER
10
0.328124999999524
20
-0.58118988160498
30
0.75
11
0.350735714521157
21
-0.590555546214802
31
0.75
  0
LINE
  8
MY3DLAYER
10
0.293810118394752
20
-0.546875000000169
30
0.75
11
0.308708739263293
21
-0.566291260736416
31
0.75
  0
LINE
  8
MY3DLAYER
10
-2.23969478181628e-013
20
-0.141746824526945
30
0.249999999999758
11
-2.16796851101682e-013
21
-0.129259271713867
31
0.280147619361943
  0
LINE
  8
MY3DLAYER
10
0.284444453784956
20
-0.524264285478525
30
0.75
11
0.293810118394752
21
-0.546875000000169
31
0.75
  0
LINE
  8
MY3DLAYER
10
0.308708739263293
20
-0.566291260736416
30
0.75
11
0.328124999999524
21
-0.58118988160498
31
0.75
  0
LINE
  8
MY3DLAYER
10
-3.57945932009246e-013
20
-0.375
30
0.312499999999758
11
-3.55499482485226e-013
21
-0.370740728286133
31
0.280147619361943
  0
LINE
  8
MY3DLAYER
10
0.28124999999957
20
-0.500000000000162
30
0.75
11
0.284444453784956
21
-0.524264285478525
31
0.75
  0
LINE
  8
MY3DLAYER
10
-8.61573182589503e-013
20
-1.5
30
0.0
11
0.0
21
1.03871179690637e-029
31
0.0
  0
LINE
  8
MY3DLAYER
10
0.42187499999933
20
-0.918810118395451
30
0.75
11
0.399264285477697
21
-0.909444453785629
31
0.75
  0
LINE
  8
MY3DLAYER
10
0.44129126073556
20
-0.933708739264015
30
0.75
11
0.42187499999933
21
-0.918810118395451
31
0.75
  0
LINE
  8
MY3DLAYER
10
0.456189881604101
20
-0.953125000000262
30
0.75
11
0.44129126073556
21
-0.933708739264015
31
0.75
  0
LINE
  8
MY3DLAYER
10
0.461764285477591
20
-1.34055554621487
30
0.75
11
0.484374999999235
21
-1.33118988160507
31
0.75
  0
LINE
  8
MY3DLAYER
10
0.437499999999228
20
-1.34375000000025
30
0.75
11
0.461764285477591
21
-1.34055554621487
31
0.75
  0
LINE
  8
MY3DLAYER
10
0.413235714520868
20
-1.34055554621484
30
0.75
11
0.437499999999228
21
-1.34375000000025
31
0.75
  0
LINE
  8
MY3DLAYER
10
0.437499999999802
20
-0.343750000000251
30
0.75
11
0.461764285478165
21
-0.340555546214865
31
0.75
  0
LINE
  8
MY3DLAYER
10
0.413235714521443
20
-0.340555546214838
30
0.75
11
0.437499999999802
21
-0.343750000000251
31
0.75
  0
LINE
  8
MY3DLAYER
10
0.39062499999981
20
-0.331189881605016
30
0.75
11
0.413235714521443
21
-0.340555546214838
31
0.75
  0
LINE
  8
MY3DLAYER
10
0.371208739263579
20
-0.316291260736452
30
0.75
11
0.39062499999981
21
-0.331189881605016
31
0.75
  0
LINE
  8
MY3DLAYER
10
0.390624999999235
20
-1.33118988160501
30
0.75
11
0.413235714520868
21
-1.34055554621484
31
0.75
  0
LINE
  8
MY3DLAYER
10
0.441291260735847
20
-0.433708739264015
30
0.75
11
0.421874999999617
21
-0.418810118395451
31
0.75
  0
LINE
  8
MY3DLAYER
10
0.456189881604388
20
-0.453125000000262
30
0.75
11
0.441291260735847
21
-0.433708739264015
31
0.75
  0
LINE
  8
MY3DLAYER
10
0.30870873926337
20
-0.433708739263938
30
0.75
11
0.293810118394806
21
-0.453125000000169
31
0.75
  0
LINE
  8
MY3DLAYER
10
0.328124999999617
20
-0.418810118395397
30
0.75
11
0.30870873926337
21
-0.433708739263938
31
0.75
  0
LINE
  8
MY3DLAYER
10
0.350735714521261
20
-0.409444453785601
30
0.75
11
0.328124999999617
21
-0.418810118395397
31
0.75
  0
LINE
  8
MY3DLAYER
10
0.374999999999624
20
-0.406250000000215
30
0.75
11
0.350735714521261
21
-0.409444453785601
31
0.75
  0
LINE
  8
MY3DLAYER
10
0.399264285477984
20
-0.409444453785629
30
0.75
11
0.374999999999624
21
-0.406250000000215
31
0.75
  0
LINE
  8
MY3DLAYER
10
0.39926428547788
20
-0.59055554621483
30
0.75
11
0.421874999999524
21
-0.581189881605033
31
0.75
  0
LINE
  8
MY3DLAYER
10
0.374999999999229
20
-1.09375000000022
30
0.75
11
0.399264285477593
21
-1.09055554621483
31
0.75
  0
LINE
  8
MY3DLAYER
10
0.35073571452087
20
-1.0905555462148
30
0.75
11
0.374999999999229
21
-1.09375000000022
31
0.75
  0
LINE
  8
MY3DLAYER
10
0.328124999999236
20
-1.08118988160498
30
0.75
11
0.35073571452087
21
-1.0905555462148
31
0.75
  0
LINE
  8
MY3DLAYER
10
0.308708739263006
20
-1.06629126073642
30
0.75
11
0.328124999999236
21
-1.08118988160498
31
0.75
  0
LINE
  8
MY3DLAYER
10
0.293810118394465
20
-1.04687500000017
30
0.75
11
0.308708739263006
21
-1.06629126073642
31
0.75
  0
LINE
  8
MY3DLAYER
10
0.284444453784669
20
-1.02426428547852
30
0.75
11
0.293810118394465
21
-1.04687500000017
31
0.75
  0
LINE
  8
MY3DLAYER
10
0.281249999999283
20
-1.00000000000016
30
0.75
11
0.284444453784669
21
-1.02426428547852
31
0.75
  0
LINE
  8
MY3DLAYER
10
0.284444453784697
20
-0.975735714521802
30
0.75
11
0.281249999999283
21
-1.00000000000016
31
0.75
  0
LINE
  8
MY3DLAYER
10
0.293810118394519
20
-0.953125000000169
30
0.75
11
0.284444453784697
21
-0.975735714521802
31
0.75
  0
LINE
  8
MY3DLAYER
10
0.284444453784984
20
-0.475735714521802
30
0.75
11
0.28124999999957
21
-0.500000000000162
31
0.75
  0
LINE
  8
MY3DLAYER
10
0.293810118394806
20
-0.453125000000169
30
0.75
11
0.284444453784984
21
-0.475735714521802
31
0.75
  0
LINE
  8
MY3DLAYER
10
0.421874999999617
20
-0.418810118395451
30
0.75
11
0.399264285477984
21
-0.409444453785629
31
0.75
  0
LINE
  8
MY3DLAYER
10
0.465555546214184
20
-0.475735714521906
30
0.75
11
0.456189881604388
21
-0.453125000000262
31
0.75
  0
LINE
  8
MY3DLAYER
10
0.46874999999957
20
-0.500000000000269
30
0.75
11
0.465555546214184
21
-0.475735714521906
31
0.75
  0
LINE
  8
MY3DLAYER
10
0.465555546214156
20
-0.524264285478629
30
0.75
11
0.46874999999957
21
-0.500000000000269
31
0.75
  0
LINE
  8
MY3DLAYER
10
0.456189881604334
20
-0.546875000000262
30
0.75
11
0.465555546214156
21
-0.524264285478629
31
0.75
  0
LINE
  8
MY3DLAYER
10
0.441291260735771
20
-0.566291260736492
30
0.75
11
0.456189881604334
21
-0.546875000000262
31
0.75
  0
LINE
  8
MY3DLAYER
10
0.421874999999524
20
-0.581189881605033
30
0.75
11
0.441291260735771
21
-0.566291260736492
31
0.75
  0
LINE
  8
MY3DLAYER
10
0.308708739263082
20
-0.933708739263938
30
0.75
11
0.293810118394519
21
-0.953125000000169
31
0.75
  0
LINE
  8
MY3DLAYER
10
0.32812499999933
20
-0.918810118395397
30
0.75
11
0.308708739263082
21
-0.933708739263938
31
0.75
  0
LINE
  8
MY3DLAYER
10
0.350735714520974
20
-0.909444453785601
30
0.75
11
0.32812499999933
21
-0.918810118395397
31
0.75
  0
LINE
  8
MY3DLAYER
10
0.374999999999337
20
-0.906250000000215
30
0.75
11
0.350735714520974
21
-0.909444453785601
31
0.75
  0
LINE
  8
MY3DLAYER
10
0.399264285477697
20
-0.909444453785629
30
0.75
11
0.374999999999337
21
-0.906250000000215
31
0.75
  0
LINE
  8
MY3DLAYER
10
0.465555546213897
20
-0.975735714521906
30
0.75
11
0.456189881604101
21
-0.953125000000262
31
0.75
  0
LINE
  8
MY3DLAYER
10
0.468749999999283
20
-1.00000000000027
30
0.75
11
0.465555546213897
21
-0.975735714521906
31
0.75
  0
LINE
  8
MY3DLAYER
10
0.465555546213869
20
-1.02426428547863
30
0.75
11
0.468749999999283
21
-1.00000000000027
31
0.75
  0
LINE
  8
MY3DLAYER
10
0.456189881604047
20
-1.04687500000026
30
0.75
11
0.465555546213869
21
-1.02426428547863
31
0.75
  0
LINE
  8
MY3DLAYER
10
0.441291260735484
20
-1.06629126073649
30
0.75
11
0.456189881604047
21
-1.04687500000026
31
0.75
  0
LINE
  8
MY3DLAYER
10
0.371208739263005
20
-1.31629126073645
30
0.75
11
0.390624999999235
21
-1.33118988160501
31
0.75
  0
LINE
  8
MY3DLAYER
10
0.356310118394464
20
-1.2968750000002
30
0.75
11
0.371208739263005
21
-1.31629126073645
31
0.75
  0
LINE
  8
MY3DLAYER
10
0.346944453784668
20
-1.27426428547856
30
0.75
11
0.356310118394464
21
-1.2968750000002
31
0.75
  0
LINE
  8
MY3DLAYER
10
0.343749999999282
20
-1.2500000000002
30
0.75
11
0.346944453784668
21
-1.27426428547856
31
0.75
  0
LINE
  8
MY3DLAYER
10
0.346944453784696
20
-1.22573571452184
30
0.75
11
0.343749999999282
21
-1.2500000000002
31
0.75
  0
LINE
  8
MY3DLAYER
10
0.356310118394518
20
-1.2031250000002
30
0.75
11
0.346944453784696
21
-1.22573571452184
31
0.75
  0
LINE
  8
MY3DLAYER
10
0.371208739263081
20
-1.18370873926397
30
0.75
11
0.356310118394518
21
-1.2031250000002
31
0.75
  0
LINE
  8
MY3DLAYER
10
0.390624999999328
20
-1.16881011839543
30
0.75
11
0.371208739263081
21
-1.18370873926397
31
0.75
  0
LINE
  8
MY3DLAYER
10
0.413235714520972
20
-1.15944445378564
30
0.75
11
0.390624999999328
21
-1.16881011839543
31
0.75
  0
LINE
  8
MY3DLAYER
10
0.437499999999336
20
-1.15625000000025
30
0.75
11
0.413235714520972
21
-1.15944445378564
31
0.75
  0
LINE
  8
MY3DLAYER
10
0.461764285477695
20
-1.15944445378566
30
0.75
11
0.437499999999336
21
-1.15625000000025
31
0.75
  0
LINE
  8
MY3DLAYER
10
0.484374999999328
20
-1.16881011839549
30
0.75
11
0.461764285477695
21
-1.15944445378566
31
0.75
  0
LINE
  8
MY3DLAYER
10
0.503791260735559
20
-1.18370873926405
30
0.75
11
0.484374999999328
21
-1.16881011839549
31
0.75
  0
LINE
  8
MY3DLAYER
10
0.5186898816041
20
-1.2031250000003
30
0.75
11
0.503791260735559
21
-1.18370873926405
31
0.75
  0
LINE
  8
MY3DLAYER
10
0.528055546213896
20
-1.22573571452194
30
0.75
11
0.5186898816041
21
-1.2031250000003
31
0.75
  0
LINE
  8
MY3DLAYER
10
0.531249999999856
20
-0.250000000000305
30
0.75
11
0.52805554621447
21
-0.225735714521942
31
0.75
  0
LINE
  8
MY3DLAYER
10
0.528055546214442
20
-0.274264285478665
30
0.75
11
0.531249999999856
21
-0.250000000000305
31
0.75
  0
LINE
  8
MY3DLAYER
10
0.51868988160462
20
-0.296875000000298
30
0.75
11
0.528055546214442
21
-0.274264285478665
31
0.75
  0
LINE
  8
MY3DLAYER
10
0.503791260736057
20
-0.316291260736528
30
0.75
11
0.51868988160462
21
-0.296875000000298
31
0.75
  0
LINE
  8
MY3DLAYER
10
0.484374999999809
20
-0.331189881605069
30
0.75
11
0.503791260736057
21
-0.316291260736528
31
0.75
  0
LINE
  8
MY3DLAYER
10
0.461764285478165
20
-0.340555546214865
30
0.75
11
0.484374999999809
21
-0.331189881605069
31
0.75
  0
LINE
  8
MY3DLAYER
10
0.356310118395038
20
-0.296875000000205
30
0.75
11
0.371208739263579
21
-0.316291260736452
31
0.75
  0
LINE
  8
MY3DLAYER
10
0.346944453785242
20
-0.274264285478561
30
0.75
11
0.356310118395038
21
-0.296875000000205
31
0.75
  0
LINE
  8
MY3DLAYER
10
0.343749999999856
20
-0.250000000000197
30
0.75
11
0.346944453785242
21
-0.274264285478561
31
0.75
  0
LINE
  8
MY3DLAYER
10
0.34694445378527
20
-0.225735714521838
30
0.75
11
0.343749999999856
21
-0.250000000000197
31
0.75
  0
LINE
  8
MY3DLAYER
10
0.356310118395092
20
-0.203125000000205
30
0.75
11
0.34694445378527
21
-0.225735714521838
31
0.75
  0
LINE
  8
MY3DLAYER
10
0.371208739263655
20
-0.183708739263974
30
0.75
11
0.356310118395092
21
-0.203125000000205
31
0.75
  0
LINE
  8
MY3DLAYER
10
0.390624999999903
20
-0.168810118395433
30
0.75
11
0.371208739263655
21
-0.183708739263974
31
0.75
  0
LINE
  8
MY3DLAYER
10
0.413235714521547
20
-0.159444453785637
30
0.75
11
0.390624999999903
21
-0.168810118395433
31
0.75
  0
LINE
  8
MY3DLAYER
10
0.43749999999991
20
-0.156250000000251
30
0.75
11
0.413235714521547
21
-0.159444453785637
31
0.75
  0
LINE
  8
MY3DLAYER
10
0.46176428547827
20
-0.159444453785665
30
0.75
11
0.43749999999991
21
-0.156250000000251
31
0.75
  0
LINE
  8
MY3DLAYER
10
0.484374999999903
20
-0.168810118395487
30
0.75
11
0.46176428547827
21
-0.159444453785665
31
0.75
  0
LINE
  8
MY3DLAYER
10
0.503791260736133
20
-0.18370873926405
30
0.75
11
0.484374999999903
21
-0.168810118395487
31
0.75
  0
LINE
  8
MY3DLAYER
10
0.518689881604674
20
-0.203125000000298
30
0.75
11
0.503791260736133
21
-0.18370873926405
31
0.75
  0
LINE
  8
MY3DLAYER
10
0.52805554621447
20
-0.225735714521942
30
0.75
11
0.518689881604674
21
-0.203125000000298
31
0.75
  0
LINE
  8
MY3DLAYER
10
0.124999999999857
20
-7.17977652157101e-014
30
0.625
11
0.124999999999857
21
-7.17977652157101e-014
31
0.0
  0
LINE
  8
MY3DLAYER
10
0.124999999999068
20
-1.37500000000007
30
0.312499999999758
11
0.12499999999907
21
-1.37074072828621
31
0.280147619361943
  0
LINE
  8
MY3DLAYER
10
0.12499999999907
20
-1.37074072828621
30
0.344852380637574
11
0.124999999999068
21
-1.37500000000007
31
0.312499999999758
  0
LINE
  8
MY3DLAYER
10
0.124999999999077
20
-1.35825317547313
30
0.374999999999758
11
0.12499999999907
21
-1.37074072828621
31
0.344852380637574
  0
LINE
  8
MY3DLAYER
10
0.284444453784984
20
-0.475735714521802
30
0.625
11
0.28124999999957
21
-0.500000000000162
31
0.625
  0
LINE
  8
MY3DLAYER
10
0.28124999999957
20
-0.500000000000162
30
0.625
11
0.284444453784956
21
-0.524264285478525
31
0.625
  0
LINE
  8
MY3DLAYER
10
0.284444453784956
20
-0.524264285478525
30
0.625
11
0.293810118394752
21
-0.546875000000169
31
0.625
  0
LINE
  8
MY3DLAYER
10
0.293810118394752
20
-0.546875000000169
30
0.625
11
0.308708739263293
21
-0.566291260736416
31
0.625
  0
LINE
  8
MY3DLAYER
10
0.308708739263293
20
-0.566291260736416
30
0.625
11
0.328124999999524
21
-0.58118988160498
31
0.625
  0
LINE
  8
MY3DLAYER
10
0.124999999998996
20
-1.50000000000007
30
0.625
11
0.124999999999857
21
-7.17977652157101e-014
31
0.625
  0
LINE
  8
MY3DLAYER
10
0.124999999999089
20
-1.33838834764839
30
0.400888347648077
11
0.124999999999077
21
-1.35825317547313
31
0.374999999999758
  0
LINE
  8
MY3DLAYER
10
0.124999999999104
20
-1.31250000000007
30
0.420753175472813
11
0.124999999999089
21
-1.33838834764839
31
0.400888347648077
  0
LINE
  8
MY3DLAYER
10
0.124999999999121
20
-1.28235238063789
30
0.433240728285892
11
0.124999999999104
21
-1.31250000000007
31
0.420753175472813
  0
LINE
  8
MY3DLAYER
10
0.124999999999139
20
-1.25000000000007
30
0.437499999999758
11
0.124999999999121
21
-1.28235238063789
31
0.433240728285892
  0
LINE
  8
MY3DLAYER
10
0.124999999999158
20
-1.21764761936226
30
0.433240728285892
11
0.124999999999139
21
-1.25000000000007
31
0.437499999999758
  0
LINE
  8
MY3DLAYER
10
0.124999999999175
20
-1.18750000000007
30
0.420753175472813
11
0.124999999999158
21
-1.21764761936226
31
0.433240728285892
  0
LINE
  8
MY3DLAYER
10
0.12499999999919
20
-1.16161165235175
30
0.400888347648077
11
0.124999999999175
21
-1.18750000000007
31
0.420753175472813
  0
LINE
  8
MY3DLAYER
10
0.124999999999202
20
-1.14174682452702
30
0.374999999999758
11
0.12499999999919
21
-1.16161165235175
31
0.400888347648077
  0
LINE
  8
MY3DLAYER
10
0.124999999999209
20
-1.12925927171394
30
0.344852380637574
11
0.124999999999202
21
-1.14174682452702
31
0.374999999999758
  0
LINE
  8
MY3DLAYER
10
0.124999999999211
20
-1.12500000000007
30
0.312499999999758
11
0.124999999999209
21
-1.12925927171394
31
0.344852380637574
  0
LINE
  8
MY3DLAYER
10
0.124999999999209
20
-1.12925927171394
30
0.280147619361943
11
0.124999999999211
21
-1.12500000000007
31
0.312499999999758
  0
LINE
  8
MY3DLAYER
10
0.124999999999202
20
-1.14174682452702
30
0.249999999999758
11
0.124999999999209
21
-1.12925927171394
31
0.280147619361943
  0
LINE
  8
MY3DLAYER
10
0.12499999999919
20
-1.16161165235175
30
0.22411165235144
11
0.124999999999202
21
-1.14174682452702
31
0.249999999999758
  0
LINE
  8
MY3DLAYER
10
0.124999999999175
20
-1.18750000000007
30
0.204246824526704
11
0.12499999999919
21
-1.16161165235175
31
0.22411165235144
  0
LINE
  8
MY3DLAYER
10
0.124999999999158
20
-1.21764761936226
30
0.191759271713625
11
0.124999999999175
21
-1.18750000000007
31
0.204246824526704
  0
LINE
  8
MY3DLAYER
10
0.124999999999139
20
-1.25000000000007
30
0.187499999999758
11
0.124999999999158
21
-1.21764761936226
31
0.191759271713625
  0
LINE
  8
MY3DLAYER
10
0.124999999999121
20
-1.28235238063789
30
0.191759271713625
11
0.124999999999139
21
-1.25000000000007
31
0.187499999999758
  0
LINE
  8
MY3DLAYER
10
0.124999999999104
20
-1.31250000000007
30
0.204246824526704
11
0.124999999999121
21
-1.28235238063789
31
0.191759271713625
  0
LINE
  8
MY3DLAYER
10
0.124999999999089
20
-1.33838834764839
30
0.22411165235144
11
0.124999999999104
21
-1.31250000000007
31
0.204246824526704
  0
LINE
  8
MY3DLAYER
10
0.124999999999077
20
-1.35825317547313
30
0.249999999999758
11
0.124999999999089
21
-1.33838834764839
31
0.22411165235144
  0
LINE
  8
MY3DLAYER
10
0.12499999999907
20
-1.37074072828621
30
0.280147619361943
11
0.124999999999077
21
-1.35825317547313
31
0.249999999999758
  0
LINE
  8
MY3DLAYER
10
0.124999999999786
20
-0.125000000000072
30
0.312499999999758
11
0.124999999999783
21
-0.129259271713938
31
0.344852380637574
  0
LINE
  8
MY3DLAYER
10
0.124999999999783
20
-0.129259271713938
30
0.280147619361943
11
0.124999999999786
21
-0.125000000000072
31
0.312499999999758
  0
LINE
  8
MY3DLAYER
10
0.124999999999776
20
-0.141746824527017
30
0.249999999999758
11
0.124999999999783
21
-0.129259271713938
31
0.280147619361943
  0
LINE
  8
MY3DLAYER
10
0.124999999999765
20
-0.161611652351753
30
0.22411165235144
11
0.124999999999776
21
-0.141746824527017
31
0.249999999999758
  0
LINE
  8
MY3DLAYER
10
0.12499999999975
20
-0.187500000000072
30
0.204246824526704
11
0.124999999999765
21
-0.161611652351753
31
0.22411165235144
  0
LINE
  8
MY3DLAYER
10
0.124999999999732
20
-0.217647619362257
30
0.191759271713625
11
0.12499999999975
21
-0.187500000000072
31
0.204246824526704
  0
LINE
  8
MY3DLAYER
10
0.124999999999714
20
-0.250000000000072
30
0.187499999999758
11
0.124999999999732
21
-0.217647619362257
31
0.191759271713625
  0
LINE
  8
MY3DLAYER
10
0.124999999999695
20
-0.282352380637887
30
0.191759271713625
11
0.124999999999714
21
-0.250000000000072
31
0.187499999999758
  0
LINE
  8
MY3DLAYER
10
0.124999999999678
20
-0.312500000000072
30
0.204246824526704
11
0.124999999999695
21
-0.282352380637887
31
0.191759271713625
  0
LINE
  8
MY3DLAYER
10
0.124999999999663
20
-0.33838834764839
30
0.22411165235144
11
0.124999999999678
21
-0.312500000000072
31
0.204246824526704
  0
LINE
  8
MY3DLAYER
10
0.124999999999652
20
-0.358253175473127
30
0.249999999999758
11
0.124999999999663
21
-0.33838834764839
31
0.22411165235144
  0
LINE
  8
MY3DLAYER
10
0.124999999999645
20
-0.370740728286205
30
0.280147619361943
11
0.124999999999652
21
-0.358253175473127
31
0.249999999999758
  0
LINE
  8
MY3DLAYER
10
0.124999999999642
20
-0.375000000000072
30
0.312499999999758
11
0.124999999999645
21
-0.370740728286205
31
0.280147619361943
  0
LINE
  8
MY3DLAYER
10
0.124999999999645
20
-0.370740728286205
30
0.344852380637574
11
0.124999999999642
21
-0.375000000000072
31
0.312499999999758
  0
LINE
  8
MY3DLAYER
10
0.124999999999652
20
-0.358253175473127
30
0.374999999999758
11
0.124999999999645
21
-0.370740728286205
31
0.344852380637574
  0
LINE
  8
MY3DLAYER
10
0.124999999999663
20
-0.33838834764839
30
0.400888347648077
11
0.124999999999652
21
-0.358253175473127
31
0.374999999999758
  0
LINE
  8
MY3DLAYER
10
0.124999999999678
20
-0.312500000000072
30
0.420753175472813
11
0.124999999999663
21
-0.33838834764839
31
0.400888347648077
  0
LINE
  8
MY3DLAYER
10
0.124999999999695
20
-0.282352380637887
30
0.433240728285892
11
0.124999999999678
21
-0.312500000000072
31
0.420753175472813
  0
LINE
  8
MY3DLAYER
10
0.124999999999714
20
-0.250000000000072
30
0.437499999999758
11
0.124999999999695
21
-0.282352380637887
31
0.433240728285892
  0
LINE
  8
MY3DLAYER
10
0.124999999999732
20
-0.217647619362257
30
0.433240728285892
11
0.124999999999714
21
-0.250000000000072
31
0.437499999999758
  0
LINE
  8
MY3DLAYER
10
0.12499999999975
20
-0.187500000000072
30
0.420753175472813
11
0.124999999999732
21
-0.217647619362257
31
0.433240728285892
  0
LINE
  8
MY3DLAYER
10
0.124999999999765
20
-0.161611652351753
30
0.400888347648077
11
0.12499999999975
21
-0.187500000000072
31
0.420753175472813
  0
LINE
  8
MY3DLAYER
10
0.124999999999776
20
-0.141746824527017
30
0.374999999999758
11
0.124999999999765
21
-0.161611652351753
31
0.400888347648077
  0
LINE
  8
MY3DLAYER
10
0.124999999999783
20
-0.129259271713938
30
0.344852380637574
11
0.124999999999776
21
-0.141746824527017
31
0.374999999999758
  0
LINE
  8
MY3DLAYER
10
0.399264285477984
20
-0.409444453785629
30
0.625
11
0.374999999999624
21
-0.406250000000215
31
0.625
  0
LINE
  8
MY3DLAYER
10
0.374999999999624
20
-0.406250000000215
30
0.625
11
0.350735714521261
21
-0.409444453785601
31
0.625
  0
LINE
  8
MY3DLAYER
10
0.350735714521261
20
-0.409444453785601
30
0.625
11
0.328124999999617
21
-0.418810118395397
31
0.625
  0
LINE
  8
MY3DLAYER
10
0.328124999999617
20
-0.418810118395397
30
0.625
11
0.30870873926337
21
-0.433708739263938
31
0.625
  0
LINE
  8
MY3DLAYER
10
0.30870873926337
20
-0.433708739263938
30
0.625
11
0.293810118394806
21
-0.453125000000169
31
0.625
  0
LINE
  8
MY3DLAYER
10
0.293810118394806
20
-0.453125000000169
30
0.625
11
0.284444453784984
21
-0.475735714521802
31
0.625
  0
LINE
  8
MY3DLAYER
10
0.6875
20
-3.94887708686856e-013
30
0.75
11
0.6875
21
-3.94887708686856e-013
31
0.625
  0
LINE
  8
MY3DLAYER
10
0.6875
20
-3.94887708686856e-013
30
0.625
11
0.124999999999857
21
-7.17977652157101e-014
31
0.625
  0
LINE
  8
MY3DLAYER
10
0.374999999999516
20
-0.593750000000215
30
0.625
11
0.39926428547788
21
-0.59055554621483
31
0.625
  0
LINE
  8
MY3DLAYER
10
0.39926428547788
20
-0.59055554621483
30
0.625
11
0.421874999999524
21
-0.581189881605033
31
0.625
  0
LINE
  8
MY3DLAYER
10
0.421874999999524
20
-0.581189881605033
30
0.625
11
0.441291260735771
21
-0.566291260736492
31
0.625
  0
LINE
  8
MY3DLAYER
10
0.441291260735771
20
-0.566291260736492
30
0.625
11
0.456189881604334
21
-0.546875000000262
31
0.625
  0
LINE
  8
MY3DLAYER
10
0.456189881604334
20
-0.546875000000262
30
0.625
11
0.465555546214156
21
-0.524264285478629
31
0.625
  0
LINE
  8
MY3DLAYER
10
0.465555546214156
20
-0.524264285478629
30
0.625
11
0.46874999999957
21
-0.500000000000269
31
0.625
  0
LINE
  8
MY3DLAYER
10
0.46874999999957
20
-0.500000000000269
30
0.625
11
0.465555546214184
21
-0.475735714521906
31
0.625
  0
LINE
  8
MY3DLAYER
10
0.465555546214184
20
-0.475735714521906
30
0.625
11
0.456189881604388
21
-0.453125000000262
31
0.625
  0
LINE
  8
MY3DLAYER
10
0.456189881604388
20
-0.453125000000262
30
0.625
11
0.441291260735847
21
-0.433708739264015
31
0.625
  0
LINE
  8
MY3DLAYER
10
0.441291260735847
20
-0.433708739264015
30
0.625
11
0.421874999999617
21
-0.418810118395451
31
0.625
  0
LINE
  8
MY3DLAYER
10
0.421874999999617
20
-0.418810118395451
30
0.625
11
0.399264285477984
21
-0.409444453785629
31
0.625
  0
LINE
  8
MY3DLAYER
10
0.328124999999524
20
-0.58118988160498
30
0.625
11
0.350735714521157
21
-0.590555546214802
31
0.625
  0
LINE
  8
MY3DLAYER
10
0.350735714521157
20
-0.590555546214802
30
0.625
11
0.374999999999516
21
-0.593750000000215
31
0.625
  0
LINE
  8
MY3DLAYER
10
0.374999999999229
20
-1.09375000000022
30
0.625
11
0.399264285477593
21
-1.09055554621483
31
0.625
  0
LINE
  8
MY3DLAYER
10
0.399264285477593
20
-1.09055554621483
30
0.625
11
0.421874999999236
21
-1.08118988160503
31
0.625
  0
LINE
  8
MY3DLAYER
10
0.421874999999236
20
-1.08118988160503
30
0.625
11
0.441291260735484
21
-1.06629126073649
31
0.625
  0
LINE
  8
MY3DLAYER
10
0.441291260735484
20
-1.06629126073649
30
0.625
11
0.456189881604047
21
-1.04687500000026
31
0.625
  0
LINE
  8
MY3DLAYER
10
0.456189881604047
20
-1.04687500000026
30
0.625
11
0.465555546213869
21
-1.02426428547863
31
0.625
  0
LINE
  8
MY3DLAYER
10
0.465555546213869
20
-1.02426428547863
30
0.625
11
0.468749999999283
21
-1.00000000000027
31
0.625
  0
LINE
  8
MY3DLAYER
10
0.468749999999283
20
-1.00000000000027
30
0.625
11
0.465555546213897
21
-0.975735714521906
31
0.625
  0
LINE
  8
MY3DLAYER
10
0.465555546213897
20
-0.975735714521906
30
0.625
11
0.456189881604101
21
-0.953125000000262
31
0.625
  0
LINE
  8
MY3DLAYER
10
0.456189881604101
20
-0.953125000000262
30
0.625
11
0.44129126073556
21
-0.933708739264015
31
0.625
  0
LINE
  8
MY3DLAYER
10
0.44129126073556
20
-0.933708739264015
30
0.625
11
0.42187499999933
21
-0.918810118395451
31
0.625
  0
LINE
  8
MY3DLAYER
10
0.42187499999933
20
-0.918810118395451
30
0.625
11
0.399264285477697
21
-0.909444453785629
31
0.625
  0
LINE
  8
MY3DLAYER
10
0.399264285477697
20
-0.909444453785629
30
0.625
11
0.374999999999337
21
-0.906250000000215
31
0.625
  0
LINE
  8
MY3DLAYER
10
0.374999999999337
20
-0.906250000000215
30
0.625
11
0.350735714520974
21
-0.909444453785601
31
0.625
  0
LINE
  8
MY3DLAYER
10
0.350735714520974
20
-0.909444453785601
30
0.625
11
0.32812499999933
21
-0.918810118395397
31
0.625
  0
LINE
  8
MY3DLAYER
10
0.32812499999933
20
-0.918810118395397
30
0.625
11
0.308708739263082
21
-0.933708739263938
31
0.625
  0
LINE
  8
MY3DLAYER
10
0.308708739263082
20
-0.933708739263938
30
0.625
11
0.293810118394519
21
-0.953125000000169
31
0.625
  0
LINE
  8
MY3DLAYER
10
0.293810118394519
20
-0.953125000000169
30
0.625
11
0.284444453784697
21
-0.975735714521802
31
0.625
  0
LINE
  8
MY3DLAYER
10
0.284444453784697
20
-0.975735714521802
30
0.625
11
0.281249999999283
21
-1.00000000000016
31
0.625
  0
LINE
  8
MY3DLAYER
10
0.281249999999283
20
-1.00000000000016
30
0.625
11
0.284444453784669
21
-1.02426428547852
31
0.625
  0
LINE
  8
MY3DLAYER
10
0.284444453784669
20
-1.02426428547852
30
0.625
11
0.293810118394465
21
-1.04687500000017
31
0.625
  0
LINE
  8
MY3DLAYER
10
0.293810118394465
20
-1.04687500000017
30
0.625
11
0.308708739263006
21
-1.06629126073642
31
0.625
  0
LINE
  8
MY3DLAYER
10
0.308708739263006
20
-1.06629126073642
30
0.625
11
0.328124999999236
21
-1.08118988160498
31
0.625
  0
LINE
  8
MY3DLAYER
10
0.328124999999236
20
-1.08118988160498
30
0.625
11
0.35073571452087
21
-1.0905555462148
31
0.625
  0
LINE
  8
MY3DLAYER
10
0.35073571452087
20
-1.0905555462148
30
0.625
11
0.374999999999229
21
-1.09375000000022
31
0.625
  0
LINE
  8
MY3DLAYER
10
0.531249999999282
20
-1.2500000000003
30
0.625
11
0.528055546213896
21
-1.22573571452194
31
0.625
  0
LINE
  8
MY3DLAYER
10
0.528055546213896
20
-1.22573571452194
30
0.625
11
0.5186898816041
21
-1.2031250000003
31
0.625
  0
LINE
  8
MY3DLAYER
10
0.5186898816041
20
-1.2031250000003
30
0.625
11
0.503791260735559
21
-1.18370873926405
31
0.625
  0
LINE
  8
MY3DLAYER
10
0.503791260735559
20
-1.18370873926405
30
0.625
11
0.484374999999328
21
-1.16881011839549
31
0.625
  0
LINE
  8
MY3DLAYER
10
0.484374999999328
20
-1.16881011839549
30
0.625
11
0.461764285477695
21
-1.15944445378566
31
0.625
  0
LINE
  8
MY3DLAYER
10
0.461764285477695
20
-1.15944445378566
30
0.625
11
0.437499999999336
21
-1.15625000000025
31
0.625
  0
LINE
  8
MY3DLAYER
10
0.437499999999336
20
-1.15625000000025
30
0.625
11
0.413235714520972
21
-1.15944445378564
31
0.625
  0
LINE
  8
MY3DLAYER
10
0.413235714520972
20
-1.15944445378564
30
0.625
11
0.390624999999328
21
-1.16881011839543
31
0.625
  0
LINE
  8
MY3DLAYER
10
0.390624999999328
20
-1.16881011839543
30
0.625
11
0.371208739263081
21
-1.18370873926397
31
0.625
  0
LINE
  8
MY3DLAYER
10
0.371208739263081
20
-1.18370873926397
30
0.625
11
0.356310118394518
21
-1.2031250000002
31
0.625
  0
LINE
  8
MY3DLAYER
10
0.356310118394518
20
-1.2031250000002
30
0.625
11
0.346944453784696
21
-1.22573571452184
31
0.625
  0
LINE
  8
MY3DLAYER
10
0.346944453784696
20
-1.22573571452184
30
0.625
11
0.343749999999282
21
-1.2500000000002
31
0.625
  0
LINE
  8
MY3DLAYER
10
0.343749999999282
20
-1.2500000000002
30
0.625
11
0.346944453784668
21
-1.27426428547856
31
0.625
  0
LINE
  8
MY3DLAYER
10
0.346944453784668
20
-1.27426428547856
30
0.625
11
0.356310118394464
21
-1.2968750000002
31
0.625
  0
LINE
  8
MY3DLAYER
10
0.356310118394464
20
-1.2968750000002
30
0.625
11
0.371208739263005
21
-1.31629126073645
31
0.625
  0
LINE
  8
MY3DLAYER
10
0.371208739263005
20
-1.31629126073645
30
0.625
11
0.390624999999235
21
-1.33118988160501
31
0.625
  0
LINE
  8
MY3DLAYER
10
0.390624999999235
20
-1.33118988160501
30
0.625
11
0.413235714520868
21
-1.34055554621484
31
0.625
  0
LINE
  8
MY3DLAYER
10
0.413235714520868
20
-1.34055554621484
30
0.625
11
0.437499999999228
21
-1.34375000000025
31
0.625
  0
LINE
  8
MY3DLAYER
10
0.437499999999228
20
-1.34375000000025
30
0.625
11
0.461764285477591
21
-1.34055554621487
31
0.625
  0
LINE
  8
MY3DLAYER
10
0.461764285477591
20
-1.34055554621487
30
0.625
11
0.484374999999235
21
-1.33118988160507
31
0.625
  0
LINE
  8
MY3DLAYER
10
0.484374999999235
20
-1.33118988160507
30
0.625
11
0.503791260735483
21
-1.31629126073653
31
0.625
  0
LINE
  8
MY3DLAYER
10
0.503791260735483
20
-1.31629126073653
30
0.625
11
0.518689881604046
21
-1.2968750000003
31
0.625
  0
LINE
  8
MY3DLAYER
10
0.518689881604046
20
-1.2968750000003
30
0.625
11
0.528055546213868
21
-1.27426428547866
31
0.625
  0
LINE
  8
MY3DLAYER
10
0.528055546213868
20
-1.27426428547866
30
0.625
11
0.531249999999282
21
-1.2500000000003
31
0.625
  0
LINE
  8
MY3DLAYER
10
0.531249999999856
20
-0.250000000000305
30
0.625
11
0.52805554621447
21
-0.225735714521942
31
0.625
  0
LINE
  8
MY3DLAYER
10
0.52805554621447
20
-0.225735714521942
30
0.625
11
0.518689881604674
21
-0.203125000000298
31
0.625
  0
LINE
  8
MY3DLAYER
10
0.518689881604674
20
-0.203125000000298
30
0.625
11
0.503791260736133
21
-0.18370873926405
31
0.625
  0
LINE
  8
MY3DLAYER
10
0.503791260736133
20
-0.18370873926405
30
0.625
11
0.484374999999903
21
-0.168810118395487
31
0.625
  0
LINE
  8
MY3DLAYER
10
0.484374999999903
20
-0.168810118395487
30
0.625
11
0.46176428547827
21
-0.159444453785665
31
0.625
  0
LINE
  8
MY3DLAYER
10
0.46176428547827
20
-0.159444453785665
30
0.625
11
0.43749999999991
21
-0.156250000000251
31
0.625
  0
LINE
  8
MY3DLAYER
10
0.43749999999991
20
-0.156250000000251
30
0.625
11
0.413235714521547
21
-0.159444453785637
31
0.625
  0
LINE
  8
MY3DLAYER
10
0.413235714521547
20
-0.159444453785637
30
0.625
11
0.390624999999903
21
-0.168810118395433
31
0.625
  0
LINE
  8
MY3DLAYER
10
0.390624999999903
20
-0.168810118395433
30
0.625
11
0.371208739263655
21
-0.183708739263974
31
0.625
  0
LINE
  8
MY3DLAYER
10
0.371208739263655
20
-0.183708739263974
30
0.625
11
0.356310118395092
21
-0.203125000000205
31
0.625
  0
LINE
  8
MY3DLAYER
10
0.356310118395092
20
-0.203125000000205
30
0.625
11
0.34694445378527
21
-0.225735714521838
31
0.625
  0
LINE
  8
MY3DLAYER
10
0.34694445378527
20
-0.225735714521838
30
0.625
11
0.343749999999856
21
-0.250000000000197
31
0.625
  0
LINE
  8
MY3DLAYER
10
0.343749999999856
20
-0.250000000000197
30
0.625
11
0.346944453785242
21
-0.274264285478561
31
0.625
  0
LINE
  8
MY3DLAYER
10
0.346944453785242
20
-0.274264285478561
30
0.625
11
0.356310118395038
21
-0.296875000000205
31
0.625
  0
LINE
  8
MY3DLAYER
10
0.356310118395038
20
-0.296875000000205
30
0.625
11
0.371208739263579
21
-0.316291260736452
31
0.625
  0
LINE
  8
MY3DLAYER
10
0.371208739263579
20
-0.316291260736452
30
0.625
11
0.39062499999981
21
-0.331189881605016
31
0.625
  0
LINE
  8
MY3DLAYER
10
0.39062499999981
20
-0.331189881605016
30
0.625
11
0.413235714521443
21
-0.340555546214838
31
0.625
  0
LINE
  8
MY3DLAYER
10
0.413235714521443
20
-0.340555546214838
30
0.625
11
0.437499999999802
21
-0.343750000000251
31
0.625
  0
LINE
  8
MY3DLAYER
10
0.437499999999802
20
-0.343750000000251
30
0.625
11
0.461764285478165
21
-0.340555546214865
31
0.625
  0
LINE
  8
MY3DLAYER
10
0.461764285478165
20
-0.340555546214865
30
0.625
11
0.484374999999809
21
-0.331189881605069
31
0.625
  0
LINE
  8
MY3DLAYER
10
0.484374999999809
20
-0.331189881605069
30
0.625
11
0.503791260736057
21
-0.316291260736528
31
0.625
  0
LINE
  8
MY3DLAYER
10
0.503791260736057
20
-0.316291260736528
30
0.625
11
0.51868988160462
21
-0.296875000000298
31
0.625
  0
LINE
  8
MY3DLAYER
10
0.51868988160462
20
-0.296875000000298
30
0.625
11
0.528055546214442
21
-0.274264285478665
31
0.625
  0
LINE
  8
MY3DLAYER
10
0.528055546214442
20
-0.274264285478665
30
0.625
11
0.531249999999856
21
-0.250000000000305
31
0.625
  0
LINE
  8
MY3DLAYER
10
0.124999999999139
20
-1.25000000000007
30
0.437499999999758
11
-8.6053028851979e-013
21
-1.25
31
0.437499999999758
  0
LINE
  8
MY3DLAYER
10
0.124999999999158
20
-1.21764761936226
30
0.433240728285892
11
-8.41947659486143e-013
21
-1.21764761936219
31
0.433240728285892
  0
LINE
  8
MY3DLAYER
10
0.124999999999121
20
-1.28235238063789
30
0.433240728285892
11
-8.79112917553436e-013
21
-1.28235238063782
31
0.433240728285892
  0
LINE
  8
MY3DLAYER
10
0.124999999999104
20
-1.31250000000007
30
0.420753175472813
11
-8.96429171127686e-013
21
-1.3125
31
0.420753175472813
  0
LINE
  8
MY3DLAYER
10
0.12499999999907
20
-1.37074072828621
30
0.280147619361943
11
-9.29881604211562e-013
21
-1.37074072828613
31
0.280147619361943
  0
LINE
  8
MY3DLAYER
10
0.124999999999068
20
-1.37500000000007
30
0.312499999999758
11
-9.32328053735582e-013
21
-1.375
31
0.312499999999758
  0
LINE
  8
MY3DLAYER
10
0.124999999999077
20
-1.35825317547313
30
0.249999999999758
11
-9.22708977131616e-013
21
-1.35825317547305
31
0.249999999999758
  0
LINE
  8
MY3DLAYER
10
0.12499999999919
20
-1.16161165235175
30
0.22411165235144
11
-8.09761601861664e-013
21
-1.16161165235168
31
0.22411165235144
  0
LINE
  8
MY3DLAYER
10
0.124999999999175
20
-1.18750000000007
30
0.204246824526704
11
-8.24631405911894e-013
21
-1.1875
31
0.204246824526704
  0
LINE
  8
MY3DLAYER
10
0.124999999999202
20
-1.14174682452702
30
0.249999999999758
11
-7.98351599907963e-013
21
-1.14174682452695
31
0.249999999999758
  0
LINE
  8
MY3DLAYER
10
0.124999999999209
20
-1.12925927171394
30
0.280147619361943
11
-7.91178972828017e-013
21
-1.12925927171387
31
0.280147619361943
  0
LINE
  8
MY3DLAYER
10
0.124999999999089
20
-1.33838834764839
30
0.22411165235144
11
-9.11298975177916e-013
21
-1.33838834764832
31
0.22411165235144
  0
LINE
  8
MY3DLAYER
10
0.124999999999104
20
-1.31250000000007
30
0.204246824526704
11
-8.96429171127686e-013
21
-1.3125
31
0.204246824526704
  0
LINE
  8
MY3DLAYER
10
0.124999999999121
20
-1.28235238063789
30
0.191759271713625
11
-8.79112917553436e-013
21
-1.28235238063782
31
0.191759271713625
  0
LINE
  8
MY3DLAYER
10
0.124999999999139
20
-1.25000000000007
30
0.187499999999758
11
-8.6053028851979e-013
21
-1.25
31
0.187499999999758
  0
LINE
  8
MY3DLAYER
10
0.124999999999158
20
-1.21764761936226
30
0.191759271713625
11
-8.41947659486143e-013
21
-1.21764761936219
31
0.191759271713625
  0
LINE
  8
MY3DLAYER
10
0.124999999999089
20
-1.33838834764839
30
0.400888347648077
11
-9.11298975177916e-013
21
-1.33838834764832
31
0.400888347648077
  0
LINE
  8
MY3DLAYER
10
0.124999999999077
20
-1.35825317547313
30
0.374999999999758
11
-9.22708977131616e-013
21
-1.35825317547305
31
0.374999999999758
  0
LINE
  8
MY3DLAYER
10
0.12499999999907
20
-1.37074072828621
30
0.344852380637574
11
-9.29881604211562e-013
21
-1.37074072828613
31
0.344852380637574
  0
LINE
  8
MY3DLAYER
10
0.124999999999211
20
-1.12500000000007
30
0.312499999999758
11
-7.88732523303998e-013
21
-1.125
31
0.312499999999758
  0
LINE
  8
MY3DLAYER
10
0.124999999999209
20
-1.12925927171394
30
0.344852380637574
11
-7.91178972828017e-013
21
-1.12925927171387
31
0.344852380637574
  0
LINE
  8
MY3DLAYER
10
0.124999999999202
20
-1.14174682452702
30
0.374999999999758
11
-7.98351599907963e-013
21
-1.14174682452695
31
0.374999999999758
  0
LINE
  8
MY3DLAYER
10
0.12499999999919
20
-1.16161165235175
30
0.400888347648077
11
-8.09761601861664e-013
21
-1.16161165235168
31
0.400888347648077
  0
LINE
  8
MY3DLAYER
10
0.328124999999236
20
-1.08118988160498
30
0.75
11
0.328124999999236
21
-1.08118988160498
31
0.625
  0
LINE
  8
MY3DLAYER
10
0.308708739263006
20
-1.06629126073642
30
0.75
11
0.308708739263006
21
-1.06629126073642
31
0.625
  0
LINE
  8
MY3DLAYER
10
0.35073571452087
20
-1.0905555462148
30
0.75
11
0.35073571452087
21
-1.0905555462148
31
0.625
  0
LINE
  8
MY3DLAYER
10
0.374999999999229
20
-1.09375000000022
30
0.75
11
0.374999999999229
21
-1.09375000000022
31
0.625
  0
LINE
  8
MY3DLAYER
10
0.528055546213896
20
-1.22573571452194
30
0.75
11
0.528055546213896
21
-1.22573571452194
31
0.625
  0
LINE
  8
MY3DLAYER
10
0.531249999999282
20
-1.2500000000003
30
0.75
11
0.531249999999282
21
-1.2500000000003
31
0.625
  0
LINE
  8
MY3DLAYER
10
0.5186898816041
20
-1.2031250000003
30
0.75
11
0.5186898816041
21
-1.2031250000003
31
0.625
  0
LINE
  8
MY3DLAYER
10
0.503791260735559
20
-1.18370873926405
30
0.75
11
0.503791260735559
21
-1.18370873926405
31
0.625
  0
LINE
  8
MY3DLAYER
10
0.124999999999175
20
-1.18750000000007
30
0.420753175472813
11
-8.24631405911894e-013
21
-1.1875
31
0.420753175472813
  0
LINE
  8
MY3DLAYER
10
0.124999999999765
20
-0.161611652351753
30
0.400888347648077
11
-2.35379480135328e-013
21
-0.161611652351682
31
0.400888347648077
  0
LINE
  8
MY3DLAYER
10
0.124999999999776
20
-0.141746824527017
30
0.374999999999758
11
-2.23969478181627e-013
21
-0.141746824526945
31
0.374999999999758
  0
LINE
  8
MY3DLAYER
10
0.12499999999975
20
-0.187500000000072
30
0.420753175472813
11
-2.50249284185558e-013
21
-0.1875
31
0.420753175472813
  0
LINE
  8
MY3DLAYER
10
0.124999999999732
20
-0.217647619362257
30
0.433240728285892
11
-2.67565537759808e-013
21
-0.217647619362185
31
0.433240728285892
  0
LINE
  8
MY3DLAYER
10
0.124999999999714
20
-0.250000000000072
30
0.437499999999758
11
-2.86148166793454e-013
21
-0.25
31
0.437499999999758
  0
LINE
  8
MY3DLAYER
10
0.124999999999783
20
-0.129259271713938
30
0.344852380637574
11
-2.16796851101682e-013
21
-0.129259271713867
31
0.344852380637574
  0
LINE
  8
MY3DLAYER
10
0.124999999999786
20
-0.125000000000072
30
0.312499999999758
11
-2.14350401577662e-013
21
-0.125
31
0.312499999999758
  0
LINE
  8
MY3DLAYER
10
0.124999999999652
20
-0.358253175473127
30
0.249999999999758
11
-3.48326855405281e-013
21
-0.358253175473055
31
0.249999999999758
  0
LINE
  8
MY3DLAYER
10
0.124999999999645
20
-0.370740728286205
30
0.280147619361943
11
-3.55499482485226e-013
21
-0.370740728286133
31
0.280147619361943
  0
LINE
  8
MY3DLAYER
10
0.124999999999663
20
-0.33838834764839
30
0.22411165235144
11
-3.3691685345158e-013
21
-0.338388347648318
31
0.22411165235144
  0
LINE
  8
MY3DLAYER
10
0.124999999999678
20
-0.312500000000072
30
0.204246824526704
11
-3.2204704940135e-013
21
-0.3125
31
0.204246824526704
  0
LINE
  8
MY3DLAYER
10
0.124999999999695
20
-0.282352380637887
30
0.191759271713625
11
-3.047307958271e-013
21
-0.282352380637815
31
0.191759271713625
  0
LINE
  8
MY3DLAYER
10
0.124999999999695
20
-0.282352380637887
30
0.433240728285892
11
-3.047307958271e-013
21
-0.282352380637815
31
0.433240728285892
  0
LINE
  8
MY3DLAYER
10
0.124999999999678
20
-0.312500000000072
30
0.420753175472813
11
-3.2204704940135e-013
21
-0.3125
31
0.420753175472813
  0
LINE
  8
MY3DLAYER
10
0.124999999999663
20
-0.33838834764839
30
0.400888347648077
11
-3.3691685345158e-013
21
-0.338388347648318
31
0.400888347648077
  0
LINE
  8
MY3DLAYER
10
0.124999999999652
20
-0.358253175473127
30
0.374999999999758
11
-3.48326855405281e-013
21
-0.358253175473055
31
0.374999999999758
  0
LINE
  8
MY3DLAYER
10
0.124999999999645
20
-0.370740728286205
30
0.344852380637574
11
-3.55499482485226e-013
21
-0.370740728286133
31
0.344852380637574
  0
LINE
  8
MY3DLAYER
10
0.124999999999783
20
-0.129259271713938
30
0.280147619361943
11
-2.16796851101682e-013
21
-0.129259271713867
31
0.280147619361943
  0
LINE
  8
MY3DLAYER
10
0.39926428547788
20
-0.59055554621483
30
0.75
11
0.39926428547788
21
-0.59055554621483
31
0.625
  0
LINE
  8
MY3DLAYER
10
0.374999999999516
20
-0.593750000000215
30
0.75
11
0.374999999999516
21
-0.593750000000215
31
0.625
  0
LINE
  8
MY3DLAYER
10
0.421874999999524
20
-0.581189881605033
30
0.75
11
0.421874999999524
21
-0.581189881605033
31
0.625
  0
LINE
  8
MY3DLAYER
10
0.124999999999642
20
-0.375000000000072
30
0.312499999999758
11
-3.57945932009246e-013
21
-0.375
31
0.312499999999758
  0
LINE
  8
MY3DLAYER
10
0.124999999999714
20
-0.250000000000072
30
0.187499999999758
11
-2.86148166793454e-013
21
-0.25
31
0.187499999999758
  0
LINE
  8
MY3DLAYER
10
0.124999999999732
20
-0.217647619362257
30
0.191759271713625
11
-2.67565537759808e-013
21
-0.217647619362185
31
0.191759271713625
  0
LINE
  8
MY3DLAYER
10
0.12499999999975
20
-0.187500000000072
30
0.204246824526704
11
-2.50249284185558e-013
21
-0.1875
31
0.204246824526704
  0
LINE
  8
MY3DLAYER
10
0.456189881604388
20
-0.453125000000262
30
0.75
11
0.456189881604388
21
-0.453125000000262
31
0.625
  0
LINE
  8
MY3DLAYER
10
0.465555546214184
20
-0.475735714521906
30
0.75
11
0.465555546214184
21
-0.475735714521906
31
0.625
  0
LINE
  8
MY3DLAYER
10
0.441291260735847
20
-0.433708739264015
30
0.75
11
0.441291260735847
21
-0.433708739264015
31
0.625
  0
LINE
  8
MY3DLAYER
10
0.421874999999617
20
-0.418810118395451
30
0.75
11
0.421874999999617
21
-0.418810118395451
31
0.625
  0
LINE
  8
MY3DLAYER
10
0.399264285477984
20
-0.409444453785629
30
0.75
11
0.399264285477984
21
-0.409444453785629
31
0.625
  0
LINE
  8
MY3DLAYER
10
0.374999999999624
20
-0.406250000000215
30
0.75
11
0.374999999999624
21
-0.406250000000215
31
0.625
  0
LINE
  8
MY3DLAYER
10
0.124999999999765
20
-0.161611652351753
30
0.22411165235144
11
-2.35379480135328e-013
21
-0.161611652351682
31
0.22411165235144
  0
LINE
  8
MY3DLAYER
10
0.124999999999776
20
-0.141746824527017
30
0.249999999999758
11
-2.23969478181628e-013
21
-0.141746824526945
31
0.249999999999758
  0
LINE
  8
MY3DLAYER
10
0.441291260735771
20
-0.566291260736492
30
0.75
11
0.441291260735771
21
-0.566291260736492
31
0.625
  0
LINE
  8
MY3DLAYER
10
0.456189881604334
20
-0.546875000000262
30
0.75
11
0.456189881604334
21
-0.546875000000262
31
0.625
  0
LINE
  8
MY3DLAYER
10
0.28124999999957
20
-0.500000000000162
30
0.75
11
0.28124999999957
21
-0.500000000000162
31
0.625
  0
LINE
  8
MY3DLAYER
10
0.284444453784984
20
-0.475735714521802
30
0.75
11
0.284444453784984
21
-0.475735714521802
31
0.625
  0
LINE
  8
MY3DLAYER
10
0.284444453784956
20
-0.524264285478525
30
0.75
11
0.284444453784956
21
-0.524264285478525
31
0.625
  0
LINE
  8
MY3DLAYER
10
0.293810118394752
20
-0.546875000000169
30
0.75
11
0.293810118394752
21
-0.546875000000169
31
0.625
  0
LINE
  8
MY3DLAYER
10
0.308708739263293
20
-0.566291260736416
30
0.75
11
0.308708739263293
21
-0.566291260736416
31
0.625
  0
LINE
  8
MY3DLAYER
10
0.328124999999524
20
-0.58118988160498
30
0.75
11
0.328124999999524
21
-0.58118988160498
31
0.625
  0
LINE
  8
MY3DLAYER
10
0.465555546214156
20
-0.524264285478629
30
0.75
11
0.465555546214156
21
-0.524264285478629
31
0.625
  0
LINE
  8
MY3DLAYER
10
0.46874999999957
20
-0.500000000000269
30
0.75
11
0.46874999999957
21
-0.500000000000269
31
0.625
  0
LINE
  8
MY3DLAYER
10
0.350735714521261
20
-0.409444453785601
30
0.75
11
0.350735714521261
21
-0.409444453785601
31
0.625
  0
LINE
  8
MY3DLAYER
10
0.456189881604047
20
-1.04687500000026
30
0.75
11
0.456189881604047
21
-1.04687500000026
31
0.625
  0
LINE
  8
MY3DLAYER
10
0.441291260735484
20
-1.06629126073649
30
0.75
11
0.441291260735484
21
-1.06629126073649
31
0.625
  0
LINE
  8
MY3DLAYER
10
0.465555546213869
20
-1.02426428547863
30
0.75
11
0.465555546213869
21
-1.02426428547863
31
0.625
  0
LINE
  8
MY3DLAYER
10
0.468749999999283
20
-1.00000000000027
30
0.75
11
0.468749999999283
21
-1.00000000000027
31
0.625
  0
LINE
  8
MY3DLAYER
10
0.465555546213897
20
-0.975735714521906
30
0.75
11
0.465555546213897
21
-0.975735714521906
31
0.625
  0
LINE
  8
MY3DLAYER
10
0.456189881604101
20
-0.953125000000262
30
0.75
11
0.456189881604101
21
-0.953125000000262
31
0.625
  0
LINE
  8
MY3DLAYER
10
0.328124999999617
20
-0.418810118395397
30
0.75
11
0.328124999999617
21
-0.418810118395397
31
0.625
  0
LINE
  8
MY3DLAYER
10
0.30870873926337
20
-0.433708739263938
30
0.75
11
0.30870873926337
21
-0.433708739263938
31
0.625
  0
LINE
  8
MY3DLAYER
10
0.293810118394806
20
-0.453125000000169
30
0.75
11
0.293810118394806
21
-0.453125000000169
31
0.625
  0
LINE
  8
MY3DLAYER
10
0.350735714521157
20
-0.590555546214802
30
0.75
11
0.350735714521157
21
-0.590555546214802
31
0.625
  0
LINE
  8
MY3DLAYER
10
0.42187499999933
20
-0.918810118395451
30
0.75
11
0.42187499999933
21
-0.918810118395451
31
0.625
  0
LINE
  8
MY3DLAYER
10
0.44129126073556
20
-0.933708739264015
30
0.75
11
0.44129126073556
21
-0.933708739264015
31
0.625
  0
LINE
  8
MY3DLAYER
10
0.399264285477697
20
-0.909444453785629
30
0.75
11
0.399264285477697
21
-0.909444453785629
31
0.625
  0
LINE
  8
MY3DLAYER
10
0.374999999999337
20
-0.906250000000215
30
0.75
11
0.374999999999337
21
-0.906250000000215
31
0.625
  0
LINE
  8
MY3DLAYER
10
0.350735714520974
20
-0.909444453785601
30
0.75
11
0.350735714520974
21
-0.909444453785601
31
0.625
  0
LINE
  8
MY3DLAYER
10
0.32812499999933
20
-0.918810118395397
30
0.75
11
0.32812499999933
21
-0.918810118395397
31
0.625
  0
LINE
  8
MY3DLAYER
10
0.308708739263082
20
-0.933708739263938
30
0.75
11
0.308708739263082
21
-0.933708739263938
31
0.625
  0
LINE
  8
MY3DLAYER
10
0.399264285477593
20
-1.09055554621483
30
0.75
11
0.399264285477593
21
-1.09055554621483
31
0.625
  0
LINE
  8
MY3DLAYER
10
0.421874999999236
20
-1.08118988160503
30
0.75
11
0.421874999999236
21
-1.08118988160503
31
0.625
  0
LINE
  8
MY3DLAYER
10
0.484374999999328
20
-1.16881011839549
30
0.75
11
0.484374999999328
21
-1.16881011839549
31
0.625
  0
LINE
  8
MY3DLAYER
10
0.461764285477695
20
-1.15944445378566
30
0.75
11
0.461764285477695
21
-1.15944445378566
31
0.625
  0
LINE
  8
MY3DLAYER
10
0.437499999999336
20
-1.15625000000025
30
0.75
11
0.437499999999336
21
-1.15625000000025
31
0.625
  0
LINE
  8
MY3DLAYER
10
0.413235714520972
20
-1.15944445378564
30
0.75
11
0.413235714520972
21
-1.15944445378564
31
0.625
  0
LINE
  8
MY3DLAYER
10
0.390624999999328
20
-1.16881011839543
30
0.75
11
0.390624999999328
21
-1.16881011839543
31
0.625
  0
LINE
  8
MY3DLAYER
10
0.371208739263081
20
-1.18370873926397
30
0.75
11
0.371208739263081
21
-1.18370873926397
31
0.625
  0
LINE
  8
MY3DLAYER
10
0.293810118394519
20
-0.953125000000169
30
0.75
11
0.293810118394519
21
-0.953125000000169
31
0.625
  0
LINE
  8
MY3DLAYER
10
0.284444453784697
20
-0.975735714521802
30
0.75
11
0.284444453784697
21
-0.975735714521802
31
0.625
  0
LINE
  8
MY3DLAYER
10
0.356310118394518
20
-1.2031250000002
30
0.75
11
0.356310118394518
21
-1.2031250000002
31
0.625
  0
LINE
  8
MY3DLAYER
10
0.346944453784696
20
-1.22573571452184
30
0.75
11
0.346944453784696
21
-1.22573571452184
31
0.625
  0
LINE
  8
MY3DLAYER
10
0.343749999999282
20
-1.2500000000002
30
0.75
11
0.343749999999282
21
-1.2500000000002
31
0.625
  0
LINE
  8
MY3DLAYER
10
0.346944453784668
20
-1.27426428547856
30
0.75
11
0.346944453784668
21
-1.27426428547856
31
0.625
  0
LINE
  8
MY3DLAYER
10
0.356310118394464
20
-1.2968750000002
30
0.75
11
0.356310118394464
21
-1.2968750000002
31
0.625
  0
LINE
  8
MY3DLAYER
10
0.371208739263005
20
-1.31629126073645
30
0.75
11
0.371208739263005
21
-1.31629126073645
31
0.625
  0
LINE
  8
MY3DLAYER
10
0.281249999999283
20
-1.00000000000016
30
0.75
11
0.281249999999283
21
-1.00000000000016
31
0.625
  0
LINE
  8
MY3DLAYER
10
0.284444453784669
20
-1.02426428547852
30
0.75
11
0.284444453784669
21
-1.02426428547852
31
0.625
  0
LINE
  8
MY3DLAYER
10
0.293810118394465
20
-1.04687500000017
30
0.75
11
0.293810118394465
21
-1.04687500000017
31
0.625
  0
LINE
  8
MY3DLAYER
10
0.390624999999235
20
-1.33118988160501
30
0.75
11
0.390624999999235
21
-1.33118988160501
31
0.625
  0
LINE
  8
MY3DLAYER
10
0.413235714520868
20
-1.34055554621484
30
0.75
11
0.413235714520868
21
-1.34055554621484
31
0.625
  0
LINE
  8
MY3DLAYER
10
0.437499999999228
20
-1.34375000000025
30
0.75
11
0.437499999999228
21
-1.34375000000025
31
0.625
  0
LINE
  8
MY3DLAYER
10
0.461764285477591
20
-1.34055554621487
30
0.75
11
0.461764285477591
21
-1.34055554621487
31
0.625
  0
LINE
  8
MY3DLAYER
10
0.484374999999235
20
-1.33118988160507
30
0.75
11
0.484374999999235
21
-1.33118988160507
31
0.625
  0
LINE
  8
MY3DLAYER
10
0.503791260735483
20
-1.31629126073653
30
0.75
11
0.503791260735483
21
-1.31629126073653
31
0.625
  0
LINE
  8
MY3DLAYER
10
0.518689881604046
20
-1.2968750000003
30
0.75
11
0.518689881604046
21
-1.2968750000003
31
0.625
  0
LINE
  8
MY3DLAYER
10
0.528055546213868
20
-1.27426428547866
30
0.75
11
0.528055546213868
21
-1.27426428547866
31
0.625
  0
LINE
  8
MY3DLAYER
10
0.52805554621447
20
-0.225735714521942
30
0.75
11
0.52805554621447
21
-0.225735714521942
31
0.625
  0
LINE
  8
MY3DLAYER
10
0.531249999999856
20
-0.250000000000305
30
0.75
11
0.531249999999856
21
-0.250000000000305
31
0.625
  0
LINE
  8
MY3DLAYER
10
0.518689881604674
20
-0.203125000000298
30
0.75
11
0.518689881604674
21
-0.203125000000298
31
0.625
  0
LINE
  8
MY3DLAYER
10
0.503791260736133
20
-0.18370873926405
30
0.75
11
0.503791260736133
21
-0.18370873926405
31
0.625
  0
LINE
  8
MY3DLAYER
10
0.484374999999903
20
-0.168810118395487
30
0.75
11
0.484374999999903
21
-0.168810118395487
31
0.625
  0
LINE
  8
MY3DLAYER
10
0.390624999999903
20
-0.168810118395433
30
0.75
11
0.390624999999903
21
-0.168810118395433
31
0.625
  0
LINE
  8
MY3DLAYER
10
0.413235714521547
20
-0.159444453785637
30
0.75
11
0.413235714521547
21
-0.159444453785637
31
0.625
  0
LINE
  8
MY3DLAYER
10
0.371208739263655
20
-0.183708739263974
30
0.75
11
0.371208739263655
21
-0.183708739263974
31
0.625
  0
LINE
  8
MY3DLAYER
10
0.356310118395092
20
-0.203125000000205
30
0.75
11
0.356310118395092
21
-0.203125000000205
31
0.625
  0
LINE
  8
MY3DLAYER
10
0.34694445378527
20
-0.225735714521838
30
0.75
11
0.34694445378527
21
-0.225735714521838
31
0.625
  0
LINE
  8
MY3DLAYER
10
0.343749999999856
20
-0.250000000000197
30
0.75
11
0.343749999999856
21
-0.250000000000197
31
0.625
  0
LINE
  8
MY3DLAYER
10
0.346944453785242
20
-0.274264285478561
30
0.75
11
0.346944453785242
21
-0.274264285478561
31
0.625
  0
LINE
  8
MY3DLAYER
10
0.356310118395038
20
-0.296875000000205
30
0.75
11
0.356310118395038
21
-0.296875000000205
31
0.625
  0
LINE
  8
MY3DLAYER
10
0.46176428547827
20
-0.159444453785665
30
0.75
11
0.46176428547827
21
-0.159444453785665
31
0.625
  0
LINE
  8
MY3DLAYER
10
0.503791260736057
20
-0.316291260736528
30
0.75
11
0.503791260736057
21
-0.316291260736528
31
0.625
  0
LINE
  8
MY3DLAYER
10
0.484374999999809
20
-0.331189881605069
30
0.75
11
0.484374999999809
21
-0.331189881605069
31
0.625
  0
LINE
  8
MY3DLAYER
10
0.51868988160462
20
-0.296875000000298
30
0.75
11
0.51868988160462
21
-0.296875000000298
31
0.625
  0
LINE
  8
MY3DLAYER
10
0.528055546214442
20
-0.274264285478665
30
0.75
11
0.528055546214442
21
-0.274264285478665
31
0.625
  0
LINE
  8
MY3DLAYER
10
0.43749999999991
20
-0.156250000000251
30
0.75
11
0.43749999999991
21
-0.156250000000251
31
0.625
  0
LINE
  8
MY3DLAYER
10
0.371208739263579
20
-0.316291260736452
30
0.75
11
0.371208739263579
21
-0.316291260736452
31
0.625
  0
LINE
  8
MY3DLAYER
10
0.39062499999981
20
-0.331189881605016
30
0.75
11
0.39062499999981
21
-0.331189881605016
31
0.625
  0
LINE
  8
MY3DLAYER
10
0.413235714521443
20
-0.340555546214838
30
0.75
11
0.413235714521443
21
-0.340555546214838
31
0.625
  0
LINE
  8
MY3DLAYER
10
0.437499999999802
20
-0.343750000000251
30
0.75
11
0.437499999999802
21
-0.343750000000251
31
0.625
  0
LINE
  8
MY3DLAYER
10
0.461764285478165
20
-0.340555546214865
30
0.75
11
0.461764285478165
21
-0.340555546214865
31
0.625
  0
ENDSEC
  0
EOF
